max v2;#N vpatcher 86 372 548 756;#P window setfont "Sans Serif" 9.;#P window linecount 1;#P comment 174 20 43 196617 /norm;#P window setfont Times 18.;#N vpatcher 510 259 656 387;#P origin 0 -1;#P bpatcher 0 1 121 79 0 0 t_sensor_calibrate.edit.mxt 0 $1/norm 0 127;#P window setfont "Sans Serif" 9.;#P hidden newex 145 274 174 196617 editorwindow $1/calibr /tapemovie;#B color 11;#N thispatcher;#Q end;#P hidden newobj 145 298 70 196617 thispatcher;#P hidden connect 1 0 0 0;#P pop;#P newobj 180 143 70 1310738 p more2;#B color 6;#P window setfont "Sans Serif" 9.;#P newex 286 110 96 196617 s $1/calibr/editor;#B color 11;#P newex 286 27 48 196617 loadbang;#P message 286 50 75 196617 brgb 200 0 80;#P newex 286 88 40 196617 t front;#P newex 286 68 63 196617 pvar more2;#P user jsui 54 1 30 15 1 0 0 jsui_textbutton.js calibr;#P objectname more2;#P window setfont Times 18.;#N vpatcher 871 49 1403 177;#P origin -79 -129;#P bpatcher 1 0 512 62 0 0 multimapsend.edit.mxt 0 $1/norm/map 2;#P window setfont "Sans Serif" 9.;#P hidden newex 560 25 174 196617 editorwindow $1/more $1/common;#B color 11;#N thispatcher;#Q end;#P hidden newobj 560 49 70 196617 thispatcher;#P hidden connect 1 0 0 0;#P pop;#P newobj 182 113 61 1310738 p more;#B color 6;#P window setfont "Sans Serif" 9.;#P newex 23 290 59 196617 pvar norm;#P newex 23 269 202 196617 variedit $1/norm;#B color 12;#P flonum 216 18 35 9 0 0 8352 3 0 0 0 221 221 221 222 222 222 0 0 0;#P objectname norm;#P newex 10 205 84 196617 pvar interface 2;#P newex 9 226 159 196617 variedit $1/midi/interface $1;#B color 12;#P newex 10 183 46 196617 midiinfo;#P newex 46 161 21 196617 t 1;#P newex 46 142 50 196617 del 1200;#P newex 46 122 48 196617 loadbang;#P user ubumenu 15 22 64 196617 0 1 1 0;#X add;#X prefix_set 0 0 <none> 0;#P objectname interface;#P bpatcher 0 0 256 62 0 0 bkgnd.mxt 0 $1 1;#P objectname background;#P fasten 7 1 6 0 89 224 14 224;#P connect 5 0 7 0;#P fasten 6 0 7 0 14 249 5 249 5 202 15 202;#P fasten 10 0 9 0 28 315 17 315 17 261 28 261;#P connect 9 0 10 0;#P connect 2 0 3 0;#P connect 3 0 4 0;#P connect 4 0 5 1;#P connect 16 0 15 0;#P connect 15 0 13 0;#P connect 13 0 14 0;#P connect 14 0 17 0;#P pop;