max v2;#N vpatcher 1 44 301 529;#P origin 1 0;#P bpatcher 38 183 43 22 0 0 openbutton.mxt 0 prefs "open movie preferences" 43;#P window setfont "Sans Serif" 9.;#N thispatcher;#Q end;#P hidden newobj 154 421 61 196617 thispatcher;#P hidden newex 154 402 87 196617 r ct-mainwindow;#P hidden newex 188 448 88 196617 bgcolor 32 32 32;#P window linecount 2;#P comment 180 93 93 196617 write init sequence to disk;#P button 165 98 15 7;#P window linecount 3;#P hidden message 175 82 105 196617 \; ct-initsequence-write bang;#P bpatcher 135 200 61 22 0 0 openbutton.mxt 0 network "network editors" 61;#P bpatcher 135 176 123 22 0 0 openbutton.mxt 0 analyses-presence "presence branch editors" 123;#P bpatcher 135 152 110 22 0 0 openbutton.mxt 0 analyses-motion "motion branch editors" 110;#P bpatcher 135 128 63 22 0 0 openbutton.mxt 0 cameras "camera editors" 63;#P window linecount 1;#P comment 178 301 47 196617 stop rec;#P button 164 300 15 4;#P comment 112 301 51 196617 start rec;#P button 98 300 15 6;#P comment 27 301 70 196617 setup rec file;#P button 13 300 15 1;#P window linecount 2;#P hidden message 164 308 76 196617 \; record stop;#P hidden message 13 308 118 196617 \; record record_pause;#P hidden message 98 308 90 196617 \; record resume;#P bpatcher 13 231 257 63 0 0 ct_vstreamab.edit.mxt 0 windowxfade;#P hidden button 130 78 15 0;#P window linecount 1;#P hidden newex 130 58 38 196617 sel 48;#P hidden number 130 40 35 9 0 0 0 3 0 0 0 221 221 221 222 222 222 0 0 0;#P hidden newex 115 20 40 196617 key;#P comment 163 22 35 196617 <tab>;#P comment 180 75 88 196617 edit init sequence;#P button 165 74 15 12;#P window linecount 3;#P hidden message 176 69 102 196617 \; ct-initsequence-open bang;#P window linecount 1;#P hidden newex 205 392 75 196617 r camtrk-open;#P hidden message 205 411 33 196617 front;#N thispatcher;#Q end;#P hidden newobj 205 428 61 196617 thispatcher;#P hidden newex 145 321 75 196617 r cam-window;#B color 11;#P message 109 321 33 196617 front;#P window setfont "Sans Serif" 12.;#P newex 109 343 159 196620 v.window 0 200 320 440;#P comment 4 33 137 196620 paramètres actifs;#B frgb 8 58 255;#P window setfont "Sans Serif" 9.;#P hidden message 187 375 93 196617 brgb 164 161 220;#P window setfont "Sans Serif" 18.;#N vpatcher 398 44 1239 489;#P origin 0 8;#P window setfont "Sans Serif" 9.;#P window linecount 0;#P newex 101 195 30 196617 v.jit;#N vpatcher 157 144 946 353;#P window setfont "Sans Serif" 12.;#P window linecount 1;#P comment 15 121 47 196620 events;#P window setfont "Sans Serif" 9.;#P user textedit 155 118 751 139 32897 3 9;#P objectname eventspath;#P button 70 114 31 0;#P objectname eventsbang;#P window linecount 2;#P comment 101 117 44 196617 set filepath;#P window linecount 1;#P hidden newex 500 204 83 196617 pvar eventspath;#P hidden newex 500 162 84 196617 pvar eventsbang;#N vpatcher 44 88 367 395;#N comlet bang to display current path;#P inlet 246 133 15 0;#P window setfont "Sans Serif" 9.;#P message 49 179 40 196617 events;#N comlet to message or text display;#P outlet 127 257 15 0;#P window linecount 1;#P newex 127 234 107 196617 substitute symbol set;#P window linecount 0;#N coll filepaths.coll;#P newobj 127 208 87 196617 coll filepaths.coll;#B color 5;#P newex 49 144 73 196617 t b writeagain;#P newex 127 116 105 196617 prepend store events;#P newex 127 68 44 196617 del 100;#P button 127 49 15 0;#P newex 127 91 74 196617 opendialog fold;#P inlet 127 29 15 0;#P connect 4 0 5 0;#P connect 10 0 9 0;#P connect 5 0 9 0;#P connect 0 0 2 0;#P connect 2 0 3 0;#P connect 3 0 1 0;#P connect 1 0 4 0;#P connect 4 0 6 0;#P connect 9 0 6 0;#P connect 5 1 6 0;#P connect 6 0 7 0;#P connect 7 0 8 0;#P pop;#P hidden newobj 500 184 106 196617 p set-events-filepath;#B color 6;#P hidden newex 342 208 80 196617 pvar configpath;#P hidden newex 342 166 81 196617 pvar configbang;#P window setfont "Sans Serif" 12.;#P comment 15 85 47 196620 config;#P window setfont "Sans Serif" 9.;#P hidden newex 545 253 32 196617 sel 1;#P hidden newex 545 230 38 196617 active;#P hidden newex 320 235 53 196617 closebang;#P hidden message 320 256 22 196617 set;#P user textedit 155 83 751 104 32897 3 9;#P objectname configpath;#P hidden newex 121 199 67 196617 r prefs-open;#B color 11;#P hidden message 121 219 33 196617 front;#N thispatcher;#Q end;#P hidden newobj 121 237 61 196617 thispatcher;#P window setfont "Sans Serif" 18.;#P comment 10 46 85 196626 filepaths;#B frgb 206 206 206;#P window setfont "Sans Serif" 9.;#P window linecount 2;#P comment 118 161 128 196617 access to filepath info with coll "filepaths.coll";#P window linecount 1;#N coll filepaths.coll;#P newobj 31 166 87 196617 coll filepaths.coll;#B color 5;#P window setfont "Sans Serif" 24.;#P comment 6 9 249 196632 CAMTRK preferences;#P window setfont "Sans Serif" 9.;#N vpatcher 44 88 367 395;#N comlet bang to display current path;#P inlet 246 133 15 0;#P window setfont "Sans Serif" 9.;#P message 49 179 37 196617 config;#N comlet to message or text display;#P outlet 127 257 15 0;#P window linecount 1;#P newex 127 234 107 196617 substitute symbol set;#P window linecount 0;#N coll filepaths.coll;#P newobj 127 208 87 196617 coll filepaths.coll;#B color 5;#P newex 49 144 73 196617 t b writeagain;#P newex 127 116 102 196617 prepend store config;#P newex 127 68 44 196617 del 100;#P button 127 49 15 0;#P newex 127 91 74 196617 opendialog fold;#P inlet 127 29 15 0;#P connect 4 0 5 0;#P connect 10 0 9 0;#P connect 5 0 9 0;#P connect 0 0 2 0;#P connect 2 0 3 0;#P connect 3 0 1 0;#P connect 1 0 4 0;#P connect 4 0 6 0;#P connect 9 0 6 0;#P connect 5 1 6 0;#P connect 6 0 7 0;#P connect 7 0 8 0;#P pop;#P hidden newobj 342 188 103 196617 p set-config-filepath;#B color 6;#P button 70 78 31 0;#P objectname configbang;#P hidden newex 15 221 48 196617 loadbang;#P hidden message 15 240 93 196617 brgb 171 152 129;#P hidden newex 15 201 100 196617 bgcolor 84 103 126;#P window linecount 2;#P comment 101 81 44 196617 set filepath;#P user panel 11 73 752 79;#X brgb 171 152 129;#X frgb 0 0 0;#X border 1;#X rounded 11;#X shadow 0;#X done;#P background;#P objectname panel;#P hidden connect 3 0 0 0;#P hidden connect 4 0 3 0;#P hidden connect 13 0 12 0;#P hidden connect 12 0 11 0;#P hidden connect 16 0 15 0;#P hidden connect 20 0 6 0;#P hidden connect 15 0 21 0;#P hidden connect 6 0 21 0;#P hidden connect 18 0 6 1;#P hidden connect 23 0 22 0;#P hidden connect 15 0 24 0;#P hidden connect 22 0 24 0;#P hidden connect 17 0 18 0;#P hidden connect 18 0 22 1;#P pop;#P newobj 202 83 109 196617 p camtrk-preferences;#B color 6;#P message 125 379 33 196617 front;#P window linecount 1;#P newex 125 358 90 196617 r videowindow;#P window setfont "Sans Serif" 14.;#P window linecount 0;#P newex 380 205 211 196622 udpsender udpsend5 camtrk;#B color 6;#P newex 362 236 211 196622 udpsender udpsend6 camtrk;#B color 6;#P window setfont "Sans Serif" 9.;#N vpatcher 963 44 1255 713;#P bpatcher 11 381 257 63 0 0 udpsender.edit.mxt 0 udpsend6 2;#P bpatcher 11 316 257 63 0 0 udpsender.edit.mxt 0 udpsend5 2;#P window setfont "Sans Serif" 18.;#P comment 11 554 254 196626 jit.net.send (image par udp);#B frgb 8 58 255;#P comment 11 454 113 196626 udp receive;#B frgb 8 58 255;#P comment 11 30 100 196626 udp sends;#B frgb 8 58 255;#P bpatcher 11 251 257 63 0 0 udpsender.edit.mxt 0 udpsend4 2;#P bpatcher 11 186 257 63 0 0 udpsender.edit.mxt 0 udpsend3 2;#P bpatcher 10 580 257 63 0 0 jitnetsender.edit.mxt 0 netsend 2;#P comment 100 1 81 196626 network;#B frgb 8 58 255;#P bpatcher 11 480 257 63 0 0 udpreceiver.edit.mxt 0 udpreceive 2;#P bpatcher 11 121 257 63 0 0 udpsender.edit.mxt 0 udpsend2 2;#P bpatcher 11 56 257 63 0 0 udpsender.edit.mxt 0 udpsend1 2;#P window setfont "Sans Serif" 9.;#P hidden message 100 674 33 196617 front;#N thispatcher;#Q end;#P hidden newobj 100 692 61 196617 thispatcher;#P hidden newex 100 654 80 196617 r network-open;#P user panel 6 546 270 4;#X brgb 164 161 220;#X frgb 0 0 0;#X border 1;#X rounded 0;#X shadow 0;#X done;#P background;#P user panel 5 447 270 4;#X brgb 164 161 220;#X frgb 0 0 0;#X border 1;#X rounded 0;#X shadow 0;#X done;#P background;#P user panel 5 645 270 4;#X brgb 164 161 220;#X frgb 0 0 0;#X border 1;#X rounded 0;#X shadow 0;#X done;#P background;#P user panel 271 29 4 620;#X brgb 164 161 220;#X frgb 0 0 0;#X border 1;#X rounded 0;#X shadow 0;#X done;#P background;#P user panel 5 29 270 4;#X brgb 164 161 220;#X frgb 0 0 0;#X border 1;#X rounded 0;#X shadow 0;#X done;#P background;#P user panel 5 29 4 620;#X brgb 164 161 220;#X frgb 0 0 0;#X border 1;#X rounded 0;#X shadow 0;#X done;#P background;#P hidden connect 6 0 8 0;#P hidden connect 8 0 7 0;#P pop;#P newobj 676 155 77 196617 p network-edit;#B color 5;#N vpatcher 217 46 1087 842;#P window setfont Times 9.;#N vpatcher 254 68 476 301;#N comlet to thispatcher;#P outlet 31 190 15 0;#N comlet from toggle;#P inlet 16 106 15 0;#N comlet to toggle;#P outlet 16 72 15 0;#P window setfont Times 9.;#P newex 16 52 18 1310729 t 1;#P newex 16 31 43 1310729 loadbang;#P newex 16 124 40 1310729 sel 1 0;#P window setfont "Sans Serif" 9.;#P message 31 146 158 196617 window flags close \, window exec;#P message 16 164 168 196617 window flags noclose \, window exec;#P connect 3 0 4 0;#P connect 4 0 5 0;#P connect 6 0 2 0;#P connect 2 0 0 0;#P connect 2 1 1 0;#P connect 1 0 7 0;#P connect 0 0 7 0;#P pop;#P hidden newobj 331 29 50 1310729 p closebox;#B color 6;#P toggle 313 29 15 0;#N thispatcher;#Q end;#P hidden newobj 382 29 51 1310729 thispatcher;#P comment 329 29 74 1310729 inhibit close box;#P window setfont "Sans Serif" 18.;#P comment 525 1 77 196626 4 crops;#B frgb 8 58 255;#P bpatcher 581 578 257 63 0 0 ct_jslide.edit.mxt 0 pc4-slide;#P bpatcher 581 706 257 63 0 0 ct_vregions.edit.mxt 0 pc4-regions;#P bpatcher 581 514 257 63 0 0 ct_vbounds.edit.mxt 0 pc4-bounds;#P bpatcher 581 642 257 63 0 0 ct_vsum.edit.mxt 0 pc4-sum;#P bpatcher 581 450 257 63 0 0 ct_vcentroid.edit.mxt 0 pc4-centroid;#P bpatcher 310 578 257 63 0 0 ct_jslide.edit.mxt 0 pc3-slide;#P bpatcher 310 706 257 63 0 0 ct_vregions.edit.mxt 0 pc3-regions;#P bpatcher 310 514 257 63 0 0 ct_vbounds.edit.mxt 0 pc3-bounds;#P bpatcher 310 642 257 63 0 0 ct_vsum.edit.mxt 0 pc3-sum;#P bpatcher 310 450 257 63 0 0 ct_vcentroid.edit.mxt 0 pc3-centroid;#P bpatcher 581 247 257 63 0 0 ct_jslide.edit.mxt 0 pc2-slide;#P bpatcher 581 375 257 63 0 0 ct_vregions.edit.mxt 0 pc2-regions;#P bpatcher 581 183 257 63 0 0 ct_vbounds.edit.mxt 0 pc2-bounds;#P bpatcher 581 311 257 63 0 0 ct_vsum.edit.mxt 0 pc2-sum;#P bpatcher 581 119 257 63 0 0 ct_vcentroid.edit.mxt 0 pc2-centroid;#P user fpic 273 61 168 16 arrowR2.png 0 0 0 0. 0 0 3;#X interp 1;#P bpatcher 310 247 257 63 0 0 ct_jslide.edit.mxt 0 pc1-slide;#P bpatcher 310 375 257 63 0 0 ct_vregions.edit.mxt 0 pc1-regions;#P bpatcher 310 183 257 63 0 0 ct_vbounds.edit.mxt 0 pc1-bounds;#P bpatcher 310 311 257 63 0 0 ct_vsum.edit.mxt 0 pc1-sum;#P bpatcher 310 119 257 63 0 0 ct_vcentroid.edit.mxt 0 pc1-centroid;#P bpatcher 444 37 257 63 0 0 ct_v4crops.edit.mxt 0 p-4crops;#P user fpic 13 327 15 19 arrowD1.png 0 0 0 0. 0 0 3;#X interp 1;#P user fpic 13 110 15 155 arrowD2.png 0 0 0 0. 0 0 3;#X interp 1;#P user fpic 22 99 17 22 arrowD1R1.png 0 0 0 0. 0 0 3;#X interp 1;#P bpatcher 39 183 257 63 0 0 ct_vbounds.edit.mxt 0 p-bounds;#P bpatcher 14 474 257 63 0 0 ct_vregions.edit.mxt 0 p-regions2;#P bpatcher 14 410 257 63 0 0 ct_vregions.edit.mxt 0 p-regions;#P bpatcher 14 264 257 63 0 0 ct_jslide.edit.mxt 0 p-slide;#P bpatcher 14 346 257 63 0 0 ct_vsum.edit.mxt 0 p-sum;#P bpatcher 39 119 257 63 0 0 ct_vcentroid.edit.mxt 0 p-centroid;#P bpatcher 14 37 257 63 0 0 ct_vpresence.edit.mxt 0 presence;#P comment 69 1 185 196626 analyses - presence;#B frgb 8 58 255;#P window setfont "Sans Serif" 9.;#P hidden message 104 615 33 196617 front;#N thispatcher;#Q end;#P hidden newobj 104 633 61 196617 thispatcher;#P hidden newex 104 595 127 196617 r analyses-presence-open;#P user panel 843 110 4 667;#X brgb 164 161 220;#X frgb 0 0 0;#X border 1;#X rounded 0;#X shadow 0;#X done;#P background;#P user panel 305 441 538 4;#X brgb 164 161 220;#X frgb 0 0 0;#X border 1;#X rounded 0;#X shadow 0;#X done;#P background;#P user panel 301 541 4 236;#X brgb 164 161 220;#X frgb 0 0 0;#X border 1;#X rounded 0;#X shadow 0;#X done;#P background;#P user panel 305 773 538 4;#X brgb 164 161 220;#X frgb 0 0 0;#X border 1;#X rounded 0;#X shadow 0;#X done;#P background;#P user panel 305 110 538 4;#X brgb 164 161 220;#X frgb 0 0 0;#X border 1;#X rounded 0;#X shadow 0;#X done;#P background;#P user panel 572 110 4 667;#X brgb 164 161 220;#X frgb 0 0 0;#X border 1;#X rounded 0;#X shadow 0;#X done;#P background;#P user panel 301 28 4 514;#X brgb 164 161 220;#X frgb 0 0 0;#X border 1;#X rounded 0;#X shadow 0;#X done;#P background;#P user panel 5 542 296 4;#X brgb 164 161 220;#X frgb 0 0 0;#X border 1;#X rounded 0;#X shadow 0;#X done;#P background;#P user panel 5 28 296 4;#X brgb 164 161 220;#X frgb 0 0 0;#X border 1;#X rounded 0;#X shadow 0;#X done;#P background;#P user panel 5 32 4 510;#X brgb 164 161 220;#X frgb 0 0 0;#X border 1;#X rounded 0;#X shadow 0;#X done;#P background;#P hidden connect 10 0 12 0;#P hidden connect 12 0 11 0;#P hidden connect 50 0 49 0;#P hidden connect 49 0 50 0;#P hidden connect 50 1 48 0;#P pop;#P newobj 676 224 124 196617 p analyses-presence-edit;#B color 5;#N vpatcher 302 44 635 601;#P user fpic 29 189 15 19 arrowD1.png 0 0 0 0. 0 0 3;#X interp 1;#P window setfont Times 9.;#N vpatcher 254 68 476 301;#N comlet to thispatcher;#P outlet 31 190 15 0;#N comlet from toggle;#P inlet 16 106 15 0;#N comlet to toggle;#P outlet 16 72 15 0;#P window setfont Times 9.;#P newex 16 52 18 1310729 t 1;#P newex 16 31 43 1310729 loadbang;#P newex 16 124 40 1310729 sel 1 0;#P window setfont "Sans Serif" 9.;#P message 31 146 158 196617 window flags close \, window exec;#P message 16 164 168 196617 window flags noclose \, window exec;#P connect 3 0 4 0;#P connect 4 0 5 0;#P connect 6 0 2 0;#P connect 2 0 0 0;#P connect 2 1 1 0;#P connect 1 0 7 0;#P connect 0 0 7 0;#P pop;#P hidden newobj 19 1 50 1310729 p closebox;#B color 6;#P toggle 1 1 15 0;#N thispatcher;#Q end;#P hidden newobj 70 1 51 1310729 thispatcher;#P comment 17 1 74 1310729 inhibit close box;#P user fpic 29 100 15 19 arrowD1.png 0 0 0 0. 0 0 3;#X interp 1;#P bpatcher 30 278 257 63 0 0 ct_vbounds.edit.mxt 0 bounds;#P bpatcher 30 470 257 63 0 0 ct_vregions.edit.mxt 0 regions2;#P bpatcher 30 406 257 63 0 0 ct_vregions.edit.mxt 0 regions;#P bpatcher 30 122 257 63 0 0 ct_jslide.edit.mxt 0 slide;#P bpatcher 30 342 257 63 0 0 ct_vsum.edit.mxt 0 sum;#P bpatcher 30 214 257 63 0 0 ct_vcentroid.edit.mxt 0 centroid;#P bpatcher 30 33 257 63 0 0 ct_vmotion.edit.mxt 0 motion;#P window setfont "Sans Serif" 18.;#P comment 84 3 164 196626 analyses - motion;#B frgb 8 58 255;#P window setfont "Sans Serif" 9.;#P hidden message 275 320 33 196617 front;#N thispatcher;#Q end;#P hidden newobj 275 338 61 196617 thispatcher;#P hidden newex 275 300 117 196617 r analyses-motion-open;#P user panel 9 534 300 4;#X brgb 164 161 220;#X frgb 0 0 0;#X border 1;#X rounded 0;#X shadow 0;#X done;#P background;#P user panel 9 28 300 4;#X brgb 164 161 220;#X frgb 0 0 0;#X border 1;#X rounded 0;#X shadow 0;#X done;#P background;#P user panel 309 28 4 510;#X brgb 164 161 220;#X frgb 0 0 0;#X border 1;#X rounded 0;#X shadow 0;#X done;#P background;#P user panel 5 28 4 510;#X brgb 164 161 220;#X frgb 0 0 0;#X border 1;#X rounded 0;#X shadow 0;#X done;#P background;#P hidden connect 19 0 18 0;#P hidden connect 18 0 19 0;#P hidden connect 19 1 17 0;#P hidden connect 4 0 6 0;#P hidden connect 6 0 5 0;#P pop;#P newobj 676 201 114 196617 p analyses-motion-edit;#B color 5;#N vpatcher 723 102 1286 682;#P origin 0 -16;#P bpatcher 281 164 256 62 0 0 ct_vresize.edit.mxt 0 resize2;#P bpatcher 10 164 256 62 0 0 ct_vresize.edit.mxt 0 resize;#P window setfont Times 9.;#N vpatcher 254 68 476 301;#N comlet to thispatcher;#P outlet 31 190 15 0;#N comlet from toggle;#P inlet 16 106 15 0;#N comlet to toggle;#P outlet 16 72 15 0;#P window setfont Times 9.;#P newex 16 52 18 1310729 t 1;#P newex 16 31 43 1310729 loadbang;#P newex 16 124 40 1310729 sel 1 0;#P window setfont "Sans Serif" 9.;#P message 31 146 158 196617 window flags close \, window exec;#P message 16 164 168 196617 window flags noclose \, window exec;#P connect 3 0 4 0;#P connect 4 0 5 0;#P connect 6 0 2 0;#P connect 2 0 0 0;#P connect 2 1 1 0;#P connect 0 0 7 0;#P connect 1 0 7 0;#P pop;#P hidden newobj 23 2 50 1310729 p closebox;#B color 6;#P toggle 5 2 15 0;#N thispatcher;#Q end;#P hidden newobj 74 2 51 1310729 thispatcher;#P comment 21 2 74 1310729 inhibit close box;#P user fpic 201 300 147 74 combine2.png 0 0 0 0. 0 0 0;#P window setfont "Sans Serif" 9.;#P hidden message 73 328 33 196617 front;#N thispatcher;#Q end;#P hidden newobj 73 346 61 196617 thispatcher;#P hidden newex 73 307 81 196617 r cameras-open;#P toggle 376 337 27 0;#P hidden newex 403 348 83 196617 vari ct-permute;#P comment 403 345 88 196617 permute cameras;#B frgb 255 0 0;#P window setfont "Sans Serif" 18.;#P number 376 305 35 18 0 2 3 3 0 0 0 221 221 221 222 222 222 0 0 0;#P window setfont "Sans Serif" 9.;#P hidden newex 411 315 111 196617 vari ct-howmanycams;#P comment 411 312 90 196617 how many cams ?;#B frgb 255 0 0;#P bpatcher 278 471 256 62 0 0 ct_vzoom.edit.mxt 0 zoom;#P bpatcher 278 404 256 62 0 0 ct_vflip.edit.mxt 0 flip;#P bpatcher 13 471 256 62 0 0 ct_vcontrast.edit.mxt 0 contrast;#P bpatcher 13 404 256 62 0 0 ct_vgain.edit.mxt 0 gain;#P bpatcher 281 231 256 62 0 0 ct_vrotate.edit.mxt 0 rotate2;#P bpatcher 281 35 256 124 0 0 ct_vcapture.edit.mxt 0 capture2;#P bpatcher 10 231 256 62 0 0 ct_vrotate.edit.mxt 0 rotate;#P bpatcher 10 35 256 124 0 0 ct_vcapture.edit.mxt 0 capture;#P window setfont "Sans Serif" 18.;#P comment 12 378 108 196626 prep image;#B frgb 8 58 255;#P user panel 4 535 540 4;#X brgb 164 161 220;#X frgb 0 0 0;#X border 1;#X rounded 0;#X shadow 0;#X done;#P background;#P user panel 4 295 540 4;#X brgb 164 161 220;#X frgb 0 0 0;#X border 1;#X rounded 0;#X shadow 0;#X done;#P background;#P user panel 272 29 4 270;#X brgb 164 161 220;#X frgb 0 0 0;#X border 1;#X rounded 0;#X shadow 0;#X done;#P background;#P user panel 540 29 4 510;#X brgb 164 161 220;#X frgb 0 0 0;#X border 1;#X rounded 0;#X shadow 0;#X done;#P background;#P user panel 4 376 540 4;#X brgb 164 161 220;#X frgb 0 0 0;#X border 1;#X rounded 0;#X shadow 0;#X done;#P background;#P user panel 4 29 540 4;#X brgb 164 161 220;#X frgb 0 0 0;#X border 1;#X rounded 0;#X shadow 0;#X done;#P background;#P user panel 4 29 4 510;#X brgb 164 161 220;#X frgb 0 0 0;#X border 1;#X rounded 0;#X shadow 0;#X done;#P background;#P hidden connect 29 0 28 0;#P hidden connect 28 0 29 0;#P hidden connect 22 0 24 0;#P hidden connect 24 0 23 0;#P hidden connect 29 1 27 0;#P hidden connect 17 0 18 0;#P hidden connect 20 0 21 0;#P hidden connect 21 0 20 0;#P hidden connect 18 0 17 0;#P pop;#P newobj 676 178 78 196617 p cameras-edit;#B color 5;#P window setfont "Sans Serif" 14.;#P newex 463 82 211 196622 udpsender udpsend1 camtrk;#B color 6;#P newex 445 113 211 196622 udpsender udpsend2 camtrk;#B color 6;#P newex 427 144 211 196622 udpsender udpsend3 camtrk;#B color 6;#P newex 362 280 229 196622 udpreceiver udpreceive camtrk;#B color 6;#P newex 409 175 211 196622 udpsender udpsend4 camtrk;#B color 6;#P window setfont "Sans Serif" 9.;#P newex 362 35 79 196617 r fromCAMTRK;#B color 5;#P window linecount 2;#P message 714 80 82 196617 \; OSC testOSC \$1;#P number 714 60 35 9 0 0 0 3 0 0 0 221 221 221 222 222 222 0 0 0;#P window linecount 1;#P newex 714 39 36 196617 r test;#P window setfont "Sans Serif" 14.;#N vpatcher 193 145 1046 679;#P origin 0 -4;#P window setfont "Sans Serif" 9.;#P window linecount 0;#P newex 16 54 38 196617 del 10;#P window linecount 1;#P message 592 205 64 196617 n;#P newex 592 185 62 196617 prepend set;#P button 563 294 15 0;#P window linecount 2;#P message 563 314 95 196617 \; network-open bang;#P window linecount 1;#P newex 563 273 27 196617 sel;#P number 580 252 35 9 0 0 0 3 0 0 0 221 221 221 222 222 222 0 0 0;#P newex 580 227 40 196617 atoi;#P window linecount 3;#P comment 192 58 191 196617 mainwindow videowindow camerawindow motionwindow presencewindow presence-setreference cropwindow;#P window linecount 9;#P comment 412 34 127 196617 w = videowindow \; c = camerawindow \; p = presencewindow \; m = motionwindow \; v = mainwindow \; C = cropwindow \; P = presence-setreference \; n = networkwindow \;;#P window linecount 0;#P message 519 205 64 196617 C;#P window linecount 1;#P newex 519 185 62 196617 prepend set;#P window linecount 0;#P message 446 205 64 196617 P;#P window linecount 1;#P newex 446 185 62 196617 prepend set;#P window linecount 0;#P message 373 205 64 196617 p;#P window linecount 1;#P newex 373 185 62 196617 prepend set;#P window linecount 0;#P message 300 205 64 196617 m;#P window linecount 1;#P newex 300 185 62 196617 prepend set;#P window linecount 0;#P message 227 205 64 196617 c;#P window linecount 1;#P newex 227 185 62 196617 prepend set;#P window linecount 0;#P message 154 205 64 196617 w;#P window linecount 1;#P newex 154 185 62 196617 prepend set;#P window linecount 0;#P message 81 205 64 196617 v;#P newex 81 185 62 196617 prepend set;#P button 490 327 15 0;#P window linecount 2;#P message 490 347 136 196617 \; ct-p-4crops-moreopen bang;#P window linecount 1;#P newex 490 306 27 196617 sel;#P number 507 252 35 9 0 0 0 3 0 0 0 221 221 221 222 222 222 0 0 0;#P newex 507 227 40 196617 atoi;#P button 417 362 15 0;#P window linecount 2;#P message 417 381 150 196617 \; ct-presence-setreference bang;#P window linecount 1;#P newex 417 342 27 196617 sel;#P number 434 252 35 9 0 0 0 3 0 0 0 221 221 221 222 222 222 0 0 0;#P newex 434 227 40 196617 atoi;#P button 344 428 15 0;#P window linecount 2;#P message 344 448 142 196617 \; analyses-presence-open bang;#P window linecount 1;#P newex 344 407 27 196617 sel;#P number 361 252 35 9 0 0 0 3 0 0 0 221 221 221 222 222 222 0 0 0;#P newex 361 227 40 196617 atoi;#P button 271 326 15 0;#P window linecount 2;#P message 271 344 132 196617 \; analyses-motion-open bang;#P window linecount 1;#P newex 271 306 27 196617 sel;#P number 288 252 35 9 0 0 0 3 0 0 0 221 221 221 222 222 222 0 0 0;#P newex 288 227 40 196617 atoi;#P button 198 432 15 0;#P window linecount 0;#P newex 198 412 27 196617 sel;#P number 215 252 35 9 0 0 0 3 0 0 0 221 221 221 222 222 222 0 0 0;#P newex 215 227 40 196617 atoi;#P window linecount 2;#P message 198 450 96 196617 \; cameras-open bang;#P number 142 252 35 9 0 0 0 3 0 0 0 221 221 221 222 222 222 0 0 0;#P window linecount 1;#P newex 142 227 40 196617 atoi;#P button 141 360 15 0;#P window linecount 2;#P message 141 380 105 196617 \; ct-videowindow bang;#P window linecount 1;#P newex 141 339 27 196617 sel;#P button 52 399 15 0;#P window linecount 2;#P message 52 418 105 196617 \; ct-mainwindow front;#P window linecount 0;#P newex 52 378 27 196617 sel;#P number 69 252 35 9 0 0 0 3 0 0 0 221 221 221 222 222 222 0 0 0;#P newex 12 270 40 196617 key;#P window linecount 1;#P newex 69 227 40 196617 atoi;#P window linecount 0;#P newex 69 160 599 196617 route mainwindow videowindow camerawindow motionwindow presencewindow presence-setreference cropwindow networkwindow;#P window linecount 1;#P newex 69 140 70 196617 r ct-shortcut;#B color 11;#P button 16 36 15 0;#P bpatcher 16 74 128 62 0 0 qlistinitshell.edit.mxt 0 ct-initsequence;#P window linecount 0;#P newex 107 15 30 196617 r //;#P window linecount 1;#P newex 16 15 70 196617 r camtrk-init;#B color 11;#P window linecount 7;#P comment 563 34 112 196617 w = fenêtre vidéo \; c= fenêtre caméra \; p = fenêtre présence \; m = fenêtre motion \; v = fenêtre principale \; C = fenêtre crop \; P = persistence \;;#P connect 1 0 4 0;#P connect 4 0 66 0;#P connect 66 0 3 0;#P connect 8 0 10 0;#P lcolor 6;#P connect 10 0 12 0;#P connect 12 0 11 0;#P connect 5 0 6 0;#P connect 6 0 7 0;#P connect 7 0 9 0;#P connect 9 0 10 1;#P connect 6 0 43 0;#P connect 43 0 44 0;#P connect 8 0 13 0;#P lcolor 6;#P connect 13 0 15 0;#P connect 15 0 14 0;#P connect 6 1 16 0;#P connect 16 0 17 0;#P connect 6 1 45 0;#P connect 45 0 46 0;#P connect 17 0 13 1;#P connect 8 0 21 0;#P lcolor 6;#P connect 21 0 22 0;#P connect 22 0 18 0;#P connect 6 2 19 0;#P connect 19 0 20 0;#P connect 20 0 21 1;#P connect 6 2 47 0;#P connect 47 0 48 0;#P connect 8 0 25 0;#P lcolor 6;#P connect 25 0 27 0;#P connect 27 0 26 0;#P connect 6 3 23 0;#P connect 23 0 24 0;#P connect 24 0 25 1;#P connect 6 3 49 0;#P connect 49 0 50 0;#P connect 8 0 30 0;#P lcolor 6;#P connect 30 0 32 0;#P connect 32 0 31 0;#P connect 6 4 28 0;#P connect 28 0 29 0;#P connect 29 0 30 1;#P connect 6 4 51 0;#P connect 51 0 52 0;#P connect 8 0 35 0;#P lcolor 6;#P connect 35 0 37 0;#P connect 37 0 36 0;#P connect 6 5 33 0;#P connect 33 0 34 0;#P connect 34 0 35 1;#P connect 6 5 53 0;#P connect 53 0 54 0;#P connect 8 0 40 0;#P lcolor 6;#P connect 40 0 42 0;#P connect 42 0 41 0;#P connect 6 6 38 0;#P connect 38 0 39 0;#P connect 39 0 40 1;#P connect 6 6 55 0;#P connect 55 0 56 0;#P connect 8 0 61 0;#P lcolor 6;#P connect 61 0 63 0;#P connect 63 0 62 0;#P connect 6 7 59 0;#P connect 59 0 60 0;#P connect 60 0 61 1;#P connect 6 7 64 0;#P connect 64 0 65 0;#P pop;#P newobj 230 46 44 196622 p init;#B color 5;#N vpatcher 184 394 932 722;#P window setfont "Sans Serif" 9.;#P window linecount 2;#P newex 612 259 70 196617 ct_vregions pc4-regions;#B color 13;#P newex 612 190 57 196617 ct_jslide pc4-slide;#B color 13;#P newex 621 224 54 196617 ct_vsum pc4-sum;#B color 13;#P newex 621 156 67 196617 ct_vbounds pc4-bounds;#B color 13;#P newex 629 122 73 196617 ct_vcentroid pc4-centroid;#B color 13;#P newex 485 259 70 196617 ct_vregions pc3-regions;#B color 13;#P newex 485 190 57 196617 ct_jslide pc3-slide;#B color 13;#P newex 494 224 54 196617 ct_vsum pc3-sum;#B color 13;#P newex 494 156 67 196617 ct_vbounds pc3-bounds;#B color 13;#P newex 502 122 73 196617 ct_vcentroid pc3-centroid;#B color 13;#P newex 358 259 70 196617 ct_vregions pc2-regions;#B color 13;#P newex 358 190 57 196617 ct_jslide pc2-slide;#B color 13;#P newex 367 224 54 196617 ct_vsum pc2-sum;#B color 13;#P newex 367 156 67 196617 ct_vbounds pc2-bounds;#B color 13;#P newex 375 122 73 196617 ct_vcentroid pc2-centroid;#B color 13;#P newex 231 259 70 196617 ct_vregions pc1-regions;#B color 13;#P newex 231 190 57 196617 ct_jslide pc1-slide;#B color 13;#P newex 240 224 54 196617 ct_vsum pc1-sum;#B color 13;#P newex 240 156 67 196617 ct_vbounds pc1-bounds;#B color 13;#P newex 248 122 73 196617 ct_vcentroid pc1-centroid;#B color 13;#P window linecount 1;#P newex 231 96 392 196617 ct_v4crops p-4crops;#B color 6;#P newex 36 224 116 196617 ct_vregions p-regions2;#B color 13;#P newex 53 122 104 196617 ct_vbounds p-bounds;#B color 13;#P newex 56 199 110 196617 ct_vregions p-regions;#B color 13;#P newex 36 151 84 196617 ct_jslide p-slide;#B color 13;#P newex 69 175 80 196617 ct_vsum p-sum;#B color 13;#P newex 65 97 118 196617 ct_vcentroid p-centroid;#B color 13;#P newex 36 68 114 196617 ct_vpresence presence;#B color 13;#P inlet 36 41 15 0;#P connect 0 0 1 0;#P fasten 1 1 4 0 145 91 41 91;#P connect 4 0 7 0;#P fasten 1 1 6 0 145 91 58 91;#P connect 4 0 5 0;#P fasten 1 1 2 0 145 91 70 91;#P connect 4 0 3 0;#P fasten 1 1 8 0 145 88 236 88;#P connect 8 0 12 0;#P connect 12 0 13 0;#P connect 8 0 10 0;#P connect 12 0 11 0;#P connect 8 0 9 0;#P connect 8 1 17 0;#P connect 17 0 18 0;#P connect 8 1 15 0;#P connect 17 0 16 0;#P connect 8 1 14 0;#P connect 8 2 22 0;#P connect 22 0 23 0;#P connect 8 2 20 0;#P connect 22 0 21 0;#P connect 8 2 19 0;#P connect 8 3 27 0;#P connect 27 0 28 0;#P connect 8 3 25 0;#P connect 27 0 26 0;#P connect 8 3 24 0;#P pop;#P newobj 176 121 159 196622 p analyses_presence;#B color 6;#N vpatcher 773 44 1015 317;#P window setfont "Sans Serif" 9.;#P newex 74 139 94 196617 ct_vbounds bounds;#B color 13;#P newex 36 216 106 196617 ct_vregions regions2;#B color 13;#P newex 53 191 100 196617 ct_vregions regions;#B color 13;#P newex 36 87 74 196617 ct_jslide slide;#B color 13;#P newex 66 168 70 196617 ct_vsum sum;#B color 13;#P newex 75 112 108 196617 ct_vcentroid centroid;#B color 13;#P newex 36 61 94 196617 ct_vmotion motion;#B color 13;#P inlet 36 41 15 0;#P connect 0 0 1 0;#P connect 1 0 4 0;#P connect 4 0 6 0;#P connect 4 0 5 0;#P connect 4 0 3 0;#P connect 4 0 7 0;#P connect 4 0 2 0;#P pop;#P newobj 32 121 139 196622 p analyses_motion;#B color 6;#P window setfont "Sans Serif" 9.;#P newex 32 81 45 196617 v.grays;#B color 14;#P window setfont "Sans Serif" 14.;#N vpatcher 335 44 944 651;#P window setfont "Sans Serif" 9.;#P newex 326 118 90 196617 ct_vresize resize;#B color 13;#P newex 57 118 96 196617 ct_vresize resize2;#B color 13;#P flonum 304 511 85 9 0 0 0 3 0 0 0 221 221 221 222 222 222 0 0 0;#P number 258 500 42 9 0 0 0 3 0 0 0 221 221 221 222 222 222 0 0 0;#P number 213 500 42 9 0 0 0 3 0 0 0 221 221 221 222 222 222 0 0 0;#P newex 213 475 170 196617 v.info;#P newex 164 339 47 196617 v.gate 2;#P message 357 52 91 196617 use_movie_size 1;#P newex 27 477 64 196617 ct_vflip flip;#B color 13;#P newex 27 446 110 196617 ct_vcontrast contrast;#B color 13;#P number 300 387 42 9 0 0 0 3 0 0 0 221 221 221 222 222 222 0 0 0;#P newex 300 367 27 196617 * 2;#P newex 345 346 40 196617 change;#P newex 300 346 40 196617 change;#P newex 300 406 55 196617 pak;#P message 300 427 58 196617 size \$1 \$2;#P number 345 326 42 9 0 0 0 3 0 0 0 221 221 221 222 222 222 0 0 0;#P number 300 326 42 9 0 0 0 3 0 0 0 221 221 221 222 222 222 0 0 0;#P newex 300 301 170 196617 v.info;#P message 240 309 31 196617 \$1 0;#P newex 64 192 55 196617 r permute;#B color 13;#P newex 64 231 27 196617 + 1;#P toggle 64 212 15 0;#P newex 201 255 47 196617 v.gate 2;#P newex 64 257 47 196617 v.gate 2;#P number 27 309 35 9 0 2 3 3 0 0 0 221 221 221 222 222 222 0 0 0;#P newex 27 287 83 196617 r howmanycams;#B color 13;#P newex 27 339 47 196617 v.gate 2;#P newex 115 386 135 196617 v.composite 2 yuv 160 240;#B color 5;#P newex 500 32 70 196617 r camtrk-init;#B color 11;#P message 538 53 43 196617 resume;#P message 500 53 29 196617 stop;#P message 461 53 30 196617 read;#P newex 461 78 79 196617 v.movie;#P newex 326 142 90 196617 ct_vrotate rotate;#B color 13;#P newex 326 72 102 196617 ct_vcapture capture;#B color 13;#P newex 326 165 58 196617 v.idleblack;#P newex 231 32 70 196617 r camtrk-init;#B color 11;#P message 269 53 43 196617 resume;#P message 231 53 29 196617 stop;#P message 192 53 30 196617 read;#P newex 192 78 79 196617 v.movie;#P newex 57 140 96 196617 ct_vrotate rotate2;#B color 13;#P newex 57 72 108 196617 ct_vcapture capture2;#B color 13;#P newex 57 163 58 196617 v.idleblack;#P newex 27 509 80 196617 ct_vzoom zoom;#B color 13;#P newex 27 415 70 196617 ct_vgain gain;#B color 13;#P outlet 27 554 15 0;#P connect 21 0 22 0;#P connect 22 0 20 0;#P connect 19 0 1 0;#P connect 20 0 1 0;#P connect 1 0 38 0;#P connect 38 0 39 0;#P connect 39 0 2 0;#P connect 2 0 0 0;#P connect 4 0 46 0;#P connect 6 0 46 0;#P connect 46 0 5 0;#P connect 5 0 3 0;#P connect 27 0 25 0;#P connect 25 0 26 0;#P connect 26 0 23 0;#P connect 24 1 20 1;#P connect 23 0 20 1;#P connect 11 0 23 1;#P connect 32 0 19 0;#P connect 20 1 19 0;#P connect 22 0 41 0;#P connect 40 0 6 0;#P connect 7 0 6 0;#P connect 9 0 6 0;#P connect 8 0 6 0;#P connect 26 0 24 0;#P connect 23 1 41 1;#P connect 24 0 41 1;#P connect 42 1 43 0;#P connect 10 0 8 0;#P connect 3 0 24 1;#P connect 30 0 28 0;#P connect 28 0 19 1;#P connect 41 1 19 1;#P connect 42 2 44 0;#P connect 23 0 29 0;#P connect 24 1 29 0;#P connect 29 1 30 0;#P connect 30 0 34 0;#P connect 34 0 36 0;#P connect 36 0 37 0;#P connect 37 0 33 0;#P connect 33 0 32 0;#P connect 42 7 45 0;#P connect 14 0 47 0;#P connect 12 0 47 0;#P connect 47 0 13 0;#P connect 13 0 11 0;#P connect 29 2 31 0;#P connect 31 0 35 0;#P connect 35 0 33 1;#P connect 16 0 14 0;#P connect 17 0 14 0;#P connect 15 0 14 0;#P connect 40 0 14 0;#P connect 18 0 16 0;#P pop;#P newobj 32 46 100 196622 p camerasX2;#B color 6;#P window setfont "Sans Serif" 9.;#P newex 76 253 62 196617 r record;#B color 11;#P newex 32 168 149 196617 ct_vstreamab windowxfade;#B color 13;#P number 311 397 42 9 0 0 0 3 0 0 0 221 221 221 222 222 222 0 0 0;#P number 266 397 42 9 0 0 0 3 0 0 0 221 221 221 222 222 222 0 0 0;#P newex 266 373 170 196617 v.info;#P message 161 249 71 196617 record_pause;#P message 206 293 29 196617 stop;#P message 238 249 43 196617 resume;#P message 202 271 35 196617 pause;#P message 161 271 40 196617 record;#P newex 76 311 120 196617 v.record jpeg normal 32;#P outlet 32 395 15 0;#P window linecount 2;#P message 273 341 79 196617 \; storetemp bang;#P window linecount 1;#P newex 101 215 102 196617 jitnetsender netsend;#B color 13;#P connect 14 0 15 0;#P connect 15 0 16 0;#P connect 12 0 2 0;#P connect 35 0 2 0;#P connect 12 0 3 0;#P connect 13 0 3 0;#P connect 4 0 3 0;#P connect 5 0 3 0;#P connect 6 0 3 0;#P connect 7 0 3 0;#P connect 8 0 3 0;#P fasten 12 0 37 0 37 190 106 190;#P connect 37 0 0 0;#P connect 34 0 35 0;#P fasten 15 0 17 0 37 106 181 106;#P connect 12 0 9 0;#P connect 9 1 10 0;#P connect 9 2 11 0;#P connect 22 0 32 0;#P connect 22 0 33 0;#P connect 22 0 23 0;#P connect 22 0 25 0;#P connect 22 0 26 0;#P connect 22 0 27 0;#P connect 19 0 20 0;#P connect 20 0 21 0;#P pop;#P newobj 14 330 90 196626 p motors;#B color 6;#P bpatcher 7 48 108 128 0 0 activeparamsosc.edit.mxt 0 activeparamsosc ct_switchstate camtrk;#P window setfont "Sans Serif" 14.;#P window linecount 2;#P comment 28 377 68 196622 conduite (qlists);#B frgb 8 58 255;#P window setfont "Sans Serif" 12.;#P window linecount 1;#P comment 23 415 80 196620 double-click;#B frgb 0 0 180;#P comment 4 19 106 196620 stockage des;#B frgb 8 58 255;#P button 163 34 33 6;#P window setfont "Sans Serif" 9.;#P window linecount 2;#P hidden message 200 33 85 196617 \; camtrk-init bang;#B color 7;#P window linecount 1;#P hidden newex 132 396 50 196617 del 5000;#P hidden newex 132 377 48 196617 loadbang;#P window setfont "Sans Serif" 18.;#N vpatcher 517 180 719 853;#P bpatcher 18 584 128 62 0 0 qlistshell.edit.mxt 0 ct-preset10;#P bpatcher 18 522 128 62 0 0 qlistshell.edit.mxt 0 ct-preset9;#P bpatcher 18 460 128 62 0 0 qlistshell.edit.mxt 0 ct-preset8;#P bpatcher 18 398 128 62 0 0 qlistshell.edit.mxt 0 ct-preset7;#P bpatcher 18 336 128 62 0 0 qlistshell.edit.mxt 0 ct-preset6;#P bpatcher 18 274 128 62 0 0 qlistshell.edit.mxt 0 ct-preset5;#P bpatcher 18 212 128 62 0 0 qlistshell.edit.mxt 0 ct-preset4;#P bpatcher 18 150 128 62 0 0 qlistshell.edit.mxt 0 ct-preset3;#P bpatcher 18 88 128 62 0 0 qlistshell.edit.mxt 0 ct-preset2;#P bpatcher 18 26 128 62 0 0 qlistshell.edit.mxt 0 ct-preset1;#P pop;#P newobj 19 432 88 196626 p events;#B color 6;#P comment 197 36 43 196626 INIT;#P window setfont "Sans Serif" 9.;#P window linecount 2;#P comment 129 442 55 196617 © 2006-7 tom mays;#B frgb 128 128 128;#P window linecount 1;#N standalone;#S creator CMTK;#S statusvisible 1;#S noloadbangdefeating 0;#S useownplist 0;#S preffilename "CAMTRK Preferences";#S overdrive 0;#S allwindowsactive 0;#S searchformissingfiles 1;#S usesearchpath 0;#S cantclosetoplevelpatchers 1;#S audiosupport 1;#S midisupport 1;#P hidden newobj 129 427 57 196617 standalone;#P window setfont Times 9.;#N vpatcher 254 68 476 301;#N comlet to thispatcher;#P outlet 31 190 15 0;#N comlet from toggle;#P inlet 16 106 15 0;#N comlet to toggle;#P outlet 16 72 15 0;#P window setfont Times 9.;#P newex 16 52 18 1310729 t 1;#P newex 16 31 43 1310729 loadbang;#P newex 16 124 40 1310729 sel 1 0;#P window setfont "Sans Serif" 9.;#P message 31 146 158 196617 window flags close \, window exec;#P message 16 164 168 196617 window flags noclose \, window exec;#P connect 3 0 4 0;#P connect 4 0 5 0;#P connect 6 0 2 0;#P connect 2 0 0 0;#P connect 2 1 1 0;#P connect 0 0 7 0;#P connect 1 0 7 0;#P pop;#P hidden newobj 30 2 50 1310729 p closebox;#B color 6;#P toggle 1 2 15 0;#N thispatcher;#Q end;#P hidden newobj 81 2 51 1310729 thispatcher;#P comment 17 3 74 1310729 inhibit close box;#B frgb 128 128 128;#P user panel 1 376 125 90;#X brgb 164 161 220;#X frgb 0 0 0;#X border 1;#X rounded 0;#X shadow 0;#X done;#P background;#P user panel 1 19 280 354;#X brgb 164 161 220;#X frgb 0 0 0;#X border 1;#X rounded 0;#X shadow 0;#X done;#P background;#P hidden connect 5 0 4 0;#P hidden connect 39 0 37 0;#P hidden connect 4 0 5 0;#P hidden connect 5 1 3 0;#P hidden connect 41 0 36 0;#P fasten 18 0 21 0 19 362 106 362 106 339 114 339;#P hidden fasten 23 0 21 0 150 340 114 340;#P connect 22 0 21 0;#P hidden connect 31 1 32 0;#P hidden connect 32 0 33 0;#P hidden connect 33 0 34 0;#P hidden connect 10 0 11 0;#P hidden connect 53 0 54 0;#P hidden connect 11 0 13 0;#P hidden connect 34 0 13 0;#P hidden connect 43 0 38 0;#P hidden connect 50 0 49 0;#P hidden connect 28 0 27 0;#P hidden connect 13 0 12 0;#P hidden connect 26 0 25 0;#P hidden connect 25 0 24 0;#P pop;