max v2;#N vpatcher 82 92 1205 570;#P origin -536 -702;#P window setfont "Sans Serif" 9.;#P window linecount 1;#P newex 201 414 70 196617 pvar settings;#P newex 908 196 112 196617 pvar replayerpathbang;#P button 99 85 15 0;#P objectname replayerpathbang;#P comment 60 86 41 196617 /path;#P newex 1013 238 32 196617 sel 1;#P newex 1013 216 38 196617 active;#P newex 908 285 92 196617 pvar replayerpath;#P message 851 265 22 196617 set;#P newex 851 243 53 196617 closebang;#N vpatcher 10 59 610 459;#P inlet 334 138 15 0;#P outlet 145 267 15 0;#P window setfont "Sans Serif" 9.;#P newex 145 235 107 196617 substitute symbol set;#P message 107 176 49 196617 replayer;#N coll filepaths.txt;#P newobj 145 206 85 196617 coll filepaths.txt;#P newex 145 134 81 196617 t b writeagain b;#P newex 145 112 114 196617 prepend store replayer;#P newex 145 91 76 196617 opendialog fold;#P newex 145 68 44 196617 del 100;#P button 145 48 15 0;#P inlet 145 30 15 0;#P connect 5 0 7 0;#P connect 10 0 7 0;#P connect 0 0 1 0;#P connect 1 0 2 0;#P connect 2 0 3 0;#P connect 3 0 4 0;#P connect 4 0 5 0;#P connect 5 2 6 0;#P connect 5 1 6 0;#P connect 7 0 6 0;#P connect 6 0 8 0;#P connect 8 0 9 0;#P pop;#P newobj 908 264 115 196617 p set-replayer-filepath;#P button 908 243 15 0;#P toggle 168 36 15 0;#P objectname sound_sw;#P comment 184 37 61 196617 /sound/sw;#P button 145 85 15 0;#P user textedit 161 85 225 101 32896 3 9 bogus;#P objectname file;#P comment 113 87 32 196617 /file;#P newex 698 388 62 196617 prepend set;#P newex 698 408 72 196617 pvar filename;#P message 3 103 246 196617 te_0-0-0_0h0m0s;#P objectname filename;#P newex 698 367 75 196617 r $1/filename;#P comment 24 2 61 196617 /record;#P comment 185 19 61 196617 /print/sw;#P comment 93 37 61 196617 /video/sw;#P newex 699 335 83 196617 variedit $1/file;#P newex 699 308 56 196617 route text;#P newex 699 281 49 196617 pvar file;#P toggle 87 1 24 0;#P objectname record;#P toggle 168 19 15 0;#P objectname print_sw;#P toggle 76 36 15 0;#P objectname video_sw;#P newex 409 13 64 196617 pvar record;#P newex 409 36 98 196617 variedit $1/record;#P newex 659 74 75 196617 pvar print_sw;#P newex 659 97 109 196617 variedit $1/print/sw;#P newex 537 74 77 196617 pvar video_sw;#P newex 537 97 111 196617 variedit $1/video/sw;#P newex 410 74 78 196617 pvar sound_sw;#P newex 410 97 112 196617 variedit $1/sound/sw;#P button 238 70 16 0;#P objectname settings;#P window setfont Times 9.;#P comment 191 72 44 1310729 /settings;#B frgb 0 0 222;#P window setfont "Sans Serif" 9.;#P newex 201 435 99 196617 s $1/grab/settings;#N vpatcher 468 270 636 432;#P window setfont "Sans Serif" 9.;#P message 50 74 50 196617 set close;#P objectname status[3];#P message 81 96 47 196617 set open;#P objectname status[2];#P newex 50 50 72 196617 sel open close;#P inlet 50 30 15 0;#P outlet 50 117 15 0;#P connect 1 0 2 0;#P connect 2 0 4 0;#P connect 4 0 0 0;#P connect 3 0 0 0;#P connect 2 1 3 0;#P pop;#P newobj 93 435 53 196617 p;#P newex 27 392 62 196617 pvar status;#P message 224 52 30 196617 close;#P objectname status;#P window setfont Times 9.;#P comment 191 53 35 1310729 /status;#B frgb 0 0 222;#P window setfont "Sans Serif" 9.;#P newex 27 414 138 196617 variedit $1/grab/status $1;#B color 12;#P newex 201 223 145 196617 variedit $1/grab/vdevice $1;#B color 12;#P newex 328 282 81 196617 pvar grab-input;#P newex 328 256 132 196617 variedit $1/grab/input $1;#B color 12;#P newex 2 280 163 196617 variedit $1/grab/preview $1 t 0;#B color 12;#P newex 151 305 29 196617 gate;#P newex 22 244 90 196617 pvar grab-quality;#P newex 22 223 141 196617 variedit $1/grab/quality $1;#B color 12;#P newex 358 223 100 196617 r $1/grab/vdevlist;#B color 12;#P newex 472 256 100 196617 r $1/grab/inputlist;#B color 12;#P newex 201 249 94 196617 pvar grab-vdevice;#P user ubumenu 89 68 103 196617 0 1 1 0;#X add "Built-in iSight";#X prefix_set 0 0 <none> 0;#X pattrmode 1;#P objectname grab-input;#P user ubumenu 89 54 103 196617 0 1 1 0;#X add "DV Video";#X add "IIDC FireWire Video";#X add "USB Video Class Video";#X prefix_set 0 0 <none> 0;#X pattrmode 1;#P objectname grab-vdevice;#P button 76 69 15 0;#P objectname grab-getinputlist;#P button 76 54 15 0;#P objectname grab-getvdevlist;#P message 325 339 61 196617 getinputlist;#P newex 325 317 110 196617 pvar grab-getinputlist;#P message 468 339 61 196617 getvdevlist;#P newex 468 317 110 196617 pvar grab-getvdevlist;#P newex 325 372 57 196617 s $1/grab;#P newex 151 328 71 196617 pvar preview;#P newex 4 305 89 196617 pvar preview-sw;#P user jit.pwindow 13 39 59 45 0 1 0 0 1 0;#P objectname preview;#P toggle 22 26 13 0;#P objectname preview-sw;#P window setfont Times 9.;#P comment 34 26 40 1310729 /preview;#B frgb 0 0 222;#P window setfont "Sans Serif" 9.;#P newex 198 305 94 196617 m_colormode $1;#B color 14;#P newex 170 280 77 196617 r $1/grab/out;#B color 12;#P bpatcher 0 0 257 124 0 0 bkgnd2.mxt 0 $1 0;#P objectname background;#P connect 6 0 23 0;#P connect 23 0 6 0;#P connect 21 0 20 0;#P connect 20 0 21 0;#P connect 31 0 30 0;#P connect 30 0 27 0;#P connect 27 1 31 0;#P connect 23 1 22 0;#P fasten 22 0 7 0 156 324 156 324;#P fasten 2 0 7 0 203 324 156 324;#P hidden connect 58 0 57 0;#P connect 1 0 22 1;#P connect 17 0 26 0;#P fasten 19 0 17 0 363 244 206 244;#P fasten 26 0 17 0 206 245 206 245;#P connect 71 0 32 0;#P connect 11 0 12 0;#P fasten 12 0 8 0 330 360 330 360;#P fasten 10 0 8 0 473 360 330 360;#P connect 25 0 24 0;#P fasten 18 0 25 0 477 277 333 277;#P connect 24 0 25 0;#P connect 41 0 42 0;#P connect 42 0 41 0;#P connect 35 0 36 0;#P connect 36 0 35 0;#P connect 9 0 10 0;#P connect 37 0 38 0;#P connect 38 0 37 0;#P connect 39 0 40 0;#P connect 40 0 39 0;#P connect 52 0 55 0;#P connect 55 0 54 0;#P connect 48 0 46 0;#P connect 46 0 47 0;#P connect 47 0 48 0;#P connect 63 0 64 0;#P connect 70 0 61 0;#P connect 61 0 62 0;#P connect 62 0 65 0;#P connect 64 0 65 0;#P connect 66 0 67 0;#P connect 67 0 62 1;#P pop;