max v2;#N vpatcher 271 203 636 514;#P window setfont "Sans Serif" 9.;#P window linecount 1;#P newex 61 166 30 196617 t s b;#P message 81 188 94 196617 $1;#P newex 114 68 70 196617 prepend refer;#N comlet coll name;#P inlet 114 28 15 0;#N comlet bang to set;#P inlet 302 28 15 0;#P newex 23 119 65 196617 route symbol;#P message 23 165 18 196617 \\\;;#P newex 23 223 75 196617 prepend append;#P newex 23 144 35 196617 t b l;#P newex 61 144 65 196617 route symbol;#P outlet 23 263 15 0;#P message 302 73 22 196617 set;#P button 23 47 15 0;#N comlet bang to create message box;#P inlet 23 28 15 0;#P message 23 69 31 196617 dump;#N coll ;#P newobj 23 96 125 196617 coll;#B color 5;#P comment 153 98 134 196617 arg 1 : udpsend prefix;#P connect 3 0 4 0;#P connect 4 0 2 0;#P connect 2 0 1 0;#P fasten 14 0 1 0 119 90 28 90;#P connect 1 0 11 0;#P connect 11 0 8 0;#P connect 11 1 8 0;#P connect 8 0 10 0;#P connect 10 0 9 0;#P connect 8 1 9 0;#P connect 16 0 9 0;#P connect 15 0 9 0;#P fasten 5 0 6 0 307 250 28 250;#P connect 9 0 6 0;#P connect 1 1 7 0;#P connect 7 0 16 0;#P connect 16 1 15 0;#P connect 13 0 14 0;#P connect 12 0 5 0;#P pop;