max v2;#N vpatcher 162 199 716 476;#P window setfont "Sans Serif" 9.;#P window linecount 1;#P newex 1065 128 203 196617 tm_editorbuilder /ctc /tapemovie 4 2 2;#B color 6;#P button 1078 101 15 0;#P comment 1096 101 39 196617 delete;#P button 1065 80 15 0;#P comment 1082 80 31 196617 build;#N thispatcher;#Q end;#P newobj 1065 150 61 196617 thispatcher;#P window linecount 0;#P comment 2376 0 100 196617;#P comment 1 0 100 196617;#P connect 4 0 7 0;#P connect 7 0 2 0;#P fasten 6 0 7 1 1083 122 1166 122;#P fasten 2 0 7 2 1070 172 1280 172 1280 124 1262 124;#P pop;