{
	"patcher" : 	{
		"fileversion" : 1,
		"rect" : [ 177.0, 50.0, 1040.0, 755.0 ],
		"bglocked" : 0,
		"defrect" : [ 177.0, 50.0, 1040.0, 755.0 ],
		"openrect" : [ 0.0, 0.0, 0.0, 0.0 ],
		"openinpresentation" : 0,
		"default_fontsize" : 12.0,
		"default_fontface" : 0,
		"default_fontname" : "Arial",
		"gridonopen" : 0,
		"gridsize" : [ 15.0, 15.0 ],
		"gridsnaponopen" : 0,
		"toolbarvisible" : 1,
		"boxanimatetime" : 200,
		"imprint" : 0,
		"enablehscroll" : 1,
		"enablevscroll" : 1,
		"devicewidth" : 0.0,
		"boxes" : [ 			{
				"box" : 				{
					"fontname" : "Arial",
					"fontsize" : 9.0,
					"id" : "obj-1",
					"maxclass" : "newobj",
					"numinlets" : 1,
					"numoutlets" : 1,
					"outlettype" : [ "" ],
					"patching_rect" : [ 685.0, 676.0, 78.0, 17.0 ],
					"text" : "prepend append"
				}

			}
, 			{
				"box" : 				{
					"fontname" : "Arial",
					"fontsize" : 9.0,
					"id" : "obj-2",
					"maxclass" : "newobj",
					"numinlets" : 1,
					"numoutlets" : 2,
					"outlettype" : [ "", "" ],
					"patching_rect" : [ 685.0, 654.0, 69.0, 17.0 ],
					"text" : "route symbol"
				}

			}
, 			{
				"box" : 				{
					"fontname" : "Arial",
					"fontsize" : 9.0,
					"id" : "obj-3",
					"maxclass" : "message",
					"numinlets" : 2,
					"numoutlets" : 1,
					"outlettype" : [ "" ],
					"patching_rect" : [ 605.0, 586.0, 33.0, 15.0 ],
					"text" : "dump"
				}

			}
, 			{
				"box" : 				{
					"fontname" : "Arial",
					"fontsize" : 9.0,
					"id" : "obj-4",
					"maxclass" : "message",
					"numinlets" : 2,
					"numoutlets" : 1,
					"outlettype" : [ "" ],
					"patching_rect" : [ 640.0, 586.0, 43.0, 15.0 ],
					"text" : "sort -1"
				}

			}
, 			{
				"box" : 				{
					"fontname" : "Arial",
					"fontsize" : 9.0,
					"id" : "obj-5",
					"maxclass" : "newobj",
					"numinlets" : 1,
					"numoutlets" : 1,
					"outlettype" : [ "bang" ],
					"patching_rect" : [ 655.0, 425.0, 48.0, 17.0 ],
					"text" : "loadbang"
				}

			}
, 			{
				"box" : 				{
					"fontname" : "Arial",
					"fontsize" : 9.0,
					"id" : "obj-6",
					"maxclass" : "newobj",
					"numinlets" : 1,
					"numoutlets" : 1,
					"outlettype" : [ "" ],
					"patching_rect" : [ 685.0, 525.0, 51.0, 17.0 ],
					"text" : "tosymbol"
				}

			}
, 			{
				"box" : 				{
					"fontname" : "Arial",
					"fontsize" : 9.0,
					"id" : "obj-7",
					"maxclass" : "newobj",
					"numinlets" : 1,
					"numoutlets" : 1,
					"outlettype" : [ "" ],
					"patching_rect" : [ 685.0, 607.0, 72.0, 17.0 ],
					"text" : "prepend store"
				}

			}
, 			{
				"box" : 				{
					"fontname" : "Arial",
					"fontsize" : 9.0,
					"id" : "obj-8",
					"maxclass" : "newobj",
					"numinlets" : 2,
					"numoutlets" : 1,
					"outlettype" : [ "" ],
					"patching_rect" : [ 685.0, 586.0, 86.0, 17.0 ],
					"text" : "pack 0 s"
				}

			}
, 			{
				"box" : 				{
					"fontname" : "Arial",
					"fontsize" : 9.0,
					"id" : "obj-9",
					"maxclass" : "newobj",
					"numinlets" : 1,
					"numoutlets" : 2,
					"outlettype" : [ "bang", "" ],
					"patching_rect" : [ 685.0, 545.0, 86.0, 17.0 ],
					"text" : "t b s"
				}

			}
, 			{
				"box" : 				{
					"fontname" : "Arial",
					"fontsize" : 9.0,
					"id" : "obj-10",
					"maxclass" : "newobj",
					"numinlets" : 5,
					"numoutlets" : 4,
					"outlettype" : [ "int", "", "", "int" ],
					"patching_rect" : [ 685.0, 565.0, 72.0, 17.0 ],
					"text" : "counter"
				}

			}
, 			{
				"box" : 				{
					"fontname" : "Arial",
					"fontsize" : 9.0,
					"id" : "obj-11",
					"maxclass" : "newobj",
					"numinlets" : 1,
					"numoutlets" : 2,
					"outlettype" : [ "bang", "bang" ],
					"patching_rect" : [ 685.0, 465.0, 54.0, 17.0 ],
					"text" : "b"
				}

			}
, 			{
				"box" : 				{
					"color" : [ 1.0, 0.890196, 0.090196, 1.0 ],
					"fontname" : "Arial",
					"fontsize" : 9.0,
					"id" : "obj-12",
					"maxclass" : "newobj",
					"numinlets" : 1,
					"numoutlets" : 4,
					"outlettype" : [ "", "", "", "" ],
					"patching_rect" : [ 685.0, 633.0, 53.0, 17.0 ],
					"saved_object_attributes" : 					{
						"embed" : 0
					}
,
					"text" : "coll"
				}

			}
, 			{
				"box" : 				{
					"fontname" : "Arial",
					"fontsize" : 9.0,
					"id" : "obj-13",
					"maxclass" : "newobj",
					"numinlets" : 1,
					"numoutlets" : 2,
					"outlettype" : [ "", "" ],
					"patching_rect" : [ 685.0, 505.0, 97.0, 17.0 ],
					"text" : "route append"
				}

			}
, 			{
				"box" : 				{
					"fontname" : "Arial",
					"fontsize" : 9.0,
					"id" : "obj-14",
					"maxclass" : "newobj",
					"numinlets" : 1,
					"numoutlets" : 3,
					"outlettype" : [ "bang", "bang", "bang" ],
					"patching_rect" : [ 655.0, 445.0, 40.0, 17.0 ],
					"text" : "t b b b"
				}

			}
, 			{
				"box" : 				{
					"color" : [ 1.0, 0.360784, 0.682353, 1.0 ],
					"fontname" : "Arial",
					"fontsize" : 9.0,
					"id" : "obj-15",
					"maxclass" : "newobj",
					"numinlets" : 1,
					"numoutlets" : 1,
					"outlettype" : [ "" ],
					"patching_rect" : [ 685.0, 485.0, 42.0, 17.0 ],
					"text" : "fontlist"
				}

			}
, 			{
				"box" : 				{
					"color" : [ 0.4, 0.4, 0.8, 1.0 ],
					"fontname" : "Arial",
					"fontsize" : 9.0,
					"id" : "obj-16",
					"maxclass" : "newobj",
					"numinlets" : 1,
					"numoutlets" : 3,
					"outlettype" : [ "", "", "" ],
					"patching_rect" : [ 101.0, 518.0, 226.0, 17.0 ],
					"text" : "variedit #1/tracking #1"
				}

			}
, 			{
				"box" : 				{
					"color" : [ 1.0, 0.360784, 0.682353, 1.0 ],
					"fontname" : "Arial",
					"fontsize" : 9.0,
					"id" : "obj-17",
					"maxclass" : "newobj",
					"numinlets" : 1,
					"numoutlets" : 1,
					"outlettype" : [ "" ],
					"patching_rect" : [ 19.0, 516.0, 71.0, 17.0 ],
					"text" : "pvar tracking"
				}

			}
, 			{
				"box" : 				{
					"fontname" : "Arial",
					"fontsize" : 9.0,
					"id" : "obj-18",
					"maxclass" : "comment",
					"numinlets" : 1,
					"numoutlets" : 0,
					"patching_rect" : [ 110.0, 172.0, 35.0, 17.0 ],
					"text" : "/align"
				}

			}
, 			{
				"box" : 				{
					"fontname" : "Arial",
					"fontsize" : 9.0,
					"id" : "obj-19",
					"maxclass" : "comment",
					"numinlets" : 1,
					"numoutlets" : 0,
					"patching_rect" : [ 209.0, 171.0, 35.0, 17.0 ],
					"text" : "/face"
				}

			}
, 			{
				"box" : 				{
					"fontname" : "Arial",
					"fontsize" : 9.0,
					"id" : "obj-20",
					"maxclass" : "newobj",
					"numinlets" : 1,
					"numoutlets" : 1,
					"outlettype" : [ "" ],
					"patching_rect" : [ 441.0, 608.0, 94.0, 17.0 ],
					"text" : "prepend setsymbol"
				}

			}
, 			{
				"box" : 				{
					"fontname" : "Arial",
					"fontsize" : 9.0,
					"id" : "obj-21",
					"maxclass" : "newobj",
					"numinlets" : 1,
					"numoutlets" : 3,
					"outlettype" : [ "", "", "" ],
					"patching_rect" : [ 441.0, 585.0, 151.0, 17.0 ],
					"text" : "variedit #1/align #1"
				}

			}
, 			{
				"box" : 				{
					"fontname" : "Arial",
					"fontsize" : 9.0,
					"id" : "obj-22",
					"maxclass" : "newobj",
					"numinlets" : 1,
					"numoutlets" : 2,
					"outlettype" : [ "", "" ],
					"patching_rect" : [ 441.0, 539.0, 64.0, 17.0 ],
					"text" : "pvar align 2"
				}

			}
, 			{
				"box" : 				{
					"fontname" : "Arial",
					"fontsize" : 9.0,
					"id" : "obj-23",
					"maxclass" : "newobj",
					"numinlets" : 1,
					"numoutlets" : 1,
					"outlettype" : [ "" ],
					"patching_rect" : [ 441.0, 563.0, 66.0, 17.0 ],
					"text" : "tosymbol"
				}

			}
, 			{
				"box" : 				{
					"fontname" : "Arial",
					"fontsize" : 9.0,
					"id" : "obj-24",
					"items" : [ "left", ",", "center", ",", "right" ],
					"maxclass" : "umenu",
					"numinlets" : 1,
					"numoutlets" : 3,
					"outlettype" : [ "int", "", "" ],
					"patching_rect" : [ 51.0, 169.0, 58.0, 17.0 ],
					"pattrmode" : 1,
					"types" : [  ],
					"varname" : "align"
				}

			}
, 			{
				"box" : 				{
					"fontname" : "Arial",
					"fontsize" : 9.0,
					"id" : "obj-25",
					"maxclass" : "newobj",
					"numinlets" : 1,
					"numoutlets" : 1,
					"outlettype" : [ "" ],
					"patching_rect" : [ 441.0, 501.0, 94.0, 17.0 ],
					"text" : "prepend setsymbol"
				}

			}
, 			{
				"box" : 				{
					"fontname" : "Arial",
					"fontsize" : 9.0,
					"id" : "obj-26",
					"maxclass" : "newobj",
					"numinlets" : 1,
					"numoutlets" : 3,
					"outlettype" : [ "", "", "" ],
					"patching_rect" : [ 441.0, 478.0, 149.0, 17.0 ],
					"text" : "variedit #1/face #1"
				}

			}
, 			{
				"box" : 				{
					"fontname" : "Arial",
					"fontsize" : 9.0,
					"id" : "obj-27",
					"maxclass" : "newobj",
					"numinlets" : 1,
					"numoutlets" : 2,
					"outlettype" : [ "", "" ],
					"patching_rect" : [ 441.0, 432.0, 62.0, 17.0 ],
					"text" : "pvar face 2"
				}

			}
, 			{
				"box" : 				{
					"fontname" : "Arial",
					"fontsize" : 9.0,
					"id" : "obj-28",
					"maxclass" : "newobj",
					"numinlets" : 1,
					"numoutlets" : 1,
					"outlettype" : [ "" ],
					"patching_rect" : [ 441.0, 456.0, 66.0, 17.0 ],
					"text" : "tosymbol"
				}

			}
, 			{
				"box" : 				{
					"fontname" : "Arial",
					"fontsize" : 9.0,
					"id" : "obj-29",
					"items" : [ "normal", ",", "bold", ",", "italic" ],
					"maxclass" : "umenu",
					"numinlets" : 1,
					"numoutlets" : 3,
					"outlettype" : [ "int", "", "" ],
					"patching_rect" : [ 150.0, 169.0, 58.0, 17.0 ],
					"pattrmode" : 1,
					"types" : [  ],
					"varname" : "face"
				}

			}
, 			{
				"box" : 				{
					"fontname" : "Arial",
					"fontsize" : 9.0,
					"id" : "obj-30",
					"maxclass" : "newobj",
					"numinlets" : 1,
					"numoutlets" : 1,
					"outlettype" : [ "" ],
					"patching_rect" : [ 843.0, 631.0, 94.0, 17.0 ],
					"text" : "prepend setsymbol"
				}

			}
, 			{
				"box" : 				{
					"fontname" : "Arial",
					"fontsize" : 9.0,
					"id" : "obj-31",
					"maxclass" : "newobj",
					"numinlets" : 1,
					"numoutlets" : 3,
					"outlettype" : [ "", "", "" ],
					"patching_rect" : [ 843.0, 608.0, 148.0, 17.0 ],
					"text" : "variedit #1/font #1"
				}

			}
, 			{
				"box" : 				{
					"fontname" : "Arial",
					"fontsize" : 9.0,
					"id" : "obj-32",
					"maxclass" : "newobj",
					"numinlets" : 1,
					"numoutlets" : 2,
					"outlettype" : [ "", "" ],
					"patching_rect" : [ 843.0, 562.0, 84.0, 17.0 ],
					"text" : "pvar fontmenu 2"
				}

			}
, 			{
				"box" : 				{
					"fontname" : "Arial",
					"fontsize" : 9.0,
					"id" : "obj-33",
					"maxclass" : "newobj",
					"numinlets" : 1,
					"numoutlets" : 1,
					"outlettype" : [ "" ],
					"patching_rect" : [ 843.0, 586.0, 66.0, 17.0 ],
					"text" : "tosymbol"
				}

			}
, 			{
				"box" : 				{
					"color" : [ 0.4, 0.4, 0.8, 1.0 ],
					"fontname" : "Arial",
					"fontsize" : 9.0,
					"id" : "obj-34",
					"maxclass" : "newobj",
					"numinlets" : 1,
					"numoutlets" : 3,
					"outlettype" : [ "", "", "" ],
					"patching_rect" : [ 101.0, 483.0, 226.0, 17.0 ],
					"text" : "variedit #1/size #1"
				}

			}
, 			{
				"box" : 				{
					"color" : [ 1.0, 0.360784, 0.682353, 1.0 ],
					"fontname" : "Arial",
					"fontsize" : 9.0,
					"id" : "obj-35",
					"maxclass" : "newobj",
					"numinlets" : 1,
					"numoutlets" : 1,
					"outlettype" : [ "" ],
					"patching_rect" : [ 19.0, 481.0, 52.0, 17.0 ],
					"text" : "pvar size"
				}

			}
, 			{
				"box" : 				{
					"color" : [ 0.4, 0.4, 0.8, 1.0 ],
					"fontname" : "Arial",
					"fontsize" : 9.0,
					"id" : "obj-36",
					"maxclass" : "newobj",
					"numinlets" : 1,
					"numoutlets" : 3,
					"outlettype" : [ "", "", "" ],
					"patching_rect" : [ 101.0, 449.0, 224.0, 17.0 ],
					"text" : "variedit #1/font #1"
				}

			}
, 			{
				"box" : 				{
					"color" : [ 1.0, 0.360784, 0.682353, 1.0 ],
					"fontname" : "Arial",
					"fontsize" : 9.0,
					"id" : "obj-37",
					"maxclass" : "newobj",
					"numinlets" : 1,
					"numoutlets" : 1,
					"outlettype" : [ "" ],
					"patching_rect" : [ 19.0, 447.0, 52.0, 17.0 ],
					"text" : "pvar font"
				}

			}
, 			{
				"box" : 				{
					"arrow" : 0,
					"fontname" : "Arial",
					"fontsize" : 9.0,
					"id" : "obj-38",
					"items" : [ ".Aqua Kana", ",", ".Helvetica LT MM", ",", ".Keyboard", ",", ".Times LT MM", ",", "Abadi MT Condensed Extra Bold", ",", "Abadi MT Condensed Light", ",", "Academy Engraved LET Plain:1.0", ",", "Adobe Caslon Pro", ",", "Adobe Caslon Pro Semibold", ",", "Adobe Fangsong Std R", ",", "Adobe Garamond Pro", ",", "Adobe Heiti Std R", ",", "Adobe Kaiti Std R", ",", "Adobe Ming Std L", ",", "Adobe Myungjo Std M", ",", "Adobe Song Std L", ",", "Al Bayan Plain", ",", "American Typewriter", ",", "American Typewriter Condensed", ",", "American Typewriter Condensed Light", ",", "American Typewriter Light", ",", "Andale Mono", ",", "Andale Mono", ",", "Apple Braille", ",", "Apple Braille Outline 6 Dot", ",", "Apple Braille Outline 8 Dot", ",", "Apple Braille Pinpoint 6 Dot", ",", "Apple Braille Pinpoint 8 Dot", ",", "Apple Casual", ",", "Apple Chancery", ",", "Apple LiGothic Medium", ",", "Apple LiSung Light", ",", "Apple Symbols", ",", "AppleGothic Regular", ",", "AppleMyungjo Regular", ",", "Arial", ",", "Arial", ",", "Arial Black", ",", "Arial Black", ",", "Arial Hebrew", ",", "Arial Narrow", ",", "Arial Narrow", ",", "Arial Rounded MT Bold", ",", "Arial Rounded MT Bold", ",", "Arial Unicode MS", ",", "Ayuthaya", ",", "Baghdad", ",", "Bank Gothic Light", ",", "Bank Gothic Medium", ",", "Baskerville", ",", "Baskerville Old Face", ",", "Baskerville SemiBold", ",", "Batang", ",", "Bauhaus 93", ",", "Bell Gothic Std Black", ",", "Bell Gothic Std Bold", ",", "Bell MT", ",", "Bernard MT Condensed", ",", "BiauKai", ",", "Big Caslon Medium", ",", "Birch Std", ",", "Blackmoor LET Plain:2.0", ",", "Blackoak Std", ",", "BlairMdITC TT Medium", ",", "Bodoni Ornaments ITC TT", ",", "Bodoni SvtyTwo ITC TT Bold", ",", "Bodoni SvtyTwo ITC TT Book", ",", "Bodoni SvtyTwo ITC TT BookIta", ",", "Bodoni SvtyTwo OS ITC TT Bold", ",", "Bodoni SvtyTwo OS ITC TT Book", ",", "Bodoni SvtyTwo OS ITC TT BookIt", ",", "Bodoni SvtyTwo SC ITC TT Book", ",", "Book Antiqua", ",", "Bookman Old Style", ",", "Bookshelf Symbol 7", ",", "Bordeaux Roman Bold LET Plain", ",", "Bradley Hand ITC TT Bold", ",", "Braggadocio", ",", "Britannic Bold", ",", "Brush Script MT Italic", ",", "Brush Script Std Medium", ",", "Calibri", ",", "Calisto MT", ",", "Cambria", ",", "Candara", ",", "Capitals", ",", "Century", ",", "Century Gothic", ",", "Century Schoolbook", ",", "Chalkboard", ",", "Chalkduster", ",", "Chaparral Pro", ",", "Charcoal CY", ",", "Charlemagne Std Bold", ",", "Cochin", ",", "Colonna MT", ",", "Comic Sans MS", ",", "Comic Sans MS", ",", "Consolas", ",", "Constantia", ",", "Cooper Black", ",", "Cooper Std Black", ",", "Copperplate", ",", "Copperplate Gothic Bold", ",", "Copperplate Gothic Light", ",", "Copperplate Light", ",", "Corbel", ",", "Corsiva Hebrew", ",", "Courier", ",", "Courier New", ",", "Courier Oblique", ",", "Cracked", ",", "Curlz MT", ",", "DecoType Naskh", ",", "Desdemona", ",", "Devanagari MT", ",", "Didot", ",", "Eccentric Std", ",", "Edwardian Script ITC", ",", "Engravers MT", ",", "Euphemia UCAS", ",", "Eurostile", ",", "Footlight MT Light", ",", "Franklin Gothic Book", ",", "Franklin Gothic Medium", ",", "Futura Condensed ExtraBold", ",", "Futura Condensed Medium", ",", "Futura Medium", ",", "GB18030 Bitmap", ",", "Garamond", ",", "Geeza Pro", ",", "Geneva", ",", "Geneva CY", ",", "Georgia", ",", "Georgia", ",", "GeosansLight", ",", "GeosansLight-Oblique", ",", "Giddyup Std", ",", "Gill Sans", ",", "Gill Sans Light", ",", "Gill Sans MT", ",", "Gill Sans Ultra Bold", ",", "Gloucester MT Extra Condensed", ",", "Goudy Old Style", ",", "Guifx v2 Transports Labeled", ",", "Guifx v2 Transports Labeled", ",", "Gujarati MT", ",", "Gulim", ",", "GungSeo Regular", ",", "Gurmukhi MT", ",", "Haettenschweiler", ",", "Handwriting - Dakota", ",", "Harrington", ",", "HeadLineA Regular", ",", "Hei Regular", ",", "Heiti SC Light", ",", "Heiti SC Medium", ",", "Heiti TC Light", ",", "Heiti TC Medium", ",", "Helvetica", ",", "Helvetica CY Oblique", ",", "Helvetica CY Plain", ",", "Helvetica Neue", ",", "Helvetica Neue Condensed Black", ",", "Helvetica Neue Condensed Bold", ",", "Helvetica Neue Light", ",", "Helvetica Neue Medium", ",", "Helvetica Neue UltraLight", ",", "Helvetica Oblique", ",", "Herculanum", ",", "Hiragino Kaku Gothic Pro W3", ",", "Hiragino Kaku Gothic Pro W6", ",", "Hiragino Kaku Gothic ProN W3", ",", "Hiragino Kaku Gothic ProN W6", ",", "Hiragino Kaku Gothic Std W8", ",", "Hiragino Kaku Gothic StdN W8", ",", "Hiragino Maru Gothic Pro W4", ",", "Hiragino Maru Gothic ProN W4", ",", "Hiragino Mincho Pro W3", ",", "Hiragino Mincho Pro W6", ",", "Hiragino Mincho ProN W3", ",", "Hiragino Mincho ProN W6", ",", "Hiragino Sans GB W3", ",", "Hiragino Sans GB W6", ",", "Hobo Std Medium", ",", "Hoefler Text", ",", "Hoefler Text Black", ",", "Hoefler Text Ornaments", ",", "Impact", ",", "Impact", ",", "Imprint MT Shadow", ",", "InaiMathi", ",", "Jazz LET Plain:1.0", ",", "Kai Regular", ",", "Kailasa Regular", ",", "Kino MT", ",", "Kokonor Regular", ",", "Kozuka Gothic Pro B", ",", "Kozuka Gothic Pro EL", ",", "Kozuka Gothic Pro H", ",", "Kozuka Gothic Pro L", ",", "Kozuka Gothic Pro M", ",", "Kozuka Gothic Pro R", ",", "Kozuka Mincho Pro B", ",", "Kozuka Mincho Pro EL", ",", "Kozuka Mincho Pro H", ",", "Kozuka Mincho Pro L", ",", "Kozuka Mincho Pro M", ",", "Kozuka Mincho Pro R", ",", "Krungthep", ",", "KufiStandardGK", ",", "LastResort", ",", "Letter Gothic Std Bold", ",", "Letter Gothic Std Bold Slanted", ",", "Letter Gothic Std Medium", ",", "Letter Gothic Std Slanted", ",", "LiHei Pro", ",", "LiSong Pro", ",", "Lithos Pro", ",", "Lithos Pro Black", ",", "Lucida Blackletter", ",", "Lucida Bright", ",", "Lucida Bright Demibold", ",", "Lucida Calligraphy Italic", ",", "Lucida Console", ",", "Lucida Fax Demibold", ",", "Lucida Fax Italic", ",", "Lucida Fax Regular", ",", "Lucida Grande", ",", "Lucida Handwriting Italic", ",", "Lucida Sans Demibold Italic", ",", "Lucida Sans Demibold Roman", ",", "Lucida Sans Italic", ",", "Lucida Sans Regular", ",", "Lucida Sans Typewriter Bold", ",", "Lucida Sans Typewriter Bold Oblique", ",", "Lucida Sans Typewriter Oblique", ",", "Lucida Sans Typewriter Regular", ",", "Lucida Sans Unicode", ",", "MS Gothic", ",", "MS Mincho", ",", "MS PGothic", ",", "MS PMincho", ",", "MS Reference Sans Serif", ",", "MS Reference Specialty", ",", "MT Extra", ",", "Marker Felt Thin", ",", "Marker Felt Wide", ",", "Marlett", ",", "Matura MT Script Capitals", ",", "Meiryo", ",", "Menlo Bold", ",", "Menlo Italic", ",", "Menlo Regular", ",", "Mesquite Std Medium", ",", "Microsoft Sans Serif", ",", "Minion Pro", ",", "Minion Pro Bold Cond", ",", "Minion Pro Medium", ",", "Minion Pro Semibold", ",", "Mistral", ",", "Modern No. 20", ",", "Mona Lisa Solid ITC TT", ",", "Monaco", ",", "Monotype Corsiva", ",", "Monotype Sorts", ",", "Mshtakan", ",", "Mshtakan Oblique", ",", "Myriad Pro", ",", "Myriad Pro Bold Condensed", ",", "Myriad Pro Condensed", ",", "Myriad Pro Semibold", ",", "Nadeem", ",", "New Peninim MT", ",", "New Peninim MT Bold Inclined", ",", "New Peninim MT Inclined", ",", "News Gothic MT", ",", "Nueva Std Bold Condensed", ",", "Nueva Std Condensed", ",", "OCR A Std", ",", "Onyx", ",", "Optima Bold", ",", "Optima ExtraBlack", ",", "Optima Italic", ",", "Optima Regular", ",", "Orator Std Medium", ",", "Orator Std Slanted", ",", "Osaka", ",", "Osaka-Mono", ",", "PCMyungjo Regular", ",", "PMingLiU", ",", "Palatino", ",", "Papyrus", ",", "Papyrus Condensed", ",", "Party LET Plain:1.0", ",", "Perpetua", ",", "Perpetua Titling MT Bold", ",", "Perpetua Titling MT Light", ",", "PilGi Regular", ",", "Plantagenet Cherokee", ",", "Playbill", ",", "Poplar Std Black", ",", "PortagoITC TT", ",", "Prestige Elite Std Bold", ",", "Princetown LET", ",", "Raanana", ",", "Rockwell", ",", "Rockwell Extra Bold", ",", "Rosewood Std", ",", "STFangsong", ",", "STHeiti", ",", "STKaiti", ",", "STSong", ",", "STXihei", ",", "Santa Fe LET Plain:1.0", ",", "Sathu", ",", "Savoye LET Plain:1.0", ",", "SchoolHouse Cursive B", ",", "SchoolHouse Printed A", ",", "Silom", ",", "SimSun", ",", "Skia Regular", ",", "Snell Roundhand", ",", "Snell Roundhand Black", ",", "Stencil", ",", "Stencil Std Bold", ",", "Stone Sans ITC TT Bold", ",", "Stone Sans OS ITC TT Bold", ",", "Stone Sans Sem ITC TT Semi", ",", "Stone Sans Sem ITC TT SemiIta", ",", "Stone Sans Sem OS ITC TT Semi", ",", "Stone Sans Sem OS ITCTT SemiIta", ",", "Symbol", ",", "Synchro LET", ",", "Tahoma", ",", "Tahoma", ",", "Tekton Pro Bold", ",", "Tekton Pro Bold Condensed", ",", "Tekton Pro Bold Extended", ",", "Tekton Pro Bold Oblique", ",", "Thonburi", ",", "Times Bold", ",", "Times Italic", ",", "Times New Roman", ",", "Times New Roman", ",", "Times Roman", ",", "Trajan Pro", ",", "Trebuchet MS", ",", "Trebuchet MS", ",", "Tw Cen MT", ",", "Type Embellishments One LET Embellishments One LET Plain:1.0", ",", "Verdana", ",", "Verdana", ",", "Webdings", ",", "Wide Latin", ",", "Wingdings", ",", "Wingdings", ",", "Wingdings 2", ",", "Wingdings 2", ",", "Wingdings 3", ",", "Wingdings 3", ",", "Zapf Dingbats", ",", "Zapfino" ],
					"maxclass" : "umenu",
					"numinlets" : 1,
					"numoutlets" : 3,
					"outlettype" : [ "int", "", "" ],
					"patching_rect" : [ 71.0, 133.0, 137.0, 17.0 ],
					"types" : [  ],
					"varname" : "fontmenu"
				}

			}
, 			{
				"box" : 				{
					"fontname" : "Arial",
					"fontsize" : 9.0,
					"id" : "obj-39",
					"maxclass" : "newobj",
					"numinlets" : 1,
					"numoutlets" : 2,
					"outlettype" : [ "", "" ],
					"patching_rect" : [ 333.0, 212.0, 56.0, 17.0 ],
					"text" : "route text"
				}

			}
, 			{
				"box" : 				{
					"fontname" : "Geneva",
					"fontsize" : 9.0,
					"id" : "obj-40",
					"lines" : 10,
					"maxclass" : "textedit",
					"numinlets" : 1,
					"numoutlets" : 4,
					"outlettype" : [ "", "int", "", "" ],
					"patching_rect" : [ 4.0, 203.0, 248.0, 43.0 ],
					"varname" : "text"
				}

			}
, 			{
				"box" : 				{
					"color" : [ 0.4, 0.4, 0.8, 1.0 ],
					"fontname" : "Arial",
					"fontsize" : 9.0,
					"id" : "obj-41",
					"maxclass" : "newobj",
					"numinlets" : 1,
					"numoutlets" : 3,
					"outlettype" : [ "", "", "" ],
					"patching_rect" : [ 333.0, 232.0, 220.0, 17.0 ],
					"text" : "variedit #1/text #1"
				}

			}
, 			{
				"box" : 				{
					"fontname" : "Arial",
					"fontsize" : 9.0,
					"id" : "obj-42",
					"maxclass" : "newobj",
					"numinlets" : 1,
					"numoutlets" : 1,
					"outlettype" : [ "" ],
					"patching_rect" : [ 333.0, 193.0, 68.0, 17.0 ],
					"text" : "pvar text"
				}

			}
, 			{
				"box" : 				{
					"id" : "obj-43",
					"maxclass" : "button",
					"numinlets" : 1,
					"numoutlets" : 1,
					"outlettype" : [ "bang" ],
					"patching_rect" : [ 301.0, 124.0, 15.0, 15.0 ]
				}

			}
, 			{
				"box" : 				{
					"fontname" : "Arial",
					"fontsize" : 9.0,
					"id" : "obj-44",
					"linecount" : 2,
					"maxclass" : "message",
					"numinlets" : 2,
					"numoutlets" : 1,
					"outlettype" : [ "" ],
					"patching_rect" : [ 301.0, 144.0, 183.0, 25.0 ],
					"text" : ";\r/movie/gl/editor show #1"
				}

			}
, 			{
				"box" : 				{
					"fontname" : "Arial",
					"fontsize" : 9.0,
					"id" : "obj-45",
					"maxclass" : "newobj",
					"numinlets" : 0,
					"numoutlets" : 1,
					"outlettype" : [ "" ],
					"patching_rect" : [ 301.0, 103.0, 93.0, 17.0 ],
					"text" : "r #1/more/editor"
				}

			}
, 			{
				"box" : 				{
					"arrow" : 0,
					"fontname" : "Arial",
					"fontsize" : 9.0,
					"id" : "obj-46",
					"items" : [ "object_linear", ",", "sphere_map", ",", "eye_linear" ],
					"maxclass" : "umenu",
					"numinlets" : 1,
					"numoutlets" : 3,
					"outlettype" : [ "int", "", "" ],
					"patching_rect" : [ 142.0, 90.0, 69.0, 17.0 ],
					"types" : [  ],
					"varname" : "texmap"
				}

			}
, 			{
				"box" : 				{
					"fontname" : "Arial",
					"fontsize" : 9.0,
					"id" : "obj-47",
					"maxclass" : "newobj",
					"numinlets" : 1,
					"numoutlets" : 3,
					"outlettype" : [ "", "", "" ],
					"patching_rect" : [ 502.0, 166.0, 234.0, 17.0 ],
					"text" : "variedit #1/texmap #1"
				}

			}
, 			{
				"box" : 				{
					"fontname" : "Arial",
					"fontsize" : 9.0,
					"id" : "obj-48",
					"maxclass" : "newobj",
					"numinlets" : 1,
					"numoutlets" : 1,
					"outlettype" : [ "" ],
					"patching_rect" : [ 502.0, 143.0, 67.0, 17.0 ],
					"text" : "pvar texmap"
				}

			}
, 			{
				"box" : 				{
					"fontname" : "Arial",
					"fontsize" : 9.0,
					"id" : "obj-49",
					"maxclass" : "comment",
					"numinlets" : 1,
					"numoutlets" : 0,
					"patching_rect" : [ 212.0, 93.0, 49.0, 17.0 ],
					"text" : "/texmap"
				}

			}
, 			{
				"box" : 				{
					"color" : [ 0.4, 0.4, 0.8, 1.0 ],
					"fontname" : "Arial",
					"fontsize" : 9.0,
					"id" : "obj-50",
					"maxclass" : "newobj",
					"numinlets" : 1,
					"numoutlets" : 2,
					"outlettype" : [ "", "" ],
					"patching_rect" : [ 768.0, 305.0, 209.0, 17.0 ],
					"text" : "vari #1/blend #1"
				}

			}
, 			{
				"box" : 				{
					"color" : [ 1.0, 0.360784, 0.682353, 1.0 ],
					"fontname" : "Arial",
					"fontsize" : 9.0,
					"id" : "obj-51",
					"maxclass" : "newobj",
					"numinlets" : 1,
					"numoutlets" : 1,
					"outlettype" : [ "" ],
					"patching_rect" : [ 768.0, 285.0, 57.0, 17.0 ],
					"text" : "pvar blend"
				}

			}
, 			{
				"box" : 				{
					"fontname" : "Arial",
					"fontsize" : 9.0,
					"id" : "obj-52",
					"maxclass" : "comment",
					"numinlets" : 1,
					"numoutlets" : 0,
					"patching_rect" : [ 217.0, 114.0, 39.0, 17.0 ],
					"text" : "/blend"
				}

			}
, 			{
				"box" : 				{
					"id" : "obj-53",
					"maxclass" : "toggle",
					"numinlets" : 1,
					"numoutlets" : 1,
					"outlettype" : [ "int" ],
					"patching_rect" : [ 206.0, 113.0, 13.0, 13.0 ],
					"varname" : "blend"
				}

			}
, 			{
				"box" : 				{
					"color" : [ 1.0, 0.360784, 0.682353, 1.0 ],
					"fontname" : "Arial",
					"fontsize" : 9.0,
					"id" : "obj-54",
					"maxclass" : "newobj",
					"numinlets" : 1,
					"numoutlets" : 1,
					"outlettype" : [ "" ],
					"patching_rect" : [ 686.0, 285.0, 67.0, 17.0 ],
					"text" : "pvar lighting"
				}

			}
, 			{
				"box" : 				{
					"color" : [ 0.4, 0.4, 0.8, 1.0 ],
					"fontname" : "Arial",
					"fontsize" : 9.0,
					"id" : "obj-55",
					"maxclass" : "newobj",
					"numinlets" : 1,
					"numoutlets" : 3,
					"outlettype" : [ "", "", "" ],
					"patching_rect" : [ 686.0, 259.0, 236.0, 17.0 ],
					"text" : "variedit #1/lighting #1"
				}

			}
, 			{
				"box" : 				{
					"fontname" : "Arial",
					"fontsize" : 9.0,
					"id" : "obj-56",
					"maxclass" : "comment",
					"numinlets" : 1,
					"numoutlets" : 0,
					"patching_rect" : [ 158.0, 114.0, 49.0, 17.0 ],
					"text" : "/lighting"
				}

			}
, 			{
				"box" : 				{
					"id" : "obj-57",
					"maxclass" : "toggle",
					"numinlets" : 1,
					"numoutlets" : 1,
					"outlettype" : [ "int" ],
					"patching_rect" : [ 147.0, 113.0, 13.0, 13.0 ],
					"varname" : "lighting"
				}

			}
, 			{
				"box" : 				{
					"fontname" : "Arial",
					"fontsize" : 14.0,
					"frgb" : [ 0.4, 0.4, 0.8, 1.0 ],
					"id" : "obj-58",
					"maxclass" : "comment",
					"numinlets" : 1,
					"numoutlets" : 0,
					"patching_rect" : [ 4.0, 130.0, 65.0, 23.0 ],
					"text" : "/text",
					"textcolor" : [ 0.4, 0.4, 0.8, 1.0 ]
				}

			}
, 			{
				"box" : 				{
					"fontname" : "Arial",
					"fontsize" : 9.0,
					"id" : "obj-59",
					"maxclass" : "comment",
					"numinlets" : 1,
					"numoutlets" : 0,
					"patching_rect" : [ 208.0, 153.0, 44.0, 17.0 ],
					"text" : "/size"
				}

			}
, 			{
				"box" : 				{
					"bgcolor" : [ 0.866667, 0.866667, 0.866667, 1.0 ],
					"fontname" : "Arial",
					"fontsize" : 10.0,
					"htextcolor" : [ 0.870588, 0.870588, 0.870588, 1.0 ],
					"id" : "obj-60",
					"maxclass" : "number",
					"maximum" : 1024,
					"minimum" : 1,
					"numinlets" : 1,
					"numoutlets" : 2,
					"outlettype" : [ "int", "bang" ],
					"patching_rect" : [ 174.0, 151.0, 34.0, 18.0 ],
					"triangle" : 0,
					"triscale" : 0.9,
					"varname" : "size"
				}

			}
, 			{
				"box" : 				{
					"fontname" : "Arial",
					"fontsize" : 9.0,
					"id" : "obj-61",
					"maxclass" : "message",
					"numinlets" : 2,
					"numoutlets" : 1,
					"outlettype" : [ "" ],
					"patching_rect" : [ 300.0, 6.0, 33.0, 15.0 ],
					"text" : "clear"
				}

			}
, 			{
				"box" : 				{
					"bgcolor" : [ 0.745098, 0.745098, 0.745098, 1.0 ],
					"border" : 1,
					"bordercolor" : [ 0.745098, 0.745098, 0.745098, 1.0 ],
					"id" : "obj-62",
					"maxclass" : "panel",
					"numinlets" : 1,
					"numoutlets" : 0,
					"patching_rect" : [ 1.0, 127.0, 254.0, 4.0 ],
					"rounded" : 0
				}

			}
, 			{
				"box" : 				{
					"color" : [ 0.4, 0.4, 0.8, 1.0 ],
					"fontname" : "Arial",
					"fontsize" : 9.0,
					"id" : "obj-63",
					"maxclass" : "newobj",
					"numinlets" : 1,
					"numoutlets" : 3,
					"outlettype" : [ "", "", "" ],
					"patching_rect" : [ 729.0, 8.0, 208.0, 17.0 ],
					"text" : "variedit #1/dim/x #1"
				}

			}
, 			{
				"box" : 				{
					"color" : [ 1.0, 0.360784, 0.682353, 1.0 ],
					"fontname" : "Arial",
					"fontsize" : 9.0,
					"id" : "obj-64",
					"maxclass" : "newobj",
					"numinlets" : 1,
					"numoutlets" : 1,
					"outlettype" : [ "" ],
					"patching_rect" : [ 729.0, 35.0, 60.0, 17.0 ],
					"text" : "pvar dimx"
				}

			}
, 			{
				"box" : 				{
					"fontname" : "Arial",
					"fontsize" : 9.0,
					"id" : "obj-65",
					"maxclass" : "comment",
					"numinlets" : 1,
					"numoutlets" : 0,
					"patching_rect" : [ 183.0, 56.0, 44.0, 17.0 ],
					"text" : "/dim/y"
				}

			}
, 			{
				"box" : 				{
					"bgcolor" : [ 0.866667, 0.866667, 0.866667, 1.0 ],
					"fontname" : "Arial",
					"fontsize" : 9.0,
					"htextcolor" : [ 0.870588, 0.870588, 0.870588, 1.0 ],
					"id" : "obj-66",
					"maxclass" : "number",
					"maximum" : 1024,
					"minimum" : 1,
					"numinlets" : 1,
					"numoutlets" : 2,
					"outlettype" : [ "int", "bang" ],
					"patching_rect" : [ 148.0, 55.0, 34.0, 17.0 ],
					"triangle" : 0,
					"triscale" : 0.9,
					"varname" : "dimy"
				}

			}
, 			{
				"box" : 				{
					"color" : [ 0.156863, 0.8, 0.54902, 1.0 ],
					"fontname" : "Arial",
					"fontsize" : 12.0,
					"id" : "obj-67",
					"maxclass" : "newobj",
					"numinlets" : 1,
					"numoutlets" : 1,
					"outlettype" : [ "" ],
					"patching_rect" : [ 280.0, 53.0, 215.0, 20.0 ],
					"text" : "m_inputmenugpu #1"
				}

			}
, 			{
				"box" : 				{
					"fontname" : "Arial",
					"fontsize" : 9.0,
					"id" : "obj-68",
					"maxclass" : "newobj",
					"numinlets" : 1,
					"numoutlets" : 2,
					"outlettype" : [ "", "" ],
					"patching_rect" : [ 280.0, 30.0, 81.0, 17.0 ],
					"text" : "pvar texture 2"
				}

			}
, 			{
				"box" : 				{
					"arrow" : 0,
					"fontname" : "Times Roman",
					"fontsize" : 10.0,
					"id" : "obj-69",
					"items" : "<empty>",
					"maxclass" : "umenu",
					"numinlets" : 1,
					"numoutlets" : 3,
					"outlettype" : [ "int", "", "" ],
					"patching_rect" : [ 57.0, 2.0, 63.0, 16.0 ],
					"types" : [  ],
					"varname" : "texture"
				}

			}
, 			{
				"box" : 				{
					"fontname" : "Arial",
					"fontsize" : 9.0,
					"id" : "obj-70",
					"maxclass" : "comment",
					"numinlets" : 1,
					"numoutlets" : 0,
					"patching_rect" : [ 208.0, 135.0, 44.0, 17.0 ],
					"text" : "/font"
				}

			}
, 			{
				"box" : 				{
					"color" : [ 0.4, 0.4, 0.8, 1.0 ],
					"fontname" : "Arial",
					"fontsize" : 9.0,
					"id" : "obj-71",
					"maxclass" : "newobj",
					"numinlets" : 1,
					"numoutlets" : 3,
					"outlettype" : [ "", "", "" ],
					"patching_rect" : [ 510.0, 9.0, 204.0, 17.0 ],
					"text" : "variedit #1/layer #1"
				}

			}
, 			{
				"box" : 				{
					"color" : [ 1.0, 0.360784, 0.682353, 1.0 ],
					"fontname" : "Arial",
					"fontsize" : 9.0,
					"id" : "obj-72",
					"maxclass" : "newobj",
					"numinlets" : 1,
					"numoutlets" : 1,
					"outlettype" : [ "" ],
					"patching_rect" : [ 510.0, 36.0, 62.0, 17.0 ],
					"text" : "pvar layer"
				}

			}
, 			{
				"box" : 				{
					"fontname" : "Arial",
					"fontsize" : 9.0,
					"id" : "obj-73",
					"maxclass" : "comment",
					"numinlets" : 1,
					"numoutlets" : 0,
					"patching_rect" : [ 183.0, 38.0, 44.0, 17.0 ],
					"text" : "/dim/x"
				}

			}
, 			{
				"box" : 				{
					"bgcolor" : [ 0.866667, 0.866667, 0.866667, 1.0 ],
					"fontname" : "Arial",
					"fontsize" : 9.0,
					"htextcolor" : [ 0.870588, 0.870588, 0.870588, 1.0 ],
					"id" : "obj-74",
					"maxclass" : "number",
					"maximum" : 1024,
					"minimum" : 1,
					"numinlets" : 1,
					"numoutlets" : 2,
					"outlettype" : [ "int", "bang" ],
					"patching_rect" : [ 148.0, 37.0, 34.0, 17.0 ],
					"triangle" : 0,
					"triscale" : 0.9,
					"varname" : "dimx"
				}

			}
, 			{
				"box" : 				{
					"fontname" : "Arial",
					"fontsize" : 9.0,
					"id" : "obj-75",
					"maxclass" : "comment",
					"numinlets" : 1,
					"numoutlets" : 0,
					"patching_rect" : [ 174.0, 74.0, 86.0, 17.0 ],
					"text" : "/transformreset"
				}

			}
, 			{
				"box" : 				{
					"color" : [ 1.0, 0.360784, 0.682353, 1.0 ],
					"fontname" : "Arial",
					"fontsize" : 9.0,
					"id" : "obj-76",
					"maxclass" : "newobj",
					"numinlets" : 1,
					"numoutlets" : 1,
					"outlettype" : [ "" ],
					"patching_rect" : [ 496.0, 303.0, 56.0, 17.0 ],
					"text" : "pvar blue"
				}

			}
, 			{
				"box" : 				{
					"color" : [ 0.4, 0.4, 0.8, 1.0 ],
					"fontname" : "Arial",
					"fontsize" : 9.0,
					"id" : "obj-77",
					"maxclass" : "newobj",
					"numinlets" : 1,
					"numoutlets" : 3,
					"outlettype" : [ "", "", "" ],
					"patching_rect" : [ 496.0, 277.0, 135.0, 17.0 ],
					"text" : "variedit #1/color/blue #1"
				}

			}
, 			{
				"box" : 				{
					"color" : [ 1.0, 0.360784, 0.682353, 1.0 ],
					"fontname" : "Arial",
					"fontsize" : 9.0,
					"id" : "obj-78",
					"maxclass" : "newobj",
					"numinlets" : 1,
					"numoutlets" : 1,
					"outlettype" : [ "" ],
					"patching_rect" : [ 347.0, 303.0, 63.0, 17.0 ],
					"text" : "pvar green"
				}

			}
, 			{
				"box" : 				{
					"color" : [ 0.4, 0.4, 0.8, 1.0 ],
					"fontname" : "Arial",
					"fontsize" : 9.0,
					"id" : "obj-79",
					"maxclass" : "newobj",
					"numinlets" : 1,
					"numoutlets" : 3,
					"outlettype" : [ "", "", "" ],
					"patching_rect" : [ 347.0, 277.0, 142.0, 17.0 ],
					"text" : "variedit #1/color/green #1"
				}

			}
, 			{
				"box" : 				{
					"color" : [ 1.0, 0.360784, 0.682353, 1.0 ],
					"fontname" : "Arial",
					"fontsize" : 9.0,
					"id" : "obj-80",
					"maxclass" : "newobj",
					"numinlets" : 1,
					"numoutlets" : 1,
					"outlettype" : [ "" ],
					"patching_rect" : [ 208.0, 303.0, 53.0, 17.0 ],
					"text" : "pvar red"
				}

			}
, 			{
				"box" : 				{
					"color" : [ 0.4, 0.4, 0.8, 1.0 ],
					"fontname" : "Arial",
					"fontsize" : 9.0,
					"id" : "obj-81",
					"maxclass" : "newobj",
					"numinlets" : 1,
					"numoutlets" : 3,
					"outlettype" : [ "", "", "" ],
					"patching_rect" : [ 208.0, 277.0, 132.0, 17.0 ],
					"text" : "variedit #1/color/red #1"
				}

			}
, 			{
				"box" : 				{
					"fontname" : "Arial",
					"fontsize" : 9.0,
					"frgb" : [ 0.196078, 0.196078, 0.196078, 1.0 ],
					"id" : "obj-82",
					"maxclass" : "comment",
					"numinlets" : 1,
					"numoutlets" : 0,
					"patching_rect" : [ 103.0, 20.0, 38.0, 17.0 ],
					"text" : "/alpha",
					"textcolor" : [ 0.196078, 0.196078, 0.196078, 1.0 ]
				}

			}
, 			{
				"box" : 				{
					"bgcolor" : [ 1.0, 1.0, 1.0, 0.0 ],
					"bordercolor" : [ 1.0, 1.0, 1.0, 0.0 ],
					"fontname" : "Arial",
					"fontsize" : 9.0,
					"hbgcolor" : [ 1.0, 1.0, 1.0, 0.0 ],
					"htextcolor" : [ 0.0, 0.0, 0.0, 1.0 ],
					"id" : "obj-83",
					"maxclass" : "flonum",
					"maximum" : 1.0,
					"minimum" : 0.0,
					"numinlets" : 1,
					"numoutlets" : 2,
					"outlettype" : [ "float", "bang" ],
					"patching_rect" : [ 104.0, 30.0, 34.0, 17.0 ],
					"triangle" : 0,
					"triscale" : 0.9,
					"varname" : "alphanumb"
				}

			}
, 			{
				"box" : 				{
					"bgcolor" : [ 1.0, 1.0, 1.0, 0.0 ],
					"bordercolor" : [ 1.0, 1.0, 1.0, 0.0 ],
					"fontname" : "Arial",
					"fontsize" : 9.0,
					"hbgcolor" : [ 1.0, 1.0, 1.0, 0.0 ],
					"htextcolor" : [ 0.0, 0.0, 0.0, 1.0 ],
					"id" : "obj-84",
					"maxclass" : "flonum",
					"maximum" : 1.0,
					"minimum" : 0.0,
					"numinlets" : 1,
					"numoutlets" : 2,
					"outlettype" : [ "float", "bang" ],
					"patching_rect" : [ 80.0, 30.0, 34.0, 17.0 ],
					"triangle" : 0,
					"triscale" : 0.9,
					"varname" : "blue"
				}

			}
, 			{
				"box" : 				{
					"bgcolor" : [ 1.0, 1.0, 1.0, 0.0 ],
					"bordercolor" : [ 1.0, 1.0, 1.0, 0.0 ],
					"fontname" : "Arial",
					"fontsize" : 9.0,
					"hbgcolor" : [ 1.0, 1.0, 1.0, 0.0 ],
					"htextcolor" : [ 0.0, 0.0, 0.0, 1.0 ],
					"id" : "obj-85",
					"maxclass" : "flonum",
					"maximum" : 1.0,
					"minimum" : 0.0,
					"numinlets" : 1,
					"numoutlets" : 2,
					"outlettype" : [ "float", "bang" ],
					"patching_rect" : [ 51.0, 30.0, 34.0, 17.0 ],
					"triangle" : 0,
					"triscale" : 0.9,
					"varname" : "green"
				}

			}
, 			{
				"box" : 				{
					"bgcolor" : [ 1.0, 1.0, 1.0, 0.0 ],
					"bordercolor" : [ 1.0, 1.0, 1.0, 0.0 ],
					"fontname" : "Arial",
					"fontsize" : 9.0,
					"hbgcolor" : [ 1.0, 1.0, 1.0, 0.0 ],
					"htextcolor" : [ 0.129412, 0.129412, 0.129412, 1.0 ],
					"id" : "obj-86",
					"maxclass" : "flonum",
					"maximum" : 1.0,
					"minimum" : 0.0,
					"numinlets" : 1,
					"numoutlets" : 2,
					"outlettype" : [ "float", "bang" ],
					"patching_rect" : [ 22.0, 30.0, 34.0, 17.0 ],
					"triangle" : 0,
					"triscale" : 0.9,
					"varname" : "red"
				}

			}
, 			{
				"box" : 				{
					"fontname" : "Arial",
					"fontsize" : 9.0,
					"frgb" : [ 0.196078, 0.196078, 0.196078, 1.0 ],
					"id" : "obj-87",
					"maxclass" : "comment",
					"numinlets" : 1,
					"numoutlets" : 0,
					"patching_rect" : [ 78.0, 20.0, 38.0, 17.0 ],
					"text" : "/blue",
					"textcolor" : [ 0.196078, 0.196078, 0.196078, 1.0 ]
				}

			}
, 			{
				"box" : 				{
					"fontname" : "Arial",
					"fontsize" : 9.0,
					"frgb" : [ 0.035294, 0.035294, 0.035294, 1.0 ],
					"id" : "obj-88",
					"maxclass" : "comment",
					"numinlets" : 1,
					"numoutlets" : 0,
					"patching_rect" : [ 47.0, 20.0, 45.0, 17.0 ],
					"text" : "/green",
					"textcolor" : [ 0.035294, 0.035294, 0.035294, 1.0 ]
				}

			}
, 			{
				"box" : 				{
					"fontname" : "Arial",
					"fontsize" : 9.0,
					"frgb" : [ 0.164706, 0.164706, 0.164706, 1.0 ],
					"id" : "obj-89",
					"maxclass" : "comment",
					"numinlets" : 1,
					"numoutlets" : 0,
					"patching_rect" : [ 19.0, 20.0, 35.0, 17.0 ],
					"text" : "/red",
					"textcolor" : [ 0.164706, 0.164706, 0.164706, 1.0 ]
				}

			}
, 			{
				"box" : 				{
					"bgcolor" : [ 1.0, 1.0, 1.0, 0.0 ],
					"bordercolor" : [ 1.0, 1.0, 1.0, 0.0 ],
					"fontname" : "Arial",
					"fontsize" : 9.0,
					"hbgcolor" : [ 1.0, 1.0, 1.0, 0.0 ],
					"htextcolor" : [ 0.196078, 0.196078, 0.196078, 1.0 ],
					"id" : "obj-90",
					"maxclass" : "flonum",
					"maximum" : 360.0,
					"minimum" : -360.0,
					"numinlets" : 1,
					"numoutlets" : 2,
					"outlettype" : [ "float", "bang" ],
					"patching_rect" : [ 73.0, 86.0, 40.0, 17.0 ],
					"triangle" : 0,
					"triscale" : 0.9,
					"varname" : "roty"
				}

			}
, 			{
				"box" : 				{
					"bgcolor" : [ 1.0, 1.0, 1.0, 0.0 ],
					"bordercolor" : [ 1.0, 1.0, 1.0, 0.0 ],
					"fontname" : "Arial",
					"fontsize" : 9.0,
					"hbgcolor" : [ 1.0, 1.0, 1.0, 0.0 ],
					"htextcolor" : [ 0.0, 0.0, 0.0, 1.0 ],
					"id" : "obj-91",
					"maxclass" : "flonum",
					"maximum" : 360.0,
					"minimum" : -360.0,
					"numinlets" : 1,
					"numoutlets" : 2,
					"outlettype" : [ "float", "bang" ],
					"patching_rect" : [ 110.0, 86.0, 40.0, 17.0 ],
					"triangle" : 0,
					"triscale" : 0.9,
					"varname" : "rotz"
				}

			}
, 			{
				"box" : 				{
					"bgcolor" : [ 1.0, 1.0, 1.0, 0.0 ],
					"bordercolor" : [ 1.0, 1.0, 1.0, 0.0 ],
					"fontname" : "Arial",
					"fontsize" : 9.0,
					"hbgcolor" : [ 1.0, 1.0, 1.0, 0.0 ],
					"htextcolor" : [ 0.035294, 0.035294, 0.035294, 1.0 ],
					"id" : "obj-92",
					"maxclass" : "flonum",
					"maximum" : 360.0,
					"minimum" : -360.0,
					"numinlets" : 1,
					"numoutlets" : 2,
					"outlettype" : [ "float", "bang" ],
					"patching_rect" : [ 36.0, 86.0, 40.0, 17.0 ],
					"textcolor" : [ 0.129412, 0.129412, 0.129412, 1.0 ],
					"triangle" : 0,
					"triscale" : 0.9,
					"varname" : "rotx"
				}

			}
, 			{
				"box" : 				{
					"bgcolor" : [ 1.0, 1.0, 1.0, 0.0 ],
					"bordercolor" : [ 1.0, 1.0, 1.0, 0.0 ],
					"fontname" : "Arial",
					"fontsize" : 9.0,
					"hbgcolor" : [ 1.0, 1.0, 1.0, 0.0 ],
					"htextcolor" : [ 0.0, 0.0, 0.0, 1.0 ],
					"id" : "obj-93",
					"maxclass" : "flonum",
					"maximum" : 10.0,
					"minimum" : -10.0,
					"numinlets" : 1,
					"numoutlets" : 2,
					"outlettype" : [ "float", "bang" ],
					"patching_rect" : [ 110.0, 104.0, 42.0, 17.0 ],
					"triangle" : 0,
					"triscale" : 0.9,
					"varname" : "scalez"
				}

			}
, 			{
				"box" : 				{
					"bgcolor" : [ 1.0, 1.0, 1.0, 0.0 ],
					"bordercolor" : [ 1.0, 1.0, 1.0, 0.0 ],
					"fontname" : "Arial",
					"fontsize" : 9.0,
					"hbgcolor" : [ 1.0, 1.0, 1.0, 0.0 ],
					"htextcolor" : [ 0.129412, 0.129412, 0.129412, 1.0 ],
					"id" : "obj-94",
					"maxclass" : "flonum",
					"maximum" : 10.0,
					"minimum" : -10.0,
					"numinlets" : 1,
					"numoutlets" : 2,
					"outlettype" : [ "float", "bang" ],
					"patching_rect" : [ 73.0, 104.0, 42.0, 17.0 ],
					"textcolor" : [ 0.035294, 0.035294, 0.035294, 1.0 ],
					"triangle" : 0,
					"triscale" : 0.9,
					"varname" : "scaley"
				}

			}
, 			{
				"box" : 				{
					"bgcolor" : [ 1.0, 1.0, 1.0, 0.0 ],
					"bordercolor" : [ 1.0, 1.0, 1.0, 0.0 ],
					"fontname" : "Arial",
					"fontsize" : 9.0,
					"hbgcolor" : [ 1.0, 1.0, 1.0, 0.0 ],
					"htextcolor" : [ 0.098039, 0.098039, 0.098039, 1.0 ],
					"id" : "obj-95",
					"maxclass" : "flonum",
					"maximum" : 10.0,
					"minimum" : -10.0,
					"numinlets" : 1,
					"numoutlets" : 2,
					"outlettype" : [ "float", "bang" ],
					"patching_rect" : [ 36.0, 104.0, 42.0, 17.0 ],
					"textcolor" : [ 0.129412, 0.129412, 0.129412, 1.0 ],
					"triangle" : 0,
					"triscale" : 0.9,
					"varname" : "scalex"
				}

			}
, 			{
				"box" : 				{
					"bgcolor" : [ 1.0, 1.0, 1.0, 0.0 ],
					"bordercolor" : [ 1.0, 1.0, 1.0, 0.0 ],
					"fontname" : "Arial",
					"fontsize" : 9.0,
					"hbgcolor" : [ 1.0, 1.0, 1.0, 0.0 ],
					"htextcolor" : [ 0.0, 0.0, 0.0, 1.0 ],
					"id" : "obj-96",
					"maxclass" : "flonum",
					"maximum" : 100.0,
					"minimum" : -100.0,
					"numinlets" : 1,
					"numoutlets" : 2,
					"outlettype" : [ "float", "bang" ],
					"patching_rect" : [ 108.0, 68.0, 41.0, 17.0 ],
					"triangle" : 0,
					"triscale" : 0.9,
					"varname" : "posz"
				}

			}
, 			{
				"box" : 				{
					"bgcolor" : [ 1.0, 1.0, 1.0, 0.0 ],
					"bordercolor" : [ 1.0, 1.0, 1.0, 0.0 ],
					"fontname" : "Arial",
					"fontsize" : 9.0,
					"hbgcolor" : [ 1.0, 1.0, 1.0, 0.0 ],
					"htextcolor" : [ 0.0, 0.0, 0.0, 1.0 ],
					"id" : "obj-97",
					"maxclass" : "flonum",
					"maximum" : 100.0,
					"minimum" : -100.0,
					"numinlets" : 1,
					"numoutlets" : 2,
					"outlettype" : [ "float", "bang" ],
					"patching_rect" : [ 71.0, 68.0, 41.0, 17.0 ],
					"triangle" : 0,
					"triscale" : 0.9,
					"varname" : "posy"
				}

			}
, 			{
				"box" : 				{
					"fontname" : "Arial",
					"fontsize" : 9.0,
					"frgb" : [ 0.196078, 0.196078, 0.196078, 1.0 ],
					"id" : "obj-98",
					"maxclass" : "comment",
					"numinlets" : 1,
					"numoutlets" : 0,
					"patching_rect" : [ 118.0, 55.0, 23.0, 17.0 ],
					"text" : "/z",
					"textcolor" : [ 0.196078, 0.196078, 0.196078, 1.0 ]
				}

			}
, 			{
				"box" : 				{
					"fontname" : "Arial",
					"fontsize" : 9.0,
					"frgb" : [ 0.035294, 0.035294, 0.035294, 1.0 ],
					"id" : "obj-99",
					"maxclass" : "comment",
					"numinlets" : 1,
					"numoutlets" : 0,
					"patching_rect" : [ 89.0, 55.0, 24.0, 17.0 ],
					"text" : "/y",
					"textcolor" : [ 0.035294, 0.035294, 0.035294, 1.0 ]
				}

			}
, 			{
				"box" : 				{
					"fontname" : "Arial",
					"fontsize" : 9.0,
					"frgb" : [ 0.164706, 0.164706, 0.164706, 1.0 ],
					"id" : "obj-100",
					"maxclass" : "comment",
					"numinlets" : 1,
					"numoutlets" : 0,
					"patching_rect" : [ 60.0, 55.0, 24.0, 17.0 ],
					"text" : "/x",
					"textcolor" : [ 0.164706, 0.164706, 0.164706, 1.0 ]
				}

			}
, 			{
				"box" : 				{
					"fontname" : "Arial",
					"fontsize" : 9.0,
					"frgb" : [ 0.164706, 0.164706, 0.164706, 1.0 ],
					"id" : "obj-101",
					"maxclass" : "comment",
					"numinlets" : 1,
					"numoutlets" : 0,
					"patching_rect" : [ 1.0, 87.0, 34.0, 17.0 ],
					"text" : "/rot",
					"textcolor" : [ 0.164706, 0.164706, 0.164706, 1.0 ]
				}

			}
, 			{
				"box" : 				{
					"fontname" : "Arial",
					"fontsize" : 9.0,
					"frgb" : [ 0.129412, 0.129412, 0.129412, 1.0 ],
					"id" : "obj-102",
					"maxclass" : "comment",
					"numinlets" : 1,
					"numoutlets" : 0,
					"patching_rect" : [ 1.0, 105.0, 43.0, 17.0 ],
					"text" : "/scale",
					"textcolor" : [ 0.129412, 0.129412, 0.129412, 1.0 ]
				}

			}
, 			{
				"box" : 				{
					"fontname" : "Arial",
					"fontsize" : 9.0,
					"frgb" : [ 0.164706, 0.164706, 0.164706, 1.0 ],
					"id" : "obj-103",
					"maxclass" : "comment",
					"numinlets" : 1,
					"numoutlets" : 0,
					"patching_rect" : [ 1.0, 68.0, 35.0, 17.0 ],
					"text" : "/pos",
					"textcolor" : [ 0.164706, 0.164706, 0.164706, 1.0 ]
				}

			}
, 			{
				"box" : 				{
					"bgcolor" : [ 0.745098, 0.745098, 0.745098, 1.0 ],
					"border" : 1,
					"bordercolor" : [ 0.745098, 0.745098, 0.745098, 1.0 ],
					"id" : "obj-104",
					"maxclass" : "panel",
					"numinlets" : 1,
					"numoutlets" : 0,
					"patching_rect" : [ 12.0, 54.0, 130.0, 10.0 ],
					"rounded" : 0
				}

			}
, 			{
				"box" : 				{
					"color" : [ 1.0, 0.360784, 0.682353, 1.0 ],
					"fontname" : "Arial",
					"fontsize" : 9.0,
					"id" : "obj-105",
					"maxclass" : "newobj",
					"numinlets" : 1,
					"numoutlets" : 1,
					"outlettype" : [ "" ],
					"patching_rect" : [ 15.0, 302.0, 84.0, 17.0 ],
					"text" : "pvar alphanumb"
				}

			}
, 			{
				"box" : 				{
					"color" : [ 0.4, 0.4, 0.8, 1.0 ],
					"fontname" : "Arial",
					"fontsize" : 9.0,
					"id" : "obj-106",
					"maxclass" : "newobj",
					"numinlets" : 1,
					"numoutlets" : 3,
					"outlettype" : [ "", "", "" ],
					"patching_rect" : [ 501.0, 121.0, 250.0, 17.0 ],
					"text" : "variedit #1/transformreset #1"
				}

			}
, 			{
				"box" : 				{
					"color" : [ 1.0, 0.360784, 0.682353, 1.0 ],
					"fontname" : "Arial",
					"fontsize" : 9.0,
					"id" : "obj-107",
					"maxclass" : "newobj",
					"numinlets" : 1,
					"numoutlets" : 1,
					"outlettype" : [ "" ],
					"patching_rect" : [ 501.0, 94.0, 108.0, 17.0 ],
					"text" : "pvar transformreset"
				}

			}
, 			{
				"box" : 				{
					"bgcolor" : [ 0.866667, 0.866667, 0.866667, 1.0 ],
					"fontname" : "Arial",
					"fontsize" : 9.0,
					"htextcolor" : [ 0.870588, 0.870588, 0.870588, 1.0 ],
					"id" : "obj-108",
					"maxclass" : "number",
					"maximum" : 1999,
					"minimum" : 0,
					"numinlets" : 1,
					"numoutlets" : 2,
					"outlettype" : [ "int", "bang" ],
					"patching_rect" : [ 148.0, 19.0, 34.0, 17.0 ],
					"triangle" : 0,
					"triscale" : 0.9,
					"varname" : "layer"
				}

			}
, 			{
				"box" : 				{
					"color" : [ 0.4, 0.4, 0.8, 1.0 ],
					"fontname" : "Arial",
					"fontsize" : 9.0,
					"id" : "obj-109",
					"maxclass" : "newobj",
					"numinlets" : 1,
					"numoutlets" : 3,
					"outlettype" : [ "", "", "" ],
					"patching_rect" : [ 729.0, 62.0, 208.0, 17.0 ],
					"text" : "variedit #1/dim/y #1"
				}

			}
, 			{
				"box" : 				{
					"color" : [ 1.0, 0.360784, 0.682353, 1.0 ],
					"fontname" : "Arial",
					"fontsize" : 9.0,
					"id" : "obj-110",
					"maxclass" : "newobj",
					"numinlets" : 1,
					"numoutlets" : 1,
					"outlettype" : [ "" ],
					"patching_rect" : [ 729.0, 89.0, 60.0, 17.0 ],
					"text" : "pvar dimy"
				}

			}
, 			{
				"box" : 				{
					"color" : [ 0.4, 0.4, 0.8, 1.0 ],
					"fontname" : "Arial",
					"fontsize" : 9.0,
					"id" : "obj-111",
					"maxclass" : "newobj",
					"numinlets" : 1,
					"numoutlets" : 3,
					"outlettype" : [ "", "", "" ],
					"patching_rect" : [ 415.0, 384.0, 228.0, 17.0 ],
					"text" : "variedit #1/rotxyz/z #1"
				}

			}
, 			{
				"box" : 				{
					"color" : [ 1.0, 0.360784, 0.682353, 1.0 ],
					"fontname" : "Arial",
					"fontsize" : 9.0,
					"id" : "obj-112",
					"maxclass" : "newobj",
					"numinlets" : 1,
					"numoutlets" : 1,
					"outlettype" : [ "" ],
					"patching_rect" : [ 333.0, 384.0, 57.0, 17.0 ],
					"text" : "pvar rotz"
				}

			}
, 			{
				"box" : 				{
					"color" : [ 0.4, 0.4, 0.8, 1.0 ],
					"fontname" : "Arial",
					"fontsize" : 9.0,
					"id" : "obj-113",
					"maxclass" : "newobj",
					"numinlets" : 1,
					"numoutlets" : 3,
					"outlettype" : [ "", "", "" ],
					"patching_rect" : [ 415.0, 362.0, 229.0, 17.0 ],
					"text" : "variedit #1/rotxyz/y #1"
				}

			}
, 			{
				"box" : 				{
					"color" : [ 1.0, 0.360784, 0.682353, 1.0 ],
					"fontname" : "Arial",
					"fontsize" : 9.0,
					"id" : "obj-114",
					"maxclass" : "newobj",
					"numinlets" : 1,
					"numoutlets" : 1,
					"outlettype" : [ "" ],
					"patching_rect" : [ 333.0, 362.0, 58.0, 17.0 ],
					"text" : "pvar roty"
				}

			}
, 			{
				"box" : 				{
					"color" : [ 0.4, 0.4, 0.8, 1.0 ],
					"fontname" : "Arial",
					"fontsize" : 9.0,
					"id" : "obj-115",
					"maxclass" : "newobj",
					"numinlets" : 1,
					"numoutlets" : 3,
					"outlettype" : [ "", "", "" ],
					"patching_rect" : [ 415.0, 340.0, 229.0, 17.0 ],
					"text" : "variedit #1/rotxyz/x #1"
				}

			}
, 			{
				"box" : 				{
					"color" : [ 1.0, 0.360784, 0.682353, 1.0 ],
					"fontname" : "Arial",
					"fontsize" : 9.0,
					"id" : "obj-116",
					"maxclass" : "newobj",
					"numinlets" : 1,
					"numoutlets" : 1,
					"outlettype" : [ "" ],
					"patching_rect" : [ 333.0, 340.0, 58.0, 17.0 ],
					"text" : "pvar rotx"
				}

			}
, 			{
				"box" : 				{
					"color" : [ 0.4, 0.4, 0.8, 1.0 ],
					"fontname" : "Arial",
					"fontsize" : 9.0,
					"id" : "obj-117",
					"maxclass" : "newobj",
					"numinlets" : 1,
					"numoutlets" : 3,
					"outlettype" : [ "", "", "" ],
					"patching_rect" : [ 731.0, 383.0, 232.0, 17.0 ],
					"text" : "variedit #1/scale/z #1"
				}

			}
, 			{
				"box" : 				{
					"color" : [ 1.0, 0.360784, 0.682353, 1.0 ],
					"fontname" : "Arial",
					"fontsize" : 9.0,
					"id" : "obj-118",
					"maxclass" : "newobj",
					"numinlets" : 1,
					"numoutlets" : 1,
					"outlettype" : [ "" ],
					"patching_rect" : [ 649.0, 383.0, 66.0, 17.0 ],
					"text" : "pvar scalez"
				}

			}
, 			{
				"box" : 				{
					"color" : [ 0.4, 0.4, 0.8, 1.0 ],
					"fontname" : "Arial",
					"fontsize" : 9.0,
					"id" : "obj-119",
					"maxclass" : "newobj",
					"numinlets" : 1,
					"numoutlets" : 3,
					"outlettype" : [ "", "", "" ],
					"patching_rect" : [ 731.0, 362.0, 233.0, 17.0 ],
					"text" : "variedit #1/scale/y #1"
				}

			}
, 			{
				"box" : 				{
					"color" : [ 1.0, 0.360784, 0.682353, 1.0 ],
					"fontname" : "Arial",
					"fontsize" : 9.0,
					"id" : "obj-120",
					"maxclass" : "newobj",
					"numinlets" : 1,
					"numoutlets" : 1,
					"outlettype" : [ "" ],
					"patching_rect" : [ 649.0, 362.0, 67.0, 17.0 ],
					"text" : "pvar scaley"
				}

			}
, 			{
				"box" : 				{
					"color" : [ 0.4, 0.4, 0.8, 1.0 ],
					"fontname" : "Arial",
					"fontsize" : 9.0,
					"id" : "obj-121",
					"maxclass" : "newobj",
					"numinlets" : 1,
					"numoutlets" : 3,
					"outlettype" : [ "", "", "" ],
					"patching_rect" : [ 731.0, 341.0, 233.0, 17.0 ],
					"text" : "variedit #1/scale/x #1"
				}

			}
, 			{
				"box" : 				{
					"color" : [ 1.0, 0.360784, 0.682353, 1.0 ],
					"fontname" : "Arial",
					"fontsize" : 9.0,
					"id" : "obj-122",
					"maxclass" : "newobj",
					"numinlets" : 1,
					"numoutlets" : 1,
					"outlettype" : [ "" ],
					"patching_rect" : [ 649.0, 341.0, 67.0, 17.0 ],
					"text" : "pvar scalex"
				}

			}
, 			{
				"box" : 				{
					"color" : [ 0.4, 0.4, 0.8, 1.0 ],
					"fontname" : "Arial",
					"fontsize" : 9.0,
					"id" : "obj-123",
					"maxclass" : "newobj",
					"numinlets" : 1,
					"numoutlets" : 3,
					"outlettype" : [ "", "", "" ],
					"patching_rect" : [ 102.0, 385.0, 224.0, 17.0 ],
					"text" : "variedit #1/pos/z #1"
				}

			}
, 			{
				"box" : 				{
					"color" : [ 1.0, 0.360784, 0.682353, 1.0 ],
					"fontname" : "Arial",
					"fontsize" : 9.0,
					"id" : "obj-124",
					"maxclass" : "newobj",
					"numinlets" : 1,
					"numoutlets" : 1,
					"outlettype" : [ "" ],
					"patching_rect" : [ 20.0, 383.0, 58.0, 17.0 ],
					"text" : "pvar posz"
				}

			}
, 			{
				"box" : 				{
					"color" : [ 0.4, 0.4, 0.8, 1.0 ],
					"fontname" : "Arial",
					"fontsize" : 9.0,
					"id" : "obj-125",
					"maxclass" : "newobj",
					"numinlets" : 1,
					"numoutlets" : 3,
					"outlettype" : [ "", "", "" ],
					"patching_rect" : [ 102.0, 362.0, 225.0, 17.0 ],
					"text" : "variedit #1/pos/y #1"
				}

			}
, 			{
				"box" : 				{
					"color" : [ 1.0, 0.360784, 0.682353, 1.0 ],
					"fontname" : "Arial",
					"fontsize" : 9.0,
					"id" : "obj-126",
					"maxclass" : "newobj",
					"numinlets" : 1,
					"numoutlets" : 1,
					"outlettype" : [ "" ],
					"patching_rect" : [ 20.0, 361.0, 59.0, 17.0 ],
					"text" : "pvar posy"
				}

			}
, 			{
				"box" : 				{
					"color" : [ 0.4, 0.4, 0.8, 1.0 ],
					"fontname" : "Arial",
					"fontsize" : 9.0,
					"id" : "obj-127",
					"maxclass" : "newobj",
					"numinlets" : 1,
					"numoutlets" : 3,
					"outlettype" : [ "", "", "" ],
					"patching_rect" : [ 102.0, 339.0, 225.0, 17.0 ],
					"text" : "variedit #1/pos/x #1"
				}

			}
, 			{
				"box" : 				{
					"color" : [ 1.0, 0.360784, 0.682353, 1.0 ],
					"fontname" : "Arial",
					"fontsize" : 9.0,
					"id" : "obj-128",
					"maxclass" : "newobj",
					"numinlets" : 1,
					"numoutlets" : 1,
					"outlettype" : [ "" ],
					"patching_rect" : [ 20.0, 339.0, 59.0, 17.0 ],
					"text" : "pvar posx"
				}

			}
, 			{
				"box" : 				{
					"color" : [ 1.0, 0.360784, 0.682353, 1.0 ],
					"fontname" : "Arial",
					"fontsize" : 9.0,
					"id" : "obj-129",
					"maxclass" : "newobj",
					"numinlets" : 1,
					"numoutlets" : 1,
					"outlettype" : [ "" ],
					"patching_rect" : [ 141.0, 302.0, 61.0, 17.0 ],
					"text" : "pvar alpha"
				}

			}
, 			{
				"box" : 				{
					"fontname" : "Arial",
					"fontsize" : 9.0,
					"id" : "obj-130",
					"maxclass" : "comment",
					"numinlets" : 1,
					"numoutlets" : 0,
					"patching_rect" : [ 183.0, 20.0, 44.0, 17.0 ],
					"text" : "/layer"
				}

			}
, 			{
				"box" : 				{
					"color" : [ 0.4, 0.4, 0.8, 1.0 ],
					"fontname" : "Arial",
					"fontsize" : 9.0,
					"id" : "obj-131",
					"maxclass" : "newobj",
					"numinlets" : 1,
					"numoutlets" : 3,
					"outlettype" : [ "", "", "" ],
					"patching_rect" : [ 15.0, 276.0, 140.0, 17.0 ],
					"text" : "variedit #1/color/alpha #1"
				}

			}
, 			{
				"box" : 				{
					"candicane2" : [ 0.145098, 0.203922, 0.356863, 1.0 ],
					"candicane3" : [ 0.290196, 0.411765, 0.713726, 1.0 ],
					"candicane4" : [ 0.439216, 0.619608, 0.070588, 1.0 ],
					"candicane5" : [ 0.584314, 0.827451, 0.431373, 1.0 ],
					"candicane6" : [ 0.733333, 0.035294, 0.788235, 1.0 ],
					"candicane7" : [ 0.878431, 0.243137, 0.145098, 1.0 ],
					"candicane8" : [ 0.027451, 0.447059, 0.501961, 1.0 ],
					"contdata" : 1,
					"id" : "obj-132",
					"maxclass" : "multislider",
					"numinlets" : 1,
					"numoutlets" : 2,
					"orientation" : 0,
					"outlettype" : [ "", "" ],
					"patching_rect" : [ 15.0, 43.0, 122.0, 8.0 ],
					"peakcolor" : [ 0.498039, 0.498039, 0.498039, 1.0 ],
					"setminmax" : [ 0.0, 1.0 ],
					"setstyle" : 1,
					"varname" : "alpha"
				}

			}
, 			{
				"box" : 				{
					"bgcolor" : [ 0.866667, 0.866667, 0.866667, 1.0 ],
					"fontname" : "Arial",
					"fontsize" : 9.0,
					"htextcolor" : [ 0.870588, 0.870588, 0.870588, 1.0 ],
					"id" : "obj-133",
					"maxclass" : "number",
					"maximum" : 2,
					"minimum" : 0,
					"numinlets" : 1,
					"numoutlets" : 2,
					"outlettype" : [ "int", "bang" ],
					"patching_rect" : [ 148.0, 72.0, 28.0, 17.0 ],
					"triangle" : 0,
					"triscale" : 0.9,
					"varname" : "transformreset"
				}

			}
, 			{
				"box" : 				{
					"bgcolor" : [ 0.745098, 0.745098, 0.745098, 1.0 ],
					"border" : 1,
					"bordercolor" : [ 0.745098, 0.745098, 0.745098, 1.0 ],
					"id" : "obj-134",
					"maxclass" : "panel",
					"numinlets" : 1,
					"numoutlets" : 0,
					"patching_rect" : [ 0.0, 62.0, 140.0, 8.0 ],
					"rounded" : 0
				}

			}
, 			{
				"box" : 				{
					"bgcolor" : [ 0.745098, 0.745098, 0.745098, 1.0 ],
					"bordercolor" : [ 0.745098, 0.745098, 0.745098, 1.0 ],
					"id" : "obj-135",
					"maxclass" : "panel",
					"numinlets" : 1,
					"numoutlets" : 0,
					"patching_rect" : [ 1.0, 70.0, 35.0, 55.0 ],
					"rounded" : 0
				}

			}
, 			{
				"box" : 				{
					"bgcolor" : [ 1.0, 1.0, 1.0, 0.0 ],
					"bordercolor" : [ 1.0, 1.0, 1.0, 0.0 ],
					"fontname" : "Arial",
					"fontsize" : 9.0,
					"hbgcolor" : [ 1.0, 1.0, 1.0, 0.0 ],
					"htextcolor" : [ 0.129412, 0.129412, 0.129412, 1.0 ],
					"id" : "obj-136",
					"maxclass" : "flonum",
					"maximum" : 100.0,
					"minimum" : -100.0,
					"numinlets" : 1,
					"numoutlets" : 2,
					"outlettype" : [ "float", "bang" ],
					"patching_rect" : [ 34.0, 68.0, 41.0, 17.0 ],
					"triangle" : 0,
					"triscale" : 0.9,
					"varname" : "posx"
				}

			}
, 			{
				"box" : 				{
					"bgcolor" : [ 1.0, 1.0, 1.0, 1.0 ],
					"bordercolor" : [ 0.745098, 0.745098, 0.745098, 1.0 ],
					"id" : "obj-137",
					"maxclass" : "panel",
					"numinlets" : 1,
					"numoutlets" : 0,
					"patching_rect" : [ 144.0, 19.0, 17.0, 109.0 ],
					"rounded" : 0
				}

			}
, 			{
				"box" : 				{
					"bgcolor" : [ 0.745098, 0.745098, 0.745098, 1.0 ],
					"border" : 1,
					"bordercolor" : [ 0.745098, 0.745098, 0.745098, 1.0 ],
					"id" : "obj-138",
					"maxclass" : "panel",
					"numinlets" : 1,
					"numoutlets" : 0,
					"patching_rect" : [ 140.0, 19.0, 17.0, 109.0 ],
					"rounded" : 0
				}

			}
, 			{
				"box" : 				{
					"bgcolor" : [ 0.866667, 0.866667, 0.866667, 1.0 ],
					"fontname" : "Arial",
					"fontsize" : 10.0,
					"htextcolor" : [ 0.870588, 0.870588, 0.870588, 1.0 ],
					"id" : "obj-139",
					"maxclass" : "flonum",
					"maximum" : 500.0,
					"minimum" : 0.0,
					"numinlets" : 1,
					"numoutlets" : 2,
					"outlettype" : [ "float", "bang" ],
					"patching_rect" : [ 71.0, 151.0, 37.0, 18.0 ],
					"triangle" : 0,
					"triscale" : 0.9,
					"varname" : "tracking"
				}

			}
, 			{
				"box" : 				{
					"fontname" : "Arial",
					"fontsize" : 9.0,
					"id" : "obj-140",
					"maxclass" : "comment",
					"numinlets" : 1,
					"numoutlets" : 0,
					"patching_rect" : [ 109.0, 153.0, 53.0, 17.0 ],
					"text" : "/tracking"
				}

			}
, 			{
				"box" : 				{
					"args" : [ "#1", 1 ],
					"id" : "obj-141",
					"lockeddragscroll" : 1,
					"maxclass" : "bpatcher",
					"name" : "bkgnd4.maxpat",
					"numinlets" : 0,
					"numoutlets" : 0,
					"patching_rect" : [ 0.0, 1.0, 256.0, 248.0 ],
					"varname" : "background"
				}

			}
, 			{
				"box" : 				{
					"bgcolor" : [ 0.745098, 0.745098, 0.745098, 1.0 ],
					"border" : 1,
					"bordercolor" : [ 0.745098, 0.745098, 0.745098, 1.0 ],
					"id" : "obj-142",
					"maxclass" : "panel",
					"numinlets" : 1,
					"numoutlets" : 0,
					"patching_rect" : [ 6.0, 415.0, 952.0, 4.0 ],
					"rounded" : 0
				}

			}
 ],
		"lines" : [ 			{
				"patchline" : 				{
					"destination" : [ "obj-32", 0 ],
					"hidden" : 0,
					"midpoints" : [  ],
					"source" : [ "obj-1", 0 ]
				}

			}
, 			{
				"patchline" : 				{
					"destination" : [ "obj-8", 0 ],
					"hidden" : 0,
					"midpoints" : [  ],
					"source" : [ "obj-10", 0 ]
				}

			}
, 			{
				"patchline" : 				{
					"destination" : [ "obj-131", 0 ],
					"hidden" : 0,
					"midpoints" : [  ],
					"source" : [ "obj-105", 0 ]
				}

			}
, 			{
				"patchline" : 				{
					"destination" : [ "obj-107", 0 ],
					"hidden" : 0,
					"midpoints" : [  ],
					"source" : [ "obj-106", 0 ]
				}

			}
, 			{
				"patchline" : 				{
					"destination" : [ "obj-106", 0 ],
					"hidden" : 0,
					"midpoints" : [  ],
					"source" : [ "obj-107", 0 ]
				}

			}
, 			{
				"patchline" : 				{
					"destination" : [ "obj-110", 0 ],
					"hidden" : 0,
					"midpoints" : [  ],
					"source" : [ "obj-109", 0 ]
				}

			}
, 			{
				"patchline" : 				{
					"destination" : [ "obj-10", 2 ],
					"hidden" : 0,
					"midpoints" : [  ],
					"source" : [ "obj-11", 1 ]
				}

			}
, 			{
				"patchline" : 				{
					"destination" : [ "obj-15", 0 ],
					"hidden" : 0,
					"midpoints" : [  ],
					"source" : [ "obj-11", 0 ]
				}

			}
, 			{
				"patchline" : 				{
					"destination" : [ "obj-109", 0 ],
					"hidden" : 0,
					"midpoints" : [  ],
					"source" : [ "obj-110", 0 ]
				}

			}
, 			{
				"patchline" : 				{
					"destination" : [ "obj-112", 0 ],
					"hidden" : 0,
					"midpoints" : [  ],
					"source" : [ "obj-111", 0 ]
				}

			}
, 			{
				"patchline" : 				{
					"destination" : [ "obj-111", 0 ],
					"hidden" : 0,
					"midpoints" : [  ],
					"source" : [ "obj-112", 0 ]
				}

			}
, 			{
				"patchline" : 				{
					"destination" : [ "obj-114", 0 ],
					"hidden" : 0,
					"midpoints" : [  ],
					"source" : [ "obj-113", 0 ]
				}

			}
, 			{
				"patchline" : 				{
					"destination" : [ "obj-113", 0 ],
					"hidden" : 0,
					"midpoints" : [  ],
					"source" : [ "obj-114", 0 ]
				}

			}
, 			{
				"patchline" : 				{
					"destination" : [ "obj-116", 0 ],
					"hidden" : 0,
					"midpoints" : [  ],
					"source" : [ "obj-115", 0 ]
				}

			}
, 			{
				"patchline" : 				{
					"destination" : [ "obj-115", 0 ],
					"hidden" : 0,
					"midpoints" : [  ],
					"source" : [ "obj-116", 0 ]
				}

			}
, 			{
				"patchline" : 				{
					"destination" : [ "obj-118", 0 ],
					"hidden" : 0,
					"midpoints" : [  ],
					"source" : [ "obj-117", 0 ]
				}

			}
, 			{
				"patchline" : 				{
					"destination" : [ "obj-117", 0 ],
					"hidden" : 0,
					"midpoints" : [  ],
					"source" : [ "obj-118", 0 ]
				}

			}
, 			{
				"patchline" : 				{
					"destination" : [ "obj-120", 0 ],
					"hidden" : 0,
					"midpoints" : [  ],
					"source" : [ "obj-119", 0 ]
				}

			}
, 			{
				"patchline" : 				{
					"destination" : [ "obj-2", 0 ],
					"hidden" : 0,
					"midpoints" : [  ],
					"source" : [ "obj-12", 0 ]
				}

			}
, 			{
				"patchline" : 				{
					"destination" : [ "obj-119", 0 ],
					"hidden" : 0,
					"midpoints" : [  ],
					"source" : [ "obj-120", 0 ]
				}

			}
, 			{
				"patchline" : 				{
					"destination" : [ "obj-122", 0 ],
					"hidden" : 0,
					"midpoints" : [  ],
					"source" : [ "obj-121", 0 ]
				}

			}
, 			{
				"patchline" : 				{
					"destination" : [ "obj-121", 0 ],
					"hidden" : 0,
					"midpoints" : [  ],
					"source" : [ "obj-122", 0 ]
				}

			}
, 			{
				"patchline" : 				{
					"destination" : [ "obj-124", 0 ],
					"hidden" : 0,
					"midpoints" : [  ],
					"source" : [ "obj-123", 0 ]
				}

			}
, 			{
				"patchline" : 				{
					"destination" : [ "obj-123", 0 ],
					"hidden" : 0,
					"midpoints" : [  ],
					"source" : [ "obj-124", 0 ]
				}

			}
, 			{
				"patchline" : 				{
					"destination" : [ "obj-126", 0 ],
					"hidden" : 0,
					"midpoints" : [  ],
					"source" : [ "obj-125", 0 ]
				}

			}
, 			{
				"patchline" : 				{
					"destination" : [ "obj-125", 0 ],
					"hidden" : 0,
					"midpoints" : [  ],
					"source" : [ "obj-126", 0 ]
				}

			}
, 			{
				"patchline" : 				{
					"destination" : [ "obj-128", 0 ],
					"hidden" : 0,
					"midpoints" : [  ],
					"source" : [ "obj-127", 0 ]
				}

			}
, 			{
				"patchline" : 				{
					"destination" : [ "obj-127", 0 ],
					"hidden" : 0,
					"midpoints" : [  ],
					"source" : [ "obj-128", 0 ]
				}

			}
, 			{
				"patchline" : 				{
					"destination" : [ "obj-131", 0 ],
					"hidden" : 0,
					"midpoints" : [  ],
					"source" : [ "obj-129", 0 ]
				}

			}
, 			{
				"patchline" : 				{
					"destination" : [ "obj-12", 0 ],
					"hidden" : 0,
					"midpoints" : [ 772.5, 628.0, 694.5, 628.0 ],
					"source" : [ "obj-13", 1 ]
				}

			}
, 			{
				"patchline" : 				{
					"destination" : [ "obj-32", 0 ],
					"hidden" : 0,
					"midpoints" : [  ],
					"source" : [ "obj-13", 1 ]
				}

			}
, 			{
				"patchline" : 				{
					"destination" : [ "obj-6", 0 ],
					"hidden" : 0,
					"midpoints" : [  ],
					"source" : [ "obj-13", 0 ]
				}

			}
, 			{
				"patchline" : 				{
					"destination" : [ "obj-105", 0 ],
					"hidden" : 0,
					"midpoints" : [  ],
					"source" : [ "obj-131", 0 ]
				}

			}
, 			{
				"patchline" : 				{
					"destination" : [ "obj-129", 0 ],
					"hidden" : 0,
					"midpoints" : [  ],
					"source" : [ "obj-131", 2 ]
				}

			}
, 			{
				"patchline" : 				{
					"destination" : [ "obj-11", 0 ],
					"hidden" : 0,
					"midpoints" : [  ],
					"source" : [ "obj-14", 2 ]
				}

			}
, 			{
				"patchline" : 				{
					"destination" : [ "obj-3", 0 ],
					"hidden" : 0,
					"midpoints" : [  ],
					"source" : [ "obj-14", 0 ]
				}

			}
, 			{
				"patchline" : 				{
					"destination" : [ "obj-4", 0 ],
					"hidden" : 0,
					"midpoints" : [  ],
					"source" : [ "obj-14", 1 ]
				}

			}
, 			{
				"patchline" : 				{
					"destination" : [ "obj-13", 0 ],
					"hidden" : 0,
					"midpoints" : [  ],
					"source" : [ "obj-15", 0 ]
				}

			}
, 			{
				"patchline" : 				{
					"destination" : [ "obj-17", 0 ],
					"hidden" : 0,
					"midpoints" : [  ],
					"source" : [ "obj-16", 0 ]
				}

			}
, 			{
				"patchline" : 				{
					"destination" : [ "obj-16", 0 ],
					"hidden" : 0,
					"midpoints" : [  ],
					"source" : [ "obj-17", 0 ]
				}

			}
, 			{
				"patchline" : 				{
					"destination" : [ "obj-1", 0 ],
					"hidden" : 0,
					"midpoints" : [  ],
					"source" : [ "obj-2", 0 ]
				}

			}
, 			{
				"patchline" : 				{
					"destination" : [ "obj-22", 0 ],
					"hidden" : 0,
					"midpoints" : [ 450.5, 632.0, 432.0, 632.0, 432.0, 536.0, 450.5, 536.0 ],
					"source" : [ "obj-20", 0 ]
				}

			}
, 			{
				"patchline" : 				{
					"destination" : [ "obj-20", 0 ],
					"hidden" : 0,
					"midpoints" : [ 516.5, 605.0, 450.5, 605.0 ],
					"source" : [ "obj-21", 1 ]
				}

			}
, 			{
				"patchline" : 				{
					"destination" : [ "obj-23", 0 ],
					"hidden" : 0,
					"midpoints" : [ 495.5, 559.0, 450.5, 559.0 ],
					"source" : [ "obj-22", 1 ]
				}

			}
, 			{
				"patchline" : 				{
					"destination" : [ "obj-21", 0 ],
					"hidden" : 0,
					"midpoints" : [  ],
					"source" : [ "obj-23", 0 ]
				}

			}
, 			{
				"patchline" : 				{
					"destination" : [ "obj-27", 0 ],
					"hidden" : 0,
					"midpoints" : [ 450.5, 525.0, 432.0, 525.0, 432.0, 429.0, 450.5, 429.0 ],
					"source" : [ "obj-25", 0 ]
				}

			}
, 			{
				"patchline" : 				{
					"destination" : [ "obj-25", 0 ],
					"hidden" : 0,
					"midpoints" : [ 515.5, 498.0, 450.5, 498.0 ],
					"source" : [ "obj-26", 1 ]
				}

			}
, 			{
				"patchline" : 				{
					"destination" : [ "obj-28", 0 ],
					"hidden" : 0,
					"midpoints" : [ 493.5, 452.0, 450.5, 452.0 ],
					"source" : [ "obj-27", 1 ]
				}

			}
, 			{
				"patchline" : 				{
					"destination" : [ "obj-26", 0 ],
					"hidden" : 0,
					"midpoints" : [  ],
					"source" : [ "obj-28", 0 ]
				}

			}
, 			{
				"patchline" : 				{
					"destination" : [ "obj-12", 0 ],
					"hidden" : 0,
					"midpoints" : [  ],
					"source" : [ "obj-3", 0 ]
				}

			}
, 			{
				"patchline" : 				{
					"destination" : [ "obj-32", 0 ],
					"hidden" : 0,
					"midpoints" : [ 852.5, 655.0, 834.0, 655.0, 834.0, 559.0, 852.5, 559.0 ],
					"source" : [ "obj-30", 0 ]
				}

			}
, 			{
				"patchline" : 				{
					"destination" : [ "obj-30", 0 ],
					"hidden" : 0,
					"midpoints" : [ 917.0, 628.0, 852.5, 628.0 ],
					"source" : [ "obj-31", 1 ]
				}

			}
, 			{
				"patchline" : 				{
					"destination" : [ "obj-33", 0 ],
					"hidden" : 0,
					"midpoints" : [ 917.5, 582.0, 852.5, 582.0 ],
					"source" : [ "obj-32", 1 ]
				}

			}
, 			{
				"patchline" : 				{
					"destination" : [ "obj-31", 0 ],
					"hidden" : 0,
					"midpoints" : [  ],
					"source" : [ "obj-33", 0 ]
				}

			}
, 			{
				"patchline" : 				{
					"destination" : [ "obj-35", 0 ],
					"hidden" : 0,
					"midpoints" : [  ],
					"source" : [ "obj-34", 0 ]
				}

			}
, 			{
				"patchline" : 				{
					"destination" : [ "obj-34", 0 ],
					"hidden" : 0,
					"midpoints" : [  ],
					"source" : [ "obj-35", 0 ]
				}

			}
, 			{
				"patchline" : 				{
					"destination" : [ "obj-37", 0 ],
					"hidden" : 0,
					"midpoints" : [  ],
					"source" : [ "obj-36", 0 ]
				}

			}
, 			{
				"patchline" : 				{
					"destination" : [ "obj-36", 0 ],
					"hidden" : 0,
					"midpoints" : [  ],
					"source" : [ "obj-37", 0 ]
				}

			}
, 			{
				"patchline" : 				{
					"destination" : [ "obj-41", 0 ],
					"hidden" : 0,
					"midpoints" : [  ],
					"source" : [ "obj-39", 0 ]
				}

			}
, 			{
				"patchline" : 				{
					"destination" : [ "obj-12", 0 ],
					"hidden" : 0,
					"midpoints" : [  ],
					"source" : [ "obj-4", 0 ]
				}

			}
, 			{
				"patchline" : 				{
					"destination" : [ "obj-42", 0 ],
					"hidden" : 0,
					"midpoints" : [ 342.5, 259.0, 330.0, 259.0, 330.0, 186.0, 342.5, 186.0 ],
					"source" : [ "obj-41", 0 ]
				}

			}
, 			{
				"patchline" : 				{
					"destination" : [ "obj-39", 0 ],
					"hidden" : 0,
					"midpoints" : [  ],
					"source" : [ "obj-42", 0 ]
				}

			}
, 			{
				"patchline" : 				{
					"destination" : [ "obj-44", 0 ],
					"hidden" : 0,
					"midpoints" : [  ],
					"source" : [ "obj-43", 0 ]
				}

			}
, 			{
				"patchline" : 				{
					"destination" : [ "obj-43", 0 ],
					"hidden" : 0,
					"midpoints" : [  ],
					"source" : [ "obj-45", 0 ]
				}

			}
, 			{
				"patchline" : 				{
					"destination" : [ "obj-48", 0 ],
					"hidden" : 0,
					"midpoints" : [  ],
					"source" : [ "obj-47", 0 ]
				}

			}
, 			{
				"patchline" : 				{
					"destination" : [ "obj-47", 0 ],
					"hidden" : 0,
					"midpoints" : [  ],
					"source" : [ "obj-48", 0 ]
				}

			}
, 			{
				"patchline" : 				{
					"destination" : [ "obj-14", 0 ],
					"hidden" : 0,
					"midpoints" : [  ],
					"source" : [ "obj-5", 0 ]
				}

			}
, 			{
				"patchline" : 				{
					"destination" : [ "obj-51", 0 ],
					"hidden" : 0,
					"midpoints" : [  ],
					"source" : [ "obj-50", 0 ]
				}

			}
, 			{
				"patchline" : 				{
					"destination" : [ "obj-50", 0 ],
					"hidden" : 0,
					"midpoints" : [  ],
					"source" : [ "obj-51", 0 ]
				}

			}
, 			{
				"patchline" : 				{
					"destination" : [ "obj-55", 0 ],
					"hidden" : 0,
					"midpoints" : [  ],
					"source" : [ "obj-54", 0 ]
				}

			}
, 			{
				"patchline" : 				{
					"destination" : [ "obj-54", 0 ],
					"hidden" : 0,
					"midpoints" : [  ],
					"source" : [ "obj-55", 0 ]
				}

			}
, 			{
				"patchline" : 				{
					"destination" : [ "obj-9", 0 ],
					"hidden" : 0,
					"midpoints" : [  ],
					"source" : [ "obj-6", 0 ]
				}

			}
, 			{
				"patchline" : 				{
					"destination" : [ "obj-32", 0 ],
					"hidden" : 0,
					"midpoints" : [  ],
					"source" : [ "obj-61", 0 ]
				}

			}
, 			{
				"patchline" : 				{
					"destination" : [ "obj-42", 0 ],
					"hidden" : 1,
					"midpoints" : [  ],
					"source" : [ "obj-61", 0 ]
				}

			}
, 			{
				"patchline" : 				{
					"destination" : [ "obj-68", 0 ],
					"hidden" : 0,
					"midpoints" : [  ],
					"source" : [ "obj-61", 0 ]
				}

			}
, 			{
				"patchline" : 				{
					"destination" : [ "obj-64", 0 ],
					"hidden" : 0,
					"midpoints" : [  ],
					"source" : [ "obj-63", 0 ]
				}

			}
, 			{
				"patchline" : 				{
					"destination" : [ "obj-63", 0 ],
					"hidden" : 0,
					"midpoints" : [  ],
					"source" : [ "obj-64", 0 ]
				}

			}
, 			{
				"patchline" : 				{
					"destination" : [ "obj-68", 0 ],
					"hidden" : 0,
					"midpoints" : [ 289.5, 80.0, 276.0, 80.0, 276.0, 26.0, 289.5, 26.0 ],
					"source" : [ "obj-67", 0 ]
				}

			}
, 			{
				"patchline" : 				{
					"destination" : [ "obj-67", 0 ],
					"hidden" : 0,
					"midpoints" : [ 351.5, 50.0, 289.5, 50.0 ],
					"source" : [ "obj-68", 1 ]
				}

			}
, 			{
				"patchline" : 				{
					"destination" : [ "obj-12", 0 ],
					"hidden" : 0,
					"midpoints" : [  ],
					"source" : [ "obj-7", 0 ]
				}

			}
, 			{
				"patchline" : 				{
					"destination" : [ "obj-72", 0 ],
					"hidden" : 0,
					"midpoints" : [  ],
					"source" : [ "obj-71", 0 ]
				}

			}
, 			{
				"patchline" : 				{
					"destination" : [ "obj-71", 0 ],
					"hidden" : 0,
					"midpoints" : [  ],
					"source" : [ "obj-72", 0 ]
				}

			}
, 			{
				"patchline" : 				{
					"destination" : [ "obj-77", 0 ],
					"hidden" : 0,
					"midpoints" : [  ],
					"source" : [ "obj-76", 0 ]
				}

			}
, 			{
				"patchline" : 				{
					"destination" : [ "obj-76", 0 ],
					"hidden" : 0,
					"midpoints" : [  ],
					"source" : [ "obj-77", 0 ]
				}

			}
, 			{
				"patchline" : 				{
					"destination" : [ "obj-79", 0 ],
					"hidden" : 0,
					"midpoints" : [  ],
					"source" : [ "obj-78", 0 ]
				}

			}
, 			{
				"patchline" : 				{
					"destination" : [ "obj-78", 0 ],
					"hidden" : 0,
					"midpoints" : [  ],
					"source" : [ "obj-79", 0 ]
				}

			}
, 			{
				"patchline" : 				{
					"destination" : [ "obj-7", 0 ],
					"hidden" : 0,
					"midpoints" : [  ],
					"source" : [ "obj-8", 0 ]
				}

			}
, 			{
				"patchline" : 				{
					"destination" : [ "obj-81", 0 ],
					"hidden" : 0,
					"midpoints" : [  ],
					"source" : [ "obj-80", 0 ]
				}

			}
, 			{
				"patchline" : 				{
					"destination" : [ "obj-80", 0 ],
					"hidden" : 0,
					"midpoints" : [  ],
					"source" : [ "obj-81", 0 ]
				}

			}
, 			{
				"patchline" : 				{
					"destination" : [ "obj-10", 0 ],
					"hidden" : 0,
					"midpoints" : [  ],
					"source" : [ "obj-9", 0 ]
				}

			}
, 			{
				"patchline" : 				{
					"destination" : [ "obj-8", 1 ],
					"hidden" : 0,
					"midpoints" : [  ],
					"source" : [ "obj-9", 1 ]
				}

			}
 ]
	}

}
