{
	"patcher" : 	{
		"fileversion" : 1,
		"rect" : [ 105.0, 571.0, 648.0, 235.0 ],
		"bglocked" : 0,
		"defrect" : [ 105.0, 571.0, 648.0, 235.0 ],
		"openrect" : [ 0.0, 0.0, 0.0, 0.0 ],
		"openinpresentation" : 0,
		"default_fontsize" : 12.0,
		"default_fontface" : 0,
		"default_fontname" : "Arial",
		"gridonopen" : 0,
		"gridsize" : [ 15.0, 15.0 ],
		"gridsnaponopen" : 0,
		"toolbarvisible" : 1,
		"boxanimatetime" : 200,
		"imprint" : 0,
		"enablehscroll" : 1,
		"enablevscroll" : 1,
		"devicewidth" : 0.0,
		"boxes" : [ 			{
				"box" : 				{
					"hint" : "Read previously stored snapshot from disc.",
					"id" : "obj-1",
					"maxclass" : "hint",
					"numinlets" : 1,
					"numoutlets" : 0,
					"patching_rect" : [ 104.0, 37.0, 31.0, 15.0 ]
				}

			}
, 			{
				"box" : 				{
					"hint" : "Write current snapshot to disk file.",
					"id" : "obj-2",
					"maxclass" : "hint",
					"numinlets" : 1,
					"numoutlets" : 0,
					"patching_rect" : [ 74.0, 37.0, 31.0, 15.0 ]
				}

			}
, 			{
				"box" : 				{
					"hint" : "Take snapshot then Open edit window to copy messages.",
					"id" : "obj-3",
					"maxclass" : "hint",
					"numinlets" : 1,
					"numoutlets" : 0,
					"patching_rect" : [ 134.0, 19.0, 31.0, 15.0 ]
				}

			}
, 			{
				"box" : 				{
					"hint" : "Recall snapshot (reloads temp file and resends paramerters)",
					"id" : "obj-4",
					"maxclass" : "hint",
					"numinlets" : 1,
					"numoutlets" : 0,
					"patching_rect" : [ 104.0, 19.0, 31.0, 15.0 ]
				}

			}
, 			{
				"box" : 				{
					"hint" : "Take snapshot (stored to #1-temp.txt file)",
					"id" : "obj-5",
					"maxclass" : "hint",
					"numinlets" : 1,
					"numoutlets" : 0,
					"patching_rect" : [ 74.0, 19.0, 31.0, 15.0 ]
				}

			}
, 			{
				"box" : 				{
					"fontname" : "Times Roman",
					"fontsize" : 9.0,
					"frgb" : [ 0.0, 0.0, 0.784314, 1.0 ],
					"id" : "obj-6",
					"maxclass" : "comment",
					"numinlets" : 1,
					"numoutlets" : 0,
					"patching_rect" : [ 2.0, 38.0, 75.0, 15.0 ],
					"text" : "snapshot archive",
					"textcolor" : [ 0.0, 0.0, 0.784314, 1.0 ]
				}

			}
, 			{
				"box" : 				{
					"fontname" : "Times Roman",
					"fontsize" : 9.0,
					"frgb" : [ 0.0, 0.0, 0.784314, 1.0 ],
					"id" : "obj-7",
					"maxclass" : "comment",
					"numinlets" : 1,
					"numoutlets" : 0,
					"patching_rect" : [ 11.0, 20.0, 66.0, 15.0 ],
					"text" : "snapshot temp",
					"textcolor" : [ 0.0, 0.0, 0.784314, 1.0 ]
				}

			}
, 			{
				"box" : 				{
					"bgcolor" : [ 1.0, 0.741176, 0.611765, 1.0 ],
					"fontname" : "Times Roman",
					"fontsize" : 9.0,
					"id" : "obj-8",
					"maxclass" : "message",
					"numinlets" : 2,
					"numoutlets" : 1,
					"outlettype" : [ "" ],
					"patching_rect" : [ 74.0, 19.0, 31.0, 13.0 ],
					"text" : "Store",
					"varname" : "storeactive"
				}

			}
, 			{
				"box" : 				{
					"bgcolor" : [ 0.611765, 0.701961, 1.0, 1.0 ],
					"fontname" : "Times Roman",
					"fontsize" : 9.0,
					"id" : "obj-9",
					"maxclass" : "message",
					"numinlets" : 2,
					"numoutlets" : 1,
					"outlettype" : [ "" ],
					"patching_rect" : [ 134.0, 19.0, 31.0, 13.0 ],
					"text" : "Open",
					"varname" : "openactive"
				}

			}
, 			{
				"box" : 				{
					"bgcolor" : [ 0.290196, 0.611765, 0.380392, 1.0 ],
					"fontname" : "Times Roman",
					"fontsize" : 9.0,
					"id" : "obj-10",
					"maxclass" : "message",
					"numinlets" : 2,
					"numoutlets" : 1,
					"outlettype" : [ "" ],
					"patching_rect" : [ 104.0, 19.0, 31.0, 13.0 ],
					"text" : "Recall",
					"varname" : "recallactive"
				}

			}
, 			{
				"box" : 				{
					"bgcolor" : [ 0.4, 0.4, 0.8, 1.0 ],
					"fontname" : "Times Roman",
					"fontsize" : 9.0,
					"id" : "obj-11",
					"maxclass" : "message",
					"numinlets" : 2,
					"numoutlets" : 1,
					"outlettype" : [ "" ],
					"patching_rect" : [ 104.0, 37.0, 31.0, 13.0 ],
					"text" : "Read",
					"varname" : "recallarchive"
				}

			}
, 			{
				"box" : 				{
					"bgcolor" : [ 0.6, 0.4, 0.6, 1.0 ],
					"fontname" : "Times Roman",
					"fontsize" : 9.0,
					"id" : "obj-12",
					"maxclass" : "message",
					"numinlets" : 2,
					"numoutlets" : 1,
					"outlettype" : [ "" ],
					"patching_rect" : [ 74.0, 37.0, 31.0, 13.0 ],
					"text" : "Write",
					"varname" : "writearchive"
				}

			}
, 			{
				"box" : 				{
					"fontname" : "Times Roman",
					"fontsize" : 14.0,
					"id" : "obj-13",
					"maxclass" : "comment",
					"numinlets" : 1,
					"numoutlets" : 0,
					"patching_rect" : [ 2.0, 2.0, 137.0, 20.0 ],
					"text" : "#1"
				}

			}
, 			{
				"box" : 				{
					"fontname" : "Times Roman",
					"fontsize" : 9.0,
					"frgb" : [ 0.388235, 0.388235, 0.388235, 1.0 ],
					"id" : "obj-14",
					"maxclass" : "comment",
					"numinlets" : 1,
					"numoutlets" : 0,
					"patching_rect" : [ 8.0, 77.0, 114.0, 15.0 ],
					"text" : "#3 : #4",
					"textcolor" : [ 0.388235, 0.388235, 0.388235, 1.0 ]
				}

			}
, 			{
				"box" : 				{
					"fontname" : "Times Roman",
					"fontsize" : 9.0,
					"id" : "obj-15",
					"linecount" : 3,
					"maxclass" : "comment",
					"numinlets" : 1,
					"numoutlets" : 0,
					"patching_rect" : [ 8.0, 93.0, 202.0, 33.0 ],
					"text" : "arg 1 : activeparams prefix name (i.e. t_snapshot);\rarg 2 : switch coll name (i.e. switchstate);\rarg 3 : matrix prefix name;\r"
				}

			}
, 			{
				"box" : 				{
					"color" : [ 0.156863, 0.8, 0.54902, 1.0 ],
					"fontname" : "Arial",
					"fontsize" : 9.0,
					"id" : "obj-16",
					"maxclass" : "newobj",
					"numinlets" : 5,
					"numoutlets" : 0,
					"patching_rect" : [ 236.0, 56.0, 324.0, 17.0 ],
					"text" : "m_storeactivepath #1 #2 #3"
				}

			}
, 			{
				"box" : 				{
					"fontname" : "Times Roman",
					"fontsize" : 9.0,
					"id" : "obj-17",
					"maxclass" : "newobj",
					"numinlets" : 1,
					"numoutlets" : 1,
					"outlettype" : [ "" ],
					"patching_rect" : [ 392.0, 23.0, 69.0, 15.0 ],
					"text" : "pvar openactive"
				}

			}
, 			{
				"box" : 				{
					"fontname" : "Times Roman",
					"fontsize" : 9.0,
					"id" : "obj-18",
					"maxclass" : "newobj",
					"numinlets" : 1,
					"numoutlets" : 1,
					"outlettype" : [ "" ],
					"patching_rect" : [ 470.0, 23.0, 74.0, 15.0 ],
					"text" : "pvar writearchive"
				}

			}
, 			{
				"box" : 				{
					"fontname" : "Times Roman",
					"fontsize" : 9.0,
					"id" : "obj-19",
					"maxclass" : "newobj",
					"numinlets" : 1,
					"numoutlets" : 1,
					"outlettype" : [ "" ],
					"patching_rect" : [ 236.0, 23.0, 69.0, 15.0 ],
					"text" : "pvar storeactive"
				}

			}
, 			{
				"box" : 				{
					"fontname" : "Arial",
					"fontsize" : 9.0,
					"id" : "obj-20",
					"maxclass" : "comment",
					"numinlets" : 1,
					"numoutlets" : 0,
					"patching_rect" : [ 38.0, 159.0, 109.0, 17.0 ],
					"text" : "contact@tommays.net"
				}

			}
, 			{
				"box" : 				{
					"fontname" : "Arial",
					"fontsize" : 9.0,
					"id" : "obj-21",
					"maxclass" : "comment",
					"numinlets" : 1,
					"numoutlets" : 0,
					"patching_rect" : [ 38.0, 146.0, 100.0, 17.0 ],
					"text" : "patch by Tom Mays"
				}

			}
, 			{
				"box" : 				{
					"fontname" : "Times Roman",
					"fontsize" : 9.0,
					"frgb" : [ 0.388235, 0.388235, 0.388235, 1.0 ],
					"id" : "obj-22",
					"maxclass" : "comment",
					"numinlets" : 1,
					"numoutlets" : 0,
					"patching_rect" : [ 8.0, 64.0, 114.0, 15.0 ],
					"text" : "sw : #2",
					"textcolor" : [ 0.388235, 0.388235, 0.388235, 1.0 ]
				}

			}
, 			{
				"box" : 				{
					"fontname" : "Times Roman",
					"fontsize" : 9.0,
					"id" : "obj-23",
					"maxclass" : "newobj",
					"numinlets" : 1,
					"numoutlets" : 1,
					"outlettype" : [ "" ],
					"patching_rect" : [ 548.0, 23.0, 75.0, 15.0 ],
					"text" : "pvar recallarchive"
				}

			}
, 			{
				"box" : 				{
					"fontname" : "Times Roman",
					"fontsize" : 9.0,
					"id" : "obj-24",
					"maxclass" : "newobj",
					"numinlets" : 1,
					"numoutlets" : 1,
					"outlettype" : [ "" ],
					"patching_rect" : [ 314.0, 23.0, 71.0, 15.0 ],
					"text" : "pvar recallactive"
				}

			}
, 			{
				"box" : 				{
					"background" : 1,
					"bgcolor" : [ 0.921569, 0.921569, 0.921569, 1.0 ],
					"border" : 1,
					"bordercolor" : [ 0.501961, 0.501961, 0.501961, 1.0 ],
					"id" : "obj-25",
					"maxclass" : "panel",
					"numinlets" : 1,
					"numoutlets" : 0,
					"patching_rect" : [ 0.0, 0.0, 172.0, 56.0 ],
					"rounded" : 4,
					"shadow" : 2
				}

			}
 ],
		"lines" : [ 			{
				"patchline" : 				{
					"destination" : [ "obj-16", 2 ],
					"hidden" : 0,
					"midpoints" : [  ],
					"source" : [ "obj-17", 0 ]
				}

			}
, 			{
				"patchline" : 				{
					"destination" : [ "obj-16", 3 ],
					"hidden" : 0,
					"midpoints" : [  ],
					"source" : [ "obj-18", 0 ]
				}

			}
, 			{
				"patchline" : 				{
					"destination" : [ "obj-16", 0 ],
					"hidden" : 0,
					"midpoints" : [  ],
					"source" : [ "obj-19", 0 ]
				}

			}
, 			{
				"patchline" : 				{
					"destination" : [ "obj-16", 4 ],
					"hidden" : 0,
					"midpoints" : [  ],
					"source" : [ "obj-23", 0 ]
				}

			}
, 			{
				"patchline" : 				{
					"destination" : [ "obj-16", 1 ],
					"hidden" : 0,
					"midpoints" : [  ],
					"source" : [ "obj-24", 0 ]
				}

			}
 ]
	}

}
