max v2;#N vpatcher 159 116 1347 677;#P origin 0 14;#P window setfont "Sans Serif" 9.;#P window linecount 1;#P newex 970 27 151 196617 moduleinit $1;#B color 13;#P message 214 366 14 196617 0;#P message 178 366 14 196617 1;#P user meter~ 315 394 395 407 50 0 168 0 103 103 103 255 153 0 255 0 0 217 217 0 153 186 0 12 3 3 3 3;#P newex 281 337 60 196617 loadmess 1;#P newex 358 476 96 196617 sprintf open %s.aif;#P toggle 281 365 15 0;#P newex 281 393 31 196617 adc~;#P newex 178 337 82 196617 route start stop;#P newex 178 474 64 196617 sfrecord~ 2;#P newex 749 469 98 196617 sprintf open %s.txt;#P newex 778 512 45 196617 print op;#P newex 479 525 92 196617 mxj PerfRecorder;#P newex 626 469 71 196617 s $1/filepath;#P newex 868 482 75 196617 s $1/filename;#P newex 868 456 51 196617 strippath;#N coll filepaths.txt;#P newobj 594 325 85 196617 coll filepaths.txt;#P message 594 303 49 196617 replayer;#P newex 869 380 58 196617 unpack i i i;#P newex 797 380 58 196617 unpack i i i;#P newex 797 350 40 196617 date;#P message 833 327 29 196617 date;#P message 797 327 30 196617 time;#P newex 797 299 30 196617 t b b;#P newex 749 431 184 196617 sprintf %s%s_%i-%i-%i_%ih%im%is;#P newex 773 210 62 196617 prepend set;#P message 773 263 17 196617 te;#P newex 773 180 150 196617 makeparam $1/file $1 s bogus;#P newex 579 219 40 196617 t s b b;#P message 624 194 29 196617 stop;#P message 579 194 33 196617 start;#P newex 579 164 32 196617 sel 1;#P newex 579 129 27 196617 t i i;#P toggle 579 106 15 0;#P newex 579 83 145 196617 makeparam $1/record $1 t 0;#P toggle 304 114 15 0;#P newex 304 89 159 196617 makeparam $1/sound/sw $1 t 0;#P toggle 285 83 15 0;#P newex 285 59 158 196617 makeparam $1/video/sw $1 t 0;#P newex 1 339 73 196617 prepend write;#P newex 54 286 48 196617 print $1;#P newex 54 259 29 196617 gate;#P toggle 54 222 15 0;#P newex 54 199 156 196617 makeparam $1/print/sw $1 t 0;#P newex 1 121 29 196617 gate;#P inlet 135 85 15 0;#P newex 83 85 45 196617 r $1/in;#P newex 47 85 31 196617 r $1;#P toggle 1 73 15 0;#P newex 1 47 130 196617 makeswitch $1/sw $1 $2;#N vpatcher 162 492 1432 1152;#P origin 11 0;#P window setfont "Sans Serif" 9.;#P newex 139 28 114 196617 r $1/sw;#P window linecount 1;#P newex 223 510 118 196617 m_grab $1/grab $2 $3;#P window linecount 0;#P newex 276 211 199 196617 sprintf set write %s.mov 30. jpeg normal;#P message 632 240 79 196617 write_audio \$1;#P message 527 240 80 196617 write_video \$1;#P message 223 239 29 196617 stop;#P message 254 262 129 196617 write OsX:/Users/pach/Documents/taff/MAXMSP/svnDida/ombres/ombres/server/media/replayer/te_0-0-0_0h0m0s.mov 30. jpeg normal;#P newex 276 164 71 196617 r $1/filepath;#P toggle 254 92 15 0;#P newex 254 129 32 196617 sel 1;#P inlet 632 31 15 0;#P inlet 527 31 15 0;#P inlet 254 31 15 0;#P newex 139 132 57 196617 qmetro 40;#P toggle 139 111 15 0;#P connect 14 0 0 0;#P connect 0 0 1 0;#P fasten 5 1 9 0 281 156 228 156;#P fasten 1 0 13 0 144 300 228 300;#P fasten 11 0 13 0 637 382 228 382;#P fasten 10 0 13 0 532 382 228 382;#P fasten 9 0 13 0 228 382 228 382;#P fasten 8 0 13 0 259 382 228 382;#P connect 2 0 6 0;#P connect 6 0 5 0;#P connect 12 0 8 0;#P connect 5 0 8 0;#P connect 7 0 12 0;#P connect 3 0 10 0;#P connect 4 0 11 0;#P pop;#P newobj 266 259 48 196617 p graber;#P window linecount 9;#P message 970 49 121 196617 \; $1/sw/init bang \; $1/file/init bang \; $1/print/sw/init bang \; $1/video/sw/init bang \; $1/sound/sw/init bang \; $1/record/init bang \; $1/grab/init bang \; $1/grab/sw 1 \;;#P connect 2 0 3 0;#P connect 3 0 7 0;#P connect 7 0 12 0;#P fasten 4 0 7 1 52 111 25 111;#P fasten 5 0 7 1 88 111 25 111;#P fasten 6 0 7 1 140 111 25 111;#P connect 8 0 9 0;#P connect 9 0 10 0;#P connect 10 0 11 0;#P fasten 7 0 10 1 6 247 78 247;#P connect 21 0 43 0;#P connect 22 0 43 0;#P connect 43 0 49 0;#P connect 44 0 42 0;#P connect 46 0 42 0;#P connect 49 0 42 0;#P connect 50 0 42 0;#P connect 43 1 50 0;#P connect 44 1 42 1;#P fasten 19 0 1 0 584 150 271 150;#P connect 47 0 45 0;#P connect 45 0 44 0;#P connect 13 0 14 0;#P connect 14 0 1 1;#P connect 15 0 16 0;#P connect 16 0 1 2;#P connect 44 0 48 0;#P connect 27 0 46 0;#P fasten 41 0 39 0 754 504 484 504;#P fasten 23 0 39 0 584 504 484 504;#P fasten 12 0 39 0 6 504 484 504;#P fasten 22 0 39 0 629 271 484 271;#P connect 17 0 18 0;#P connect 18 0 19 0;#P fasten 19 1 20 0 601 159 584 159;#P connect 20 0 21 0;#P connect 21 0 23 0;#P connect 23 1 34 0;#P connect 34 0 35 0;#P connect 20 1 22 0;#P connect 27 0 38 0;#P fasten 35 0 27 0 599 386 754 386;#P connect 27 0 41 0;#P connect 24 0 26 0;#P fasten 23 2 25 0 614 249 778 249;#P connect 26 0 25 0;#P connect 25 0 27 1;#P connect 41 0 40 0;#P fasten 23 2 28 0 614 287 802 287;#P connect 28 0 29 0;#P connect 29 0 31 0;#P connect 30 0 31 0;#P connect 31 0 32 0;#P connect 32 0 27 2;#P connect 32 1 27 3;#P connect 28 1 30 0;#P connect 32 2 27 4;#P connect 27 0 36 0;#P connect 36 0 37 0;#P connect 31 1 33 0;#P connect 33 0 27 5;#P connect 33 1 27 6;#P connect 33 2 27 7;#P connect 51 0 0 0;#P pop;