max v2;#N vpatcher 10 59 610 459;#P inlet 96 43 15 0;#P window setfont "Sans Serif" 9.;#P window linecount 1;#P newex 96 84 224 196617 osc-route /raw /min /max /norm /speed /acc;#P newex 96 277 327 196617 makecontrol $1/acc $2 f 0 1;#B color 5;#P newex 96 258 340 196617 makecontrol $1/speed $2 f 0. 1;#B color 5;#P newex 96 239 341 196617 makecontrol $1/norm $2 f 0. 1.;#B color 5;#P newex 96 219 349 196617 makecontrol $1/max $2 f 0 1024;#B color 5;#P newex 96 200 162 196617 makecontrol $1/min $2 f 0 1024;#B color 5;#P newex 96 180 348 196617 makecontrol $1/raw $2 f 0 1024;#B color 5;#P connect 7 0 6 0;#P connect 6 0 0 0;#P connect 6 1 1 0;#P connect 6 2 2 0;#P connect 6 3 3 0;#P connect 6 4 4 0;#P connect 6 5 5 0;#P pop;