max v2;#N vpatcher 363 102 1215 651;#P origin -119 -110;#P window setfont "Sans Serif" 9.;#P message 577 209 127 196617 script respondtoclick max;#P message 440 209 111 196617 script ignoreclick max;#P message 591 188 124 196617 script respondtoclick min;#P message 456 188 108 196617 script ignoreclick min;#N vpatcher 20 74 166 224;#P origin -45 -26;#P window setfont "Sans Serif" 9.;#P window linecount 1;#P hidden newex 147 99 133 196617 r $1/acc;#P hidden newex 147 74 118 196617 variedit $1/acc/sw $1;#P hidden newex 149 28 143 196617 r $1/speed;#P window linecount 0;#P hidden newex 149 3 128 196617 variedit $1/speed/sw $1;#P flonum 74 95 35 9 0 0 0 3 0 0 0 221 221 221 222 222 222 0 0 0;#P window linecount 1;#P comment 13 96 58 196617 /acc/val;#B frgb 255 255 255;#P toggle 74 72 15 0;#P comment 13 73 58 196617 /acc/sw;#B frgb 255 255 255;#P user panel 1 69 127 64;#X brgb 0 0 0;#X frgb 0 0 0;#X border 1;#X rounded 0;#X shadow 0;#X done;#P flonum 74 27 35 9 0 0 0 3 0 0 0 221 221 221 222 222 222 0 0 0;#P comment 13 28 58 196617 /speed/val;#B frgb 255 255 255;#P toggle 74 4 15 0;#P window linecount 0;#N thispatcher;#Q end;#P hidden newobj 307 77 61 196617 thispatcher;#P hidden newex 307 54 93 196617 r $1/more/editor;#P comment 13 5 58 196617 /speed/sw;#B frgb 255 255 255;#P user panel 1 1 127 64;#X brgb 0 0 0;#X frgb 0 0 0;#X border 1;#X rounded 0;#X shadow 0;#X done;#P hidden connect 12 0 4 0;#P hidden connect 13 0 6 0;#P hidden connect 14 0 9 0;#P hidden connect 15 0 11 0;#P hidden connect 9 0 14 0;#P hidden connect 4 0 12 0;#P hidden connect 2 0 3 0;#P pop;#P newobj 342 31 41 196617 p more;#P newex 440 128 189 196617 route autoscale temposcale manualscale;#P newex 338 95 107 196617 variedit $1/scale $1;#P newex 71 318 122 196617 variedit $1/visu/sw $1;#P newex 266 413 29 196617 gate;#P message 350 421 89 196617 setminmax \$1 \$2;#P newex 350 397 49 196617 pak 0. 0.;#P newex 675 297 60 196617 r $1/norm;#P newex 532 320 87 196617 variedit $1/max;#P newex 399 320 84 196617 variedit $1/min;#P newex 285 297 55 196617 r $1/raw;#P newex 266 460 53 196617 pvar visu;#P newex 71 291 72 196617 pvar visu_sw;#P toggle 85 62 13 0;#P objectname visu_sw;#P comment 32 62 54 196617 /visu/sw;#P user multiSlider 26 78 224 41 0. 0.92 1 3449 47 0 0 2 0 0 0;#M frgb 0 0 0;#M brgb 255 255 255;#M rgb2 127 127 127;#M rgb3 0 0 0;#M rgb4 37 52 91;#M rgb5 74 105 182;#M rgb6 112 158 18;#M rgb7 149 211 110;#M rgb8 187 9 201;#M rgb9 224 62 37;#M rgb10 7 114 128;#P objectname visu;#P flonum 148 41 35 9 0 0 8192 3 0 0 0 221 221 221 222 222 222 0 0 0;#P objectname norm;#P flonum 211 21 42 9 0 0 0 3 0 0 0 221 221 221 222 222 222 0 0 0;#P objectname max;#P flonum 147 21 35 9 0 0 0 3 0 0 0 221 221 221 222 222 222 0 0 0;#P objectname min;#P flonum 68 41 35 9 0 0 8192 3 0 0 0 221 221 221 222 222 222 0 0 0;#P objectname raw;#P user umenu 15 21 94 196647 1 64 37 1;#X add autoscale;#X add manualscale;#X add temposcale;#P objectname typescale;#P comment 112 41 39 196617 /norm;#P comment 183 21 35 196617 /max;#P comment 111 21 32 196617 /min;#P newex 675 320 57 196617 pvar norm;#P newex 532 297 53 196617 pvar max;#P newex 285 320 52 196617 pvar raw;#P newex 399 297 50 196617 pvar min;#N thispatcher;#Q end;#P newobj 0 177 61 196617 thispatcher;#P comment 33 41 34 196617 /raw;#P bpatcher 0 0 257 125 0 0 bkgnd2.mxt 0 $1 1 3;#P objectname background;#P connect 31 0 2 0;#P connect 33 0 2 0;#P connect 34 0 2 0;#P connect 32 0 2 0;#P hidden connect 28 0 10 0;#P fasten 27 0 18 0 76 342 65 342 65 283 76 283;#P connect 18 0 27 0;#P fasten 27 1 26 0 132 377 271 377;#P fasten 25 0 19 0 355 450 271 450;#P connect 26 0 19 0;#P connect 20 0 4 0;#P connect 4 0 26 1;#P hidden fasten 10 1 28 0 106 57;#P connect 21 1 24 0;#P connect 24 0 25 0;#P connect 22 1 24 1;#P connect 21 0 3 0;#P connect 3 0 21 0;#P fasten 28 1 29 0 391 120 445 120;#P fasten 29 0 33 0 445 175 445 175;#P fasten 29 1 33 0 504 165 445 165;#P fasten 29 0 31 0 445 165 461 165;#P fasten 29 1 31 0 504 165 461 165;#P connect 22 0 5 0;#P connect 5 0 22 0;#P fasten 29 2 34 0 563 165 582 165;#P fasten 29 2 32 0 563 165 596 165;#P connect 23 0 6 0;#P pop;