max v2;#N vpatcher -4 385 1139 830;#P window setfont "Sans Serif" 9.;#N vpatcher 10 59 482 235;#P origin 0 -4;#P window setfont "Sans Serif" 9.;#P newex 335 112 87 196617 prepend /sensor/8/norm;#P newex 241 112 87 196617 prepend /sensor/7/norm;#P newex 147 112 87 196617 prepend /sensor/6/norm;#P newex 50 112 87 196617 prepend /sensor/5/norm;#P newex 312 34 85 196617 prepend /sensor/4/norm;#P newex 225 34 85 196617 prepend /sensor/3/norm;#P newex 138 34 85 196617 prepend /sensor/2/norm;#P newex 51 34 85 196617 prepend /sensor/1/norm;#P inlet 335 91 15 0;#P inlet 241 91 15 0;#P inlet 147 91 15 0;#P inlet 50 91 15 0;#P inlet 312 14 15 0;#P inlet 225 14 15 0;#P inlet 138 14 15 0;#P inlet 51 14 15 0;#P outlet 50 146 15 0;#P connect 5 0 13 0;#P connect 13 0 0 0;#P connect 14 0 0 0;#P connect 15 0 0 0;#P connect 16 0 0 0;#P connect 9 0 0 0;#P connect 10 0 0 0;#P connect 11 0 0 0;#P connect 12 0 0 0;#P connect 1 0 9 0;#P connect 2 0 10 0;#P connect 6 0 14 0;#P connect 3 0 11 0;#P connect 7 0 15 0;#P connect 4 0 12 0;#P connect 8 0 16 0;#P pop;#P newobj 721 382 13 196617 p;#P outlet 720 403 15 0;#P window linecount 9;#P message 846 246 221 196617 \; /random_sensor.1 1 0 1 1000 1000 100 100 \; /random_sensor.2 1 0 1 1000 1000 100 100 \; /random_sensor.3 1 0 1 1000 1000 100 100 \; /random_sensor.4 1 0 1 1000 1000 100 100 \; /random_sensor.5 1 0 1 1000 1000 100 100 \; /random_sensor.6 1 0 1 1000 1000 100 100 \; /random_sensor.7 1 0 1 1000 1000 100 100 \; /random_sensor.8 1 0 1 1000 1000 100 100 \;;#P message 736 246 107 196617 \; /random_sensor.1 0 \; /random_sensor.2 0 \; /random_sensor.3 0 \; /random_sensor.4 0 \; /random_sensor.5 0 \; /random_sensor.6 0 \; /random_sensor.7 0 \; /random_sensor.8 0 \;;#P window linecount 1;#P newex 736 205 230 196617 sel 0 1;#P inlet 736 172 15 0;#P outlet 542 355 15 0;#P newex 569 355 92 196617 s /sensor.8/norm;#P newex 569 328 40 196617 line 0.;#P newex 355 304 224 196617 proc-randtransf /random_sensor.8 /sensor8 2;#P outlet 524 273 15 0;#P newex 570 273 92 196617 s /sensor.7/norm;#P newex 570 246 40 196617 line 0.;#P newex 356 222 224 196617 proc-randtransf /random_sensor.7 /sensor7 2;#P outlet 507 182 15 0;#P newex 569 182 92 196617 s /sensor.6/norm;#P newex 569 155 40 196617 line 0.;#P newex 355 131 224 196617 proc-randtransf /random_sensor.6 /sensor6 2;#P outlet 488 98 15 0;#P newex 569 98 92 196617 s /sensor.5/norm;#P newex 569 71 40 196617 line 0.;#P newex 355 47 224 196617 proc-randtransf /random_sensor.5 /sensor5 2;#P outlet 243 357 15 0;#P newex 259 356 92 196617 s /sensor.4/norm;#P newex 259 329 40 196617 line 0.;#P newex 45 305 224 196617 proc-randtransf /random_sensor.4 /sensor4 2;#P outlet 230 274 15 0;#P newex 260 274 92 196617 s /sensor.3/norm;#P newex 260 247 40 196617 line 0.;#P newex 46 223 224 196617 proc-randtransf /random_sensor.3 /sensor3 2;#P outlet 215 183 15 0;#P newex 259 183 92 196617 s /sensor.2/norm;#P newex 259 156 40 196617 line 0.;#P newex 45 132 224 196617 proc-randtransf /random_sensor.2 /sensor2 2;#P outlet 193 99 15 0;#P newex 259 99 92 196617 s /sensor.1/norm;#P newex 259 72 40 196617 line 0.;#P newex 45 48 224 196617 proc-randtransf /random_sensor.1 /sensor1 2;#P connect 1 0 3 0;#P connect 5 0 7 0;#P connect 9 0 11 0;#P connect 13 0 15 0;#P connect 0 1 1 0;#P connect 1 0 2 0;#P connect 4 1 5 0;#P connect 5 0 6 0;#P connect 12 1 13 0;#P connect 13 0 14 0;#P connect 8 1 9 0;#P connect 9 0 10 0;#P connect 17 0 19 0;#P connect 21 0 23 0;#P connect 25 0 27 0;#P connect 29 0 31 0;#P connect 16 1 17 0;#P connect 17 0 18 0;#P connect 20 1 21 0;#P connect 21 0 22 0;#P connect 28 1 29 0;#P connect 29 0 30 0;#P connect 24 1 25 0;#P connect 25 0 26 0;#P connect 37 0 36 0;#P connect 29 0 37 7;#P connect 25 0 37 5;#P connect 21 0 37 3;#P connect 17 0 37 0;#P connect 13 0 37 6;#P connect 9 0 37 4;#P connect 5 0 37 2;#P connect 1 0 37 1;#P connect 32 0 33 0;#P connect 33 0 34 0;#P connect 33 1 35 0;#P pop;