max v2;#N vpatcher 38 44 287 341;#P origin -13 -87;#P window setfont "Sans Serif" 9.;#P hidden message 422 127 33 196617 front;#P hidden newex 392 96 38 196617 sel 99;#P hidden number 329 97 35 9 0 0 0 3 0 0 0 221 221 221 222 222 222 0 0 0;#P hidden newex 317 71 40 196617 key;#P bpatcher 104 91 125 64 0 0 qlistshell.edit.mxt 0 serveur_camtrk_init_00;#N thispatcher;#Q end;#P hidden newobj 337 142 61 196617 thispatcher;#P bpatcher 104 25 125 64 0 0 qlistshell.edit.mxt 0 serveur_init_00;#P toggle 244 26 15 0;#P bpatcher 5 75 92 22 0 0 openbutton.mxt 0 event "open bordel window" 92;#P hidden newex 128 313 88 196617 bgcolor 64 64 64;#P bpatcher 5 147 92 22 0 0 openbutton.mxt 0 osc "open osc editors page" 92;#P bpatcher 5 122 92 22 0 0 openbutton.mxt 0 kramers "open kramer editors page" 92;#P window setfont "Sans Serif" 14.;#N vpatcher 593 147 954 430;#P origin 29 0;#P window setfont "Sans Serif" 9.;#P newex 205 176 32 196617 r **;#P window setfont "Sans Serif" 12.;#N vpatcher 358 417 582 849;#P origin -134 -197;#P bpatcher -1 102 236 63 0 0 qlistshell.edit.mxt 0 ose_chrono;#P objectname cue1[2];#P bpatcher 0 24 236 63 0 0 qlistshell.edit.mxt 0 ose_halo;#P objectname cue1[1];#P bpatcher 385 65 236 63 0 0 qlistshell.edit.mxt 0 hse_bulbfiction_init;#P objectname cue1[8];#P bpatcher 386 266 236 63 0 0 qlistshell.edit.mxt 0 hs_ampoule_croptrk;#P objectname cue1[7];#P bpatcher 379 156 236 63 0 0 qlistshell.edit.mxt 0 hof_sev_init 3;#P objectname cue1[6];#P window setfont "Sans Serif" 9.;#N thispatcher;#Q end;#P hidden newobj 250 76 61 196617 thispatcher;#P hidden newex 250 18 76 196617 r event/editor;#N thispatcher;#Q end;#P hidden newobj 157 568 61 196617 thispatcher;#P hidden newex 157 510 82 196617 r /event/editor;#P hidden connect 0 0 1 0;#P hidden connect 2 0 3 0;#P pop;#P newobj 23 103 64 196620 p event;#B color 6;#P window setfont "Sans Serif" 9.;#P newex 185 33 95 196617 r /kramers/editor;#P window setfont "Sans Serif" 12.;#N vpatcher 216 512 692 855;#P origin -121 -26;#P window setfont "Sans Serif" 9.;#P hidden newex 296 136 112 196617 udpsender /toCAMTRK;#P bpatcher 3 87 256 62 0 0 udpsender.edit.mxt 0 /toCAMTRK;#P hidden newex 395 167 88 196617 bgcolor 64 64 64;#P hidden newex 295 71 141 196617 udpreceiver /fromtapemovie;#P bpatcher 2 22 256 62 0 0 udpreceiver.edit.mxt 0 /fromtapemovie;#N thispatcher;#Q end;#P hidden newobj -30 361 61 196617 thispatcher;#P hidden newex -30 337 72 196617 r /osc/editor;#P hidden connect 0 0 1 0;#P pop;#P newobj 21 225 42 196620 p osc;#B color 6;#P window setfont "Sans Serif" 9.;#P newex 147 58 48 196617 kramers;#N vpatcher 335 57 1775 874;#P origin 279 -151;#P window setfont "Sans Serif" 9.;#P window linecount 1;#P hidden newex 1226 463 29 196617 thru;#P hidden newex 1330 343 92 196617 udpsender /tojose;#P bpatcher 1070 342 257 63 0 0 udpsender.edit.mxt 0 /tojose;#P hidden newex 1329 277 98 196617 udpsender /toserge;#P bpatcher 1069 276 257 63 0 0 udpsender.edit.mxt 0 /toserge;#P hidden newex 1328 211 125 196617 udpsender /toemmanuelle;#P bpatcher 1068 210 257 63 0 0 udpsender.edit.mxt 0 /toemmanuelle;#P hidden newex 1327 144 105 196617 udpsender /tomelody;#P bpatcher 1067 143 257 63 0 0 udpsender.edit.mxt 0 /tomelody;#P hidden newex 1326 78 102 196617 udpsender /tomagali;#P bpatcher 1066 77 257 63 0 0 udpsender.edit.mxt 0 /tomagali;#P hidden newex 1325 12 96 196617 udpsender /tomanu;#P bpatcher 1065 11 257 63 0 0 udpsender.edit.mxt 0 /tomanu;#P hidden newex 779 693 93 196617 udpsender /tolight;#P bpatcher 520 1 256 187 0 0 iz.edit.mxt 0 /k;#P hidden newex 807 138 32 196617 iz /k;#P bpatcher 780 563 255 122 0 0 s_analyz.edit.mxt 0 /sensor/16;#P bpatcher 780 439 255 122 0 0 s_analyz.edit.mxt 0 /sensor/15;#P bpatcher 780 315 255 122 0 0 s_analyz.edit.mxt 0 /sensor/14;#P bpatcher 780 191 255 122 0 0 s_analyz.edit.mxt 0 /sensor/13;#P bpatcher 519 563 255 122 0 0 s_analyz.edit.mxt 0 /sensor/12;#P bpatcher 519 439 255 122 0 0 s_analyz.edit.mxt 0 /sensor/11;#P bpatcher 519 315 255 122 0 0 s_analyz.edit.mxt 0 /sensor/10;#P bpatcher 519 191 255 122 0 0 s_analyz.edit.mxt 0 /sensor/9;#P hidden newex 966 1073 107 196617 s_analyz /sensor/16;#P hidden newex 966 1052 107 196617 s_analyz /sensor/15;#P hidden newex 966 1032 107 196617 s_analyz /sensor/14;#P hidden newex 966 1011 107 196617 s_analyz /sensor/13;#P hidden newex 855 1073 107 196617 s_analyz /sensor/12;#P hidden newex 855 1052 107 196617 s_analyz /sensor/11;#P hidden newex 855 1032 107 196617 s_analyz /sensor/10;#P hidden newex 855 1011 101 196617 s_analyz /sensor/9;#P hidden newex 747 1073 101 196617 s_analyz /sensor/8;#P hidden newex 747 1052 101 196617 s_analyz /sensor/7;#P bpatcher 262 563 255 122 0 0 s_analyz.edit.mxt 0 /sensor/8;#P bpatcher 262 439 255 122 0 0 s_analyz.edit.mxt 0 /sensor/7;#P hidden newex 636 1124 29 196617 thru;#P hidden newex 636 1197 93 196617 udpsender /tolight;#P hidden newex 683 1179 92 196617 udpsender /totape;#P hidden newex 737 1161 100 196617 udpsender /tomovie;#P bpatcher 519 818 257 63 0 0 udpsender.edit.mxt 0 /tolight;#P bpatcher 519 755 257 63 0 0 udpsender.edit.mxt 0 /totape;#P bpatcher 519 692 257 63 0 0 udpsender.edit.mxt 0 /tomovie;#N vpatcher 207 144 1276 577;#P window setfont "Sans Serif" 9.;#P window linecount 1;#P newex 22 366 66 196617 s /sensor/1;#P newex 50 348 66 196617 s /sensor/2;#P newex 78 330 66 196617 s /sensor/3;#P newex 106 312 66 196617 s /sensor/4;#P newex 134 294 66 196617 s /sensor/5;#P newex 162 276 66 196617 s /sensor/6;#P newex 190 258 66 196617 s /sensor/7;#P window linecount 0;#P newex 218 240 66 196617 s /sensor/8;#P newex 22 195 238 196617 route /sensor/1 /sensor/2 /sensor/3 /sensor/4 /sensor/5 /sensor/6 /sensor/7 /sensor/8;#P newex 22 167 119 196617 r /sensorReplayer/data;#P newex 24 133 95 196617 s /sensorRecorder;#P newex 24 100 29 196617 thru;#P window linecount 1;#P newex 709 61 96 196617 prepend /sensor/8;#P newex 709 38 66 196617 r /sensor/8;#P newex 613 61 96 196617 prepend /sensor/7;#P newex 613 38 66 196617 r /sensor/7;#P newex 517 61 96 196617 prepend /sensor/6;#P newex 517 38 66 196617 r /sensor/6;#P newex 421 61 96 196617 prepend /sensor/5;#P newex 421 38 66 196617 r /sensor/5;#P newex 324 61 96 196617 prepend /sensor/4;#P newex 324 38 66 196617 r /sensor/4;#P newex 227 61 96 196617 prepend /sensor/3;#P newex 227 38 66 196617 r /sensor/3;#P newex 126 61 96 196617 prepend /sensor/2;#P newex 126 38 66 196617 r /sensor/2;#P newex 24 61 96 196617 prepend /sensor/1;#P window linecount 0;#P newex 24 38 66 196617 r /sensor/1;#P connect 18 0 19 0;#P connect 19 0 27 0;#P connect 0 0 1 0;#P fasten 15 0 16 0 714 89 29 89;#P fasten 13 0 16 0 618 89 29 89;#P fasten 11 0 16 0 522 89 29 89;#P fasten 9 0 16 0 426 89 29 89;#P fasten 7 0 16 0 329 89 29 89;#P fasten 5 0 16 0 232 89 29 89;#P fasten 3 0 16 0 131 89 29 89;#P fasten 1 0 16 0 29 89 29 89;#P connect 16 0 17 0;#P connect 19 1 26 0;#P connect 19 2 25 0;#P connect 19 3 24 0;#P connect 2 0 3 0;#P connect 19 4 23 0;#P connect 19 5 22 0;#P connect 19 6 21 0;#P connect 19 7 20 0;#P connect 4 0 5 0;#P connect 6 0 7 0;#P connect 8 0 9 0;#P connect 10 0 11 0;#P connect 12 0 13 0;#P connect 14 0 15 0;#P pop;#P hidden newobj 853 1230 48 196617 p parser;#P hidden newex 375 136 35 196617 iz /iz;#P bpatcher 1 1 256 187 0 0 iz.edit.mxt 0 /iz;#P hidden newex 855 1202 139 196617 s_replayer /sensorReplayer;#P bpatcher 258 691 255 124 0 0 s_replayer.edit.mxt 0 /sensorReplayer;#P hidden newex 855 1182 141 196617 s_recorder /sensorRecorder;#P bpatcher 0 691 255 124 0 0 s_recorder.edit.mxt 0 /sensorRecorder;#P hidden newex 747 1032 101 196617 s_analyz /sensor/6;#P hidden newex 747 1011 101 196617 s_analyz /sensor/5;#P hidden newex 636 1073 101 196617 s_analyz /sensor/4;#P hidden newex 636 1052 101 196617 s_analyz /sensor/3;#P hidden newex 636 1032 101 196617 s_analyz /sensor/2;#P hidden newex 275 105 101 196617 s_analyz /sensor/1;#P bpatcher 262 315 255 122 0 0 s_analyz.edit.mxt 0 /sensor/6;#P bpatcher 262 191 255 122 0 0 s_analyz.edit.mxt 0 /sensor/5;#P bpatcher 1 563 255 122 0 0 s_analyz.edit.mxt 0 /sensor/4;#P bpatcher 1 439 255 122 0 0 s_analyz.edit.mxt 0 /sensor/3;#P bpatcher 1 315 255 122 0 0 s_analyz.edit.mxt 0 /sensor/2;#P bpatcher 1 191 255 122 0 0 s_analyz.edit.mxt 0 /sensor/1;#P hidden newex 1076 1112 88 196617 bgcolor 64 64 64;#N thispatcher;#Q end;#P hidden newobj 880 1137 61 196617 thispatcher;#P hidden newex 880 1116 92 196617 r /sensors/editor;#P window linecount 12;#P comment 905 23 100 196617 192.168.20.21 : Emmanuelle 192.168.20.22 : Magali 192.168.20.23 : Mélody 192.168.20.24 : Serge 192.168.20.25 : Emmanuel 192.168.20.26 : José Miguel;#P hidden fasten 10 0 29 0 280 1100 641 1100;#P hidden fasten 11 0 29 0 641 1123 641 1123;#P hidden fasten 12 0 29 0 641 1096 641 1096;#P hidden fasten 13 0 29 0 641 1107 641 1107;#P hidden fasten 14 0 29 0 752 1100 641 1100;#P hidden fasten 15 0 29 0 752 1123 641 1123;#P hidden fasten 32 0 29 0 752 1096 641 1096;#P hidden fasten 33 0 29 0 752 1107 641 1107;#P hidden fasten 34 0 29 0 860 1100 641 1100;#P hidden fasten 35 0 29 0 860 1123 641 1123;#P hidden fasten 36 0 29 0 860 1096 641 1096;#P hidden fasten 37 0 29 0 860 1107 641 1107;#P hidden fasten 38 0 29 0 971 1100 641 1100;#P hidden fasten 39 0 29 0 971 1103 641 1103;#P hidden fasten 40 0 29 0 971 1096 641 1096;#P hidden fasten 41 0 29 0 971 1107 641 1107;#P hidden connect 29 0 28 0;#P hidden connect 29 0 27 0;#P hidden connect 29 0 26 0;#P hidden connect 1 0 2 0;#P hidden connect 29 0 65 0;#P hidden connect 65 0 54 0;#P hidden connect 65 0 56 0;#P hidden connect 65 0 58 0;#P hidden connect 65 0 60 0;#P hidden connect 65 0 62 0;#P hidden connect 65 0 64 0;#P pop;#P newobj 21 206 48 196617 p sensor;#N vpatcher 69 392 1211 758;#P origin 15 0;#P window setfont "Sans Serif" 9.;#P window linecount 0;#P comment 887 110 74 196617 net;#P window linecount 2;#P message 887 257 72 196617 \; net-open bang;#P button 887 235 15 0;#P window linecount 1;#P newex 887 123 101 196617 r co_shortcut-keyin;#B color 11;#P newex 887 210 27 196617 sel;#P number 904 188 35 9 0 0 0 3 0 0 0 221 221 221 222 222 222 0 0 0;#P newex 904 168 40 196617 atoi;#P window linecount 0;#P comment 777 113 74 196617 videocam;#P window linecount 2;#P message 777 260 105 196617 \; videocams-open bang;#P button 777 238 15 0;#P window linecount 1;#P newex 777 126 101 196617 r co_shortcut-keyin;#B color 11;#P newex 777 213 27 196617 sel;#P number 794 191 35 9 0 0 0 3 0 0 0 221 221 221 222 222 222 0 0 0;#P newex 794 171 40 196617 atoi;#P comment 665 113 74 196617 viscam;#P window linecount 2;#P message 665 260 90 196617 \; viscam-open bang;#P button 665 238 15 0;#P window linecount 1;#P newex 665 126 101 196617 r co_shortcut-keyin;#B color 11;#P newex 665 213 27 196617 sel;#P number 682 191 35 9 0 0 0 3 0 0 0 221 221 221 222 222 222 0 0 0;#P newex 682 171 40 196617 atoi;#P comment 561 114 74 196617 lanbox;#P window linecount 2;#P message 561 261 87 196617 \; lanbox-open bang;#P button 561 239 15 0;#P window linecount 1;#P newex 561 127 101 196617 r co_shortcut-keyin;#B color 11;#P newex 561 214 27 196617 sel;#P number 578 192 35 9 0 0 0 3 0 0 0 221 221 221 222 222 222 0 0 0;#P newex 578 172 40 196617 atoi;#P window linecount 0;#P comment 452 113 74 196617 sensors;#P window linecount 2;#P message 452 260 93 196617 \; sensors-open bang;#P button 452 238 15 0;#P window linecount 1;#P newex 452 126 101 196617 r co_shortcut-keyin;#B color 11;#P newex 452 213 27 196617 sel;#P number 469 191 35 9 0 0 0 3 0 0 0 221 221 221 222 222 222 0 0 0;#P newex 469 171 40 196617 atoi;#P comment 342 114 74 196617 osc;#P window linecount 2;#P message 342 261 73 196617 \; osc-open bang;#P button 342 239 15 0;#P window linecount 1;#P newex 342 127 101 196617 r co_shortcut-keyin;#B color 11;#P newex 342 214 27 196617 sel;#P number 359 192 35 9 0 0 0 3 0 0 0 221 221 221 222 222 222 0 0 0;#P newex 359 172 40 196617 atoi;#P comment 213 115 74 196617 conduiteconfig;#P window linecount 2;#P message 213 262 122 196617 \; conduiteconfig-open bang;#P button 213 240 15 0;#P window linecount 1;#P newex 213 128 101 196617 r co_shortcut-keyin;#B color 11;#P newex 213 215 27 196617 sel;#P number 230 193 35 9 0 0 0 3 0 0 0 221 221 221 222 222 222 0 0 0;#P newex 230 173 40 196617 atoi;#P comment 1261 109 41 196617 mtrx;#P window linecount 3;#P message 1261 256 68 196617 \; mtrx-open bang;#P button 1261 234 15 0;#P newex 1261 122 58 196617 r t_shortcut-keyin;#B color 11;#P window linecount 1;#P newex 1261 209 27 196617 sel;#P number 1278 187 35 9 0 0 0 3 0 0 0 221 221 221 222 222 222 0 0 0;#P newex 1278 167 40 196617 atoi;#P comment 1200 109 67 196617 camtrkclient;#P window linecount 3;#P message 1200 256 68 196617 \; camtrkclient-open bang;#P button 1200 234 15 0;#P newex 1200 122 58 196617 r t_shortcut-keyin;#B color 11;#P window linecount 1;#P newex 1200 209 27 196617 sel;#P number 1217 187 35 9 0 0 0 3 0 0 0 221 221 221 222 222 222 0 0 0;#P newex 1217 167 40 196617 atoi;#P comment 1140 109 44 196617 patches;#P window linecount 3;#P message 1140 256 54 196617 \; dsp-open bang;#P button 1140 234 15 0;#P newex 1140 122 58 196617 r t_shortcut-keyin;#B color 11;#P window linecount 1;#P newex 1140 209 27 196617 sel;#P number 1157 187 35 9 0 0 0 3 0 0 0 221 221 221 222 222 222 0 0 0;#P newex 1157 167 40 196617 atoi;#P comment 108 115 60 196617 event;#P comment 1 115 47 196617 conduite;#P window linecount 2;#P message 108 262 83 196617 \; event-open bang;#P button 108 240 15 0;#P window linecount 1;#P newex 108 128 101 196617 r co_shortcut-keyin;#B color 11;#P newex 108 215 27 196617 sel;#P number 125 193 35 9 0 0 0 3 0 0 0 221 221 221 222 222 222 0 0 0;#P newex 125 173 40 196617 atoi;#P window linecount 2;#P message 1 262 95 196617 \; conduite-open bang;#P button 1 240 15 0;#P window linecount 1;#P newex 1 128 101 196617 r co_shortcut-keyin;#B color 11;#P number 91 48 35 9 0 0 0 3 0 0 0 221 221 221 222 222 222 0 0 0;#P newex 91 67 101 196617 s co_shortcut-keyin;#B color 11;#P newex 91 27 40 196617 key;#P newex 1 215 27 196617 sel;#P number 18 193 35 9 0 0 0 3 0 0 0 221 221 221 222 222 222 0 0 0;#P newex 18 173 40 196617 atoi;#P newex 1 90 359 196617 route conduite event conduiteconfig osc sensors lanbox viscam videocams net;#P newex 1 65 72 196617 r co_shortcut;#B color 11;#P comment 146 31 561 196617 main audioconfig tests adc events conduite iometers fxmeters source sf samp filt del harm rev patches dsp camtrkclient;#P connect 1 0 2 0;#P connect 9 0 5 0;#P connect 5 0 10 0;#P connect 10 0 11 0;#P connect 2 0 3 0;#P connect 3 0 4 0;#P connect 4 0 5 1;#P connect 6 0 8 0;#P connect 8 0 7 0;#P connect 15 0 14 0;#P connect 14 0 16 0;#P connect 16 0 17 0;#P connect 2 1 12 0;#P connect 12 0 13 0;#P connect 13 0 14 1;#P connect 44 0 43 0;#P connect 43 0 45 0;#P connect 45 0 46 0;#P connect 2 2 41 0;#P connect 41 0 42 0;#P connect 42 0 43 1;#P connect 51 0 50 0;#P connect 50 0 52 0;#P connect 52 0 53 0;#P connect 2 3 48 0;#P connect 48 0 49 0;#P connect 49 0 50 1;#P connect 58 0 57 0;#P connect 57 0 59 0;#P connect 59 0 60 0;#P connect 2 4 55 0;#P connect 55 0 56 0;#P connect 56 0 57 1;#P connect 65 0 64 0;#P connect 64 0 66 0;#P connect 66 0 67 0;#P connect 2 5 62 0;#P connect 62 0 63 0;#P connect 63 0 64 1;#P connect 72 0 71 0;#P connect 71 0 73 0;#P connect 73 0 74 0;#P connect 2 6 69 0;#P connect 69 0 70 0;#P connect 70 0 71 1;#P connect 79 0 78 0;#P connect 78 0 80 0;#P connect 80 0 81 0;#P connect 2 7 76 0;#P connect 76 0 77 0;#P connect 77 0 78 1;#P connect 86 0 85 0;#P connect 85 0 87 0;#P connect 87 0 88 0;#P connect 2 8 83 0;#P connect 83 0 84 0;#P connect 84 0 85 1;#P connect 23 0 22 0;#P connect 22 0 24 0;#P connect 24 0 25 0;#P connect 20 0 21 0;#P connect 21 0 22 1;#P connect 30 0 29 0;#P connect 29 0 31 0;#P connect 31 0 32 0;#P connect 27 0 28 0;#P connect 28 0 29 1;#P connect 37 0 36 0;#P connect 36 0 38 0;#P connect 38 0 39 0;#P connect 34 0 35 0;#P connect 35 0 36 1;#P pop;#P newobj 21 159 77 196617 p co_shortcuts;#B color 6;#P window setfont "Sans Serif" 12.;#N vpatcher 131 646 599 774;#P origin -120 -27;#P window setfont "Sans Serif" 20.;#P window linecount 1;#P comment 278 67 139 196628 VISCA Server;#P window setfont "Sans Serif" 9.;#P comment 264 52 180 196617 <- choose the client IP;#N vpatcher 10 59 247 232;#P button 99 84 15 0;#P outlet 7 126 15 0;#P inlet 15 50 15 0;#P window setfont "Sans Serif" 9.;#P newex 8 94 67 196617 prepend host;#P newex 121 83 62 196617 prepend set;#P newex 114 51 54 196617 route text;#P newex 50 50 50 196617 loadbang;#P inlet 114 31 15 0;#P outlet 98 127 15 0;#P connect 5 0 7 0;#P connect 6 0 5 0;#P connect 2 0 0 0;#P connect 4 0 0 0;#P connect 8 0 0 0;#P connect 3 0 8 0;#P connect 1 0 3 0;#P connect 3 0 4 0;#P pop;#P hidden newobj 38 50 13 196617 p;#P user textedit 131 50 259 69 32896 3 9 192.168.1.2;#P message 50 51 81 196617 192.168.1.2;#P message 22 33 64 196617 open server;#P newex 22 75 75 196617 VISCA_server;#P comment 87 32 289 196617 <- to configure your serial port;#P user panel 18 26 425 71;#X brgb 191 191 191;#X frgb 0 0 0;#X border 1;#X rounded 0;#X shadow 0;#X done;#P window linecount 0;#P hidden newex 158 679 113 196617 r /cam_control/editor;#B color 12;#N thispatcher;#Q end;#P hidden newobj 338 683 61 196617 thispatcher;#P connect 5 0 4 0;#P hidden connect 6 0 8 0;#P hidden connect 7 0 8 1;#P hidden connect 8 1 6 0;#P hidden fasten 8 0 4 1 43 71 92 71;#P hidden connect 1 0 0 0;#P pop;#P newobj 21 77 97 196620 p cam_control;#B color 6;#N vpatcher 470 617 805 814;#P origin -14 -69;#P window setfont "Sans Serif" 9.;#P hidden newex 264 21 88 196617 bgcolor 64 64 64;#P hidden newex 526 78 122 196617 r videocams_system-sw;#P user jit.fpsgui 526 154 60 196617 0;#N thispatcher;#Q end;#P hidden newobj 111 183 61 196617 thispatcher;#P hidden newex 111 160 104 196617 r /videocams/editor;#P toggle 526 102 15 0;#P window setfont "Sans Serif" 14.;#N vpatcher 72 258 358 534;#P origin 19 -49;#P window setfont "Sans Serif" 9.;#P hidden newex 104 63 52 196617 registers;#P outlet 1 154 15 0;#P inlet 1 48 15 0;#P newex 55 147 118 196617 m_jnetsend /videocams;#P newex 1 69 57 196617 qmetro 40;#P newex 1 100 119 196617 m_grab /cam1 640 480;#P connect 3 0 1 0;#P fasten 1 0 0 0 6 93 6 93;#P connect 0 0 4 0;#P connect 0 0 2 0;#P pop;#P newobj 526 124 65 196622 p motor;#B color 6;#P bpatcher 1 100 256 62 0 0 m_jnetsend.edit.mxt 0 /videocams;#P bpatcher 1 35 256 62 0 0 m_grab.edit.mxt 0 /cam1;#P hidden connect 4 0 5 0;#P hidden connect 7 0 3 0;#P connect 3 0 2 0;#P connect 2 0 6 0;#P pop;#P newobj 21 50 97 196620 p videocams;#B color 6;#P hidden connect 6 0 4 1;#P pop;#P newobj 7 199 80 196622 p patches;#B color 6;#P bpatcher 5 99 92 22 0 0 openbutton.mxt 0 sensors "open sensor editors page" 92;#P window setfont "Sans Serif" 9.;#P window linecount 2;#P message 6 226 83 196617 \; storetemp bang \;;#P window linecount 1;#N thispatcher;#Q end;#P hidden newobj 251 309 61 196617 thispatcher;#P hidden newex 251 285 49 196617 r server;#P bpatcher 5 51 92 23 0 0 openbutton.mxt 0 cam_control "open viscam editor page" 92;#P bpatcher 5 26 92 23 0 0 openbutton.mxt 0 videocams "open videocams editor page" 92;#P hidden connect 2 0 3 0;#P hidden connect 15 0 16 0;#P hidden connect 18 0 13 0;#P hidden connect 15 0 17 0;#P hidden connect 17 0 18 0;#P pop;