max v2;#N vpatcher 20 74 472 349;#P window setfont "Sans Serif" 9.;#P window linecount 1;#P message 19 110 175 196617 $2 \$1;#P newex 238 113 100 196617 r /dlight/midi/type;#P number 19 87 172 9 0 127 3 3 0 0 0 221 221 221 222 222 222 0 0 0;#P newex 19 154 59 196617 noteout $3;#P newex 19 48 31 196617 r $1;#P connect 0 0 2 0;#P connect 2 0 4 0;#P connect 3 0 1 0;#P connect 4 0 1 0;#P pop;