max v2;#N vpatcher 83 290 1376 723;#P window setfont "Sans Serif" 9.;#P newex 1141 185 96 196617 sprintf nsub %s 10;#P newex 1141 206 38 196617 zl join;#P newex 1141 141 51 196617 zl slice 1;#P newex 1141 120 105 196617 r $1/prepend;#B color 11;#P outlet 50 374 15 0;#P window setfont "Sans Serif" 12.;#P window linecount 4;#P comment 162 256 121 196620 <- all multiple mappings of single controller stored here.;#B frgb 255 0 0;#P window setfont "Sans Serif" 9.;#P window linecount 1;#P newex 84 92 21 196617 t 1;#P toggle 50 161 15 0;#P newex 50 181 29 196617 gate;#P newex 1034 185 96 196617 sprintf nsub %s 10;#P newex 1034 206 38 196617 zl join;#P newex 1062 163 51 196617 zl slice 1;#P newex 1034 141 51 196617 zl slice 1;#P newex 1034 120 103 196617 r $1/offsetv;#B color 11;#P newex 928 185 90 196617 sprintf nsub %s 9;#P newex 928 206 38 196617 zl join;#P newex 956 163 51 196617 zl slice 1;#P newex 928 141 51 196617 zl slice 1;#P newex 928 120 102 196617 r $1/offseth;#B color 11;#P newex 833 185 90 196617 sprintf nsub %s 8;#P newex 833 206 38 196617 zl join;#P newex 861 163 51 196617 zl slice 1;#P newex 833 141 51 196617 zl slice 1;#P newex 833 120 91 196617 r $1/flipv;#B color 11;#P newex 739 185 90 196617 sprintf nsub %s 7;#P newex 739 206 38 196617 zl join;#P newex 767 163 51 196617 zl slice 1;#P newex 739 141 51 196617 zl slice 1;#P newex 739 120 90 196617 r $1/fliph;#B color 11;#P newex 640 185 90 196617 sprintf nsub %s 6;#P newex 640 206 38 196617 zl join;#P newex 668 163 51 196617 zl slice 1;#P newex 640 141 51 196617 zl slice 1;#P newex 640 120 96 196617 r $1/curve;#B color 11;#P comment 302 83 565 196617 params : [type (norm \, sym \, updwn)] [curve (-1. to 1.)] [fliph (0-1)] [flipv (0-1)] [offseth (-1. to 1.)] [offsetv (-1. to 1.)];#P newex 547 185 90 196617 sprintf nsub %s 5;#P newex 547 206 38 196617 zl join;#P newex 575 163 51 196617 zl slice 1;#P newex 547 141 51 196617 zl slice 1;#P newex 547 120 90 196617 r $1/type;#B color 11;#P newex 454 185 90 196617 sprintf nsub %s 4;#P newex 454 206 38 196617 zl join;#P newex 482 163 51 196617 zl slice 1;#P newex 454 141 51 196617 zl slice 1;#P newex 454 120 90 196617 r $1/out2;#B color 11;#P newex 361 185 90 196617 sprintf nsub %s 3;#P newex 361 206 38 196617 zl join;#P newex 389 163 51 196617 zl slice 1;#P newex 361 141 51 196617 zl slice 1;#P newex 361 120 90 196617 r $1/out1;#B color 11;#P newex 268 185 90 196617 sprintf nsub %s 2;#P newex 268 206 38 196617 zl join;#P newex 296 163 51 196617 zl slice 1;#P newex 268 141 51 196617 zl slice 1;#P newex 268 120 84 196617 r $1/in2;#B color 11;#P newex 175 185 90 196617 sprintf nsub %s 1;#P newex 175 206 38 196617 zl join;#P newex 203 163 51 196617 zl slice 1;#P newex 175 141 51 196617 zl slice 1;#P newex 175 120 84 196617 r $1/in1;#B color 11;#P newex 86 162 49 196617 t 0 clear;#P button 86 143 15 0;#P newex 86 120 85 196617 r $1/init;#B color 11;#P newex 144 74 72 196617 prepend store;#P newex 144 50 31 196617 r $1;#B color 11;#P newex 50 348 44 196617 zl rot 1;#P newex 50 327 86 196617 zl join;#P newex 50 305 38 196617 zl join;#P newex 64 280 51 196617 zl slice 1;#N coll $1/data 1;#P newobj 50 257 116 196617 coll $1/data 1;#B color 5;#P newex 50 215 40 196617 t dump;#P inlet 69 36 15 0;#P connect 65 0 64 0;#P connect 11 0 64 0;#P connect 64 0 63 0;#P connect 63 0 1 0;#P connect 8 0 2 0;#P connect 11 1 2 0;#P connect 35 0 2 0;#P connect 30 0 2 0;#P connect 25 0 2 0;#P connect 20 0 2 0;#P connect 15 0 2 0;#P connect 1 0 2 0;#P connect 41 0 2 0;#P connect 46 0 2 0;#P connect 51 0 2 0;#P connect 56 0 2 0;#P connect 61 0 2 0;#P connect 70 0 2 0;#P connect 2 0 4 0;#P connect 4 0 5 0;#P connect 5 0 6 0;#P connect 6 0 67 0;#P connect 2 1 3 0;#P connect 0 0 63 1;#P connect 3 1 4 1;#P connect 8 0 65 0;#P connect 9 0 10 0;#P connect 10 0 11 0;#P fasten 63 0 5 1 55 206 131 206;#P connect 7 0 8 0;#P connect 12 0 13 0;#P connect 13 0 16 0;#P connect 16 0 15 0;#P connect 13 1 14 0;#P connect 14 0 15 1;#P connect 17 0 18 0;#P connect 18 0 21 0;#P connect 21 0 20 0;#P connect 18 1 19 0;#P connect 19 0 20 1;#P connect 22 0 23 0;#P connect 23 0 26 0;#P connect 26 0 25 0;#P connect 23 1 24 0;#P connect 24 0 25 1;#P connect 27 0 28 0;#P connect 28 0 31 0;#P connect 31 0 30 0;#P connect 28 1 29 0;#P connect 29 0 30 1;#P connect 32 0 33 0;#P connect 33 0 36 0;#P connect 36 0 35 0;#P connect 33 1 34 0;#P connect 34 0 35 1;#P connect 38 0 39 0;#P connect 39 0 42 0;#P connect 42 0 41 0;#P connect 39 1 40 0;#P connect 40 0 41 1;#P connect 43 0 44 0;#P connect 44 0 47 0;#P connect 47 0 46 0;#P connect 44 1 45 0;#P connect 45 0 46 1;#P connect 48 0 49 0;#P connect 49 0 52 0;#P connect 52 0 51 0;#P connect 49 1 50 0;#P connect 50 0 51 1;#P connect 53 0 54 0;#P connect 54 0 57 0;#P connect 57 0 56 0;#P connect 54 1 55 0;#P connect 55 0 56 1;#P connect 58 0 59 0;#P connect 59 0 62 0;#P connect 62 0 61 0;#P connect 59 1 60 0;#P connect 60 0 61 1;#P connect 68 0 69 0;#P connect 69 0 71 0;#P connect 71 0 70 0;#P connect 69 1 70 1;#P pop;