max v2;#N vpatcher 66 166 1396 469;#P origin 1903 40;#P window setfont "Sans Serif" 9.;#P window linecount 1;#P newex 1010 91 228 196617 tm_editorbuilder /events /tapemovie 4 2 2 500;#B color 6;#P button 1023 64 15 0;#P comment 1041 64 39 196617 delete;#P button 1010 43 15 0;#P comment 1027 43 31 196617 build;#N thispatcher;#Q end;#P newobj 1010 113 61 196617 thispatcher;#P window linecount 0;#P comment 1 868 100 196617;#P connect 3 0 6 0;#P connect 6 0 1 0;#P fasten 5 0 6 1 1028 85 1124 85;#P fasten 1 0 6 2 1015 135 1253 135 1253 87 1233 87;#P pop;