max v2;#N vpatcher 266 211 959 523;#P origin -8 -45;#P window setfont "Sans Serif" 9.;#P hidden newex 282 109 70 196617 pvar activity;#P hidden newex 282 83 145 196617 r $1/activity;#B color 5;#P window setfont Times 9.;#P comment 201 36 40 1310729 activity;#P button 237 35 15 0;#P objectname activity;#P window setfont "Sans Serif" 9.;#P number 67 32 41 9 9000 9999 3 3 0 0 0 221 221 221 222 222 222 0 0 0;#P objectname port;#P hidden newex 19 140 219 196617 variedit $1/port $1;#B color 12;#P hidden newex 19 163 53 196617 pvar port;#P comment 41 33 29 196617 port;#P bpatcher 0 0 257 63 0 0 bkgnd.mxt 0 $1 1 3;#P objectname background;#N vpatcher 557 214 1087 763;#P origin 8 40;#P window setfont "Sans Serif" 9.;#P window linecount 1;#P hidden newex 602 170 40 196617 t front;#P hidden newex 633 92 21 196617 t 2;#P hidden newex 602 143 32 196617 sel 1;#P window linecount 0;#P hidden newex 602 117 40 196617 change;#P hidden newex 602 92 24 196617 t 1;#P window linecount 1;#P hidden newex 602 50 93 196617 r $1/more/editor;#B color 12;#N thispatcher;#Q end;#P hidden newobj 602 195 70 196617 thispatcher;#P bpatcher 0 470 512 62 0 0 multimapsend.edit.mxt 1 $1/2/map 3;#P bpatcher 0 406 512 62 0 0 multimapsend.edit.mxt 1 $1/1/map 3;#P bpatcher 0 341 512 62 0 0 multimapsend.edit.mxt 1 $1/rot/z/map 3;#P bpatcher 0 277 512 62 0 0 multimapsend.edit.mxt 1 $1/rot/y/map 3;#P bpatcher 0 213 512 62 0 0 multimapsend.edit.mxt 1 $1/rot/x/map 3;#P bpatcher 0 149 512 62 0 0 multimapsend.edit.mxt 1 $1/trans/z/map 3;#P bpatcher 0 85 512 62 0 0 multimapsend.edit.mxt 1 $1/trans/y/map 3;#P bpatcher 0 21 512 62 0 0 multimapsend.edit.mxt 1 $1/trans/x/map 3;#P window setfont "Sans Serif" 14.;#P window linecount 0;#P comment 0 1 254 196622 $1/map;#P hidden connect 10 0 11 0;#P hidden connect 14 0 12 0;#P hidden connect 11 0 12 0;#P hidden connect 12 0 13 0;#P hidden connect 13 0 15 0;#P hidden connect 15 0 9 0;#P hidden connect 10 0 14 0;#P pop;#P hidden newobj 142 167 66 196617 p spacenmap;#P hidden connect 3 0 4 0;#P hidden connect 4 0 3 0;#P hidden connect 8 0 9 0;#P pop;