max v2;#N vpatcher 78 107 1341 636;#P origin 0 8;#P window setfont "Sans Serif" 9.;#P window linecount 1;#P newex 710 171 151 196617 moduleinit $1;#B color 13;#P newex 234 210 378 196617 makecontrol $1/2 $1 f 0 1 /common;#B color 13;#P newex 173 258 378 196617 makecontrol $1/1 $1 f 0 1 /common;#B color 13;#P newex 228 328 400 196617 makecontrol $1/rot/z $1 f 0 1 /common;#B color 13;#P newex 170 348 401 196617 makecontrol $1/rot/y $1 f 0 1 /common;#B color 13;#P newex 112 368 401 196617 makecontrol $1/rot/x $1 f 0 1 /common;#B color 13;#P newex 112 307 127 196617 unpack 0. 0. 0.;#P newex 62 151 153 196617 s $1/activity;#B color 5;#P newex 51 126 72 196617 OSC-route /1;#P newex 960 99 88 196617 sprintf set 1 /%i;#P newex 1056 100 43 196617 + 9100;#P newex 960 24 48 196617 loadbang;#P newex 1056 125 180 196617 s $1/port/initval;#B color 11;#P newex 960 64 50 196617 stripnum;#B color 11;#P message 960 44 21 196617 $1;#P window linecount 12;#P message 710 203 135 196617 \; $1/sw/init bang \; $1/port/init bang \; $1/trans/x/init bang \; $1/trans/y/init bang \; $1/trans/z/init bang \; $1/rot/x/init bang \; $1/rot/y/init bang \; $1/rot/z/init bang \; $1/1/init bang \; $1/2/init bang \; control_register/store $1 \;;#P window linecount 1;#P newex 298 81 254 196617 makeparam $1/port $1 i 9000 9000 9999;#B color 11;#P number 298 103 59 9 0 0 0 3 0 0 0 221 221 221 222 222 222 0 0 0;#P newex 51 77 29 196617 gate;#P toggle 298 52 15 0;#P newex 298 32 299 196617 makeswitch $1/sw $1 common_switchstate 0;#B color 11;#P newex 167 429 373 196617 makecontrol $1/trans/z $1 f 0 1 /common;#B color 13;#P newex 109 449 374 196617 makecontrol $1/trans/y $1 f 0 1 /common;#B color 13;#P newex 51 469 374 196617 makecontrol $1/trans/x $1 f 0 1 /common;#B color 13;#P newex 51 408 127 196617 unpack 0. 0. 0.;#P newex 51 175 257 196617 OSC-route /trans/xyz /rot/xyz /button/1 /button/2;#P newex 51 100 76 196617 OSC-route /sp;#P window linecount 2;#P comment 216 18 73 196617 <-- select receiving port;#P window linecount 1;#P newex 70 28 67 196617 prepend port;#P window setfont "Sans Serif" 18.;#P user ubumenu 140 17 75 196626 0 1 1 0;#X setrgb 31 31 31 75 255 149 234 234 234 4 4 4 141 141 141 112 112 112;#X add 9000;#X add 9001;#X add 9002;#X add 9003;#X add 9004;#X add 9005;#X add 9006;#X add 9007;#X add 9008;#X add 9009;#X prefix_set 0 0 <none> 0;#X pattrmode 1;#P window setfont "Sans Serif" 9.;#P newex 70 48 59 196617 udpreceive;#P comment 7 93 42 196617 all data;#P window setfont "Sans Serif" 18.;#P comment 901 251 197 196626 use with OSCulator;#P fasten 13 0 14 0 303 70 56 70;#P connect 14 0 6 0;#P fasten 23 0 24 0 965 122 56 122;#P connect 6 0 24 0;#P connect 24 0 7 0;#P connect 7 0 8 0;#P connect 8 0 9 0;#P connect 24 0 25 0;#P hidden connect 3 1 4 0;#P connect 15 0 4 0;#P connect 4 0 2 0;#P connect 2 0 14 1;#P connect 8 1 10 0;#P connect 7 1 26 0;#P connect 26 0 27 0;#P connect 8 2 11 0;#P connect 26 1 28 0;#P connect 7 2 30 0;#P connect 26 2 29 0;#P connect 7 3 31 0;#P connect 12 0 13 0;#P connect 16 0 15 0;#P connect 32 0 17 0;#P connect 21 0 18 0;#P connect 18 0 19 0;#P connect 19 0 23 0;#P fasten 19 0 22 0 965 90 1061 90;#P connect 22 0 20 0;#P pop;