max v2;#N vpatcher 220 86 804 214;#P origin -1 -1;#P window setfont "Sans Serif" 9.;#P window linecount 1;#P newex 1087 101 207 196617 tm_editorbuilder /spacen /tapemovie 1 1 4;#B color 6;#P button 1100 74 15 0;#P comment 1118 74 39 196617 delete;#P button 1087 53 15 0;#P comment 1104 53 31 196617 build;#N thispatcher;#Q end;#P newobj 1087 123 61 196617 thispatcher;#P window linecount 0;#P comment 2377 1 100 196617;#P comment 2 1 100 196617;#P connect 4 0 7 0;#P connect 7 0 2 0;#P fasten 6 0 7 1 1105 95 1190 95;#P fasten 2 0 7 2 1092 145 1324 145 1324 97 1288 97;#P pop;