max v2;#N vpatcher 161 80 685 808;#P window setfont "Sans Serif" 9.;#P window linecount 1;#P newex 1060 142 245 196617 tm_editorbuilder /kroonde /tapemovie 11 2 2;#B color 6;#P button 1073 115 15 0;#P comment 1091 115 39 196617 delete;#P button 1060 94 15 0;#P comment 1077 94 31 196617 build;#N thispatcher;#Q end;#P newobj 1060 164 61 196617 thispatcher;#P window linecount 0;#P comment 2384 1 100 196617;#P comment 9 1 100 196617;#P connect 4 0 7 0;#P connect 7 0 2 0;#P fasten 6 0 7 1 1078 136 1182 136;#P fasten 2 0 7 2 1065 186 1322 186 1322 138 1299 138;#P pop;