max v2;#N vpatcher 10 59 610 459;#P window setfont "Sans Serif" 9.;#P window linecount 1;#P newex 154 256 75 196617 shadow canal5;#P newex 142 224 75 196617 shadow canal4;#P newex 130 192 75 196617 shadow canal3;#P newex 118 160 75 196617 shadow canal2;#P newex 106 128 75 196617 shadow canal1;#N vpatcher 30 89 524 558;#P button 76 140 15 0;#P button 51 140 15 0;#P window setfont "Sans Serif" 9.;#P window linecount 1;#P newex 51 162 52 196617 s $1/init;#B color 12;#P newex 67 368 82 196617 unpack 0 0 0;#P number 139 390 35 9 0 0 0 3 0 0 0 221 221 221 222 222 222 0 0 0;#P newex 54 287 68 196617 metro 1000;#P message 54 325 34 196617 time;#P button 54 307 15 0;#P newex 82 50 95 196617 r /movie/drawcpu;#B color 12;#P newex 82 94 71 196617 s /cam.1/out;#B color 12;#P newex 82 72 98 196617 jit.qt.grab 640 480;#B color 5;#P message 50 50 30 196617 open;#P newex 52 346 40 196617 date;#B color 5;#P inlet 110 124 15 0;#P outlet 136 284 15 0;#P newex 130 200 30 196617 t b b;#B color 8;#P newex 129 225 103 196617 s /movie/drawafter;#B color 8;#P newex 226 208 95 196617 s /movie/drawgpu;#B color 8;#P newex 317 194 95 196617 s /movie/drawcpu;#B color 8;#P window linecount 0;#P newex 135 144 57 196617 qmetro 40;#P newex 135 166 284 196617 t b b b erase;#P newex 244 271 97 196617 jit.window movie.1;#B color 5;#P newex 135 260 104 196617 jit.gl.render movie.1;#B color 5;#P connect 21 0 11 0;#P connect 9 0 21 0;#P connect 22 0 20 0;#P connect 21 0 20 0;#P connect 16 0 10 0;#P connect 9 0 17 0;#P connect 17 0 15 0;#P connect 15 0 16 0;#P connect 10 1 19 0;#P connect 14 0 12 0;#P connect 11 0 12 0;#P connect 12 0 13 0;#P connect 7 1 6 0;#P connect 2 0 7 0;#P connect 9 0 3 0;#P connect 3 0 2 0;#P fasten 2 3 0 0 413 250 140 250;#P connect 7 0 0 0;#P connect 0 0 8 0;#P connect 19 2 18 0;#P connect 2 1 5 0;#P connect 2 2 4 0;#P pop;#P newobj 397 318 67 196617 p mini movie;#P toggle 397 293 15 0;#P user jit.fpsgui 397 345 60 196617 0;#P connect 1 0 2 0;#P connect 2 0 0 0;#P pop;