max v2;#N vpatcher 455 132 1039 668;#P origin 187 105;#P window setfont "Sans Serif" 9.;#P window linecount 1;#P newex 253 110 151 196617 moduleinit $1;#B color 13;#P number 202 393 35 9 0 0 0 3 0 0 0 221 221 221 222 222 222 0 0 0;#P number 166 370 35 9 0 0 0 3 0 0 0 221 221 221 222 222 222 0 0 0;#P number 158 310 35 9 0 0 0 3 0 0 0 221 221 221 222 222 222 0 0 0;#P newex 73 64 351 196617 makeparam $1/interface $1 s none;#B color 12;#P newex 72 411 99 196617 scale 0 16384 0. 1.;#P newex 72 437 351 196617 makecontrol $1/norm $1 common_switchstate;#B color 14;#P newex 73 162 29 196617 gate;#P newex 171 88 48 196617 loadbang;#B color 5;#P newex 144 266 310 196617 makeparam $1/channel $1 i 2 1 16 1;#B color 12;#P newex 72 387 37 196617 +;#P newex 99 366 27 196617 << 7;#P newex 72 343 64 196617 route 1 0;#P newex 127 286 27 196617 ==;#P newex 171 164 27 196617 + 4;#P newex 171 144 27 196617 * 2;#P newex 171 124 27 196617 - 1;#P message 171 107 14 196617 1;#P newex 72 322 40 196617 gate;#P newex 73 297 37 196617 pack;#P newex 100 247 78 196617 -;#P newex 73 271 37 196617 swap;#P newex 73 132 64 196617 ctlin;#P window linecount 5;#P message 253 133 200 196617 \; $1/sw/init bang \; $1/interface/init bang \; $1/channel/init bang \; $1/norm/init bang \;;#P window linecount 1;#P newex 54 42 351 196617 makeswitch $1/sw $1 common_switchstate;#B color 12;#P toggle 54 132 15 0;#P connect 1 0 0 0;#P fasten 12 0 7 0 132 318 77 318;#P lcolor 1;#P connect 7 0 13 0;#P connect 13 0 15 0;#P connect 15 0 20 0;#P connect 20 0 19 0;#P connect 21 0 3 0;#P connect 0 0 18 0;#P connect 18 0 4 0;#P connect 4 0 6 0;#P connect 3 0 18 1;#P connect 13 1 14 0;#P connect 14 0 15 1;#P connect 3 1 5 0;#P connect 5 0 4 1;#P connect 4 1 6 1;#P connect 6 0 7 1;#P lcolor 2;#P fasten 3 2 12 0 132 224 132 224;#P connect 16 0 12 1;#P connect 3 0 22 0;#P connect 20 0 23 0;#P fasten 11 0 5 1 176 179 173 179;#P connect 17 0 8 0;#P connect 8 0 9 0;#P connect 9 0 10 0;#P connect 10 0 11 0;#P connect 15 0 24 0;#P connect 25 0 2 0;#P pop;