{
	"patcher" : 	{
		"fileversion" : 1,
		"rect" : [ 583.0, 194.0, 605.0, 397.0 ],
		"bgcolor" : [ 0.956863, 0.956863, 0.956863, 1.0 ],
		"bglocked" : 0,
		"defrect" : [ 583.0, 194.0, 605.0, 397.0 ],
		"openrect" : [ 0.0, 0.0, 0.0, 0.0 ],
		"openinpresentation" : 0,
		"default_fontsize" : 12.0,
		"default_fontface" : 0,
		"default_fontname" : "Arial",
		"gridonopen" : 0,
		"gridsize" : [ 15.0, 15.0 ],
		"gridsnaponopen" : 0,
		"toolbarvisible" : 1,
		"boxanimatetime" : 200,
		"imprint" : 0,
		"enablehscroll" : 1,
		"enablevscroll" : 1,
		"boxes" : [ 			{
				"box" : 				{
					"maxclass" : "message",
					"text" : "#1",
					"fontsize" : 9.0,
					"numinlets" : 2,
					"patching_rect" : [ 125.0, 1.0, 115.0, 15.0 ],
					"id" : "obj-11",
					"numoutlets" : 1,
					"outlettype" : [ "" ],
					"fontname" : "Arial",
					"ignoreclick" : 1
				}

			}
, 			{
				"box" : 				{
					"maxclass" : "toggle",
					"varname" : "sw",
					"numinlets" : 1,
					"patching_rect" : [ 240.0, 1.0, 15.0, 15.0 ],
					"id" : "obj-54",
					"numoutlets" : 1,
					"outlettype" : [ "int" ]
				}

			}
, 			{
				"box" : 				{
					"maxclass" : "message",
					"text" : "255 255 255",
					"fontsize" : 9.0,
					"numinlets" : 2,
					"patching_rect" : [ 354.0, 323.0, 61.0, 15.0 ],
					"id" : "obj-47",
					"numoutlets" : 1,
					"outlettype" : [ "" ],
					"fontname" : "Arial"
				}

			}
, 			{
				"box" : 				{
					"maxclass" : "newobj",
					"text" : "colorchooser5 #3",
					"fontsize" : 9.0,
					"numinlets" : 1,
					"patching_rect" : [ 337.0, 300.0, 80.0, 17.0 ],
					"id" : "obj-1",
					"numoutlets" : 1,
					"outlettype" : [ "" ],
					"fontname" : "Arial",
					"color" : [ 1.0, 0.890196, 0.090196, 1.0 ]
				}

			}
, 			{
				"box" : 				{
					"maxclass" : "newobj",
					"text" : "bgcolor",
					"fontsize" : 9.0,
					"numinlets" : 4,
					"patching_rect" : [ 337.0, 345.0, 59.5, 17.0 ],
					"id" : "obj-2",
					"numoutlets" : 0,
					"fontname" : "Arial"
				}

			}
, 			{
				"box" : 				{
					"maxclass" : "newobj",
					"text" : "pvar sw",
					"fontsize" : 9.0,
					"numinlets" : 1,
					"patching_rect" : [ 292.0, 255.0, 52.0, 17.0 ],
					"id" : "obj-36",
					"numoutlets" : 1,
					"outlettype" : [ "" ],
					"fontname" : "Arial"
				}

			}
, 			{
				"box" : 				{
					"maxclass" : "newobj",
					"text" : "vari #1/sw",
					"fontsize" : 9.0,
					"numinlets" : 1,
					"patching_rect" : [ 292.0, 275.0, 64.0, 17.0 ],
					"id" : "obj-7",
					"numoutlets" : 2,
					"outlettype" : [ "", "" ],
					"fontname" : "Arial",
					"color" : [ 1.0, 0.890196, 0.090196, 1.0 ]
				}

			}
, 			{
				"box" : 				{
					"maxclass" : "comment",
					"text" : "bpat bkgnd = 256 X 62",
					"fontsize" : 9.0,
					"numinlets" : 1,
					"patching_rect" : [ 36.0, 74.0, 117.0, 17.0 ],
					"id" : "obj-3",
					"numoutlets" : 0,
					"fontname" : "Arial"
				}

			}
, 			{
				"box" : 				{
					"maxclass" : "comment",
					"text" : "arg 1 : prefix name;\rarg 2 : \"more\" button hide/show (0/1);\rarg 3 : color scheme choice (0 = movie, 1 = tape, 2 = camtrk, 3 = conduite)",
					"linecount" : 4,
					"fontsize" : 9.0,
					"numinlets" : 1,
					"patching_rect" : [ 39.0, 227.0, 187.0, 48.0 ],
					"id" : "obj-4",
					"numoutlets" : 0,
					"fontname" : "Arial"
				}

			}
, 			{
				"box" : 				{
					"maxclass" : "newobj",
					"text" : "t b",
					"fontsize" : 9.0,
					"numinlets" : 1,
					"patching_rect" : [ 318.0, 55.0, 18.0, 15.0 ],
					"id" : "obj-5",
					"numoutlets" : 1,
					"outlettype" : [ "bang" ],
					"fontname" : "Times Roman"
				}

			}
, 			{
				"box" : 				{
					"maxclass" : "comment",
					"text" : "init and module param register write",
					"fontsize" : 9.0,
					"numinlets" : 1,
					"patching_rect" : [ 373.0, 27.0, 176.0, 17.0 ],
					"id" : "obj-6",
					"numoutlets" : 0,
					"fontname" : "Arial"
				}

			}
, 			{
				"box" : 				{
					"maxclass" : "newobj",
					"text" : "s #1/more/editor",
					"fontsize" : 9.0,
					"numinlets" : 1,
					"patching_rect" : [ 462.0, 219.0, 112.0, 17.0 ],
					"id" : "obj-8",
					"numoutlets" : 0,
					"fontname" : "Arial",
					"color" : [ 0.6, 0.6, 1.0, 1.0 ]
				}

			}
, 			{
				"box" : 				{
					"maxclass" : "newobj",
					"text" : "loadbang",
					"fontsize" : 9.0,
					"numinlets" : 1,
					"patching_rect" : [ 462.0, 136.0, 48.0, 17.0 ],
					"id" : "obj-9",
					"numoutlets" : 1,
					"outlettype" : [ "bang" ],
					"fontname" : "Arial"
				}

			}
, 			{
				"box" : 				{
					"maxclass" : "message",
					"text" : "brgb 0 200 180",
					"fontsize" : 9.0,
					"numinlets" : 2,
					"patching_rect" : [ 462.0, 159.0, 81.0, 15.0 ],
					"id" : "obj-10",
					"numoutlets" : 1,
					"outlettype" : [ "" ],
					"fontname" : "Arial"
				}

			}
, 			{
				"box" : 				{
					"maxclass" : "newobj",
					"text" : "t front",
					"fontsize" : 9.0,
					"numinlets" : 1,
					"patching_rect" : [ 462.0, 197.0, 40.0, 17.0 ],
					"id" : "obj-12",
					"numoutlets" : 1,
					"outlettype" : [ "front" ],
					"fontname" : "Arial"
				}

			}
, 			{
				"box" : 				{
					"maxclass" : "newobj",
					"text" : "pvar more",
					"fontsize" : 9.0,
					"numinlets" : 1,
					"patching_rect" : [ 462.0, 177.0, 57.0, 17.0 ],
					"id" : "obj-13",
					"numoutlets" : 1,
					"outlettype" : [ "" ],
					"fontname" : "Arial"
				}

			}
, 			{
				"box" : 				{
					"maxclass" : "newobj",
					"text" : "loadbang",
					"fontsize" : 9.0,
					"numinlets" : 1,
					"patching_rect" : [ 323.0, 148.0, 48.0, 17.0 ],
					"id" : "obj-14",
					"numoutlets" : 1,
					"outlettype" : [ "bang" ],
					"fontname" : "Arial"
				}

			}
, 			{
				"box" : 				{
					"maxclass" : "newobj",
					"text" : "thispatcher",
					"fontsize" : 9.0,
					"numinlets" : 1,
					"patching_rect" : [ 276.0, 212.0, 61.0, 17.0 ],
					"id" : "obj-15",
					"numoutlets" : 2,
					"outlettype" : [ "", "" ],
					"fontname" : "Arial",
					"save" : [ "#N", "thispatcher", ";", "#Q", "end", ";" ]
				}

			}
, 			{
				"box" : 				{
					"maxclass" : "message",
					"text" : "script hide more",
					"fontsize" : 9.0,
					"numinlets" : 2,
					"patching_rect" : [ 366.0, 191.0, 84.0, 15.0 ],
					"id" : "obj-16",
					"numoutlets" : 1,
					"outlettype" : [ "" ],
					"fontname" : "Arial"
				}

			}
, 			{
				"box" : 				{
					"maxclass" : "message",
					"text" : "script show more",
					"fontsize" : 9.0,
					"numinlets" : 2,
					"patching_rect" : [ 276.0, 191.0, 89.0, 15.0 ],
					"id" : "obj-17",
					"numoutlets" : 1,
					"outlettype" : [ "" ],
					"fontname" : "Arial"
				}

			}
, 			{
				"box" : 				{
					"maxclass" : "toggle",
					"numinlets" : 1,
					"patching_rect" : [ 276.0, 149.0, 15.0, 15.0 ],
					"id" : "obj-18",
					"numoutlets" : 1,
					"outlettype" : [ "int" ]
				}

			}
, 			{
				"box" : 				{
					"maxclass" : "newobj",
					"text" : "sel 1 0",
					"fontsize" : 9.0,
					"numinlets" : 1,
					"patching_rect" : [ 276.0, 167.0, 41.0, 17.0 ],
					"id" : "obj-19",
					"numoutlets" : 3,
					"outlettype" : [ "bang", "bang", "" ],
					"fontname" : "Arial"
				}

			}
, 			{
				"box" : 				{
					"maxclass" : "message",
					"text" : "#2",
					"fontsize" : 9.0,
					"numinlets" : 2,
					"patching_rect" : [ 292.0, 149.0, 21.0, 15.0 ],
					"id" : "obj-20",
					"numoutlets" : 1,
					"outlettype" : [ "" ],
					"fontname" : "Arial"
				}

			}
, 			{
				"box" : 				{
					"maxclass" : "jsui",
					"varname" : "more",
					"numinlets" : 1,
					"patching_rect" : [ 23.0, 1.0, 30.0, 15.0 ],
					"id" : "obj-21",
					"numoutlets" : 1,
					"filename" : "jsui_textbutton.js",
					"outlettype" : [ "" ],
					"jsarguments" : [ "more" ],
					"nofsaa" : 1
				}

			}
, 			{
				"box" : 				{
					"maxclass" : "newobj",
					"text" : "pvar init",
					"fontsize" : 9.0,
					"numinlets" : 1,
					"patching_rect" : [ 318.0, 35.0, 43.0, 15.0 ],
					"id" : "obj-22",
					"numoutlets" : 1,
					"outlettype" : [ "" ],
					"fontname" : "Times Roman"
				}

			}
, 			{
				"box" : 				{
					"maxclass" : "message",
					"varname" : "init",
					"text" : "init",
					"fontsize" : 9.0,
					"numinlets" : 2,
					"patching_rect" : [ 1.0, 1.0, 21.0, 13.0 ],
					"id" : "obj-23",
					"numoutlets" : 1,
					"bgcolor" : [ 0.4, 0.4, 0.8, 1.0 ],
					"outlettype" : [ "" ],
					"fontname" : "Times Roman"
				}

			}
, 			{
				"box" : 				{
					"maxclass" : "message",
					"text" : ";\r#1/init bang;\r",
					"linecount" : 2,
					"fontsize" : 9.0,
					"numinlets" : 2,
					"patching_rect" : [ 318.0, 75.0, 114.0, 25.0 ],
					"id" : "obj-24",
					"numoutlets" : 1,
					"outlettype" : [ "" ],
					"fontname" : "Arial"
				}

			}
, 			{
				"box" : 				{
					"maxclass" : "hint",
					"hint" : "initialize this module",
					"numinlets" : 1,
					"patching_rect" : [ 2.0, 1.0, 19.0, 14.0 ],
					"id" : "obj-30",
					"numoutlets" : 0
				}

			}
, 			{
				"box" : 				{
					"maxclass" : "comment",
					"text" : "more parameters option (arg 2, 1/0)",
					"fontsize" : 9.0,
					"numinlets" : 1,
					"patching_rect" : [ 274.0, 129.0, 178.0, 17.0 ],
					"id" : "obj-31",
					"numoutlets" : 0,
					"fontname" : "Arial"
				}

			}
, 			{
				"box" : 				{
					"maxclass" : "panel",
					"numinlets" : 1,
					"patching_rect" : [ 0.0, 0.0, 256.0, 62.0 ],
					"border" : 1,
					"id" : "obj-32",
					"numoutlets" : 0,
					"rounded" : 0,
					"bgcolor" : [ 1.0, 1.0, 1.0, 0.0 ],
					"bordercolor" : [ 0.776471, 0.776471, 0.776471, 1.0 ],
					"background" : 1
				}

			}
 ],
		"lines" : [ 			{
				"patchline" : 				{
					"source" : [ "obj-20", 0 ],
					"destination" : [ "obj-18", 0 ],
					"hidden" : 0,
					"midpoints" : [  ]
				}

			}
, 			{
				"patchline" : 				{
					"source" : [ "obj-18", 0 ],
					"destination" : [ "obj-19", 0 ],
					"hidden" : 0,
					"midpoints" : [  ]
				}

			}
, 			{
				"patchline" : 				{
					"source" : [ "obj-19", 0 ],
					"destination" : [ "obj-17", 0 ],
					"hidden" : 0,
					"midpoints" : [  ]
				}

			}
, 			{
				"patchline" : 				{
					"source" : [ "obj-16", 0 ],
					"destination" : [ "obj-15", 0 ],
					"hidden" : 0,
					"midpoints" : [ 375.5, 209.0, 285.5, 209.0 ]
				}

			}
, 			{
				"patchline" : 				{
					"source" : [ "obj-17", 0 ],
					"destination" : [ "obj-15", 0 ],
					"hidden" : 0,
					"midpoints" : [  ]
				}

			}
, 			{
				"patchline" : 				{
					"source" : [ "obj-14", 0 ],
					"destination" : [ "obj-20", 0 ],
					"hidden" : 0,
					"midpoints" : [ 332.5, 168.0, 319.0, 168.0, 319.0, 146.0, 300.5, 146.0 ]
				}

			}
, 			{
				"patchline" : 				{
					"source" : [ "obj-22", 0 ],
					"destination" : [ "obj-5", 0 ],
					"hidden" : 0,
					"midpoints" : [  ]
				}

			}
, 			{
				"patchline" : 				{
					"source" : [ "obj-5", 0 ],
					"destination" : [ "obj-24", 0 ],
					"hidden" : 0,
					"midpoints" : [  ]
				}

			}
, 			{
				"patchline" : 				{
					"source" : [ "obj-19", 1 ],
					"destination" : [ "obj-16", 0 ],
					"hidden" : 0,
					"midpoints" : [ 296.5, 187.0, 375.5, 187.0 ]
				}

			}
, 			{
				"patchline" : 				{
					"source" : [ "obj-9", 0 ],
					"destination" : [ "obj-10", 0 ],
					"hidden" : 0,
					"midpoints" : [  ]
				}

			}
, 			{
				"patchline" : 				{
					"source" : [ "obj-10", 0 ],
					"destination" : [ "obj-13", 0 ],
					"hidden" : 0,
					"midpoints" : [  ]
				}

			}
, 			{
				"patchline" : 				{
					"source" : [ "obj-13", 0 ],
					"destination" : [ "obj-12", 0 ],
					"hidden" : 0,
					"midpoints" : [  ]
				}

			}
, 			{
				"patchline" : 				{
					"source" : [ "obj-12", 0 ],
					"destination" : [ "obj-8", 0 ],
					"hidden" : 0,
					"midpoints" : [  ]
				}

			}
, 			{
				"patchline" : 				{
					"source" : [ "obj-7", 0 ],
					"destination" : [ "obj-36", 0 ],
					"hidden" : 0,
					"midpoints" : [ 301.5, 297.0, 288.0, 297.0, 288.0, 251.0, 301.5, 251.0 ]
				}

			}
, 			{
				"patchline" : 				{
					"source" : [ "obj-36", 0 ],
					"destination" : [ "obj-7", 0 ],
					"hidden" : 0,
					"midpoints" : [  ]
				}

			}
, 			{
				"patchline" : 				{
					"source" : [ "obj-47", 0 ],
					"destination" : [ "obj-2", 0 ],
					"hidden" : 0,
					"midpoints" : [  ]
				}

			}
, 			{
				"patchline" : 				{
					"source" : [ "obj-7", 1 ],
					"destination" : [ "obj-1", 0 ],
					"hidden" : 0,
					"midpoints" : [  ]
				}

			}
, 			{
				"patchline" : 				{
					"source" : [ "obj-1", 0 ],
					"destination" : [ "obj-2", 0 ],
					"hidden" : 0,
					"midpoints" : [  ]
				}

			}
 ]
	}

}
