max v2;#N vpatcher 429 191 979 523;#P origin -241 -589;#P window setfont "Sans Serif" 9.;#P newex 274 226 104 196617 prepend /kramer/sv;#P toggle 163 114 15 0;#P newex 274 191 29 196617 gate;#P newex 163 77 124 196617 r /kramer/sv/client/sw;#P window linecount 3;#P message 28 126 155 196617 \; /kramer/sv/client/sw 1 \; /kramer/sv/client 1 2 2 4 1 1 \;;#P window linecount 1;#P newex 28 101 126 196617 r /kramer/sv/client/init;#N thispatcher;#Q end;#P hidden newobj 0 69 61 196617 thispatcher;#B color 12;#P newex 293 169 207 196617 pak 0 0 0 0 0 0;#P window setfont "Lucida Grande" 12.;#P number 217 38 35 12 1 8 3 1024 0 0 0 221 221 221 222 222 222 0 0 0;#P objectname output6;#P number 178 38 35 12 1 8 3 1024 0 0 0 221 221 221 222 222 222 0 0 0;#P objectname output5;#P number 139 38 35 12 1 8 3 1024 0 0 0 221 221 221 222 222 222 0 0 0;#P objectname output4;#P number 100 38 35 12 1 8 3 1024 0 0 0 221 221 221 222 222 222 0 0 0;#P objectname output3;#P number 61 38 35 12 1 8 3 1024 0 0 0 221 221 221 222 222 222 0 0 0;#P objectname output2;#P number 21 39 35 12 1 8 3 1024 0 0 0 221 221 221 222 222 222 0 0 0;#P objectname output1;#P window setfont "Sans Serif" 9.;#P window linecount 3;#P newex 488 115 33 196617 pvar output6;#P newex 449 115 33 196617 pvar output5;#P newex 410 115 33 196617 pvar output4;#P newex 371 115 33 196617 pvar output3;#P newex 332 115 33 196617 pvar output2;#P newex 293 115 33 196617 pvar output1;#P window linecount 1;#P newex 293 88 208 196617 unpack 0 0 0 0 0 0;#P newex 274 276 57 196617 s /kramer;#B color 12;#P newex 293 67 105 196617 r /kramer/sv/client;#B color 12;#P bpatcher 0 0 256 62 0 0 bkgnd.mxt 0 /kramer/sv/client 0 3;#P objectname background;#P hidden connect 0 0 17 0;#P connect 18 0 19 0;#P connect 20 0 22 0;#P connect 22 0 21 0;#P connect 21 0 23 0;#P connect 23 0 2 0;#P connect 1 0 3 0;#P connect 3 0 4 0;#P connect 4 0 16 0;#P connect 16 0 21 1;#P connect 3 1 5 0;#P connect 5 0 16 1;#P connect 3 2 6 0;#P connect 6 0 16 2;#P connect 3 3 7 0;#P connect 7 0 16 3;#P connect 3 4 8 0;#P connect 8 0 16 4;#P connect 3 5 9 0;#P connect 9 0 16 5;#P pop;