max v2;#N vpatcher 654 165 1241 823;#P origin 150 30;#P window setfont "Sans Serif" 9.;#N vpatcher 30 89 524 558;#P button 76 140 15 0;#P button 51 140 15 0;#P window setfont "Sans Serif" 9.;#P window linecount 1;#P newex 51 162 52 196617 s $1/init;#B color 12;#P newex 67 368 82 196617 unpack 0 0 0;#P number 139 390 35 9 0 0 0 3 0 0 0 221 221 221 222 222 222 0 0 0;#P newex 54 287 68 196617 metro 1000;#P message 54 325 34 196617 time;#P button 54 307 15 0;#P newex 82 50 95 196617 r /movie/drawcpu;#B color 12;#P newex 82 94 71 196617 s /cam.1/out;#B color 12;#P newex 82 72 98 196617 jit.qt.grab 640 480;#B color 5;#P message 50 50 30 196617 open;#P newex 52 346 40 196617 date;#B color 5;#P inlet 110 124 15 0;#P outlet 136 284 15 0;#P newex 130 200 30 196617 t b b;#B color 8;#P newex 129 225 103 196617 s /movie/drawafter;#B color 8;#P newex 226 208 95 196617 s /movie/drawgpu;#B color 8;#P newex 317 194 95 196617 s /movie/drawcpu;#B color 8;#P window linecount 0;#P newex 135 144 57 196617 qmetro 40;#P newex 135 166 284 196617 t b b b erase;#P newex 244 271 97 196617 jit.window movie.1;#B color 5;#P newex 135 260 104 196617 jit.gl.render movie.1;#B color 5;#P connect 21 0 11 0;#P connect 9 0 21 0;#P connect 21 0 20 0;#P connect 22 0 20 0;#P connect 16 0 10 0;#P connect 9 0 17 0;#P connect 17 0 15 0;#P connect 15 0 16 0;#P connect 10 1 19 0;#P connect 11 0 12 0;#P connect 14 0 12 0;#P connect 12 0 13 0;#P connect 7 1 6 0;#P connect 2 0 7 0;#P connect 9 0 3 0;#P connect 3 0 2 0;#P connect 7 0 0 0;#P fasten 2 3 0 0 413 250 140 250;#P connect 0 0 8 0;#P connect 19 2 18 0;#P connect 2 1 5 0;#P connect 2 2 4 0;#P pop;#P newobj 404 325 67 196617 p mini movie;#P toggle 404 300 15 0;#P user jit.fpsgui 404 352 60 196617 0;#P newex 366 611 77 196617 pvar blurwidth;#B color 14;#P newex 366 589 166 196617 variedit $1/blur/width $1;#B color 12;#P newex 366 560 83 196617 pvar blurbypass;#B color 14;#P newex 366 538 157 196617 variedit $1/blur/bypass $1;#B color 12;#P comment 264 252 127 196617 $1/blur/width;#P flonum 389 252 35 9 0. 10. 3 3 0 0 0 221 221 221 222 222 222 0 0 0;#P objectname blurwidth;#P toggle 388 236 15 0;#P objectname blurbypass;#P comment 264 236 127 196617 $1/blur/bypass;#P newex 443 91 31 196617 == 0;#P toggle 436 124 15 0;#P objectname $1/sobelbkgd/bypass[1];#P newex 1 209 197 196617 jit.gl.videoplane movie.1 @scale 1.33 1 1;#P window setfont "Sans Serif" 12.;#N vpatcher 852 287 1306 648;#P window setfont "Sans Serif" 9.;#P window linecount 0;#P newex 46 34 185 196617 makeparam $1/erosion/bypass $1 t 0;#P newex 46 79 76 196617 prepend param;#P message 46 59 56 196617 bypass \$1;#P newex 20 273 263 196617 jit.gl.slab movie.1 @dim 640 480 @file dilatation.cg.jxs;#P newex 40 197 194 196617 makeparam $1/dilatation/bypass $1 t 0;#P newex 254 146 138 196617 r $1/erosion-dilatation/init;#P window linecount 3;#P message 254 170 159 196617 \; $1/erosion/bypass/init bang \; $1/dilatation/bypass/init bang \;;#P window linecount 1;#P newex 40 242 76 196617 prepend param;#P message 40 222 56 196617 bypass \$1;#P newex 20 108 254 196617 jit.gl.slab movie.1 @dim 640 480 @file erosion.cg.jxs;#P inlet 20 63 15 0;#P outlet 20 302 15 0;#P connect 10 0 2 0;#P connect 1 0 2 0;#P connect 4 0 8 0;#P connect 2 0 8 0;#P connect 8 0 0 0;#P connect 7 0 3 0;#P connect 3 0 4 0;#P connect 11 0 9 0;#P connect 9 0 10 0;#P connect 6 0 5 0;#P pop;#P newobj 1 130 128 196620 p erosion/dilatation;#B color 6;#P window setfont "Sans Serif" 9.;#P newex 176 611 135 196617 pvar $1/dilatation/bypass;#B color 14;#P newex 176 589 166 196617 variedit $1/dilatation/bypass $1;#B color 12;#P newex 176 560 126 196617 pvar $1/erosion/bypass;#B color 14;#P newex 176 538 157 196617 variedit $1/erosion/bypass $1;#B color 12;#P newex 176 510 146 196617 pvar $1/threshold/threshold;#B color 14;#P newex 176 488 177 196617 variedit $1/threshold/threshold $1;#B color 12;#P newex 176 458 135 196617 pvar $1/threshold/bypass;#B color 14;#P newex 176 436 166 196617 variedit $1/threshold/bypass $1;#B color 12;#P newex 176 407 141 196617 pvar $1/subbkgdlog/bypass;#B color 14;#P newex 176 385 172 196617 variedit $1/subbkgdlog/bypass $1;#B color 12;#P newex 176 357 151 196617 pvar $1/subbkgdsobel/bypass;#B color 14;#P newex 176 335 182 196617 variedit $1/subbkgdsobel/bypass $1;#B color 12;#P newex 11 602 116 196617 pvar $1/sobel/bypass;#B color 14;#P newex 11 580 147 196617 variedit $1/sobel/bypass $1;#B color 12;#P newex 11 550 136 196617 pvar $1/sobelbkgd/bypass;#B color 14;#P newex 11 528 167 196617 variedit $1/sobelbkgd/bypass $1;#B color 12;#P newex 11 502 116 196617 pvar $1/bkgd/capture;#B color 14;#P newex 11 480 147 196617 variedit $1/bkgd/capture $1;#B color 12;#P newex 11 453 131 196617 pvar $1/bilateral/bypass;#B color 14;#P newex 11 431 162 196617 variedit $1/bilateral/bypass $1;#B color 12;#P newex 11 402 124 196617 pvar $1/median/bypass;#B color 14;#P newex 11 380 155 196617 variedit $1/median/bypass $1;#B color 12;#P newex 11 345 143 196617 pvar $1/deinterlace/bypass;#B color 14;#P newex 11 323 174 196617 variedit $1/deinterlace/bypass $1;#B color 12;#P toggle 388 220 15 0;#P objectname $1/dilatation/bypass;#P toggle 388 206 15 0;#P objectname $1/erosion/bypass;#P user multiSlider 388 193 114 14 0. 1. 1 2680 47 0 0 2 0 0 0;#M frgb 0 0 0;#M brgb 255 255 255;#M rgb2 127 127 127;#M rgb3 0 0 0;#M rgb4 37 52 91;#M rgb5 74 105 182;#M rgb6 112 158 18;#M rgb7 149 211 110;#M rgb8 187 9 201;#M rgb9 224 62 37;#M rgb10 7 114 128;#P objectname $1/threshold/threshold;#P toggle 388 179 15 0;#P objectname $1/threshold/bypass;#P toggle 388 165 15 0;#P objectname $1/subbkgdlog/bypass;#P toggle 388 152 15 0;#P objectname $1/subbkgdsobel/bypass;#P toggle 388 138 15 0;#P objectname $1/sobel/bypass;#P number 388 110 35 9 0 2 3 3 0 0 0 221 221 221 222 222 222 0 0 0;#P objectname $1/bkgd/capture;#P toggle 388 96 15 0;#P objectname $1/bilateral/bypass;#P toggle 388 82 15 0;#P objectname $1/median/bypass;#P toggle 388 68 15 0;#P objectname $1/deinterlace/bypass;#P comment 264 220 127 196617 $1/dilatation/bypass;#P comment 264 206 127 196617 $1/erosion/bypass;#P comment 264 193 127 196617 $1/threshold/threshold;#P comment 264 179 127 196617 $1/threshold/bypass;#P comment 264 165 127 196617 $1/subbkgdlog/bypass;#P comment 264 152 127 196617 $1/subbkgdsobel/bypass;#P comment 264 138 119 196617 $1/sobel/bypass;#P comment 264 127 119 196617 $1/sobelbkgd/bypass;#P comment 264 110 119 196617 $1/bkgd/capture;#P comment 264 96 119 196617 $1/bilateral/bypass;#P comment 264 82 119 196617 $1/median/bypass;#P window setfont "Sans Serif" 12.;#N vpatcher 756 291 1419 706;#P origin 0 -45;#P window setfont "Sans Serif" 9.;#P window linecount 0;#P newex 364 179 161 196617 r $1/denoising/init;#B color 12;#P window linecount 4;#P message 364 214 164 196617 \; $1/deinterlace/bypass/init bang \; $1/median/bypass/init bang \; $1/bilateral/bypass/init bang \;;#P window linecount 1;#P newex 77 291 76 196617 prepend param;#P message 77 268 56 196617 bypass \$1;#P newex 77 243 256 196617 makeparam $1/bilateral/bypass $1 t 0;#B color 12;#P newex 79 190 76 196617 prepend param;#P message 79 167 56 196617 bypass \$1;#P newex 79 142 256 196617 makeparam $1/median/bypass $1 t 0;#B color 12;#P window linecount 0;#P newex 101 97 76 196617 prepend param;#P message 101 74 56 196617 bypass \$1;#P newex 101 49 256 196617 makeparam $1/deinterlace/bypass $1 t 0;#B color 12;#P window linecount 1;#P newex 50 122 271 196617 jit.gl.slab movie.1 @dim 640 480 @file deinterlace.cg.jxs;#B color 5;#P newex 50 320 259 196617 jit.gl.slab movie.1 @dim 640 480 @file bilateral.cg.jxs;#B color 5;#P newex 50 218 252 196617 jit.gl.slab movie.1 @dim 640 480 @file median.cg.jxs;#B color 5;#P inlet 50 102 15 0;#P outlet 50 353 15 0;#P connect 1 0 4 0;#P connect 7 0 4 0;#P connect 10 0 2 0;#P connect 4 0 2 0;#P connect 13 0 3 0;#P connect 2 0 3 0;#P connect 3 0 0 0;#P connect 11 0 12 0;#P connect 12 0 13 0;#P connect 8 0 9 0;#P connect 9 0 10 0;#P connect 5 0 6 0;#P connect 6 0 7 0;#P connect 15 0 14 0;#P pop;#P newobj 1 48 71 196620 p de-noise;#B color 6;#N vpatcher 20 74 1089 322;#P window setfont "Sans Serif" 9.;#P flonum 553 57 35 9 0 0 0 3 0 0 0 221 221 221 222 222 222 0 0 0;#P flonum 516 57 35 9 0 0 0 3 0 0 0 221 221 221 222 222 222 0 0 0;#P flonum 479 57 35 9 0 0 0 3 0 0 0 221 221 221 222 222 222 0 0 0;#P flonum 442 57 35 9 0 0 0 3 0 0 0 221 221 221 222 222 222 0 0 0;#P flonum 403 57 35 9 0 0 0 3 0 0 0 221 221 221 222 222 222 0 0 0;#P flonum 366 57 35 9 0 0 0 3 0 0 0 221 221 221 222 222 222 0 0 0;#P flonum 329 57 35 9 0 0 0 3 0 0 0 221 221 221 222 222 222 0 0 0;#P flonum 292 57 35 9 0 0 0 3 0 0 0 221 221 221 222 222 222 0 0 0;#P newex 440 79 53 196617 pak f f f f;#P newex 337 80 53 196617 pak f f f f;#P toggle 45 80 15 0;#P message 45 109 84 196617 useMultiText \$1;#P message 439 106 77 196617 ti \$1 \$2 \$3 \$4;#P message 338 106 79 196617 to \$1 \$2 \$3 \$4;#P toggle 249 79 15 0;#P message 249 108 61 196617 reverse \$1;#P newex 130 142 76 196617 prepend param;#P toggle 130 79 15 0;#P message 130 108 56 196617 bypass \$1;#P newex 107 172 253 196617 jit.gl.slab movie.1 @file multiText.jxs;#P inlet 107 152 15 0;#P inlet 350 152 15 0;#P outlet 107 194 15 0;#P connect 12 0 11 0;#P connect 6 0 3 0;#P connect 2 0 3 0;#P connect 3 0 0 0;#P connect 5 0 4 0;#P connect 11 0 6 0;#P connect 9 0 6 0;#P connect 10 0 6 0;#P connect 7 0 6 0;#P connect 4 0 6 0;#P connect 8 0 7 0;#P connect 15 0 13 0;#P connect 13 0 9 0;#P connect 1 0 3 1;#P connect 16 0 13 1;#P connect 17 0 13 2;#P connect 18 0 13 3;#P connect 14 0 10 0;#P connect 19 0 14 0;#P connect 20 0 14 1;#P connect 21 0 14 2;#P connect 22 0 14 3;#P pop;#P newobj 1 157 167 196620 p mask;#B color 6;#N vpatcher 20 74 768 392;#P window setfont "Sans Serif" 9.;#P window linecount 0;#P newex 345 50 194 196617 makeparam $1/threshold/bypass $1 t 0;#P newex 141 64 100 196617 r $1/threshold/init;#P window linecount 3;#P message 141 88 170 196617 \; $1/threshold/bypass/init bang \; $1/threshold/threshold/init bang \;;#P window linecount 1;#P newex 422 70 238 196617 makeparam $1/threshold/threshold $1 f 0.12 0 1;#P message 432 135 67 196617 threshold \$1;#P newex 351 166 76 196617 prepend param;#P message 351 135 56 196617 bypass \$1;#P newex 50 220 263 196617 jit.gl.slab movie.1 @dim 640 480 @file threshold.cg.jxs;#P inlet 50 200 15 0;#P outlet 50 242 15 0;#P connect 1 0 2 0;#P connect 4 0 2 0;#P connect 2 0 0 0;#P connect 8 0 7 0;#P connect 9 0 3 0;#P connect 5 0 4 0;#P connect 3 0 4 0;#P connect 6 0 5 0;#P pop;#P newobj 1 104 78 196620 p threshold;#B color 6;#P window setfont "Sans Serif" 9.;#P window linecount 7;#P message 42 230 157 196617 \; $1/denoising/init bang \; $1/bkgd/init bang \; $1/threshold/init bang \; $1/erosion-dilatation/init bang \; $1/mask/init bang \; $1/blur/init bang \;;#P window setfont "Sans Serif" 12.;#P window linecount 1;#N vpatcher 476 201 1423 684;#P origin -8 50;#P window setfont "Sans Serif" 9.;#P window linecount 1;#P newex 144 156 42 196617 t l l l;#P newex 10 97 129 196617 t l l l;#P outlet 10 438 15 0;#P newex 19 386 76 196617 prepend param;#P message 19 365 56 196617 bypass \$1;#P newex 19 343 200 196617 makeparam $1/subbkgdlog/bypass $1 t 0;#B color 12;#P newex 10 412 316 196617 jit.gl.slab movie.1 @dim 640 480 @inputs 3 @file subbkgdlog.cg.jxs;#B color 5;#P newex 341 362 76 196617 prepend param;#P message 341 343 56 196617 bypass \$1;#P newex 341 321 210 196617 makeparam $1/subbkgdsobel/bypass $1 t 0;#B color 12;#P newex 632 321 76 196617 prepend param;#P message 632 297 56 196617 bypass \$1;#P newex 632 272 195 196617 makeparam $1/sobelbkgd/bypass $1 t 0;#B color 12;#P newex 632 350 291 196617 jit.gl.slab movie.1 @dim 640 480 @inputs 2 @file sobel.cg.jxs;#B color 5;#P newex 316 385 326 196617 jit.gl.slab movie.1 @dim 640 480 @inputs 2 @file subbkgdsobel.cg.jxs;#B color 5;#P newex 316 301 291 196617 jit.gl.slab movie.1 @dim 640 480 @inputs 2 @file sobel.cg.jxs;#B color 5;#P newex 344 278 76 196617 prepend param;#P message 344 257 56 196617 bypass \$1;#P newex 344 230 201 196617 makeparam $1/sobel/bypass $1 t 0;#B color 12;#P newex 536 95 78 196617 r $1/bkgd/init;#P window linecount 0;#P message 536 126 172 196617 \; $1/bkgd/capture/init bang \; $1/sobel/bypass/init bang \; $1/sobelbkgd/bypass/init bang \; $1/subbkgdsobel/bypass/init bang \; $1/subbkgdlog/bypass/init bang \;;#P window linecount 1;#P newex 176 182 170 196617 jit.gl.texture movie.1;#B color 5;#P inlet 10 70 15 0;#P newex 144 121 291 196617 jit.gl.slab movie.1 @dim 640 480 @file bkgd.ip.jxs @inputs 2;#B color 5;#P window linecount 0;#P message 144 53 59 196617 capture \$1;#P window linecount 1;#P newex 144 77 76 196617 prepend param;#P window linecount 0;#P newex 144 27 201 196617 makeparam $1/bkgd/capture $1 i 1 0 2 0;#B color 12;#P connect 4 0 25 0;#P connect 25 0 20 0;#P connect 23 0 20 0;#P connect 20 0 24 0;#P connect 21 0 22 0;#P connect 22 0 23 0;#P connect 0 0 2 0;#P connect 2 0 1 0;#P connect 25 2 3 0;#P connect 1 0 3 0;#P connect 3 0 26 0;#P connect 26 0 20 1;#P lcolor 7;#P connect 26 2 5 0;#P fasten 25 1 11 0 74 288 321 288;#P lcolor 15;#P connect 10 0 11 0;#P connect 19 0 12 0;#P connect 11 0 12 0;#P connect 12 0 20 2;#P connect 17 0 18 0;#P connect 18 0 19 0;#P connect 8 0 9 0;#P connect 9 0 10 0;#P fasten 5 0 3 1 181 206 438 206 438 117 430 117;#P connect 7 0 6 0;#P connect 14 0 15 0;#P connect 15 0 16 0;#P connect 16 0 13 0;#P fasten 26 1 13 0 165 221 637 221;#P lcolor 2;#P connect 13 0 12 1;#P pop;#P newobj 1 76 171 196620 p background substraction;#B color 6;#N vpatcher 10 59 506 536;#P window setfont "Sans Serif" 9.;#P window linecount 1;#P newex 68 76 170 196617 makeparam $1/blur/bypass $1 t 0;#B color 11;#P message 58 133 87 196617 param bypass \$1;#P newex 388 287 29 196617 * 2.;#B color 11;#P newex 248 156 29 196617 * 2.;#B color 11;#P message 224 338 143 196617 sendshader param width \$1 0;#P message 224 268 143 196617 sendshader param width \$1 0;#P message 224 204 143 196617 sendshader param width \$1 0;#P message 223 299 143 196617 sendshader param width 0 \$1;#P message 223 243 143 196617 sendshader param width 0 \$1;#P window linecount 0;#P message 58 178 143 196617 sendshader param width 0 \$1;#P window linecount 1;#P newex 37 350 170 196617 jit.gl.slab movie.1 @file blur.cg.jxs;#P newex 37 321 170 196617 jit.gl.slab movie.1 @file blur.cg.jxs;#P newex 37 296 170 196617 jit.gl.slab movie.1 @file blur.cg.jxs;#P newex 37 269 170 196617 jit.gl.slab movie.1 @file blur.cg.jxs;#P newex 37 239 170 196617 jit.gl.slab movie.1 @file blur.cg.jxs;#P newex 37 211 170 196617 jit.gl.slab movie.1 @file blur.cg.jxs;#P inlet 37 89 15 0;#P outlet 37 408 15 0;#P newex 159 28 220 196617 makeparam $1/blur/width $1 f 0 0 10 1;#B color 11;#P button 274 72 15 0;#P newex 274 49 168 196617 r $1/blur/init;#B color 11;#P window linecount 2;#P message 274 95 171 196617 \; $1/blur/width/init bang \; $1/blur/bypass/init bang \;;#P connect 20 0 6 0;#P connect 12 0 6 0;#P connect 5 0 6 0;#P connect 20 0 7 0;#P connect 15 0 7 0;#P connect 6 0 7 0;#P connect 20 0 8 0;#P connect 13 0 8 0;#P connect 7 0 8 0;#P connect 20 0 9 0;#P connect 16 0 9 0;#P connect 8 0 9 0;#P connect 20 0 10 0;#P connect 14 0 10 0;#P connect 9 0 10 0;#P connect 20 0 11 0;#P connect 17 0 11 0;#P connect 10 0 11 0;#P connect 11 0 4 0;#P connect 21 0 20 0;#P connect 3 0 12 0;#P connect 18 0 13 0;#P connect 19 0 14 0;#P connect 3 0 15 0;#P connect 18 0 16 0;#P connect 19 0 17 0;#P connect 3 0 18 0;#P connect 1 0 2 0;#P connect 2 0 0 0;#P connect 18 0 19 0;#P pop;#P newobj 1 184 44 196620 p blur;#B color 6;#P objectname blur.1;#P window setfont "Sans Serif" 9.;#P newex 158 134 72 196617 r /mov.2/out;#B color 12;#P newex 1 25 71 196617 r /cam.1/out;#B color 12;#P comment 264 68 119 196617 $1/deinterlace/bypass;#P toggle 388 124 15 0;#P objectname $1/sobelbkgd/bypass;#P connect 2 0 9 0;#P connect 9 0 5 0;#P connect 5 0 7 0;#P connect 7 0 56 0;#P connect 56 0 8 0;#P connect 8 0 4 0;#P connect 4 0 57 0;#P fasten 33 0 32 0 16 366 6 366 6 321 16 321;#P connect 32 0 33 0;#P fasten 35 0 34 0 16 423 6 423 6 378 16 378;#P connect 34 0 35 0;#P fasten 37 0 36 0 16 474 6 474 6 429 16 429;#P connect 36 0 37 0;#P fasten 39 0 38 0 16 523 6 523 6 478 16 478;#P connect 38 0 39 0;#P fasten 41 0 40 0 16 571 6 571 6 526 16 526;#P connect 40 0 41 0;#P fasten 43 0 42 0 16 623 6 623 6 578 16 578;#P connect 42 0 43 0;#P connect 3 0 8 1;#P fasten 45 0 44 0 181 378 171 378 171 333 181 333;#P connect 44 0 45 0;#P fasten 47 0 46 0 181 428 171 428 171 383 181 383;#P connect 46 0 47 0;#P fasten 49 0 48 0 181 479 171 479 171 434 181 434;#P connect 48 0 49 0;#P fasten 51 0 50 0 181 531 171 531 171 486 181 486;#P connect 50 2 51 0;#P fasten 53 0 52 0 181 581 171 581 171 536 181 536;#P connect 52 0 53 0;#P fasten 55 0 54 0 181 632 171 632 171 587 181 587;#P connect 54 0 55 0;#P fasten 65 0 64 0 371 581 361 581 361 536 371 536;#P connect 64 0 65 0;#P fasten 67 0 66 0 371 632 361 632 361 587 371 587;#P connect 66 0 67 0;#P connect 58 0 0 0;#P connect 58 0 25 0;#P connect 58 0 26 0;#P connect 58 0 27 0;#P connect 69 0 70 0;#P connect 70 0 68 0;#P connect 59 0 58 0;#P connect 24 0 59 0;#P pop;