max v2;#N vpatcher 70 44 849 531;#P origin 29 -14;#P window setfont "Sans Serif" 9.;#P newex 49 232 81 196617 scale 0. 1. 1. 0.;#P newex 488 154 274 196617 makeswitch $1/sw $1 common_switchstate 1;#P newex 266 53 22 196617 b 1;#P message 606 75 33 196617 clear;#P newex 185 439 356 196617 makecontrol $1/button/press $1 t 0 1 /common;#P newex 245 399 337 196617 makecontrol $1/button/2 $1 t 0 1 /common;#P newex 215 419 337 196617 makecontrol $1/button/1 $1 t 0 1 /common;#P newex 190 189 323 196617 makecontrol $1/tilt/y $1 f 0 1 /common;#P newex 145 207 323 196617 makecontrol $1/tilt/x $1 f 0 1 /common;#P newex 92 248 322 196617 makecontrol $1/press $1 f 0 1 /common;#P message 300 74 41 196617 getinfo;#P newex 49 268 303 196617 makecontrol $1/y $1 f 0 1 /common;#P newex 4 287 303 196617 makecontrol $1/x $1 f 0 1 /common;#P newex 104 53 22 196617 b 1;#P newex 104 21 60 196617 loadmess 1;#P user umenu 343 53 113 196647 1 64 69 1;#X add Raw (default);#X add 0-1;#X add 0-1 proportionnal;#P flonum 49 175 42 9 0 0 0 3 0 0 0 221 221 221 222 222 222 0 0 0;#P flonum 4 175 42 9 0 0 0 3 0 0 0 221 221 221 222 222 222 0 0 0;#P message 343 74 62 196617 xyrange \$1;#P toggle 4 53 15 0;#P message 4 74 97 196617 flusheventqueue \$1;#P flonum 92 229 41 9 0 0 0 3 0 0 0 221 221 221 222 222 222 0 0 0;#P comment 136 229 82 196617 scaled pressure;#P newex 92 209 52 196617 / 65535.;#P toggle 218 53 15 0;#P message 218 74 44 196617 bgrd \$1;#P comment 430 149 44 196617 deviceID;#P number 433 132 36 9 0 0 0 3 0 0 0 221 221 221 222 222 222 0 0 0;#P newex 104 102 434 196617 wacom;#P window linecount 2;#P comment 378 149 49 196617 tangential pressure;#P window linecount 1;#P comment 340 149 36 196617 z-axis;#P window linecount 2;#P comment 251 149 33 196617 button flags;#P window linecount 1;#P comment 99 195 48 196617 pressure;#P comment 231 171 43 196617 x/y tilt;#P comment 12 192 65 196617 x/y position;#P comment 290 149 45 196617 rotation;#P user umenu 417 74 178 196647 1 64 90 1;#X add "All tablets and tools";#X add "MTE-450 / all tools";#P message 266 74 32 196617 menu;#P toggle 148 53 15 0;#P message 148 74 65 196617 nopointer \$1;#P number 190 171 39 9 0 0 0 3 0 0 0 221 221 221 222 222 222 0 0 0;#P newex 145 150 55 196617 unpack 0 0;#P number 145 171 38 9 0 0 0 3 0 0 0 221 221 221 222 222 222 0 0 0;#P message 104 74 40 196617 poll 30;#P newex 4 150 64 196617 unpack 0. 0.;#P number 386 132 36 9 0 0 0 3 0 0 0 221 221 221 222 222 222 0 0 0;#P number 339 132 39 9 0 0 0 3 0 0 0 221 221 221 222 222 222 0 0 0;#P number 292 132 40 9 0 0 0 3 0 0 0 221 221 221 222 222 222 0 0 0;#P number 245 132 39 9 0 0 0 3 0 0 0 221 221 221 222 222 222 0 0 0;#P newex 476 216 182 196617 moduleinit $1;#B color 11;#P window linecount 11;#P message 476 237 136 196617 \; $1/sw/init bang \; $1/x/init bang \; $1/y/init bang \; $1/press/init bang \; $1/tilt/x/init bang \; $1/tilt/y/init bang \; $1/button/press/init bang \; $1/button/1/init bang \; $1/button/2/init bang \; control_register/store $1 \;;#P toggle 337 377 15 0;#P toggle 305 377 15 0;#P toggle 245 377 15 0;#P toggle 275 377 15 0;#P toggle 215 377 15 0;#P window linecount 1;#P newex 337 350 31 196617 & 32;#P newex 305 350 31 196617 & 16;#P newex 245 350 27 196617 & 4;#P newex 275 350 27 196617 & 8;#P newex 215 350 27 196617 & 2;#P toggle 185 377 15 0;#P newex 185 350 27 196617 & 1;#P number 245 318 35 9 0 0 1 3 0 0 0 221 221 221 222 222 222 0 0 0;#P connect 44 0 43 0;#P fasten 35 0 19 0 109 121 9 121;#P connect 19 0 46 0;#P connect 46 0 51 0;#P fasten 19 1 47 0 63 170 54 170;#P connect 47 0 63 0;#P connect 63 0 52 0;#P fasten 35 1 40 0 156 134 97 134;#P connect 40 0 42 0;#P connect 42 0 54 0;#P fasten 49 0 50 0 109 45 109 45;#P connect 50 0 20 0;#P fasten 45 0 35 0 348 95 109 95;#P fasten 26 0 35 0 271 95 109 95;#P fasten 24 0 35 0 153 95 109 95;#P fasten 27 0 35 0 422 95 109 95;#P fasten 38 0 35 0 223 95 109 95;#P fasten 43 0 35 0 9 95 109 95;#P fasten 20 0 35 0 109 95 109 95;#P fasten 53 0 35 0 305 95 109 95;#P fasten 35 2 22 0 203 145 150 145;#P connect 22 0 21 0;#P connect 21 0 55 0;#P fasten 49 0 25 0 109 45 153 45;#P connect 25 0 24 0;#P fasten 0 0 1 0 250 341 190 341;#P connect 1 0 2 0;#P connect 2 0 59 0;#P connect 22 1 23 0;#P connect 23 0 56 0;#P fasten 0 0 3 0 250 341 220 341;#P connect 3 0 8 0;#P connect 8 0 57 0;#P fasten 49 0 39 0 109 45 223 45;#P connect 39 0 38 0;#P connect 35 3 15 0;#P connect 15 0 0 0;#P fasten 0 0 5 0 250 341 250 341;#P connect 5 0 10 0;#P connect 10 0 58 0;#P fasten 49 0 61 0 109 45 271 45;#P connect 61 0 26 0;#P fasten 0 0 4 0 250 341 280 341;#P connect 4 0 9 0;#P connect 35 4 16 0;#P fasten 0 0 6 0 250 341 310 341;#P connect 6 0 11 0;#P fasten 0 0 7 0 250 341 342 341;#P connect 7 0 12 0;#P connect 35 5 17 0;#P fasten 49 0 48 0 109 45 348 45;#P connect 48 0 45 0;#P connect 35 6 18 0;#P fasten 35 9 27 0 532 125 600 125 600 71 422 71;#P hidden connect 60 0 27 0;#P connect 35 7 36 0;#P connect 14 0 13 0;#P pop;