max v2;#N vpatcher 509 247 1054 456;#P origin 0 -35;#P window setfont "Sans Serif" 9.;#P window linecount 1;#P hidden newex 1050 121 205 196617 tm_editorbuilder /wacom /tapemovie 3 2 2;#B color 6;#P button 1063 94 15 0;#P comment 1081 94 39 196617 delete;#P button 1050 73 15 0;#P comment 1067 73 31 196617 build;#N thispatcher;#Q end;#P hidden newobj 1050 143 61 196617 thispatcher;#P window linecount 0;#P comment 2376 21 100 196617;#P comment 1 21 100 196617;#P hidden connect 4 0 7 0;#P hidden connect 7 0 2 0;#P hidden fasten 6 0 7 1 1068 115 1152 115;#P hidden fasten 2 0 7 2 1055 165 1284 165 1284 117 1249 117;#P pop;