max v2;#N vpatcher 184 303 1128 734;#P origin 0 6;#P toggle 370 44 15 0;#P objectname di6;#P toggle 350 44 15 0;#P objectname di5;#P toggle 330 44 15 0;#P objectname di4;#P toggle 310 44 15 0;#P objectname di3;#P toggle 290 44 15 0;#P objectname di2;#P toggle 270 44 15 0;#P objectname di1;#P window setfont "Sans Serif" 9.;#P window linecount 1;#P newex 635 408 50 196617 pvar di6;#P newex 635 386 289 196617 variedit $1/di.6 $1;#B color 12;#P newex 576 386 50 196617 pvar di5;#P newex 576 364 280 196617 variedit $1/di.5 $1;#B color 12;#P newex 517 364 50 196617 pvar di4;#P newex 517 342 289 196617 variedit $1/di.4 $1;#B color 12;#P newex 458 342 50 196617 pvar di3;#P newex 458 320 289 196617 variedit $1/di.3 $1;#B color 12;#P newex 399 320 50 196617 pvar di2;#P newex 399 298 289 196617 variedit $1/di.2 $1;#B color 12;#P newex 340 298 53 196617 pvar di1;#P newex 340 276 289 196617 variedit $1/di.1 $1;#B color 12;#P bpatcher 7 63 512 124 0 0 multimapsendu.edit.mxt 0 $1 /tapemovie;#P flonum 211 45 35 9 0 0 0 3 0 0 0 221 221 221 222 222 222 0 0 0;#P objectname an6;#P flonum 174 45 35 9 0 0 0 3 0 0 0 221 221 221 222 222 222 0 0 0;#P objectname an5;#P flonum 137 45 35 9 0 0 0 3 0 0 0 221 221 221 222 222 222 0 0 0;#P objectname an4;#P flonum 100 45 35 9 0 0 0 3 0 0 0 221 221 221 222 222 222 0 0 0;#P objectname an3;#P flonum 63 45 35 9 0 0 0 3 0 0 0 221 221 221 222 222 222 0 0 0;#P objectname an2;#P flonum 26 45 35 9 0 0 0 3 0 0 0 221 221 221 222 222 222 0 0 0;#P objectname an1;#P newex 322 452 50 196617 pvar an6;#P newex 322 430 289 196617 variedit $1/an.6 $1;#B color 12;#P newex 263 430 50 196617 pvar an5;#P newex 263 408 280 196617 variedit $1/an.5 $1;#B color 12;#P newex 204 408 50 196617 pvar an4;#P newex 204 386 289 196617 variedit $1/an.4 $1;#B color 12;#P newex 145 386 50 196617 pvar an3;#P newex 145 364 289 196617 variedit $1/an.3 $1;#B color 12;#P newex 86 364 50 196617 pvar an2;#P newex 86 342 289 196617 variedit $1/an.2 $1;#B color 12;#P newex 27 342 53 196617 pvar an1;#P newex 27 320 289 196617 variedit $1/an.1 $1;#B color 12;#P message 133 229 33 196617 clear;#P comment 86 22 35 196617 /port;#P newex 169 253 62 196617 pvar port 2;#P newex 24 249 53 196617 pvar rate;#P user ubumenu 119 19 142 196617 0 1 1 0;#X add usbserial-A800823n;#X add Bluetooth-Modem;#X add Renaudmobil-COM1-1;#X add my501Ci-SPP-1;#X add Bluetooth-PDA-Sync;#X prefix_set 0 0 <none> 0;#P objectname port;#P newex 169 279 103 196617 variedit $1/port $1;#B color 12;#P newex 169 229 76 196617 r $1/port-list;#B color 12;#P newex 24 229 103 196617 variedit $1/rate $1;#B color 12;#P flonum 94 3 35 9 15. 1000. 3 3 0 0 0 221 221 221 222 222 222 0 0 0;#P objectname rate;#P window setfont "Sans Serif" 18.;#N vpatcher 408 108 939 391;#P origin 0 -13;#P bpatcher 4 199 512 62 0 0 multimapsend.edit.mxt 0 $1/circle/y/map 2;#P bpatcher 4 135 512 62 0 0 multimapsend.edit.mxt 0 $1/circle/x/map 2;#P bpatcher 4 72 512 62 0 0 multimapsend.edit.mxt 0 $1/saw/map 2;#P bpatcher 4 9 512 62 0 0 multimapsend.edit.mxt 0 $1/sinus/map 2;#P window setfont "Sans Serif" 9.;#P hidden newex 750 450 93 196617 r $1/more/editor;#B color 11;#N thispatcher;#Q end;#P hidden newobj 750 486 61 196617 thispatcher;#P hidden connect 1 0 0 0;#P pop;#P newobj 134 193 72 196626 p more;#B color 6;#P window setfont "Sans Serif" 9.;#P comment 61 4 35 196617 /rate;#P bpatcher 7 1 512 62 0 0 bkgnd12.mxt 0 $1 1;#P objectname background;#P fasten 8 0 4 0 29 269 19 269 19 224 25 224 29 224;#P connect 4 0 8 0;#P connect 12 0 13 0;#P connect 14 0 15 0;#P connect 16 0 17 0;#P connect 5 0 9 0;#P fasten 11 0 9 0 138 248 174 248;#P fasten 9 1 6 0 226 274 174 274;#P connect 18 0 19 0;#P connect 20 0 21 0;#P connect 22 0 23 0;#P connect 31 0 32 0;#P connect 33 0 34 0;#P connect 35 0 36 0;#P connect 37 0 38 0;#P connect 39 0 40 0;#P connect 41 0 42 0;#P pop;