max v2;#N vpatcher 265 298 684 772;#P origin 14 -63;#N comlet time between two trig (default is 71 ms = 14 trig per second);#P inlet 253 210 15 0;#P window setfont "Sans Serif" 9.;#P number 252 230 35 9 0 0 0 3 0 0 0 221 221 221 222 222 222 0 0 0;#P newex 186 356 78 196617 del 71;#P newex 145 329 54 196617 onebang 1;#P newex 145 364 32 196617 t 0 1;#P newex 145 309 32 196617 sel 1;#P newex 145 287 78 196617 < 1335;#P newex 145 266 59 196617 gate 1;#P newex 103 280 36 196617 gate;#P newex 103 184 27 196617 t i i;#P message 122 74 31 196617 0 20;#P newex 122 53 38 196617 del 50;#P newex 163 72 152 196617 s $1/simul;#B color 12;#P button 163 54 15 0;#P message 76 74 37 196617 92 10;#P newex 76 53 38 196617 del 20;#P newex 59 95 40 196617 line;#P message 59 54 14 196617 0;#P window linecount 2;#P message 177 140 159 196617 \; $1/vel/init bang \;;#P window linecount 1;#P newex 177 114 111 196617 r $1/init;#B color 12;#N comlet value in;#P inlet 103 96 15 0;#P newex 59 33 176 196617 r $1/simul;#B color 12;#P number 214 231 35 9 0 0 0 3 0 0 0 221 221 221 222 222 222 0 0 0;#P newex 103 242 52 196617 t 0 b 1;#P newex 35 320 27 196617 i;#P newex 9 254 29 196617 thru;#P newex 9 225 53 196617 maximum;#P newex 103 220 61 196617 change 0. +;#N comlet velocity;#P outlet 22 356 15 0;#N comlet time between two trig (default is 71 ms = 14 trig per second);#P inlet 214 212 15 0;#P newex 103 117 29 196617 thru;#P newex 35 391 302 196617 makecontrol $1/vel $1 i 0 127 /common;#B color 12;#P fasten 22 1 5 0 125 214 14 214;#P lcolor 2;#P connect 5 0 6 0;#P connect 7 0 3 0;#P fasten 23 0 7 0 108 314 40 314;#P connect 7 0 0 0;#P connect 8 0 5 1;#P connect 6 0 5 1;#P fasten 5 0 7 1 14 248 57 248;#P connect 10 0 14 0;#P fasten 21 0 15 0 127 92 64 92;#P fasten 17 0 15 0 81 92 64 92;#P connect 14 0 15 0;#P fasten 10 0 16 0 64 51 81 51;#P connect 16 0 17 0;#P connect 15 0 1 0;#P connect 11 0 1 0;#P connect 1 0 22 0;#P connect 22 0 4 0;#P connect 4 0 8 0;#P connect 8 0 23 0;#P fasten 27 1 23 0 172 388 95 388 95 270 108 270;#P lcolor 14;#P fasten 10 0 20 0 64 51 127 51;#P connect 20 0 21 0;#P connect 8 1 23 1;#P connect 8 2 24 0;#P fasten 27 0 24 0 150 386 230 386 230 262 150 262;#P lcolor 7;#P connect 24 0 25 0;#P connect 25 0 26 0;#P connect 26 0 28 0;#P connect 28 0 27 0;#P connect 18 0 19 0;#P connect 12 0 13 0;#P connect 28 0 29 0;#P fasten 29 0 28 1 191 379 330 379 330 322 194 322;#P lcolor 4;#P connect 1 0 24 1;#P connect 30 0 25 1;#P connect 2 0 9 0;#P connect 31 0 30 0;#P connect 9 0 29 1;#P pop;