max v2;#N vpatcher 353 44 1156 812;#P origin 25 264;#P window setfont "Sans Serif" 9.;#P window linecount 1;#P newex 486 28 151 196617 moduleinit $1;#B color 13;#P newex 1 296 93 196617 osc-route /sensor;#P newex 1 276 430 196617 osc-route $1 /kroonde.1 /kroonde.2 /iz.1 /iz.2 /iz.3 /arduino.1;#P newex 1 317 174 196617 osc-route /1 /2 /3 /4 /5 /6 /7 /8;#P newex 1 495 306 196617 analyz_client $1/8 $1;#B color 5;#P window setfont Times 9.;#P window linecount 3;#P comment 296 157 150 1310729 arg 1: prefix name \; arg 2: init environment receive name prefix (i.e. tape \, movie \, camtrk...);#P window setfont "Sans Serif" 9.;#P window linecount 2;#P comment 318 205 107 196617 patch by Tom Mays contact@tommays.net;#P window setfont Times 9.;#P window linecount 1;#P newex 590 76 85 1310729 s $1/init;#B color 11;#P newex 590 53 42 1310729 r $2/init;#B color 11;#P window setfont "Sans Serif" 9.;#P window linecount 52;#P message 486 101 264 196617 \; $1/sw/init bang \; $1/port/init bang \; $1/1/raw/init bang \; $1/1/min/init bang \; $1/1/max/init bang \; $1/1/norm/init bang \; $1/1/speed/init bang \; $1/1/acc/init bang \; $1/2/raw/init bang \; $1/2/min/init bang \; $1/2/max/init bang \; $1/2/norm/init bang \; $1/2/speed/init bang \; $1/2/acc/init bang \; $1/3/raw/init bang \; $1/3/min/init bang \; $1/3/max/init bang \; $1/3/norm/init bang \; $1/3/speed/init bang \; $1/4/acc/init bang \; $1/4/raw/init bang \; $1/4/min/init bang \; $1/4/max/init bang \; $1/4/norm/init bang \; $1/4/speed/init bang \; $1/4/acc/init bang \; $1/5/raw/init bang \; $1/5/min/init bang \; $1/5/max/init bang \; $1/5/norm/init bang \; $1/5/speed/init bang \; $1/5/acc/init bang \; $1/5/raw/init bang \; $1/6/min/init bang \; $1/6/max/init bang \; $1/6/norm/init bang \; $1/6/speed/init bang \; $1/6/acc/init bang \; $1/7/raw/init bang \; $1/7/min/init bang \; $1/7/max/init bang \; $1/7/norm/init bang \; $1/7/speed/init bang \; $1/7/acc/init bang \; $1/8/raw/init bang \; $1/8/min/init bang \; $1/8/max/init bang \; $1/8/norm/init bang \; $1/8/speed/init bang \; $1/8/acc/init bang \; module_register $1 \;;#P window linecount 1;#P newex 27 31 362 196617 makeparam $1/port $1 i 44000 0 99999 0;#B color 13;#P newex 1 1 376 196617 makeswitch $1/sw $1 $2_switchstate;#B color 13;#P newex 96 175 153 196617 s $1/activity;#B color 5;#N comlet messages to forward;#P outlet 1 216 15 0;#P toggle 1 46 15 0;#P number 27 72 81 9 0 0 0 3 0 0 0 221 221 221 222 222 222 0 0 0;#P newex 27 94 67 196617 prepend port;#P newex 1 140 36 196617 gate;#P newex 27 118 68 196617 udpreceive 0;#P newex 1 477 306 196617 analyz_client $1/7 $1;#B color 5;#P newex 1 458 306 196617 analyz_client $1/6 $1;#B color 5;#P newex 1 439 306 196617 analyz_client $1/5 $1;#B color 5;#P newex 1 420 306 196617 analyz_client $1/4 $1;#B color 5;#P newex 1 401 306 196617 analyz_client $1/3 $1;#B color 5;#P newex 1 382 306 196617 analyz_client $1/2 $1;#B color 5;#P newex 1 363 306 196617 analyz_client $1/1 $1;#B color 5;#P connect 14 0 11 0;#P connect 11 0 8 0;#P connect 8 0 12 0;#P connect 8 0 23 0;#P connect 23 6 24 0;#P connect 23 5 24 0;#P connect 23 4 24 0;#P connect 23 3 24 0;#P connect 23 2 24 0;#P connect 23 1 24 0;#P connect 23 0 24 0;#P connect 24 0 22 0;#P connect 22 0 0 0;#P connect 22 1 1 0;#P connect 22 2 2 0;#P connect 22 3 3 0;#P connect 22 4 4 0;#P connect 22 5 5 0;#P connect 22 6 6 0;#P connect 22 7 21 0;#P connect 15 0 10 0;#P connect 10 0 9 0;#P connect 9 0 7 0;#P connect 7 0 8 1;#P connect 8 0 13 0;#P connect 25 0 16 0;#P connect 17 0 18 0;#P pop;