max v2;#N vpatcher 26 271 875 455;#P origin 1 0;#P window setfont "Sans Serif" 9.;#P window linecount 1;#P newex 1056 91 233 196617 tm_editorbuilder /sensors /tapemovie 1 1 4 100;#B color 6;#P button 1069 64 15 0;#P comment 1087 64 39 196617 delete;#P button 1056 43 15 0;#P comment 1073 43 31 196617 build;#N thispatcher;#Q end;#P newobj 1056 113 61 196617 thispatcher;#P window linecount 0;#P comment 2376 0 100 196617;#P comment 1 0 100 196617;#P connect 4 0 7 0;#P connect 7 0 2 0;#P fasten 6 0 7 1 1074 85 1172 85;#P fasten 2 0 7 2 1061 135 1293 135 1293 87 1283 87;#P pop;