max v2;#N vpatcher 317 111 803 835;#P origin -263 36;#P window setfont "Sans Serif" 12.;#N vpatcher 0 44 913 499;#P origin 0 81;#P window setfont "Sans Serif" 9.;#P window linecount 1;#P newex 262 312 31 196617 == 0;#P message 299 314 84 196617 param enable \$1;#P newex 19 309 113 196617 prepend jit_gl_texture;#P newex 19 280 102 196617 route jit_gl_texture;#P newex 290 398 389 196617 s $1/rota/dumpout;#B color 12;#P newex 241 347 389 196617 r $1/rota;#B color 12;#P message 139 299 87 196617 param bypass \$1;#P newex 234 256 317 196617 makeparam $1/rota/sw $1 t 0;#B color 12;#P newex 123 376 460 196617 jit.gl.slab $2 @file td.rota_bypass.jxs @automatic 0;#B color 12;#P inlet 40 213 15 0;#P outlet 78 405 15 0;#P window linecount 0;#P newex 216 51 185 196617 r $1/rota/zoom;#B color 11;#P newex 524 179 323 196617 makeparam $1/rota/boundmode $1 i 1 0 5 1;#B color 11;#P newex 453 143 359 196617 makeparam $1/rota/anchor/x $1 f 0.5 -1024 1024 1;#B color 11;#P newex 489 161 359 196617 makeparam $1/rota/anchor/y $1 f 0.5 -1024 1024 1;#B color 11;#P newex 404 125 347 196617 makeparam $1/rota/offset/y $1 f 0 -1024 1024 1;#B color 11;#P newex 370 107 347 196617 makeparam $1/rota/offset/x $1 f 0 -1024 1024 1;#B color 11;#P newex 259 89 319 196617 makeparam $1/rota/zoom/y $1 f 1 -10 10 1;#B color 11;#P newex 216 71 319 196617 makeparam $1/rota/zoom/x $1 f 1 -10 10 1;#B color 11;#P newex 123 30 325 196617 makeparam $1/rota/theta $1 f 0 -6.28 6.28 1;#B color 11;#P message 524 204 73 196617 boundmode \$1;#P message 123 204 48 196617 theta \$1;#P newex 417 204 82 196617 pak anchor 1. 1.;#P newex 336 204 79 196617 pak offset 1. 1.;#P newex 173 204 97 196617 pak zoom 1. 1.;#P newex 123 238 76 196617 prepend param;#P window linecount 1;#P newex 608 203 240 196617 r $1/rota/init;#B color 11;#P window linecount 10;#P message 608 230 248 196617 \; $1/rota/sw/init bang \; $1/rota/theta/init bang \; $1/rota/zoom/x/init bang \; $1/rota/zoom/y/init bang \; $1/rota/offset/x/init bang \; $1/rota/offset/y/init bang \; $1/rota/anchor/x/init bang \; $1/rota/anchor/y/init bang \; $1/rota/boundmode/init bang \;;#P connect 18 0 24 0;#P connect 24 0 25 0;#P connect 19 0 17 0;#P connect 8 0 6 0;#P fasten 7 0 2 0 529 227 128 227;#P fasten 5 0 2 0 422 227 128 227;#P fasten 3 0 2 0 178 227 128 227;#P fasten 6 0 2 0 128 227 128 227;#P fasten 4 0 2 0 341 227 128 227;#P connect 25 0 19 0;#P connect 22 0 19 0;#P connect 21 0 19 0;#P connect 2 0 19 0;#P connect 26 0 19 0;#P connect 27 0 21 0;#P connect 16 0 9 0;#P connect 9 0 3 1;#P connect 16 0 10 0;#P connect 10 0 3 2;#P connect 20 0 27 0;#P connect 19 1 23 0;#P connect 20 0 26 0;#P connect 11 0 4 1;#P connect 12 0 4 2;#P connect 14 0 5 1;#P connect 13 0 5 2;#P connect 15 0 7 0;#P connect 1 0 0 0;#P pop;#P newobj 72 522 47 196620 p rota;#B color 6;#N vpatcher 207 56 1291 549;#P origin -8 56;#P window setfont "Sans Serif" 9.;#P window linecount 1;#P newex 109 378 31 196617 == 0;#P message 146 380 84 196617 param enable \$1;#P newex 424 252 31 196617 == 0;#P message 461 254 84 196617 param enable \$1;#P newex 439 347 31 196617 == 0;#P message 476 349 84 196617 param enable \$1;#P newex 799 305 31 196617 == 0;#P message 836 307 84 196617 param enable \$1;#P newex 788 162 97 196617 s $1/sobel/bypass;#B color 12;#P newex 788 132 117 196617 s $1/sobelbkgd/bypass;#B color 12;#P newex 788 99 132 196617 s $1/subbkgdsobel/bypass;#B color 12;#P newex 774 51 31 196617 == 0;#B color 12;#P newex 788 73 272 196617 s $1/subbkgdlog/bypass;#B color 12;#P newex 774 28 189 196617 r $1/capture;#B color 12;#P newex 10 65 113 196617 prepend jit_gl_texture;#P newex 10 36 102 196617 route jit_gl_texture;#P newex 144 150 42 196617 t l l l;#P newex 10 91 129 196617 t l l l;#P outlet 10 432 15 0;#P newex 19 380 76 196617 prepend param;#P message 19 359 56 196617 bypass \$1;#P newex 19 337 272 196617 r $1/subbkgdlog/bypass;#B color 12;#P newex 10 406 365 196617 jit.gl.slab $2 @inputs 3 @file subbkgdlog.cg.jxs;#B color 5;#P newex 341 356 76 196617 prepend param;#P message 341 337 56 196617 bypass \$1;#P newex 341 315 282 196617 r $1/subbkgdsobel/bypass;#B color 12;#P newex 698 315 76 196617 prepend param;#P message 698 291 56 196617 bypass \$1;#P newex 698 266 267 196617 r $1/sobelbkgd/bypass;#B color 12;#P newex 681 344 340 196617 jit.gl.slab $2 @inputs 2 @file sobel.cg.jxs;#B color 5;#P newex 316 379 375 196617 jit.gl.slab $2 @inputs 2 @file subbkgdsobel.cg.jxs;#B color 5;#P newex 316 295 340 196617 jit.gl.slab $2 @inputs 2 @file sobel.cg.jxs;#B color 5;#P newex 344 272 76 196617 prepend param;#P message 344 251 56 196617 bypass \$1;#P newex 344 224 247 196617 r $1/sobel/bypass;#B color 12;#P newex 506 73 150 196617 r $1/bkgd/init;#P window linecount 0;#P message 506 99 244 196617 \; $1/sobel/bypass 1 \; $1/sobelbkgd/bypass 1 \; $1/subbkgdsobel/bypass 1 \; $1/subbkgdlog/bypass 1 \; $1/capture 0 \;;#P window linecount 1;#P newex 176 176 214 196617 jit.gl.texture $2 @name $1/bgkd;#B color 5;#P inlet 10 15 15 0;#P newex 144 115 335 196617 jit.gl.slab $2 @file bkgd.ip.jxs @inputs 2;#B color 5;#P window linecount 0;#P message 144 47 59 196617 capture \$1;#P window linecount 1;#P newex 144 71 76 196617 prepend param;#P window linecount 0;#P newex 144 21 273 196617 r $1/capture;#B color 12;#P connect 4 0 27 0;#P connect 27 0 28 0;#P connect 28 0 25 0;#P connect 23 0 20 0;#P connect 25 0 20 0;#P connect 41 0 20 0;#P connect 20 0 24 0;#P connect 21 0 22 0;#P connect 22 0 23 0;#P connect 21 0 42 0;#P connect 0 0 2 0;#P connect 2 0 1 0;#P connect 25 2 3 0;#P connect 1 0 3 0;#P connect 3 0 26 0;#P connect 42 0 41 0;#P connect 26 2 5 0;#P connect 26 0 20 1;#P lcolor 7;#P connect 10 0 11 0;#P fasten 25 1 11 0 74 282 321 282;#P lcolor 15;#P connect 39 0 11 0;#P connect 11 0 12 0;#P connect 19 0 12 0;#P connect 37 0 12 0;#P connect 17 0 18 0;#P connect 18 0 19 0;#P connect 8 0 9 0;#P connect 9 0 10 0;#P connect 12 0 20 2;#P connect 8 0 40 0;#P connect 17 0 38 0;#P connect 40 0 39 0;#P fasten 5 0 3 1 181 199 485 199 485 109 361 109;#P connect 38 0 37 0;#P connect 7 0 6 0;#P connect 16 0 13 0;#P fasten 26 1 13 0 165 215 686 215;#P lcolor 2;#P connect 35 0 13 0;#P connect 13 0 12 1;#P connect 14 0 15 0;#P connect 15 0 16 0;#P connect 29 0 31 0;#P fasten 31 0 30 0 779 70 793 70;#P fasten 31 0 32 0 779 98 793 98;#P fasten 31 0 33 0 779 122 793 122;#P fasten 31 0 34 0 779 155 793 155;#P connect 14 0 36 0;#P connect 36 0 35 0;#P pop;#P newobj 72 406 171 196620 p background substraction;#B color 6;#N vpatcher 382 382 934 851;#P window setfont "Sans Serif" 9.;#P window linecount 0;#P newex 126 317 31 196617 == 0;#P message 163 319 84 196617 param enable \$1;#P newex 130 155 31 196617 == 0;#P message 167 157 84 196617 param enable \$1;#P newex 19 90 113 196617 prepend jit_gl_texture;#P newex 19 61 102 196617 route jit_gl_texture;#P newex 45 111 276 196617 makeparam $1/erosion/sw $1 t 0;#B color 12;#P newex 45 156 76 196617 prepend param;#P message 45 136 56 196617 bypass \$1;#P newex 19 350 331 196617 jit.gl.slab $2 @file dilatation.cg.jxs;#B color 5;#P newex 39 274 285 196617 makeparam $1/dilatation/sw $1 t 0;#B color 12;#P newex 108 205 229 196617 r $1/erosion-dilatation/init;#B color 12;#P window linecount 3;#P message 108 229 247 196617 \; $1/erosion/sw/init bang \; $1/dilatation/sw/init bang \;;#P window linecount 1;#P newex 39 319 76 196617 prepend param;#P message 39 299 56 196617 bypass \$1;#P newex 19 185 322 196617 jit.gl.slab $2 @file erosion.cg.jxs;#B color 5;#P inlet 19 42 15 0;#P outlet 19 379 15 0;#P connect 1 0 12 0;#P connect 12 0 13 0;#P connect 13 0 2 0;#P connect 10 0 2 0;#P connect 14 0 2 0;#P connect 4 0 8 0;#P connect 2 0 8 0;#P connect 16 0 8 0;#P connect 8 0 0 0;#P connect 17 0 3 0;#P connect 3 0 4 0;#P connect 15 0 9 0;#P connect 9 0 10 0;#P connect 6 0 5 0;#P connect 7 0 17 0;#P connect 11 0 15 0;#P connect 7 0 16 0;#P connect 11 0 14 0;#P pop;#P newobj 72 463 128 196620 p erosion/dilatation;#B color 6;#N vpatcher 0 44 623 322;#P origin 0 -34;#P window setfont "Sans Serif" 9.;#P window linecount 0;#P newex 55 167 31 196617 == 0;#P message 92 169 84 196617 param enable \$1;#P newex 26 203 150 196617 realblur $2;#B color 5;#P message 223 181 87 196617 param bypass \$1;#P newex 164 108 314 196617 makeparam $1/blur/sw $1 t 0;#B color 12;#P inlet 26 21 15 0;#P outlet 26 238 15 0;#P newex 118 89 336 196617 makeparam $1/blur/width $1 f 0 0 100 1;#B color 11;#P newex 332 145 199 196617 r $1/blur/init;#B color 11;#P window linecount 3;#P message 332 171 255 196617 \; $1/blur/sw/init bang \; $1/blur/width/init bang \;;#P window linecount 1;#P newex 26 69 113 196617 prepend jit_gl_texture;#P newex 26 45 102 196617 route jit_gl_texture;#P connect 6 0 0 0;#P connect 0 0 1 0;#P connect 1 0 9 0;#P connect 9 0 5 0;#P connect 7 0 11 0;#P connect 7 0 10 0;#P connect 4 0 9 2;#P connect 8 0 9 3;#P connect 10 0 9 3;#P connect 11 0 8 0;#P connect 3 0 2 0;#P pop;#P newobj 72 549 44 196620 p blur;#B color 6;#P objectname blur.1;#N vpatcher 482 150 1388 799;#P window setfont "Sans Serif" 9.;#P window linecount 1;#P newex 274 487 31 196617 == 0;#P message 311 489 84 196617 param enable \$1;#P newex 151 491 113 196617 prepend jit_gl_texture;#P newex 151 462 102 196617 route jit_gl_texture;#P message 48 478 87 196617 param bypass \$1;#P flonum 219 191 35 9 0 0 0 3 0 0 0 221 221 221 222 222 222 0 0 0;#P flonum 180 191 35 9 0 0 0 3 0 0 0 221 221 221 222 222 222 0 0 0;#P inlet 151 415 15 0;#P newex 23 380 172 196617 makeparam $1/crop/sw $1 t 0;#B color 12;#P newex 250 391 27 196617 / 2.;#P newex 250 413 104 196617 s $1/rota/anchor/y;#P newex 248 340 29 196617 t b f;#P newex 250 372 27 196617 + 0.;#P newex 218 414 27 196617 / 2.;#P newex 218 436 104 196617 s $1/rota/anchor/x;#P newex 216 363 29 196617 t b f;#P newex 218 395 27 196617 + 0.;#P outlet 23 588 15 0;#P newex 119 540 460 196617 jit.gl.slab $2 @file m_crop.jxs @automatic 0;#B color 12;#P window linecount 0;#P newex 110 119 112 196617 r $1/crop/edge/down;#B color 12;#P newex 110 149 295 196617 r $1/crop/crop/down;#B color 12;#P button 596 327 15 0;#P newex 471 46 289 196617 makeparam $1/crop/offset/y $1 f 0. 0. 1. 1;#B color 12;#P newex 437 23 289 196617 makeparam $1/crop/offset/x $1 f 0. 0. 1. 1;#B color 12;#P newex 519 95 287 196617 makeparam $1/crop/zoom/y $1 f 1. 0. 1. 1;#B color 12;#P newex 487 74 299 196617 makeparam $1/crop/zoom/x $1 f 1. 0. 1. 1;#B color 12;#P newex 403 79 79 196617 pak offset 0. 0.;#P newex 455 125 75 196617 pak zoom 1. 1.;#P newex 545 249 305 196617 makeparam $1/edge/right $1 f 0. 0. 1. 1;#B color 12;#P newex 503 208 323 196617 makeparam $1/edge/left $1 f 0. 0. 1. 1;#B color 12;#P newex 566 270 292 196617 makeparam $1/edge/top $1 f 0. 0. 1. 1;#B color 12;#P newex 524 228 313 196617 makeparam $1/edge/bottom $1 f 0. 0. 1. 1;#B color 12;#P newex 482 313 96 196617 pak edge 0. 0. 0. 0.;#P newex 462 162 253 196617 makeparam $1/crop/interp $1 t 0;#P newex 182 249 275 196617 makeparam $1/crop/right $1 f 1. 0. 1. 1;#B color 12;#P newex 140 208 317 196617 makeparam $1/crop/left $1 f 0. 0. 1. 1;#B color 12;#P newex 203 270 254 196617 makeparam $1/crop/top $1 f 1. 0. 1. 1;#B color 12;#P newex 161 228 295 196617 makeparam $1/crop/bottom $1 f 0. 0. 1. 1;#B color 12;#P message 462 184 163 196617 interp \$1;#P newex 119 312 96 196617 pak crop 0. 0. 1. 1.;#P newex 119 351 76 196617 prepend param;#P newex 596 300 213 196617 r $1/crop/init;#B color 11;#P window linecount 15;#P message 596 352 146 196617 \; $1/crop/sw/init bang \; $1/crop/top/init bang \; $1/crop/left/init bang \; $1/crop/bottom/init bang \; $1/crop/right/init bang \; $1/edge/top/init bang \; $1/edge/left/init bang \; $1/edge/bottom/init bang \; $1/edge/right/init bang \; $1/crop/zoom/x/init bang \; $1/crop/zoom/y/init bang \; $1/crop/offset/x/init bang \; $1/crop/offset/y/init bang \; $1/crop/interp/init bang \;;#P connect 24 0 25 0;#P connect 42 0 38 0;#P fasten 16 0 2 0 408 342 124 342;#P fasten 15 0 2 0 460 342 124 342;#P fasten 10 0 2 0 487 342 124 342;#P fasten 3 0 2 0 124 342 124 342;#P fasten 4 0 2 0 467 342 124 342;#P connect 40 0 24 0;#P connect 38 0 24 0;#P connect 2 0 24 0;#P connect 41 0 24 0;#P connect 7 0 3 1;#P connect 35 0 39 0;#P connect 39 0 40 0;#P connect 22 0 5 0;#P connect 5 0 3 2;#P connect 7 0 36 0;#P connect 8 0 3 3;#P connect 6 0 3 4;#P connect 8 0 27 0;#P connect 7 0 26 0;#P connect 27 0 26 0;#P connect 26 0 29 0;#P connect 29 0 28 0;#P connect 5 0 37 0;#P connect 27 1 26 1;#P connect 6 0 31 0;#P connect 5 0 30 0;#P connect 31 0 30 0;#P connect 30 0 33 0;#P connect 33 0 32 0;#P connect 31 1 30 1;#P connect 34 0 42 0;#P connect 34 0 41 0;#P connect 19 0 16 1;#P connect 9 0 4 0;#P connect 20 0 16 2;#P connect 17 0 15 1;#P connect 13 0 10 1;#P connect 18 0 15 2;#P connect 23 0 11 0;#P connect 11 0 10 2;#P connect 14 0 10 3;#P connect 12 0 10 4;#P connect 1 0 21 0;#P connect 21 0 0 0;#P pop;#P newobj 72 491 48 196620 p crop;#B color 6;#P window setfont "Sans Serif" 9.;#P newex 21 611 27 196617 t b l;#P newex 21 667 205 196617 s $1/out;#P window setfont "Sans Serif" 12.;#N vpatcher 344 303 977 580;#P window setfont "Sans Serif" 9.;#P newex 135 42 273 196617 makeparam $1/deinterlace/sw $1 t 0;#B color 12;#P newex 227 69 31 196617 == 0;#P message 264 71 84 196617 param enable \$1;#P newex 21 73 113 196617 prepend jit_gl_texture;#P newex 21 44 102 196617 route jit_gl_texture;#P message 135 70 87 196617 param bypass \$1;#P window setfont "Sans Serif" 12.;#P newex 21 120 565 196620 jit.gl.slab $2 @file deinterlace.cg.jxs @automatic 0;#B color 6;#P inlet 21 24 15 0;#P outlet 21 188 15 0;#P connect 1 0 4 0;#P connect 4 0 5 0;#P connect 5 0 2 0;#P connect 3 0 2 0;#P connect 6 0 2 0;#P connect 2 0 0 0;#P connect 7 0 3 0;#P connect 8 0 7 0;#P connect 8 0 6 0;#P pop;#P newobj 72 316 102 196620 p deinterlace;#B color 6;#N vpatcher 20 74 682 287;#P window setfont "Sans Serif" 9.;#P window linecount 1;#P newex 259 79 31 196617 == 0;#P message 296 81 84 196617 param enable \$1;#P newex 35 80 113 196617 prepend jit_gl_texture;#P newex 35 51 102 196617 route jit_gl_texture;#P message 157 80 87 196617 param bypass \$1;#P inlet 35 26 15 0;#P outlet 35 150 15 0;#P window setfont "Sans Serif" 12.;#P window linecount 0;#P newex 35 120 572 196620 jit.gl.slab $2 @file median.cg.jxs @automatic 0;#B color 6;#P window setfont "Sans Serif" 9.;#P newex 157 51 273 196617 makeparam $1/median/sw $1 t 0;#B color 12;#P connect 3 0 5 0;#P connect 5 0 6 0;#P connect 6 0 1 0;#P connect 4 0 1 0;#P connect 7 0 1 0;#P connect 1 0 2 0;#P connect 8 0 4 0;#P connect 0 0 8 0;#P connect 0 0 7 0;#P pop;#P newobj 72 344 72 196620 p median;#B color 6;#N vpatcher 472 216 1090 477;#P window setfont "Sans Serif" 9.;#P window linecount 1;#P newex 267 102 31 196617 == 0;#P message 304 104 84 196617 param enable \$1;#P newex 19 95 113 196617 prepend jit_gl_texture;#P newex 19 66 102 196617 route jit_gl_texture;#P message 171 102 87 196617 param bypass \$1;#P inlet 19 46 15 0;#P outlet 19 159 15 0;#P window setfont "Sans Serif" 12.;#P window linecount 0;#P newex 19 129 572 196620 jit.gl.slab $2 @file bilateral.cg.jxs @automatic 0;#B color 6;#P window setfont "Sans Serif" 9.;#P newex 170 75 273 196617 makeparam $1/bilateral/sw $1 t 0;#B color 12;#P connect 3 0 5 0;#P connect 5 0 6 0;#P connect 6 0 1 0;#P connect 4 0 1 0;#P connect 7 0 1 0;#P connect 1 0 2 0;#P connect 8 0 4 0;#P connect 0 0 8 0;#P connect 0 0 7 0;#P pop;#P newobj 72 372 79 196620 p bilateral;#B color 6;#N vpatcher 20 74 586 302;#P origin -17 -10;#P window setfont "Sans Serif" 9.;#P window linecount 1;#P newex 394 123 31 196617 == 0;#P message 431 125 84 196617 param enable \$1;#P newex 37 94 113 196617 prepend jit_gl_texture;#P newex 37 65 102 196617 route jit_gl_texture;#P message 84 120 87 196617 param bypass \$1;#P window setfont "Sans Serif" 12.;#P newex 37 153 514 196620 jit.gl.slab $2 @file m_threshold.cg.jxs @automatic 0 @name $1/thresh;#B color 6;#P inlet 37 34 15 0;#P outlet 37 198 15 0;#P window setfont "Sans Serif" 9.;#P window linecount 0;#P message 173 120 90 196617 param inverse \$1;#P newex 173 71 273 196617 makeparam $1/thresh/inverse $1 t 1;#B color 12;#P newex 84 43 273 196617 makeparam $1/thresh/sw $1 t 0;#B color 12;#P message 272 120 98 196617 param threshold \$1;#P newex 272 91 273 196617 makeparam $1/thresh/threshold $1 f 0.5 0 1 1;#B color 12;#P connect 6 0 9 0;#P connect 9 0 10 0;#P connect 10 0 7 0;#P fasten 1 0 7 0 277 144 42 144;#P fasten 4 0 7 0 178 144 42 144;#P fasten 8 0 7 0 89 144 42 144;#P connect 11 0 7 0;#P connect 7 0 5 0;#P connect 12 0 8 0;#P connect 3 0 4 0;#P connect 0 0 1 0;#P connect 2 0 12 0;#P connect 2 0 11 0;#P pop;#P newobj 72 435 69 196620 p thresh;#B color 6;#N vpatcher 394 225 1000 605;#P window setfont "Sans Serif" 9.;#P window linecount 1;#P newex 129 251 22 196617 b 1;#P window linecount 0;#P message 61 276 204 196617;#P outlet 22 326 15 0;#P newex 91 112 69 196617 route symbol;#P newex 26 32 175 196617 r $1;#B color 12;#P newex 243 177 78 196617 sprintf %s/out;#P newex 148 198 69 196617 route symbol;#N coll m_textures 1;#P newobj 148 177 91 196617 coll m_textures 1;#B color 5;#P newex 243 198 62 196617 prepend set;#P newex 57 177 31 196617 t set;#P newex 91 137 67 196617 route <none>;#P newex 148 219 130 196617 prepend set jit_gl_texture;#P newex 91 88 323 196617 makeparam $1/source $1 s <none>;#B color 12;#P newex 26 296 325 196617 jit.gl.slab $2 @automatic 0;#B color 12;#P newex 160 247 44 196617 receive;#B color 12;#P connect 1 0 12 0;#P connect 10 0 1 0;#P connect 13 0 1 0;#P connect 4 0 5 0;#P connect 5 0 13 0;#P connect 3 0 13 0;#P connect 14 0 13 0;#P connect 2 0 11 0;#P connect 11 0 4 0;#P connect 11 1 4 0;#P connect 0 0 14 0;#P connect 4 1 7 0;#P connect 7 0 8 0;#P connect 8 0 3 0;#P fasten 6 0 0 0 248 242 165 242;#P fasten 5 0 0 0 62 239 165 239;#P fasten 4 1 9 0 153 172 248 172;#P connect 9 0 6 0;#P pop;#P newobj 72 266 62 196620 p source;#B color 6;#P window setfont "Sans Serif" 9.;#P newex 21 267 27 196617 + 1;#P newex 21 295 61 196617 gate 2 1;#P newex 21 235 322 196617 makeswitch $1/sw $1 movie_switchstate 1;#B color 12;#P newex 38 640 322 196617 jit.gl.texture $2 @name $1 @automatic 0;#P window setfont Helvetica 9.;#P comment 188 341 190 1376265 Tom Mays \, Olivier Pfeiffer & Renaud Rubiano;#B frgb 0 146 207;#P window linecount 2;#P comment 189 317 220 1376265 m_tllslo-cal is a part of movie \, a part of tapemovie. contact@tapemovie.org;#P window setfont Helvetica 24.;#P window linecount 1;#P comment 189 262 128 1376280 m_tllslo-cal;#B frgb 0 146 207;#P window setfont Helvetica 12.;#P window linecount 2;#P comment 189 289 263 1376268 $1 : prefix name \; $2 : name of the render associated \;;#P user panel 186 259 269 96;#X brgb 255 255 255;#X frgb 0 0 0;#X border 1;#X rounded 0;#X shadow 0;#X done;#P window setfont "Sans Serif" 9.;#P window linecount 1;#P newex 11 16 241 196617 moduleinit $1;#B color 11;#P window linecount 15;#P message 11 38 318 196617 \; $1/sw/init bang \; $1/source/init bang \; $1/deinterlace/sw/init bang \; $1/median/sw/init bang \; $1/bilateral/sw/init bang \; $1/bkgd/init bang \; $1/thresh/threshold/init bag \; $1/thresh/inverse/init bang \; $1/thresh/sw/init bang \; $1/erosion-dilatation/init bang \; $1/crop/init bang \; $1/rota/init bang \; $1/blur/init bang \; $1/warp/init bang \;;#P window setfont "Sans Serif" 12.;#P window linecount 1;#N vpatcher 297 44 1440 761;#P origin -490 -86;#P window setfont "Sans Serif" 9.;#P window linecount 0;#P newex 71 97 31 196617 == 0;#P newex 646 116 27 196617 f;#B color 12;#P newex 788 367 32 196617 del 1;#P newex 738 367 35 196617 sel 0.;#P newex 729 265 27 196617 f;#B color 12;#P newex 700 265 27 196617 f;#B color 12;#P newex 746 85 273 196617 makeparam $1/warp/auto/min $1 f 0 0 1 1;#B color 12;#P newex 717 66 273 196617 makeparam $1/warp/auto/max $1 f 0.3 0 1 1;#B color 12;#P message 832 241 14 196617 1;#P message 870 241 14 196617 0;#P window linecount 2;#P message 33 447 98 196617 \; $1/warp/bypass 0;#P window linecount 1;#P newex 844 438 78 196617 sel single multi;#B color 12;#P message 844 475 14 196617 1;#P window linecount 0;#P message 878 475 14 196617 0;#P window linecount 1;#P newex 844 499 110 196617 prepend param bypass;#B color 12;#P newex 844 416 273 196617 makeparam $1/warp/mode $1 s single;#B color 12;#P window setfont "Sans Serif" 12.;#P newex 373 445 325 196620 jit.gl.texture $2 @automatic 0;#B color 6;#P window setfont "Sans Serif" 9.;#P newex 646 81 31 196617 == 0;#B color 12;#P newex 681 313 29 196617 gate;#B color 12;#P newex 680 47 273 196617 makeparam $1/warp/auto/sw $1 t 1;#B color 12;#P window linecount 0;#P message 535 105 14 196617 0;#P toggle 535 128 15 0;#P window linecount 1;#P newex 550 176 21 196617 t 0;#P newex 681 362 40 196617 line 0.;#P newex 681 337 63 196617 pack 0. 500;#P newex 681 389 179 196617 s $1/warp/coef;#P newex 734 313 273 196617 makeparam $1/warp/auto/time $1 i 300 0 100000 1;#B color 12;#P window linecount 2;#P message 33 408 235 196617 \; $1/warp/clear/init bang \;;#P window linecount 1;#P newex 33 280 27 196617 b 2;#P newex 457 287 27 196617 f;#P newex 422 289 27 196617 f;#P newex 605 287 29 196617 gate;#P newex 644 287 29 196617 gate;#P toggle 852 259 15 0;#P newex 852 218 38 196617 del 25;#P newex 852 104 225 196617 r $1/warp/action;#P newex 852 190 27 196617 b 2;#P newex 852 157 41 196617 sel 0 1;#P toggle 852 131 15 0;#P newex 535 80 38 196617 del 50;#P newex 535 58 65 196617 t b 1;#P newex 535 34 273 196617 makeparam $1/warp/clear $1 b;#B color 12;#P window setfont "Sans Serif" 12.;#P newex 450 638 465 196620 jit.gl.slab $2 @file warprendering.cg.jxs @automatic 0;#B color 6;#P window setfont "Sans Serif" 9.;#P newex 33 258 273 196617 r $1/warp/init;#B color 12;#P window linecount 8;#P message 50 302 240 196617 \; $1/warp/sw/init bang \; $1/warp/size/init bang \; $1/warp/auto/sw/init bang \; $1/warp/auto/time/init bang \; $1/warp/auto/min/init bang \; $1/warp/auto/max/init bang \; $1/warp/mode/init bang \;;#P window linecount 1;#P newex 365 356 273 196617 makeparam $1/warp/size $1 i 20 2 20 1;#B color 12;#P newex 477 540 216 196617 r $1/warp/coef;#B color 12;#P message 477 562 114 196617 param warpinterpol \$1;#P message 852 281 102 196617 param warpsave \$1;#P newex 527 314 127 196617 pak param postmp 0.5 0.5;#P message 365 384 102 196617 param distorcoef \$1;#P message 535 150 102 196617 param warpclean \$1;#P newex 474 246 277 196617 r $1/warp/pos/y;#B color 12;#P newex 352 314 116 196617 pak param pos1 0.5 0.5;#P window setfont "Sans Serif" 12.;#P newex 464 607 325 196620 jit.gl.texture $2 @automatic 0;#B color 6;#P newex 450 581 454 196620 jit.gl.slab $2 @file warpinterpol.cg.jxs @automatic 0;#B color 6;#P window setfont "Sans Serif" 9.;#P newex 334 121 113 196617 prepend jit_gl_texture;#P newex 334 92 102 196617 route jit_gl_texture;#P message 63 133 87 196617 param bypass \$1;#P window setfont "Sans Serif" 12.;#P newex 334 416 408 196620 jit.gl.slab $2 @file warp.cg.jxs @automatic 0;#B color 6;#P inlet 334 61 15 0;#P outlet 450 666 15 0;#P window setfont "Sans Serif" 9.;#P newex 439 225 277 196617 r $1/warp/pos/x;#B color 12;#P newex 234 33 273 196617 makeparam $1/warp/sw $1 t 1;#B color 12;#P comment 469 386 62 196617 matrix size;#P window setfont "Sans Serif" 12.;#P newex 410 509 325 196620 jit.gl.texture $2 @automatic 0;#B color 6;#P newex 376 484 447 196620 jit.gl.slab $2 @file warpswitch.cg.jxs @automatic 0;#B color 6;#P connect 23 0 38 0;#P connect 38 0 39 0;#P connect 64 0 39 0;#P connect 38 1 22 0;#P connect 66 0 8 0;#P connect 3 0 66 0;#P connect 6 0 9 0;#P connect 9 0 10 0;#P connect 10 0 7 0;#P connect 15 0 7 0;#P connect 8 0 7 0;#P connect 17 0 7 0;#P connect 13 0 7 0;#P connect 16 0 7 0;#P connect 21 0 16 0;#P connect 7 0 50 0;#P connect 15 0 0 0;#P connect 8 0 0 0;#P connect 18 0 0 0;#P connect 7 0 0 0;#P connect 0 0 1 0;#P connect 29 1 36 0;#P connect 44 0 36 0;#P connect 36 0 13 2;#P connect 4 0 36 1;#P connect 8 0 11 0;#P lcolor 1;#P connect 0 0 11 0;#P connect 19 0 11 0;#P connect 11 0 24 0;#P connect 8 0 24 0;#P lcolor 1;#P connect 24 0 5 0;#P connect 29 1 37 0;#P connect 44 0 37 0;#P connect 37 0 13 3;#P connect 11 0 12 0;#P connect 14 0 37 1;#P connect 20 0 19 0;#P connect 25 0 26 0;#P connect 26 0 27 0;#P connect 27 0 46 0;#P connect 46 0 45 0;#P connect 26 1 45 0;#P connect 45 0 15 0;#P connect 15 0 44 0;#P connect 28 0 35 0;#P connect 44 0 17 2;#P connect 36 0 17 2;#P connect 35 0 17 2;#P connect 4 0 35 1;#P connect 28 0 34 0;#P connect 44 0 17 3;#P connect 37 0 17 3;#P connect 34 0 17 3;#P connect 47 0 49 0;#P connect 49 0 65 0;#P connect 14 0 34 1;#P connect 47 0 48 0;#P connect 48 0 42 0;#P connect 42 0 43 0;#P connect 65 0 43 0;#P connect 43 0 41 0;#P connect 29 1 61 0;#P connect 61 0 48 1;#P connect 62 0 48 1;#P connect 59 0 61 1;#P connect 30 0 62 0;#P fasten 50 0 7 1 378 480 746 480 746 408 737 408;#P connect 40 0 42 1;#P connect 43 0 63 0;#P connect 60 0 62 1;#P connect 63 0 64 0;#P fasten 1 0 0 1 415 534 833 534 833 475 818 475;#P connect 32 0 58 0;#P connect 51 0 55 0;#P connect 55 0 54 0;#P connect 53 0 52 0;#P connect 54 0 52 0;#P connect 31 0 28 0;#P connect 28 0 29 0;#P connect 29 0 30 0;#P connect 30 0 32 0;#P connect 58 0 33 0;#P connect 57 0 33 0;#P connect 33 0 18 0;#P connect 30 1 57 0;#P connect 55 1 53 0;#P fasten 12 0 11 1 469 633 907 633 907 573 899 573;#P connect 10 0 24 1;#P pop;#P newobj 72 580 50 196620 p warp;#B color 6;#P connect 2 0 1 0;#P connect 9 0 11 0;#P lcolor 2;#P connect 11 0 10 0;#P connect 0 0 18 0;#P connect 10 0 18 0;#P connect 18 0 17 0;#P connect 18 1 8 0;#P connect 12 0 10 1;#P connect 10 1 16 0;#P connect 16 0 15 0;#P connect 15 0 14 0;#P connect 14 0 22 0;#P connect 22 0 13 0;#P connect 13 0 21 0;#P connect 21 0 19 0;#P connect 19 0 23 0;#P connect 23 0 20 0;#P connect 20 0 0 0;#P pop;