max v2;#N vpatcher 203 54 847 900;#P origin 0 105;#P window setfont "Sans Serif" 9.;#P newex 1053 163 218 196617 tm_editorbuilder /iz /tapemovie 11 2 2;#B color 6;#P button 1066 136 15 0;#P comment 1084 136 39 196617 delete;#P button 1053 115 15 0;#P comment 1070 115 31 196617 build;#N thispatcher;#Q end;#P newobj 1053 185 61 196617 thispatcher;#P connect 2 0 5 0;#P connect 5 0 0 0;#P fasten 4 0 5 1 1071 157 1162 157;#P fasten 0 0 5 2 1058 207 1274 207 1274 159 1266 159;#P pop;