max v2;#N vpatcher 52 64 1207 446;#P window setfont Times 9.;#P window linecount 1;#P newex 819 103 69 1310729 pvar openactive;#P newex 477 31 69 1310729 pvar storeactive;#P newex 767 42 71 1310729 pvar recallactive;#P button 819 124 15 0;#P window setfont "Sans Serif" 9.;#P message 819 142 30 196617 open;#P window setfont Times 9.;#P newex 506 51 53 1310729 r storetemp;#B color 11;#P window setfont "Sans Serif" 9.;#P comment 889 176 70 196617 writearchive;#P window setfont Times 9.;#P newex 477 196 139 1310729 sprintf write %stemp/%s-temp.txt;#P message 477 154 35 1310729 config;#N coll filepaths 1;#P newobj 477 173 68 1310729 coll filepaths 1;#B color 5;#P newex 581 89 48 1310729 t b b;#P newex 625 196 135 1310729 sprintf read %stemp/%s-temp.txt;#P message 625 154 35 1310729 config;#N coll filepaths 1;#P newobj 625 173 68 1310729 coll filepaths 1;#B color 5;#P message 619 110 56 1310729 $1;#P newex 581 60 45 1310729 loadbang;#P newex 967 195 35 1310729 t read b;#P newex 477 73 27 1310729 b;#P newex 767 64 27 1310729 t b b;#P newex 359 254 41 1310729 onebang;#P button 329 194 15 0;#N qlist;#X append $1/sw 0 \; $1/sa 1. \; $1/co 1. \; $1/br 1. \;;#P newobj 329 233 40 1310729 qlist;#P button 494 94 15 0;#P window setfont "Sans Serif" 9.;#P window linecount 2;#P comment 445 312 107 196617 patch by Tom Mays contact@tommays.net;#P window setfont Times 9.;#P window linecount 1;#P newex 967 173 75 1310729 pvar recallarchive;#P newex 874 156 74 1310729 pvar writearchive;#P newex 358 178 79 1310729 activeparams $2 1;#B color 6;#P comment 36 75 73 1310729 <- open OSC qlist;#B frgb 0 0 255;#P message 10 74 28 1310729 open;#B color 9;#P objectname openactiveudp;#P comment 3 34 102 1310729 OSC send: $3;#P comment 3 23 102 1310729 uses coll: $2;#P message 39 104 28 1310729 recall;#B color 7;#P objectname recallarchive;#P comment 6 91 95 1310729 ---- archive presets ----;#P message 11 104 27 1310729 write;#B color 13;#P objectname writearchive;#P window linecount 2;#P newex 213 128 92 1310729 activeparamsudp $2 1 $3;#B color 6;#P window linecount 1;#P message 10 57 28 1310729 store;#B color 2;#P objectname storeactive;#P message 68 57 28 1310729 open;#B color 9;#P objectname openactive;#P window setfont Times 18.;#P comment 0 4 109 1310738 active params;#P window setfont Times 9.;#P window linecount 4;#P comment 0 152 168 1310729 arg 1 : activeparams prefix name (i.e. activeparams) \; arg 2 : switch coll name (i.e. switchstate) \; arg 3 : udpsend prefix;#P window linecount 1;#P newex 227 165 84 1310729 pvar openactiveudp;#P message 39 57 28 1310729 recall;#B color 7;#P objectname recallactive;#N qlist;#X append $1-sw 1 \; $1-freqx 0.037 \; $1-freqy 0.05 \; $1-ampx 10 \; $1-ampy 10 \; $1-radius 1 \;;#P newobj 198 198 40 1310729 qlist;#P button 213 110 15 0;#P comment 6 44 95 1310729 ------ temp preset -------;#P window setfont "Sans Serif" 9.;#P window linecount 3;#P comment 161 19 100 196617 active params based on "switch" instead of "mute";#P user panel 0 0 107 127;#X brgb 235 235 235;#X frgb 198 198 198;#X border 1;#X rounded 4;#X shadow 2;#X done;#P background;#P fasten 11 0 4 0 218 191 203 191;#P fasten 6 0 4 0 232 191 203 191;#P connect 23 0 3 0;#P connect 3 0 11 0;#P lcolor 1;#P fasten 26 0 25 0 364 276 323 276 323 190 334 190;#P fasten 41 0 24 0 824 214 334 214;#P fasten 38 0 24 0 482 229 334 229;#P fasten 34 0 24 0 630 229 334 229;#P fasten 29 0 24 0 972 229 334 229;#P lcolor 1;#P connect 25 0 24 0;#P fasten 20 0 24 0 879 232 334 232;#P connect 19 0 24 0;#P connect 23 0 19 0;#P connect 24 2 26 0;#P fasten 27 1 26 1 789 243 395 243;#P fasten 29 1 26 1 997 250 395 250;#P connect 40 0 28 0;#P connect 44 0 28 0;#P connect 28 0 37 0;#P connect 37 0 36 0;#P connect 36 0 38 0;#P connect 28 1 23 0;#P fasten 27 0 35 0 772 85 586 85;#P connect 30 0 35 0;#P connect 31 0 38 1;#P connect 35 1 31 0;#P fasten 35 0 33 0 586 142 630 142;#P connect 33 0 32 0;#P connect 32 0 34 0;#P connect 31 0 34 1;#P connect 43 0 27 0;#P connect 45 0 42 0;#P connect 42 0 41 0;#P connect 21 0 29 0;#P pop;