max v2;#N vpatcher 40 55 406 500;#P window setfont "Sans Serif" 9.;#P window linecount 2;#P comment 219 383 107 196617 patch by Tom Mays contact@tommays.net;#P number 66 257 35 9 0 0 0 3 0 0 0 221 221 221 222 222 222 0 0 0;#P window linecount 1;#P message 211 218 14 196617 3;#P message 196 218 14 196617 5;#P newex 196 197 40 196617 sel 0 1;#P newex 196 144 45 196617 loadbang;#P message 196 166 21 196617 $2;#P window linecount 5;#P comment 172 278 166 196617 arg 1 : name of coll containing mutestate info \; arg 2 : 0 for mute state detecting \, 1 for switch state detecting. \; arg 3 : udpsend prefix;#N comlet bang to trigger;#P inlet 44 36 15 0;#N comlet to comment or message box;#P outlet 27 392 15 0;#P window linecount 1;#P newex 44 55 121 196617 b;#P newex 56 335 87 196617 sprintf %s/state;#P newex 27 315 39 196617 t b s;#P newex 27 372 139 196617 makeqlistudp $3;#B color 6;#P newex 27 295 27 196617 itoa;#P newex 27 275 49 196617 zl ecils 5;#P newex 89 202 29 196617 == 0;#P newex 27 254 27 196617 atoi;#P newex 27 234 27 196617 gate;#P newex 44 180 55 196617 unpack s 0;#P newex 44 138 35 196617 zl join;#P newex 44 159 42 196617 zl rot 1;#P newex 69 116 65 196617 route symbol;#P message 44 75 31 196617 dump;#N coll $1;#P newobj 44 93 86 196617 coll $1;#B color 5;#P connect 8 0 6 0;#P connect 6 0 7 0;#P connect 7 0 9 0;#P connect 9 0 10 0;#P connect 10 0 12 0;#P connect 12 0 11 0;#P connect 11 0 15 0;#P connect 16 0 14 0;#P connect 14 0 1 0;#P connect 1 0 0 0;#P connect 0 0 4 0;#P connect 4 0 3 0;#P connect 3 0 5 0;#P connect 5 0 6 1;#P connect 12 1 13 0;#P connect 22 0 23 0;#P connect 21 0 23 0;#P connect 23 0 9 1;#P connect 0 1 2 0;#P connect 2 0 4 1;#P connect 5 1 8 0;#P fasten 13 0 11 1 61 362 96 362;#P connect 18 0 8 1;#P connect 14 1 11 2;#P connect 19 0 18 0;#P connect 18 0 20 0;#P connect 20 0 21 0;#P connect 20 1 22 0;#P pop;