{
	"patcher" : 	{
		"fileversion" : 1,
		"rect" : [ 14.0, 218.0, 593.0, 336.0 ],
		"bglocked" : 0,
		"defrect" : [ 14.0, 218.0, 593.0, 336.0 ],
		"openrect" : [ 0.0, 0.0, 0.0, 0.0 ],
		"openinpresentation" : 0,
		"default_fontsize" : 12.0,
		"default_fontface" : 0,
		"default_fontname" : "Arial",
		"gridonopen" : 0,
		"gridsize" : [ 15.0, 15.0 ],
		"gridsnaponopen" : 0,
		"toolbarvisible" : 1,
		"boxanimatetime" : 200,
		"imprint" : 0,
		"enablehscroll" : 1,
		"enablevscroll" : 1,
		"devicewidth" : 0.0,
		"boxes" : [ 			{
				"box" : 				{
					"color" : [ 0.6, 0.4, 0.6, 1.0 ],
					"fontname" : "Arial",
					"fontsize" : 9.0,
					"id" : "obj-24",
					"maxclass" : "newobj",
					"numinlets" : 0,
					"numoutlets" : 1,
					"outlettype" : [ "bang" ],
					"patching_rect" : [ 398.0, 24.0, 122.0, 17.0 ],
					"text" : "moduleinit #1"
				}

			}
, 			{
				"box" : 				{
					"color" : [ 0.6, 0.4, 0.6, 1.0 ],
					"fontname" : "Arial",
					"fontsize" : 9.0,
					"id" : "obj-33",
					"maxclass" : "newobj",
					"numinlets" : 2,
					"numoutlets" : 2,
					"outlettype" : [ "", "int" ],
					"patching_rect" : [ 299.0, 140.0, 240.0, 17.0 ],
					"text" : "makeparam #1/slidedown #1 f 0 0 10000 1"
				}

			}
, 			{
				"box" : 				{
					"color" : [ 0.6, 0.4, 0.6, 1.0 ],
					"fontname" : "Arial",
					"fontsize" : 9.0,
					"id" : "obj-74",
					"maxclass" : "newobj",
					"numinlets" : 2,
					"numoutlets" : 2,
					"outlettype" : [ "", "int" ],
					"patching_rect" : [ 184.0, 108.0, 228.0, 17.0 ],
					"text" : "makeparam #1/slideup #1 f 0 0 10000 1"
				}

			}
, 			{
				"box" : 				{
					"color" : [ 0.6, 0.4, 0.6, 1.0 ],
					"fontname" : "Arial",
					"fontsize" : 9.0,
					"id" : "obj-70",
					"maxclass" : "newobj",
					"numinlets" : 2,
					"numoutlets" : 1,
					"outlettype" : [ "" ],
					"patching_rect" : [ 35.0, 25.0, 257.0, 17.0 ],
					"text" : "makeswitch #1/sw #1 ct_switchstate 0"
				}

			}
, 			{
				"box" : 				{
					"fontname" : "Arial",
					"fontsize" : 9.0,
					"id" : "obj-72",
					"linecount" : 4,
					"maxclass" : "message",
					"numinlets" : 2,
					"numoutlets" : 1,
					"outlettype" : [ "" ],
					"patching_rect" : [ 398.0, 50.0, 131.0, 46.0 ],
					"text" : ";\r#1/sw/init bang;\r#1/slideup/init bang;\r#1/slidedown/init bang;\r"
				}

			}
, 			{
				"box" : 				{
					"fontname" : "Arial",
					"fontsize" : 9.0,
					"id" : "obj-1",
					"linecount" : 2,
					"maxclass" : "comment",
					"numinlets" : 1,
					"numoutlets" : 0,
					"patching_rect" : [ 400.0, 253.0, 107.0, 27.0 ],
					"text" : "patch by Tom Mays contact@tommays.net"
				}

			}
, 			{
				"box" : 				{
					"color" : [ 0.6, 0.4, 0.6, 1.0 ],
					"fontname" : "Arial",
					"fontsize" : 9.0,
					"id" : "obj-2",
					"maxclass" : "newobj",
					"numinlets" : 1,
					"numoutlets" : 0,
					"patching_rect" : [ 229.0, 234.0, 97.0, 17.0 ],
					"text" : "s #1/jdispout"
				}

			}
, 			{
				"box" : 				{
					"color" : [ 0.6, 0.4, 0.6, 1.0 ],
					"fontname" : "Arial",
					"fontsize" : 9.0,
					"id" : "obj-3",
					"maxclass" : "newobj",
					"numinlets" : 1,
					"numoutlets" : 0,
					"patching_rect" : [ 127.0, 267.0, 97.0, 17.0 ],
					"text" : "s #1/out"
				}

			}
, 			{
				"box" : 				{
					"color" : [ 0.6, 0.4, 0.6, 1.0 ],
					"fontname" : "Arial",
					"fontsize" : 9.0,
					"id" : "obj-4",
					"maxclass" : "newobj",
					"numinlets" : 0,
					"numoutlets" : 1,
					"outlettype" : [ "" ],
					"patching_rect" : [ 146.0, 60.0, 97.0, 17.0 ],
					"text" : "r #1/in"
				}

			}
, 			{
				"box" : 				{
					"fontname" : "Arial",
					"fontsize" : 9.0,
					"id" : "obj-5",
					"maxclass" : "newobj",
					"numinlets" : 1,
					"numoutlets" : 2,
					"outlettype" : [ "", "" ],
					"patching_rect" : [ 127.0, 234.0, 60.0, 17.0 ],
					"text" : "jit.softVNS"
				}

			}
, 			{
				"box" : 				{
					"fontname" : "Arial",
					"fontsize" : 9.0,
					"id" : "obj-6",
					"maxclass" : "newobj",
					"numinlets" : 2,
					"numoutlets" : 1,
					"outlettype" : [ "int" ],
					"patching_rect" : [ 35.0, 94.0, 27.0, 17.0 ],
					"text" : "+ 1"
				}

			}
, 			{
				"box" : 				{
					"fontname" : "Arial",
					"fontsize" : 9.0,
					"id" : "obj-7",
					"maxclass" : "newobj",
					"numinlets" : 2,
					"numoutlets" : 2,
					"outlettype" : [ "", "" ],
					"patching_rect" : [ 90.0, 112.0, 47.0, 17.0 ],
					"saved_object_attributes" : 					{
						"downsize_buffers" : 1,
						"rate_divider" : 1,
						"stream_stays_open" : 0,
						"bypass" : 0,
						"planes" : [ "default", "default", "default", "default" ],
						"skip_dropped" : 0
					}
,
					"text" : "v.gate 2"
				}

			}
, 			{
				"box" : 				{
					"fontname" : "Arial",
					"fontsize" : 9.0,
					"id" : "obj-8",
					"maxclass" : "newobj",
					"numinlets" : 1,
					"numoutlets" : 1,
					"outlettype" : [ "" ],
					"patching_rect" : [ 127.0, 133.0, 30.0, 17.0 ],
					"saved_object_attributes" : 					{
						"downsize_buffers" : 0,
						"rate_divider" : 1,
						"bypass" : 0,
						"planes" : [ "default", "default", "default", "default" ],
						"skip_dropped" : 0
					}
,
					"text" : "v.jit"
				}

			}
, 			{
				"box" : 				{
					"fontname" : "Times Roman",
					"fontsize" : 12.0,
					"id" : "obj-9",
					"maxclass" : "comment",
					"numinlets" : 1,
					"numoutlets" : 0,
					"patching_rect" : [ 400.0, 195.0, 82.0, 18.0 ],
					"text" : "vns in / vns out"
				}

			}
, 			{
				"box" : 				{
					"fontname" : "Times Roman",
					"fontsize" : 18.0,
					"id" : "obj-10",
					"maxclass" : "comment",
					"numinlets" : 1,
					"numoutlets" : 0,
					"patching_rect" : [ 400.0, 173.0, 52.0, 24.0 ],
					"text" : "j.slide"
				}

			}
, 			{
				"box" : 				{
					"bgcolor" : [ 0.866667, 0.866667, 0.866667, 1.0 ],
					"fontname" : "Arial",
					"fontsize" : 9.0,
					"htextcolor" : [ 0.870588, 0.870588, 0.870588, 1.0 ],
					"id" : "obj-15",
					"maxclass" : "flonum",
					"numinlets" : 1,
					"numoutlets" : 2,
					"outlettype" : [ "float", "bang" ],
					"patching_rect" : [ 299.0, 164.0, 35.0, 17.0 ],
					"triscale" : 0.9
				}

			}
, 			{
				"box" : 				{
					"fontname" : "Arial",
					"fontsize" : 9.0,
					"id" : "obj-16",
					"maxclass" : "message",
					"numinlets" : 2,
					"numoutlets" : 1,
					"outlettype" : [ "" ],
					"patching_rect" : [ 299.0, 186.0, 73.0, 15.0 ],
					"text" : "slide_down $1"
				}

			}
, 			{
				"box" : 				{
					"bgcolor" : [ 0.866667, 0.866667, 0.866667, 1.0 ],
					"fontname" : "Arial",
					"fontsize" : 9.0,
					"htextcolor" : [ 0.870588, 0.870588, 0.870588, 1.0 ],
					"id" : "obj-17",
					"maxclass" : "flonum",
					"numinlets" : 1,
					"numoutlets" : 2,
					"outlettype" : [ "float", "bang" ],
					"patching_rect" : [ 184.0, 164.0, 35.0, 17.0 ],
					"triscale" : 0.9
				}

			}
, 			{
				"box" : 				{
					"fontname" : "Arial",
					"fontsize" : 9.0,
					"id" : "obj-18",
					"maxclass" : "message",
					"numinlets" : 2,
					"numoutlets" : 1,
					"outlettype" : [ "" ],
					"patching_rect" : [ 184.0, 186.0, 60.0, 15.0 ],
					"text" : "slide_up $1"
				}

			}
, 			{
				"box" : 				{
					"color" : [ 1.0, 0.890196, 0.090196, 1.0 ],
					"fontname" : "Arial",
					"fontsize" : 9.0,
					"id" : "obj-19",
					"maxclass" : "newobj",
					"numinlets" : 1,
					"numoutlets" : 2,
					"outlettype" : [ "jit_matrix", "" ],
					"patching_rect" : [ 127.0, 209.0, 43.0, 17.0 ],
					"text" : "jit.slide"
				}

			}
, 			{
				"box" : 				{
					"id" : "obj-20",
					"maxclass" : "toggle",
					"numinlets" : 1,
					"numoutlets" : 1,
					"outlettype" : [ "int" ],
					"patching_rect" : [ 35.0, 76.0, 15.0, 15.0 ]
				}

			}
, 			{
				"box" : 				{
					"comment" : "jitter stream out",
					"id" : "obj-22",
					"maxclass" : "outlet",
					"numinlets" : 1,
					"numoutlets" : 0,
					"patching_rect" : [ 90.0, 269.0, 15.0, 15.0 ]
				}

			}
, 			{
				"box" : 				{
					"comment" : "jitter stream in",
					"id" : "obj-23",
					"maxclass" : "inlet",
					"numinlets" : 0,
					"numoutlets" : 1,
					"outlettype" : [ "" ],
					"patching_rect" : [ 118.0, 60.0, 15.0, 15.0 ]
				}

			}
, 			{
				"box" : 				{
					"fontname" : "Times Roman",
					"fontsize" : 9.0,
					"id" : "obj-30",
					"maxclass" : "comment",
					"numinlets" : 1,
					"numoutlets" : 0,
					"patching_rect" : [ 400.0, 220.0, 136.0, 15.0 ],
					"text" : "arg 1 : prefix name;"
				}

			}
 ],
		"lines" : [ 			{
				"patchline" : 				{
					"destination" : [ "obj-16", 0 ],
					"hidden" : 0,
					"midpoints" : [  ],
					"source" : [ "obj-15", 0 ]
				}

			}
, 			{
				"patchline" : 				{
					"destination" : [ "obj-19", 0 ],
					"hidden" : 0,
					"midpoints" : [ 308.5, 205.0, 136.5, 205.0 ],
					"source" : [ "obj-16", 0 ]
				}

			}
, 			{
				"patchline" : 				{
					"destination" : [ "obj-18", 0 ],
					"hidden" : 0,
					"midpoints" : [  ],
					"source" : [ "obj-17", 0 ]
				}

			}
, 			{
				"patchline" : 				{
					"destination" : [ "obj-19", 0 ],
					"hidden" : 0,
					"midpoints" : [ 193.5, 205.0, 136.5, 205.0 ],
					"source" : [ "obj-18", 0 ]
				}

			}
, 			{
				"patchline" : 				{
					"destination" : [ "obj-2", 0 ],
					"hidden" : 0,
					"midpoints" : [ 136.5, 230.0, 238.5, 230.0 ],
					"source" : [ "obj-19", 0 ]
				}

			}
, 			{
				"patchline" : 				{
					"destination" : [ "obj-5", 0 ],
					"hidden" : 0,
					"midpoints" : [  ],
					"source" : [ "obj-19", 0 ]
				}

			}
, 			{
				"patchline" : 				{
					"destination" : [ "obj-6", 0 ],
					"hidden" : 0,
					"midpoints" : [  ],
					"source" : [ "obj-20", 0 ]
				}

			}
, 			{
				"patchline" : 				{
					"destination" : [ "obj-7", 1 ],
					"hidden" : 0,
					"midpoints" : [  ],
					"source" : [ "obj-23", 0 ]
				}

			}
, 			{
				"patchline" : 				{
					"destination" : [ "obj-72", 0 ],
					"hidden" : 0,
					"midpoints" : [  ],
					"source" : [ "obj-24", 0 ]
				}

			}
, 			{
				"patchline" : 				{
					"destination" : [ "obj-15", 0 ],
					"hidden" : 0,
					"midpoints" : [  ],
					"source" : [ "obj-33", 0 ]
				}

			}
, 			{
				"patchline" : 				{
					"destination" : [ "obj-7", 1 ],
					"hidden" : 0,
					"midpoints" : [  ],
					"source" : [ "obj-4", 0 ]
				}

			}
, 			{
				"patchline" : 				{
					"destination" : [ "obj-22", 0 ],
					"hidden" : 0,
					"midpoints" : [  ],
					"source" : [ "obj-5", 0 ]
				}

			}
, 			{
				"patchline" : 				{
					"destination" : [ "obj-3", 0 ],
					"hidden" : 0,
					"midpoints" : [  ],
					"source" : [ "obj-5", 0 ]
				}

			}
, 			{
				"patchline" : 				{
					"destination" : [ "obj-7", 0 ],
					"hidden" : 0,
					"midpoints" : [  ],
					"source" : [ "obj-6", 0 ]
				}

			}
, 			{
				"patchline" : 				{
					"destination" : [ "obj-22", 0 ],
					"hidden" : 0,
					"midpoints" : [  ],
					"source" : [ "obj-7", 0 ]
				}

			}
, 			{
				"patchline" : 				{
					"destination" : [ "obj-3", 0 ],
					"hidden" : 0,
					"midpoints" : [ 99.5, 256.0, 136.5, 256.0 ],
					"source" : [ "obj-7", 0 ]
				}

			}
, 			{
				"patchline" : 				{
					"destination" : [ "obj-8", 0 ],
					"hidden" : 0,
					"midpoints" : [  ],
					"source" : [ "obj-7", 1 ]
				}

			}
, 			{
				"patchline" : 				{
					"destination" : [ "obj-20", 0 ],
					"hidden" : 0,
					"midpoints" : [  ],
					"source" : [ "obj-70", 0 ]
				}

			}
, 			{
				"patchline" : 				{
					"destination" : [ "obj-17", 0 ],
					"hidden" : 0,
					"midpoints" : [  ],
					"source" : [ "obj-74", 0 ]
				}

			}
, 			{
				"patchline" : 				{
					"destination" : [ "obj-19", 0 ],
					"hidden" : 0,
					"midpoints" : [  ],
					"source" : [ "obj-8", 0 ]
				}

			}
 ]
	}

}
