max v2;#N vpatcher 29 131 936 661;#P origin 0 -41;#P window setfont "Sans Serif" 9.;#P window linecount 2;#P comment 696 442 107 196617 patch by Tom Mays contact@tommays.net;#P window linecount 1;#P newex 733 288 113 196617 s $1-previewmixmode;#B color 11;#P message 733 162 29 196617 copy;#P message 733 234 45 196617 sub_mod;#P message 733 216 23 196617 sub;#P message 733 198 45 196617 add_mod;#P message 733 180 23 196617 add;#P message 733 270 27 196617 max;#P message 733 252 24 196617 min;#P newex 312 145 166 196617 r $1-previewmixmode;#B color 11;#P newex 255 448 118 196617 s $1-previewcomposite;#B color 11;#P newex 139 470 100 196617 s $1-previewmixed;#B color 11;#P newex 139 440 58 196617 v.idleblack;#P newex 139 420 38 196617 v.gate;#P newex 255 428 58 196617 v.idleblack;#P newex 255 408 38 196617 v.gate;#P toggle 255 72 15 0;#P toggle 19 49 15 0;#P newex 19 69 63 196617 v.gate;#P newex 19 27 134 196617 r $1-sw;#B color 11;#P newex 283 107 31 196617 == 0;#P newex 255 52 151 196617 r $1-preview;#B color 11;#P toggle 733 89 15 0;#P newex 733 49 67 196617 loadmess $3;#P newex 733 69 31 196617 == 0;#P newex 733 111 38 196617 gate 1;#P newex 733 131 80 196617 s $1-init;#B color 11;#P newex 761 91 70 196617 r camtrk-init;#B color 11;#P newex 516 52 80 196617 r $1-init;#B color 11;#P window linecount 14;#P message 516 78 193 196617 \; $1-sw 0 \; $1-crop1-sw 0 \; $1-crop2-sw 0 \; $1-crop3-sw 0 \; $1-crop4-sw 0 \; $1-crop1-xyxy 0 0 0 0 \; $1-crop2-xyxy 0 0 0 0 \; $1-crop3-xyxy 0 0 0 0 \; $1-crop4-xyxy 0 0 0 0 \; $1-editnumber 0 \; $1-preview 0 \; $1-previewmixmode max \; $1-moreactive 0;#P flonum 133 367 35 9 0. 0 1 3 0 0 0 221 221 221 222 222 222 0 0 0;#P flonum 95 367 35 9 0. 0 1 3 0 0 0 221 221 221 222 222 222 0 0 0;#P window linecount 1;#P newex 98 95 98 196617 ct_crop1 $1-crop1;#B color 6;#N comlet crop1-out;#P outlet 98 117 15 0;#P newex 108 142 98 196617 ct_crop1 $1-crop2;#B color 6;#N comlet crop2-out;#P outlet 108 164 15 0;#P newex 118 189 98 196617 ct_crop1 $1-crop3;#B color 6;#N comlet crop3-out;#P outlet 118 211 15 0;#P newex 128 236 98 196617 ct_crop1 $1-crop4;#B color 6;#P message 283 127 56 196617 bypass \$1;#N comlet crop4-out;#P outlet 128 258 15 0;#P inlet 72 49 15 0;#P newex 104 339 63 196617 loadmess 1.;#P newex 67 390 53 196617 v.mix;#P newex 283 173 135 196617 v.composite 4 yuv 640 240;#B color 5;#P connect 25 0 27 0;#P connect 27 0 26 0;#P fasten 5 0 1 0 288 152 272 152 272 280 72 280;#P lcolor 14;#P fasten 26 0 1 0 24 321 72 321;#P connect 3 0 26 1;#P fasten 0 0 1 1 288 290 86 290;#P connect 2 0 13 0;#P connect 13 0 1 2;#P fasten 26 0 12 0 24 90 103 90;#P connect 12 0 11 0;#P fasten 26 0 10 0 24 140 113 140;#P connect 10 0 9 0;#P fasten 14 0 1 3 138 386 114 386;#P fasten 26 0 8 0 24 187 123 187;#P connect 8 0 7 0;#P fasten 26 0 6 0 24 234 133 234;#P connect 6 0 4 0;#P connect 2 0 14 0;#P fasten 28 0 31 0 260 400 144 400;#P lcolor 5;#P connect 31 0 32 0;#P connect 32 0 33 0;#P fasten 1 0 31 1 72 413 172 413;#P connect 23 0 28 0;#P connect 28 0 29 0;#P lcolor 5;#P connect 29 0 30 0;#P connect 30 0 34 0;#P connect 28 0 24 0;#P lcolor 5;#P connect 24 0 5 0;#P connect 35 0 0 0;#P connect 12 1 0 0;#P connect 5 0 0 0;#P connect 0 0 29 1;#P connect 10 1 0 1;#P connect 8 1 0 2;#P connect 6 1 0 3;#P connect 16 0 15 0;#P connect 21 0 20 0;#P connect 20 0 22 0;#P connect 22 0 19 0;#P connect 19 0 18 0;#P connect 37 0 43 0;#P connect 36 0 43 0;#P connect 41 0 43 0;#P connect 40 0 43 0;#P connect 39 0 43 0;#P connect 38 0 43 0;#P connect 42 0 43 0;#P connect 17 0 19 1;#P pop;