max v2;#N vpatcher 352 160 1384 629;#P origin -64 443;#P window setfont "Sans Serif" 9.;#P window linecount 1;#P hidden newex 1619 551 99 196617 s $1/8/sendto/init;#B color 11;#P hidden newex 1619 530 163 196617 route bang;#P hidden newex 1619 508 56 196617 route text;#P hidden newex 1619 485 94 196617 pvar $1/8/sendto;#B color 13;#P hidden newex 1619 462 92 196617 vari $1/8/sendto;#B color 5;#P hidden newex 1618 421 59 196617 pvar $1/8;#P hidden newex 1618 392 57 196617 vari $1/8;#P hidden newex 1426 551 99 196617 s $1/7/sendto/init;#B color 11;#P hidden newex 1426 530 163 196617 route bang;#P hidden newex 1426 508 56 196617 route text;#P hidden newex 1426 485 94 196617 pvar $1/7/sendto;#B color 13;#P hidden newex 1426 462 92 196617 vari $1/7/sendto;#B color 5;#P hidden newex 1425 421 59 196617 pvar $1/7;#P hidden newex 1425 392 57 196617 vari $1/7;#P window setfont Times 9.;#P user textedit 171 146 243 161 32896 20 9;#P objectname $1/8/sendto;#P window setfont "Sans Serif" 9.;#P number 134 146 35 9 0 0 160 3 0 0 0 221 221 221 222 222 222 0 0 0;#P objectname $1/8;#P comment 134 132 109 196617 $1/8;#P window setfont Times 9.;#P user textedit 55 146 127 161 32896 20 9;#P objectname $1/7/sendto;#P window setfont "Sans Serif" 9.;#P number 18 146 35 9 0 0 160 3 0 0 0 221 221 221 222 222 222 0 0 0;#P objectname $1/7;#P comment 18 132 109 196617 $1/7;#P hidden newex 1247 550 99 196617 s $1/6/sendto/init;#B color 11;#P hidden newex 1247 529 163 196617 route bang;#P hidden newex 1247 507 56 196617 route text;#P hidden newex 1247 484 94 196617 pvar $1/6/sendto;#B color 13;#P hidden newex 1247 461 92 196617 vari $1/6/sendto;#B color 5;#P hidden newex 1246 420 59 196617 pvar $1/6;#P hidden newex 1246 391 57 196617 vari $1/6;#P newex 823 394 99 196617 s $1/5/sendto/init;#B color 11;#P newex 823 373 163 196617 route bang;#P newex 823 351 56 196617 route text;#P newex 823 328 94 196617 pvar $1/5/sendto;#B color 13;#P newex 823 305 92 196617 vari $1/5/sendto;#B color 5;#P newex 822 264 59 196617 pvar $1/5;#P newex 822 235 57 196617 vari $1/5;#P newex 630 394 99 196617 s $1/4/sendto/init;#B color 11;#P newex 630 373 163 196617 route bang;#P newex 630 351 56 196617 route text;#P newex 630 328 94 196617 pvar $1/4/sendto;#B color 13;#P newex 630 305 92 196617 vari $1/4/sendto;#B color 5;#P newex 629 264 59 196617 pvar $1/4;#P newex 629 235 57 196617 vari $1/4;#P newex 437 394 99 196617 s $1/3/sendto/init;#B color 11;#P newex 437 373 163 196617 route bang;#P newex 437 351 56 196617 route text;#P newex 437 328 94 196617 pvar $1/3/sendto;#B color 13;#P newex 437 305 92 196617 vari $1/3/sendto;#B color 5;#P newex 436 264 59 196617 pvar $1/3;#P newex 436 235 57 196617 vari $1/3;#P newex 244 394 99 196617 s $1/2/sendto/init;#B color 11;#P newex 244 373 163 196617 route bang;#P newex 244 351 56 196617 route text;#P newex 244 328 94 196617 pvar $1/2/sendto;#B color 13;#P newex 244 305 92 196617 vari $1/2/sendto;#B color 5;#P newex 243 264 59 196617 pvar $1/2;#P newex 243 235 57 196617 vari $1/2;#P window setfont Times 9.;#P user textedit 171 113 243 128 32896 20 9;#P objectname $1/6/sendto;#P window setfont "Sans Serif" 9.;#P number 134 113 35 9 0 0 160 3 0 0 0 221 221 221 222 222 222 0 0 0;#P objectname $1/6;#P comment 134 99 109 196617 $1/6;#P window setfont Times 9.;#P user textedit 55 113 127 128 32896 20 9;#P objectname $1/5/sendto;#P window setfont "Sans Serif" 9.;#P number 18 113 35 9 0 0 160 3 0 0 0 221 221 221 222 222 222 0 0 0;#P objectname $1/5;#P comment 18 99 109 196617 $1/5;#P window setfont Times 9.;#P user textedit 171 79 243 94 32896 20 9;#P objectname $1/4/sendto;#P window setfont "Sans Serif" 9.;#P number 134 79 35 9 0 0 160 3 0 0 0 221 221 221 222 222 222 0 0 0;#P objectname $1/4;#P comment 134 65 109 196617 $1/4;#P window setfont Times 9.;#P user textedit 55 79 127 94 32896 20 9;#P objectname $1/3/sendto;#P window setfont "Sans Serif" 9.;#P number 18 79 35 9 0 0 160 3 0 0 0 221 221 221 222 222 222 0 0 0;#P objectname $1/3;#P comment 18 65 109 196617 $1/3;#P window setfont Times 9.;#P user textedit 171 46 243 61 32896 20 9;#P objectname $1/2/sendto;#P window setfont "Sans Serif" 9.;#P number 134 46 35 9 0 0 160 3 0 0 0 221 221 221 222 222 222 0 0 0;#P objectname $1/2;#P comment 134 32 109 196617 $1/2;#P window setfont Times 9.;#P user textedit 55 46 127 61 32896 20 9;#P objectname $1/1/sendto;#P window setfont "Sans Serif" 9.;#P newex 51 394 99 196617 s $1/1/sendto/init;#B color 11;#P newex 51 373 163 196617 route bang;#P newex 51 351 56 196617 route text;#P newex 51 328 94 196617 pvar $1/1/sendto;#B color 13;#P newex 51 305 149 196617 vari $1/1/sendto;#B color 5;#P hidden newex 275 -1 98 196617 r $1/typeinterface;#B color 12;#P window linecount 2;#P hidden comment 286 136 107 196617 patch by Tom Mays contact@tommays.net;#P window linecount 4;#P hidden comment 276 39 141 196617 arg 1 : module name \; arg 2: color scheme choice (0=movie \, 1=tape \, 2=camtrk \, 3=conduite);#P window linecount 1;#P hidden comment 276 22 100 196617 panel = 256 X 62;#P hidden comment 276 5 118 196617 <- name = "background";#P newex 50 264 106 196617 pvar $1/1;#P newex 50 235 57 196617 vari $1/1;#P number 18 46 35 9 0 0 160 3 0 0 0 221 221 221 222 222 222 0 0 0;#P objectname $1/1;#P comment 18 32 109 196617 $1/1;#P bpatcher 0 0 256 186 0 0 bkgnd3.mxt 0 $1 0 3;#P objectname background;#P fasten 4 0 3 0 55 289 38 289 38 227 55 227;#P connect 3 0 4 0;#P fasten 13 1 10 0 209 420 39 420 39 300 56 300;#P connect 10 0 11 0;#P connect 11 0 12 0;#P connect 12 0 13 0;#P connect 13 0 14 0;#P fasten 32 0 31 0 248 289 231 289 231 227 248 227;#P connect 31 0 32 0;#P fasten 36 1 33 0 402 420 232 420 232 300 249 300;#P connect 33 0 34 0;#P connect 34 0 35 0;#P connect 35 0 36 0;#P connect 36 0 37 0;#P fasten 39 0 38 0 441 289 424 289 424 227 441 227;#P connect 38 0 39 0;#P fasten 43 1 40 0 595 420 425 420 425 300 442 300;#P connect 40 0 41 0;#P connect 41 0 42 0;#P connect 42 0 43 0;#P connect 43 0 44 0;#P fasten 46 0 45 0 634 289 617 289 617 227 634 227;#P connect 45 0 46 0;#P fasten 50 1 47 0 788 420 618 420 618 300 635 300;#P connect 47 0 48 0;#P connect 48 0 49 0;#P connect 49 0 50 0;#P connect 50 0 51 0;#P fasten 53 0 52 0 827 289 810 289 810 227 827 227;#P connect 52 0 53 0;#P fasten 57 1 54 0 981 420 811 420 811 300 828 300;#P connect 54 0 55 0;#P connect 55 0 56 0;#P connect 56 0 57 0;#P connect 57 0 58 0;#P hidden fasten 60 0 59 0 1251 445 1234 445 1234 383 1251 383;#P hidden connect 59 0 60 0;#P hidden fasten 64 1 61 0 1405 576 1235 576 1235 456 1252 456;#P hidden connect 61 0 62 0;#P hidden connect 62 0 63 0;#P hidden connect 63 0 64 0;#P hidden connect 64 0 65 0;#P hidden fasten 73 0 72 0 1430 446 1413 446 1413 384 1430 384;#P hidden connect 72 0 73 0;#P hidden fasten 77 1 74 0 1584 577 1414 577 1414 457 1431 457;#P hidden connect 74 0 75 0;#P hidden connect 75 0 76 0;#P hidden connect 76 0 77 0;#P hidden connect 77 0 78 0;#P hidden fasten 80 0 79 0 1623 446 1606 446 1606 384 1623 384;#P hidden connect 79 0 80 0;#P hidden fasten 84 1 81 0 1777 577 1607 577 1607 457 1624 457;#P hidden connect 81 0 82 0;#P hidden connect 82 0 83 0;#P hidden connect 83 0 84 0;#P hidden connect 84 0 85 0;#P pop;