max v2;#N vpatcher 549 284 973 475;#P origin -17 -55;#P window setfont "Sans Serif" 9.;#P newex 6 46 44 196617 s ffggff;#P hidden inlet 145 152 15 0;#P hidden newex 61 57 39 196617 t print;#P message 119 14 200 196617 print available devices to the Max Window;#P hidden inlet 3 -23 17 0;#P hidden newex 20 -23 40 196617 t front;#N thispatcher;#Q end;#P hidden newobj 60 -23 61 196617 thispatcher;#P newex 13 0 59 196617 r to_serial;#P hidden newex 13 150 138 196617 udpsend 192.168.1.2 22226;#P newex 24 18 92 196617 udpreceive 22225;#P hidden newex 163 193 98 196617 s cam.serial.choose;#P toggle 42 59 15 0;#P hidden newex 302 176 92 196617 bgcolor 0 255 128;#P message 231 69 14 196617 f;#P message 208 69 14 196617 e;#P message 185 69 14 196617 d;#P hidden button 334 112 15 0;#P hidden newex 334 133 48 196617 delay 10;#P message 163 69 14 196617 c;#P hidden newex 266 134 65 196617 prepend port;#P message 163 135 50 196617 port b;#B color 12;#P hidden newex 266 157 62 196617 prepend set;#P message 141 69 14 196617 b;#P message 119 69 14 196617 a;#P window setfont "Sans Serif" 18.;#P comment 163 32 209 196626 choose keyspan-port;#P user panel 118 33 275 26;#X brgb 255 255 0;#X frgb 0 0 0;#X border 1;#X rounded 0;#X shadow 0;#X done;#P window setfont "Sans Serif" 9.;#P window linecount 4;#P comment 288 68 100 196617 it depend on your machine: a=modem \, b=irDa \, c=usb1 \, d=usb2 \, etc...;#P window linecount 2;#P comment 119 88 164 196617 Default Camera_control Keyspan port: b;#P window linecount 1;#P comment 162 119 100 196617 port choosen:;#P newex 42 37 69 196617 r serial.reply;#P newex 25 126 70 196617 s visca_reply;#P newex 42 80 50 196617 metro 33;#P newex 13 103 98 196617 serial a 9600 8 1 0;#P connect 23 0 32 0;#P connect 23 0 0 0;#P connect 1 0 0 0;#P hidden connect 30 0 0 0;#P connect 25 0 0 0;#P hidden connect 12 0 0 0;#P hidden connect 0 0 24 0;#P hidden connect 31 0 24 0;#P hidden connect 28 0 27 0;#P connect 0 0 2 0;#P connect 3 0 21 0;#P connect 21 0 1 0;#P hidden connect 27 0 26 0;#P hidden connect 29 0 30 0;#P hidden fasten 11 0 12 0 271 182 168 182;#P hidden fasten 15 0 12 0 339 182 168 182;#P hidden connect 12 0 22 0;#P hidden fasten 9 0 13 0 124 127 271 127;#P hidden fasten 14 0 13 0 168 127 271 127;#P hidden fasten 19 0 13 0 236 127 271 127;#P hidden fasten 18 0 13 0 213 127 271 127;#P hidden fasten 17 0 13 0 190 127 271 127;#P hidden fasten 10 0 13 0 146 127 271 127;#P hidden connect 13 0 11 0;#P hidden fasten 9 0 16 0 124 127 339 127;#P hidden fasten 10 0 16 0 146 127 339 127;#P hidden fasten 14 0 16 0 168 127 339 127;#P hidden connect 16 0 15 0;#P pop;