max v2;#N vpatcher 100 277 1370 831;#P origin 0 -78;#P user hslider 106 81 18 128 50000 1 0 0;#P objectname timeslide;#P window setfont "Sans Serif" 9.;#P window linecount 1;#P message 545 352 40 196617 50000;#P toggle 821 279 15 0;#P toggle 694 281 15 0;#P toggle 544 280 15 0;#P toggle 378 277 15 0;#P user ubumenu 1164 356 100 196617 0 1 1 0;#X add all_8-27-2008_12h14m23s.txt;#X add depress_8-27-2008_12h4m39s.txt;#X add depress_8-27-2008_12h5m18s.txt;#X add joie_8-27-2008_12h11m30s.txt;#X add relax_8-27-2008_12h8m8s.txt;#X add s_server.maxpat;#X add stress_8-27-2008_11h50m26s.txt;#X add stress_8-27-2008_11h56m54s.txt;#X add stress_8-27-2008_12h0m47s.txt;#X prefix_set 0 0 <none> 0;#P user ubumenu 73 103 176 196617 0 1 1 0;#X add all_8-27-2008_12h14m23s.txt;#X add depress_8-27-2008_12h4m39s.txt;#X add depress_8-27-2008_12h5m18s.txt;#X add joie_8-27-2008_12h11m30s.txt;#X add relax_8-27-2008_12h8m8s.txt;#X add s_server.maxpat;#X add stress_8-27-2008_11h50m26s.txt;#X add stress_8-27-2008_11h56m54s.txt;#X add stress_8-27-2008_12h0m47s.txt;#X prefix_set 0 0 <none> 0;#P objectname filemenu;#P button 58 103 15 0;#P objectname filebang;#P newex 1086 144 69 196617 pvar filebang;#P toggle 21 21 15 0;#P objectname preview;#P comment 37 21 57 196617 /preview;#P newex 1107 586 83 196617 variedit $1/file;#P newex 1107 557 72 196617 sprintf %s%s;#P newex 998 418 62 196617 prepend set;#P window linecount 5;#P message 998 449 135 196617 OsX:/Users/pach/Documents/taff/MAXMSP/svnDida/workshops/SPECTACLES/eNTERFACE/media/;#P window linecount 1;#P newex 1087 421 30 196617 t b s;#P newex 1087 397 78 196617 regexp (.+).txt;#P newex 1087 376 51 196617 strippath;#P newex 1086 337 72 196617 pvar filemenu;#P newex 1086 313 37 196617 folder;#P newex 1086 268 69 196617 route symbol;#N coll filepaths.txt;#P newobj 1086 244 85 196617 coll filepaths.txt;#P message 1187 220 61 196617 types TEXT;#P message 1086 220 49 196617 replayer;#P newex 1086 168 30 196617 t b b;#P newex 1086 121 78 196617 r $1/file/bang;#P newex 613 409 75 196617 pvar timeslide;#P newex 700 380 62 196617 prepend set;#P newex 613 380 66 196617 prepend size;#P newex 700 351 91 196617 r $1/currenttime;#P newex 613 351 80 196617 r $1/indexmax;#P user jit.pwindow 18 37 82 62 0 1 0 0 1 0;#P objectname previewwindow;#P newex 403 353 105 196617 pvar previewwindow;#P newex 403 324 29 196617 gate;#P newex 436 296 64 196617 r $1/movie;#P number 215 64 35 9 0 0 0 3 0 0 0 221 221 221 222 222 222 0 0 0;#P objectname time;#P newex 776 444 54 196617 pvar time;#P newex 823 255 56 196617 pvar print;#P newex 698 253 52 196617 pvar loop;#P newex 554 253 53 196617 pvar play;#P newex 403 253 71 196617 pvar preview;#P toggle 158 22 15 0;#P objectname print;#P comment 104 22 63 196617 /print/sw;#P toggle 218 43 15 0;#P objectname loop;#P comment 183 44 33 196617 /loop;#P toggle 218 23 15 0;#P objectname play;#P comment 184 23 31 196617 /play;#P newex 837 444 88 196617 variedit $1/time;#P newex 823 229 109 196617 variedit $1/print/sw;#P newex 698 229 86 196617 variedit $1/loop;#P newex 554 229 87 196617 variedit $1/play;#P newex 403 230 105 196617 variedit $1/preview;#P comment 180 65 37 196617 /time;#P bpatcher -1 0 257 125 0 0 bkgnd2.mxt 0 $1;#P objectname background;#P connect 13 0 49 0;#P connect 13 0 2 0;#P connect 2 0 13 0;#P connect 13 0 20 0;#P connect 20 0 21 0;#P connect 19 0 20 1;#P connect 14 0 50 0;#P connect 14 0 3 0;#P connect 3 0 14 0;#P connect 23 0 25 0;#P connect 53 0 25 0;#P fasten 26 0 27 0 705 403 618 403;#P connect 25 0 27 0;#P connect 15 0 51 0;#P connect 15 0 4 0;#P connect 4 0 15 0;#P connect 24 0 26 0;#P fasten 27 0 17 0 618 441 781 441;#P connect 6 0 17 0;#P connect 16 0 52 0;#P connect 16 0 5 0;#P connect 5 0 16 0;#P connect 17 0 6 0;#P fasten 33 0 40 0 1091 293 1003 293;#P fasten 38 0 39 0 1092 440 1003 440;#P connect 40 0 39 0;#P connect 28 0 45 0;#P connect 45 0 29 0;#P connect 29 0 30 0;#P connect 30 0 32 0;#P connect 32 0 33 0;#P connect 33 0 34 0;#P fasten 31 0 34 0 1192 304 1091 304;#P connect 34 0 35 0;#P fasten 48 1 36 0 1214 374 1092 374;#P connect 36 0 37 0;#P connect 37 1 38 0;#P fasten 39 0 41 0 1003 539 1112 539;#P connect 41 0 42 0;#P fasten 34 0 48 0 1091 336 1169 336;#P fasten 35 0 48 0 1091 355 1169 355;#P connect 38 1 41 1;#P fasten 29 1 31 0 1111 202 1192 202;#P pop;