max v2;#N vpatcher 159 471 661 678;#P origin 0 -8;#P window setfont "Sans Serif" 9.;#P window linecount 1;#P newex 52 29 48 196617 loadbang;#P outlet 20 158 15 0;#P inlet 20 110 15 0;#P window linecount 3;#P message 52 49 202 196617 \; $1/cal/min/init bang \; $1/cal/max/init bang \;;#P window linecount 1;#P comment 228 163 100 196617 arg2 = inmax;#P comment 228 150 100 196617 arg1 = inmin;#P newex 90 112 356 196617 makeparam $1/cal/max $1 f $3 0 127 0;#B color 13;#P newex 55 92 353 196617 makeparam $1/cal/min $1 f $2 0 127 0;#B color 13;#P newex 20 134 186 196617 scale $2 $3 0. 1.;#P connect 6 0 0 0;#P connect 0 0 7 0;#P connect 8 0 5 0;#P connect 1 0 0 1;#P connect 2 0 0 2;#P pop;