max v2;#N vpatcher 750 313 1190 633;#P window setfont "Sans Serif" 9.;#P window linecount 2;#P comment 286 246 107 196617 patch by Tom Mays contact@tommays.net;#P window setfont "Sans Serif" 12.;#P window linecount 1;#P comment 34 1 75 196620 udpreceive;#B frgb 255 0 0;#P window setfont "Sans Serif" 9.;#P newex 112 156 160 196617 print $1/activity;#P newex 112 105 56 196617 pvar print;#P newex 112 131 29 196617 gate;#P window setfont Times 9.;#P comment 152 21 88 1310729 print to max window;#P toggle 236 20 15 0;#P objectname print;#P window setfont "Sans Serif" 9.;#P newex 170 131 70 196617 pvar activity;#P newex 170 105 145 196617 r $1/activity;#B color 5;#P window setfont Times 9.;#P comment 200 40 40 1310729 activity;#P button 236 39 15 0;#P objectname activity;#P window setfont "Sans Serif" 9.;#P number 48 41 57 9 0 99999 67 3 0 0 0 221 221 221 222 222 222 0 0 0;#P objectname port;#P window setfont Times 9.;#P comment 26 42 24 1310729 port;#P window setfont "Sans Serif" 9.;#P window linecount 4;#P comment 276 39 141 196617 arg 1 : module name \; arg 2: color scheme choice (0=movie \, 1=tape \, 2=camtrk \, 3=conduite);#P window linecount 1;#P comment 276 22 100 196617 panel = 256 X 62;#P newex 34 192 161 196617 vari $1/port;#B color 5;#P newex 34 173 53 196617 pvar port;#P comment 276 5 118 196617 <- name = "background";#P bpatcher 0 0 256 62 0 0 bkgnd.mxt 0 $1 0 $2;#P objectname background;#P fasten 3 0 2 0 39 211 31 211 31 171 39 171;#P connect 2 0 3 0;#P connect 15 0 14 0;#P connect 14 0 16 0;#P connect 10 0 14 1;#P connect 10 0 11 0;#P pop;