max v2;#N vpatcher 165 379 1249 975;#P window setfont "Sans Serif" 9.;#P newex 679 37 225 196617 initnamer $1 $2;#B color 5;#P newex 679 62 207 196617 r $1/init;#B color 11;#P window linecount 4;#P message 679 83 202 196617 \; $1/sw/init bang \; $1/cal/min/init bang \; $1/cal/max/init bang \;;#P comment 679 295 197 196617 arg 1: param name to forward \; arg 2: environment name for active params switchstate and for init (i.e. tape \, movie \, camtrk...);#P window setfont "Sans Serif" 18.;#P window linecount 1;#P comment 679 235 79 196626 fwdmap;#P window setfont "Sans Serif" 9.;#P window linecount 2;#P comment 679 263 146 196617 forwarding unit scalecurv function avec direct and clear;#P window linecount 1;#P comment 29 53 100 196617 arg2 = switchstate;#P button 122 261 15 0;#P comment 29 80 100 196617 arg4 = inmax;#P comment 29 67 100 196617 arg3 = inmin;#P newex 141 79 352 196617 makeswitch $1/sw $1 $2;#B color 13;#P newex 211 289 356 196617 makeparam $1/cal/max $1 f 0 0 $4 0 0;#B color 13;#P newex 176 258 353 196617 makeparam $1/cal/min $1 f 0 0 $3 0 0;#B color 13;#P comment 29 93 109 196617 arg5 = speedlim value;#P newex 316 126 187 196617 r $1;#B color 12;#P newex 141 350 99 196617 s $1_;#P newex 141 164 185 196617 gate;#P newex 141 188 65 196617 speedlim $5;#P newex 141 212 208 196617 change 0.;#P newex 141 326 92 196617 scale $3 $4. 0. 1.;#P comment 29 39 100 196617 arg1 = sensor name;#P connect 2 0 13 0;#P connect 10 0 4 0;#P connect 4 0 3 0;#P connect 3 0 2 0;#P connect 2 0 1 0;#P connect 1 0 5 0;#P connect 8 0 1 1;#P connect 9 0 1 2;#P connect 6 0 4 1;#P connect 19 0 18 0;#P pop;