max v2;#N vpatcher 811 45 1107 385;#P window setfont "Sans Serif" 9.;#P hidden newex 211 50 85 196617 r tapemovie/init;#P bpatcher 134 138 123 21 0 0 openbutton.mxt 0 camtrkclientmap "camtrk mapping editors" 122;#P bpatcher 11 252 257 63 0 0 udpsender.edit.mxt 0 /tocamtrk 2;#P bpatcher 9 9 109 109 0 0 activeparams.edit.mxt 0 ctc_activeparams camtrkclient;#P window linecount 2;#P comment 150 95 93 196617 write init sequence to disk;#P button 135 100 15 7;#P hidden message 142 96 137 196617 \; ctc-initsequence-write bang;#P window linecount 1;#P comment 150 77 88 196617 edit init sequence;#P button 135 76 15 12;#P window linecount 2;#P hidden message 142 68 107 196617 \; ctc-initsequence open;#P window linecount 1;#P hidden message 168 154 33 196617 front;#N thispatcher;#Q end;#P hidden newobj 203 152 61 196617 thispatcher;#P hidden newex 168 134 100 196617 r camtrkclient-open;#N vpatcher 87 178 440 623;#P window setfont "Sans Serif" 9.;#P window linecount 1;#P newex 57 71 102 196617 r /camtrkclient/init;#B color 11;#P window setfont "Sans Serif" 12.;#P newex 22 259 227 196620 udpsender /tocamtrk camtrkclient;#B color 6;#P window setfont "Sans Serif" 9.;#P window linecount 0;#N coll camtrkclient 1;#P newobj 191 85 95 196617 coll camtrkclient 1;#B color 5;#P window linecount 1;#P newex 135 43 32 196617 r **;#P window linecount 0;#P newex 191 51 92 196617 r module_register;#B color 11;#P newex 40 44 70 196617 r camtrk-init;#B color 11;#P window setfont "Sans Serif" 12.;#N vpatcher 955 372 1391 660;#P window setfont "Sans Serif" 9.;#P newex 239 235 150 196617 ct_regions.fwdmap /regionsD2;#B color 5;#P newex 239 216 144 196617 ct_regions.fwdmap /regionsD;#B color 5;#P newex 239 197 114 196617 ct_sum.fwdmap /sumD;#B color 5;#P newex 239 178 138 196617 ct_bounds.fwdmap /boundsD;#B color 5;#P newex 239 159 152 196617 ct_centroid.fwdmap /centroidD;#B color 5;#P newex 21 235 150 196617 ct_regions.fwdmap /regionsC2;#B color 5;#P newex 21 216 144 196617 ct_regions.fwdmap /regionsC;#B color 5;#P newex 21 197 114 196617 ct_sum.fwdmap /sumC;#B color 5;#P newex 21 178 138 196617 ct_bounds.fwdmap /boundsC;#B color 5;#P newex 21 159 152 196617 ct_centroid.fwdmap /centroidC;#B color 5;#P newex 239 111 150 196617 ct_regions.fwdmap /regionsB2;#B color 5;#P newex 239 92 144 196617 ct_regions.fwdmap /regionsB;#B color 5;#P newex 239 73 114 196617 ct_sum.fwdmap /sumB;#B color 5;#P newex 239 54 138 196617 ct_bounds.fwdmap /boundsB;#B color 5;#P newex 239 35 152 196617 ct_centroid.fwdmap /centroidB;#B color 5;#P newex 21 111 151 196617 ct_regions.fwdmap /regionsA2;#B color 5;#P newex 21 92 145 196617 ct_regions.fwdmap /regionsA;#B color 5;#P newex 21 73 115 196617 ct_sum.fwdmap /sumA;#B color 5;#P newex 21 54 139 196617 ct_bounds.fwdmap /boundsA;#B color 5;#P newex 21 35 153 196617 ct_centroid.fwdmap /centroidA;#B color 5;#P pop;#P newobj 22 322 85 196620 p fwdmaps;#B color 6;#P window setfont "Sans Serif" 9.;#P newex 22 102 38 196617 del 10;#P button 22 72 15 0;#P bpatcher 22 133 128 62 0 0 qlistinitshell.edit.mxt 0 ctc-initsequence 2;#P newex 135 22 30 196617 r //;#P newex 22 22 96 196617 r camtrkclient/init;#B color 11;#P window setfont "Sans Serif" 12.;#N vpatcher 264 44 804 833;#P origin 0 -7;#P window setfont "Sans Serif" 14.;#P window linecount 0;#P comment 5 586 137 196622 Channel D analysis;#P bpatcher 261 744 256 24 0 0 fwddirect.edit.mxt 0 /regionsD2_listn 2;#P bpatcher 5 698 512 24 0 0 fwdmap.editlong.mxt 0 /boundsD_surface 2;#P bpatcher 5 675 512 24 0 0 fwdmap.editlong.mxt 0 /boundsD_deltay 2;#P bpatcher 5 652 512 24 0 0 fwdmap.editlong.mxt 0 /boundsD_deltax 2;#P bpatcher 5 744 256 24 0 0 fwddirect.edit.mxt 0 /regionsD_listn 2;#P bpatcher 5 721 512 24 0 0 fwdmap.editlong.mxt 0 /sumD_valn 2;#P bpatcher 5 629 512 24 0 0 fwdmap.editlong.mxt 0 /centroidD_y 2;#P bpatcher 5 606 512 24 0 0 fwdmap.editlong.mxt 0 /centroidD_x 2 2;#P comment 5 401 137 196622 Channel C analysis;#P bpatcher 261 559 256 24 0 0 fwddirect.edit.mxt 0 /regionsC2_listn 2;#P bpatcher 5 513 512 24 0 0 fwdmap.editlong.mxt 0 /boundsC_surface 2;#P bpatcher 5 490 512 24 0 0 fwdmap.editlong.mxt 0 /boundsC_deltay 2;#P bpatcher 5 467 512 24 0 0 fwdmap.editlong.mxt 0 /boundsC_deltax 2;#P bpatcher 5 559 256 24 0 0 fwddirect.edit.mxt 0 /regionsC_listn 2;#P bpatcher 5 536 512 24 0 0 fwdmap.editlong.mxt 0 /sumC_valn 2;#P bpatcher 5 444 512 24 0 0 fwdmap.editlong.mxt 0 /centroidC_y 2;#P bpatcher 5 421 512 24 0 0 fwdmap.editlong.mxt 0 /centroidC_x 2 2;#P comment 5 216 137 196622 Channel B analysis;#P bpatcher 261 374 256 24 0 0 fwddirect.edit.mxt 0 /regionsB2_listn 2;#P bpatcher 5 328 512 24 0 0 fwdmap.editlong.mxt 0 /boundsB_surface 2;#P bpatcher 5 305 512 24 0 0 fwdmap.editlong.mxt 0 /boundsB_deltay 2;#P bpatcher 5 282 512 24 0 0 fwdmap.editlong.mxt 0 /boundsB_deltax 2;#P bpatcher 5 374 256 24 0 0 fwddirect.edit.mxt 0 /regionsB_listn 2;#P bpatcher 5 351 512 24 0 0 fwdmap.editlong.mxt 0 /sumB_valn 2;#P bpatcher 5 259 512 24 0 0 fwdmap.editlong.mxt 0 /centroidB_y 2;#P bpatcher 5 236 512 24 0 0 fwdmap.editlong.mxt 0 /centroidB_x 2 2;#P button 350 6 21 6;#P window setfont "Sans Serif" 9.;#P window linecount 2;#P hidden message 374 18 111 196617 \; camtrkclient/init bang;#P window linecount 1;#P comment 371 10 26 196617 INIT;#N thispatcher;#Q end;#P hidden newobj 642 7 61 196617 thispatcher;#P hidden newex 489 7 132 196617 r /camtrkclientmap/editor;#P window setfont "Sans Serif" 14.;#P comment 5 31 137 196622 Channel A analysis;#P bpatcher 261 189 256 24 0 0 fwddirect.edit.mxt 0 /regionsA2_listn 2;#P bpatcher 5 143 512 24 0 0 fwdmap.editlong.mxt 0 /boundsA_surface 2;#P bpatcher 5 120 512 24 0 0 fwdmap.editlong.mxt 0 /boundsA_deltay 2;#P bpatcher 5 97 512 24 0 0 fwdmap.editlong.mxt 0 /boundsA_deltax 2;#P window setfont "Sans Serif" 18.;#P comment 3 3 83 196626 mapping;#P bpatcher 5 189 256 24 0 0 fwddirect.edit.mxt 0 /regionsA_listn 2;#P bpatcher 5 166 512 24 0 0 fwdmap.editlong.mxt 0 /sumA_valn 2;#P bpatcher 5 74 512 24 0 0 fwdmap.editlong.mxt 0 /centroidA_y 2;#P bpatcher 5 51 512 24 0 0 fwdmap.editlong.mxt 0 /centroidA_x 2 2;#P hidden connect 14 0 13 0;#P hidden connect 10 0 11 0;#P pop;#P newobj 22 363 113 196620 p mapping-edit;#B color 6;#P newex 22 228 253 196620 udpreceiver /fromcamtrk camtrkclient;#B color 6;#P connect 13 0 5 0;#P connect 8 0 5 0;#P connect 2 0 5 0;#P connect 5 0 6 0;#P connect 6 0 4 0;#P pop;#P newobj 38 142 52 196617 p patches;#B color 6;#P button 135 35 33 6;#P bpatcher 11 188 257 63 0 0 udpreceiver.edit.mxt 0 /fromcamtrk 2;#P window linecount 2;#P hidden message 122 17 111 196617 \; camtrkclient/init bang;#P window linecount 1;#P comment 168 44 26 196617 INIT;#P window setfont "Sans Serif" 18.;#P comment 132 6 124 196626 camtrk client;#P user panel 0 0 280 323;#X brgb 164 161 220;#X frgb 0 0 0;#X border 1;#X rounded 0;#X shadow 0;#X done;#P background;#P hidden connect 5 0 3 0;#P hidden connect 19 0 5 0;#P hidden connect 11 0 10 0;#P hidden connect 14 0 13 0;#P hidden connect 7 0 9 0;#P hidden connect 9 0 8 0;#P pop;