max v2;#N vpatcher 617 59 1096 318;#P window setfont "Sans Serif" 9.;#P newex 267 44 100 196617 module_register $1;#P newex 36 190 133 196617 control $1/button $1 i 0 1;#P newex 292 141 133 196617 control $1/y $1 f 0. 1.;#N vpatcher 713 481 972 828;#P window setfont "Sans Serif" 9.;#P window linecount 1;#P newex 123 25 65 196617 loadbang;#P window linecount 0;#P newex 144 46 65 196617 r movie-init;#P newex 92 184 23 196617 abs;#P newex 92 160 27 196617 -;#P newex 92 212 27 196617 / 0.;#P newex 55 212 27 196617 / 0.;#P newex 123 105 76 196617 unpack 0 0 0 0;#P button 123 46 15 0;#P newex 123 75 58 196617 screensize;#P inlet 55 46 15 0;#P inlet 92 46 15 0;#P outlet 55 260 15 0;#P outlet 92 260 15 0;#P connect 3 0 7 0;#P connect 7 0 1 0;#P fasten 6 2 7 1 77 157;#P connect 2 0 9 0;#P connect 9 0 10 0;#P connect 10 0 8 0;#P connect 8 0 0 0;#P connect 6 3 9 1;#P connect 6 3 8 1;#P connect 12 0 5 0;#P connect 5 0 4 0;#P fasten 11 0 4 0 149 69 128 69;#P connect 4 0 6 0;#P pop;#P newobj 77 108 225 196617 p normalize;#P newex 36 45 70 196617 loadmess poll;#P newex 36 71 174 196617 mousestate;#P newex 77 142 133 196617 control $1/x $1 f 0. 1.;#P connect 2 0 1 0;#P connect 1 0 5 0;#P connect 1 1 3 0;#P connect 3 0 0 0;#P fasten 1 2 3 1 123 100 297 100;#P connect 3 1 4 0;#P pop;