max v2;#N vpatcher 26 44 1456 777;#P origin -231 123;#P window setfont "Sans Serif" 9.;#P newex 1231 386 151 196617 moduleinit $1;#B color 13;#P window linecount 9;#P message 906 93 83 196617 \; $1/1/midicc 0 \; $1/2/midicc 1 \; $1/3/midicc 2 \; $1/4/midicc 3 \; $1/5/midicc 4 \; $1/6/midicc 5 \; $1/7/midicc 6 \; $1/8/midicc 7;#P window linecount 1;#P newex 633 22 167 196617 makeparam $1/model $1 i 1 0 2 0;#B color 13;#P window linecount 9;#P message 799 111 89 196617 \; $1/1/midicc 32 \; $1/2/midicc 33 \; $1/3/midicc 34 \; $1/4/midicc 35 \; $1/5/midicc 36 \; $1/6/midicc 37 \; $1/7/midicc 38 \; $1/8/midicc 39;#P window linecount 7;#P message 704 214 89 196617 \; $1/1/midicc 34 \; $1/2/midicc 35 \; $1/3/midicc 36 \; $1/4/midicc 37 \; $1/5/midicc 38 \; $1/6/midicc 39;#P window linecount 3;#P message 633 97 83 196617 \; $1/1/midicc 0 \; $1/2/midicc 1;#P window linecount 1;#P newex 633 50 66 196617 sel 0 1 2 3;#P newex 962 706 194 196617 makeparam $1/8/midicc $1 i 0 0 127 0;#B color 13;#P newex 962 740 62 196617 prepend set;#P newex 641 705 194 196617 makeparam $1/7/midicc $1 i 0 0 127 0;#B color 13;#P newex 641 739 62 196617 prepend set;#P newex 905 842 43 196617 s $1/8;#P newex 583 840 43 196617 s $1/7;#P newex 930 808 68 196617 prepend send;#P newex 881 905 47 196617 forward;#B color 12;#P newex 930 773 171 196617 makeparam $1/8/sendto $1 s none;#P newex 900 740 54 196617 ctlin 41 1;#P newex 881 771 29 196617 gate;#P newex 610 805 68 196617 prepend send;#P newex 561 902 47 196617 forward;#B color 12;#P newex 610 770 171 196617 makeparam $1/7/sendto $1 s none;#P newex 580 739 54 196617 ctlin 40 1;#P newex 561 768 29 196617 gate;#P newex 344 697 194 196617 makeparam $1/6/midicc $1 i 0 0 127 0;#B color 13;#P newex 344 731 62 196617 prepend set;#P newex 81 693 194 196617 makeparam $1/5/midicc $1 i 0 0 127 0;#B color 13;#P newex 81 727 62 196617 prepend set;#P newex 995 439 194 196617 makeparam $1/4/midicc $1 i 0 0 127 0;#B color 13;#P newex 995 473 62 196617 prepend set;#P newex 678 432 194 196617 makeparam $1/3/midicc $1 i 0 0 127 0;#B color 13;#P newex 678 466 62 196617 prepend set;#P newex 378 426 194 196617 makeparam $1/2/midicc $1 i 0 0 127 0;#B color 13;#P newex 378 460 62 196617 prepend set;#P newex 94 424 194 196617 makeparam $1/1/midicc $1 i 0 0 127 0;#B color 13;#P newex 94 458 62 196617 prepend set;#P newex 287 833 43 196617 s $1/6;#P newex 23 828 43 196617 s $1/5;#P newex 936 573 43 196617 s $1/4;#P newex 618 565 43 196617 s $1/3;#P newex 317 558 43 196617 s $1/2;#P newex 32 555 43 196617 s $1/1;#P newex 312 799 68 196617 prepend send;#P newex 263 896 47 196617 forward;#B color 12;#P newex 312 764 171 196617 makeparam $1/6/sendto $1 s none;#P newex 282 731 54 196617 ctlin 39 1;#P newex 263 762 29 196617 gate;#P newex 50 793 68 196617 prepend send;#P newex 1 890 47 196617 forward;#B color 12;#P newex 50 758 171 196617 makeparam $1/5/sendto $1 s none;#P newex 20 727 54 196617 ctlin 38 1;#P newex 1 756 29 196617 gate;#P newex 965 537 68 196617 prepend send;#P newex 916 634 47 196617 forward;#B color 12;#P newex 965 502 171 196617 makeparam $1/4/sendto $1 s none;#P newex 935 473 54 196617 ctlin 37 1;#P newex 916 500 29 196617 gate;#P newex 649 528 68 196617 prepend send;#P newex 600 625 47 196617 forward;#B color 12;#P newex 649 493 171 196617 makeparam $1/3/sendto $1 s none;#P newex 619 466 54 196617 ctlin 36 1;#P newex 600 491 29 196617 gate;#P newex 350 520 68 196617 prepend send;#P newex 301 617 47 196617 forward;#B color 12;#P newex 350 485 171 196617 makeparam $1/2/sendto $1 s none;#B color 13;#P newex 320 460 54 196617 ctlin 35 1;#P newex 301 483 29 196617 gate;#P newex 67 516 68 196617 prepend send;#P newex 18 613 47 196617 forward;#B color 12;#P newex 67 481 171 196617 makeparam $1/1/sendto $1 s none;#P newex 37 458 54 196617 ctlin 34 1;#P newex 18 479 29 196617 gate;#P comment 9 215 122 196617 arg3 = midi channel;#P comment 9 192 122 196617 arg2 = switchstate name;#P window setfont Times 9.;#P newex 1371 433 85 1310729 s $1/init;#B color 11;#P newex 1371 410 212 1310729 r $2/init;#B color 11;#P window setfont "Sans Serif" 9.;#P window linecount 30;#P message 1231 442 138 196617 \; $1/sw/init bang \; $1/type/init bang \; $1/model/init bang \; $1/1/sendto/init bang \; $1/2/sendto/init bang \; $1/3/sendto/init bang \; $1/4/sendto/init bang \; $1/5/sendto/init bang \; $1/6/sendto/init bang \; $1/7/sendto/init bang \; $1/8/sendto/init bang \; $1/1/midicc 34 \; $1/2/midicc 35 \; $1/3/midicc 36 \; $1/4/midicc 37 \; $1/5/midicc 38 \; $1/6/midicc 39 \; $1/7/midicc 40 \; $1/8/midicc 41 \; $1/update bang \; $1/1/sendto $1/sensor/1 \; $1/2/sendto $1/sensor/2 \; $1/3/sendto $1/sensor/3 \; $1/4/sendto $1/sensor/4 \; $1/5/sendto $1/sensor/5 \; $1/6/sendto $1/sensor/6 \; $1/7/sendto $1/sensor/7 \; $1/8/sendto $1/sensor/8 \; $1/toothers/init bang \;;#P window linecount 1;#P newex 8 314 228 196617 s $1/typeinterface;#B color 12;#P newex 6 360 400 196617 makeswitch $1/sw $1 $2_switchstate 0;#B color 13;#P message 8 276 60 196617 controllers;#P newex 8 234 196 196617 r $1/update;#B color 12;#P newex 8 294 45 196617 midiinfo;#B color 5;#P newex 7 336 400 196617 makeparam $1/type $1 m BCF2000;#B color 13;#P comment 9 173 100 196617 arg1 = module name;#P connect 5 0 32 0;#P connect 32 0 35 0;#P connect 36 0 35 0;#P connect 3 0 4 0;#P connect 4 0 2 0;#P connect 2 0 6 0;#P connect 5 0 12 0;#P connect 12 0 15 0;#P connect 16 0 15 0;#P connect 1 0 33 0;#P connect 56 0 33 0;#P connect 33 0 32 1;#P connect 32 0 46 0;#P connect 12 0 42 0;#P connect 1 0 13 0;#P connect 48 0 13 0;#P connect 13 0 12 1;#P connect 34 0 36 0;#P connect 14 0 16 0;#P connect 57 0 56 0;#P connect 49 0 48 0;#P connect 5 0 37 0;#P connect 37 0 40 0;#P connect 41 0 40 0;#P connect 1 0 38 0;#P connect 58 0 38 0;#P connect 38 0 37 1;#P connect 37 0 47 0;#P connect 5 0 17 0;#P connect 17 0 20 0;#P connect 21 0 20 0;#P connect 39 0 41 0;#P connect 17 0 43 0;#P connect 1 0 18 0;#P connect 50 0 18 0;#P connect 18 0 17 1;#P connect 59 0 58 0;#P connect 19 0 21 0;#P connect 51 0 50 0;#P connect 5 0 60 0;#P connect 60 0 63 0;#P connect 64 0 63 0;#P connect 1 0 61 0;#P connect 72 0 61 0;#P connect 61 0 60 1;#P connect 60 0 70 0;#P connect 5 0 22 0;#P connect 22 0 25 0;#P connect 26 0 25 0;#P connect 62 0 64 0;#P connect 22 0 44 0;#P connect 1 0 23 0;#P connect 52 0 23 0;#P connect 23 0 22 1;#P connect 80 0 76 0;#P fasten 76 0 77 0 638 90 638 90;#P connect 73 0 72 0;#P connect 24 0 26 0;#P connect 53 0 52 0;#P fasten 76 1 78 0 652 89 709 89;#P fasten 76 2 79 0 666 87 804 87;#P connect 5 0 65 0;#P connect 65 0 68 0;#P connect 69 0 68 0;#P connect 1 0 66 0;#P connect 74 0 66 0;#P connect 66 0 65 1;#P connect 65 0 71 0;#P fasten 76 3 81 0 680 84 911 84;#P connect 5 0 27 0;#P connect 27 0 30 0;#P connect 31 0 30 0;#P connect 67 0 69 0;#P connect 54 0 28 0;#P connect 1 0 28 0;#P connect 28 0 27 1;#P connect 27 0 45 0;#P connect 75 0 74 0;#P connect 29 0 31 0;#P connect 55 0 54 0;#P connect 82 0 7 0;#P connect 8 0 9 0;#P pop;