max v2;#N vpatcher 3 55 764 302;#P origin 95 46;#P window setfont "Sans Serif" 9.;#P window linecount 1;#P newex 568 130 151 196617 s $4/fl2;#P newex 525 155 151 196617 s $4/fl1;#P newex 482 182 152 196617 s $4/top;#P newex 482 105 141 196617 jmod.oscroute /top /fl1 /fl2;#P newex 327 130 151 196617 s $3/fl2;#P newex 284 155 151 196617 s $3/fl1;#P newex 241 182 152 196617 s $3/top;#P newex 241 105 141 196617 jmod.oscroute /top /fl1 /fl2;#P newex 86 130 151 196617 s $2/fl2;#P newex 43 155 151 196617 s $2/fl1;#P newex 0 182 152 196617 s $2/top;#P newex 0 105 141 196617 jmod.oscroute /top /fl1 /fl2;#P newex 0 71 734 196617 jmod.oscroute $2 $3 $4;#P newex 0 46 126 196617 jmod.oscroute $1;#P newex 0 21 92 196617 udpreceive 20000;#P connect 0 0 1 0;#P connect 1 0 2 0;#P connect 2 0 3 0;#P connect 3 0 4 0;#P connect 3 1 5 0;#P connect 3 2 6 0;#P fasten 2 1 7 0 246 100 246 100;#P connect 7 0 8 0;#P connect 7 1 9 0;#P connect 7 2 10 0;#P fasten 2 2 11 0 487 96 487 96;#P connect 11 0 12 0;#P connect 11 1 13 0;#P connect 11 2 14 0;#P pop;