max v2;#N vpatcher 521 226 1143 701;#P origin 0 15;#P window setfont "Sans Serif" 9.;#P window linecount 1;#P newex 293 263 118 196617 s /p-raw.1/acc/y/raw;#P newex 301 353 118 196617 s /p-raw.1/acc/x/raw;#P newex 266 335 116 196617 s /p-raw.1/press/raw;#P newex 231 317 115 196617 s /p-raw.1/pad.5/raw;#P newex 196 299 115 196617 s /p-raw.1/pad.4/raw;#P newex 161 281 115 196617 s /p-raw.1/pad.3/raw;#P newex 126 263 115 196617 s /p-raw.1/pad.2/raw;#P newex 91 245 115 196617 s /p-raw.1/pad.1/raw;#P flonum 137 132 35 9 0 0 0 3 0 0 0 221 221 221 222 222 222 0 0 0;#P flonum 100 108 35 9 0 0 0 3 0 0 0 221 221 221 222 222 222 0 0 0;#P window linecount 3;#P message 507 401 75 196617 \; /lfo.1/sw \$1 \; /lfo.2/sw \$1 \;;#P window linecount 1;#P newex 513 378 31 196617 == 0;#P window setfont "Sans Serif" 12.;#N vpatcher 975 44 1372 546;#P origin 18 43;#P user multiSlider 223 428 98 56 -1. 1. 1 3449 15 0 0 2 0 0 0;#M frgb 0 0 0;#M brgb 255 255 255;#M rgb2 127 127 127;#M rgb3 0 0 0;#M rgb4 37 52 91;#M rgb5 74 105 182;#M rgb6 112 158 18;#M rgb7 149 211 110;#M rgb8 187 9 201;#M rgb9 224 62 37;#M rgb10 7 114 128;#P user multiSlider 223 373 98 56 -1. 1. 1 3449 15 0 0 2 0 0 0;#M frgb 0 0 0;#M brgb 255 255 255;#M rgb2 127 127 127;#M rgb3 0 0 0;#M rgb4 37 52 91;#M rgb5 74 105 182;#M rgb6 112 158 18;#M rgb7 149 211 110;#M rgb8 187 9 201;#M rgb9 224 62 37;#M rgb10 7 114 128;#P user multiSlider 223 318 98 56 -1. 1. 1 3449 15 0 0 2 0 0 0;#M frgb 0 0 0;#M brgb 255 255 255;#M rgb2 127 127 127;#M rgb3 0 0 0;#M rgb4 37 52 91;#M rgb5 74 105 182;#M rgb6 112 158 18;#M rgb7 149 211 110;#M rgb8 187 9 201;#M rgb9 224 62 37;#M rgb10 7 114 128;#P user multiSlider 223 263 98 56 -1. 1. 1 3449 15 0 0 2 0 0 0;#M frgb 0 0 0;#M brgb 255 255 255;#M rgb2 127 127 127;#M rgb3 0 0 0;#M rgb4 37 52 91;#M rgb5 74 105 182;#M rgb6 112 158 18;#M rgb7 149 211 110;#M rgb8 187 9 201;#M rgb9 224 62 37;#M rgb10 7 114 128;#P user multiSlider 223 208 98 56 -1. 1. 1 3449 15 0 0 2 0 0 0;#M frgb 0 0 0;#M brgb 255 255 255;#M rgb2 127 127 127;#M rgb3 0 0 0;#M rgb4 37 52 91;#M rgb5 74 105 182;#M rgb6 112 158 18;#M rgb7 149 211 110;#M rgb8 187 9 201;#M rgb9 224 62 37;#M rgb10 7 114 128;#P user multiSlider 223 153 98 56 -1. 1. 1 3449 15 0 0 2 0 0 0;#M frgb 0 0 0;#M brgb 255 255 255;#M rgb2 127 127 127;#M rgb3 0 0 0;#M rgb4 37 52 91;#M rgb5 74 105 182;#M rgb6 112 158 18;#M rgb7 149 211 110;#M rgb8 187 9 201;#M rgb9 224 62 37;#M rgb10 7 114 128;#P user multiSlider 223 98 98 56 -1. 1. 1 2681 15 0 0 2 0 0 0;#M frgb 0 0 0;#M brgb 255 255 255;#M rgb2 127 127 127;#M rgb3 0 0 0;#M rgb4 37 52 91;#M rgb5 74 105 182;#M rgb6 112 158 18;#M rgb7 149 211 110;#M rgb8 187 9 201;#M rgb9 224 62 37;#M rgb10 7 114 128;#P user multiSlider 223 43 98 56 -1. 1. 1 2681 15 0 0 2 0 0 0;#M frgb 0 0 0;#M brgb 255 255 255;#M rgb2 127 127 127;#M rgb3 0 0 0;#M rgb4 37 52 91;#M rgb5 74 105 182;#M rgb6 112 158 18;#M rgb7 149 211 110;#M rgb8 187 9 201;#M rgb9 224 62 37;#M rgb10 7 114 128;#P window setfont "Sans Serif" 9.;#P window linecount 1;#P hidden newex 402 413 125 196617 r /record/lfo.2/circle/y;#P hidden newex 402 392 125 196617 r /record/lfo.2/circle/x;#P hidden newex 402 371 105 196617 r /record/lfo.2/saw;#P hidden newex 402 350 110 196617 r /record/lfo.2/sinus;#P hidden newex 402 329 125 196617 r /record/lfo.1/circle/y;#P hidden newex 402 308 125 196617 r /record/lfo.1/circle/x;#P hidden newex 402 287 105 196617 r /record/lfo.1/saw;#P hidden newex 402 266 110 196617 r /record/lfo.1/sinus;#P user scope~ 120 427 220 483 2 3 128 -1. 1. 0 0. 0 0. 102 255 51 135 135 135 0;#P user scope~ 120 372 220 428 2 3 128 -1. 1. 0 0. 0 0. 102 255 51 135 135 135 0;#P user scope~ 120 317 220 373 2 3 128 -1. 1. 0 0. 0 0. 102 255 51 135 135 135 0;#P user scope~ 120 262 220 318 2 3 128 -1. 1. 0 0. 0 0. 102 255 51 135 135 135 0;#P user scope~ 120 207 220 263 2 3 128 -1. 1. 0 0. 0 0. 102 255 51 135 135 135 0;#P user scope~ 120 152 220 208 2 3 128 -1. 1. 0 0. 0 0. 102 255 51 135 135 135 0;#P user scope~ 120 97 220 153 2 3 128 -1. 1. 0 0. 0 0. 102 255 51 135 135 135 0;#P user scope~ 120 42 220 98 2 3 128 -1. 1. 0 0. 0 0. 102 255 51 135 135 135 0;#P window setfont "Sans Serif" 20.;#P window linecount 0;#P comment 133 13 194 196628 ENREGISTREMENTS;#P window setfont "Sans Serif" 9.;#P hidden newex 402 225 153 196617 r /record-audio/lfo.2/circle/y;#P hidden newex 402 204 153 196617 r /record-audio/lfo.2/circle/x;#P hidden newex 402 183 133 196617 r /record-audio/lfo.2/saw;#P hidden newex 402 162 138 196617 r /record-audio/lfo.2/sinus;#P hidden newex 402 141 153 196617 r /record-audio/lfo.1/circle/y;#P hidden newex 402 120 153 196617 r /record-audio/lfo.1/circle/x;#P hidden newex 402 99 133 196617 r /record-audio/lfo.1/saw;#P hidden newex 402 78 138 196617 r /record-audio/lfo.1/sinus;#P user multiSlider 15 427 98 56 -1. 1. 1 3449 15 0 0 2 0 0 0;#M frgb 0 0 0;#M brgb 255 255 255;#M rgb2 127 127 127;#M rgb3 0 0 0;#M rgb4 37 52 91;#M rgb5 74 105 182;#M rgb6 112 158 18;#M rgb7 149 211 110;#M rgb8 187 9 201;#M rgb9 224 62 37;#M rgb10 7 114 128;#P user multiSlider 15 372 98 56 -1. 1. 1 3449 15 0 0 2 0 0 0;#M frgb 0 0 0;#M brgb 255 255 255;#M rgb2 127 127 127;#M rgb3 0 0 0;#M rgb4 37 52 91;#M rgb5 74 105 182;#M rgb6 112 158 18;#M rgb7 149 211 110;#M rgb8 187 9 201;#M rgb9 224 62 37;#M rgb10 7 114 128;#P user multiSlider 15 317 98 56 -1. 1. 1 3449 15 0 0 2 0 0 0;#M frgb 0 0 0;#M brgb 255 255 255;#M rgb2 127 127 127;#M rgb3 0 0 0;#M rgb4 37 52 91;#M rgb5 74 105 182;#M rgb6 112 158 18;#M rgb7 149 211 110;#M rgb8 187 9 201;#M rgb9 224 62 37;#M rgb10 7 114 128;#P user multiSlider 15 262 98 56 -1. 1. 1 3449 15 0 0 2 0 0 0;#M frgb 0 0 0;#M brgb 255 255 255;#M rgb2 127 127 127;#M rgb3 0 0 0;#M rgb4 37 52 91;#M rgb5 74 105 182;#M rgb6 112 158 18;#M rgb7 149 211 110;#M rgb8 187 9 201;#M rgb9 224 62 37;#M rgb10 7 114 128;#P user multiSlider 15 207 98 56 -1. 1. 1 3449 15 0 0 2 0 0 0;#M frgb 0 0 0;#M brgb 255 255 255;#M rgb2 127 127 127;#M rgb3 0 0 0;#M rgb4 37 52 91;#M rgb5 74 105 182;#M rgb6 112 158 18;#M rgb7 149 211 110;#M rgb8 187 9 201;#M rgb9 224 62 37;#M rgb10 7 114 128;#P user multiSlider 15 152 98 56 -1. 1. 1 3449 15 0 0 2 0 0 0;#M frgb 0 0 0;#M brgb 255 255 255;#M rgb2 127 127 127;#M rgb3 0 0 0;#M rgb4 37 52 91;#M rgb5 74 105 182;#M rgb6 112 158 18;#M rgb7 149 211 110;#M rgb8 187 9 201;#M rgb9 224 62 37;#M rgb10 7 114 128;#P user multiSlider 15 97 98 56 -1. 1. 1 3449 15 0 0 2 0 0 0;#M frgb 0 0 0;#M brgb 255 255 255;#M rgb2 127 127 127;#M rgb3 0 0 0;#M rgb4 37 52 91;#M rgb5 74 105 182;#M rgb6 112 158 18;#M rgb7 149 211 110;#M rgb8 187 9 201;#M rgb9 224 62 37;#M rgb10 7 114 128;#P user multiSlider 15 42 98 56 -1. 1. 1 2681 15 0 0 2 0 0 0;#M frgb 0 0 0;#M brgb 255 255 255;#M rgb2 127 127 127;#M rgb3 0 0 0;#M rgb4 37 52 91;#M rgb5 74 105 182;#M rgb6 112 158 18;#M rgb7 149 211 110;#M rgb8 187 9 201;#M rgb9 224 62 37;#M rgb10 7 114 128;#P hidden newex 4 207 89 196617 r /lfo.2/circle/y;#P hidden newex 4 189 89 196617 r /lfo.2/circle/x;#P hidden newex 4 171 69 196617 r /lfo.2/saw;#P hidden newex 4 153 74 196617 r /lfo.2/sinus;#P hidden newex 4 135 89 196617 r /lfo.1/circle/y;#P hidden newex 4 117 89 196617 r /lfo.1/circle/x;#P hidden newex 4 99 69 196617 r /lfo.1/saw;#P hidden newex 4 81 74 196617 r /lfo.1/sinus;#P window setfont "Sans Serif" 20.;#P comment 15 13 94 196628 SIGNAUX;#P hidden connect 1 0 9 0;#P hidden connect 2 0 10 0;#P hidden connect 3 0 11 0;#P hidden connect 4 0 12 0;#P hidden connect 5 0 13 0;#P hidden connect 6 0 14 0;#P hidden connect 7 0 15 0;#P hidden connect 8 0 16 0;#P hidden connect 17 0 26 0;#P hidden connect 18 0 27 0;#P hidden connect 19 0 28 0;#P hidden connect 20 0 29 0;#P hidden connect 21 0 30 0;#P hidden connect 22 0 31 0;#P hidden connect 23 0 32 0;#P hidden connect 24 0 33 0;#P hidden connect 34 0 42 0;#P hidden connect 35 0 43 0;#P hidden connect 36 0 44 0;#P hidden connect 37 0 45 0;#P hidden connect 38 0 46 0;#P hidden connect 39 0 47 0;#P hidden connect 40 0 48 0;#P hidden connect 41 0 49 0;#P pop;#P newobj 466 279 95 196620 p visualisation;#B color 6;#P toggle 447 375 54 0;#P window setfont "Sans Serif" 9.;#P newex 447 352 114 196617 variedit $1/play $1;#P newex 433 24 48 196617 loadbang;#P toggle 321 375 54 0;#P newex 321 352 114 196617 variedit $1/record $1;#P newex 14 240 41 196617 dac~;#P newex 14 145 60 196617 loadmess 1;#P toggle 14 167 15 0;#P newex 14 189 45 196617 adc~;#P user number~ 324 239 486 254 9 3 3 2 0. 0. 0 0. 250 0. 0 0 0 221 221 221 222 222 222 0 0 0;#P user ezdac~ 12 104 56 137 0;#P window linecount 11;#P message 433 48 133 196617 \; /lfo.1/init bang \; /lfo.2/init bang \; /lfo.1/sw 1 \; /lfo.2/sw 1 \; /lfo.2/sinus/freq 0.01 \; /lfo.2/saw/up 0.01 \; /lfo.2/saw/down 0.1 \; /lfo.2/circle/size/x 0.65 \; /lfo.2/circle/size/y 0.87 \; $1/init bang \;;#P window linecount 1;#P newex 494 215 53 196617 lfo /lfo.2;#B color 14;#P window setfont "Sans Serif" 12.;#N vpatcher 514 292 1310 813;#P origin -20 33;#P window setfont "Sans Serif" 9.;#P window linecount 1;#P newex 413 343 35 196617 gate~;#P newex 376 334 35 196617 gate~;#P toggle 289 73 15 0;#P newex 728 312 29 196617 gate;#P newex 689 312 29 196617 gate;#P newex 650 312 29 196617 gate;#P newex 611 312 29 196617 gate;#P newex 572 312 29 196617 gate;#P newex 533 312 29 196617 gate;#P newex 494 312 29 196617 gate;#P newex 455 312 29 196617 gate;#P newex 362 463 152 196617 s $1/play;#B color 12;#P message 362 442 14 196617 0;#P window linecount 0;#P message 397 236 89 196617 samptype float32;#P window setfont "Sans Serif" 12.;#N vpatcher 10 59 297 281;#P window setfont "Sans Serif" 9.;#P window linecount 0;#P newex 9 176 152 196617 s $1/play;#B color 12;#P newex 55 70 38 196617 del 60;#P toggle 9 50 15 0;#P newex 9 26 234 196617 makeparam $1/autostart $1 t 0;#B color 12;#P window linecount 1;#P newex 9 71 29 196617 gate;#P message 9 155 14 196617 1;#P newex 9 115 44 196617 del 120;#P newex 55 115 36 196617 zl reg;#P inlet 28 45 15 0;#P inlet 81 95 15 0;#P outlet 55 137 15 0;#P connect 7 0 8 0;#P connect 8 0 6 0;#P connect 6 0 4 0;#P connect 4 0 5 0;#P connect 5 0 10 0;#P connect 2 0 6 1;#P fasten 2 0 9 0 33 65 60 65;#P connect 9 0 3 0;#P connect 3 0 0 0;#P connect 1 0 3 1;#P pop;#P newobj 100 326 85 196620 p auto-start;#B color 6;#P toggle 196 340 15 0;#P window setfont "Sans Serif" 9.;#P window linecount 1;#P newex 196 313 145 196617 makeparam $1/play $1 t 0;#B color 12;#P window linecount 3;#P newex 327 393 33 196617 snapshot~ 1;#P newex 292 393 33 196617 snapshot~ 1;#P newex 257 393 33 196617 snapshot~ 1;#P newex 222 393 33 196617 snapshot~ 1;#P newex 187 393 33 196617 snapshot~ 1;#P newex 152 393 33 196617 snapshot~ 1;#P newex 82 393 33 196617 snapshot~ 1;#P window linecount 0;#P message 98 270 37 196617 loop 0;#P newex 289 43 221 196617 makeswitch $1/sw $1 common_switchstate 1;#B color 12;#P message 409 158 189 196617 \; $1/sw/init bang \; $1/record/init bang \; $1/play/init bang \; $1/autostart/init bang \; $1/file/init bang \;;#P window linecount 1;#P newex 409 135 134 196617 r $1/init;#B color 12;#P message 82 93 29 196617 stop;#P outlet 327 443 15 0;#P outlet 292 443 15 0;#P outlet 257 443 15 0;#P outlet 222 443 15 0;#P outlet 187 443 15 0;#P outlet 152 443 15 0;#P outlet 117 443 15 0;#P outlet 82 443 15 0;#P outlet 47 443 15 0;#N sfplay~  10 120960 0 ;#P newobj 12 371 362 196617 sfplay~ 10;#P outlet 12 443 15 0;#P newex 85 175 62 196617 projectpath;#B color 5;#P newex 183 294 96 196617 sprintf open %s.aif;#P window linecount 2;#P newex 12 254 65 196617 route start stop;#P window linecount 3;#P newex 85 195 71 196617 sprintf %smedia/replayer/;#P window linecount 1;#P newex 303 252 58 196617 unpack i i i;#P newex 231 252 58 196617 unpack i i i;#P newex 231 231 155 196617 date;#P message 267 209 29 196617 date;#P message 231 209 30 196617 time;#P newex 231 189 46 196617 t b b;#P newex 183 274 184 196617 sprintf %s%s_%i-%i-%i_%ih%im%is;#P newex 158 170 36 196617 zl reg;#P newex 184 144 205 196617 makeparam $1/file $1 s s-rec;#B color 12;#P newex 12 110 229 196617 t s b b b;#P message 12 88 33 196617 start;#P newex 12 67 47 196617 sel 1;#P toggle 12 44 15 0;#P newex 12 21 145 196617 makeparam $1/record $1 t 0;#B color 12;#P message 39 313 14 196617 0;#P message 12 313 14 196617 1;#P inlet 416 311 15 0;#P outlet 377 389 15 0;#P newex 728 335 29 196617 sig~;#P newex 689 335 29 196617 sig~;#P newex 650 335 29 196617 sig~;#P newex 611 335 29 196617 sig~;#P newex 572 335 29 196617 sig~;#P newex 533 335 29 196617 sig~;#P newex 494 335 29 196617 sig~;#P newex 455 335 29 196617 sig~;#P newex 377 368 366 196617 sfrecord~ 10;#P inlet 728 268 15 0;#P inlet 689 268 15 0;#P inlet 650 268 15 0;#P inlet 611 268 15 0;#P inlet 572 268 15 0;#P inlet 533 268 15 0;#P inlet 494 268 15 0;#P inlet 455 268 15 0;#P inlet 377 311 15 0;#P window linecount 3;#P newex 117 393 33 196617 snapshot~ 1;#P connect 23 0 24 0;#P connect 24 0 25 0;#P connect 25 0 26 0;#P connect 26 0 27 0;#P connect 52 0 38 0;#P connect 27 0 38 0;#P connect 38 0 21 0;#P connect 56 0 42 0;#P connect 65 0 42 0;#P connect 66 0 42 0;#P connect 42 0 41 0;#P connect 38 1 22 0;#P connect 42 1 43 0;#P connect 25 1 52 0;#P connect 42 2 57 0;#P connect 57 0 44 0;#P connect 27 1 40 0;#P connect 40 0 37 0;#P connect 38 1 66 0;#P connect 42 3 0 0;#P connect 0 0 45 0;#P connect 42 4 58 0;#P connect 58 0 46 0;#P connect 27 2 29 0;#P connect 39 0 66 1;#P fasten 37 0 30 0 90 250 188 250;#P connect 30 0 39 0;#P connect 28 0 29 1;#P connect 42 5 59 0;#P connect 59 0 47 0;#P connect 64 0 65 0;#P connect 29 0 30 1;#P connect 42 6 60 0;#P connect 60 0 48 0;#P connect 27 3 31 0;#P connect 31 0 32 0;#P connect 32 0 34 0;#P fasten 33 0 34 0 272 228 236 228;#P connect 34 0 35 0;#P connect 35 1 30 2;#P connect 35 0 30 3;#P connect 42 7 61 0;#P connect 61 0 49 0;#P connect 31 1 33 0;#P connect 35 2 30 4;#P connect 55 0 78 0;#P connect 42 8 62 0;#P connect 62 0 50 0;#P connect 34 1 36 0;#P connect 36 0 30 5;#P connect 36 1 30 6;#P connect 42 9 63 0;#P connect 63 0 51 0;#P connect 36 2 30 7;#P connect 42 10 68 0;#P connect 68 0 69 0;#P connect 78 0 79 0;#P lcolor 1;#P connect 79 0 10 0;#P fasten 39 0 10 0 188 356 382 356;#P fasten 21 0 10 0 17 364 382 364;#P fasten 22 0 10 0 44 360 382 360;#P connect 67 0 10 0;#P connect 10 0 19 0;#P fasten 53 0 67 0 414 155 402 155;#P connect 1 0 79 1;#P connect 53 0 54 0;#P connect 78 0 80 0;#P lcolor 1;#P connect 80 0 10 1;#P connect 20 0 80 1;#P connect 78 0 70 0;#P lcolor 1;#P connect 70 0 11 0;#P connect 11 0 10 2;#P connect 2 0 70 1;#P connect 78 0 71 0;#P lcolor 1;#P connect 71 0 12 0;#P connect 12 0 10 3;#P connect 3 0 71 1;#P connect 78 0 72 0;#P lcolor 1;#P connect 72 0 13 0;#P connect 13 0 10 4;#P connect 4 0 72 1;#P connect 78 0 73 0;#P lcolor 1;#P connect 73 0 14 0;#P connect 14 0 10 5;#P connect 5 0 73 1;#P connect 78 0 74 0;#P lcolor 1;#P connect 74 0 15 0;#P connect 15 0 10 6;#P connect 6 0 74 1;#P connect 78 0 75 0;#P lcolor 1;#P connect 75 0 16 0;#P connect 16 0 10 7;#P connect 7 0 75 1;#P connect 78 0 76 0;#P lcolor 1;#P connect 76 0 17 0;#P connect 17 0 10 8;#P connect 8 0 76 1;#P connect 78 0 77 0;#P lcolor 1;#P connect 77 0 18 0;#P connect 18 0 10 9;#P connect 9 0 77 1;#P pop;#P newobj 14 214 329 196620 p recorder-replayer;#B color 6;#P window setfont "Sans Serif" 9.;#P newex 329 192 118 196617 r /p-raw.1/acc/y/raw;#P newex 294 174 118 196617 r /p-raw.1/acc/x/raw;#P newex 259 156 116 196617 r /p-raw.1/press/raw;#P newex 224 138 115 196617 r /p-raw.1/pad.5/raw;#P newex 189 120 115 196617 r /p-raw.1/pad.4/raw;#P newex 154 102 115 196617 r /p-raw.1/pad.3/raw;#P newex 119 84 115 196617 r /p-raw.1/pad.2/raw;#P newex 494 189 53 196617 lfo /lfo.1;#B color 14;#P newex 84 66 115 196617 r /p-raw.1/pad.1/raw;#P comment 346 254 100 196617 record lenght (ms);#P connect 17 0 16 0;#P connect 16 0 15 0;#P connect 15 0 10 0;#P connect 10 0 18 0;#P connect 10 1 18 1;#P connect 15 1 10 1;#P connect 1 0 10 2;#P connect 10 2 29 0;#P connect 1 0 27 0;#P connect 3 0 10 3;#P connect 10 3 30 0;#P connect 3 0 28 0;#P connect 4 0 10 4;#P connect 10 4 31 0;#P connect 5 0 10 5;#P connect 10 5 32 0;#P connect 6 0 10 6;#P connect 10 6 33 0;#P connect 7 0 10 7;#P connect 10 7 34 0;#P connect 10 9 36 0;#P connect 8 0 10 8;#P connect 10 8 35 0;#P fasten 20 0 19 0 326 435 316 435 316 349 326 349;#P connect 19 0 20 0;#P connect 10 10 14 0;#P connect 9 0 10 9;#P connect 21 0 12 0;#P fasten 23 0 22 0 452 436 442 436 442 350 452 350;#P connect 22 0 23 0;#P connect 23 0 25 0;#P pop;