max v2;#N vpatcher 11 55 540 471;#P origin 187 128;#P button 191 106 15 0;#P window setfont "Sans Serif" 9.;#P window linecount 1;#P newex 191 87 151 196617 moduleinit $1;#B color 13;#N vpatcher 560 200 1160 600;#P window setfont "Sans Serif" 9.;#P message 50 50 250 196617 \; $1/rate/init bang \; $1/an.1/init bang \; $1/an.2/init bang \; $1/an.3/init bang \; $1/an.4/init bang \; $1/an.5/init bang \; $1/an.6/init bang \; $1/di.1/init bang \; $1/di.2/init bang \; $1/di.3/init bang \; $1/di.4/init bang \; $1/di.5/init bang \; $1/di.6/init bang \; $1/di.7/init bang \; $1/di.8/init bang \; control_register/store $1 \;;#P inlet 50 30 15 0;#P connect 0 0 1 0;#P pop;#P newobj 191 128 82 196617 p init_messages;#B color 6;#P newex 124 279 100 196617 t l clear;#B color 1;#N vpatcher 30 89 211 390;#P window setfont "Sans Serif" 9.;#P window linecount 1;#P newex 50 208 84 196617 zl slice 6;#P newex 50 187 52 196617 route list;#P inlet 50 30 15 0;#P outlet 50 233 15 0;#P outlet 124 233 15 0;#P window linecount 0;#P newex 50 163 64 196617 fromsymbol;#P newex 50 140 40 196617 itoa;#P newex 50 114 61 196617 zl group 78;#P newex 50 50 53 196617 sel 10 13;#P connect 6 0 0 0;#P fasten 0 2 1 0 97 90 55 90;#P fasten 0 1 1 0 76 90 55 90;#P connect 1 0 2 0;#P connect 2 0 3 0;#P connect 3 0 7 0;#P connect 7 0 8 0;#P connect 8 0 5 0;#P connect 8 1 4 0;#P pop;#P newobj 24 269 71 196617 p;#P newex 124 299 47 196617 zl iter 1;#B color 1;#P window setfont Verdana 10.;#P window linecount 6;#P comment 225 225 205 -1006632950 Credits: Copyleft by Daniel Jolliffe Based on the Thomas Ouellet Fredricks' Simple Message System Thanks to Seejay James for the USB pulldown menu! V.4 October 2007;#P window setfont "Sans Serif" 9.;#P window linecount 1;#P newex 111 202 200 196617 makeparam $1/port $1 i 1;#B color 12;#P newex 124 340 204 196617 s $1/port-list;#B color 12;#P newex 66 56 351 196617 makeparam $1/rate $1 i 15 15 1000 1;#B color 12;#P newex 24 31 351 196617 makeswitch $1/sw $1 common_switchstate;#B color 12;#P window setfont "Sans Serif" 12.;#N vpatcher 20 74 791 333;#P window setfont "Sans Serif" 9.;#P window linecount 1;#P newex 356 111 46 196617 / 1024.;#P newex 356 85 45 196617 !- 1024;#P newex 302 142 46 196617 / 1024.;#P newex 302 116 45 196617 !- 1024;#P newex 239 142 46 196617 / 1024.;#P newex 239 116 45 196617 !- 1024;#P newex 176 142 46 196617 / 1024.;#P newex 176 116 45 196617 !- 1024;#P newex 113 142 46 196617 / 1024.;#P newex 113 116 45 196617 !- 1024;#P newex 50 142 46 196617 / 1024.;#P newex 50 116 45 196617 !- 1024;#P window linecount 0;#P newex 50 66 403 196617 unpack i i i i i i i;#P newex 375 137 312 196617 makecontrol $1/an.6 $1 f 0 1 /common;#B color 14;#P newex 310 161 312 196617 makecontrol $1/an.5 $1 f 0 1 /common;#B color 14;#P number 375 89 35 9 0 0 0 3 0 0 0 221 221 221 222 222 222 0 0 0;#P number 310 89 35 9 0 0 0 3 0 0 0 221 221 221 222 222 222 0 0 0;#P number 245 89 35 9 0 0 0 3 0 0 0 221 221 221 222 222 222 0 0 0;#P number 180 89 35 9 0 0 0 3 0 0 0 221 221 221 222 222 222 0 0 0;#P number 115 89 35 9 0 0 0 3 0 0 0 221 221 221 222 222 222 0 0 0;#P number 50 89 35 9 0 0 0 3 0 0 0 221 221 221 222 222 222 0 0 0;#P newex 245 182 312 196617 makecontrol $1/an.4 $1 f 0 1 /common;#B color 14;#P newex 180 202 312 196617 makecontrol $1/an.3 $1 f 0 1 /common;#B color 14;#P newex 115 221 312 196617 makecontrol $1/an.2 $1 f 0 1 /common;#B color 14;#P newex 50 244 312 196617 makecontrol $1/an.1 $1 f 0 1 /common;#B color 14;#P inlet 50 23 15 0;#P connect 0 0 13 0;#P connect 13 0 5 0;#P connect 5 0 14 0;#P connect 14 0 15 0;#P connect 15 0 1 0;#P connect 6 0 16 0;#P connect 16 0 17 0;#P connect 13 1 6 0;#P connect 17 0 2 0;#P connect 7 0 18 0;#P connect 18 0 19 0;#P connect 13 2 7 0;#P connect 19 0 3 0;#P connect 8 0 20 0;#P connect 20 0 21 0;#P connect 13 3 8 0;#P connect 21 0 4 0;#P connect 9 0 22 0;#P connect 22 0 23 0;#P connect 13 4 9 0;#P connect 23 0 11 0;#P connect 10 0 24 0;#P connect 24 0 25 0;#P connect 13 5 10 0;#P connect 25 0 12 0;#P pop;#P newobj 24 361 59 196620 p analog;#B color 6;#N vpatcher 20 72 1207 489;#P inlet 50 30 15 0;#P window setfont "Sans Serif" 9.;#P number 765 75 35 9 0 0 0 3 0 0 0 221 221 221 222 222 222 0 0 0;#P number 700 75 35 9 0 0 0 3 0 0 0 221 221 221 222 222 222 0 0 0;#P number 635 75 35 9 0 0 0 3 0 0 0 221 221 221 222 222 222 0 0 0;#P number 570 75 35 9 0 0 0 3 0 0 0 221 221 221 222 222 222 0 0 0;#P number 505 75 35 9 0 0 0 3 0 0 0 221 221 221 222 222 222 0 0 0;#P number 440 75 35 9 0 0 0 3 0 0 0 221 221 221 222 222 222 0 0 0;#P newex 765 94 375 196617 makecontrol $1/di.12 $1 f 0 1024 /common;#B color 14;#P newex 700 118 375 196617 makecontrol $1/di.11 $1 f 0 1024 /common;#B color 14;#P newex 635 139 375 196617 makecontrol $1/di.10 $1 f 0 1024 /common;#B color 14;#P newex 570 159 369 196617 makecontrol $1/di.9 $1 f 0 1024 /common;#B color 14;#P newex 505 178 369 196617 makecontrol $1/di.8 $1 f 0 1024 /common;#B color 14;#P newex 440 201 369 196617 makecontrol $1/di.7 $1 f 0 1024 /common;#B color 14;#P newex 375 229 369 196617 makecontrol $1/di.6 $1 f 0 1024 /common;#B color 14;#P newex 310 253 369 196617 makecontrol $1/di.5 $1 f 0 1024 /common;#B color 14;#P number 375 75 35 9 0 0 0 3 0 0 0 221 221 221 222 222 222 0 0 0;#P number 310 75 35 9 0 0 0 3 0 0 0 221 221 221 222 222 222 0 0 0;#P number 245 75 35 9 0 0 0 3 0 0 0 221 221 221 222 222 222 0 0 0;#P number 180 75 35 9 0 0 0 3 0 0 0 221 221 221 222 222 222 0 0 0;#P number 115 75 35 9 0 0 0 3 0 0 0 221 221 221 222 222 222 0 0 0;#P number 50 75 35 9 0 0 0 3 0 0 0 221 221 221 222 222 222 0 0 0;#P newex 245 274 369 196617 makecontrol $1/di.4 $1 f 0 1024 /common;#B color 14;#P newex 180 294 369 196617 makecontrol $1/di.3 $1 f 0 1024 /common;#B color 14;#P newex 115 313 369 196617 makecontrol $1/di.2 $1 f 0 1024 /common;#B color 14;#P newex 50 336 371 196617 makecontrol $1/di.1 $1 f 0 1024 /common;#B color 14;#P newex 50 50 797 196617 unpack i i i i i i i i i i i i i;#P connect 25 0 0 0;#P connect 0 0 5 0;#P connect 5 0 1 0;#P connect 0 1 6 0;#P connect 6 0 2 0;#P connect 0 2 7 0;#P connect 7 0 3 0;#P connect 0 3 8 0;#P connect 8 0 4 0;#P connect 0 4 9 0;#P connect 9 0 11 0;#P connect 0 5 10 0;#P connect 10 0 12 0;#P connect 0 6 19 0;#P connect 19 0 13 0;#P connect 0 7 20 0;#P connect 20 0 14 0;#P connect 0 8 21 0;#P connect 21 0 15 0;#P connect 0 9 22 0;#P connect 22 0 16 0;#P connect 0 10 23 0;#P connect 23 0 17 0;#P connect 0 11 24 0;#P connect 24 0 18 0;#P pop;#P newobj 85 361 57 196620 p digital;#B color 6;#P window setfont "Sans Serif" 9.;#P newex 110 222 91 196617 prepend port;#B color 1;#P newex 74 104 43 196617 delay 4;#N vpatcher 289 44 417 246;#P outlet 31 128 15 0;#P window setfont "Sans Serif" 9.;#P window linecount 1;#P newex 39 73 31 196617 spell;#P window linecount 0;#P message 22 98 20 196617 13;#P newex 22 50 27 196617 t b l;#P inlet 22 29 15 0;#P connect 0 0 1 0;#P fasten 1 0 2 0 27 82 27 82;#P fasten 2 0 4 0 27 120 36 120;#P fasten 3 0 4 0 44 117 36 117;#P connect 1 1 3 0;#P pop;#P newobj 24 190 53 196617 p convert;#P message 24 104 14 196617 r;#P toggle 24 57 15 0;#P newex 24 78 52 196617 metro 15;#P newex 24 241 110 196617 serial a 115200 8 1 0;#B color 5;#P message 96 185 32 196617 print;#P comment 133 186 215 196617 Print a list of serial ports to the max window;#P newex 124 318 78 196617 prepend append;#B color 1;#P newex 124 260 56 196617 route port;#B color 1;#P button 74 173 15 0;#P connect 14 0 7 0;#P connect 7 0 6 0;#P connect 6 0 8 0;#P connect 8 0 9 0;#P connect 9 0 5 0;#P fasten 4 0 5 0 101 217 29 217;#P fasten 11 0 5 0 115 243 29 243;#P fasten 0 0 5 0 79 211 29 211;#P connect 5 0 20 0;#P connect 20 0 13 0;#P connect 15 0 6 1;#P fasten 6 0 10 0 29 99 79 99;#P connect 10 0 0 0;#P connect 20 1 12 0;#P connect 24 0 4 0;#P connect 17 0 11 0;#P connect 5 1 1 0;#P connect 1 0 21 0;#P connect 21 0 19 0;#P connect 19 0 2 0;#P fasten 21 1 16 0 219 336 129 336;#P connect 2 0 16 0;#P connect 23 0 24 0;#P connect 24 0 22 0;#P pop;