max v2;#N vpatcher 26 271 1075 399;#P origin 0 6;#P window setfont "Sans Serif" 9.;#P window linecount 1;#P hidden newex 1068 120 237 196617 tm_editorbuilder /pushbox /tapemovie 3 2 4;#B color 6;#P button 1082 85 15 0;#P comment 1100 85 39 196617 delete;#P button 1068 66 15 0;#P comment 1085 66 31 196617 build;#N thispatcher;#Q end;#P hidden newobj 1068 140 61 196617 thispatcher;#P window linecount 0;#P comment 2390 14 100 196617;#P hidden connect 3 0 6 0;#P hidden connect 6 0 1 0;#P hidden connect 5 0 6 1;#P hidden connect 1 0 6 2;#P pop;