max v2;#N vpatcher 341 442 1595 988;#P origin -259 -548;#P window setfont "Sans Serif" 9.;#P flonum 173 46 35 9 0 0 0 3 0 0 0 221 221 221 222 222 222 0 0 0;#P objectname out_value;#P flonum 20 47 35 9 0 0 0 3 0 0 0 221 221 221 222 222 222 0 0 0;#P objectname in_value;#P hidden user textedit 168 45 256 62 98438 3 9 bang;#P objectname out_message;#P hidden user textedit 19 45 108 62 98438 3 9 0;#P objectname in_message;#P button 489 69 15 0;#P window linecount 1;#P newex 1127 275 50 196617 s $1/init;#B color 12;#P window linecount 3;#P newex 1127 225 50 196617 r mappers-init;#B color 12;#P window linecount 1;#P newex 445 24 76 196617 r mappers-init;#P window linecount 14;#P message 1033 312 119 196617 \; $1/mapedit 1 \; $1/in_module $1 \; $1/in_function wait \; $1/out_module $1 \; $1/out_function repeat \; $1/in_action 2 \; $1/in_value 0. \; $1/in_message 0 \; $1/out_action 2 \; $1/out_value 0. \; $1/out_message bang \; $1/sw 0 \; module_register $1 \;;#P window linecount 1;#P newex 1033 290 50 196617 r $1/init;#B color 12;#P newex 911 89 56 196617 route text;#P objectname modules[29];#P newex 615 87 56 196617 route text;#P objectname modules[27];#P newex 1110 151 83 196617 r $1/out_action;#P objectname modules[24];#P newex 1026 152 77 196617 r $1/in_action;#P objectname modules[25];#N vpatcher 250 148 1039 459;#P origin 24 0;#P window setfont "Sans Serif" 9.;#P number 44 45 35 9 0 0 0 3 0 0 0 221 221 221 222 222 222 0 0 0;#P outlet 329 247 15 0;#P window linecount 2;#P message 329 199 177 196617 script hide out_message \, script hide out_value;#P message 366 101 323 196617 script hide out_message \, script show out_value \, script bringtofront out_value;#P message 477 145 322 196617 script show out_message \, script hide out_value \, script bringtofront out_message;#P window linecount 1;#P newex 329 67 195 196617 sel 0 1 3 4 2;#P outlet 16 235 15 0;#P window linecount 2;#P message 16 175 167 196617 script hide in_message \, script hide in_value;#P window linecount 3;#P message 53 104 222 196617 script hide in_message \, script show in_value \, script bringtofront in_value \,;#P window linecount 0;#P message 200 151 118 196617 script show in_message \, script hide in_value \, script bringtofront in_message;#P newex 16 72 243 196617 sel 0 1 3 4 2;#P inlet 329 45 15 0;#P inlet 16 45 15 0;#P connect 0 0 2 0;#P connect 2 0 5 0;#P connect 5 0 6 0;#P fasten 4 0 6 0 58 211 21 211;#P fasten 3 0 6 0 205 231 21 231;#P connect 0 0 12 0;#P connect 2 1 4 0;#P connect 2 2 4 0;#P connect 2 3 4 0;#P connect 2 4 3 0;#P connect 1 0 7 0;#P connect 7 0 10 0;#P fasten 8 0 11 0 482 238 334 238;#P fasten 9 0 11 0 371 231 334 231;#P connect 10 0 11 0;#P connect 7 1 9 0;#P connect 7 4 8 0;#P connect 7 2 8 0;#P pop;#P newobj 1026 190 94 196617 p show_hide;#N thispatcher;#Q end;#P newobj 1026 223 61 196617 thispatcher;#P newex 910 112 112 196617 pvar tgate;#P objectname modules[22];#P newex 1027 112 161 196617 param $1/repeat $1 f;#P objectname modules[23];#P newex 611 112 112 196617 pvar wait;#P objectname modules[20];#P newex 728 112 161 196617 param $1/wait $1 f;#P objectname modules[21];#P newex 911 70 112 196617 pvar out_message;#P objectname modules[18];#P newex 1026 70 161 196617 paraml $1/out_message $1;#P objectname modules[19];#P newex 614 70 112 196617 pvar in_message;#P objectname modules[15];#P newex 727 70 161 196617 paraml $1/in_message $1;#P objectname modules[17];#P newex 911 48 112 196617 pvar out_value;#P objectname modules[12];#P newex 1028 48 149 196617 param $1/out_value $1 f 0 0 1;#P objectname modules[13];#P newex 614 48 112 196617 pvar in_value;#P objectname modules[10];#P newex 731 48 149 196617 param $1/in_value $1 f 0 0 1;#P objectname modules[11];#P newex 911 23 118 196617 pvar module_out_action;#P objectname modules[5];#P newex 1028 23 161 196617 param $1/out_action $1 m 0 3 0;#P objectname modules[6];#P newex 614 22 112 196617 pvar module_in_action;#P objectname modules[3];#P newex 731 22 155 196617 param $1/in_action $1 m 0 4 0;#P objectname modules[4];#N vpatcher 472 44 1459 466;#P window setfont "Sans Serif" 12.;#P number 81 262 35 12 0 0 0 3 0 0 0 221 221 221 222 222 222 0 0 0;#P flonum 567 195 35 12 0 0 0 3 0 0 0 221 221 221 222 222 222 0 0 0;#P button 498 262 15 0;#P button 478 149 15 0;#P toggle 412 191 15 0;#P flonum 397 141 35 12 0 0 0 3 0 0 0 221 221 221 222 222 222 0 0 0;#P window setfont "Sans Serif" 9.;#P number 234 246 35 9 0 0 0 3 0 0 0 221 221 221 222 222 222 0 0 0;#P flonum 283 196 35 9 0 0 0 3 0 0 0 221 221 221 222 222 222 0 0 0;#P flonum 226 190 35 9 0 0 0 3 0 0 0 221 221 221 222 222 222 0 0 0;#P newex 240 218 55 196617 == 0.;#P number 118 66 35 9 0 0 0 3 0 0 0 221 221 221 222 222 222 0 0 0;#P newex 600 217 65 196617 r $1/repeat;#P objectname modules[23];#P newex 693 218 56 196617 r $1/wait;#P objectname modules[21];#P newex 824 238 94 196617 r $1/out_message;#P objectname modules[1];#P newex 580 305 94 196617 r $1/out_message;#P objectname modules[19];#P newex 331 303 80 196617 r $1/out_value;#P objectname modules[13];#P newex 448 30 88 196617 r $1/in_message;#P objectname modules[17];#P newex 537 30 74 196617 r $1/in_value;#P objectname modules[11];#P newex 158 31 83 196617 r $1/in_action;#P objectname modules[24];#P newex 44 242 83 196617 r $1/out_action;#P objectname modules[25];#P message 824 288 55 196617 setmin \$1;#P newex 824 260 121 196617 unpack 0 0 0 0;#N counter;#X flags 0 0;#P newobj 791 315 109 196617 counter;#P newex 693 239 50 196617 * 1000.;#P newex 542 261 161 196617 del 0;#N vpatcher 10 59 250 273;#P window setfont "Sans Serif" 9.;#P window linecount 0;#P newex 146 92 50 196617 * 1000.;#P inlet 146 63 15 0;#P outlet 98 105 15 0;#P window linecount 1;#P newex 30 145 22 196617 t 1;#P newex 30 83 78 196617 t b 0 b;#P newex 30 123 125 196617 del 0;#P newex 30 60 50 196617 gate 1 1;#P inlet 70 38 15 0;#P fasten 4 0 1 0 35 169 26 169 26 53 35 53;#P connect 3 1 1 0;#P connect 1 0 3 0;#P connect 3 0 2 0;#P connect 2 0 4 0;#P connect 0 0 1 1;#P connect 3 2 5 0;#P connect 7 0 2 1;#P connect 6 0 7 0;#P pop;#P newobj 542 238 68 196617 p tgate;#P newex 44 263 27 196617 + 1;#P newex 158 53 27 196617 + 1;#P newex 542 325 47 196617 zl reg;#P newex 542 145 20 196617 t b;#P newex 542 99 70 196617 > 0.;#P newex 542 121 60 196617 change 0 -;#P newex 446 145 20 196617 t b;#P newex 446 101 65 196617 > 0.;#P newex 446 123 60 196617 change 0 +;#P inlet 557 80 15 0;#P newex 293 323 47 196617 f;#P newex 44 317 20 196617 t b;#P outlet 44 356 15 0;#P newex 44 285 758 196617 gate 4;#P newex 198 54 417 196617 gate 5;#P newex 158 101 20 196617 t b;#P newex 158 78 396 196617 gate 5;#P newex 254 121 32 196617 sel 1;#P newex 254 99 55 196617 == 0.;#P newex 350 122 32 196617 t b;#P newex 350 101 60 196617 zl sect;#P connect 27 0 20 0;#P connect 20 0 7 0;#P connect 7 0 9 0;#P fasten 24 0 8 0 796 346 49 346;#P connect 9 0 8 0;#P fasten 10 0 8 0 298 346 49 346;#P fasten 18 0 8 0 547 346 49 346;#P connect 27 0 46 0;#P connect 19 0 36 0;#P connect 28 0 19 0;#P connect 19 0 4 0;#P connect 4 0 5 0;#P connect 19 0 6 0;#P connect 37 0 40 0;#P connect 38 0 37 0;#P connect 4 1 2 0;#P connect 2 0 3 0;#P connect 39 0 37 1;#P connect 7 1 10 0;#P connect 6 1 2 1;#P connect 31 0 10 1;#P connect 4 2 0 0;#P connect 0 0 1 0;#P connect 4 3 41 0;#P connect 6 2 0 1;#P connect 12 0 42 0;#P connect 4 3 13 0;#P connect 13 0 12 0;#P connect 12 0 14 0;#P connect 12 0 43 0;#P connect 21 0 44 0;#P connect 6 3 13 1;#P connect 4 4 16 0;#P connect 16 0 15 0;#P connect 15 0 17 0;#P fasten 1 0 21 0 355 172 547 172;#P fasten 3 0 21 0 259 172 547 172;#P connect 17 0 21 0;#P fasten 14 0 21 0 451 172 547 172;#P fasten 5 0 21 0 163 172 547 172;#P connect 21 0 22 0;#P connect 7 2 18 0;#P connect 11 0 4 1;#P connect 32 0 18 1;#P connect 45 0 21 1;#P connect 35 0 21 1;#P connect 6 4 16 1;#P fasten 29 0 6 1 542 50 610 50;#P fasten 30 0 6 1 453 50 610 50;#P connect 34 0 23 0;#P connect 23 0 22 1;#P connect 26 0 24 0;#P connect 7 3 24 0;#P fasten 22 0 7 1 547 281 797 281;#P connect 25 2 24 1;#P connect 33 0 25 0;#P connect 25 0 26 0;#P connect 25 1 24 4;#P pop;#P newobj 36 390 50 196617 p engine;#P flonum 134 31 35 9 0 0 0 3 0 0 0 221 221 221 222 222 222 0 0 0;#P objectname wait;#P flonum 134 46 35 9 0 0 0 3 0 0 0 221 221 221 222 222 222 0 0 0;#P objectname tgate;#P comment 110 49 40 196617 Rpt;#P comment 109 32 30 196617 Wait;#P user ubumenu 190 30 66 196617 0 0 1 0;#X add bang;#X add value;#X add message;#X add counter;#X prefix_set 0 0 <none> 0;#X pattrmode 1;#P objectname module_out_action;#P user ubumenu 37 30 71 196617 0 0 1 0;#X add bang;#X add sel value;#X add sel message;#X add threshold up;#X add threshold dn;#X prefix_set 0 0 <none> 0;#X pattrmode 1;#P objectname module_in_action;#P button 212 342 15 0;#P newex 226 342 92 196617 r $1/out_function;#P objectname functions[4];#P newex 125 341 87 196617 r $1/out_module;#P objectname modules[14];#P newex 82 290 81 196617 r $1/in_module;#P objectname modules[45];#P newex 179 290 86 196617 r $1/in_function;#P objectname functions[2];#P window linecount 2;#P message 389 48 76 196617 \; $1/mapedit 1 \;;#P window linecount 1;#P newex 389 26 50 196617 r $1/init;#P newex 515 22 76 196617 r mappers-init;#P button 164 291 15 0;#P newex 715 152 50 196617 r $1/init;#P newex 715 173 50 196617 deferlow;#P newex 525 101 50 196617 s $1/init;#P newex 525 82 50 196617 del 500;#P newex 525 63 50 196617 deferlow;#P newex 525 42 65 196617 r movie-init;#P newex 392 152 50 196617 r $1/init;#P newex 392 173 50 196617 deferlow;#P newex 95 315 94 196617 sprintf set %s/%s;#P newex 139 369 98 196617 sprintf %s/%s;#P newex 921 338 63 196617 sprintf %s/;#P newex 762 413 124 196617 prefix_extractor prefix/;#P newex 597 336 63 196617 sprintf %s/;#P newex 438 409 124 196617 prefix_extractor prefix/;#P newex 389 81 71 196617 r mapedit;#P newex 389 101 99 196617 s $1/mapedit;#P newex 36 362 69 196617 gate;#P objectname modules[34];#P newex 36 338 49 196617 r $1/sw;#P objectname modules[33];#N thispatcher;#Q end;#P newobj 0 67 61 196617 thispatcher;#P newex 36 432 72 196617 forward;#P objectname modules[28];#P newex 139 399 72 196617 prepend send;#P objectname modules[26];#P newex 95 338 14 196617 r;#P objectname modules[16];#P comment 167 32 23 196617 Out;#P user ubumenu 74 15 68 196617 0 1 1 0;#X add sensor8;#X add sensor7;#X add sensor6;#X add sensor5;#X add sensor4;#X add sensor3;#X add sensor2;#X add sensor1;#X prefix_set 0 0 <none> 0;#X pattrmode 1;#P objectname ifcts;#P user ubumenu 20 15 55 196617 0 1 1 0;#X add /vc/ville/2;#X add /vc/ville/1;#X add /vc/voile;#X add /vc/depth/2;#X add /vc/depth/1;#X add /vc/path;#X add /vc/phase;#X add /kroonde;#X add cue;#X add capteur-quad3;#X add capteur-ville5;#X add capteur-ville6;#X add capteur-ville7;#X add capteur-ville8;#X add capteur-Atomz1;#X add capteur-Atomz2;#X add capteur-Atomz3;#X add capteur-Atomz4;#X add capteur-quad2;#X add capteur-quad4;#X add capteur-quad6;#X add capteur-ville1;#X add capteur-ville2;#X add capteur-ville3;#X add capteur-ville4;#X add capteur-quad5;#X add capteur-quad1;#X add $1;#X prefix_set 0 0 <none> 0;#X pattrmode 1;#P objectname imods;#P user ubumenu 189 15 67 196617 0 1 1 0;#X add video0;#X add quadback/undisplay;#X add quadback/display;#X add init/position/bord;#X add init/positionCity;#X add init/positionE;#X add init/positionC;#X add init/positionW;#X add flip/init;#X add camera/perspective;#X add camera/top;#X add camera/left;#X add camera/right;#X add camera/far;#X add camera/center;#X add finish;#X add opacity/ground;#X add fadeout;#X add fadein;#X add transly/ground;#X add translx/ground;#X add moebius;#X add specular/building/b;#X add specular/building/g;#X add specular/building/r;#X add diffuse/building/b;#X add diffuse/building/g;#X add diffuse/building/r;#X add specular/first/building/b;#X add specular/first/building/g;#X add specular/first/building/r;#X add diffuse/first/building/b;#X add diffuse/first/building/g;#X add diffuse/first/building/r;#X add specular/mirror/b;#X add specular/mirror/g;#X add specular/mirror/r;#X add diffuse/mirror/b;#X add diffuse/mirror/g;#X add diffuse/mirror/r;#X add opacity/quad/first/building/colf;#X add opacity/quad/first/building/colc;#X add opacity/quad/first/building/op;#X add opacity/quad/building/colf;#X add opacity/quad/building/colc;#X add opacity/quad/building/op;#X add opacity/mirror/texture/colf;#X add opacity/mirror/texture/colc;#X add opacity/mirror/texture/op;#X add opacity/quad/video;#X add echo;#X add opacity/mirror/mask;#X add opacity/mirror/texture;#X add opacity/sky/gray;#X add opacity/sky/blue;#X add opacity/quad/first/video;#X add opacity/quad/building;#X add flip/step;#X add rotation/step;#X add translz;#X add transly/step;#X add translx/step;#X add opacity/quad/first/building;#X prefix_set 0 0 <none> 0;#X pattrmode 1;#P objectname ofcts;#P user ubumenu 141 15 49 196617 0 1 1 0;#X add /vc/ville/2;#X add /vc/ville/1;#X add /vc/voile;#X add /vc/depth/2;#X add /vc/depth/1;#X add /vc/path;#X add /vc/phase;#X add /kroonde;#X add cue;#X add capteur-quad3;#X add capteur-ville5;#X add capteur-ville6;#X add capteur-ville7;#X add capteur-ville8;#X add capteur-Atomz1;#X add capteur-Atomz2;#X add capteur-Atomz3;#X add capteur-Atomz4;#X add capteur-quad2;#X add capteur-quad4;#X add capteur-quad6;#X add capteur-ville1;#X add capteur-ville2;#X add capteur-ville3;#X add capteur-ville4;#X add capteur-quad5;#X add capteur-quad1;#X add $1;#X prefix_set 0 0 <none> 0;#X pattrmode 1;#P objectname omods;#P comment 20 35 16 196617 In;#P newex 438 433 78 196617 prepend append;#P newex 438 387 69 196617 route symbol;#P newex 438 462 72 196617 pvar ifcts 2;#P objectname modules[7];#P newex 512 462 138 196617 param $1/in_function $1 s;#P objectname functions[1];#P newex 424 292 72 196617 pvar imods 2;#P objectname modules[8];#P newex 496 292 126 196617 param $1/in_module $1 s;#P objectname modules[9];#P newex 424 267 78 196617 prepend append;#P newex 424 245 69 196617 route symbol;#P button 449 171 15 0;#P newex 392 197 164 196617 t dump clear;#N coll modules 1;#P newobj 392 221 107 196617 coll modules 1;#P newex 423 340 121 196617 t dump l clear;#P newex 423 317 127 196617 sprintf refer %scontrols;#N coll /kroondecontrols;#P newobj 423 365 56 196617 coll;#P newex 762 441 78 196617 prepend append;#P newex 762 385 69 196617 route symbol;#P newex 762 471 72 196617 pvar ofcts 2;#P objectname modules[2];#P newex 836 471 139 196617 param $1/out_function $1 s;#P objectname functions;#P newex 747 290 72 196617 pvar omods 2;#P objectname modules[1];#P newex 819 290 134 196617 param $1/out_module $1 s;#P objectname modules;#P newex 747 267 78 196617 prepend append;#P newex 747 247 69 196617 route symbol;#P button 784 177 15 0;#P newex 715 199 164 196617 t dump clear;#N coll modules 1;#P newobj 715 223 107 196617 coll modules 1;#P newex 747 338 121 196617 t dump l clear;#P newex 747 315 127 196617 sprintf refer %svariables;#N coll /vc/depth/2variables;#P newobj 747 363 56 196617 coll;#P bpatcher 0 0 258 64 0 0 v_background.mxt 0 $1 $2;#P objectname background;#P hidden connect 0 0 38 0;#P connect 39 0 40 0;#P connect 40 0 72 0;#P fasten 36 0 37 0 144 424 41 424;#P connect 72 0 37 0;#P fasten 57 0 48 0 169 310 100 310;#P fasten 62 0 48 0 87 311 100 311;#P connect 48 0 35 0;#P connect 35 0 40 1;#P connect 63 0 47 0;#P connect 65 0 47 0;#P fasten 47 0 36 0 144 390 144 390;#P connect 61 0 57 0;#P connect 61 0 48 1;#P connect 64 0 65 0;#P connect 64 0 47 1;#P connect 59 0 60 0;#P connect 97 0 60 0;#P connect 42 0 41 0;#P connect 50 0 49 0;#P connect 49 0 19 0;#P fasten 20 0 19 0 454 194 397 194;#P connect 19 0 18 0;#P fasten 23 1 16 0 617 313 428 313;#P connect 16 0 17 0;#P fasten 17 1 15 0 483 361 428 361;#P connect 17 0 15 0;#P connect 18 1 21 0;#P connect 21 0 22 0;#P connect 22 0 24 0;#P fasten 19 1 24 0 551 287 429 287;#P connect 23 0 24 0;#P connect 15 1 27 0;#P connect 27 0 43 0;#P connect 43 0 28 0;#P connect 28 0 26 0;#P fasten 17 2 26 0 538 456 443 456;#P connect 25 0 26 0;#P connect 24 1 23 0;#P connect 26 1 25 0;#P fasten 58 0 52 0 520 61 530 61;#P connect 51 0 52 0;#P connect 52 0 53 0;#P connect 100 0 54 0;#P connect 53 0 54 0;#P connect 44 0 43 1;#P fasten 23 1 44 0 617 322 602 322;#P connect 85 0 86 0;#P connect 73 0 74 0;#P connect 77 0 78 0;#P connect 81 0 82 0;#P connect 82 0 93 0;#P connect 56 0 55 0;#P connect 55 0 5 0;#P fasten 6 0 5 0 789 196 720 196;#P connect 5 0 4 0;#P connect 93 0 81 0;#P connect 86 0 85 0;#P connect 74 0 73 0;#P connect 78 0 77 0;#P connect 4 1 7 0;#P connect 7 0 8 0;#P connect 8 0 10 0;#P fasten 5 1 10 0 874 286 752 286;#P connect 9 0 10 0;#P fasten 9 1 2 0 948 311 752 311;#P connect 2 0 3 0;#P connect 3 0 1 0;#P fasten 3 1 1 0 807 359 752 359;#P connect 1 1 13 0;#P connect 13 0 45 0;#P connect 45 0 14 0;#P connect 14 0 12 0;#P fasten 3 2 12 0 862 465 767 465;#P connect 11 0 12 0;#P connect 10 1 9 0;#P connect 12 1 11 0;#P connect 46 0 45 1;#P connect 87 0 88 0;#P connect 75 0 76 0;#P connect 79 0 80 0;#P connect 83 0 84 0;#P connect 84 0 94 0;#P fasten 9 1 46 0 948 322 926 322;#P connect 94 0 83 0;#P connect 91 0 90 0;#P fasten 90 1 89 0 1115 215 1031 215;#P fasten 90 0 89 0 1031 215 1031 215;#P connect 88 0 87 0;#P connect 76 0 75 0;#P connect 80 0 79 0;#P connect 95 0 96 0;#P connect 92 0 90 1;#P connect 98 0 99 0;#P pop;