max v2;#N vpatcher 40 102 654 659;#P window setfont Times 9.;#P window linecount 1;#P newex 318 55 18 1310729 t b;#P window setfont "Sans Serif" 9.;#P comment 373 27 176 196617 init and module param register write;#P comment 509 498 40 196617 switch;#P comment 480 326 66 196617 temp-preset;#P newex 462 238 79 196617 s $1-moreopen;#B color 11;#P newex 462 155 48 196617 loadbang;#P message 462 178 81 196617 brgb 0 200 180;#P user jsui 236 1 19 15 1 0 0 m_toggle.js off on;#P objectname sw;#P newex 462 216 20 196617 t b;#P newex 462 196 57 196617 pvar more;#P newex 323 167 48 196617 loadbang;#N thispatcher;#Q end;#P newobj 276 231 61 196617 thispatcher;#P message 366 210 84 196617 script hide more;#P message 276 210 89 196617 script show more;#P toggle 276 168 15 0;#P newex 276 186 41 196617 sel 1 0;#P message 292 168 21 196617 $2;#P user jsui 23 1 30 15 1 0 0 jsui_textbutton.js more;#P objectname more;#P newex 303 446 50 196617 deferlow;#P window setfont Times 9.;#P newex 314 291 34 1310729 t open;#P newex 318 35 43 1310729 pvar init;#P message 1 1 19 1310729 init;#B color 12;#P objectname init;#P newex 314 270 48 1310729 pvar open;#P newex 414 270 50 1310729 pvar recall;#P newex 364 270 48 1310729 pvar store;#P message 1 32 13 1310729 R;#B color 7;#P objectname recall;#P message 1 18 13 1310729 S;#B color 2;#P objectname store;#P message 1 46 13 1310729 O;#B color 9;#P objectname open;#P window setfont "Sans Serif" 9.;#P window linecount 2;#P message 318 75 114 196617 \; $1-init bang \;;#P window linecount 1;#P message 303 467 142 196617 script sendtoback background;#P newex 303 354 185 196617 switchparam $1/sw;#B color 5;#P newex 382 423 77 196617 t b i;#N comlet bang for "send to back";#P outlet 303 486 15 0;#P newex 473 270 40 196617 r temp;#P window setfont "Sans Serif" 12.;#P comment 120 0 114 196620 $1;#B frgb 255 255 255;#P user panel 123 1 112 16;#X brgb 116 116 116;#X frgb 0 0 0;#X border 0;#X rounded 8;#X shadow 0;#X done;#P window setfont Times 9.;#N vpatcher 191 424 545 678;#N comlet pvar open;#P inlet 58 140 15 0;#N comlet pvar recall;#P inlet 299 38 15 0;#N comlet pvar store;#P inlet 148 38 15 0;#P window setfont Times 9.;#P newex 148 58 27 1310729 b;#P newex 299 58 18 1310729 t b;#P newex 56 191 41 1310729 onebang;#P newex 148 141 98 1310729 sprintf %s %s-temp.txt;#P message 195 100 102 1310729 read $1;#P newex 195 68 43 1310729 loadbang;#P message 148 119 100 1310729 write $1;#P button 26 140 15 0;#N qlist;#X append $1/translz 1. \; $1/transly 0. \; $1/translx 0. \; $1/opacity1 0.638889 \;;#P newobj 26 169 40 1310729 qlist;#P newex 40 112 96 1310729 tempqlist $1;#B color 6;#P button 165 79 15 0;#P fasten 8 0 3 0 61 212 20 212 20 136 31 136;#P fasten 7 0 2 0 153 163 31 163;#P fasten 13 0 2 0 63 163 31 163;#P connect 3 0 2 0;#P fasten 1 0 2 0 45 163 31 163;#P connect 0 0 1 0;#P connect 2 2 8 0;#P fasten 9 0 8 1 304 187 92 187;#P connect 11 0 10 0;#P connect 10 0 4 0;#P connect 4 0 7 0;#P fasten 6 0 7 0 200 137 153 137;#P connect 10 1 0 0;#P connect 5 0 6 0;#P fasten 9 0 6 0 304 92 200 92;#P connect 12 0 9 0;#P pop;#P newobj 314 316 111 1310729 p temp-preset;#B color 6;#P window setfont "Sans Serif" 9.;#P newex 449 467 57 196617 pvar panel;#P newex 303 383 52 196617 pvar sw;#P newex 303 403 168 196617 param $1/sw $1 t 0 1 0;#B color 5;#P newex 449 446 60 196617 m_swcolor;#B color 5;#P user hint 2 46 15 60 "open temp preset text (qlist)" 750 100 0 65535 65535 52428 9 3 0 1 0 0 0;#P user hint 2 32 15 47 "recall temp preset" 750 100 0 65535 65535 52428 9 3 0 1 0 0 0;#P user hint 2 18 15 32 "store temp preset" 750 100 0 65535 65535 52428 9 3 0 1 0 0 0;#P user hint 2 1 21 15 "initialize this module" 750 100 0 65535 65535 52428 9 3 0 1 0 0 0;#P comment 270 5 88 196617 panel = 256 X 62;#P comment 274 148 178 196617 more parameters option (arg 2 \, 1/0);#P user panel 270 24 283 119;#X brgb 255 255 255;#X frgb 0 0 0;#X border 1;#X rounded 0;#X shadow 0;#X done;#P user panel 270 263 283 81;#X brgb 255 255 255;#X frgb 0 0 0;#X border 1;#X rounded 0;#X shadow 0;#X done;#P user panel 270 144 283 119;#X brgb 255 255 255;#X frgb 0 0 0;#X border 1;#X rounded 0;#X shadow 0;#X done;#P user panel 270 344 283 170;#X brgb 255 255 255;#X frgb 0 0 0;#X border 1;#X rounded 0;#X shadow 0;#X done;#P user panel 0 0 256 62;#X brgb 244 244 244;#X frgb 155 155 155;#X border 0;#X rounded 0;#X shadow 0;#X done;#P background;#P objectname panel;#P connect 35 0 37 0;#P connect 37 0 36 0;#P connect 36 0 38 0;#P fasten 39 0 40 0 371 228 281 228;#P connect 38 0 40 0;#P fasten 41 0 35 0 328 187 319 187 319 165 297 165;#P fasten 12 0 13 0 308 425 299 425 299 379 308 379;#P connect 13 0 12 0;#P fasten 20 0 33 0 387 443 308 443;#P connect 33 0 22 0;#P connect 22 0 19 0;#P connect 29 0 32 0;#P connect 32 0 15 0;#P connect 31 0 51 0;#P connect 51 0 23 0;#P connect 18 0 15 1;#P connect 27 0 15 1;#P fasten 36 1 39 0 296 206 371 206;#P fasten 12 1 20 0 466 421 387 421;#P connect 28 0 15 2;#P connect 20 1 11 0;#P connect 11 0 14 0;#P connect 46 0 45 0;#P connect 45 0 42 0;#P connect 42 0 43 0;#P connect 43 0 47 0;#P pop;