max v2;#N vpatcher 25 106 627 463;#P toggle 473 139 15 0;#P window setfont "Sans Serif" 9.;#P newex 473 99 67 196617 loadmess $2;#P newex 473 119 31 196617 == 0;#P newex 473 158 38 196617 gate 1;#P newex 473 178 80 196617 s $1-init;#B color 11;#P newex 501 138 70 196617 r camtrk-init;#B color 11;#P window setfont Times 9.;#P window linecount 2;#P comment 353 224 136 1310729 arg 1 : prefix name \; arg 2 : disable global init (1/0);#P window setfont "Sans Serif" 9.;#P window linecount 1;#P newex 49 296 97 196617 s $1-out;#B color 13;#P newex 61 68 97 196617 r $1-in;#B color 13;#P newex 118 183 105 196617 prepend auto_stream;#P toggle 118 164 15 0;#P newex 118 144 135 196617 r $1-auto_stream;#B color 11;#P toggle 85 141 15 0;#P newex 168 247 62 196617 prepend fps;#P window setfont Times 9.;#P flonum 168 230 30 9 0. 0 33 20 0 0 0 221 221 221 222 222 222 0 0 0;#P window setfont "Sans Serif" 9.;#P newex 168 210 106 196617 r $1-fps;#B color 11;#P newex 85 120 133 196617 r $1-stream_on;#B color 11;#P newex 294 95 80 196617 r $1-init;#B color 11;#P window linecount 5;#P message 294 122 166 196617 \; $1-sw 0 \; $1-stream_on 0 \; $1-auto_stream 0 \; $1-fps 25. \;;#P toggle 177 57 15 0;#P window linecount 1;#P newex 177 75 31 196617 == 0;#P newex 177 37 97 196617 r $1-sw;#B color 11;#P message 177 95 55 196617 bypass \$1;#P newex 23 265 69 196617 v.stillstream;#P window setfont "Sans Serif" 24.;#P comment 174 277 150 196632 v.stillstream;#N comlet vns stream out;#P outlet 23 296 15 0;#N comlet vns stream in;#P inlet 23 50 15 0;#P connect 0 0 3 0;#P fasten 4 0 3 0 182 115 28 115;#P connect 13 0 3 0;#P connect 14 0 3 0;#P connect 17 0 3 0;#P fasten 18 0 3 0 66 95 28 95;#P connect 3 0 1 0;#P connect 3 0 19 0;#P connect 10 0 14 0;#P connect 15 0 16 0;#P connect 16 0 17 0;#P connect 11 0 12 0;#P connect 12 0 13 0;#P connect 5 0 7 0;#P connect 7 0 6 0;#P connect 6 0 4 0;#P connect 9 0 8 0;#P connect 25 0 24 0;#P connect 24 0 26 0;#P connect 26 0 23 0;#P connect 23 0 22 0;#P connect 21 0 23 1;#P pop;