max v2;#N vpatcher 319 198 1229 658;#P window setfont "Sans Serif" 9.;#P window linecount 1;#P hidden newex -140 30 40 196617 change;#P hidden newex -98 30 44 196617 del 100;#P hidden newex -98 10 32 196617 sel 1;#P hidden toggle -157 31 15 0;#P hidden newex -157 11 38 196617 active;#P window setfont "Sans Serif" 12.;#P window linecount 2;#P comment 704 166 120 196620 save last edited event in any group;#P button 677 169 27 11;#P window setfont "Sans Serif" 9.;#P hidden message 707 169 167 196617 \; /eventmanager/writecurrent bang;#P window setfont "Sans Serif" 12.;#P comment 481 166 120 196620 save last edited event in any group;#P button 454 169 27 11;#P window setfont "Sans Serif" 9.;#P hidden message 484 169 167 196617 \; /eventmanager/writecurrent bang;#P window setfont "Sans Serif" 12.;#P comment 258 166 120 196620 save last edited event in any group;#P button 231 169 27 11;#P window setfont "Sans Serif" 9.;#P hidden message 261 169 167 196617 \; /eventmanager/writecurrent bang;#P window setfont "Sans Serif" 12.;#P comment 35 166 120 196620 save last edited event in any group;#P button 8 169 27 11;#P window setfont "Sans Serif" 9.;#P hidden message 38 169 167 196617 \; /eventmanager/writecurrent bang;#P hidden message 705 29 187 196617 \; /eventmanager/menu/osc/update bang;#P window linecount 1;#P comment 689 14 39 196617 update;#P button 674 13 15 0;#P window linecount 2;#P hidden message 482 29 195 196617 \; /eventmanager/menu/maps/update bang;#P window linecount 1;#P comment 466 14 39 196617 update;#P button 451 13 15 0;#P window linecount 2;#P hidden message 259 29 185 196617 \; /eventmanager/menu/cal/update bang;#P window linecount 1;#P comment 243 14 39 196617 update;#P button 228 13 15 0;#P window linecount 2;#P hidden message 36 29 182 196617 \; /eventmanager/menu/fx/update bang;#P window linecount 1;#P comment 20 14 39 196617 update;#P button 5 13 15 0;#P window setfont "Sans Serif" 18.;#P comment 759 12 41 196626 osc;#B frgb 200 0 0;#P comment 705 43 67 196626 create;#P button 678 43 27 6;#P comment 677 251 66 196626 delete;#P window setfont "Sans Serif" 9.;#P hidden newex 677 258 190 196617 fromto /eventmanager/deletemenu/osc;#B color 12;#P window setfont "Sans Serif" 10.;#P user ubumenu 677 275 162 196618 0 1 1 0;#X setrgb 31 31 31 255 100 75 234 234 234 4 4 4 141 141 141 112 112 112;#X types TEXT;#X prefix_set 0 1 there:/projects1/didascalie/ToLaLuSulO/tllslo/ToLaLuSulO/events/osc/ 1;#P window setfont "Sans Serif" 18.;#P comment 677 208 75 196626 rename;#P window setfont "Sans Serif" 9.;#P hidden newex 677 215 196 196617 fromto /eventmanager/renamemenu/osc;#B color 12;#P window setfont "Sans Serif" 10.;#P user ubumenu 677 232 162 196618 0 1 1 0;#X setrgb 31 31 31 200 200 0 234 234 234 4 4 4 141 141 141 112 112 112;#X types TEXT;#X prefix_set 0 1 there:/projects1/didascalie/ToLaLuSulO/tllslo/ToLaLuSulO/events/osc/ 1;#P window setfont "Sans Serif" 18.;#P comment 677 120 44 196626 edit;#P comment 677 72 46 196626 play;#P window setfont "Sans Serif" 9.;#P hidden newex 677 127 180 196617 fromto /eventmanager/editmenu/osc;#B color 12;#P window setfont "Sans Serif" 12.;#P user ubumenu 677 144 195 196620 0 1 1 0;#X setrgb 31 31 31 100 100 255 234 234 234 4 4 4 141 141 141 112 112 112;#X types TEXT;#X prefix_set 0 1 there:/projects1/didascalie/ToLaLuSulO/tllslo/ToLaLuSulO/events/osc/ 1;#P window setfont "Sans Serif" 9.;#P hidden newex 677 79 182 196617 fromto /eventmanager/playmenu/osc;#B color 12;#P window setfont "Sans Serif" 14.;#P user ubumenu 677 96 210 196622 0 1 1 0;#X setrgb 31 31 31 0 200 0 234 234 234 4 4 4 141 141 141 112 112 112;#X types TEXT;#X prefix_set 0 1 there:/projects1/didascalie/ToLaLuSulO/tllslo/ToLaLuSulO/events/osc/ 1;#P window setfont "Sans Serif" 9.;#P window linecount 2;#P hidden message 708 43 132 196617 \; /eventmanager/create osc;#P user panel 672 11 220 295;#X brgb 191 191 191;#X frgb 0 0 0;#X border 1;#X rounded 0;#X shadow 0;#X done;#P window setfont "Sans Serif" 18.;#P window linecount 1;#P comment 530 12 57 196626 maps;#B frgb 200 0 0;#P comment 482 43 67 196626 create;#P button 455 43 27 6;#P comment 454 251 66 196626 delete;#P window setfont "Sans Serif" 9.;#P hidden newex 454 258 198 196617 fromto /eventmanager/deletemenu/maps;#B color 12;#P window setfont "Sans Serif" 10.;#P user ubumenu 454 275 162 196618 0 1 1 0;#X setrgb 31 31 31 255 100 75 234 234 234 4 4 4 141 141 141 112 112 112;#X types TEXT;#X prefix_set 0 1 there:/projects1/didascalie/ToLaLuSulO/tllslo/ToLaLuSulO/events/maps/ 1;#P window setfont "Sans Serif" 18.;#P comment 454 208 75 196626 rename;#P window setfont "Sans Serif" 9.;#P hidden newex 454 215 204 196617 fromto /eventmanager/renamemenu/maps;#B color 12;#P window setfont "Sans Serif" 10.;#P user ubumenu 454 232 162 196618 0 1 1 0;#X setrgb 31 31 31 200 200 0 234 234 234 4 4 4 141 141 141 112 112 112;#X types TEXT;#X prefix_set 0 1 there:/projects1/didascalie/ToLaLuSulO/tllslo/ToLaLuSulO/events/maps/ 1;#P window setfont "Sans Serif" 18.;#P comment 454 120 44 196626 edit;#P comment 454 72 46 196626 play;#P window setfont "Sans Serif" 9.;#P hidden newex 454 127 188 196617 fromto /eventmanager/editmenu/maps;#B color 12;#P window setfont "Sans Serif" 12.;#P user ubumenu 454 144 195 196620 0 1 1 0;#X setrgb 31 31 31 100 100 255 234 234 234 4 4 4 141 141 141 112 112 112;#X types TEXT;#X prefix_set 0 1 there:/projects1/didascalie/ToLaLuSulO/tllslo/ToLaLuSulO/events/maps/ 1;#P window setfont "Sans Serif" 9.;#P hidden newex 454 79 190 196617 fromto /eventmanager/playmenu/maps;#B color 12;#P window setfont "Sans Serif" 14.;#P user ubumenu 454 96 210 196622 0 1 1 0;#X setrgb 31 31 31 0 200 0 234 234 234 4 4 4 141 141 141 112 112 112;#X types TEXT;#X prefix_set 0 1 there:/projects1/didascalie/ToLaLuSulO/tllslo/ToLaLuSulO/events/maps/ 1;#P window setfont "Sans Serif" 9.;#P window linecount 2;#P hidden message 485 43 140 196617 \; /eventmanager/create maps;#P user panel 449 11 220 295;#X brgb 191 191 191;#X frgb 0 0 0;#X border 1;#X rounded 0;#X shadow 0;#X done;#P window setfont "Sans Serif" 18.;#P window linecount 1;#P comment 317 12 34 196626 cal;#B frgb 200 0 0;#P comment 259 43 67 196626 create;#P button 232 43 27 6;#P comment 231 251 66 196626 delete;#P window setfont "Sans Serif" 9.;#P hidden newex 231 258 188 196617 fromto /eventmanager/deletemenu/cal;#B color 12;#P window setfont "Sans Serif" 10.;#P user ubumenu 231 275 162 196618 0 1 1 0;#X setrgb 31 31 31 255 100 75 234 234 234 4 4 4 141 141 141 112 112 112;#X add belair_3emedpa_2.txt;#X add belair_3emedpa_arr.txt;#X add belair_3emedpa_avt.txt;#X add belair_cal_3emedpa_1.txt;#X types TEXT;#X prefix_set 0 1 there:/projects1/didascalie/ToLaLuSulO/tllslo/ToLaLuSulO/events/cal/ 1;#P window setfont "Sans Serif" 18.;#P comment 231 208 75 196626 rename;#P window setfont "Sans Serif" 9.;#P hidden newex 231 215 194 196617 fromto /eventmanager/renamemenu/cal;#B color 12;#P window setfont "Sans Serif" 10.;#P user ubumenu 231 232 162 196618 0 1 1 0;#X setrgb 31 31 31 200 200 0 234 234 234 4 4 4 141 141 141 112 112 112;#X add belair_3emedpa_2.txt;#X add belair_3emedpa_arr.txt;#X add belair_3emedpa_avt.txt;#X add belair_cal_3emedpa_1.txt;#X types TEXT;#X prefix_set 0 1 there:/projects1/didascalie/ToLaLuSulO/tllslo/ToLaLuSulO/events/cal/ 1;#P window setfont "Sans Serif" 18.;#P comment 231 120 44 196626 edit;#P comment 231 72 46 196626 play;#P window setfont "Sans Serif" 9.;#P hidden newex 231 127 178 196617 fromto /eventmanager/editmenu/cal;#B color 12;#P window setfont "Sans Serif" 12.;#P user ubumenu 231 144 195 196620 0 1 1 0;#X setrgb 31 31 31 100 100 255 234 234 234 4 4 4 141 141 141 112 112 112;#X add belair_3emedpa_2.txt;#X add belair_3emedpa_arr.txt;#X add belair_3emedpa_avt.txt;#X add belair_cal_3emedpa_1.txt;#X types TEXT;#X prefix_set 0 1 there:/projects1/didascalie/ToLaLuSulO/tllslo/ToLaLuSulO/events/cal/ 1;#P window setfont "Sans Serif" 9.;#P hidden newex 231 79 180 196617 fromto /eventmanager/playmenu/cal;#B color 12;#P window setfont "Sans Serif" 14.;#P user ubumenu 231 96 210 196622 0 1 1 0;#X setrgb 31 31 31 0 200 0 234 234 234 4 4 4 141 141 141 112 112 112;#X add belair_3emedpa_2.txt;#X add belair_3emedpa_arr.txt;#X add belair_3emedpa_avt.txt;#X add belair_cal_3emedpa_1.txt;#X types TEXT;#X prefix_set 0 1 there:/projects1/didascalie/ToLaLuSulO/tllslo/ToLaLuSulO/events/cal/ 1;#P window setfont "Sans Serif" 9.;#P window linecount 2;#P hidden message 262 43 130 196617 \; /eventmanager/create cal;#P user panel 226 11 220 295;#X brgb 191 191 191;#X frgb 0 0 0;#X border 1;#X rounded 0;#X shadow 0;#X done;#P window setfont "Sans Serif" 18.;#P window linecount 1;#P comment 60 12 25 196626 fx;#B frgb 200 0 0;#P comment 36 43 67 196626 create;#P button 9 43 27 6;#P comment 8 251 66 196626 delete;#P window setfont "Sans Serif" 9.;#P hidden newex 8 258 185 196617 fromto /eventmanager/deletemenu/fx;#B color 12;#P window setfont "Sans Serif" 10.;#P user ubumenu 8 275 162 196618 0 1 1 0;#X setrgb 31 31 31 255 100 75 234 234 234 4 4 4 141 141 141 112 112 112;#X add aaa_fadeout.txt;#X add belair_3emedpa_1.txt;#X add belair_3emedpa_commissaire.txt;#X add drouot_4vignettes.txt;#X add drouot_facetoface.txt;#X add drouot_imagehabitee_1.txt;#X add drouot_imagehabitee_2.txt;#X add drouot_imagehabitee_3.txt;#X types TEXT;#X prefix_set 0 1 there:/projects1/didascalie/ToLaLuSulO/tllslo/ToLaLuSulO/events/fx/ 1;#P window setfont "Sans Serif" 18.;#P comment 8 208 75 196626 rename;#P window setfont "Sans Serif" 9.;#P hidden newex 8 215 191 196617 fromto /eventmanager/renamemenu/fx;#B color 12;#P window setfont "Sans Serif" 10.;#P user ubumenu 8 232 162 196618 0 1 1 0;#X setrgb 31 31 31 200 200 0 234 234 234 4 4 4 141 141 141 112 112 112;#X add aaa_fadeout.txt;#X add belair_3emedpa_1.txt;#X add belair_3emedpa_commissaire.txt;#X add drouot_4vignettes.txt;#X add drouot_facetoface.txt;#X add drouot_imagehabitee_1.txt;#X add drouot_imagehabitee_2.txt;#X add drouot_imagehabitee_3.txt;#X types TEXT;#X prefix_set 0 1 there:/projects1/didascalie/ToLaLuSulO/tllslo/ToLaLuSulO/events/fx/ 1;#P window setfont "Sans Serif" 18.;#P comment 8 120 44 196626 edit;#P comment 8 72 46 196626 play;#P window setfont "Sans Serif" 9.;#P hidden newex 8 127 175 196617 fromto /eventmanager/editmenu/fx;#B color 12;#P window setfont "Sans Serif" 12.;#P user ubumenu 8 144 195 196620 0 1 1 0;#X setrgb 31 31 31 100 100 255 234 234 234 4 4 4 141 141 141 112 112 112;#X add aaa_fadeout.txt;#X add belair_3emedpa_1.txt;#X add belair_3emedpa_commissaire.txt;#X add drouot_4vignettes.txt;#X add drouot_facetoface.txt;#X add drouot_imagehabitee_1.txt;#X add drouot_imagehabitee_2.txt;#X add drouot_imagehabitee_3.txt;#X types TEXT;#X prefix_set 0 1 there:/projects1/didascalie/ToLaLuSulO/tllslo/ToLaLuSulO/events/fx/ 1;#P window setfont "Sans Serif" 9.;#P hidden newex 8 79 177 196617 fromto /eventmanager/playmenu/fx;#B color 12;#P window setfont "Sans Serif" 14.;#P user ubumenu 8 96 210 196622 0 1 1 0;#X setrgb 31 31 31 0 200 0 234 234 234 4 4 4 141 141 141 112 112 112;#X add aaa_fadeout.txt;#X add belair_3emedpa_1.txt;#X add belair_3emedpa_commissaire.txt;#X add drouot_4vignettes.txt;#X add drouot_facetoface.txt;#X add drouot_imagehabitee_1.txt;#X add drouot_imagehabitee_2.txt;#X add drouot_imagehabitee_3.txt;#X types TEXT;#X prefix_set 0 1 there:/projects1/didascalie/ToLaLuSulO/tllslo/ToLaLuSulO/events/fx/ 1;#P window setfont "Sans Serif" 9.;#P window linecount 2;#P hidden message 39 43 127 196617 \; /eventmanager/create fx;#P user panel 3 11 220 295;#X brgb 191 191 191;#X frgb 0 0 0;#X border 1;#X rounded 0;#X shadow 0;#X done;#P message 614 411 190 196617 \; /eventmanager/play /osc/03-oscthree;#P message 398 411 199 196617 \; /eventmanager/play /maps/02-mapstwo;#P message 192 411 186 196617 \; /eventmanager/play /cal/03-calthree;#P message 6 411 180 196617 \; /eventmanager/play /fx/02-thistwo;#P window setfont "Sans Serif" 18.;#P window linecount 1;#P comment 176 315 717 196626 Attention ! If you create an event that already exists \, it replaces the old one !;#B frgb 200 0 0;#P comment 7 383 268 196626 "play by message" examples:;#P window setfont "Sans Serif" 14.;#N vpatcher 74 58 315 249;#P window setfont "Sans Serif" 14.;#P newex 36 121 150 196622 evman-submenu osc;#B color 6;#P newex 36 94 161 196622 evman-submenu maps;#B color 6;#P newex 36 67 144 196622 evman-submenu cal;#B color 6;#P newex 36 40 138 196622 evman-submenu fx;#B color 6;#P pop;#P hidden newobj -165 61 118 196622 p menu_drivers;#B color 6;#P window setfont "Sans Serif" 9.;#P window linecount 3;#P comment 313 357 185 196617 todo \; - get rid of .txt in names in menu only \; - build event sequence;#P window setfont "Sans Serif" 14.;#P window linecount 1;#N vpatcher 92 258 469 816;#P window setfont "Sans Serif" 9.;#P newex 73 490 20 196617 t b;#P newex 73 514 47 196617 forward;#P newex 73 460 121 196617 zl reg;#P newex 109 490 220 196617 sprintf send /eventmanager/menu/%s/update;#P newex 73 368 75 196617 prepend delete;#P number 73 413 35 9 0 0 0 3 0 0 0 221 221 221 222 222 222 0 0 0;#P newex 73 436 32 196617 sel 0;#P newex 73 343 51 196617 tosymbol;#P newex 73 321 68 196617 zl reg;#P newex 73 392 40 196617 fscopy;#P newex 26 51 230 196617 t s s s;#N vpatcher 10 59 298 351;#P window setfont "Sans Serif" 9.;#P window linecount 1;#P newex 61 50 76 196617 t l b;#P window linecount 0;#P message 127 99 85 196617 46 116 120 116;#P outlet 60 239 15 0;#P inlet 61 30 15 0;#P newex 60 211 40 196617 itoa;#P newex 101 144 29 196617 t 2 i;#P newex 120 165 27 196617 - 1;#P newex 88 189 42 196617 zl slice;#P newex 60 169 38 196617 gate 2;#P newex 61 94 40 196617 t l l 1;#P newex 101 123 36 196617 zl sub;#P newex 61 74 40 196617 atoi;#P connect 2 2 3 0;#P connect 6 0 3 0;#P connect 4 0 7 0;#P connect 3 0 7 0;#P connect 7 0 9 0;#P connect 8 0 11 0;#P connect 11 0 0 0;#P connect 0 0 2 0;#P connect 2 0 3 1;#P connect 3 1 4 0;#P connect 2 1 1 0;#P connect 1 0 6 0;#P connect 6 1 5 0;#P connect 5 0 4 1;#P connect 11 1 10 0;#P connect 10 0 1 1;#P pop;#P newobj 183 258 72 196617 p remove_txt;#B color 6;#P message 64 252 33 196617 close;#P newex 26 228 20 196617 t b;#P message 26 252 30 196617 open;#P newex 26 274 47 196617 pcontrol;#N vpatcher 327 144 864 272;#P window setfont "Sans Serif" 9.;#P window linecount 0;#P hidden newex 35 76 44 196617 del 100;#P hidden newex 16 108 21 196617 t 0;#P hidden newex 16 128 29 196617 gate;#P button 181 50 25 6;#P window setfont "Sans Serif" 18.;#P comment 208 48 42 196626 yes;#P window setfont "Sans Serif" 9.;#P hidden newex 70 175 44 196617 del 100;#P button 271 50 25 3;#N comlet to close;#P hidden outlet 53 203 15 0;#P hidden newex 16 170 30 196617 t b b;#N comlet bang out;#P hidden outlet 15 203 15 0;#P hidden newex 213 139 106 196617 bgcolor 128 128 128;#P window linecount 1;#P hidden newex 151 175 57 196617 t s clear 1;#P window setfont "Sans Serif" 14.;#P user umenu 16 12 500 196667 3 64 34 0;#X add Do you really want to delete osc event d091210-t144012 ?;#P window setfont "Sans Serif" 9.;#P window linecount 0;#P hidden newex 151 202 275 196617 sprintf append Do you really want to delete %s event %s ?;#P hidden inlet 151 115 15 0;#P hidden inlet 368 151 15 0;#P window setfont "Sans Serif" 18.;#P window linecount 1;#P comment 298 48 65 196626 cancel;#P hidden connect 8 1 7 0;#P hidden connect 5 1 4 0;#P hidden connect 3 0 4 0;#P hidden connect 11 0 15 0;#P hidden connect 16 0 15 0;#P hidden connect 5 2 14 0;#P hidden connect 15 0 14 0;#P hidden connect 14 0 8 0;#P hidden connect 13 0 16 0;#P hidden connect 16 0 14 1;#P hidden connect 11 0 9 0;#P hidden connect 8 0 9 0;#P hidden fasten 10 0 11 0 276 109 75 109;#P hidden connect 2 0 5 0;#P hidden connect 5 0 3 0;#P hidden connect 1 0 3 1;#P pop;#P newobj 73 299 51 196617 p delete?;#B color 6;#P newex 116 232 51 196617 strippath;#P newex 90 158 27 196617 + 1;#P newex 26 202 40 196617 itoa;#P newex 26 176 42 196617 zl ecils;#P number 90 138 35 9 0 0 0 3 0 0 0 221 221 221 222 222 222 0 0 0;#P newex 90 117 34 196617 zl len;#P newex 90 97 40 196617 atoi;#P newex 26 145 40 196617 atoi;#P newex 136 74 51 196617 strippath;#P newex 26 30 120 196617 r /eventmanager/delete;#B color 11;#P connect 0 0 16 0;#P connect 16 0 2 0;#P connect 2 0 6 0;#P connect 6 0 7 0;#P connect 7 0 13 0;#P connect 13 0 12 0;#P connect 12 0 11 0;#P connect 14 0 11 0;#P connect 8 0 6 1;#P connect 10 1 14 0;#P connect 9 0 10 0;#P connect 11 0 10 0;#P connect 10 0 18 0;#P connect 18 0 19 0;#P connect 19 0 22 0;#P connect 22 0 17 0;#P connect 17 0 21 0;#P connect 21 0 20 0;#P connect 20 0 24 0;#P connect 24 0 26 0;#P connect 23 0 25 0;#P connect 26 0 25 0;#P connect 1 0 3 0;#P connect 3 0 4 0;#P connect 4 0 5 0;#P connect 5 0 8 0;#P connect 24 0 23 0;#P connect 15 0 10 1;#P connect 7 0 9 0;#P connect 16 2 18 1;#P connect 16 1 1 0;#P connect 1 0 15 0;#P connect 9 0 24 1;#P pop;#P hidden newobj -165 193 118 196622 p delete_event;#B color 6;#P window setfont "Sans Serif" 9.;#P window linecount 2;#P message 7 345 138 196617 \; /eventmanager/stopall bang;#P window setfont "Sans Serif" 14.;#P window linecount 1;#N vpatcher 621 310 1091 852;#P window setfont "Sans Serif" 9.;#P window linecount 0;#P newex 166 456 20 196617 t b;#P newex 193 488 47 196617 forward;#P newex 197 426 36 196617 zl reg;#P newex 196 454 220 196617 sprintf send /eventmanager/menu/%s/update;#P window linecount 1;#P newex 261 347 75 196617 prepend delete;#P number 259 399 35 9 0 0 0 3 0 0 0 221 221 221 222 222 222 0 0 0;#P number 36 436 35 9 0 0 0 3 0 0 0 221 221 221 222 222 222 0 0 0;#P newex 260 422 32 196617 sel 0;#P newex 260 322 51 196617 tosymbol;#P newex 258 300 36 196617 zl reg;#P newex 259 378 40 196617 fscopy;#P window linecount 0;#P newex 9 47 78 196617 t s s s;#P window linecount 1;#P newex 37 454 32 196617 sel 0;#N vpatcher 10 59 298 351;#P window setfont "Sans Serif" 9.;#P window linecount 1;#P newex 61 50 76 196617 t l b;#P window linecount 0;#P message 127 99 85 196617 46 116 120 116;#P outlet 60 239 15 0;#P inlet 61 30 15 0;#P newex 60 211 40 196617 itoa;#P newex 101 144 29 196617 t 2 i;#P newex 120 165 27 196617 - 1;#P newex 88 189 42 196617 zl slice;#P newex 60 169 38 196617 gate 2;#P newex 61 94 40 196617 t l l 1;#P newex 101 123 36 196617 zl sub;#P newex 61 74 40 196617 atoi;#P connect 6 0 3 0;#P connect 2 2 3 0;#P connect 3 0 7 0;#P connect 4 0 7 0;#P connect 7 0 9 0;#P connect 8 0 11 0;#P connect 11 0 0 0;#P connect 0 0 2 0;#P connect 2 0 3 1;#P connect 3 1 4 0;#P connect 2 1 1 0;#P connect 1 0 6 0;#P connect 6 1 5 0;#P connect 5 0 4 1;#P connect 11 1 10 0;#P connect 10 0 1 1;#P pop;#P newobj 197 260 72 196617 p remove_txt;#B color 6;#P newex 28 368 51 196617 tosymbol;#P newex 26 322 20 196617 t b;#P newex 28 345 36 196617 zl reg;#P newex 137 318 51 196617 tosymbol;#P window linecount 0;#P message 106 246 33 196617 close;#P newex 26 392 145 196617 sprintf rename %s %s %s.txt;#P window linecount 1;#P newex 63 294 51 196617 tosymbol;#P newex 66 222 20 196617 t b;#P window linecount 0;#P message 75 246 30 196617 open;#P window linecount 1;#P newex 79 268 47 196617 pcontrol;#N vpatcher 67 267 591 400;#P window setfont "Sans Serif" 9.;#P window linecount 0;#P hidden newex 436 123 44 196617 del 100;#P hidden newex 16 108 21 196617 t 0;#P hidden newex 16 128 29 196617 gate;#P button 421 42 21 6;#P window setfont "Sans Serif" 18.;#P comment 441 38 57 196626 enter;#P window setfont "Sans Serif" 9.;#P hidden newex 353 173 62 196617 prepend set;#P hidden newex 70 175 44 196617 del 100;#P button 421 64 18 3;#N comlet to close;#P hidden outlet 53 202 15 0;#P hidden newex 16 170 30 196617 t b s;#N comlet new name out;#P hidden outlet 15 203 15 0;#P hidden newex 228 150 106 196617 bgcolor 128 128 128;#P hidden message 226 175 37 196617 select;#P hidden newex 16 149 56 196617 route text;#P window setfont "Sans Serif" 24.;#P user textedit 16 42 416 82 32896 3 24 02-thistwo;#P window setfont "Sans Serif" 9.;#P window linecount 1;#P hidden newex 151 175 65 196617 t s clear b 1;#P window setfont "Sans Serif" 18.;#P user umenu 16 12 500 196683 3 64 40 0;#X add Enter new name for fx event 02-thistwo;#P window setfont "Sans Serif" 9.;#P window linecount 0;#P hidden newex 151 202 227 196617 sprintf append Enter new name for %s event %s;#P hidden inlet 151 115 15 0;#P hidden inlet 368 151 15 0;#P window linecount 1;#P comment 169 82 254 196617 hit <enter> or click outside text box after typing text.;#P window setfont "Sans Serif" 18.;#P comment 438 59 65 196626 cancel;#P hidden connect 12 1 11 0;#P hidden connect 6 1 5 0;#P hidden connect 4 0 5 0;#P hidden connect 21 0 7 0;#P hidden connect 16 0 7 0;#P hidden connect 9 0 7 0;#P hidden fasten 14 0 20 0 426 102 21 102;#P hidden connect 20 0 19 0;#P hidden connect 6 3 19 0;#P hidden connect 19 0 8 0;#P hidden connect 8 0 12 0;#P hidden connect 7 0 19 1;#P hidden connect 15 0 13 0;#P hidden connect 12 0 13 0;#P hidden fasten 14 0 15 0 426 109 75 109;#P hidden connect 3 0 6 0;#P hidden connect 6 0 4 0;#P hidden connect 6 2 9 0;#P hidden connect 2 0 16 0;#P hidden connect 2 0 4 1;#P hidden connect 18 0 21 0;#P pop;#P newobj 137 290 71 196617 p enter_name;#B color 6;#P newex 136 223 51 196617 strippath;#P newex 102 174 27 196617 + 1;#P newex 40 169 40 196617 itoa;#P newex 39 143 42 196617 zl ecils;#P number 103 152 35 9 0 0 0 3 0 0 0 221 221 221 222 222 222 0 0 0;#P newex 106 126 34 196617 zl len;#P newex 106 102 40 196617 atoi;#P newex 39 87 40 196617 atoi;#P newex 136 69 51 196617 strippath;#P newex 36 416 40 196617 fscopy;#P newex 19 23 126 196617 r /eventmanager/rename;#B color 11;#P connect 0 0 24 0;#P connect 11 0 20 0;#P connect 21 0 16 0;#P connect 20 0 19 0;#P connect 19 0 21 0;#P connect 16 0 1 0;#P connect 1 0 29 0;#P connect 29 0 23 0;#P connect 24 1 3 0;#P connect 3 0 7 0;#P connect 7 0 8 0;#P connect 24 0 19 1;#P connect 8 0 15 0;#P connect 8 0 14 0;#P connect 9 0 7 1;#P connect 14 0 13 0;#P connect 17 0 12 0;#P connect 13 0 12 0;#P connect 15 0 16 1;#P connect 6 0 9 0;#P connect 5 0 6 0;#P connect 2 0 4 0;#P connect 4 0 5 0;#P connect 11 1 17 0;#P connect 24 2 2 0;#P connect 8 0 10 0;#P connect 10 0 11 0;#P connect 12 0 11 0;#P connect 11 0 18 0;#P connect 18 0 16 2;#P connect 33 0 35 0;#P connect 35 0 34 0;#P connect 32 0 34 0;#P connect 33 0 32 0;#P connect 2 0 22 0;#P connect 28 0 33 0;#P connect 22 0 11 1;#P connect 10 0 33 1;#P connect 23 0 26 0;#P connect 31 0 25 0;#P connect 25 0 30 0;#P connect 26 0 27 0;#P connect 30 0 28 0;#P connect 27 0 31 0;#P connect 24 0 26 1;#P pop;#P hidden newobj -165 167 124 196622 p rename_event;#B color 6;#N vpatcher 350 174 799 519;#P window setfont "Sans Serif" 9.;#P window linecount 1;#P newex 33 82 82 196617 r /events.1/sw;#B color 11;#P toggle 33 103 15 0;#P newex 33 121 29 196617 gate;#P newex 59 46 88 196617 r /events.1/play;#B color 11;#P newex 33 149 67 196617 route <none>;#P newex 348 204 31 196617 r /*;#P newex 285 204 32 196617 r **;#P newex 222 204 30 196617 r //;#P user textedit 33 266 111 284 32896 3 9 0 0 0 0 0 0 0 0;#P toggle 125 180 15 0;#P window linecount 0;#P newex 125 200 58 196617 metro 100;#P message 125 221 58 196617 busymap 1;#P newex 33 186 67 196617 prepend note;#P newex 33 23 112 196617 r /eventmanager/play;#B color 11;#P message 57 215 39 196617 open 1;#P newex 33 244 76 196617 poly~ evman 8;#B color 14;#P comment 147 25 253 196617 [event name (with or without .txt - without is better)];#P connect 16 0 15 0;#P connect 15 0 14 0;#P connect 14 0 12 0;#P fasten 12 1 4 0 95 176 38 176;#P connect 5 0 1 0;#P connect 2 0 1 0;#P connect 4 0 1 0;#P connect 1 0 8 0;#P connect 3 0 14 1;#P connect 13 0 14 1;#P connect 7 0 6 0;#P connect 6 0 5 0;#P pop;#P hidden newobj -165 113 101 196622 p play_event;#B color 6;#N vpatcher 491 44 1396 747;#P window setfont "Sans Serif" 9.;#P newex 157 111 150 196617 r /eventmanager/playmenu/to;#B color 12;#P message 681 158 81 196617 col 0 width 140;#P number 586 130 35 9 0 0 0 3 0 0 0 221 221 221 222 222 222 0 0 0;#P message 584 152 75 196617 col 1 width \$1;#P newex 274 251 49 196617 append 0;#P newex 251 228 72 196617 prepend store;#N coll fxcoll 1;#P newobj 302 276 64 196617 coll fxcoll 1;#P message 498 152 63 196617 refer fxcoll;#P user jit.cellblock 448 192 830 532 3 9 2 5 136 17 0 1 1 0 1 0 1 1 1 0 0 0 255 255 255 0 0 0 0 0 0 191 191 191 0 0 0 215 215 240 1 1 1 0 4 0 0 0;#X col 0 layout 140 1 1 0 0 1 0 0 0 -1 -1 -1;#X col 1 layout 58 1 1 0 251 1 0 0 0 -1 -1 -1;#P newex 68 601 32 196617 print;#P newex 163 600 32 196617 print;#P newex 264 603 32 196617 print;#P button 84 71 15 0;#P newex 83 92 48 196617 t b clear;#P message 103 233 18 196617 \\\;;#P newex 113 210 20 196617 t b;#P newex 280 193 40 196617 uzi;#P user textedit 71 303 282 591 32898 3 9 d091209-t162308.txt \; d091209-t162343.txt \; petit-fx-cityboats.txt \; petit-fx-feetville.txt \; petit-fx-ombre1.txt \;;#P newex 145 189 51 196617 strippath;#P newex 144 232 78 196617 prepend append;#P newex 280 173 61 196617 route count;#P message 82 116 34 196617 count;#P window setfont "Sans Serif" 14.;#P user ubumenu 82 147 208 196622 0 1 1 0;#X add .txt;#X add bender_mise_cam.txt;#X add bibli_cons_nico_2.txt;#X add biblio-black-white.txt;#X add biblio-calques-reverse.txt;#X add biblio-calques.txt;#X add biblio-cons_zencity-10.txt;#X add biblio-duo-flipcentre.txt;#X add biblio-duo-flipdroite.txt;#X add biblio-duo.txt;#X add biblio-miroir-flip-reverse.txt;#X add biblio-miroir-flip.txt;#X add biblio-miroir-reverse.txt;#X add biblio-miroir.txt;#X add biblio-pellicule-fli#23D20F.txt;#X add biblio-pellicule-fli#23D28D.txt;#X add biblio-pellicule-normal.txt;#X add biblio-white-white.txt;#X add biblio_cons_berto-2.txt;#X add biblio_cons_berto-4.txt;#X add biblio_cons_berto-6.txt;#X add biblio_cons_berto-8.txt;#X add biblio_cons_berto.txt;#X add biblio_cons_gout.txt;#X add biblio_cons_gout_10.txt;#X add biblio_cons_gout_11.txt;#X add biblio_cons_gout_2.txt;#X add biblio_cons_gout_3.txt;#X add biblio_cons_gout_4.txt;#X add biblio_cons_gout_5.txt;#X add biblio_cons_gout_6.txt;#X add biblio_cons_gout_7.txt;#X add biblio_cons_gout_8.txt;#X add biblio_cons_gout_9.txt;#X add biblio_cons_haddad.txt;#X add biblio_cons_haddad_1.txt;#X add biblio_cons_haddad_2.txt;#X add biblio_cons_haddad_3.txt;#X add biblio_cons_haddad_4.txt;#X add biblio_cons_haddad_5.txt;#X add biblio_cons_haddad_6.txt;#X add biblio_cons_haddas_3.txt;#X add biblio_cons_nico.txt;#X add biblio_cons_nico_3.txt;#X add biblio_cons_nico_4.txt;#X add biblio_cons_nico_5.txt;#X add biblio_cons_nico_6.txt;#X add biblio_cons_nico_7.txt;#X add biblio_cons_nico_8.txt;#X add biblio_cons_secret_adn.txt;#X add biblio_cons_secret_adn_2.txt;#X add biblio_cons_secret_adn_3.txt;#X add biblio_cons_secret_adn_4.txt;#X add biblio_cons_secret_adn_5.txt;#X add biblio_cons_secret_adn_6.txt;#X add biblio_cons_secret_adn_7.txt;#X add biblio_cons_secret_adn_8.5.txt;#X add biblio_cons_secret_adn_8.txt;#X add biblio_cons_secret_adn_9.txt;#X add biblio_cons_yasmine.txt;#X add biblio_cons_yasmine_2.txt;#X add biblio_cons_yasmine_3.txt;#X add biblio_cons_yasmine_4.5.txt;#X add biblio_cons_yasmine_4.txt;#X add biblio_cons_yasmine_5.txt;#X add biblio_cons_yasmine_6.txt;#X add biblio_cons_yasmine_7.txt;#X add biblio_cons_yasmine_8.txt;#X add biblio_cons_zencity-2.txt;#X add biblio_cons_zencity-4.txt;#X add biblio_cons_zencity-6.txt;#X add biblio_cons_zencity-8.txt;#X add biblio_cons_zencity-9.txt;#X add biblio_cons_zencity.txt;#X add BUFFERS.txt;#X add cal/01-calone.txt;#X add cal/02-caltwo.txt;#X add cal/03-calthree.txt;#X add cal/petit-cal-ombre1.txt;#X add cal/petit-cal-ombre2.txt;#X add cal/petit-cal-visca1.txt;#X add calibration-1.txt;#X add calibration-2.txt;#X add calibration-3.txt;#X add calibration-4.txt;#X add calibration-5.txt;#X add calibration-6.txt;#X add calibration-7.txt;#X add calibration-8.txt;#X add calibration-9.txt;#X add ct-preset1.txt;#X add ct-preset10.txt;#X add ct-preset2.txt;#X add ct-preset3.txt;#X add ct-preset4.txt;#X add ct-preset5.txt;#X add ct-preset6.txt;#X add ct-preset7.txt;#X add ct-preset8.txt;#X add ct-preset9.txt;#X add d091126-t135142.txt;#X add dca-maps.txt;#X add DCA-test.txt;#X add fx/01-thisisone.txt;#X add fx/02-thistwo.txt;#X add fx/03-thisthree.txt;#X add fx/04-thisfour.txt;#X add fx/05-thisfive.txt;#X add fx/petit-fx-cityboats.txt;#X add fx/petit-fx-feetville.txt;#X add fx/petit-fx-ombre1.txt;#X add gender_01.txt;#X add gender_02.txt;#X add gender_03.txt;#X add gender_04.txt;#X add gender_05.txt;#X add gender_06.txt;#X add gender_07.txt;#X add gender_b_01.txt;#X add gender_b_01b.txt;#X add gender_b_02.txt;#X add gender_b_02d.txt;#X add gender_c_01.txt;#X add gender_c_02b.txt;#X add gender_c_02c.txt;#X add gender_c_03.txt;#X add gender_cachecache_00.txt;#X add gender_cachecache_01.txt;#X add gender_cachecache_02.txt;#X add gender_cachecache_03.txt;#X add gender_cachecache_04.txt;#X add gender_cachecache_05.txt;#X add gender_combatcube_01.txt;#X add gender_convention.txt;#X add gender_danse_sandrine_bis.txt;#X add gender_dansegasp_01.txt;#X add gender_dansegasp_02.txt;#X add gender_dansegasp_03.txt;#X add gender_dansegasp_04.txt;#X add gender_leoperdu_01.txt;#X add gender_leoperdu_02.txt;#X add gender_leoperdu_03.txt;#X add gender_leoperdu_04.txt;#X add gender_leoperdu_05.txt;#X add gender_leoperdu_placard_01.txt;#X add gender_leoperdu_placard_02.txt;#X add gender_mise.txt;#X add gender_ombres_croisees_1_4.txt;#X add gender_placard_gasp_00.txt;#X add gender_placard_gasp_01.txt;#X add maps/01-mapsone.txt;#X add maps/02-mapstwo.txt;#X add matiss-argan.txt;#X add matiss-bougie.txt;#X add matiss-led->video.txt;#X add matiss-misevideo.txt;#X add matiss-ombre.txt;#X add matiss-ombre_reverse.txt;#X add matiss-transfert.txt;#X add mise.txt;#X add osc/01-oscone.txt;#X add osc/03-oscthree.txt;#X add palimpseste.txt;#X add pre-buffers_maps.txt;#X add pre-debut.txt;#X add pre-debut2.txt;#X add pre-effet1.txt;#X add pre-effet2.txt;#X add pre-fadeout.txt;#X add pre-fin.txt;#X add pre-fin2.txt;#X add pre-intro.txt;#X add pre-mise.txt;#X add pre-misetotal.txt;#X add pre-pre-intro.txt;#X add projet1/memoire1.txt;#X add reseau.txt;#X add reset-maps.txt;#X add reset.txt;#X add SQUARE.txt;#X add t_speaker-circle.txt;#X add t_speakertest1.txt;#X add t_speakertest2.txt;#X add t_speakertest3.txt;#X add t_speakertest4.txt;#X add t_speakertest5.txt;#X add t_speakertest6.txt;#X add t_speakertest7.txt;#X add t_speakertest8.txt;#X add t_speakertest9.txt;#X add TEST.txt;#X add testttt.txt;#X add trab-ombre2.txt;#X add trabi-allumette.txt;#X add trabi-calibration.txt;#X add trabi-mise.txt;#X add trabi-miseverif.txt;#X add trabi-ombre-depart.txt;#X add trabi-paysage1.txt;#X add trabi-verifcam.txt;#X add trabi-visca.txt;#X add vitess)retourled.txt;#X add vitess-17¡siecle.txt;#X add vitess-accroupi-elec.txt;#X add vitess-accroupi.txt;#X add vitess-argan.txt;#X add vitess-bougie.txt;#X add vitess-dcaSlide.txt;#X add vitess-dcaSlidEeOff->Black.txt;#X add vitess-disco.txt;#X add vitess-elec.txt;#X add vitess-flash.txt;#X add vitess-flashbak.txt;#X add vitess-jedi.txt;#X add vitess-laser.txt;#X add vitess-led-arrivee.txt;#X add vitess-ledVideo.txt;#X add vitess-noir.txt;#X add vitess-out.txt;#X add vitess-outlight.txt;#X add vitess-panne.txt;#X add vitess-postnuclear.txt;#X add vitess-spectre.txt;#X add vitess-tracenucleaire.txt;#X add vitess-tribune.txt;#X add vitesse-DCA.txt;#X types TEXT;#X prefix_set 0 1 there:/projects1/didascalie/ToLaLuSulO/tllslo-video/events/ 1;#P connect 5 0 13 0;#P connect 9 1 5 0;#P connect 3 0 5 0;#P connect 9 0 1 0;#P connect 6 2 0 0;#P connect 1 0 0 0;#P connect 22 0 0 0;#P connect 10 0 9 0;#P connect 7 0 8 0;#P connect 4 0 7 0;#P connect 4 0 3 0;#P connect 8 0 3 0;#P connect 0 1 4 0;#P connect 5 1 12 0;#P connect 4 0 17 0;#P connect 5 2 11 0;#P connect 17 0 18 0;#P connect 0 2 2 0;#P connect 2 0 6 0;#P connect 18 0 16 0;#P connect 9 1 16 0;#P connect 21 0 14 0;#P connect 19 0 14 0;#P connect 15 0 14 0;#P connect 20 0 19 0;#P pop;#P newobj 636 360 119 196622 p interface1???;#B color 6;#N vpatcher 752 214 1095 805;#P window setfont "Sans Serif" 9.;#P window linecount 1;#P newex 114 199 32 196617 print;#B color 6;#P message 102 144 39 196617 /tllslo;#P newex 102 174 44 196617 getnode;#B color 6;#P newex 39 180 44 196617 del 100;#P newex 11 475 20 196617 t b;#P window linecount 0;#P newex 11 497 32 196617 del 1;#P window linecount 1;#P newex 159 28 86 196617 r /cue-list/fillin;#P newex 86 205 20 196617 t s;#P newex 46 327 90 196617 t b s;#P message 77 256 33 196617 close;#P newex 46 226 117 196617 t b b b;#P message 46 256 30 196617 open;#P newex 46 277 65 196617 pcontrol;#P button 39 157 15 0;#P window linecount 0;#P newex 113 253 36 196617 zl reg;#P window linecount 1;#P message 162 62 23 196617 osc;#P message 122 62 33 196617 maps;#P message 99 62 21 196617 cal;#P newex 55 507 220 196617 sprintf send /eventmanager/menu/%s/update;#P newex 34 532 47 196617 forward;#B color 11;#P window linecount 0;#P message 76 62 18 196617 fx;#P window linecount 1;#P newex 171 154 104 196617 sprintf category_%s;#P newex 34 28 122 196617 r /eventmanager/create;#B color 11;#N vpatcher 395 171 939 309;#P window setfont "Sans Serif" 9.;#P window linecount 0;#P comment 15 94 408 196617 Hit <enter> or click outside text box to enter.;#P hidden newex 111 181 44 196617 del 100;#P hidden newex 77 152 44 196617 t stop b;#P hidden newex 16 181 44 196617 del 100;#P hidden newex 16 152 52 196617 t b s;#P hidden newex 16 204 52 196617 zl reg;#P hidden newex 392 173 62 196617 prepend set;#P hidden newex 77 129 50 196617 deferlow;#P button 418 46 32 3;#N comlet to close;#P hidden outlet 111 278 15 0;#P hidden newex 16 231 30 196617 t b s;#N comlet name out;#P hidden outlet 36 278 15 0;#P hidden newex 238 257 106 196617 bgcolor 128 128 128;#P hidden message 226 196 37 196617 select;#P hidden newex 16 129 56 196617 route text;#P window setfont "Sans Serif" 24.;#P user textedit 16 42 416 82 32902 3 24 aaa;#P window setfont "Sans Serif" 9.;#P window linecount 1;#P hidden newex 190 155 65 196617 t s clear b 1;#P window setfont "Sans Serif" 18.;#P user umenu 16 12 400 196683 3 64 40 0;#X add New fx event :;#P window setfont "Sans Serif" 9.;#P window linecount 0;#P hidden newex 190 222 227 196617 sprintf append New %s event :;#P hidden inlet 190 135 15 0;#P hidden inlet 392 151 15 0;#P window linecount 1;#P comment 15 82 408 196617 Keep automatic date-time name or change it to something else.;#P window setfont "Sans Serif" 18.;#P comment 449 49 65 196626 cancel;#P hidden connect 6 1 5 0;#P hidden connect 4 0 5 0;#P hidden connect 9 0 7 0;#P hidden connect 16 0 7 0;#P hidden connect 7 0 8 0;#P hidden connect 8 0 18 0;#P hidden connect 20 0 19 0;#P hidden connect 18 0 19 0;#P hidden connect 19 0 17 0;#P hidden connect 17 0 12 0;#P hidden connect 12 1 11 0;#P hidden connect 18 1 17 1;#P hidden fasten 14 0 15 0 423 109 82 109;#P hidden connect 15 0 20 0;#P hidden connect 20 1 21 0;#P hidden connect 12 0 13 0;#P hidden connect 21 0 13 0;#P hidden connect 3 0 6 0;#P hidden connect 6 0 4 0;#P hidden connect 6 2 9 0;#P hidden connect 2 0 16 0;#P pop;#P newobj 46 305 71 196617 p enter_name;#B color 6;#P newex 46 465 104 196617 print /eventmanager;#B color 11;#P newex 34 113 251 196617 t b b dump b s;#P window linecount 0;#P newex 126 278 76 196617 datetimestamp;#B color 6;#P newex 46 402 51 196617 tosymbol;#P newex 46 426 73 196617 prepend write;#P newex 46 370 91 196617 sprintf %sevents/%s/%s.txt;#B color 5;#P newex 46 348 62 196617 projectpath;#B color 6;#P newex 167 195 105 196617 configtext;#B color 13;#N vpatcher 30 89 337 326;#P window setfont "Sans Serif" 9.;#P window linecount 0;#P message 14 104 18 196617 cr;#P newex 199 147 40 196617 t clear;#N comlet bang to clear;#P inlet 199 40 15 0;#P window linecount 1;#P message 39 104 18 196617 \\\;;#P newex 14 77 35 196617 t b b;#N comlet text in;#P inlet 67 40 15 0;#P outlet 67 189 15 0;#P connect 1 0 2 0;#P connect 2 0 6 0;#P connect 2 1 3 0;#P connect 1 0 0 0;#P connect 3 0 0 0;#P connect 6 0 0 0;#P fasten 5 0 0 0 204 177 72 177;#P connect 4 0 5 0;#P pop;#P newobj 167 239 57 196617 p totext;#B color 13;#P newex 167 465 40 196617 text;#P newex 167 216 44 196617 getnode;#B color 6;#P connect 6 0 30 0;#P connect 30 0 29 0;#P connect 14 0 9 0;#P connect 19 0 9 0;#P connect 18 0 9 0;#P connect 17 0 9 0;#P connect 12 0 9 0;#P fasten 28 0 9 0 164 52 39 52;#P connect 29 0 15 0;#P connect 16 0 15 0;#P fasten 9 1 21 0 99 133 44 133;#P connect 21 0 31 0;#P connect 31 0 24 0;#P connect 24 0 23 0;#P connect 23 0 22 0;#P fasten 25 0 22 0 82 274 51 274;#P fasten 20 0 11 0 118 297 51 297;#P connect 22 0 11 0;#P connect 11 0 26 0;#P connect 26 0 4 0;#P connect 4 0 5 0;#P connect 5 0 7 0;#P connect 7 0 6 0;#P connect 6 0 10 0;#P fasten 9 4 16 0 279 495 60 495;#P connect 11 1 25 0;#P fasten 9 4 27 0 279 138 91 138;#P lcolor 2;#P connect 27 0 5 1;#P connect 33 0 32 0;#P fasten 8 0 11 1 131 303 112 303;#P connect 24 1 20 0;#P connect 32 0 34 0;#P fasten 24 2 8 0 157 274 131 274;#P connect 26 1 5 2;#P connect 27 0 20 1;#P connect 9 2 3 0;#P connect 3 0 0 0;#P connect 0 0 2 0;#P fasten 6 0 1 0 51 454 172 454;#P connect 2 0 1 0;#P connect 9 4 13 0;#P connect 9 3 2 1;#P connect 13 0 3 1;#P pop;#P hidden newobj -165 87 119 196622 p create_event;#B color 6;#N vpatcher 527 44 1277 847;#P window setfont "Sans Serif" 9.;#P window linecount 1;#P newex 62 286 29 196617 gate;#P newex 51 189 36 196617 zl reg;#P newex 38 112 51 196617 del 100;#P newex 38 88 40 196617 t b b 0;#P window linecount 2;#P message 452 246 167 196617 \; /eventmanager/writecurrent bang;#P window linecount 1;#P newex 12 451 104 196617 print /eventmanager;#B color 11;#P newex 103 128 44 196617 del 100;#P newex 286 634 31 196617 t set;#P newex 38 17 152 196617 r /eventmanager/writecurrent;#B color 11;#P newex 360 520 80 196617 prepend symbol;#N vpatcher 10 59 194 228;#P window setfont "Sans Serif" 9.;#P newex 50 93 62 196617 prepend set;#P newex 50 50 51 196617 route set;#P newex 50 71 51 196617 tosymbol;#P inlet 50 30 15 0;#P outlet 50 115 15 0;#P connect 1 0 3 0;#P connect 3 0 2 0;#P connect 2 0 4 0;#P connect 4 0 0 0;#P pop;#P newobj 194 419 88 196617 p set-symbol-set;#B color 3;#N vpatcher 10 59 194 228;#P window setfont "Sans Serif" 9.;#P newex 50 93 62 196617 prepend set;#P newex 50 50 51 196617 route set;#P newex 50 71 51 196617 tosymbol;#P inlet 50 30 15 0;#P outlet 50 115 15 0;#P connect 1 0 3 0;#P connect 3 0 2 0;#P connect 2 0 4 0;#P connect 4 0 0 0;#P pop;#P newobj 103 419 88 196617 p set-symbol-set;#B color 3;#P newex 558 515 40 196617 t clear;#P newex 208 744 44 196617 del 100;#P newex 174 738 30 196617 t b b;#P newex 139 666 45 196617 t open s;#P newex 194 691 47 196617 pcontrol;#P message 265 59 68 196617 cat1/ev1.00;#P newex 139 644 36 196617 zl reg;#N vpatcher 51 184 509 334;#P window setfont "Sans Serif" 9.;#P window linecount 5;#P hidden message 349 87 105 196617 window flags nofloat \, window flags zoom \, window flags close \, window flags grow \, window exec;#P hidden button 32 92 15 0;#P window linecount 4;#P hidden message 51 87 142 196617 window flags float \, window flags nozoom \, window flags noclose \, window flags nogrow \, window exec;#P window linecount 1;#N thispatcher;#Q end;#P hidden newobj 51 141 61 196617 thispatcher;#P hidden newex 89 220 82 196617 bgcolor 200 0 0;#P hidden newex 150 181 50 196617 deferlow;#P hidden newex 238 181 50 196617 deferlow;#P hidden message 11 211 33 196617 close;#N comlet bang to NOT save;#P hidden outlet 238 201 15 0;#N comlet to pcontrol;#P hidden outlet 11 231 15 0;#N comlet bang to save;#P hidden outlet 150 201 15 0;#P hidden button 238 143 15 0;#P hidden button 150 143 15 0;#P window setfont "Sans Serif" 36.;#P message 150 85 70 196644 yes;#P message 238 85 53 196644 no;#P window setfont "Sans Serif" 9.;#P hidden newex 10 116 36 196617 zl reg;#P window linecount 3;#P hidden newex 10 165 106 196617 sprintf set "%s" has been changed. Do you want to save it?;#P window setfont "Sans Serif" 24.;#P user textedit 10 11 445 79 32896 3 24 "fx/01-thisisone" has been changed. Do you want to save it?;#P hidden inlet 10 92 15 0;#P hidden connect 2 0 1 0;#P hidden connect 0 0 3 0;#P hidden connect 3 0 2 0;#P hidden connect 7 0 11 0;#P hidden connect 6 0 11 0;#P hidden connect 11 0 9 0;#P hidden connect 3 0 17 0;#P hidden connect 17 0 16 0;#P hidden connect 18 0 15 0;#P hidden connect 16 0 15 0;#P hidden connect 5 0 6 0;#P hidden connect 6 0 13 0;#P hidden connect 13 0 8 0;#P hidden connect 4 0 7 0;#P hidden connect 7 0 12 0;#P hidden connect 12 0 10 0;#P pop;#P newobj 174 717 72 196617 p save_todisk;#B color 6;#P comment 299 705 140 196617 if no diff then edit new event;#P newex 103 86 36 196617 zl reg;#P newex 109 61 30 196617 t b s;#P newex 109 40 110 196617 r /eventmanager/edit;#B color 11;#P button 12 164 15 0;#P window setfont Times 9.;#P newex 12 215 61 1310729 prepend write;#P window setfont "Sans Serif" 9.;#P newex 12 189 36 196617 zl reg;#P button 284 705 15 0;#P button 258 705 15 0;#P button 246 310 15 0;#P newex 246 329 69 196617 t query 0 set;#P newex 269 683 41 196617 sel 1 0;#P newex 269 660 48 196617 i;#P newex 342 642 21 196617 t 1;#P button 269 635 15 0;#P number 345 307 35 9 0 0 0 3 0 0 0 221 221 221 222 222 222 0 0 0;#P newex 133 450 40 196617 t i i;#P window linecount 4;#P comment 154 546 100 196617 if number of lines didn't change \, check for differences \, then SAVE if YES.;#P button 254 546 15 0;#P window linecount 1;#P newex 73 257 30 196617 t b b;#P button 269 546 15 0;#P newex 254 524 41 196617 sel 1 0;#P newex 254 500 27 196617 ==;#P number 224 473 35 9 0 0 0 3 0 0 0 221 221 221 222 222 222 0 0 0;#P number 133 473 35 9 0 0 0 3 0 0 0 221 221 221 222 222 222 0 0 0;#P newex 194 312 36 196617 zl reg;#P button 342 618 15 0;#P newex 342 597 29 196617 gate;#P newex 345 499 40 196617 t b s 1;#P newex 412 601 21 196617 t 0;#P newex 482 536 49 196617 append 0;#P newex 482 516 72 196617 prepend store;#N coll ;#P newobj 398 565 53 196617 coll;#P newex 345 325 40 196617 t b b i;#P window linecount 0;#P message 482 463 136 196617;#P message 345 463 136 196617;#P window linecount 1;#P message 375 345 41 196617 line \$1;#P newex 254 606 40 196617 uzi;#P newex 194 385 40 196617 text;#P window setfont Times 9.;#P newex 167 215 47 1310729 tosymbol;#P newex 167 193 122 1310729 append (save AFTER closing);#P window setfont "Sans Serif" 9.;#P message 241 238 41 196617 wclose;#P window setfont Times 9.;#P newex 167 237 69 1310729 prepend settitle;#P window setfont "Sans Serif" 9.;#N vpatcher 10 59 298 351;#P window setfont "Sans Serif" 9.;#P window linecount 1;#P newex 61 50 76 196617 t l b;#P window linecount 0;#P message 127 99 85 196617 46 116 120 116;#P outlet 60 239 15 0;#P inlet 61 30 15 0;#P newex 60 211 40 196617 itoa;#P newex 101 144 29 196617 t 2 i;#P newex 120 165 27 196617 - 1;#P newex 88 189 42 196617 zl slice;#P newex 60 169 38 196617 gate 2;#P newex 61 94 40 196617 t l l 1;#P newex 101 123 36 196617 zl sub;#P newex 61 74 40 196617 atoi;#P connect 6 0 3 0;#P connect 2 2 3 0;#P connect 3 0 7 0;#P connect 4 0 7 0;#P connect 7 0 9 0;#P connect 8 0 11 0;#P connect 11 0 0 0;#P connect 0 0 2 0;#P connect 2 0 3 1;#P connect 3 1 4 0;#P connect 2 1 1 0;#P connect 1 0 6 0;#P connect 6 1 5 0;#P connect 5 0 4 1;#P connect 11 1 10 0;#P connect 10 0 1 1;#P pop;#P newobj 195 143 72 196617 p remove_txt;#B color 6;#P newex 103 107 219 196617 t b s b 1;#P newex 103 149 62 196617 projectpath;#B color 6;#P window setfont Times 9.;#P newex 103 215 57 1310729 prepend read;#P newex 103 192 47 1310729 tosymbol;#P newex 103 171 110 1310729 sprintf %sevents/%s.txt;#P window setfont "Sans Serif" 9.;#P newex 103 385 40 196617 text;#P window linecount 2;#P comment 214 164 74 196617 remove .txt if there is one;#P window linecount 1;#P message 62 312 30 196617 open;#P window linecount 4;#P comment 284 546 52 196617 if number of lines changed \, SAVE;#P window linecount 2;#P comment 27 159 37 196617 write to disk;#P comment 302 166 214 196617 check if new = previous \, if yes \, ask "revert to saved version of x or save current.";#P fasten 71 1 50 0 58 134 17 134;#P fasten 60 1 50 0 199 760 5 760 5 161 17 161;#P connect 50 0 48 0;#P connect 48 0 49 0;#P connect 49 0 69 0;#P connect 66 0 71 0;#P connect 71 0 72 0;#P connect 7 0 48 1;#P connect 72 0 73 0;#P connect 10 3 74 0;#P connect 71 2 74 0;#P connect 74 0 3 0;#P fasten 5 1 35 0 123 413 59 413 59 254 78 254;#P connect 7 0 73 1;#P connect 35 0 74 1;#P fasten 47 0 53 0 289 725 327 725 327 82 108 82;#P lcolor 7;#P connect 57 0 10 0;#P connect 53 0 10 0;#P connect 10 0 68 0;#P connect 68 0 9 0;#P connect 9 0 6 0;#P connect 6 0 7 0;#P connect 7 0 8 0;#P connect 73 0 8 0;#P connect 8 0 5 0;#P connect 18 0 5 0;#P fasten 49 0 5 0 17 243 108 243;#P connect 3 0 5 0;#P connect 13 0 5 0;#P connect 12 0 5 0;#P connect 44 0 5 0;#P connect 5 0 63 0;#P connect 51 0 52 0;#P connect 52 1 53 1;#P connect 5 2 38 0;#P connect 38 0 30 0;#P connect 34 0 56 0;#P fasten 46 0 56 0 263 724 254 724 254 639 144 639;#P connect 56 0 59 0;#P connect 11 0 56 1;#P connect 11 0 14 0;#P connect 14 0 15 0;#P connect 15 0 12 0;#P connect 58 0 55 0;#P connect 59 1 55 0;#P connect 55 1 60 0;#P connect 35 1 29 0;#P connect 44 0 16 0;#P connect 18 0 16 0;#P connect 29 0 16 0;#P connect 16 0 64 0;#P connect 59 0 58 0;#P connect 55 0 58 0;#P connect 10 1 11 0;#P connect 11 0 6 1;#P connect 60 0 61 0;#P connect 8 0 29 1;#P connect 16 2 31 0;#P connect 10 2 13 0;#P connect 52 0 45 0;#P connect 45 0 44 0;#P connect 30 0 32 0;#P connect 32 0 33 0;#P connect 33 0 36 0;#P connect 36 0 17 0;#P connect 43 0 46 0;#P connect 33 1 34 0;#P connect 17 1 40 0;#P connect 40 0 42 0;#P connect 42 0 43 0;#P connect 31 0 32 1;#P connect 38 1 17 1;#P connect 43 1 47 0;#P connect 55 2 47 0;#P connect 61 0 47 0;#P connect 40 0 67 0;#P connect 41 0 42 1;#P connect 44 1 42 1;#P connect 25 0 27 0;#P connect 26 2 27 0;#P connect 27 0 28 0;#P connect 28 0 41 0;#P fasten 17 2 39 0 289 628 335 628 335 303 350 303;#P connect 39 0 21 0;#P connect 67 0 19 0;#P connect 63 0 19 0;#P connect 21 0 19 0;#P connect 44 2 19 0;#P connect 19 0 26 0;#P connect 26 1 65 0;#P connect 26 0 27 1;#P connect 21 2 18 0;#P connect 65 0 22 0;#P fasten 62 0 22 0 563 557 403 557;#P connect 24 0 22 0;#P connect 22 1 25 0;#P connect 64 0 20 0;#P fasten 21 1 20 0 365 417 487 417;#P connect 44 2 20 0;#P connect 67 0 20 0;#P connect 20 0 23 0;#P connect 23 0 24 0;#P fasten 20 0 62 0 487 487 563 487;#P connect 40 0 62 0;#P pop;#P hidden newobj -165 140 100 196622 p edit_event;#B color 6;#P window setfont "Sans Serif" 9.;#P window linecount 2;#P message 7 313 165 196617 \; /eventmanager/stop <eventname>;#P window linecount 1;#P hidden newex -163 336 208 196617 editorwindow /tllslo/eventmanager /movie;#N thispatcher;#Q end;#P hidden newobj -163 357 61 196617 thispatcher;#P hidden fasten 0 0 1 0 -158 377 -170 377 -170 333 -158 333;#P hidden connect 1 0 0 0;#P hidden connect 110 0 111 0;#P hidden connect 111 0 114 0;#P hidden connect 114 0 112 0;#P hidden connect 112 0 113 0;#P hidden connect 113 0 86 0;#P hidden connect 20 1 21 0;#P hidden connect 21 0 20 0;#P hidden connect 22 1 23 0;#P hidden connect 23 0 22 0;#P hidden connect 26 1 27 0;#P hidden connect 27 0 26 0;#P hidden connect 29 1 30 0;#P hidden connect 30 0 29 0;#P hidden connect 86 0 88 0;#P hidden connect 99 0 98 0;#P hidden connect 32 0 19 0;#P hidden connect 113 0 89 0;#P hidden connect 37 1 38 0;#P hidden connect 38 0 37 0;#P hidden connect 39 1 40 0;#P hidden connect 40 0 39 0;#P hidden connect 43 1 44 0;#P hidden connect 44 0 43 0;#P hidden connect 46 1 47 0;#P hidden connect 47 0 46 0;#P hidden connect 89 0 91 0;#P hidden connect 102 0 101 0;#P hidden connect 49 0 36 0;#P hidden connect 113 0 92 0;#P hidden connect 54 1 55 0;#P hidden connect 55 0 54 0;#P hidden connect 56 1 57 0;#P hidden connect 57 0 56 0;#P hidden connect 60 1 61 0;#P hidden connect 61 0 60 0;#P hidden connect 63 1 64 0;#P hidden connect 64 0 63 0;#P hidden connect 92 0 94 0;#P hidden connect 105 0 104 0;#P hidden connect 66 0 53 0;#P hidden connect 113 0 95 0;#P hidden connect 71 1 72 0;#P hidden connect 72 0 71 0;#P hidden connect 73 1 74 0;#P hidden connect 74 0 73 0;#P hidden connect 77 1 78 0;#P hidden connect 78 0 77 0;#P hidden connect 80 1 81 0;#P hidden connect 81 0 80 0;#P hidden connect 95 0 97 0;#P hidden connect 108 0 107 0;#P hidden connect 83 0 70 0;#P pop;