max v2;#N vpatcher 20 343 808 621;#P origin 0 8;#P window setfont "Sans Serif" 9.;#P window linecount 1;#P newex 30 133 112 196617 r /eventmanager/play;#B color 12;#P newex 30 170 286 196617 makeparam $1/play $1 s <none>;#B color 12;#P newex 616 66 44 196617 del 100;#P window setfont Times 9.;#P newex 616 87 85 1310729 s $1/built;#B color 11;#P window setfont "Sans Serif" 9.;#P newex 616 45 48 196617 loadbang;#P window linecount 4;#P message 382 78 162 196617 \; $1/sw/init bang \; $1/play/init bang \; module_register/store $1 \;;#P button 382 57 15 0;#P window linecount 1;#P newex 382 35 178 196617 r $1/init;#B color 11;#P toggle 30 55 15 0;#P newex 30 35 299 196617 makeswitch $1/sw $1 common_switchstate 1;#B color 11;#P window linecount 3;#P comment 667 47 80 196617 Must be present in module for build to happen !;#P user panel 613 42 136 65;#X brgb 255 0 0;#X frgb 0 0 0;#X border 1;#X rounded 0;#X shadow 0;#X done;#P connect 2 0 3 0;#P connect 11 0 10 0;#P connect 4 0 5 0;#P connect 5 0 6 0;#P connect 7 0 9 0;#P connect 9 0 8 0;#P pop;