max v2;#N vpatcher 0 44 300 529;#P window setfont "Sans Serif" 9.;#P message 201 327 68 196617 fill_screen 2;#P bpatcher 136 176 82 22 0 0 openbutton.mxt 0 analysis-CD "analysis channels CD editors" 82;#P bpatcher 136 152 82 22 0 0 openbutton.mxt 0 analysis-AB "analysis channels AB editors" 82;#P bpatcher 39 191 43 22 0 0 openbutton.mxt 0 prefs "open movie preferences" 43;#N thispatcher;#Q end;#P hidden newobj 155 421 61 196617 thispatcher;#P hidden newex 155 402 87 196617 r ct-mainwindow;#P hidden newex 189 448 88 196617 bgcolor 32 32 32;#P window linecount 2;#P comment 181 93 93 196617 write init sequence to disk;#P button 166 98 15 7;#P hidden message 175 97 133 196617 \; ct-initsequence/write bang;#P bpatcher 136 200 61 22 0 0 openbutton.mxt 0 network "network editors" 61;#P bpatcher 136 128 63 22 0 0 openbutton.mxt 0 cameras "camera editors" 63;#P window linecount 1;#P comment 179 301 47 196617 stop rec;#P button 165 300 15 4;#P comment 113 301 51 196617 start rec;#P button 99 300 15 6;#P comment 28 301 70 196617 setup rec file;#P button 14 300 15 1;#P window linecount 2;#P hidden message 165 308 76 196617 \; record stop;#P hidden message 14 308 118 196617 \; record record_pause;#P hidden message 99 308 90 196617 \; record resume;#P bpatcher 14 231 257 63 0 0 ct_vstreamab.edit.mxt 0 /windowxfade;#P hidden button 131 78 15 0;#P window linecount 1;#P hidden newex 131 58 38 196617 sel 48;#P hidden number 131 40 35 9 0 0 0 3 0 0 0 221 221 221 222 222 222 0 0 0;#P hidden newex 116 20 40 196617 key;#P comment 164 22 35 196617 <tab>;#P comment 181 75 88 196617 edit init sequence;#P button 166 74 15 12;#P window linecount 2;#P hidden message 175 70 128 196617 \; ct-initsequence/open bang;#P window linecount 1;#P hidden newex 206 392 75 196617 r camtrk-open;#P hidden message 206 411 33 196617 front;#N thispatcher;#Q end;#P hidden newobj 206 428 61 196617 thispatcher;#P hidden newex 146 321 75 196617 r cam-window;#B color 11;#P message 110 321 33 196617 front;#P window setfont "Sans Serif" 12.;#P newex 110 343 159 196620 v.window 0 200 320 440;#P comment 5 33 137 196620 paramètres actifs;#B frgb 8 58 255;#P window setfont "Sans Serif" 9.;#P hidden message 188 375 93 196617 brgb 164 161 220;#P window setfont "Sans Serif" 18.;#N vpatcher 403 115 1240 576;#P origin 0 8;#P window setfont "Sans Serif" 9.;#P window linecount 0;#P newex 237 193 48 196617 loadbang;#P message 237 214 72 196617 movie_fps 30;#N vpatcher 658 44 1285 830;#P bpatcher 315 118 257 63 0 0 ct_vcolourfilter.edit.mxt 0 /colorfiltD;#P user fpic 314 420 15 19 arrowD1.png 0 0 0 0. 0 0 3;#X interp 1;#P user fpic 315 339 15 19 arrowD1.png 0 0 0 0. 0 0 3;#X interp 1;#P user fpic 15 340 15 19 arrowD1.png 0 0 0 0. 0 0 3;#X interp 1;#P user fpic 15 259 15 19 arrowD1.png 0 0 0 0. 0 0 3;#X interp 1;#P bpatcher 16 118 257 63 0 0 ct_vcolourfilter.edit.mxt 0 /colorfiltC;#P user fpic 314 178 15 19 arrowD1.png 0 0 0 0. 0 0 3;#X interp 1;#P bpatcher 315 276 257 63 0 0 ct_vpresence.edit.mxt 0 /presenceD;#P user fpic 314 99 15 19 arrowD1.png 0 0 0 0. 0 0 3;#X interp 1;#P bpatcher 315 38 256 62 0 0 ct_vrotate.edit.mxt 0 /rotateD;#P user fpic 314 259 15 19 arrowD1.png 0 0 0 0. 0 0 3;#X interp 1;#P bpatcher 315 502 257 63 0 0 ct_vbounds.edit.mxt 0 /boundsD;#P bpatcher 315 694 257 63 0 0 ct_vregions.edit.mxt 0 /regionsD2;#P bpatcher 315 630 257 63 0 0 ct_vregions.edit.mxt 0 /regionsD;#P bpatcher 315 358 257 63 0 0 ct_jslide.edit.mxt 0 /slideD;#P bpatcher 315 566 257 63 0 0 ct_vsum.edit.mxt 0 /sumD;#P bpatcher 315 438 257 63 0 0 ct_vcentroid.edit.mxt 0 /centroidD;#P bpatcher 315 197 257 63 0 0 ct_vmotion.edit.mxt 0 /motionD;#P user fpic 15 179 15 19 arrowD1.png 0 0 0 0. 0 0 3;#X interp 1;#P bpatcher 16 277 257 63 0 0 ct_vpresence.edit.mxt 0 /presenceC;#P user fpic 15 100 15 19 arrowD1.png 0 0 0 0. 0 0 3;#X interp 1;#P bpatcher 16 38 256 62 0 0 ct_vrotate.edit.mxt 0 /rotateC;#P user fpic 15 420 15 19 arrowD1.png 0 0 0 0. 0 0 3;#X interp 1;#P bpatcher 16 502 257 63 0 0 ct_vbounds.edit.mxt 0 /boundsC;#P bpatcher 16 694 257 63 0 0 ct_vregions.edit.mxt 0 /regionsC2;#P bpatcher 16 630 257 63 0 0 ct_vregions.edit.mxt 0 /regionsC;#P bpatcher 16 358 257 63 0 0 ct_jslide.edit.mxt 0 /slideC;#P bpatcher 16 566 257 63 0 0 ct_vsum.edit.mxt 0 /sumC;#P bpatcher 16 438 257 63 0 0 ct_vcentroid.edit.mxt 0 /centroidC;#P bpatcher 16 197 257 63 0 0 ct_vmotion.edit.mxt 0 /motionC;#P window setfont "Sans Serif" 18.;#P comment 358 6 181 196626 analysis - channel D;#B frgb 8 58 255;#P window setfont Times 9.;#N vpatcher 254 68 476 301;#N comlet to thispatcher;#P outlet 31 190 15 0;#N comlet from toggle;#P inlet 16 106 15 0;#N comlet to toggle;#P outlet 16 72 15 0;#P window setfont Times 9.;#P newex 16 52 18 1310729 t 1;#P newex 16 31 43 1310729 loadbang;#P newex 16 124 40 1310729 sel 1 0;#P window setfont "Sans Serif" 9.;#P message 31 146 158 196617 window flags close \, window exec;#P message 16 164 168 196617 window flags noclose \, window exec;#P connect 3 0 4 0;#P connect 4 0 5 0;#P connect 6 0 2 0;#P connect 2 0 0 0;#P connect 2 1 1 0;#P connect 1 0 7 0;#P connect 0 0 7 0;#P pop;#P hidden newobj 19 1 50 1310729 p closebox;#B color 6;#P toggle 1 1 15 0;#N thispatcher;#Q end;#P hidden newobj 70 1 51 1310729 thispatcher;#P comment 17 1 74 1310729 inhibit close box;#P window setfont "Sans Serif" 18.;#P comment 59 6 181 196626 analysis - channel C;#B frgb 8 58 255;#P window setfont "Sans Serif" 9.;#N thispatcher;#Q end;#P hidden newobj 615 547 61 196617 thispatcher;#P hidden newex 615 525 111 196617 r /analysis-CD/editor;#P user panel 5 762 300 4;#X brgb 164 161 220;#X frgb 0 0 0;#X border 1;#X rounded 0;#X shadow 0;#X done;#P background;#P user panel 5 30 300 4;#X brgb 164 161 220;#X frgb 0 0 0;#X border 1;#X rounded 0;#X shadow 0;#X done;#P background;#P user panel 301 33 4 733;#X brgb 164 161 220;#X frgb 0 0 0;#X border 1;#X rounded 0;#X shadow 0;#X done;#P background;#P user panel 5 33 4 733;#X brgb 164 161 220;#X frgb 0 0 0;#X border 1;#X rounded 0;#X shadow 0;#X done;#P background;#P user panel 304 762 300 4;#X brgb 164 161 220;#X frgb 0 0 0;#X border 1;#X rounded 0;#X shadow 0;#X done;#P background;#P user panel 304 30 300 4;#X brgb 164 161 220;#X frgb 0 0 0;#X border 1;#X rounded 0;#X shadow 0;#X done;#P background;#P user panel 600 33 4 733;#X brgb 164 161 220;#X frgb 0 0 0;#X border 1;#X rounded 0;#X shadow 0;#X done;#P background;#P user panel 304 33 4 733;#X brgb 164 161 220;#X frgb 0 0 0;#X border 1;#X rounded 0;#X shadow 0;#X done;#P background;#P hidden connect 14 0 13 0;#P hidden connect 13 0 14 0;#P hidden connect 14 1 12 0;#P hidden connect 8 0 9 0;#P pop;#P newobj 676 224 132 196617 p analysis-channelsCD-edit;#B color 5;#P newex 512 338 92 196617 r module_register;#P newex 101 196 30 196617 v.jit;#N vpatcher 157 144 943 360;#P window setfont "Sans Serif" 12.;#P window linecount 1;#P comment 15 121 47 196620 events;#P window setfont "Sans Serif" 9.;#P user textedit 155 118 751 139 32897 3 9;#P objectname eventspath;#P button 70 114 31 0;#P objectname eventsbang;#P window linecount 2;#P comment 101 117 44 196617 set filepath;#P window linecount 1;#P hidden newex 500 204 83 196617 pvar eventspath;#P hidden newex 500 162 84 196617 pvar eventsbang;#N vpatcher 44 88 367 395;#N comlet bang to display current path;#P inlet 246 133 15 0;#P window setfont "Sans Serif" 9.;#P message 49 179 40 196617 events;#N comlet to message or text display;#P outlet 127 257 15 0;#P window linecount 1;#P newex 127 234 107 196617 substitute symbol set;#P window linecount 0;#N coll filepaths.txt;#P newobj 127 208 87 196617 coll filepaths.txt;#B color 5;#P newex 49 144 73 196617 t b writeagain;#P newex 127 116 105 196617 prepend store events;#P newex 127 68 44 196617 del 100;#P button 127 49 15 0;#P newex 127 91 74 196617 opendialog fold;#P inlet 127 29 15 0;#P connect 4 0 5 0;#P connect 5 0 9 0;#P connect 10 0 9 0;#P connect 0 0 2 0;#P connect 2 0 3 0;#P connect 3 0 1 0;#P connect 1 0 4 0;#P connect 4 0 6 0;#P connect 9 0 6 0;#P connect 5 1 6 0;#P connect 6 0 7 0;#P connect 7 0 8 0;#P pop;#P hidden newobj 500 184 106 196617 p set-events-filepath;#B color 6;#P hidden newex 342 208 80 196617 pvar configpath;#P hidden newex 342 166 81 196617 pvar configbang;#P window setfont "Sans Serif" 12.;#P comment 15 85 47 196620 config;#P window setfont "Sans Serif" 9.;#P hidden newex 545 253 32 196617 sel 1;#P hidden newex 545 230 38 196617 active;#P hidden newex 320 235 53 196617 closebang;#P hidden message 320 256 22 196617 set;#P user textedit 155 83 751 104 32897 3 9;#P objectname configpath;#P hidden newex 121 199 81 196617 r /prefs/editor;#B color 11;#N thispatcher;#Q end;#P hidden newobj 121 223 61 196617 thispatcher;#P window setfont "Sans Serif" 18.;#P comment 10 46 85 196626 filepaths;#B frgb 206 206 206;#P window setfont "Sans Serif" 9.;#P window linecount 2;#P comment 118 161 128 196617 access to filepath info with coll "filepaths.coll";#P window linecount 1;#N coll filepaths.txt;#P newobj 31 166 85 196617 coll filepaths.txt;#B color 5;#P window setfont "Sans Serif" 24.;#P comment 6 9 249 196632 CAMTRK preferences;#P window setfont "Sans Serif" 9.;#N vpatcher 44 88 367 395;#N comlet bang to display current path;#P inlet 246 133 15 0;#P window setfont "Sans Serif" 9.;#P message 49 179 37 196617 config;#N comlet to message or text display;#P outlet 127 257 15 0;#P window linecount 1;#P newex 127 234 107 196617 substitute symbol set;#P window linecount 0;#N coll filepaths.txt;#P newobj 127 208 85 196617 coll filepaths.txt;#B color 5;#P newex 49 144 73 196617 t b writeagain;#P newex 127 116 102 196617 prepend store config;#P newex 127 68 44 196617 del 100;#P button 127 49 15 0;#P newex 127 91 74 196617 opendialog fold;#P inlet 127 29 15 0;#P connect 4 0 5 0;#P connect 5 0 9 0;#P connect 10 0 9 0;#P connect 0 0 2 0;#P connect 2 0 3 0;#P connect 3 0 1 0;#P connect 1 0 4 0;#P connect 9 0 6 0;#P connect 5 1 6 0;#P connect 4 0 6 0;#P connect 6 0 7 0;#P connect 7 0 8 0;#P pop;#P hidden newobj 342 188 103 196617 p set-config-filepath;#B color 6;#P button 70 78 31 0;#P objectname configbang;#P hidden newex 15 221 48 196617 loadbang;#P hidden message 15 240 93 196617 brgb 171 152 129;#P hidden newex 15 201 100 196617 bgcolor 84 103 126;#P window linecount 2;#P comment 101 81 44 196617 set filepath;#P user panel 11 73 752 79;#X brgb 171 152 129;#X frgb 0 0 0;#X border 1;#X rounded 11;#X shadow 0;#X done;#P background;#P objectname panel;#P hidden connect 3 0 0 0;#P hidden connect 4 0 3 0;#P hidden connect 12 0 11 0;#P hidden connect 15 0 14 0;#P hidden connect 19 0 6 0;#P hidden connect 14 0 20 0;#P hidden connect 6 0 20 0;#P hidden connect 17 0 6 1;#P hidden connect 22 0 21 0;#P hidden connect 21 0 23 0;#P hidden connect 14 0 23 0;#P hidden connect 16 0 17 0;#P hidden connect 17 0 21 1;#P pop;#P newobj 202 83 109 196617 p camtrk-preferences;#B color 6;#P message 125 380 33 196617 front;#P newex 125 359 90 196617 r videowindow;#P window setfont "Sans Serif" 14.;#P newex 380 205 225 196622 udpsender /udpsend5 /camtrk;#B color 6;#P newex 362 236 225 196622 udpsender /udpsend6 /camtrk;#B color 6;#P window setfont "Sans Serif" 9.;#N vpatcher 962 44 1254 713;#P bpatcher 11 381 257 63 0 0 udpsender.edit.mxt 0 /udpsend6 2;#P bpatcher 11 316 257 63 0 0 udpsender.edit.mxt 0 /udpsend5 2;#P window setfont "Sans Serif" 18.;#P comment 11 554 254 196626 jit.net.send (image par udp);#B frgb 8 58 255;#P comment 11 454 113 196626 udp receive;#B frgb 8 58 255;#P comment 11 30 100 196626 udp sends;#B frgb 8 58 255;#P bpatcher 11 251 257 63 0 0 udpsender.edit.mxt 0 /udpsend4 2;#P bpatcher 11 186 257 63 0 0 udpsender.edit.mxt 0 /udpsend3 2;#P bpatcher 10 580 257 63 0 0 jitnetsender.edit.mxt 0 /netsend 2;#P comment 100 1 81 196626 network;#B frgb 8 58 255;#P bpatcher 11 480 257 63 0 0 udpreceiver.edit.mxt 0 /udpreceive 2;#P bpatcher 11 121 257 63 0 0 udpsender.edit.mxt 0 /udpsend2 2;#P bpatcher 11 56 257 63 0 0 udpsender.edit.mxt 0 /udpsend1 2;#P window setfont "Sans Serif" 9.;#N thispatcher;#Q end;#P hidden newobj 100 675 61 196617 thispatcher;#P hidden newex 100 654 94 196617 r /network/editor;#P user panel 6 546 270 4;#X brgb 164 161 220;#X frgb 0 0 0;#X border 1;#X rounded 0;#X shadow 0;#X done;#P background;#P user panel 5 447 270 4;#X brgb 164 161 220;#X frgb 0 0 0;#X border 1;#X rounded 0;#X shadow 0;#X done;#P background;#P user panel 5 645 270 4;#X brgb 164 161 220;#X frgb 0 0 0;#X border 1;#X rounded 0;#X shadow 0;#X done;#P background;#P user panel 271 29 4 620;#X brgb 164 161 220;#X frgb 0 0 0;#X border 1;#X rounded 0;#X shadow 0;#X done;#P background;#P user panel 5 29 270 4;#X brgb 164 161 220;#X frgb 0 0 0;#X border 1;#X rounded 0;#X shadow 0;#X done;#P background;#P user panel 5 29 4 620;#X brgb 164 161 220;#X frgb 0 0 0;#X border 1;#X rounded 0;#X shadow 0;#X done;#P background;#P hidden connect 6 0 7 0;#P pop;#P newobj 676 155 77 196617 p network-edit;#B color 5;#N vpatcher 289 44 921 838;#P bpatcher 315 118 257 63 0 0 ct_vcolourfilter.edit.mxt 0 /colorfiltB;#P user fpic 314 420 15 19 arrowD1.png 0 0 0 0. 0 0 3;#X interp 1;#P user fpic 315 339 15 19 arrowD1.png 0 0 0 0. 0 0 3;#X interp 1;#P user fpic 15 340 15 19 arrowD1.png 0 0 0 0. 0 0 3;#X interp 1;#P user fpic 15 259 15 19 arrowD1.png 0 0 0 0. 0 0 3;#X interp 1;#P bpatcher 16 118 257 63 0 0 ct_vcolourfilter.edit.mxt 0 /colorfiltA;#P user fpic 314 178 15 19 arrowD1.png 0 0 0 0. 0 0 3;#X interp 1;#P bpatcher 315 276 257 63 0 0 ct_vpresence.edit.mxt 0 /presenceB;#P user fpic 314 99 15 19 arrowD1.png 0 0 0 0. 0 0 3;#X interp 1;#P bpatcher 315 38 256 62 0 0 ct_vrotate.edit.mxt 0 /rotateB;#P user fpic 314 259 15 19 arrowD1.png 0 0 0 0. 0 0 3;#X interp 1;#P bpatcher 315 502 257 63 0 0 ct_vbounds.edit.mxt 0 /boundsB;#P bpatcher 315 694 257 63 0 0 ct_vregions.edit.mxt 0 /regionsB2;#P bpatcher 315 630 257 63 0 0 ct_vregions.edit.mxt 0 /regionsB;#P bpatcher 315 358 257 63 0 0 ct_jslide.edit.mxt 0 /slideB;#P bpatcher 315 566 257 63 0 0 ct_vsum.edit.mxt 0 /sumB;#P bpatcher 315 438 257 63 0 0 ct_vcentroid.edit.mxt 0 /centroidB;#P bpatcher 315 197 257 63 0 0 ct_vmotion.edit.mxt 0 /motionB;#P window setfont "Sans Serif" 18.;#P comment 358 6 181 196626 analysis - channel B;#B frgb 8 58 255;#P user fpic 15 179 15 19 arrowD1.png 0 0 0 0. 0 0 3;#X interp 1;#P bpatcher 16 277 257 63 0 0 ct_vpresence.edit.mxt 0 /presenceA;#P user fpic 15 100 15 19 arrowD1.png 0 0 0 0. 0 0 3;#X interp 1;#P bpatcher 16 38 256 62 0 0 ct_vrotate.edit.mxt 0 /rotateA;#P user fpic 15 420 15 19 arrowD1.png 0 0 0 0. 0 0 3;#X interp 1;#P window setfont Times 9.;#N vpatcher 254 68 476 301;#N comlet to thispatcher;#P outlet 31 190 15 0;#N comlet from toggle;#P inlet 16 106 15 0;#N comlet to toggle;#P outlet 16 72 15 0;#P window setfont Times 9.;#P newex 16 52 18 1310729 t 1;#P newex 16 31 43 1310729 loadbang;#P newex 16 124 40 1310729 sel 1 0;#P window setfont "Sans Serif" 9.;#P message 31 146 158 196617 window flags close \, window exec;#P message 16 164 168 196617 window flags noclose \, window exec;#P connect 3 0 4 0;#P connect 4 0 5 0;#P connect 6 0 2 0;#P connect 2 0 0 0;#P connect 2 1 1 0;#P connect 0 0 7 0;#P connect 1 0 7 0;#P pop;#P hidden newobj 19 1 50 1310729 p closebox;#B color 6;#P toggle 1 1 15 0;#N thispatcher;#Q end;#P hidden newobj 70 1 51 1310729 thispatcher;#P comment 17 1 74 1310729 inhibit close box;#P bpatcher 16 502 257 63 0 0 ct_vbounds.edit.mxt 0 /boundsA;#P bpatcher 16 694 257 63 0 0 ct_vregions.edit.mxt 0 /regionsA2;#P bpatcher 16 630 257 63 0 0 ct_vregions.edit.mxt 0 /regionsA;#P bpatcher 16 358 257 63 0 0 ct_jslide.edit.mxt 0 /slideA;#P bpatcher 16 566 257 63 0 0 ct_vsum.edit.mxt 0 /sumA;#P bpatcher 16 438 257 63 0 0 ct_vcentroid.edit.mxt 0 /centroidA;#P bpatcher 16 197 257 63 0 0 ct_vmotion.edit.mxt 0 /motionA;#P window setfont "Sans Serif" 18.;#P comment 59 6 181 196626 analysis - channel A;#B frgb 8 58 255;#P window setfont "Sans Serif" 9.;#N thispatcher;#Q end;#P hidden newobj 609 494 61 196617 thispatcher;#P hidden newex 609 472 112 196617 r /analysis-AB/editor;#P user panel 5 762 300 4;#X brgb 164 161 220;#X frgb 0 0 0;#X border 1;#X rounded 0;#X shadow 0;#X done;#P background;#P user panel 5 30 300 4;#X brgb 164 161 220;#X frgb 0 0 0;#X border 1;#X rounded 0;#X shadow 0;#X done;#P background;#P user panel 301 33 4 733;#X brgb 164 161 220;#X frgb 0 0 0;#X border 1;#X rounded 0;#X shadow 0;#X done;#P background;#P user panel 5 33 4 733;#X brgb 164 161 220;#X frgb 0 0 0;#X border 1;#X rounded 0;#X shadow 0;#X done;#P background;#P user panel 304 762 300 4;#X brgb 164 161 220;#X frgb 0 0 0;#X border 1;#X rounded 0;#X shadow 0;#X done;#P background;#P user panel 304 30 300 4;#X brgb 164 161 220;#X frgb 0 0 0;#X border 1;#X rounded 0;#X shadow 0;#X done;#P background;#P user panel 600 33 4 733;#X brgb 164 161 220;#X frgb 0 0 0;#X border 1;#X rounded 0;#X shadow 0;#X done;#P background;#P user panel 304 33 4 733;#X brgb 164 161 220;#X frgb 0 0 0;#X border 1;#X rounded 0;#X shadow 0;#X done;#P background;#P hidden connect 21 0 20 0;#P hidden connect 20 0 21 0;#P hidden connect 21 1 19 0;#P hidden connect 8 0 9 0;#P pop;#P newobj 676 201 133 196617 p analysis-channelsAB-edit;#B color 5;#N vpatcher 363 44 922 669;#P origin 0 -16;#P bpatcher 279 244 256 62 0 0 ct_vgain.edit.mxt 0 /cam2/gain;#P bpatcher 8 244 256 62 0 0 ct_vgain.edit.mxt 0 /cam1/gain;#P bpatcher 279 110 256 62 0 0 ct_vresize.edit.mxt 0 /cam2/resize;#P bpatcher 8 110 256 62 0 0 ct_vresize.edit.mxt 0 /cam1/resize;#P window setfont Times 9.;#N vpatcher 254 68 476 301;#N comlet to thispatcher;#P outlet 31 190 15 0;#N comlet from toggle;#P inlet 16 106 15 0;#N comlet to toggle;#P outlet 16 72 15 0;#P window setfont Times 9.;#P newex 16 52 18 1310729 t 1;#P newex 16 31 43 1310729 loadbang;#P newex 16 124 40 1310729 sel 1 0;#P window setfont "Sans Serif" 9.;#P message 31 146 158 196617 window flags close \, window exec;#P message 16 164 168 196617 window flags noclose \, window exec;#P connect 3 0 4 0;#P connect 4 0 5 0;#P connect 6 0 2 0;#P connect 2 0 0 0;#P connect 2 1 1 0;#P connect 1 0 7 0;#P connect 0 0 7 0;#P pop;#P hidden newobj 20 2 50 1310729 p closebox;#B color 6;#P toggle 2 2 15 0;#N thispatcher;#Q end;#P hidden newobj 71 2 51 1310729 thispatcher;#P comment 18 2 74 1310729 inhibit close box;#P user fpic 196 306 147 74 combine2.png 0 0 0 0. 0 0 0;#P window setfont "Sans Serif" 9.;#N thispatcher;#Q end;#P hidden newobj 23 483 61 196617 thispatcher;#P hidden newex 23 463 95 196617 r /cameras/editor;#P toggle 259 4 27 0;#P hidden newex 286 15 98 196617 vari /permutecams;#P comment 286 12 88 196617 permute cameras;#B frgb 255 0 0;#P bpatcher 148 407 256 62 0 0 ct_vflip.edit.mxt 0 /flip;#P bpatcher 147 471 256 62 0 0 ct_vcontrast.edit.mxt 0 /contrast;#P bpatcher 147 535 256 62 0 0 ct_vgain.edit.mxt 0 /gain;#P bpatcher 279 177 256 62 0 0 ct_vrotate.edit.mxt 0 /cam2/rotate;#P bpatcher 279 41 256 63 0 0 ct_jgrab.edit.mxt 0 /cam2/capture;#P bpatcher 8 177 256 62 0 0 ct_vrotate.edit.mxt 0 /cam1/rotate;#P bpatcher 10 41 256 63 0 0 ct_jgrab.edit.mxt 0 /cam1/capture;#P window setfont "Sans Serif" 18.;#P comment 147 382 108 196626 prep image;#B frgb 8 58 255;#P user panel 408 383 4 216;#X brgb 164 161 220;#X frgb 0 0 0;#X border 1;#X rounded 0;#X shadow 0;#X done;#P background;#P user panel 137 383 4 216;#X brgb 164 161 220;#X frgb 0 0 0;#X border 1;#X rounded 0;#X shadow 0;#X done;#P background;#P user panel 137 598 275 4;#X brgb 164 161 220;#X frgb 0 0 0;#X border 1;#X rounded 0;#X shadow 0;#X done;#P background;#P user panel 270 35 4 270;#X brgb 164 161 220;#X frgb 0 0 0;#X border 1;#X rounded 0;#X shadow 0;#X done;#P background;#P user panel 538 38 4 345;#X brgb 164 161 220;#X frgb 0 0 0;#X border 1;#X rounded 0;#X shadow 0;#X done;#P background;#P user panel 2 379 540 4;#X brgb 164 161 220;#X frgb 0 0 0;#X border 1;#X rounded 0;#X shadow 0;#X done;#P background;#P user panel 2 35 540 4;#X brgb 164 161 220;#X frgb 0 0 0;#X border 1;#X rounded 0;#X shadow 0;#X done;#P background;#P user panel 2 38 4 345;#X brgb 164 161 220;#X frgb 0 0 0;#X border 1;#X rounded 0;#X shadow 0;#X done;#P background;#P hidden connect 25 0 24 0;#P hidden connect 24 0 25 0;#P hidden connect 19 0 20 0;#P hidden connect 25 1 23 0;#P hidden connect 17 0 18 0;#P hidden connect 18 0 17 0;#P pop;#P newobj 676 178 78 196617 p cameras-edit;#B color 5;#P window setfont "Sans Serif" 14.;#P newex 463 82 225 196622 udpsender /udpsend1 /camtrk;#B color 6;#P newex 445 113 225 196622 udpsender /udpsend2 /camtrk;#B color 6;#P newex 427 144 225 196622 udpsender /udpsend3 /camtrk;#B color 6;#P newex 362 280 243 196622 udpreceiver /udpreceive /camtrk;#B color 6;#P newex 409 175 225 196622 udpsender /udpsend4 /camtrk;#B color 6;#P window setfont "Sans Serif" 9.;#P newex 362 35 79 196617 r fromCAMTRK;#B color 5;#P window linecount 2;#P message 714 80 82 196617 \; OSC testOSC \$1;#P number 714 60 35 9 0 0 0 3 0 0 0 221 221 221 222 222 222 0 0 0;#P window linecount 1;#P newex 714 39 36 196617 r test;#P window setfont "Sans Serif" 14.;#N vpatcher 304 103 1226 648;#P origin 0 -4;#P window setfont "Sans Serif" 9.;#P window linecount 1;#P newex 181 26 88 196617 r /camtrk/initall;#B color 11;#P window linecount 4;#P message 181 47 96 196617 \; /camtrk/init bang \; camtrk/init bang \; camtrk-init bang;#B color 7;#P window linecount 1;#P newex 107 35 32 196617 r **;#P window linecount 0;#P newex 16 54 38 196617 del 10;#P window linecount 1;#P message 592 205 64 196617 n;#P newex 592 185 62 196617 prepend set;#P button 563 294 15 0;#P window linecount 2;#P message 563 314 95 196617 \; network-open bang;#P window linecount 1;#P newex 563 273 27 196617 sel;#P number 580 252 35 9 0 0 0 3 0 0 0 221 221 221 222 222 222 0 0 0;#P newex 580 227 40 196617 atoi;#P window linecount 3;#P comment 181 107 191 196617 mainwindow videowindow camerawindow motionwindow presencewindow presence-setreference cropwindow;#P window linecount 9;#P comment 412 34 127 196617 w = videowindow \; c = camerawindow \; p = presencewindow \; m = motionwindow \; v = mainwindow \; C = cropwindow \; P = presence-setreference \; n = networkwindow \;;#P window linecount 0;#P message 519 205 64 196617 C;#P window linecount 1;#P newex 519 185 62 196617 prepend set;#P window linecount 0;#P message 446 205 64 196617 P;#P window linecount 1;#P newex 446 185 62 196617 prepend set;#P window linecount 0;#P message 373 205 64 196617 p;#P window linecount 1;#P newex 373 185 62 196617 prepend set;#P window linecount 0;#P message 300 205 64 196617 m;#P window linecount 1;#P newex 300 185 62 196617 prepend set;#P window linecount 0;#P message 227 205 64 196617 c;#P window linecount 1;#P newex 227 185 62 196617 prepend set;#P window linecount 0;#P message 154 205 64 196617 w;#P window linecount 1;#P newex 154 185 62 196617 prepend set;#P window linecount 0;#P message 81 205 64 196617 v;#P newex 81 185 62 196617 prepend set;#P button 490 327 15 0;#P window linecount 2;#P message 490 347 136 196617 \; ct-p-4crops-moreopen bang;#P window linecount 1;#P newex 490 306 27 196617 sel;#P number 507 252 35 9 0 0 0 3 0 0 0 221 221 221 222 222 222 0 0 0;#P newex 507 227 40 196617 atoi;#P button 417 362 15 0;#P window linecount 2;#P message 417 381 150 196617 \; ct-presence-setreference bang;#P window linecount 1;#P newex 417 342 27 196617 sel;#P number 434 252 35 9 0 0 0 3 0 0 0 221 221 221 222 222 222 0 0 0;#P newex 434 227 40 196617 atoi;#P button 344 428 15 0;#P window linecount 2;#P message 344 448 142 196617 \; analyses-presence-open bang;#P window linecount 1;#P newex 344 407 27 196617 sel;#P number 361 252 35 9 0 0 0 3 0 0 0 221 221 221 222 222 222 0 0 0;#P newex 361 227 40 196617 atoi;#P button 271 326 15 0;#P window linecount 2;#P message 271 344 132 196617 \; analyses-motion-open bang;#P window linecount 1;#P newex 271 306 27 196617 sel;#P number 288 252 35 9 0 0 0 3 0 0 0 221 221 221 222 222 222 0 0 0;#P newex 288 227 40 196617 atoi;#P button 198 432 15 0;#P window linecount 0;#P newex 198 412 27 196617 sel;#P number 215 252 35 9 0 0 0 3 0 0 0 221 221 221 222 222 222 0 0 0;#P newex 215 227 40 196617 atoi;#P window linecount 2;#P message 198 450 96 196617 \; cameras-open bang;#P number 142 252 35 9 0 0 0 3 0 0 0 221 221 221 222 222 222 0 0 0;#P window linecount 1;#P newex 142 227 40 196617 atoi;#P button 141 360 15 0;#P window linecount 2;#P message 141 380 105 196617 \; ct-videowindow bang;#P window linecount 1;#P newex 141 339 27 196617 sel;#P button 52 399 15 0;#P window linecount 2;#P message 52 418 105 196617 \; ct-mainwindow front;#P window linecount 0;#P newex 52 378 27 196617 sel;#P number 69 252 35 9 0 0 0 3 0 0 0 221 221 221 222 222 222 0 0 0;#P newex 12 270 40 196617 key;#P window linecount 1;#P newex 69 227 40 196617 atoi;#P window linecount 0;#P newex 69 162 599 196617 route mainwindow videowindow camerawindow motionwindow presencewindow presence-setreference cropwindow networkwindow;#P window linecount 1;#P newex 69 140 70 196617 r ct-shortcut;#B color 11;#P button 16 36 15 0;#P bpatcher 16 74 126 62 0 0 qlistinitshell.edit.mxt 0 ct-initsequence;#P window linecount 0;#P newex 107 15 30 196617 r //;#P window linecount 1;#P newex 16 15 71 196617 r camtrk/init;#B color 11;#P window linecount 7;#P comment 563 34 112 196617 w = fenêtre vidéo \; c= fenêtre caméra \; p = fenêtre présence \; m = fenêtre motion \; v = fenêtre principale \; C = fenêtre crop \; P = persistence \;;#P connect 1 0 4 0;#P connect 4 0 66 0;#P connect 66 0 3 0;#P connect 8 0 10 0;#P lcolor 6;#P connect 10 0 12 0;#P connect 12 0 11 0;#P connect 5 0 6 0;#P connect 6 0 7 0;#P connect 7 0 9 0;#P connect 9 0 10 1;#P connect 6 0 43 0;#P connect 43 0 44 0;#P connect 8 0 13 0;#P lcolor 6;#P connect 13 0 15 0;#P connect 15 0 14 0;#P connect 6 1 16 0;#P connect 16 0 17 0;#P connect 6 1 45 0;#P connect 45 0 46 0;#P connect 17 0 13 1;#P connect 69 0 68 0;#P connect 8 0 21 0;#P lcolor 6;#P connect 21 0 22 0;#P connect 22 0 18 0;#P connect 6 2 19 0;#P connect 19 0 20 0;#P connect 20 0 21 1;#P connect 6 2 47 0;#P connect 47 0 48 0;#P connect 8 0 25 0;#P lcolor 6;#P connect 25 0 27 0;#P connect 27 0 26 0;#P connect 6 3 23 0;#P connect 23 0 24 0;#P connect 24 0 25 1;#P connect 6 3 49 0;#P connect 49 0 50 0;#P connect 8 0 30 0;#P lcolor 6;#P connect 30 0 32 0;#P connect 32 0 31 0;#P connect 6 4 28 0;#P connect 28 0 29 0;#P connect 29 0 30 1;#P connect 6 4 51 0;#P connect 51 0 52 0;#P connect 8 0 35 0;#P lcolor 6;#P connect 35 0 37 0;#P connect 37 0 36 0;#P connect 6 5 33 0;#P connect 33 0 34 0;#P connect 34 0 35 1;#P connect 6 5 53 0;#P connect 53 0 54 0;#P connect 8 0 40 0;#P lcolor 6;#P connect 40 0 42 0;#P connect 42 0 41 0;#P connect 6 6 38 0;#P connect 38 0 39 0;#P connect 39 0 40 1;#P connect 6 6 55 0;#P connect 55 0 56 0;#P connect 8 0 61 0;#P lcolor 6;#P connect 61 0 63 0;#P connect 63 0 62 0;#P connect 6 7 59 0;#P connect 59 0 60 0;#P connect 60 0 61 1;#P connect 6 7 64 0;#P connect 64 0 65 0;#P pop;#P newobj 230 46 44 196622 p init;#B color 5;#N vpatcher 290 69 1104 799;#P window setfont "Sans Serif" 9.;#P window linecount 1;#P newex 579 118 45 196617 v.grays;#B color 14;#P newex 398 118 45 196617 v.grays;#B color 14;#P newex 217 118 45 196617 v.grays;#B color 14;#P newex 36 118 45 196617 v.grays;#B color 14;#P newex 579 140 106 196617 ct_vmotion /motionD;#B color 13;#P newex 398 140 106 196617 ct_vmotion /motionC;#B color 13;#P newex 217 140 106 196617 ct_vmotion /motionB;#B color 13;#P newex 579 200 86 196617 ct_jslide /slideD;#B color 13;#P newex 398 200 86 196617 ct_jslide /slideC;#B color 13;#P newex 217 200 86 196617 ct_jslide /slideB;#B color 13;#P newex 36 200 87 196617 ct_jslide /slideA;#B color 13;#P newex 579 169 126 196617 ct_vpresence /presenceD;#B color 13;#P newex 398 169 126 196617 ct_vpresence /presenceC;#B color 13;#P newex 217 169 126 196617 ct_vpresence /presenceB;#B color 13;#P newex 36 169 127 196617 ct_vpresence /presenceA;#B color 13;#P newex 579 96 135 196617 ct_vcolourfilter /colorfiltD;#B color 13;#P newex 398 96 135 196617 ct_vcolourfilter /colorfiltC;#B color 13;#P newex 217 96 135 196617 ct_vcolourfilter /colorfiltB;#B color 13;#P number 306 656 64 9 0 0 0 3 0 0 0 221 221 221 222 222 222 0 0 0;#P toggle 293 633 15 0;#P comment 375 615 193 196617 stream low priority display percentage;#P comment 375 593 200 196617 stream high priority display percentage;#P comment 375 573 143 196617 stream movie percentage;#P flonum 280 611 35 9 0 0 0 3 0 0 0 221 221 221 222 222 222 0 0 0;#P flonum 267 590 35 9 0 0 0 3 0 0 0 221 221 221 222 222 222 0 0 0;#P flonum 254 569 35 9 0 0 0 3 0 0 0 221 221 221 222 222 222 0 0 0;#P flonum 241 548 35 9 0 0 0 3 0 0 0 221 221 221 222 222 222 0 0 0;#P comment 373 468 265 196617 component size: 0 = int8 \, 1 = int16 \, 2 = int32 \, 3 = float;#P comment 373 448 175 196617 height;#P comment 373 428 175 196617 width;#P number 228 527 35 9 0 0 0 3 0 0 0 221 221 221 222 222 222 0 0 0;#P flonum 215 506 35 9 0 0 0 3 0 0 0 221 221 221 222 222 222 0 0 0;#P number 202 485 35 9 0 0 0 3 0 0 0 221 221 221 222 222 222 0 0 0;#P number 189 464 35 9 0 0 0 3 0 0 0 221 221 221 222 222 222 0 0 0;#P number 176 443 35 9 0 0 0 3 0 0 0 221 221 221 222 222 222 0 0 0;#P number 163 423 35 9 0 0 0 3 0 0 0 221 221 221 222 222 222 0 0 0;#P number 150 403 35 9 0 0 0 3 0 0 0 221 221 221 222 222 222 0 0 0;#P newex 150 380 167 196617 v.info;#P comment 373 408 175 196617 format : 1 = gray \, 2 = yuv \, 3 = rgb;#P comment 373 488 364 196617 stream priority: 0 = deferred \, 1 = over-drive \, 2 = quicktime interrupt;#P comment 374 509 100 196617 frame rate;#P comment 374 531 138 196617 number of dropped frames;#P comment 374 553 143 196617 stream process percentage;#P comment 375 636 100 196617 stream active;#P comment 375 656 100 196617 stream timestamp;#P newex 36 96 136 196617 ct_vcolourfilter /colorfiltA;#B color 13;#P window linecount 0;#P newex 579 65 102 196617 ct_vrotate /rotateD;#B color 13;#P newex 614 268 106 196617 ct_vbounds /boundsD;#B color 13;#P newex 579 343 118 196617 ct_vregions /regionsD2;#B color 13;#P newex 592 318 112 196617 ct_vregions /regionsD;#B color 13;#P newex 603 293 82 196617 ct_vsum /sumD;#B color 13;#P newex 620 240 120 196617 ct_vcentroid /centroidD;#B color 13;#P newex 398 65 102 196617 ct_vrotate /rotateC;#B color 13;#P newex 433 268 106 196617 ct_vbounds /boundsC;#B color 13;#P newex 398 343 118 196617 ct_vregions /regionsC2;#B color 13;#P newex 411 318 112 196617 ct_vregions /regionsC;#B color 13;#P newex 422 293 82 196617 ct_vsum /sumC;#B color 13;#P newex 439 240 120 196617 ct_vcentroid /centroidC;#B color 13;#P newex 217 65 102 196617 ct_vrotate /rotateB;#B color 13;#P newex 252 268 106 196617 ct_vbounds /boundsB;#B color 13;#P newex 217 343 118 196617 ct_vregions /regionsB2;#B color 13;#P newex 230 318 112 196617 ct_vregions /regionsB;#B color 13;#P newex 241 293 82 196617 ct_vsum /sumB;#B color 13;#P newex 258 240 120 196617 ct_vcentroid /centroidB;#B color 13;#P newex 36 65 103 196617 ct_vrotate /rotateA;#B color 13;#P newex 71 268 107 196617 ct_vbounds /boundsA;#B color 13;#P newex 36 343 119 196617 ct_vregions /regionsA2;#B color 13;#P newex 49 318 113 196617 ct_vregions /regionsA;#B color 13;#P newex 60 293 83 196617 ct_vsum /sumA;#B color 13;#P newex 77 240 121 196617 ct_vcentroid /centroidA;#B color 13;#P newex 36 140 107 196617 ct_vmotion /motionA;#B color 13;#P inlet 36 41 15 0;#P connect 0 0 7 0;#P connect 7 0 26 0;#P connect 26 0 68 0;#P connect 68 0 1 0;#P connect 1 0 57 0;#P fasten 57 1 61 0 158 193 41 193;#P connect 61 0 5 0;#P connect 61 0 4 0;#P connect 61 0 3 0;#P connect 61 0 6 0;#P connect 61 0 2 0;#P connect 0 0 34 0;#P connect 34 0 35 0;#P connect 34 1 36 0;#P connect 34 2 37 0;#P connect 34 3 38 0;#P connect 34 4 39 0;#P connect 34 5 40 0;#P fasten 0 0 13 0 41 60 222 60;#P connect 13 0 54 0;#P connect 54 0 69 0;#P connect 69 0 65 0;#P connect 65 0 58 0;#P fasten 58 1 62 0 338 193 222 193;#P connect 62 0 11 0;#P connect 34 6 41 0;#P connect 62 0 10 0;#P connect 62 0 9 0;#P connect 34 7 45 0;#P connect 62 0 12 0;#P connect 34 8 46 0;#P connect 62 0 8 0;#P connect 34 9 47 0;#P connect 34 10 48 0;#P connect 34 11 52 0;#P connect 34 12 53 0;#P fasten 0 0 19 0 41 60 403 60;#P connect 19 0 55 0;#P connect 55 0 70 0;#P connect 70 0 66 0;#P connect 66 0 59 0;#P fasten 59 1 63 0 519 193 403 193;#P connect 63 0 17 0;#P connect 63 0 16 0;#P connect 63 0 15 0;#P connect 63 0 18 0;#P connect 63 0 14 0;#P fasten 0 0 25 0 41 60 584 60;#P connect 25 0 56 0;#P connect 56 0 71 0;#P connect 71 0 67 0;#P connect 67 0 60 0;#P fasten 60 1 64 0 700 193 584 193;#P connect 64 0 23 0;#P connect 64 0 22 0;#P connect 64 0 21 0;#P connect 64 0 24 0;#P connect 64 0 20 0;#P pop;#P newobj 32 121 147 196622 p analysis_channels;#B color 6;#N vpatcher 296 149 810 800;#P origin 0 -29;#P toggle 348 47 15 0;#P window setfont "Sans Serif" 9.;#P newex 348 66 57 196617 qmetro 40;#P newex 348 27 107 196617 r /cam2/capture/sw;#B color 13;#P newex 348 109 60 196617 jit.softVNS;#P newex 152 109 60 196617 jit.softVNS;#P toggle 222 47 15 0;#P newex 222 66 57 196617 qmetro 40;#P window linecount 1;#P newex 222 26 107 196617 r /cam1/capture/sw;#B color 13;#P window linecount 0;#P newex 294 384 31 196617 == 0;#P newex 294 363 106 196617 r /cam1/capture-sw;#P newex 209 338 38 196617 v.gate;#P button 183 359 15 0;#P newex 161 385 38 196617 v.max;#P newex 115 297 106 196617 ct_vgain /cam1/gain;#B color 13;#P newex 311 297 106 196617 ct_vgain /cam2/gain;#B color 13;#P newex 13 89 84 196617 s /permutecams;#B color 13;#P newex 13 68 60 196617 loadmess 0;#P newex 115 251 126 196617 ct_vresize /cam1/resize;#B color 13;#P newex 311 251 126 196617 ct_vresize /cam2/resize;#B color 13;#P flonum 167 568 85 9 0 0 0 3 0 0 0 221 221 221 222 222 222 0 0 0;#P number 121 557 42 9 0 0 0 3 0 0 0 221 221 221 222 222 222 0 0 0;#P number 76 557 42 9 0 0 0 3 0 0 0 221 221 221 222 222 222 0 0 0;#P newex 76 532 170 196617 v.info;#P message 382 134 91 196617 use_movie_size 1;#P newex 30 494 76 196617 ct_vgain /gain;#B color 13;#P newex 30 463 116 196617 ct_vcontrast /contrast;#B color 13;#P newex 115 64 84 196617 r /permutecams;#B color 13;#P newex 115 112 27 196617 + 1;#P toggle 115 84 15 0;#P newex 311 138 47 196617 v.gate 2;#P newex 115 138 47 196617 v.gate 2;#P newex 213 175 70 196617 r camtrk-init;#B color 11;#P message 251 196 43 196617 resume;#P message 213 196 29 196617 stop;#P message 174 196 30 196617 read;#P newex 174 221 79 196617 v.movie;#P newex 115 275 126 196617 ct_vrotate /cam1/rotate;#B color 13;#P newex 152 89 122 196617 ct_jgrab /cam1/capture;#B color 13;#P newex 115 326 58 196617 v.idleblack;#P newex 369 175 70 196617 r camtrk-init;#B color 11;#P message 407 196 43 196617 resume;#P message 369 196 29 196617 stop;#P message 330 196 30 196617 read;#P newex 330 221 79 196617 v.movie;#P newex 311 275 126 196617 ct_vrotate /cam2/rotate;#B color 13;#P newex 348 89 122 196617 ct_jgrab /cam2/capture;#B color 13;#P newex 311 326 58 196617 v.idleblack;#P newex 30 432 70 196617 ct_vflip /flip;#B color 13;#P outlet 30 571 15 0;#P connect 32 0 33 0;#P connect 36 0 1 0;#P connect 1 0 23 0;#P connect 23 0 24 0;#P connect 24 0 0 0;#P connect 26 1 27 0;#P connect 22 0 20 0;#P connect 20 0 21 0;#P connect 21 0 18 0;#P connect 13 0 31 0;#P connect 18 0 31 0;#P fasten 19 1 31 0 353 166 120 166;#P lcolor 7;#P connect 31 0 12 0;#P connect 12 0 35 0;#P connect 35 0 10 0;#P connect 26 2 28 0;#P connect 42 0 11 0;#P connect 11 0 44 0;#P connect 44 0 18 1;#P connect 37 0 36 0;#P connect 10 0 36 0;#P connect 26 7 29 0;#P connect 25 0 13 0;#P connect 14 0 13 0;#P connect 16 0 13 0;#P connect 15 0 13 0;#P connect 38 0 37 0;#P connect 2 0 36 1;#P connect 40 0 38 0;#P connect 17 0 15 0;#P connect 41 0 43 0;#P connect 43 0 42 0;#P connect 2 0 38 1;#P connect 39 0 40 0;#P connect 21 0 19 0;#P fasten 18 1 30 0 157 161 316 161;#P lcolor 4;#P connect 19 0 30 0;#P connect 5 0 30 0;#P connect 30 0 4 0;#P connect 4 0 34 0;#P connect 34 0 2 0;#P connect 7 0 5 0;#P connect 8 0 5 0;#P connect 6 0 5 0;#P connect 25 0 5 0;#P connect 46 0 48 0;#P connect 48 0 47 0;#P connect 47 0 3 0;#P connect 3 0 45 0;#P connect 45 0 19 1;#P connect 9 0 7 0;#P pop;#P newobj 32 46 100 196622 p camerasX2;#B color 6;#P window setfont "Sans Serif" 9.;#P newex 76 254 62 196617 r record;#B color 11;#P newex 32 169 141 196617 ct_vstreamab /windowxfade;#B color 13;#P number 311 398 42 9 0 0 0 3 0 0 0 221 221 221 222 222 222 0 0 0;#P number 266 398 42 9 0 0 0 3 0 0 0 221 221 221 222 222 222 0 0 0;#P newex 266 374 170 196617 v.info;#P message 161 250 71 196617 record_pause;#P message 206 294 29 196617 stop;#P message 238 250 43 196617 resume;#P message 202 272 35 196617 pause;#P message 161 272 40 196617 record;#P newex 76 312 120 196617 v.record jpeg normal 32;#P outlet 32 396 15 0;#P window linecount 2;#P message 273 342 79 196617 \; storetemp bang;#P window linecount 1;#P newex 101 216 108 196617 jitnetsender /netsend;#B color 13;#P connect 14 0 15 0;#P connect 12 0 2 0;#P connect 32 0 2 0;#P connect 12 0 3 0;#P connect 8 0 3 0;#P connect 7 0 3 0;#P connect 6 0 3 0;#P connect 5 0 3 0;#P connect 4 0 3 0;#P connect 13 0 3 0;#P connect 37 0 3 0;#P fasten 12 0 34 0 37 191 106 191;#P connect 34 0 0 0;#P connect 31 0 32 0;#P connect 38 0 37 0;#P connect 12 0 9 0;#P connect 9 1 10 0;#P connect 9 2 11 0;#P connect 20 0 29 0;#P connect 20 0 30 0;#P connect 20 0 21 0;#P connect 20 0 23 0;#P connect 20 0 24 0;#P connect 20 0 25 0;#P connect 17 0 18 0;#P connect 18 0 19 0;#P pop;#P newobj 15 330 90 196626 p motors;#B color 6;#P bpatcher 8 48 108 128 0 0 activeparamsosc.edit.mxt 0 activeparamsosc ct_switchstate /toCAMTRK;#P window setfont "Sans Serif" 14.;#P window linecount 2;#P comment 29 377 68 196622 conduite (qlists);#B frgb 8 58 255;#P window setfont "Sans Serif" 12.;#P window linecount 1;#P comment 24 415 80 196620 double-click;#B frgb 0 0 180;#P comment 5 19 106 196620 stockage des;#B frgb 8 58 255;#P button 164 34 33 6;#P window setfont "Sans Serif" 9.;#P window linecount 2;#P hidden message 198 34 103 196617 \; /camtrk/initall bang;#B color 7;#P window linecount 1;#P hidden newex 133 396 50 196617 del 5000;#P hidden newex 133 377 48 196617 loadbang;#P window setfont "Sans Serif" 18.;#N vpatcher 419 88 621 761;#P bpatcher 18 584 128 62 0 0 qlistshell.edit.mxt 0 ct-preset10;#P bpatcher 18 522 128 62 0 0 qlistshell.edit.mxt 0 ct-preset9;#P bpatcher 18 460 128 62 0 0 qlistshell.edit.mxt 0 ct-preset8;#P bpatcher 18 398 128 62 0 0 qlistshell.edit.mxt 0 ct-preset7;#P bpatcher 18 336 128 62 0 0 qlistshell.edit.mxt 0 ct-preset6;#P bpatcher 18 274 128 62 0 0 qlistshell.edit.mxt 0 ct-preset5;#P bpatcher 18 212 128 62 0 0 qlistshell.edit.mxt 0 ct-preset4;#P bpatcher 18 150 128 62 0 0 qlistshell.edit.mxt 0 ct-preset3;#P bpatcher 18 88 128 62 0 0 qlistshell.edit.mxt 0 ct-preset2;#P bpatcher 18 26 128 62 0 0 qlistshell.edit.mxt 0 ct-preset1;#P pop;#P newobj 20 432 88 196626 p events;#B color 6;#P comment 198 36 43 196626 INIT;#P window setfont "Sans Serif" 9.;#P window linecount 2;#P comment 130 442 55 196617 © 2006-7 tom mays;#B frgb 128 128 128;#P window linecount 1;#N standalone;#S creator CMTK;#S statusvisible 1;#S noloadbangdefeating 0;#S useownplist 0;#S preffilename "CAMTRK Preferences";#S overdrive 0;#S allwindowsactive 0;#S searchformissingfiles 1;#S usesearchpath 0;#S cantclosetoplevelpatchers 1;#S audiosupport 1;#S midisupport 1;#P hidden newobj 130 427 57 196617 standalone;#P window setfont Times 9.;#N vpatcher 254 68 476 301;#N comlet to thispatcher;#P outlet 31 190 15 0;#N comlet from toggle;#P inlet 16 106 15 0;#N comlet to toggle;#P outlet 16 72 15 0;#P window setfont Times 9.;#P newex 16 52 18 1310729 t 1;#P newex 16 31 43 1310729 loadbang;#P newex 16 124 40 1310729 sel 1 0;#P window setfont "Sans Serif" 9.;#P message 31 146 158 196617 window flags close \, window exec;#P message 16 164 168 196617 window flags noclose \, window exec;#P connect 3 0 4 0;#P connect 4 0 5 0;#P connect 6 0 2 0;#P connect 2 0 0 0;#P connect 2 1 1 0;#P connect 1 0 7 0;#P connect 0 0 7 0;#P pop;#P hidden newobj 31 2 50 1310729 p closebox;#B color 6;#P toggle 2 2 15 0;#N thispatcher;#Q end;#P hidden newobj 82 2 51 1310729 thispatcher;#P comment 18 3 74 1310729 inhibit close box;#B frgb 128 128 128;#P user panel 2 376 125 90;#X brgb 164 161 220;#X frgb 0 0 0;#X border 1;#X rounded 0;#X shadow 0;#X done;#P background;#P user panel 2 19 280 354;#X brgb 164 161 220;#X frgb 0 0 0;#X border 1;#X rounded 0;#X shadow 0;#X done;#P background;#P hidden connect 5 0 4 0;#P hidden connect 39 0 37 0;#P hidden connect 4 0 5 0;#P hidden connect 5 1 3 0;#P hidden connect 41 0 36 0;#P connect 22 0 21 0;#P hidden fasten 23 0 21 0 151 340 115 340;#P fasten 18 0 21 0 20 362 107 362 107 339 115 339;#P connect 56 0 21 0;#P hidden connect 31 1 32 0;#P hidden connect 32 0 33 0;#P hidden connect 33 0 34 0;#P hidden connect 10 0 11 0;#P hidden connect 51 0 52 0;#P hidden connect 34 0 13 0;#P hidden connect 11 0 13 0;#P hidden connect 43 0 38 0;#P hidden connect 28 0 27 0;#P hidden connect 48 0 47 0;#P hidden connect 13 0 12 0;#P hidden connect 26 0 25 0;#P hidden connect 25 0 24 0;#P pop;