max v2;#N vpatcher 20 74 620 474;#P window setfont "Sans Serif" 9.;#P window linecount 1;#P newex 19 138 27 196617 i;#P newex 19 107 44 196617 togedge;#P newex 19 81 130 196617 t b b i;#P number 19 165 35 9 0 0 0 3 0 0 0 221 221 221 222 222 222 0 0 0;#P newex 19 48 265 196617 r $1;#P window linecount 2;#P message 19 189 108 196617 \; /todlight /circ $2 \$1;#P connect 1 0 3 0;#P connect 3 1 5 0;#P connect 4 0 5 0;#P connect 5 0 2 0;#P connect 2 0 0 0;#P connect 3 2 5 1;#P pop;