max v2;#N vpatcher 591 65 1191 465;#P window setfont "Sans Serif" 9.;#P newex 22 99 32 196617 print;#P comment 335 110 54 196617 0 = linear;#P comment 335 97 111 196617 negative = logarithmic;#P comment 335 84 109 196617 positive = exponentail;#P comment 293 84 43 196617 curve :;#P window linecount 2;#P comment 265 54 220 196617 3 in list = type of curve (only if there is a third value in the list otherwise curve = linear;#P window linecount 1;#P comment 265 41 166 196617 2 in list = time to obtain this value;#P comment 265 28 123 196617 1 in list = value to obtain;#P comment 49 56 105 196617 $3 = maximum value;#P comment 49 40 102 196617 $2 = minimum value;#P newex 290 204 21 196617 t 0;#P newex 290 182 104 196617 if $i1 == 2 then bang;#P newex 290 161 34 196617 zl len;#P newex 108 174 51 196617 zl slice 2;#P newex 108 247 132 196617 scalecurv $2 $3 $2 $3 0;#P newex 54 76 31 196617 r $1;#P message 169 114 29 196617 stop;#P newex 169 86 37 196617 r stop;#P newex 54 147 30 196617 t f 0;#P newex 54 174 51 196617 pack 0. 5;#P newex 54 114 91 196617 route int float list;#P newex 108 224 40 196617 line 0.;#P message 263 290 39 196617 set \$1;#P outlet 263 318 15 0;#P outlet 230 318 15 0;#P comment 49 26 107 196617 $1 = name of receive;#P connect 10 0 25 0;#P connect 10 0 5 0;#P connect 5 1 7 0;#P connect 5 0 7 0;#P connect 7 0 6 0;#P connect 5 2 12 0;#P connect 9 0 4 0;#P connect 6 0 4 0;#P connect 12 0 4 0;#P connect 4 0 11 0;#P connect 8 0 9 0;#P fasten 7 1 11 5 79 168 213 168;#P fasten 12 1 11 5 154 219 213 219;#P connect 15 0 11 5;#P connect 11 1 1 0;#P connect 11 1 3 0;#P connect 3 0 2 0;#P connect 5 2 13 0;#P connect 13 0 14 0;#P connect 14 0 15 0;#P pop;