max v2;#N vpatcher 498 169 917 547;#P window setfont "Sans Serif" 9.;#P message 286 56 39 196617 set \$1;#P inlet 287 32 15 0;#P newex 171 57 93 196617 loadmess set $3;#P window linecount 2;#P message 229 131 16 196617 $2;#P window linecount 4;#P message 181 131 46 196617 script connect ctlin 1 out[2] 0;#P window linecount 1;#N thispatcher;#Q end;#P newobj 181 192 69 196617 thispatcher;#P newex 181 108 58 196617 sel 0;#P newex 181 85 84 196617 loadmess set $2;#N comlet output for Midi channel;#P outlet 163 214 15 0;#P objectname out[2];#P newex 18 57 72 196617 route int bang;#N comlet Output for value;#P outlet 80 214 15 0;#P objectname out[1];#N comlet Input int for direct setting \, bang for output current value. Or anything you could send to ctlin.;#P inlet 18 33 15 0;#P newex 80 85 93 196617 ctlin $1 $2;#P objectname ctlin;#P newex 125 131 36 196617 - 128;#P newex 80 167 30 196617 t b i;#P newex 80 108 55 196617 split 0 63;#P newex 80 192 50 196617 accum;#P connect 5 0 7 0;#P connect 7 2 4 0;#P connect 4 0 1 0;#P fasten 3 0 2 0 130 160 85 160;#P connect 1 0 2 0;#P connect 2 0 0 0;#P fasten 7 1 0 0 54 188 85 188;#P fasten 7 0 0 0 23 188 85 188;#P fasten 14 0 0 0 176 188 85 188;#P connect 16 0 0 0;#P connect 0 0 6 0;#P connect 2 1 0 1;#P connect 1 1 3 0;#P connect 9 0 10 0;#P connect 10 0 12 0;#P fasten 13 0 11 0 234 188 186 188;#P connect 12 0 11 0;#P connect 10 1 13 0;#P connect 15 0 16 0;#P pop;