max v2;#N vpatcher 150 71 741 317;#P window setfont "Sans Serif" 9.;#P window linecount 2;#P comment 448 192 107 196617 patch by Tom Mays contact@tommays.net;#P window setfont Times 9.;#P window linecount 1;#P comment 4 35 97 1310729 udp send: $3;#P comment 4 24 97 1310729 uses coll: $2;#P newex 484 112 35 1310729 t read b;#P newex 484 91 75 1310729 pvar recallarchive;#P message 40 86 28 1310729 recall;#B color 7;#P objectname recallarchive;#P comment 7 73 95 1310729 ---- archive presets ----;#P newex 135 78 74 1310729 pvar writearchive;#P message 12 86 27 1310729 write;#B color 13;#P objectname writearchive;#P window linecount 2;#P newex 223 68 92 1310729 activeparamsudp $2 1 $3;#B color 6;#P window linecount 1;#P message 11 58 28 1310729 store;#B color 2;#P objectname storeactive;#P message 69 58 28 1310729 open;#B color 9;#P objectname openactive;#P window setfont Times 18.;#P comment 1 5 109 1310738 active params;#P window setfont Times 9.;#P window linecount 4;#P comment 1 123 168 1310729 arg 1 : activeparams prefix name (i.e. activeparams) \; arg 2 : switch coll name (i.e. switchstate) \; arg 3 : udpsend prefix;#P window linecount 1;#P newex 330 48 27 1310729 b;#P newex 429 57 18 1310729 t b;#P newex 429 38 71 1310729 pvar recallactive;#P newex 238 171 41 1310729 onebang;#P newex 330 121 98 1310729 sprintf %s %s-temp.txt;#P message 377 80 100 1310729 read $1;#P newex 377 57 43 1310729 loadbang;#P message 330 99 100 1310729 write $1;#P newex 237 117 69 1310729 pvar openactive;#P newex 330 28 69 1310729 pvar storeactive;#P message 40 58 28 1310729 recall;#B color 7;#P objectname recallactive;#P button 208 118 15 0;#N qlist;#X append $1-sw 1 \; $1-freqx 0.037 \; $1-freqy 0.05 \; $1-ampx 10 \; $1-ampy 10 \; $1-radius 1 \;;#P newobj 208 150 40 1310729 qlist;#P button 347 69 15 0;#P comment 7 45 95 1310729 ------ temp preset -------;#P window setfont "Sans Serif" 9.;#P window linecount 3;#P comment 162 20 100 196617 active params based on "switch" instead of "mute";#P user panel 1 1 107 107;#X brgb 235 235 235;#X frgb 198 198 198;#X border 1;#X rounded 4;#X shadow 2;#X done;#P background;#P fasten 13 0 5 0 243 193 202 193 202 113 213 113;#P connect 5 0 4 0;#P fasten 8 0 4 0 242 143 213 143;#P fasten 27 0 4 0 489 146 213 146;#P lcolor 1;#P connect 23 0 4 0;#P fasten 12 0 4 0 335 143 213 143;#P fasten 21 0 4 0 228 143 213 143;#P fasten 3 0 21 0 352 89 322 89 322 62 228 62;#P lcolor 1;#P connect 4 2 13 0;#P fasten 15 0 13 1 434 167 274 167;#P fasten 27 1 13 1 514 167 274 167;#P connect 7 0 16 0;#P connect 16 0 9 0;#P connect 9 0 12 0;#P fasten 11 0 12 0 382 117 335 117;#P connect 16 1 3 0;#P connect 10 0 11 0;#P fasten 15 0 11 0 434 77 382 77;#P connect 14 0 15 0;#P connect 26 0 27 0;#P pop;