max v2;#N vpatcher 253 169 535 377;#P origin 37 19;#P window setfont "Sans Serif" 9.;#P window linecount 1;#P comment 46 73 46 196617 off color;#P window linecount 3;#P message 141 87 98 196617 border 1 \, shadow 1 \, brgb 220 165 255 \, frgb 55 33 78;#P window linecount 1;#P newex 22 48 32 196617 sel 0;#P window linecount 4;#P message 22 87 104 196617 border 1 \, shadow 0 \, rounded 4 \, brgb 244 244 244 \, frgb 95 70 120;#P inlet 22 28 15 0;#P outlet 22 149 15 0;#P window linecount 1;#P comment 192 73 46 196617 on color;#P connect 2 0 4 0;#P connect 4 0 3 0;#P fasten 5 0 1 0 146 143 27 143;#P connect 3 0 1 0;#P fasten 4 1 5 0 49 68 146 68;#P pop;