max v2;#N vpatcher 375 44 1007 462;#P window setfont "Sans Serif" 9.;#P window linecount 2;#P comment 466 351 107 196617 patch by Tom Mays contact@tommays.net;#P window linecount 1;#P newex 23 363 160 196617 param $1-param6 $1 i 0 1000 0;#P newex 23 344 68 196617 pvar param6;#P newex 23 318 160 196617 param $1-param5 $1 i 0 1000 0;#P newex 23 299 68 196617 pvar param5;#P window setfont Times 9.;#P number 206 37 30 9 0 1000 3 20 0 0 0 221 221 221 222 222 222 0 0 0;#P objectname param6;#P number 206 23 30 9 0 1000 3 20 0 0 0 221 221 221 222 222 222 0 0 0;#P objectname param5;#P comment 173 23 38 1310729 param5;#P comment 173 37 38 1310729 param6;#P window setfont "Sans Serif" 9.;#P newex 23 274 148 196617 param $1-param4 $1 i 0 10 0;#P newex 23 255 68 196617 pvar param4;#P window setfont Times 9.;#P comment 30 37 38 1310729 param2;#P flonum 63 37 30 9 0. 1. 3 20 0 0 0 221 221 221 222 222 222 0 0 0;#P objectname param2;#P window setfont "Sans Serif" 9.;#P window linecount 2;#P comment 276 43 124 196617 arg 1 : module name \; arg 2 : show "more" 1/0;#P window setfont "Sans Serif" 18.;#P window linecount 1;#N vpatcher 294 149 825 660;#P window setfont "Sans Serif" 9.;#P window linecount 1;#P newex 147 211 160 196617 param $1-param10 $1 i 0 100 0;#P newex 147 192 74 196617 pvar param10;#P newex 147 167 154 196617 param $1-param9 $1 i 0 100 0;#P newex 147 148 68 196617 pvar param9;#P newex 147 123 154 196617 param $1-param8 $1 i 0 100 0;#P newex 147 104 68 196617 pvar param8;#P newex 147 78 154 196617 param $1-param7 $1 i 0 100 0;#P newex 147 59 68 196617 pvar param7;#P window setfont Times 9.;#P number 55 66 30 9 0 100 3 20 0 0 0 221 221 221 222 222 222 0 0 0;#P objectname param10;#P number 55 52 30 9 0 100 3 20 0 0 0 221 221 221 222 222 222 0 0 0;#P objectname param9;#P comment 19 52 38 1310729 param9;#P comment 19 66 38 1310729 param10;#P number 55 38 30 9 0 100 3 20 0 0 0 221 221 221 222 222 222 0 0 0;#P objectname param8;#P number 55 24 30 9 0 100 3 20 0 0 0 221 221 221 222 222 222 0 0 0;#P objectname param7;#P comment 19 24 38 1310729 param7;#P comment 19 38 38 1310729 param8;#P window setfont "Sans Serif" 9.;#P window linecount 0;#P message 370 171 33 196617 front;#P newex 370 152 79 196617 r $1-moreopen;#B color 11;#N thispatcher;#Q end;#P newobj 370 188 61 196617 thispatcher;#P newex 370 80 60 196617 loadmess 1;#P newex 370 120 57 196617 pvar panel;#P newex 370 100 60 196617 m_swcolor;#B color 5;#P user panel 0 0 105 342;#X brgb 205 205 205;#X frgb 155 155 155;#X border 1;#X rounded 0;#X shadow 1;#X done;#P objectname panel;#P comment 140 256 263 196617 arrange the size and look of this patcher as you please...;#P comment 141 32 100 196617 a param and pvar for each;#P fasten 18 0 17 0 152 97 144 97 144 57 152 57;#P connect 17 0 18 0;#P fasten 20 0 19 0 152 142 144 142 144 102 152 102;#P connect 19 0 20 0;#P fasten 22 0 21 0 152 186 144 186 144 146 152 146;#P connect 21 0 22 0;#P fasten 24 0 23 0 152 230 144 230 144 190 152 190;#P connect 23 0 24 0;#P connect 5 0 3 0;#P connect 3 0 4 0;#P connect 7 0 8 0;#P connect 8 0 6 0;#P pop;#P newobj 127 71 72 196626 p more;#B color 6;#P window setfont "Sans Serif" 9.;#P comment 276 26 100 196617 panel = 256 X 62;#P window setfont Times 9.;#P comment 30 23 38 1310729 param1;#P flonum 63 23 30 9 0. 1. 3 20 0 0 0 221 221 221 222 222 222 0 0 0;#P objectname param1;#P number 138 23 22 9 0 10 3 20 0 0 0 221 221 221 222 222 222 0 0 0;#P objectname param3;#P comment 105 23 38 1310729 param3;#P number 138 37 22 9 0 10 3 20 0 0 0 221 221 221 222 222 222 0 0 0;#P objectname param4;#P window setfont "Sans Serif" 9.;#N thispatcher;#Q end;#P newobj 0 75 61 196617 thispatcher;#P newex 23 139 149 196617 param $1-param1 $1 f 0. 1. 1;#P newex 23 120 68 196617 pvar param1;#P newex 23 184 149 196617 param $1-param2 $1 f 0. 1. 1;#P newex 23 229 148 196617 param $1-param3 $1 i 0 10 0;#P newex 23 165 68 196617 pvar param2;#P newex 23 210 68 196617 pvar param3;#P comment 276 9 118 196617 <- name = "background";#P window linecount 2;#P comment 276 85 318 196617 param [arg1 param name] [arg2 module name] optional-> [arg 3 data type (i \, f \, b \, s)] [arg4 min val] [arg 5 max val] [dynamic? 1/0];#P window setfont Times 9.;#P window linecount 1;#P comment 105 37 38 1310729 param4;#P bpatcher 0 -1 256 62 0 0 ct_background.mxt 0 $1 1;#P objectname background;#P hidden connect 0 0 10 0;#P fasten 9 0 8 0 28 158 20 158 20 118 28 118;#P connect 8 0 9 0;#P fasten 7 0 5 0 28 203 20 203 20 163 28 163;#P connect 5 0 7 0;#P fasten 6 0 4 0 28 248 20 248 20 208 28 208;#P connect 4 0 6 0;#P fasten 22 0 21 0 28 293 20 293 20 253 28 253;#P connect 21 0 22 0;#P fasten 28 0 27 0 28 337 20 337 20 297 28 297;#P connect 27 0 28 0;#P fasten 30 0 29 0 28 382 20 382 20 342 28 342;#P connect 29 0 30 0;#P pop;