max v2;#N vpatcher 630 103 1074 381;#P window setfont "Sans Serif" 9.;#P newex 34 176 139 196617 param $1-auto_stream $1 t;#P newex 34 157 85 196617 pvar autostream;#P window setfont Times 9.;#P comment 32 9 47 1310729 stream on;#P comment 27 24 53 1310729 auto stream;#P toggle 74 24 14 0;#P objectname autostream;#P toggle 74 9 14 0;#P objectname streamon;#P flonum 74 39 30 9 0. 30. 35 20 0 0 0 221 221 221 222 222 222 0 0 0;#P objectname streamfps;#P comment 57 39 20 1310729 fps;#P window setfont "Sans Serif" 9.;#P window linecount 2;#P comment 276 43 124 196617 arg 1 : module name \; arg 2 : show "more" 1/0;#P window linecount 1;#P comment 276 26 100 196617 panel = 256 X 62;#N thispatcher;#Q end;#P newobj 0 75 61 196617 thispatcher;#P newex 34 131 130 196617 param $1-stream_on $1 t;#P newex 34 112 76 196617 pvar streamon;#P newex 34 223 120 196617 param $1-fps $1 f 0 30;#P newex 34 204 80 196617 pvar streamfps;#P comment 276 9 118 196617 <- name = "background";#P bpatcher 0 0 256 62 0 0 ct_vbackground.mxt 0 $1;#P objectname background;#P hidden connect 0 0 6 0;#P fasten 5 0 4 0 39 150 31 150 31 110 39 110;#P connect 4 0 5 0;#P fasten 16 0 15 0 39 195 31 195 31 155 39 155;#P connect 15 0 16 0;#P fasten 3 0 2 0 39 242 31 242 31 202 39 202;#P connect 2 0 3 0;#P pop;