max v2;#N vpatcher 314 243 591 519;#P button 68 263 15 0;#P window setfont "Sans Serif" 9.;#P window linecount 1;#P comment 86 263 39 196617 delete;#P button 2 263 15 0;#P comment 19 263 31 196617 build;#P hidden newex 22 326 144 196617 editorwindow /ct /tapemovie;#B color 6;#N thispatcher;#Q end;#P hidden newobj 22 356 61 196617 thispatcher;#P hidden newex 2 294 111 196617 tm_edit-builder ct 4 1;#B color 6;#P window linecount 0;#P comment 2376 0 100 196617;#P comment 1 0 100 196617;#P hidden connect 6 0 2 0;#P hidden fasten 3 0 4 0 27 377 193 377 193 322 27 322;#P hidden connect 4 0 3 0;#P hidden fasten 2 0 3 0 7 349 27 349;#P hidden connect 8 0 2 1;#P pop;