max v2;#N vpatcher 6 47 1331 780;#P origin -12 -12;#P window setfont "Sans Serif" 9.;#P window linecount 1;#P newex 840 458 151 196617 moduleinit $1;#B color 13;#P newex 821 278 88 196617 r $1/acc/y/raw;#P newex 821 259 88 196617 s $1/acc/y/raw;#P newex 695 277 88 196617 r $1/acc/x/raw;#P newex 695 258 88 196617 s $1/acc/x/raw;#P newex 557 289 86 196617 r $1/press/raw;#P newex 557 270 86 196617 s $1/press/raw;#N vpatcher 20 74 291 414;#P window setfont "Sans Serif" 9.;#P newex 156 81 31 196617 == 1;#P newex 77 237 27 196617 gate;#P newex 77 258 118 196617 route 0 1 2 3 4 5 6 7;#P newex 77 205 29 196617 pack;#P newex 77 183 29 196617 swap;#P newex 94 104 29 196617 % 16;#P newex 77 154 27 196617 +;#P newex 94 128 27 196617 << 7;#P newex 128 154 27 196617 >> 4;#P newex 94 75 27 196617 t i i;#P newex 77 50 45 196617 ctlin;#P comment 50 130 43 196617 Valeur;#P comment 148 139 57 196617 No capteur;#P inlet 77 30 15 0;#P outlet 168 280 15 0;#P outlet 155 280 15 0;#P outlet 142 280 15 0;#P outlet 129 280 15 0;#P outlet 116 280 15 0;#P outlet 103 280 15 0;#P outlet 90 280 15 0;#P outlet 77 280 15 0;#P connect 8 0 11 0;#P connect 11 0 15 0;#P connect 15 0 17 0;#P connect 17 0 18 0;#P fasten 21 0 20 0 161 230 82 230;#P lcolor 4;#P connect 20 0 19 0;#P connect 19 0 0 0;#P connect 19 1 1 0;#P connect 11 1 12 0;#P connect 12 0 16 0;#P connect 16 0 14 0;#P connect 14 0 15 1;#P connect 18 0 20 1;#P lcolor 7;#P fasten 13 0 17 1 133 177 101 177;#P connect 17 1 18 1;#P connect 19 2 2 0;#P connect 19 3 3 0;#P fasten 12 1 13 0 116 99 133 99;#P connect 19 4 4 0;#P connect 19 5 5 0;#P connect 19 6 6 0;#P fasten 11 2 21 0 116 72 161 72;#P connect 19 7 7 0;#P pop;#P newobj 38 188 757 196617 p;#P window setfont "Sans Serif" 12.;#N vpatcher 20 74 289 253;#P inlet 30 100 15 0;#P window setfont "Sans Serif" 9.;#P newex 50 123 167 196617 ctlout;#P newex 151 99 60 196617 loadmess 1;#P newex 50 50 49 196617 unpack;#P newex 50 73 88 196617 t i 2;#P newex 50 30 164 196617 r $1/cc2;#B color 12;#P connect 0 0 2 0;#P connect 2 0 1 0;#P connect 1 0 4 0;#P connect 5 0 4 0;#P connect 1 1 4 1;#P fasten 3 0 4 2 156 119 211 119;#P pop;#P newobj 495 648 63 196620 p piste 2;#B color 6;#N vpatcher 20 74 289 253;#P inlet 30 100 15 0;#P window setfont "Sans Serif" 9.;#P newex 50 123 167 196617 ctlout;#P newex 151 99 60 196617 loadmess 1;#P newex 50 50 49 196617 unpack;#P newex 50 73 88 196617 t i 1;#P newex 50 30 164 196617 r $1/cc1;#B color 12;#P connect 0 0 2 0;#P connect 2 0 1 0;#P connect 1 0 4 0;#P connect 5 0 4 0;#P connect 1 1 4 1;#P fasten 3 0 4 2 156 119 211 119;#P pop;#P newobj 467 683 63 196620 p piste 1;#B color 6;#N vpatcher 20 74 289 253;#P inlet 30 100 15 0;#P window setfont "Sans Serif" 9.;#P newex 50 123 167 196617 noteout;#P newex 151 99 66 196617 loadmess 16;#P newex 50 50 49 196617 unpack;#P newex 50 73 88 196617 t i 200;#P newex 50 99 88 196617 makenote 64 100;#P newex 50 30 188 196617 r $1/piste16;#B color 12;#P connect 0 0 3 0;#P connect 3 0 2 0;#P connect 2 0 1 0;#P connect 1 0 5 0;#P connect 6 0 5 0;#P connect 3 1 1 1;#P connect 2 1 1 2;#P connect 1 1 5 1;#P fasten 4 0 5 2 156 119 211 119;#P pop;#P newobj 271 522 71 196620 p piste 16;#B color 6;#N vpatcher 20 74 289 253;#P inlet 30 100 15 0;#P window setfont "Sans Serif" 9.;#P newex 50 123 167 196617 noteout;#P newex 151 99 66 196617 loadmess 15;#P newex 50 50 49 196617 unpack;#P newex 50 73 88 196617 t i 200;#P newex 50 99 88 196617 makenote 64 100;#P newex 50 30 188 196617 r $1/piste15;#B color 12;#P connect 0 0 3 0;#P connect 3 0 2 0;#P connect 2 0 1 0;#P connect 6 0 5 0;#P connect 1 0 5 0;#P connect 3 1 1 1;#P connect 2 1 1 2;#P connect 1 1 5 1;#P fasten 4 0 5 2 156 119 211 119;#P pop;#P newobj 263 548 71 196620 p piste 15;#B color 6;#N vpatcher 20 74 289 253;#P inlet 30 100 15 0;#P window setfont "Sans Serif" 9.;#P newex 50 123 167 196617 noteout;#P newex 151 99 66 196617 loadmess 14;#P newex 50 50 49 196617 unpack;#P newex 50 73 88 196617 t i 200;#P newex 50 99 88 196617 makenote 64 100;#P newex 50 30 164 196617 r $1/piste14;#B color 12;#P connect 0 0 3 0;#P connect 3 0 2 0;#P connect 2 0 1 0;#P connect 1 0 5 0;#P connect 6 0 5 0;#P connect 3 1 1 1;#P connect 2 1 1 2;#P connect 1 1 5 1;#P connect 4 0 5 2;#P pop;#P newobj 255 572 71 196620 p piste 14;#B color 6;#N vpatcher 20 74 289 253;#P inlet 30 100 15 0;#P window setfont "Sans Serif" 9.;#P newex 50 123 167 196617 noteout;#P newex 168 88 66 196617 loadmess 13;#P newex 50 50 49 196617 unpack;#P newex 50 73 88 196617 t i 200;#P newex 50 99 88 196617 makenote 64 100;#P newex 50 30 164 196617 r $1/piste13;#B color 12;#P connect 0 0 3 0;#P connect 3 0 2 0;#P connect 2 0 1 0;#P connect 6 0 5 0;#P connect 1 0 5 0;#P connect 3 1 1 1;#P connect 2 1 1 2;#P connect 1 1 5 1;#P fasten 4 0 5 2 173 119 211 119;#P pop;#P newobj 245 595 71 196620 p piste 13;#B color 6;#N vpatcher 20 74 289 253;#P inlet 30 100 15 0;#P window setfont "Sans Serif" 9.;#P newex 50 123 167 196617 noteout;#P newex 151 99 66 196617 loadmess 12;#P newex 50 50 49 196617 unpack;#P newex 50 73 88 196617 t i 200;#P newex 50 99 88 196617 makenote 64 100;#P newex 50 30 163 196617 r $1/piste12;#B color 12;#P connect 0 0 3 0;#P connect 3 0 2 0;#P connect 2 0 1 0;#P connect 1 0 5 0;#P connect 6 0 5 0;#P connect 3 1 1 1;#P connect 2 1 1 2;#P connect 1 1 5 1;#P fasten 4 0 5 2 156 119 211 119;#P pop;#P newobj 235 618 71 196620 p piste 12;#B color 6;#N vpatcher 20 74 289 253;#P inlet 30 100 15 0;#P window setfont "Sans Serif" 9.;#P newex 50 123 167 196617 noteout;#P newex 151 99 66 196617 loadmess 11;#P newex 50 50 49 196617 unpack;#P newex 50 73 88 196617 t i 200;#P newex 50 99 88 196617 makenote 64 100;#P newex 50 30 174 196617 r $1/piste11;#B color 12;#P connect 0 0 3 0;#P connect 3 0 2 0;#P connect 2 0 1 0;#P connect 6 0 5 0;#P connect 1 0 5 0;#P connect 3 1 1 1;#P connect 2 1 1 2;#P connect 1 1 5 1;#P fasten 4 0 5 2 156 119 211 119;#P pop;#P newobj 227 640 71 196620 p piste 11;#B color 6;#N vpatcher 20 74 289 253;#P inlet 30 100 15 0;#P window setfont "Sans Serif" 9.;#P newex 50 123 167 196617 noteout;#P newex 151 99 66 196617 loadmess 10;#P newex 50 50 49 196617 unpack;#P newex 50 73 88 196617 t i 200;#P newex 50 99 88 196617 makenote 64 100;#P newex 50 30 164 196617 r $1/piste10;#B color 12;#P connect 0 0 3 0;#P connect 3 0 2 0;#P connect 2 0 1 0;#P connect 1 0 5 0;#P connect 6 0 5 0;#P connect 3 1 1 1;#P connect 2 1 1 2;#P connect 1 1 5 1;#P fasten 4 0 5 2 156 119 211 119;#P pop;#P newobj 220 662 71 196620 p piste 10;#B color 6;#N vpatcher 20 74 289 253;#P inlet 30 100 15 0;#P window setfont "Sans Serif" 9.;#P newex 50 123 167 196617 noteout;#P newex 151 99 60 196617 loadmess 9;#P newex 50 50 49 196617 unpack;#P newex 50 73 88 196617 t i 200;#P newex 50 99 88 196617 makenote 64 100;#P newex 50 30 174 196617 r $1/piste9;#B color 12;#P connect 0 0 3 0;#P connect 3 0 2 0;#P connect 2 0 1 0;#P connect 6 0 5 0;#P connect 1 0 5 0;#P connect 3 1 1 1;#P connect 2 1 1 2;#P connect 1 1 5 1;#P fasten 4 0 5 2 156 119 211 119;#P pop;#P newobj 208 686 63 196620 p piste 9;#B color 6;#N vpatcher 20 74 289 253;#P inlet 30 100 15 0;#P window setfont "Sans Serif" 9.;#P newex 50 123 167 196617 noteout;#P newex 151 99 60 196617 loadmess 8;#P newex 50 50 49 196617 unpack;#P newex 50 73 88 196617 t i 200;#P newex 50 99 88 196617 makenote 64 100;#P newex 50 30 188 196617 r $1/piste8;#B color 12;#P connect 0 0 3 0;#P connect 3 0 2 0;#P connect 2 0 1 0;#P connect 6 0 5 0;#P connect 1 0 5 0;#P connect 3 1 1 1;#P connect 2 1 1 2;#P connect 1 1 5 1;#P fasten 4 0 5 2 156 119 211 119;#P pop;#P newobj 131 520 63 196620 p piste 8;#B color 6;#N vpatcher 20 74 289 253;#P inlet 30 100 15 0;#P window setfont "Sans Serif" 9.;#P newex 50 123 167 196617 noteout;#P newex 151 99 60 196617 loadmess 7;#P newex 50 50 49 196617 unpack;#P newex 50 73 88 196617 t i 200;#P newex 50 99 88 196617 makenote 64 100;#P newex 50 30 188 196617 r $1/piste7;#B color 12;#P connect 0 0 3 0;#P connect 3 0 2 0;#P connect 2 0 1 0;#P connect 1 0 5 0;#P connect 6 0 5 0;#P connect 3 1 1 1;#P connect 2 1 1 2;#P connect 1 1 5 1;#P fasten 4 0 5 2 156 119 211 119;#P pop;#P newobj 123 546 63 196620 p piste 7;#B color 6;#N vpatcher 20 74 289 253;#P inlet 30 100 15 0;#P window setfont "Sans Serif" 9.;#P newex 50 123 167 196617 noteout;#P newex 151 99 60 196617 loadmess 6;#P newex 50 50 49 196617 unpack;#P newex 50 73 88 196617 t i 200;#P newex 50 99 88 196617 makenote 64 100;#P newex 50 30 164 196617 r $1/piste6;#B color 12;#P connect 0 0 3 0;#P connect 3 0 2 0;#P connect 2 0 1 0;#P connect 6 0 5 0;#P connect 1 0 5 0;#P connect 3 1 1 1;#P connect 2 1 1 2;#P connect 1 1 5 1;#P fasten 4 0 5 2 156 119 211 119;#P pop;#P newobj 115 570 63 196620 p piste 6;#B color 6;#N vpatcher 20 74 289 253;#P inlet 30 100 15 0;#P window setfont "Sans Serif" 9.;#P newex 50 123 167 196617 noteout;#P newex 151 99 60 196617 loadmess 5;#P newex 50 50 49 196617 unpack;#P newex 50 73 88 196617 t i 200;#P newex 50 99 88 196617 makenote 64 100;#P newex 50 30 164 196617 r $1/piste5;#B color 12;#P connect 0 0 3 0;#P connect 3 0 2 0;#P connect 2 0 1 0;#P connect 1 0 5 0;#P connect 6 0 5 0;#P connect 3 1 1 1;#P connect 2 1 1 2;#P connect 1 1 5 1;#P fasten 4 0 5 2 156 119 211 119;#P pop;#P newobj 105 593 63 196620 p piste 5;#B color 6;#N vpatcher 20 74 289 253;#P window setfont "Sans Serif" 9.;#P window linecount 1;#P newex 114 75 27 196617 i;#P inlet 30 100 15 0;#P window linecount 0;#P newex 50 123 167 196617 noteout;#P newex 151 99 60 196617 loadmess 4;#P newex 50 50 58 196617 unpack i i i;#P newex 50 73 27 196617 t i b;#P newex 50 99 88 196617 makenote 64 100;#P newex 50 30 163 196617 r $1/piste4;#B color 12;#P connect 0 0 3 0;#P connect 3 0 2 0;#P connect 2 0 1 0;#P connect 6 0 5 0;#P connect 1 0 5 0;#P connect 3 2 1 1;#P connect 2 1 7 0;#P connect 7 0 1 2;#P connect 1 1 5 1;#P connect 3 1 7 1;#P fasten 4 0 5 2 156 119 211 119;#P pop;#P newobj 95 616 63 196620 p piste 4;#B color 6;#N vpatcher 20 74 289 253;#P inlet 30 100 15 0;#P window setfont "Sans Serif" 9.;#P newex 50 123 167 196617 noteout;#P newex 151 99 60 196617 loadmess 3;#P newex 50 50 49 196617 unpack;#P newex 50 73 88 196617 t i 200;#P newex 50 99 88 196617 makenote 64 100;#P newex 50 30 65 196617 r $1/piste3;#B color 12;#P connect 0 0 3 0;#P connect 3 0 2 0;#P connect 2 0 1 0;#P connect 1 0 5 0;#P connect 6 0 5 0;#P connect 3 1 1 1;#P connect 2 1 1 2;#P connect 1 1 5 1;#P fasten 4 0 5 2 156 119 211 119;#P pop;#P newobj 87 638 63 196620 p piste 3;#B color 6;#N vpatcher 20 74 289 253;#P inlet 30 100 15 0;#P window setfont "Sans Serif" 9.;#P newex 50 123 167 196617 noteout;#P newex 151 99 60 196617 loadmess 2;#P newex 50 50 49 196617 unpack;#P newex 50 73 88 196617 t i 200;#P newex 50 99 88 196617 makenote 64 100;#P newex 50 30 164 196617 r $1/piste2;#B color 12;#P connect 0 0 3 0;#P connect 3 0 2 0;#P connect 2 0 1 0;#P connect 6 0 5 0;#P connect 1 0 5 0;#P connect 3 1 1 1;#P connect 2 1 1 2;#P connect 1 1 5 1;#P fasten 4 0 5 2 156 119 211 119;#P pop;#P newobj 77 661 63 196620 p piste 2;#B color 6;#N vpatcher 20 74 289 253;#P inlet 30 100 15 0;#P window setfont "Sans Serif" 9.;#P newex 50 123 167 196617 noteout;#P newex 151 99 60 196617 loadmess 1;#P newex 50 50 89 196617 unpack i i i;#P newex 50 73 88 196617 t i 200;#P newex 50 99 88 196617 makenote 64 100;#P newex 50 30 164 196617 r $1/piste1;#B color 12;#P connect 0 0 3 0;#P connect 3 0 2 0;#P connect 2 0 1 0;#P connect 1 0 5 0;#P connect 6 0 5 0;#P connect 3 2 1 1;#P connect 2 1 1 2;#P connect 3 1 1 2;#P connect 1 1 5 1;#P fasten 4 0 5 2 156 119 211 119;#P pop;#P newobj 68 684 63 196620 p piste 1;#B color 6;#P window setfont "Sans Serif" 9.;#P newex 68 484 377 196617 makeparam $1/type/out $1 m "from MaxMSP 1";#B color 12;#P newex 470 345 85 196617 r $1/pad.5/raw;#P newex 364 318 85 196617 r $1/pad.4/raw;#P newex 256 311 85 196617 r $1/pad.3/raw;#P newex 161 323 85 196617 r $1/pad.2/raw;#P newex 38 306 85 196617 r $1/pad.1/raw;#P newex 462 215 133 196617 s $1/pad.5/raw;#P newex 356 233 133 196617 s $1/pad.4/raw;#P newex 250 251 133 196617 s $1/pad.3/raw;#P newex 144 269 133 196617 s $1/pad.2/raw;#P newex 38 287 133 196617 s $1/pad.1/raw;#P window setfont "Sans Serif" 12.;#N vpatcher 10 59 685 420;#P window setfont "Sans Serif" 9.;#P window linecount 0;#P newex 518 98 81 196617 r $1/pad.5/vel;#P newex 396 103 81 196617 r $1/pad.4/vel;#P newex 274 108 81 196617 r $1/pad.3/vel;#P newex 152 113 81 196617 r $1/pad.2/vel;#P newex 69 84 81 196617 r $1/pad.1/vel;#P window linecount 1;#P newex 474 159 29 196617 gate;#P newex 368 159 29 196617 gate;#P newex 262 159 29 196617 gate;#P newex 156 159 29 196617 gate;#P newex 50 159 29 196617 gate;#P newex 474 179 52 196617 t 51 i;#P newex 474 201 94 196617 makenote 64 1000;#P newex 368 197 52 196617 t 44 i;#P newex 368 219 94 196617 makenote 64 1000;#P newex 262 215 52 196617 t 47 i;#P newex 262 237 94 196617 makenote 64 1000;#P newex 156 234 52 196617 t 43 i;#P newex 156 256 94 196617 makenote 64 1000;#P newex 50 252 52 196617 t 40 i;#P newex 50 311 178 196617 noteout 10;#B color 1;#P newex 50 274 94 196617 makenote 64 1000;#P inlet 50 86 15 0;#P fasten 0 0 12 0 55 115 55 115;#P connect 12 0 3 0;#P connect 3 0 1 0;#P fasten 8 0 2 0 373 303 55 303;#P lcolor 2;#P fasten 6 0 2 0 267 299 55 299;#P lcolor 2;#P fasten 4 0 2 0 161 295 55 295;#P lcolor 2;#P fasten 10 0 2 0 479 307 55 307;#P lcolor 2;#P connect 1 0 2 0;#P lcolor 2;#P connect 17 0 12 1;#P connect 3 1 1 1;#P connect 1 1 2 1;#P connect 4 1 2 1;#P connect 6 1 2 1;#P connect 8 1 2 1;#P connect 10 1 2 1;#P fasten 0 0 13 0 55 143 161 143;#P connect 13 0 5 0;#P connect 5 0 4 0;#P connect 18 0 13 1;#P connect 5 1 4 1;#P fasten 0 0 14 0 55 143 267 143;#P connect 14 0 7 0;#P connect 7 0 6 0;#P connect 19 0 14 1;#P connect 7 1 6 1;#P fasten 0 0 15 0 55 143 373 143;#P connect 15 0 9 0;#P connect 9 0 8 0;#P connect 20 0 15 1;#P connect 9 1 8 1;#P fasten 0 0 16 0 55 143 479 143;#P connect 16 0 11 0;#P connect 11 0 10 0;#P connect 21 0 16 1;#P connect 11 1 10 1;#P pop;#P newobj 12 63 47 196620 p test;#B color 6;#P toggle 12 42 15 0;#P window setfont "Sans Serif" 9.;#P newex 12 22 275 196617 makeparam $1/test/sw $1 t 0;#B color 12;#P newex 810 342 29 196617 gate;#P newex 678 342 29 196617 gate;#P newex 549 342 29 196617 gate;#P newex 443 411 29 196617 gate;#P newex 337 411 29 196617 gate;#P newex 231 411 29 196617 gate;#P newex 125 411 29 196617 gate;#P newex 19 411 29 196617 gate;#P toggle 0 109 15 0;#P newex 0 89 265 196617 makeswitch $1/sw $1 common_switchstate 0;#B color 12;#P newex 1015 291 21 196617 t 1;#P newex 1049 291 21 196617 t 2;#P newex 1083 291 21 196617 t 3;#P newex 1117 291 21 196617 t 4;#P newex 1151 291 21 196617 t 5;#P newex 1185 291 21 196617 t 6;#P newex 1219 291 21 196617 t 7;#P newex 1253 291 21 196617 t 8;#P newex 1253 270 32 196617 sel 1;#P newex 1219 270 32 196617 sel 1;#P newex 1185 270 32 196617 sel 1;#P newex 1151 270 32 196617 sel 1;#P newex 1117 270 32 196617 sel 1;#P newex 1083 270 32 196617 sel 1;#P newex 1049 270 32 196617 sel 1;#P newex 1015 270 32 196617 sel 1;#P newex 1015 315 164 196617 makecontrol $1/selector $1 i 0 8;#P toggle 1253 251 15 0;#P toggle 1219 251 15 0;#P toggle 1185 251 15 0;#P toggle 1151 251 15 0;#P toggle 1117 251 15 0;#P toggle 1083 251 15 0;#P toggle 1049 251 15 0;#P toggle 1015 251 15 0;#P newex 1015 209 28 196617 pack;#P newex 1015 231 287 196617 route 8 9 10 11 12 13 14 15;#P newex 1015 187 40 196617 notein;#P newex 810 383 200 196617 makecontrol $1/acc/y $1 f 0 1 /common;#B color 5;#P newex 678 404 200 196617 makecontrol $1/acc/x $1 f 0 1 /common;#B color 5;#P newex 549 429 198 196617 makecontrol $1/press $1 f 0 1 /common;#B color 5;#P newex 810 362 132 196617 s_calibr $1/acc/y 0 2048;#P newex 678 362 132 196617 s_calibr $1/acc/x 0 2048;#P newex 549 362 130 196617 s_calibr $1/press 0 2048;#P newex 19 110 204 196617 r $1/midi/interface;#B color 12;#P newex 139 135 349 196617 makeparam $1/trig/time_between $1 i 51 0 2048 1;#B color 12;#P number 139 161 35 9 0 0 0 3 0 0 0 221 221 221 222 222 222 0 0 0;#P newex 443 431 99 196617 s_trigger $1/pad.5;#B color 5;#P newex 337 431 99 196617 s_trigger $1/pad.4;#B color 5;#P newex 231 431 99 196617 s_trigger $1/pad.3;#B color 5;#P newex 125 431 99 196617 s_trigger $1/pad.2;#B color 5;#P newex 19 431 100 196617 s_trigger $1/pad.1;#B color 5;#P window linecount 13;#P message 840 482 163 196617 \; $1/sw/init bang \; $1/test/sw/init bang \; $1/trig/time_between/init bang \; $1/type/out/init bang \; $1/pad.1/init bang \; $1/pad.2/init bang \; $1/pad.3/init bang \; $1/pad.4/init bang \; $1/pad.5/init bang \; $1/press/init bang \; $1/acc/x/init bang \; $1/acc/y/init bang \;;#P connect 43 0 44 0;#P connect 53 0 54 0;#P connect 54 0 55 0;#P fasten 44 0 45 0 5 212 24 212;#P lcolor 1;#P connect 45 0 1 0;#P connect 8 0 85 0;#P connect 85 0 56 0;#P connect 61 0 45 1;#P fasten 6 0 1 1 144 180 114 180;#P lcolor 7;#P fasten 66 0 67 0 73 592 73 592;#P fasten 66 0 68 0 73 581 82 581;#P fasten 66 0 69 0 73 569 92 569;#P fasten 66 0 70 0 73 558 100 558;#P fasten 66 0 71 0 73 547 110 547;#P fasten 66 0 72 0 73 535 120 535;#P fasten 66 0 73 0 73 523 128 523;#P fasten 44 0 46 0 5 212 130 212;#P lcolor 1;#P connect 46 0 2 0;#P fasten 66 0 74 0 73 510 136 510;#P connect 7 0 6 0;#P connect 85 1 57 0;#P connect 62 0 46 1;#P fasten 6 0 2 1 144 180 219 180;#P lcolor 7;#P fasten 66 0 75 0 73 512 213 512;#P fasten 66 0 76 0 73 511 225 511;#P fasten 66 0 77 0 73 512 232 512;#P fasten 44 0 47 0 5 212 236 212;#P lcolor 1;#P connect 47 0 3 0;#P fasten 66 0 78 0 73 515 240 515;#P fasten 66 0 79 0 73 512 250 512;#P connect 85 2 58 0;#P connect 63 0 47 1;#P fasten 66 0 80 0 73 518 260 518;#P fasten 66 0 81 0 73 512 268 512;#P fasten 66 0 82 0 73 511 276 511;#P fasten 6 0 3 1 144 180 325 180;#P lcolor 7;#P fasten 44 0 48 0 5 212 342 212;#P lcolor 1;#P connect 48 0 4 0;#P connect 85 3 59 0;#P connect 64 0 48 1;#P fasten 6 0 4 1 144 180 431 180;#P lcolor 7;#P fasten 44 0 49 0 5 212 448 212;#P lcolor 1;#P connect 49 0 5 0;#P connect 85 4 60 0;#P connect 65 0 49 1;#P connect 66 0 83 0;#P fasten 6 0 5 1 144 180 537 180;#P lcolor 7;#P connect 66 0 84 0;#P fasten 44 0 50 0 5 212 554 212;#P lcolor 1;#P connect 50 0 9 0;#P connect 9 0 12 0;#P connect 85 5 86 0;#P connect 87 0 50 1;#P fasten 44 0 51 0 5 212 683 212;#P lcolor 1;#P connect 51 0 10 0;#P connect 10 0 13 0;#P connect 85 6 88 0;#P connect 89 0 51 1;#P fasten 44 0 52 0 5 212 815 212;#P lcolor 1;#P connect 52 0 11 0;#P connect 11 0 14 0;#P connect 85 7 90 0;#P connect 91 0 52 1;#P connect 92 0 0 0;#P connect 15 0 17 0;#P connect 17 0 16 0;#P connect 16 0 18 0;#P connect 18 0 27 0;#P connect 27 0 42 0;#P fasten 40 0 26 0 1088 311 1020 311;#P fasten 35 0 26 0 1258 311 1020 311;#P fasten 36 0 26 0 1224 311 1020 311;#P fasten 37 0 26 0 1190 311 1020 311;#P fasten 38 0 26 0 1156 311 1020 311;#P fasten 39 0 26 0 1122 311 1020 311;#P fasten 41 0 26 0 1054 311 1020 311;#P fasten 42 0 26 0 1020 311 1020 311;#P connect 15 1 17 1;#P connect 16 1 19 0;#P connect 19 0 28 0;#P connect 28 0 41 0;#P connect 16 2 20 0;#P connect 20 0 29 0;#P connect 29 0 40 0;#P connect 16 3 21 0;#P connect 21 0 30 0;#P connect 30 0 39 0;#P connect 16 4 22 0;#P connect 22 0 31 0;#P connect 31 0 38 0;#P connect 16 5 23 0;#P connect 23 0 32 0;#P connect 32 0 37 0;#P connect 16 6 24 0;#P connect 24 0 33 0;#P connect 33 0 36 0;#P connect 16 7 25 0;#P connect 25 0 34 0;#P connect 34 0 35 0;#P pop;