max v2;#N vpatcher 86 372 993 851;#P toggle 106 1 15 0;#P objectname test;#P window setfont "Sans Serif" 9.;#P window linecount 1;#P newex 485 97 52 196617 pvar test;#P newex 485 76 174 196617 variedit $1/test/sw $1;#B color 12;#P comment 174 20 43 196617 /press;#P comment 174 47 43 196617 /acc/y;#P window setfont Times 18.;#N vpatcher 607 241 871 660;#P origin 0 -1;#P bpatcher 0 321 121 79 0 0 t_sensor_calibrate.edit.mxt 0 $1/pad.5 0 127;#P bpatcher 0 241 121 79 0 0 t_sensor_calibrate.edit.mxt 0 $1/pad.4 0 127;#P bpatcher 122 161 121 79 0 0 t_sensor_calibrate.edit.mxt 0 $1/acc/y 0 127;#P bpatcher 122 81 121 79 0 0 t_sensor_calibrate.edit.mxt 0 $1/acc/x 0 127;#P bpatcher 122 1 121 79 0 0 t_sensor_calibrate.edit.mxt 0 $1/press 0 127;#P bpatcher 0 161 121 79 0 0 t_sensor_calibrate.edit.mxt 0 $1/pad.3 0 127;#P bpatcher 0 81 121 79 0 0 t_sensor_calibrate.edit.mxt 0 $1/pad.2 0 127;#P bpatcher 0 1 121 79 0 0 t_sensor_calibrate.edit.mxt 0 $1/pad.1 0 127;#P window setfont "Sans Serif" 9.;#P hidden newex 145 274 174 196617 editorwindow $1/calibr /tapemovie;#B color 11;#N thispatcher;#Q end;#P hidden newobj 145 298 70 196617 thispatcher;#P hidden connect 1 0 0 0;#P pop;#P newobj 180 143 70 1310738 p more2;#B color 6;#P window setfont "Sans Serif" 9.;#P newex 286 110 96 196617 s $1/calibr/editor;#B color 11;#P newex 286 27 48 196617 loadbang;#P message 286 50 75 196617 brgb 200 0 80;#P newex 286 88 40 196617 t front;#P newex 286 68 63 196617 pvar more2;#P user jsui 54 1 30 15 1 0 0 jsui_textbutton.js calibr;#P objectname more2;#P newex 579 412 71 196617 pvar selector;#P newex 579 391 202 196617 variedit $1/selector;#B color 12;#P window setfont Times 18.;#N vpatcher 871 49 1405 638;#P origin -79 -129;#P bpatcher 0 506 512 62 0 0 multimapsend.edit.mxt 0 $1/selector/map 2;#P bpatcher 1 442 512 62 0 0 multimapsend.edit.mxt 0 $1/acc/y/map 2;#P bpatcher 1 378 512 62 0 0 multimapsend.edit.mxt 0 $1/acc/x/map 2;#P bpatcher 1 315 512 62 0 0 multimapsend.edit.mxt 0 $1/press/map 2;#P bpatcher 1 252 512 62 0 0 multimapsend.edit.mxt 0 $1/pad.5/vel/map 2;#P bpatcher 1 190 512 62 0 0 multimapsend.edit.mxt 0 $1/pad.4/vel/map 2;#P bpatcher 1 126 512 62 0 0 multimapsend.edit.mxt 0 $1/pad.3/vel/map 2;#P bpatcher 1 63 512 62 0 0 multimapsend.edit.mxt 0 $1/pad.2/vel/map 2;#P bpatcher 1 0 512 62 0 0 multimapsend.edit.mxt 0 $1/pad.1/vel/map 2;#P window setfont "Sans Serif" 9.;#P hidden newex 560 25 174 196617 editorwindow $1/more $1/common;#B color 11;#N thispatcher;#Q end;#P hidden newobj 560 49 70 196617 thispatcher;#P hidden connect 1 0 0 0;#P pop;#P newobj 182 113 61 1310738 p more;#B color 6;#P window setfont "Sans Serif" 9.;#P newex 493 386 55 196617 pvar accy;#P newex 493 365 202 196617 variedit $1/acc/y;#B color 12;#P newex 258 386 55 196617 pvar accx;#P newex 258 365 202 196617 variedit $1/acc/x;#B color 12;#P newex 23 386 59 196617 pvar press;#P newex 23 365 202 196617 variedit $1/press;#B color 12;#P newex 591 192 64 196617 pvar simul4;#P newex 591 212 212 196617 variedit $1/pad.4/simul;#B color 12;#P newex 656 192 54 196617 pvar vel4;#P newex 656 171 202 196617 variedit $1/pad.4/vel;#B color 12;#P newex 591 293 64 196617 pvar simul5;#P newex 591 313 212 196617 variedit $1/pad.5/simul;#B color 12;#P newex 656 293 54 196617 pvar vel5;#P newex 656 272 202 196617 variedit $1/pad.5/vel;#B color 12;#P newex 298 192 64 196617 pvar simul2;#P newex 298 212 212 196617 variedit $1/pad.2/simul;#B color 12;#P newex 363 192 54 196617 pvar vel2;#P newex 363 171 174 196617 variedit $1/pad.2/vel;#B color 12;#P newex 18 293 64 196617 pvar simul1;#P newex 18 313 212 196617 variedit $1/pad.1/simul;#B color 12;#P newex 83 293 54 196617 pvar vel1;#P newex 83 272 202 196617 variedit $1/pad.1/vel;#B color 12;#P newex 298 293 64 196617 pvar simul3;#P newex 298 313 212 196617 variedit $1/pad.3/simul;#B color 12;#P newex 363 293 54 196617 pvar vel3;#P newex 363 272 202 196617 variedit $1/pad.3/vel;#B color 12;#P flonum 216 46 35 9 0 0 8224 3 0 0 0 221 221 221 222 222 222 0 0 0;#P objectname accy;#P flonum 216 32 35 9 0 0 8224 3 0 0 0 221 221 221 222 222 222 0 0 0;#P objectname accx;#P flonum 216 18 35 9 0 0 8224 3 0 0 0 221 221 221 222 222 222 0 0 0;#P objectname press;#P button 123 39 15 0;#P objectname simul5;#P window setfont "Sans Serif" 10.;#P number 137 39 29 10 0 0 8352 3 0 0 0 221 221 221 222 222 222 0 0 0;#P objectname vel5;#P button 123 22 15 0;#P objectname simul4;#P number 137 22 29 10 0 0 8352 3 0 0 0 221 221 221 222 222 222 0 0 0;#P objectname vel4;#P number 94 39 29 10 0 0 8352 3 0 0 0 221 221 221 222 222 222 0 0 0;#P objectname vel3;#P button 80 22 15 0;#P objectname simul2;#P number 94 22 29 10 0 0 8352 3 0 0 0 221 221 221 222 222 222 0 0 0;#P objectname vel2;#P button 16 39 15 0;#P objectname simul1;#P number 30 39 29 10 0 0 8352 3 0 0 0 221 221 221 222 222 222 0 0 0;#P objectname vel1;#P window setfont "Sans Serif" 9.;#P newex 10 205 84 196617 pvar interface 2;#P newex 9 226 159 196617 variedit $1/midi/interface $1;#B color 12;#P newex 10 183 46 196617 midiinfo;#P newex 46 161 21 196617 t 1;#P newex 46 142 50 196617 del 1200;#P newex 46 122 48 196617 loadbang;#P user ubumenu 15 22 64 196617 0 1 1 0;#X add "to MaxMSP 1";#X add "to MaxMSP 2";#X prefix_set 0 0 <none> 0;#P objectname interface;#P window setfont "Sans Serif" 14.;#P hidden number 55 37 35 14 0 0 8356 3 0 0 0 221 221 221 222 222 222 0 0 0;#P objectname selector;#P button 80 39 15 0;#P objectname simul3;#P window setfont "Sans Serif" 9.;#P comment 174 34 43 196617 /acc/x;#P comment 83 3 26 196617 test;#P bpatcher 0 0 256 62 0 0 bkgnd.mxt 0 $1 1;#P objectname background;#P fasten 11 1 10 0 89 224 14 224;#P connect 9 0 11 0;#P fasten 10 0 11 0 14 249 5 249 5 202 15 202;#P connect 31 0 30 0;#P connect 45 0 44 0;#P connect 44 0 45 0;#P connect 6 0 7 0;#P connect 7 0 8 0;#P connect 8 0 9 1;#P connect 28 0 29 0;#P connect 47 0 46 0;#P connect 46 0 47 0;#P connect 57 0 56 0;#P connect 56 0 54 0;#P connect 54 0 55 0;#P connect 55 0 58 0;#P connect 35 0 34 0;#P connect 27 0 26 0;#P connect 32 0 33 0;#P connect 24 0 25 0;#P connect 63 0 62 0;#P connect 62 0 63 0;#P connect 49 0 48 0;#P connect 48 0 49 0;#P connect 51 0 52 0;#P connect 43 0 42 0;#P connect 39 0 38 0;#P connect 40 0 41 0;#P connect 36 0 37 0;#P pop;