max v2;#N vpatcher 61 184 652 647;#P origin 0 15;#P window setfont "Sans Serif" 9.;#P window linecount 3;#P message 305 33 85 196617 \; /lfo.1/init bang \; /lfo.2/init bang \;;#P user meter~ 25 304 105 317 50 0 168 0 103 103 103 255 153 0 255 0 0 217 217 0 153 186 0 12 3 3 3 3;#P user meter~ 51 277 131 290 50 0 168 0 103 103 103 255 153 0 255 0 0 217 217 0 153 186 0 12 3 3 3 3;#P toggle 447 375 54 0;#P window linecount 1;#P newex 447 352 114 196617 variedit $1/play $1;#P newex 433 24 48 196617 loadbang;#P newex 293 267 125 196617 s /record/lfo.2/circle/y;#P newex 262 285 125 196617 s /record/lfo.2/circle/x;#P newex 231 303 105 196617 s /record/lfo.2/saw;#P newex 200 321 110 196617 s /record/lfo.2/sinus;#P newex 169 339 125 196617 s /record/lfo.1/circle/y;#P newex 138 357 125 196617 s /record/lfo.1/circle/x;#P newex 107 375 105 196617 s /record/lfo.1/saw;#P newex 76 393 110 196617 s /record/lfo.1/sinus;#P toggle 321 375 54 0;#P newex 321 352 114 196617 variedit $1/record $1;#P newex 14 240 41 196617 dac~;#P newex 14 145 60 196617 loadmess 1;#P toggle 14 167 15 0;#P newex 14 189 45 196617 adc~;#P user number~ 324 239 486 254 9 3 3 2 0. 0. 0 0. 250 0. 0 0 0 221 221 221 222 222 222 0 0 0;#P user ezdac~ 12 104 56 137 0;#P window setfont "Sans Serif" 12.;#N vpatcher 975 44 1412 564;#P origin 0 43;#P window setfont "Sans Serif" 9.;#P number 279 49 35 9 0 0 0 3 0 0 0 221 221 221 222 222 222 0 0 0;#P user scope~ 124 427 224 483 2 3 128 -1. 1. 0 0. 0 0. 102 255 51 135 135 135 0;#P user scope~ 124 372 224 428 2 3 128 -1. 1. 0 0. 0 0. 102 255 51 135 135 135 0;#P user scope~ 124 317 224 373 2 3 128 -1. 1. 0 0. 0 0. 102 255 51 135 135 135 0;#P user scope~ 124 262 224 318 2 3 128 -1. 1. 0 0. 0 0. 102 255 51 135 135 135 0;#P user scope~ 124 207 224 263 2 3 128 -1. 1. 0 0. 0 0. 102 255 51 135 135 135 0;#P user scope~ 124 152 224 208 2 3 128 -1. 1. 0 0. 0 0. 102 255 51 135 135 135 0;#P user scope~ 124 97 224 153 2 3 128 -1. 1. 0 0. 0 0. 102 255 51 135 135 135 0;#P user scope~ 124 42 224 98 2 3 128 -1. 1. 0 0. 0 0. 102 255 51 135 135 135 0;#P window setfont "Sans Serif" 20.;#P comment 137 13 194 196628 ENREGISTREMENTS;#P window setfont "Sans Serif" 9.;#P hidden newex 272 225 125 196617 r /record/lfo.2/circle/y;#P hidden newex 272 204 125 196617 r /record/lfo.2/circle/x;#P hidden newex 272 183 105 196617 r /record/lfo.2/saw;#P hidden newex 272 162 110 196617 r /record/lfo.2/sinus;#P hidden newex 272 141 125 196617 r /record/lfo.1/circle/y;#P hidden newex 272 120 125 196617 r /record/lfo.1/circle/x;#P hidden newex 272 99 105 196617 r /record/lfo.1/saw;#P hidden newex 272 78 110 196617 r /record/lfo.1/sinus;#P user multiSlider 19 427 98 56 -1. 1. 1 3449 15 0 0 2 0 0 0;#M frgb 0 0 0;#M brgb 255 255 255;#M rgb2 127 127 127;#M rgb3 0 0 0;#M rgb4 37 52 91;#M rgb5 74 105 182;#M rgb6 112 158 18;#M rgb7 149 211 110;#M rgb8 187 9 201;#M rgb9 224 62 37;#M rgb10 7 114 128;#P user multiSlider 19 372 98 56 -1. 1. 1 3449 15 0 0 2 0 0 0;#M frgb 0 0 0;#M brgb 255 255 255;#M rgb2 127 127 127;#M rgb3 0 0 0;#M rgb4 37 52 91;#M rgb5 74 105 182;#M rgb6 112 158 18;#M rgb7 149 211 110;#M rgb8 187 9 201;#M rgb9 224 62 37;#M rgb10 7 114 128;#P user multiSlider 19 317 98 56 -1. 1. 1 3449 15 0 0 2 0 0 0;#M frgb 0 0 0;#M brgb 255 255 255;#M rgb2 127 127 127;#M rgb3 0 0 0;#M rgb4 37 52 91;#M rgb5 74 105 182;#M rgb6 112 158 18;#M rgb7 149 211 110;#M rgb8 187 9 201;#M rgb9 224 62 37;#M rgb10 7 114 128;#P user multiSlider 19 262 98 56 -1. 1. 1 3449 15 0 0 2 0 0 0;#M frgb 0 0 0;#M brgb 255 255 255;#M rgb2 127 127 127;#M rgb3 0 0 0;#M rgb4 37 52 91;#M rgb5 74 105 182;#M rgb6 112 158 18;#M rgb7 149 211 110;#M rgb8 187 9 201;#M rgb9 224 62 37;#M rgb10 7 114 128;#P user multiSlider 19 207 98 56 -1. 1. 1 3449 15 0 0 2 0 0 0;#M frgb 0 0 0;#M brgb 255 255 255;#M rgb2 127 127 127;#M rgb3 0 0 0;#M rgb4 37 52 91;#M rgb5 74 105 182;#M rgb6 112 158 18;#M rgb7 149 211 110;#M rgb8 187 9 201;#M rgb9 224 62 37;#M rgb10 7 114 128;#P user multiSlider 19 152 98 56 -1. 1. 1 3449 15 0 0 2 0 0 0;#M frgb 0 0 0;#M brgb 255 255 255;#M rgb2 127 127 127;#M rgb3 0 0 0;#M rgb4 37 52 91;#M rgb5 74 105 182;#M rgb6 112 158 18;#M rgb7 149 211 110;#M rgb8 187 9 201;#M rgb9 224 62 37;#M rgb10 7 114 128;#P user multiSlider 19 97 98 56 -1. 1. 1 3449 15 0 0 2 0 0 0;#M frgb 0 0 0;#M brgb 255 255 255;#M rgb2 127 127 127;#M rgb3 0 0 0;#M rgb4 37 52 91;#M rgb5 74 105 182;#M rgb6 112 158 18;#M rgb7 149 211 110;#M rgb8 187 9 201;#M rgb9 224 62 37;#M rgb10 7 114 128;#P user multiSlider 19 42 98 56 -1. 1. 1 3449 15 0 0 2 0 0 0;#M frgb 0 0 0;#M brgb 255 255 255;#M rgb2 127 127 127;#M rgb3 0 0 0;#M rgb4 37 52 91;#M rgb5 74 105 182;#M rgb6 112 158 18;#M rgb7 149 211 110;#M rgb8 187 9 201;#M rgb9 224 62 37;#M rgb10 7 114 128;#P hidden newex 8 207 89 196617 r /lfo.2/circle/y;#P hidden newex 8 189 89 196617 r /lfo.2/circle/x;#P hidden newex 8 171 69 196617 r /lfo.2/saw;#P hidden newex 8 153 74 196617 r /lfo.2/sinus;#P hidden newex 8 135 89 196617 r /lfo.1/circle/y;#P hidden newex 8 117 89 196617 r /lfo.1/circle/x;#P hidden newex 8 99 69 196617 r /lfo.1/saw;#P hidden newex 8 81 74 196617 r /lfo.1/sinus;#P window setfont "Sans Serif" 20.;#P comment 19 13 94 196628 SIGNAUX;#P hidden connect 1 0 9 0;#P hidden connect 2 0 10 0;#P hidden connect 3 0 11 0;#P hidden connect 4 0 12 0;#P hidden connect 5 0 13 0;#P hidden connect 6 0 14 0;#P hidden connect 7 0 15 0;#P hidden connect 8 0 16 0;#P hidden connect 34 0 26 0;#P hidden connect 17 0 26 0;#P hidden connect 34 0 27 0;#P hidden connect 18 0 27 0;#P hidden connect 34 0 28 0;#P hidden connect 19 0 28 0;#P hidden connect 34 0 29 0;#P hidden connect 20 0 29 0;#P hidden connect 34 0 30 0;#P hidden connect 21 0 30 0;#P hidden connect 34 0 31 0;#P hidden connect 22 0 31 0;#P hidden connect 34 0 32 0;#P hidden connect 23 0 32 0;#P hidden connect 34 0 33 0;#P hidden connect 24 0 33 0;#P pop;#P newobj 459 272 95 196620 p visualisation;#B color 6;#P window setfont "Sans Serif" 9.;#P window linecount 11;#P message 433 48 133 196617 \; /lfo.1/init bang \; /lfo.2/init bang \; /lfo.1/sw 1 \; /lfo.2/sw 1 \; /lfo.2/sinus/freq 0.01 \; /lfo.2/saw/up 0.01 \; /lfo.2/saw/down 0.1 \; /lfo.2/circle/size/x 0.65 \; /lfo.2/circle/size/y 0.87 \; $1/init bang \;;#P window linecount 1;#P newex 494 215 53 196617 lfo /lfo.2;#B color 14;#P window setfont "Sans Serif" 12.;#N vpatcher 81 119 882 644;#P origin -20 0;#P window setfont "Sans Serif" 9.;#P window linecount 1;#P newex 197 340 64 196617 print sfopen;#P window setfont "Sans Serif" 12.;#P window linecount 0;#N vpatcher 10 59 297 281;#P window setfont "Sans Serif" 9.;#P window linecount 0;#P newex 55 70 38 196617 del 60;#P toggle 9 50 15 0;#P newex 9 26 234 196617 makeparam $1/autostart $1 t 0;#B color 12;#P window linecount 1;#P newex 9 71 29 196617 gate;#P window linecount 2;#P message 9 155 138 196617 \; $1/play 1 \;;#P window linecount 1;#P newex 9 115 44 196617 del 120;#P newex 55 115 36 196617 zl reg;#P inlet 28 45 15 0;#P inlet 81 95 15 0;#P outlet 55 137 15 0;#P connect 7 0 8 0;#P connect 8 0 6 0;#P connect 6 0 4 0;#P connect 4 0 5 0;#P connect 2 0 6 1;#P fasten 2 0 9 0 33 65 60 65;#P connect 9 0 3 0;#P connect 3 0 0 0;#P connect 1 0 3 1;#P pop;#P newobj 100 339 85 196620 p auto-start;#B color 6;#P toggle 441 221 15 0;#P window setfont "Sans Serif" 9.;#P window linecount 1;#P newex 441 194 145 196617 makeparam $1/play $1 t 0;#B color 12;#P window linecount 0;#P message 78 270 30 196617 open;#P button 362 447 15 0;#P newex 176 59 221 196617 makeswitch $1/sw $1 common_switchstate 1;#B color 12;#P message 439 88 189 196617 \; $1/sw/init bang \; $1/record/init bang \; $1/play/init bang \; $1/autostart/init bang \; $1/file/init bang \;;#P window linecount 1;#P newex 439 65 134 196617 r $1/init;#B color 12;#P message 82 106 29 196617 stop;#P outlet 327 447 15 0;#P outlet 292 447 15 0;#P outlet 257 447 15 0;#P outlet 222 447 15 0;#P outlet 187 447 15 0;#P outlet 152 447 15 0;#P outlet 117 447 15 0;#P outlet 82 447 15 0;#P outlet 47 447 15 0;#N sfplay~  10 120960 0 ;#P newobj 12 384 362 196617 sfplay~ 10;#P outlet 12 447 15 0;#P newex 85 188 62 196617 projectpath;#B color 5;#P newex 183 307 96 196617 sprintf open %s.aif;#P window linecount 2;#P newex 12 267 65 196617 route start stop;#P window linecount 3;#P newex 85 208 71 196617 sprintf %smedia/replayer/;#P window linecount 1;#P newex 303 265 58 196617 unpack i i i;#P newex 231 265 58 196617 unpack i i i;#P newex 231 244 155 196617 date;#P message 267 222 29 196617 date;#P message 231 222 30 196617 time;#P newex 231 202 46 196617 t b b;#P newex 183 287 184 196617 sprintf %s%s_%i-%i-%i_%ih%im%is;#P newex 158 183 36 196617 zl reg;#P newex 184 157 242 196617 makeparam $1/file $1 s -record;#B color 12;#P newex 12 123 229 196617 t s b b b;#P message 12 101 33 196617 start;#P newex 12 80 47 196617 sel 1;#P toggle 12 57 15 0;#P newex 12 34 145 196617 makeparam $1/record $1 t 0;#B color 12;#P message 39 326 14 196617 0;#P message 12 326 14 196617 1;#P inlet 416 324 15 0;#P outlet 377 413 15 0;#P newex 728 348 32 196617 line~;#P newex 689 348 32 196617 line~;#P newex 650 348 32 196617 line~;#P newex 611 348 32 196617 line~;#P newex 572 348 32 196617 line~;#P newex 533 348 32 196617 line~;#P newex 494 348 32 196617 line~;#P newex 455 348 32 196617 line~;#P newex 377 381 362 196617 sfrecord~ 10;#P inlet 728 324 15 0;#P inlet 689 324 15 0;#P inlet 650 324 15 0;#P inlet 611 324 15 0;#P inlet 572 324 15 0;#P inlet 533 324 15 0;#P inlet 494 324 15 0;#P inlet 455 324 15 0;#P inlet 377 324 15 0;#P connect 22 0 23 0;#P connect 23 0 24 0;#P connect 24 0 25 0;#P connect 25 0 26 0;#P connect 51 0 37 0;#P connect 26 0 37 0;#P connect 37 0 20 0;#P connect 56 0 41 0;#P connect 58 0 41 0;#P connect 59 0 41 0;#P connect 41 0 40 0;#P connect 37 1 21 0;#P connect 41 1 42 0;#P connect 24 1 51 0;#P connect 41 2 43 0;#P connect 26 1 39 0;#P connect 39 0 36 0;#P connect 37 1 59 0;#P connect 41 3 44 0;#P connect 41 4 45 0;#P connect 26 2 28 0;#P connect 38 0 59 1;#P fasten 36 0 29 0 90 263 188 263;#P connect 29 0 38 0;#P connect 27 0 28 1;#P connect 41 5 46 0;#P connect 38 0 60 0;#P connect 28 0 29 1;#P connect 41 6 47 0;#P connect 26 3 30 0;#P connect 30 0 31 0;#P connect 31 0 33 0;#P fasten 32 0 33 0 272 241 236 241;#P connect 33 0 34 0;#P connect 34 0 29 2;#P connect 34 1 29 3;#P connect 41 7 48 0;#P connect 30 1 32 0;#P connect 34 2 29 4;#P connect 41 8 49 0;#P connect 33 1 35 0;#P connect 35 0 29 5;#P connect 35 1 29 6;#P connect 41 9 50 0;#P connect 35 2 29 7;#P connect 41 10 55 0;#P fasten 38 0 9 0 188 369 382 369;#P fasten 21 0 9 0 44 373 382 373;#P fasten 20 0 9 0 17 377 382 377;#P connect 0 0 9 0;#P connect 9 0 18 0;#P connect 19 0 9 1;#P connect 52 0 53 0;#P connect 57 0 58 0;#P connect 1 0 10 0;#P connect 10 0 9 2;#P connect 2 0 11 0;#P connect 11 0 9 3;#P connect 3 0 12 0;#P connect 12 0 9 4;#P connect 4 0 13 0;#P connect 13 0 9 5;#P connect 5 0 14 0;#P connect 14 0 9 6;#P connect 6 0 15 0;#P connect 15 0 9 7;#P connect 7 0 16 0;#P connect 16 0 9 8;#P connect 8 0 17 0;#P connect 17 0 9 9;#P pop;#P newobj 14 214 329 196620 p recorder-replayer;#B color 6;#P window setfont "Sans Serif" 9.;#P newex 329 192 89 196617 r /lfo.2/circle/y;#P newex 294 174 89 196617 r /lfo.2/circle/x;#P newex 259 156 69 196617 r /lfo.2/saw;#P newex 224 138 74 196617 r /lfo.2/sinus;#P newex 189 120 89 196617 r /lfo.1/circle/y;#P newex 154 102 89 196617 r /lfo.1/circle/x;#P newex 119 84 69 196617 r /lfo.1/saw;#P newex 494 189 53 196617 lfo /lfo.1;#B color 14;#P newex 84 66 74 196617 r /lfo.1/sinus;#P comment 346 254 100 196617 record lenght (ms);#P connect 18 0 17 0;#P connect 17 0 16 0;#P connect 16 0 10 0;#P connect 10 0 19 0;#P connect 16 0 34 0;#P connect 10 1 19 1;#P connect 16 1 10 1;#P connect 16 1 33 0;#P connect 10 2 22 0;#P connect 1 0 10 2;#P connect 10 3 23 0;#P connect 3 0 10 3;#P connect 10 4 24 0;#P connect 4 0 10 4;#P connect 10 5 25 0;#P connect 5 0 10 5;#P connect 10 6 26 0;#P connect 6 0 10 6;#P connect 10 7 27 0;#P connect 7 0 10 7;#P connect 10 8 28 0;#P connect 10 9 29 0;#P connect 8 0 10 8;#P fasten 21 0 20 0 326 435 316 435 316 349 326 349;#P connect 20 0 21 0;#P connect 10 10 15 0;#P connect 9 0 10 9;#P connect 30 0 12 0;#P fasten 32 0 31 0 452 436 442 436 442 350 452 350;#P connect 31 0 32 0;#P pop;