max v2;#N vpatcher 287 74 959 202;#P origin -271 -886;#P window setfont "Sans Serif" 9.;#P hidden newex 501 -41 65 196617 t b;#P hidden newex -110 24 27 196617 t b i;#N thispatcher;#Q end;#P hidden newobj 588 7 61 196617 thispatcher;#P hidden newex 567 -21 89 196617 r kramers/editor;#P window setfont "Sans Serif" 20.;#P comment 577 22 53 196628 VGA;#P window setfont "Sans Serif" 9.;#N vpatcher 10 59 610 459;#P origin 0 6;#P window setfont "Sans Serif" 9.;#P newex 320 114 75 196617 r kramer.apply;#P newex 291 44 30 196617 sel 0;#P message 317 195 14 196617 1;#P message 382 278 14 196617 0;#P newex 317 258 92 196617 sel 1 2 3 4 5 6;#N counter 1 6;#X flags 0 0;#P newobj 317 237 66 196617 counter 1 6;#P newex 317 216 50 196617 metro 50;#P newex 256 278 45 196617 append 6;#P newex 215 259 45 196617 append 5;#P newex 174 241 45 196617 append 4;#P newex 133 222 45 196617 append 3;#P newex 92 203 45 196617 append 2;#P newex 50 184 45 196617 append 1;#P newex 238 368 51 196617 print man;#P newex 238 348 27 196617 gate;#P newex 256 156 34 196617 zl reg;#P newex 215 156 34 196617 zl reg;#P newex 174 156 34 196617 zl reg;#P newex 133 156 34 196617 zl reg;#P newex 92 156 34 196617 zl reg;#P newex 50 156 34 196617 zl reg;#P newex 299 172 60 196617 prepend set;#P newex 299 153 115 196617 pak 0 0 0 0 0 0 0 0;#P inlet 74 136 15 0;#P inlet 299 133 15 0;#P inlet 116 136 15 0;#P inlet 314 133 15 0;#P inlet 157 136 15 0;#P inlet 329 133 15 0;#P inlet 198 136 15 0;#P inlet 344 133 15 0;#P inlet 238 328 15 0;#P inlet 239 136 15 0;#P inlet 359 133 15 0;#P inlet 280 136 15 0;#P inlet 374 133 15 0;#P inlet 291 24 15 0;#P inlet 357 196 15 0;#P outlet 215 281 15 0;#P outlet 133 244 15 0;#P outlet 50 206 15 0;#P outlet 256 300 15 0;#P outlet 174 263 15 0;#P outlet 92 225 15 0;#P fasten 39 0 23 0 322 147 55 147;#P connect 23 0 31 0;#P connect 31 0 3 0;#P connect 20 0 23 1;#P fasten 39 1 24 0 335 143 97 143;#P connect 24 0 32 0;#P connect 32 0 0 0;#P connect 18 0 24 1;#P fasten 39 2 25 0 348 143 138 143;#P connect 25 0 33 0;#P connect 33 0 4 0;#P connect 16 0 25 1;#P fasten 39 3 26 0 361 143 179 143;#P connect 26 0 34 0;#P connect 34 0 1 0;#P connect 14 0 26 1;#P fasten 39 4 27 0 374 143 220 143;#P connect 27 0 35 0;#P connect 35 0 5 0;#P connect 12 0 29 0;#P connect 29 0 30 0;#P connect 11 0 27 1;#P connect 36 0 29 1;#P connect 32 0 29 1;#P connect 34 0 29 1;#P connect 31 0 29 1;#P connect 33 0 29 1;#P connect 35 0 29 1;#P fasten 39 5 28 0 387 155 261 155;#P connect 28 0 36 0;#P connect 36 0 2 0;#P connect 9 0 28 1;#P connect 7 0 42 0;#P connect 19 0 21 0;#P connect 21 0 22 0;#P connect 17 0 21 1;#P fasten 43 0 41 0 325 108 322 108;#P connect 42 0 41 0;#P connect 41 0 37 0;#P fasten 40 0 37 0 387 295 410 295 410 213 322 213;#P connect 37 0 38 0;#P connect 38 0 39 0;#P connect 15 0 21 2;#P connect 13 0 21 3;#P connect 41 0 38 2;#P connect 6 0 37 1;#P connect 10 0 21 4;#P connect 8 0 21 5;#P connect 39 5 40 0;#P pop;#P hidden newobj 12 102 13 196617 p;#N vpatcher 10 59 610 459;#P origin 14 4;#P window setfont "Sans Serif" 9.;#P newex 347 278 45 196617 append 8;#P newex 306 259 45 196617 append 7;#P newex 347 156 34 196617 zl reg;#P newex 306 156 34 196617 zl reg;#P newex 450 108 75 196617 r kramer.apply;#P newex 441 46 30 196617 sel 0;#P message 412 197 14 196617 1;#P message 544 298 14 196617 0;#P newex 412 260 173 196617 sel 1 2 3 4 5 6 7 8;#N counter 1 8;#X flags 0 0;#P newobj 412 239 66 196617 counter 1 8;#P newex 412 218 50 196617 metro 50;#P newex 242 278 45 196617 append 6;#P newex 201 259 45 196617 append 5;#P newex 160 241 45 196617 append 4;#P newex 119 222 45 196617 append 3;#P newex 78 203 45 196617 append 2;#P newex 36 184 45 196617 append 1;#P newex 224 368 51 196617 print man;#P newex 224 348 27 196617 gate;#P newex 242 156 34 196617 zl reg;#P newex 201 156 34 196617 zl reg;#P newex 160 156 34 196617 zl reg;#P newex 119 156 34 196617 zl reg;#P newex 78 156 34 196617 zl reg;#P newex 36 156 34 196617 zl reg;#P newex 394 174 60 196617 prepend set;#P newex 414 78 115 196617 pak 0 0 0 0 0 0 0 0;#P inlet 371 136 15 0;#P inlet 330 136 15 0;#P inlet 60 136 15 0;#P inlet 102 136 15 0;#P inlet 143 136 15 0;#P inlet 184 136 15 0;#P inlet 224 328 15 0;#P inlet 225 136 15 0;#P inlet 266 136 15 0;#P inlet 414 58 15 0;#P inlet 429 58 15 0;#P inlet 441 26 15 0;#P inlet 444 58 15 0;#P inlet 459 58 15 0;#P inlet 474 58 15 0;#P inlet 489 58 15 0;#P outlet 78 225 15 0;#P outlet 160 263 15 0;#P outlet 242 300 15 0;#P outlet 306 281 15 0;#P outlet 36 206 15 0;#P outlet 119 244 15 0;#P outlet 201 281 15 0;#P outlet 347 300 15 0;#P fasten 42 0 26 0 417 149 41 149;#P connect 26 0 34 0;#P connect 34 0 3 0;#P connect 21 0 26 1;#P fasten 42 1 27 0 437 145 83 145;#P connect 27 0 35 0;#P connect 35 0 7 0;#P connect 20 0 27 1;#P fasten 42 2 28 0 457 145 124 145;#P connect 28 0 36 0;#P connect 36 0 2 0;#P connect 19 0 28 1;#P fasten 42 3 29 0 477 145 165 145;#P connect 29 0 37 0;#P connect 37 0 6 0;#P connect 18 0 29 1;#P fasten 42 4 30 0 497 145 206 145;#P connect 30 0 38 0;#P connect 38 0 1 0;#P connect 17 0 32 0;#P connect 32 0 33 0;#P connect 16 0 30 1;#P connect 50 0 32 1;#P connect 49 0 32 1;#P connect 39 0 32 1;#P connect 38 0 32 1;#P connect 36 0 32 1;#P connect 34 0 32 1;#P connect 37 0 32 1;#P connect 35 0 32 1;#P fasten 42 5 31 0 517 157 247 157;#P connect 31 0 39 0;#P connect 39 0 5 0;#P connect 15 0 31 1;#P connect 42 6 47 0;#P connect 47 0 49 0;#P connect 49 0 4 0;#P connect 22 0 47 1;#P connect 42 7 48 0;#P connect 48 0 50 0;#P connect 50 0 0 0;#P connect 23 0 48 1;#P connect 24 0 25 0;#P connect 45 0 44 0;#P fasten 46 0 44 0 455 110 417 110;#P connect 44 0 40 0;#P fasten 43 0 40 0 549 297 505 297 505 215 417 215;#P connect 40 0 41 0;#P connect 41 0 42 0;#P connect 14 0 24 0;#P connect 13 0 24 1;#P connect 44 0 41 2;#P connect 12 0 45 0;#P connect 11 0 24 2;#P connect 10 0 24 3;#P connect 9 0 24 4;#P connect 8 0 24 5;#P connect 42 7 43 0;#P pop;#P hidden newobj 370 121 61 196617 p g;#P window setfont "Lucida Grande" 12.;#P number 568 65 35 12 1 8 3 1024 0 0 0 221 221 221 222 222 222 0 0 0;#P objectname kramer_out06[2];#P number 529 65 35 12 1 8 3 1024 0 0 0 221 221 221 222 222 222 0 0 0;#P objectname kramer_out05[2];#P window setfont "Sans Serif" 12.;#P number 299 22 34 12 1 8 3 3 0 0 0 221 221 221 222 222 222 0 0 0;#P user ubumenu 608 66 27 196620 0 0 0 0;#X setrgb 255 255 255 255 0 0 140 140 140 4 4 4 141 141 141 112 112 112;#X add go;#X prefix_set 0 0 0 0;#X pattrmode 1;#P hidden toggle 459 27 15 0;#P window setfont "Sans Serif" 9.;#P hidden comment 415 14 155 196617 Û print to console (max-window);#P window setfont "Lucida Grande" 12.;#P number 492 66 35 12 1 8 3 1024 0 0 0 221 221 221 222 222 222 0 0 0;#P objectname kramer_out06[1];#P number 453 66 35 12 1 8 3 1024 0 0 0 221 221 221 222 222 222 0 0 0;#P objectname kramer_out05[1];#P number 414 66 35 12 1 8 3 1024 0 0 0 221 221 221 222 222 222 0 0 0;#P objectname kramer_out04[1];#P number 375 66 35 12 1 8 3 1024 0 0 0 221 221 221 222 222 222 0 0 0;#P objectname kramer_out03[1];#P number 336 66 35 12 1 8 3 1024 0 0 0 221 221 221 222 222 222 0 0 0;#P objectname kramer_out02[1];#P number 298 66 35 12 1 8 3 1024 0 0 0 221 221 221 222 222 222 0 0 0;#P objectname kramer_out01[1];#P window setfont "Sans Serif" 9.;#P comment 335 25 100 196617 ALL;#P hidden comment 261 48 118 196617 sorties 1 2 3 4 5 6 7 8;#P hidden newex 318 -44 65 196617 r kramer.vga;#P hidden newex -66 -7 117 196617 unpack 0 0 0 0 0 0;#P hidden newex 323 -20 227 196617 unpack 0 0 0 0 0 0 0 0;#N vpatcher 239 267 641 420;#P origin 5 -9;#P window setfont "Sans Serif" 9.;#P window linecount 1;#P hidden newex 470 231 27 196617 t b i;#P hidden number 488 207 35 9 0 0 0 3 0 0 0 221 221 221 222 222 222 0 0 0;#P hidden newex 371 276 27 196617 t b i;#P hidden number 389 252 35 9 0 300 3 3 0 0 0 221 221 221 222 222 222 0 0 0;#P window setfont "Sans Serif" 18.;#P hidden comment 107 187 70 196626 S V;#P hidden comment 284 201 70 196626 VGA;#P window setfont "Sans Serif" 9.;#P hidden newex 218 293 20 196617 t b;#P hidden newex 190 366 27 196617 gate;#P hidden newex 218 192 38 196617 unpack;#P hidden inlet 218 166 15 0;#P hidden newex 263 300 78 196617 pack 1 0 0 145;#P hidden number 306 250 35 9 1 8 3 3 0 0 0 221 221 221 222 222 222 0 0 0;#P hidden newex 306 271 35 196617 + 128;#P hidden comment 304 223 70 196617 output number;#P hidden number 218 250 35 9 1 8 3 3 0 0 0 221 221 221 222 222 222 0 0 0;#P hidden newex 218 271 35 196617 + 128;#P hidden comment 216 223 64 196617 input number;#P window linecount 0;#P hidden message 253 262 31 196617 print;#P message 55 67 31 196617 print;#P hidden newex 41 290 20 196617 t b;#P toggle 1 36 15 0;#P hidden newex 21 376 30 196617 print;#P hidden newex 21 330 27 196617 gate;#P hidden newex 41 189 38 196617 unpack;#P hidden newex 106 346 32 196617 defer;#P hidden inlet 41 163 15 0;#P hidden newex 65 291 78 196617 pack 1 0 0 136;#P hidden number 129 247 35 9 1 6 3 3 0 0 0 221 221 221 222 222 222 0 0 0;#P hidden newex 129 268 35 196617 + 128;#P hidden comment 127 220 70 196617 output number;#P hidden number 41 247 35 9 1 8 3 3 0 0 0 221 221 221 222 222 222 0 0 0;#P hidden newex 41 268 35 196617 + 128;#P hidden newex 65 424 98 196617 serial b 9600 8 1 0;#P hidden comment 39 220 64 196617 input number;#P comment 20 37 88 196617 Û print to console (max-window);#P hidden newex 211 469 92 196617 bgcolor 0 255 128;#P message 222 37 14 196617 f;#P message 199 37 14 196617 e;#P message 176 37 14 196617 d;#P hidden button 325 80 15 0;#P hidden newex 325 101 48 196617 delay 10;#P message 154 37 14 196617 c;#P hidden newex 257 102 65 196617 prepend port;#P message 154 103 50 196617 port b;#B color 12;#P hidden newex 257 125 14 196617 _;#P message 132 37 14 196617 b;#P message 110 37 14 196617 a;#P window setfont "Sans Serif" 18.;#P comment 154 0 209 196626 choose keyspan-port;#P user panel 109 1 275 26;#X brgb 255 255 0;#X frgb 0 0 0;#X border 1;#X rounded 0;#X shadow 0;#X done;#P window setfont "Sans Serif" 9.;#P comment 279 36 100 196617 it depend on your machine: a=modem \, b=irDa \, c=usb1 \, d=usb2 \, etc...;#P comment 110 56 164 196617 Default Camera_control Keyspan port: b;#P comment 153 87 100 196617 port choosen:;#P hidden connect 31 0 29 0;#P hidden connect 29 0 30 0;#P hidden connect 44 0 30 0;#P hidden connect 25 0 29 1;#P hidden connect 26 0 28 0;#P hidden connect 28 0 21 0;#P hidden connect 21 0 20 0;#P hidden connect 20 0 32 0;#P hidden connect 51 0 25 0;#P hidden connect 32 0 25 0;#P hidden connect 41 0 19 0;#P hidden connect 8 0 19 0;#P hidden connect 33 0 19 0;#P hidden connect 27 0 19 0;#P hidden connect 34 0 19 0;#P hidden connect 20 0 25 1;#P hidden connect 25 0 27 0;#P hidden connect 41 0 27 0;#P hidden connect 23 0 25 2;#P hidden connect 28 1 24 0;#P hidden connect 24 0 23 0;#P hidden connect 51 1 25 3;#P hidden fasten 11 0 8 0 330 150 159 150;#P hidden fasten 7 0 8 0 262 150 159 150;#P hidden connect 31 0 44 0;#P hidden connect 41 0 44 1;#P hidden connect 42 0 43 0;#P hidden connect 43 0 37 0;#P hidden connect 37 0 36 0;#P hidden connect 36 0 45 0;#P hidden fasten 10 0 9 0 159 95 262 95;#P hidden fasten 5 0 9 0 115 95 262 95;#P hidden fasten 6 0 9 0 137 95 262 95;#P hidden fasten 15 0 9 0 227 95 262 95;#P hidden fasten 14 0 9 0 204 95 262 95;#P hidden fasten 13 0 9 0 181 95 262 95;#P hidden connect 9 0 7 0;#P hidden connect 49 0 41 0;#P hidden connect 45 0 41 0;#P hidden connect 36 0 41 1;#P hidden connect 43 1 40 0;#P hidden connect 40 0 39 0;#P hidden connect 39 0 41 2;#P hidden fasten 10 0 12 0 159 95 330 95;#P hidden fasten 6 0 12 0 137 95 330 95;#P hidden fasten 5 0 12 0 115 95 330 95;#P hidden connect 12 0 11 0;#P hidden connect 49 1 41 3;#P hidden connect 48 0 49 0;#P hidden connect 50 0 51 0;#P pop;#P hidden newobj 3 444 74 196617 p serial_comm;#N vpatcher 14 59 466 205;#P window setfont "Sans Serif" 9.;#P comment 103 98 320 196617 kramer.preset = send a preset number;#P comment 103 80 320 196617 kramer.list = send a configuration list directly;#P comment 103 63 320 196617 kramer.apply = send the messages (go);#P comment 103 46 320 196617 kramer.interval = set sending interval between each message block;#P comment 103 29 225 196617 kramer.recal = recall menu item index;#P comment 10 29 87 196617 remote adresses:;#P pop;#P hidden newobj 180 -106 95 196617 p remote addresses;#B color 5;#P window setfont "Sans Serif" 12.;#P number 10 21 34 12 1 0 1 3 0 0 0 221 221 221 222 222 222 0 0 0;#P window setfont "Sans Serif" 9.;#N thispatcher;#Q end;#P hidden newobj 411 -68 60 196617 thispatcher;#N comlet editor;#P hidden inlet 436 -119 15 0;#P hidden newex -66 -32 74 196617 r /kramer/sv;#P hidden newex 184 -9 88 196617 r kramer.interval;#P window setfont "Sans Serif" 12.;#P user ubumenu 249 65 27 196620 0 0 0 0;#X setrgb 255 255 255 255 0 0 140 140 140 4 4 4 141 141 141 112 112 112;#X add go;#X prefix_set 0 0 0 0;#X pattrmode 1;#P window setfont "Sans Serif" 9.;#P hidden number 174 11 35 9 25 0 1 3 0 0 0 221 221 221 222 222 222 0 0 0;#P hidden toggle 170 26 15 0;#P hidden comment 126 13 155 196617 Û print to console (max-window);#P hidden inlet 331 -46 15 0;#P hidden newex 549 425 106 196617 bgcolor 240 240 240;#P window setfont "Lucida Grande" 12.;#P number 203 65 35 12 1 8 3 1024 0 0 0 221 221 221 222 222 222 0 0 0;#P objectname kramer_out06;#P number 164 65 35 12 1 8 3 1024 0 0 0 221 221 221 222 222 222 0 0 0;#P objectname kramer_out05;#P number 125 65 35 12 1 8 3 1024 0 0 0 221 221 221 222 222 222 0 0 0;#P objectname kramer_out04;#P number 86 65 35 12 1 8 3 1024 0 0 0 221 221 221 222 222 222 0 0 0;#P objectname kramer_out03;#P number 47 65 35 12 1 8 3 1024 0 0 0 221 221 221 222 222 222 0 0 0;#P objectname kramer_out02;#P number 9 65 35 12 1 8 3 1024 0 0 0 221 221 221 222 222 222 0 0 0;#P objectname kramer_out01;#P window setfont "Sans Serif" 9.;#P window linecount 2;#P hidden comment 133 -20 157 196617 interval d'envoie des trames (ms);#P window linecount 1;#P message 232 0 115 196617 open communication unit;#P hidden newex -151 172 35 196617 t open;#P comment 46 24 100 196617 ALL;#P hidden comment -28 47 118 196617 sorties 1 2 3 4 5 6;#P hidden newex 110 401 45 196617 pcontrol;#P user panel 290 15 357 75;#X brgb 191 191 191;#X frgb 0 0 0;#X border 1;#X rounded 0;#X shadow 0;#X done;#P window setfont "Sans Serif" 20.;#P comment 194 25 91 196628 S-VIDEO;#P user panel 0 16 289 75;#X brgb 191 191 191;#X frgb 0 0 0;#X border 1;#X rounded 0;#X shadow 0;#X done;#P hidden connect 7 0 6 0;#P hidden connect 29 0 50 0;#P hidden connect 22 0 29 0;#P hidden connect 3 0 27 0;#P hidden connect 46 1 27 0;#P hidden connect 46 3 27 0;#P hidden connect 46 5 27 0;#P hidden connect 46 0 27 0;#P hidden connect 46 2 27 0;#P hidden connect 46 4 27 0;#P hidden connect 25 0 9 0;#P hidden connect 50 1 9 0;#P hidden connect 19 0 46 12;#P hidden connect 20 0 46 7;#P hidden connect 18 0 46 4;#P hidden connect 9 0 46 8;#P hidden connect 9 0 46 0;#P hidden connect 10 0 46 9;#P hidden connect 10 0 46 1;#P hidden connect 11 0 46 10;#P hidden connect 11 0 46 2;#P hidden connect 12 0 46 11;#P hidden connect 12 0 46 3;#P hidden connect 13 0 46 13;#P hidden connect 13 0 46 5;#P hidden connect 14 0 46 14;#P hidden connect 14 0 46 6;#P hidden connect 25 0 10 0;#P hidden connect 29 1 10 0;#P hidden connect 45 7 27 1;#P hidden connect 45 4 27 1;#P hidden connect 45 2 27 1;#P hidden connect 45 0 27 1;#P hidden connect 45 6 27 1;#P hidden connect 45 5 27 1;#P hidden connect 45 3 27 1;#P hidden connect 45 1 27 1;#P hidden connect 25 0 11 0;#P hidden connect 29 2 11 0;#P hidden connect 6 0 3 0;#P hidden connect 25 0 12 0;#P hidden connect 29 3 12 0;#P hidden connect 25 0 13 0;#P hidden connect 29 4 13 0;#P hidden connect 21 0 19 0;#P hidden connect 29 5 14 0;#P hidden connect 25 0 14 0;#P hidden connect 50 0 20 0;#P hidden connect 42 0 33 0;#P hidden connect 28 0 33 0;#P hidden connect 30 0 28 0;#P hidden connect 42 0 34 0;#P hidden connect 28 1 34 0;#P hidden connect 33 0 45 0;#P hidden connect 34 0 45 1;#P hidden connect 42 0 35 0;#P hidden connect 28 2 35 0;#P hidden connect 35 0 45 2;#P hidden connect 36 0 45 3;#P hidden connect 40 0 45 4;#P hidden connect 37 0 45 5;#P hidden connect 38 0 45 6;#P hidden connect 43 0 45 7;#P hidden connect 44 0 45 8;#P hidden connect 33 0 45 9;#P hidden connect 34 0 45 10;#P hidden connect 41 0 45 11;#P hidden connect 35 0 45 12;#P hidden connect 36 0 45 13;#P hidden connect 23 0 24 0;#P hidden connect 37 0 45 14;#P hidden connect 42 0 36 0;#P hidden connect 28 3 36 0;#P hidden connect 38 0 45 15;#P hidden connect 42 0 37 0;#P hidden connect 28 4 37 0;#P hidden connect 42 0 38 0;#P hidden connect 28 5 38 0;#P hidden connect 28 0 51 0;#P hidden connect 28 6 43 0;#P hidden connect 42 0 43 0;#P hidden connect 28 7 44 0;#P hidden connect 42 0 44 0;#P hidden connect 48 0 49 0;#P hidden connect 51 0 41 0;#P pop;