max v2;#N vpatcher 376 261 657 389;#P hidden inlet 1156 87 15 0;#P window setfont "Sans Serif" 9.;#P window linecount 1;#P hidden newex 1054 106 237 196617 tm_editorbuilder /tllslo-cal /movie 1 1 4;#B color 6;#P button 1068 71 15 0;#P comment 1086 71 39 196617 delete;#P button 1054 52 15 0;#P comment 1071 52 31 196617 build;#N thispatcher;#Q end;#P hidden newobj 1054 126 61 196617 thispatcher;#P window linecount 0;#P comment 2376 0 100 196617;#P hidden connect 3 0 6 0;#P hidden connect 6 0 1 0;#P hidden connect 5 0 6 1;#P hidden connect 1 0 6 2;#P pop;