max v2;#N vpatcher 330 68 1379 372;#P window setfont "Sans Serif" 9.;#P newex 772 190 85 196617 pvar blurbypass;#B color 14;#P newex 772 168 121 196617 variedit $1/blur/sw $1;#B color 12;#P toggle 242 33 13 0;#P objectname blurbypass;#P comment 214 35 35 196617 /blur;#B frgb 22 22 222;#P newex 280 243 98 196617 pvar erosionbypass;#B color 14;#P newex 280 221 120 196617 variedit $1/erosion/sw;#B color 12;#P newex 280 190 90 196617 pvar dilatebypass;#B color 14;#P newex 280 168 129 196617 variedit $1/dilatation/sw;#B color 12;#P toggle 173 48 13 0;#P objectname rotabypass;#P comment 145 49 45 196617 /rota;#B frgb 22 22 222;#P user led 149 18 17 17 0 150;#P objectname capture;#P toggle 131 34 13 0;#P objectname dilatebypass;#P comment 88 35 36 196617 /dilate;#B frgb 22 22 222;#P toggle 131 48 13 0;#P objectname erosionbypass;#P comment 88 49 45 196617 /erosion;#B frgb 22 22 222;#P newex 761 243 77 196617 pvar blurwidth;#B color 14;#P newex 761 221 224 196617 variedit $1/blur/width $1;#B color 12;#P newex 520 243 83 196617 pvar rotabypass;#B color 14;#P newex 520 221 122 196617 variedit $1/rota/sw $1;#B color 12;#P newex 520 190 85 196617 pvar cropbypass;#B color 14;#P newex 520 168 123 196617 variedit $1/crop/sw $1;#B color 12;#P toggle 173 34 13 0;#P objectname cropbypass;#P comment 143 35 36 196617 /crop;#B frgb 22 22 222;#P flonum 220 46 35 9 0. 100. 35 3 0 0 0 255 255 255 255 255 255 0 0 0;#P objectname blurwidth;#P comment 183 48 41 196617 /width;#B frgb 0 0 222;#P toggle 75 20 13 0;#P objectname deinterlacebypass;#P toggle 131 20 13 0;#P objectname bypass;#P comment 90 20 45 196617 /thresh;#B frgb 22 22 222;#P window setfont "Sans Serif" 12.;#N vpatcher 333 44 711 444;#P origin -45 -42;#P window setfont "Sans Serif" 9.;#P window linecount 0;#P newex 486 453 140 196617 variedit $1/rota/sw $1;#P newex 486 423 84 196617 pvar rotabypass;#P toggle 14 308 15 0;#P objectname rotabypass;#P window setfont "Sans Serif" 18.;#P comment 1213 309 57 196626 ROTA;#P comment 29 302 55 196626 /rota;#B frgb 255 255 255;#P window setfont "Sans Serif" 9.;#P comment 218 311 39 196617 /zoom;#B frgb 0 0 222;#P comment 258 331 20 196617 /y;#B frgb 0 0 222;#P hidden comment 179 331 20 196617 /y;#B frgb 0 0 222;#P comment 94 330 20 196617 /y;#B frgb 0 0 222;#P hidden flonum 165 343 33 9 -1024. 1024. 35 3 0 0 0 221 221 221 222 222 222 0 0 0;#P objectname anchory;#P hidden flonum 126 343 33 9 -1024. 1024. 35 3 0 0 0 221 221 221 222 222 222 0 0 0;#P objectname anchorx;#P hidden comment 121 331 58 196617 /anchor/x;#B frgb 0 0 222;#P flonum 81 342 33 9 -1024. 1024. 35 3 0 0 0 221 221 221 222 222 222 0 0 0;#P objectname offsety;#P flonum 43 343 33 9 -1024. 1024. 35 3 0 0 0 221 221 221 222 222 222 0 0 0;#P objectname offsetx;#P flonum 250 310 33 9 -10. 10. 35 3 0 0 0 221 221 221 222 222 222 0 0 0;#P objectname zoom;#P flonum 247 343 33 9 -10. 10. 35 3 0 0 0 221 221 221 222 222 222 0 0 0;#P objectname zoomy;#P window setfont Times 9.;#P window linecount 2;#P comment 153 305 49 1310729 /bound mode;#B frgb 0 0 222;#P window setfont "Sans Serif" 9.;#P flonum 211 343 33 9 -10. 10. 35 3 0 0 0 221 221 221 222 222 222 0 0 0;#P objectname zoomx;#P flonum 115 310 33 9 -6.28 6.28 35 3 0 0 0 221 221 221 222 222 222 0 0 0;#P objectname rota;#P window linecount 1;#P comment 206 331 51 196617 /zoom/x;#B frgb 0 0 222;#P comment 80 311 39 196617 /theta;#B frgb 0 0 222;#P number 186 309 35 9 0 5 35 3 0 0 0 221 221 221 222 222 222 0 0 0;#P objectname boundmode;#P comment 38 330 55 196617 /offset/x;#B frgb 0 0 222;#P message 942 495 33 196617 set 1;#P newex 1154 422 57 196617 pvar zoom;#P newex 942 471 52 196617 r $1/init;#P newex 1086 960 151 196617 variedit $1/rota/anchor/y $1;#B color 12;#P newex 1086 938 70 196617 pvar anchory;#P newex 1085 908 151 196617 variedit $1/rota/anchor/x $1;#B color 12;#P newex 1085 886 70 196617 pvar anchorx;#P newex 1088 600 148 196617 variedit $1/rota/offset/y $1;#B color 12;#P newex 1088 578 67 196617 pvar offsety;#P newex 1087 548 148 196617 variedit $1/rota/offset/x $1;#B color 12;#P newex 1087 526 67 196617 pvar offsetx;#P newex 1088 496 144 196617 variedit $1/rota/zoom/y $1;#B color 12;#P newex 1088 474 63 196617 pvar zoomy;#P newex 1087 444 144 196617 variedit $1/rota/zoom/x $1;#B color 12;#P newex 1087 422 63 196617 pvar zoomx;#P newex 1089 395 157 196617 variedit $1/rota/boundmode $1;#B color 12;#P newex 1089 346 132 196617 variedit $1/rota/theta $1;#B color 12;#P newex 1089 373 82 196617 pvar boundmode;#P newex 1089 324 53 196617 pvar rota;#P window linecount 0;#P newex 807 167 69 196617 route symbol;#P newex 959 232 78 196617 sprintf %s/out;#P newex 959 253 62 196617 prepend set;#P newex 773 232 31 196617 t set;#P newex 807 192 67 196617 route <none>;#P newex 807 143 323 196617 r $1/source;#B color 12;#P newex 876 302 44 196617 receive;#B color 12;#P toggle 14 285 15 0;#P objectname bypass;#P newex 392 534 141 196617 variedit $1/crop/sw $1;#P newex 392 504 65 196617 pvar bypass;#P newex 725 432 141 196617 variedit $1/edge/bottom $1;#P newex 725 562 132 196617 variedit $1/edge/right $1;#P newex 725 497 124 196617 variedit $1/edge/top $1;#P newex 724 375 126 196617 variedit $1/edge/left $1;#P newex 725 477 68 196617 pvar edgetop;#P newex 725 544 76 196617 pvar edgeright;#P newex 725 414 85 196617 pvar edgebottom;#P newex 724 354 70 196617 pvar edgeleft;#P hidden newex 278 320 70 196617 bgcolor 0 0 0;#P window setfont "Sans Serif" 12.;#P comment 14 264 44 196620 /edge;#P comment 14 245 44 196620 /crop;#P window setfont "Sans Serif" 9.;#P flonum 276 265 33 9 0. 1. 3 3 0 0 0 221 221 221 222 222 222 0 0 0;#P objectname edgeright;#P comment 233 267 47 196617 /bottom;#B color 1;#P comment 114 267 30 196617 /top;#B color 1;#P comment 172 267 38 196617 /right;#B color 1;#P flonum 204 265 33 9 0. 1. 3 3 0 0 0 221 221 221 222 222 222 0 0 0;#P objectname edgetop;#P flonum 140 265 33 9 0. 1. 3 3 0 0 0 221 221 221 222 222 222 0 0 0;#P objectname edgebottom;#P flonum 81 265 33 9 0. 1. 3 3 0 0 0 221 221 221 222 222 222 0 0 0;#P objectname edgeleft;#P comment 54 267 58 196617 /left;#B color 1;#P newex 358 70 27 196617 t b l;#P newex 388 134 27 196617 t b l;#P newex 403 196 27 196617 t b l;#P newex 478 263 27 196617 t b l;#P hidden newex 128 121 48 196617 loadbang;#P window linecount 1;#P hidden message 87 197 170 196617 window flags nogrow \, window exec;#P hidden message 108 174 163 196617 window flags grow \, window exec;#P window linecount 0;#P hidden newex 103 497 93 196617 fixedsize 330 400;#P window linecount 1;#P hidden newex 103 476 152 196617 editorwindow $1/more /movie;#P window linecount 0;#N thispatcher;#Q end;#P hidden newobj 103 519 61 196617 thispatcher;#P window setfont "Sans Serif" 12.;#P window linecount 1;#N vpatcher 26 351 447 703;#P window setfont "Sans Serif" 9.;#P window linecount 1;#P newex 259 187 112 196617 scale 0 240 1. 0.;#P newex 86 186 92 196617 scale 0 320 0. 1.;#P newex 193 279 77 196617 s $1/crop/top;#P newex 86 259 85 196617 s $1/crop/right;#P newex 193 243 50 196617 t f 2;#P newex 193 223 76 196617 gate 2;#P newex 46 234 32 196617 t f 2;#P newex 46 214 50 196617 gate 2;#P newex 244 120 50 196617 t 1;#P newex 244 98 50 196617 sel 1;#P window linecount 0;#P newex 244 78 50 196617 change;#P window linecount 1;#P newex 259 259 94 196617 s $1/crop/bottom;#P newex 46 279 79 196617 s $1/crop/left;#P window linecount 0;#P newex 79 50 231 196617 unpack mouse 0 0 0 0;#P inlet 79 30 15 0;#P connect 6 0 7 0;#P connect 8 1 7 0;#P connect 7 0 8 0;#P connect 8 0 2 0;#P connect 0 0 1 0;#P connect 1 1 13 0;#P connect 13 0 7 1;#P connect 7 1 11 0;#P connect 6 0 9 0;#P connect 10 1 9 0;#P connect 9 0 10 0;#P connect 10 0 12 0;#P connect 1 3 4 0;#P connect 4 0 5 0;#P connect 5 0 6 0;#P connect 1 2 14 0;#P connect 14 0 9 1;#P connect 9 1 3 0;#P pop;#P newobj 421 400 58 196620 p souris;#B color 6;#P user jsui 293 279 38 19 1 0 0 m_toggle.js active visible;#P objectname visible;#P window setfont "Sans Serif" 9.;#P newex 406 282 27 196617 + 1;#P newex 406 304 47 196617 gate 2 1;#P newex 406 262 64 196617 pvar visible;#P newex 430 347 126 196617 m_colormode $1/crop;#B color 14;#P newex 609 143 50 196617 t b;#P newex 609 122 50 196617 pvar full;#P message 308 247 23 196617 full;#P objectname full;#P flonum 275 247 33 9 0. 1. 3 3 0 0 0 221 221 221 222 222 222 0 0 0;#P objectname ys2;#P newex 364 305 38 196617 active;#P newex 363 325 53 196617 gate;#P window linecount 9;#P message 609 165 164 196617 \; $1/crop/left 0 \; $1/crop/top 1 \; $1/crop/bottom 0 \; $1/crop/right 1 \; $1/edge/left 0 \; $1/edge/top 0 \; $1/edge/bottom 0 \; $1/edge/right 0 \;;#P window linecount 1;#P comment 232 249 47 196617 /bottom;#B color 1;#P comment 113 249 30 196617 /top;#B color 1;#P comment 171 249 38 196617 /right;#B color 1;#P flonum 203 247 33 9 0. 1. 3 3 0 0 0 221 221 221 222 222 222 0 0 0;#P objectname xs2;#P flonum 139 247 33 9 0. 1. 3 3 0 0 0 221 221 221 222 222 222 0 0 0;#P objectname ys1;#P flonum 80 247 33 9 0. 1. 3 3 0 0 0 221 221 221 222 222 222 0 0 0;#P objectname xs1;#P comment 53 249 58 196617 /left;#B color 1;#P newex 388 111 141 196617 variedit $1/crop/bottom $1;#P newex 478 241 132 196617 variedit $1/crop/right $1;#P newex 403 176 124 196617 variedit $1/crop/top $1;#P newex 357 51 126 196617 variedit $1/crop/left $1;#P newex 403 156 50 196617 pvar ys1;#P newex 478 223 50 196617 pvar xs2;#P newex 388 88 50 196617 pvar ys2;#P newex 357 33 50 196617 pvar xs1;#P newex 363 378 68 196617 pvar ekran 2;#P user jit.pwindow 12 3 322 242 0 1 0 0 1 0;#P objectname ekran;#P window setfont "Sans Serif" 12.;#N vpatcher 310 431 865 756;#P origin 0 -46;#P window setfont "Sans Serif" 9.;#P newex 106 186 82 196617 t b l;#P inlet 106 81 15 0;#P newex 16 122 48 196617 loadbang;#P message 15 144 61 196617 pensize 2 2;#P message 22 163 68 196617 frgb 255 0 0;#P newex 378 105 63 196617 !- 1.;#P newex 242 106 63 196617 !- 1.;#P newex 106 161 282 196617 pak framerect 0 0 0 0;#P newex 378 129 63 196617 * 240.;#P newex 242 130 63 196617 * 240.;#P newex 310 131 63 196617 * 320.;#P newex 174 131 63 196617 * 320.;#P newex 378 82 94 196617 r $1/crop/bottom;#B color 12;#P newex 242 42 77 196617 r $1/crop/top;#B color 12;#P newex 310 62 85 196617 r $1/crop/right;#B color 12;#P newex 174 22 79 196617 r $1/crop/left;#B color 12;#P newex 106 121 27 196617 t b l;#P newex 106 213 111 196617 jit.lcd 4 char 320 240;#P newex 106 100 50 196617 jit.matrix;#P outlet 106 240 15 0;#P connect 17 0 16 0;#P connect 17 0 15 0;#P connect 18 0 1 0;#P connect 1 0 3 0;#P connect 3 0 12 0;#P connect 12 0 19 0;#P fasten 16 0 2 0 20 210 111 210;#P fasten 15 0 2 0 27 207 111 207;#P connect 19 0 2 0;#P connect 19 1 2 0;#P connect 3 1 2 0;#P connect 2 0 0 0;#P connect 4 0 8 0;#P connect 8 0 12 1;#P connect 6 0 13 0;#P connect 13 0 10 0;#P connect 10 0 12 2;#P connect 5 0 9 0;#P connect 9 0 12 3;#P connect 7 0 14 0;#P connect 14 0 11 0;#P connect 11 0 12 4;#P pop;#P newobj 363 347 62 196620 p display;#B color 6;#P window setfont "Sans Serif" 18.;#P comment 29 279 82 196626 /crop;#B frgb 255 255 255;#P connect 37 0 36 0;#P hidden fasten 32 0 33 0 108 538 95 538 95 468 108 468;#P hidden connect 33 0 34 0;#P hidden connect 34 0 32 0;#P hidden connect 35 0 32 0;#P hidden connect 36 0 32 0;#P hidden connect 98 0 95 0;#P hidden connect 98 0 97 0;#P connect 41 1 4 0;#P connect 4 0 8 0;#P connect 8 0 41 0;#P connect 21 0 20 0;#P connect 41 0 1 0;#P connect 40 0 1 0;#P connect 39 0 1 0;#P connect 38 0 1 0;#P connect 20 0 1 0;#P fasten 28 1 1 0 448 344 368 344;#P connect 1 0 3 0;#P fasten 26 0 3 0 435 373 368 373;#P connect 40 1 5 0;#P connect 5 0 11 0;#P connect 11 0 40 0;#P connect 62 0 61 0;#P connect 61 0 62 0;#P connect 39 1 7 0;#P connect 7 0 9 0;#P connect 9 0 39 0;#P connect 27 0 29 0;#P connect 29 0 28 0;#P connect 28 0 20 1;#P connect 3 1 31 0;#P connect 64 0 28 1;#P connect 38 1 6 0;#P connect 6 0 10 0;#P connect 10 0 38 0;#P connect 112 0 111 0;#P connect 111 0 112 0;#P connect 24 0 25 0;#P connect 25 0 19 0;#P connect 57 0 53 0;#P connect 53 0 57 0;#P connect 60 0 54 0;#P connect 54 0 60 0;#P connect 58 0 56 0;#P connect 56 0 58 0;#P connect 59 0 55 0;#P connect 55 0 59 0;#P connect 66 0 67 0;#P connect 65 0 70 0;#P connect 70 0 66 0;#P connect 70 1 66 0;#P fasten 68 0 64 0 964 297 881 297;#P fasten 67 0 64 0 778 294 881 294;#P connect 87 0 89 0;#P fasten 66 1 69 0 869 227 964 227;#P connect 69 0 68 0;#P fasten 84 0 83 0 1090 926 1090 930 1081 930 1081 883 1090 883;#P connect 83 0 84 0;#P fasten 86 0 85 0 1091 978 1091 982 1082 982 1082 935 1091 935;#P connect 85 0 86 0;#P fasten 76 0 75 0 1092 462 1092 466 1083 466 1083 419 1092 419;#P connect 75 0 76 0;#P fasten 80 0 79 0 1092 566 1092 570 1083 570 1083 523 1092 523;#P connect 79 0 80 0;#P fasten 78 0 77 0 1093 514 1093 518 1084 518 1084 471 1093 471;#P connect 77 0 78 0;#P fasten 82 0 81 0 1093 618 1093 622 1084 622 1084 575 1093 575;#P connect 81 0 82 0;#P fasten 73 0 71 0 1094 364 1094 368 1085 368 1085 321 1094 321;#P connect 71 0 73 0;#P fasten 74 0 72 0 1094 411 1094 416 1083 416 1083 372 1094 372;#P fasten 72 0 74 0 1094 392 1094 392;#P connect 89 0 88 0;#P pop;#P newobj 398 29 48 196620 p crop;#B color 6;#P window setfont "Sans Serif" 9.;#P newex 21 136 170 196617 pvar deinterlacebypass;#B color 14;#P newex 21 114 137 196617 variedit $1/deinterlace/sw;#B color 12;#P comment 14 20 66 196617 /deinterlace;#B frgb 22 22 222;#P objectname capturelabel[3];#P newex 280 136 170 196617 pvar bypass;#B color 14;#P newex 280 114 116 196617 variedit $1/thresh/sw;#B color 12;#P message 300 17 33 196617 clear;#P window setfont "Sans Serif" 12.;#P newex 286 61 133 196620 m_inputmenugpu $1;#B color 6;#P window setfont "Sans Serif" 9.;#P newex 286 38 77 196617 pvar texture 2;#P window setfont Times 10.;#P user ubumenu 54 1 68 1310730 0 0 1 0;#X prefix_set 0 0 <none> 0;#P objectname texture;#P toggle 75 48 13 0;#P objectname bilateralbypass;#P window setfont "Sans Serif" 9.;#P comment 15 48 54 196617 /bilateral;#B frgb 22 22 222;#P objectname capturelabel[2];#P toggle 75 34 13 0;#P objectname medianbypass;#P comment 15 34 47 196617 /median;#B frgb 22 22 222;#P objectname capturelabel[1];#P flonum 220 18 35 9 0. 1. 35 3 0 0 0 255 255 255 255 255 255 0 0 0;#P objectname threshnumbox;#P comment 169 20 58 196617 /threshold;#B frgb 0 0 222;#P newex 21 190 96 196617 pvar medianbypass;#B color 14;#P newex 21 168 134 196617 variedit $1/median/sw $1;#B color 12;#P newex 761 136 97 196617 pvar threshnumbox;#B color 14;#P newex 21 243 107 196617 pvar bilateralbypass;#B color 14;#P newex 21 221 141 196617 variedit $1/bilateral/sw $1;#B color 12;#P newex 761 114 252 196617 variedit $1/thresh/threshold $1;#B color 12;#P newex 520 136 68 196617 pvar capture;#B color 14;#P newex 520 114 118 196617 variedit $1/capture $1;#B color 12;#P bpatcher 0 0 256 62 0 0 bkgnd-nosw.mxt 0 $1 1;#P objectname background;#P fasten 23 0 22 0 26 157 16 157 16 112 26 112;#P connect 22 0 23 0;#P fasten 8 0 7 0 26 211 16 211 16 166 26 166;#P connect 7 0 8 0;#P fasten 5 0 4 0 26 264 16 264 16 219 26 219;#P connect 4 0 5 0;#P fasten 20 0 19 0 285 158 275 158 275 113 285 113;#P connect 19 0 20 0;#P fasten 46 0 45 0 285 214 275 214 275 169 285 169;#P connect 45 0 46 0;#P fasten 48 0 47 0 285 270 275 270 275 217 285 217;#P connect 47 0 48 0;#P fasten 17 0 16 0 291 88 282 88 282 34 291 34;#P connect 18 0 16 0;#P fasten 16 1 17 0 358 58 291 58;#P fasten 2 0 1 0 525 156 515 156 515 111 525 111;#P connect 1 0 2 0;#P fasten 33 0 32 0 525 211 515 211 515 166 525 166;#P connect 32 0 33 0;#P fasten 35 0 34 0 525 266 515 266 515 217 525 217;#P connect 34 0 35 0;#P fasten 6 0 3 0 766 160 753 160 753 110 766 110;#P connect 3 0 6 0;#P fasten 37 0 36 0 766 266 756 266 756 217 766 217;#P connect 36 0 37 0;#P fasten 52 0 51 0 777 211 767 211 767 166 777 166;#P connect 51 0 52 0;#P pop;