max v2;#N vpatcher 101 242 666 788;#P window setfont "Sans Serif" 9.;#P window linecount 1;#P newex 140 47 195 196617 r $1/mtrxctl/warp/sw;#B color 12;#P newex 41 19 195 196617 r $1/mtrxctl/warp/x;#B color 12;#P newex 302 156 195 196617 r $1/mtrxctl/warp/y;#B color 12;#P newex 302 181 81 196617 scale 0. 1. 0 20;#P newex 270 353 29 196617 t b f;#P newex 41 322 29 196617 t b f;#P newex 41 430 36 196617 zl reg;#P newex 41 166 81 196617 scale 0. 1. 0 20;#P flonum 41 147 35 9 0 0 0 3 0 0 0 221 221 221 222 222 222 0 0 0;#P newex 168 233 60 196617 unpack i i s;#P newex 270 321 126 196617 + 0.;#P newex 41 297 210 196617 + 0.;#P newex 241 233 155 196617 unpack f f;#P newex 168 209 83 196617 zl slice 3;#P newex 127 184 51 196617 zl slice 1;#P newex 41 452 261 196617 sprintf set%s %ld %ld val %f %f;#P newex 127 125 195 196617 r $1/mtrxctl/xy_;#B color 12;#P newex 305 452 70 196617 pak getcell i i;#P newex 302 203 40 196617 change;#P newex 41 189 40 196617 change;#P newex 270 250 27 196617 -;#P newex 41 244 27 196617 -;#B color 12;#P number 364 413 35 9 0 0 0 3 0 0 0 221 221 221 222 222 222 0 0 0;#P newex 364 392 93 196617 gate;#P newex 58 219 29 196617 gate;#B color 12;#P toggle 140 98 15 0;#P newex 140 78 31 196617 == 0;#B color 12;#P outlet 41 480 15 0;#P window linecount 3;#P comment 134 145 100 196617 retour d'info de la matrice - valeurs actuelles.;#B frgb 0 0 222;#P connect 27 0 20 0;#P connect 20 0 21 0;#P connect 21 0 9 0;#P connect 9 0 7 0;#P connect 7 0 17 0;#P connect 17 0 23 0;#P connect 24 0 22 0;#P connect 23 0 22 0;#P connect 14 0 22 0;#P connect 22 0 13 0;#P fasten 11 0 1 0 310 474 46 474;#P connect 13 0 1 0;#P connect 3 0 4 0;#P lcolor 8;#P connect 4 0 7 1;#P connect 9 0 4 1;#P connect 19 0 13 1;#P connect 12 0 14 0;#P connect 28 0 2 0;#P connect 2 0 3 0;#P connect 19 1 13 2;#P connect 14 1 15 0;#P connect 15 0 19 0;#P connect 23 1 13 3;#P connect 15 1 16 0;#P connect 16 0 17 1;#P connect 10 0 8 0;#P connect 8 0 18 0;#P connect 18 0 24 0;#P connect 6 0 8 1;#P connect 24 1 13 4;#P connect 26 0 25 0;#P connect 25 0 10 0;#P connect 4 0 11 1;#P connect 3 0 5 0;#P lcolor 8;#P connect 5 0 6 0;#P connect 6 0 11 2;#P connect 16 1 18 1;#P connect 10 0 5 1;#P pop;