max v2;#N vpatcher 10 59 1434 699;#P origin -17 0;#P user ezdac~ 1029 424 1073 457 0;#P window setfont "Sans Serif" 9.;#P newex 1029 387 60 196617 loadmess 1;#N sfplay~  1 120960 0 ;#P newobj 1187 320 44 196617 sfplay~;#P newex 1187 295 68 196617 prepend open;#P newex 1167 242 73 196617 sprintf %s.aif;#P message 1139 295 39 196617 seek 0;#P newex 1167 266 30 196617 t b s;#P newex 649 295 68 196617 prepend read;#P newex 177 245 75 196617 sprintf %s.txt;#P newex 629 242 80 196617 sprintf %s.mov;#P newex 685 369 64 196617 s $1/movie;#P outlet 649 369 15 0;#P outlet 165 478 15 0;#P window linecount 8;#P message 1064 56 118 196617 \; $1/sw/init bang \; $1/print/sw/init bang \; $1/preview/init bang \; $1/play/init bang \; $1/loop/init bang \; $1/time/init bang \; $1/file/init bang \;;#P window linecount 1;#P newex 1064 34 52 196617 r $1/init;#P newex 443 453 57 196617 s $1/time;#P newex 421 420 32 196617 t 1 0;#P newex 421 397 29 196617 gate;#P newex 325 453 56 196617 s $1/play;#P newex 325 368 31 196617 t b 0;#P newex 217 383 80 196617 s $1/indexmax;#P number 217 365 35 9 0 0 0 3 0 0 0 221 221 221 222 222 222 0 0 0;#P newex 217 337 113 196617 route /indexmax /loop;#P newex 197 425 91 196617 s $1/currenttime;#P number 197 403 35 9 0 0 0 3 0 0 0 221 221 221 222 222 222 0 0 0;#P newex 177 453 56 196617 s $1/data;#P newex 64 453 73 196617 print $1/data;#P newex 64 421 29 196617 gate;#P newex 1 361 156 196617 makeparam $1/print/sw $1 t 0;#P newex 1075 295 57 196617 qmetro 40;#P newex 1075 264 48 196617 loadbang;#P newex 974 295 66 196617 prepend loop;#P newex 868 264 31 196617 / 40;#P newex 868 295 75 196617 prepend frame;#P message 601 295 39 196617 time 0;#P message 804 295 29 196617 stop;#P message 766 295 33 196617 start;#P newex 766 264 48 196617 sel 1;#P newex 629 266 30 196617 t b s;#P newex 649 333 205 196617 jit.qt.movie 320 240 @autostart 0 @loop 0;#P message 95 231 35 196617 pause;#P message 57 231 33 196617 start;#P newex 57 202 48 196617 sel 1;#P toggle 526 183 15 0;#P newex 350 275 68 196617 prepend time;#P number 350 185 35 9 0 0 0 3 0 0 0 221 221 221 222 222 222 0 0 0;#P newex 526 159 152 196617 makeparam $1/preview $1 t 0;#P newex 350 159 134 196617 makeparam $1/time $1 i 0;#P newex 177 313 71 196617 mxj Replayer;#P newex 177 274 68 196617 prepend read;#P newex 177 183 62 196617 route bogus;#P newex 177 159 150 196617 makeparam $1/file $1 s bogus;#P toggle 502 60 15 0;#P toggle 235 58 15 0;#P newex 502 36 133 196617 makeparam $1/loop $1 t 0;#P newex 235 34 134 196617 makeparam $1/play $1 t 0;#P newex 33 34 139 196617 makeswitch $1/sw $1 $2 1;#P fasten 3 0 14 0 240 137 62 137;#P connect 14 0 15 0;#P fasten 28 0 29 0 6 399 69 399;#P connect 29 0 30 0;#P fasten 8 0 29 1 182 399 88 399;#P connect 14 1 16 0;#P fasten 8 0 44 0 182 404 170 404;#P connect 5 0 6 0;#P fasten 6 1 48 0 234 222 182 222;#P connect 48 0 7 0;#P fasten 12 0 8 0 355 302 182 302;#P connect 7 0 8 0;#P fasten 15 0 8 0 62 302 182 302;#P fasten 16 0 8 0 100 302 182 302;#P connect 8 0 31 0;#P connect 8 1 32 0;#P connect 32 0 33 0;#P connect 8 2 34 0;#P connect 34 0 35 0;#P connect 35 0 36 0;#P connect 1 0 3 0;#P fasten 34 1 37 0 273 361 330 361;#P fasten 40 0 38 0 426 444 330 444;#P fasten 37 1 38 0 351 416 330 416;#P connect 9 0 11 0;#P connect 11 0 12 0;#P fasten 4 0 39 0 507 360 426 360;#P connect 39 0 40 0;#P fasten 37 0 39 1 330 391 445 391;#P connect 40 1 41 0;#P connect 2 0 4 0;#P fasten 18 0 22 0 634 289 606 289;#P fasten 6 1 47 0 234 222 634 222;#P connect 47 0 18 0;#P connect 18 1 49 0;#P fasten 25 0 17 0 979 320 654 320;#P fasten 23 0 17 0 873 320 654 320;#P fasten 27 0 17 0 1080 320 654 320;#P fasten 22 0 17 0 606 320 654 320;#P fasten 21 0 17 0 809 320 654 320;#P fasten 20 0 17 0 771 320 654 320;#P connect 49 0 17 0;#P connect 17 0 45 0;#P fasten 17 0 46 0 654 361 690 361;#P fasten 3 0 19 0 240 137 771 137;#P connect 19 0 20 0;#P connect 19 1 21 0;#P fasten 11 0 24 0 355 213 873 213;#P connect 24 0 23 0;#P fasten 4 0 25 0 507 114 979 114;#P connect 54 0 56 0;#P connect 55 0 56 0;#P connect 54 1 56 1;#P connect 26 0 27 0;#P fasten 50 0 51 0 1172 289 1144 289;#P fasten 6 1 52 0 234 222 1172 222;#P connect 52 0 50 0;#P connect 50 1 53 0;#P connect 3 0 54 0;#P connect 51 0 54 0;#P connect 53 0 54 0;#P pop;