max v2;#N vpatcher 350 207 1158 677;#P origin 0 -153;#P window setfont "Sans Serif" 9.;#N thispatcher;#Q end;#P hidden newobj 1 160 61 196617 thispatcher;#P window linecount 2;#P comment 117 521 107 196617 patch by Tom Mays contact@tommays.net;#P window linecount 1;#P newex 125 197 70 196617 pvar activity;#P newex 125 176 145 196617 r $1/activity;#B color 5;#P message 763 526 37 196617 select;#P number 763 545 35 9 0 0 0 3 0 0 0 221 221 221 222 222 222 0 0 0;#P newex 711 506 62 196617 pvar port 2;#P message 711 487 37 196617 select;#P message 634 489 37 196617 select;#P message 557 489 37 196617 select;#P message 480 489 37 196617 select;#P newex 423 103 130 196617 r $1/host;#B color 11;#P newex 376 556 130 196617 s $1/host;#B color 11;#P newex 654 466 67 196617 pvar hostd 2;#P newex 577 466 67 196617 pvar hostc 2;#P newex 500 466 67 196617 pvar hostb 2;#P newex 654 427 62 196617 prepend set;#P newex 577 427 62 196617 prepend set;#P newex 500 427 62 196617 prepend set;#P newex 423 427 62 196617 prepend set;#P newex 423 466 67 196617 pvar hosta 2;#P number 107 27 30 9 0 255 67 3 0 0 0 221 221 221 222 222 222 0 0 0;#P objectname hostc;#P number 71 27 30 9 0 255 67 3 0 0 0 221 221 221 222 222 222 0 0 0;#P objectname hostb;#P number 143 27 30 9 0 255 67 3 0 0 0 221 221 221 222 222 222 0 0 0;#P objectname hostd;#P number 35 27 30 9 0 255 67 3 0 0 0 221 221 221 222 222 222 0 0 0;#P objectname hosta;#P newex 376 534 241 196617 sprintf %ld.%ld.%ld.%ld;#P newex 376 513 241 196617 bondo 4 1;#P newex 577 362 51 196617 zl ecils 1;#P newex 500 362 51 196617 zl ecils 1;#P newex 654 406 64 196617 fromsymbol;#P newex 654 385 40 196617 itoa;#P number 654 319 35 9 0 0 0 3 0 0 0 221 221 221 222 222 222 0 0 0;#P newex 654 298 27 196617 !-;#P number 532 318 35 9 0 0 0 3 0 0 0 221 221 221 222 222 222 0 0 0;#P newex 532 297 27 196617 !-;#P newex 423 362 51 196617 zl ecils 1;#P newex 577 406 64 196617 fromsymbol;#P newex 577 385 40 196617 itoa;#P number 671 268 35 9 0 0 0 3 0 0 0 221 221 221 222 222 222 0 0 0;#P newex 577 340 87 196617 zl slice;#P newex 500 406 64 196617 fromsymbol;#P newex 500 385 40 196617 itoa;#P number 549 268 35 9 0 0 0 3 0 0 0 221 221 221 222 222 222 0 0 0;#P newex 500 339 42 196617 zl slice;#P newex 423 406 64 196617 fromsymbol;#P newex 423 385 40 196617 itoa;#P newex 423 166 67 196617 t l l;#P newex 423 124 124 196617 t s b;#P number 455 268 35 9 0 0 0 3 0 0 0 221 221 221 222 222 222 0 0 0;#P newex 480 239 86 196617 unpack 0 0 0;#P message 537 193 70 196617 mode group 3;#P newex 423 338 42 196617 zl slice;#P newex 480 218 55 196617 zl group 3;#P newex 480 188 51 196617 zl sub 46;#P newex 423 145 40 196617 atoi;#P window setfont Times 9.;#P comment 187 44 40 1310729 activity;#P button 223 43 15 0;#P objectname activity;#P comment 13 29 25 1310729 host;#P window setfont "Sans Serif" 9.;#P number 35 45 57 9 0 99999 67 3 0 0 0 221 221 221 222 222 222 0 0 0;#P objectname port;#P window setfont Times 9.;#P comment 13 46 24 1310729 port;#P window setfont "Sans Serif" 9.;#P newex 30 332 284 196617 variedit $1/port $1;#B color 5;#P newex 30 313 53 196617 pvar port;#P window setfont Times 18.;#P comment 63 26 12 1310738 .;#P comment 135 26 12 1310738 .;#P comment 99 26 12 1310738 .;#N vpatcher 219 44 363 653;#P origin -7 -51;#P bpatcher 4 509 123 83 0 0 t_sensor_calibrate.edit.mxt 0 $1/sensor7 0 1024;#P objectname sensor1[6];#P window setfont "Sans Serif" 9.;#P hidden newex 26 701 70 196617 bgcolor 0 0 0;#P hidden newex 26 632 225 196617 r $1/more/editor;#B color 11;#N thispatcher;#Q end;#P hidden newobj 26 668 70 196617 thispatcher;#P bpatcher 4 423 123 83 0 0 t_sensor_calibrate.edit.mxt 0 $1/sensor6 0 1024;#P objectname sensor1[4];#P bpatcher 3 169 123 83 0 0 t_sensor_calibrate.edit.mxt 0 $1/sensor3 0 1024;#P objectname sensor1[5];#P bpatcher 4 338 123 83 0 0 t_sensor_calibrate.edit.mxt 0 $1/sensor5 0 1024;#P objectname sensor1[2];#P bpatcher 3 85 123 83 0 0 t_sensor_calibrate.edit.mxt 0 $1/sensor2 0 1024;#P objectname sensor1[3];#P bpatcher 4 253 123 83 0 0 t_sensor_calibrate.edit.mxt 0 $1/sensor4 0 1024;#P objectname sensor1[1];#P bpatcher 3 0 123 83 0 0 t_sensor_calibrate.edit.mxt 0 $1/sensor1 0 1024;#P objectname sensor1;#N thispatcher;#Q end;#P hidden newobj 3 5 61 196617 thispatcher;#P connect 8 0 7 0;#P pop;#P newobj 114 266 61 1310738 p more;#B color 6;#P window setfont "Sans Serif" 9.;#P newex 493 71 162 196617 r $1/typeinterface;#B color 12;#P hidden newex 510 30 63 196617 pvar update;#B color 13;#P hidden newex 510 11 104 196617 vari $1/update;#B color 5;#P hidden newex 404 31 63 196617 pvar type 2;#B color 13;#P hidden newex 404 9 95 196617 vari $1/type;#B color 5;#P hidden comment 285 47 100 196617 arg 2 = midi channel;#P hidden comment 285 33 100 196617 arg 1 = nom;#P bpatcher 0 1 257 64 0 0 bkgnd.mxt 0 $1 1 3;#P objectname background;#P hidden connect 0 0 73 0;#P fasten 13 0 12 0 35 351 27 351 27 311 35 311;#P connect 12 0 13 0;#P connect 70 0 71 0;#P connect 54 0 47 0;#P connect 53 0 47 0;#P connect 47 0 48 0;#P connect 48 0 61 0;#P hidden fasten 4 1 3 0 462 52 399 52 399 4 409 4;#P hidden connect 3 0 4 0;#P connect 62 0 26 0;#P connect 26 0 19 0;#P connect 19 0 27 0;#P connect 27 0 22 0;#P connect 22 0 38 0;#P connect 38 0 28 0;#P connect 28 0 29 0;#P connect 29 0 54 0;#P connect 54 0 53 0;#P connect 55 0 47 1;#P connect 58 0 47 1;#P connect 47 1 48 1;#P connect 24 0 25 0;#P connect 25 0 22 1;#P connect 27 1 20 0;#P connect 20 0 21 0;#P connect 23 0 21 0;#P connect 21 0 24 0;#P connect 53 1 63 0;#P connect 22 1 30 0;#P connect 30 0 45 0;#P connect 45 0 32 0;#P connect 32 0 33 0;#P connect 33 0 55 0;#P connect 55 0 58 0;#P connect 63 0 58 0;#P hidden fasten 6 0 5 0 515 50 507 50 507 8 515 8;#P hidden connect 5 0 6 0;#P connect 56 0 47 2;#P connect 59 0 47 2;#P connect 47 2 48 2;#P connect 25 0 39 0;#P connect 39 0 40 0;#P connect 40 0 30 1;#P connect 26 1 23 0;#P connect 24 1 31 0;#P connect 31 0 39 1;#P connect 58 1 64 0;#P connect 30 1 34 0;#P connect 34 0 46 0;#P connect 46 0 36 0;#P connect 36 0 37 0;#P connect 37 0 56 0;#P connect 56 0 59 0;#P connect 64 0 59 0;#P connect 57 0 47 3;#P connect 60 0 47 3;#P connect 47 3 48 3;#P connect 59 1 65 0;#P connect 31 0 41 0;#P connect 41 0 42 0;#P connect 42 0 34 1;#P connect 34 1 43 0;#P connect 43 0 44 0;#P connect 44 0 57 0;#P connect 57 0 60 0;#P connect 65 0 60 0;#P connect 24 2 35 0;#P connect 35 0 41 1;#P connect 60 1 66 0;#P connect 66 0 67 0;#P connect 67 1 69 0;#P connect 69 0 68 0;#P pop;