max v2;#N vpatcher 244 61 871 773;#P origin 23 -404;#P window setfont "Sans Serif" 9.;#P window linecount 52;#P message 401 58 161 196617 \; $1/sensor/1/init bang \; $1/sensor/2/init bang \; $1/sensor/3/init bang \; $1/sensor/4/init bang \; $1/sensor/5/init bang \; $1/sensor/6/init bang \; $1/sensor/7/init bang \; $1/sensor/8/init bang \; $1/sensor/1/sw 0 \; $1/sensor/1/scale manualscale \; $1/sensor/1/min 0 \; $1/sensor/1/max 1024 \; $1/sensor/1/visu/sw 1 \; $1/sensor/2/sw 0 \; $1/sensor/2/scale manualscale \; $1/sensor/2/min 0 \; $1/sensor/2/max 1024 \; $1/sensor/2/visu/sw 1 \; $1/sensor/3/sw 0 \; $1/sensor/3/scale manualscale \; $1/sensor/3/min 0 \; $1/sensor/3/max 1024 \; $1/sensor/3/visu/sw 1 \; $1/sensor/4/sw 0 \; $1/sensor/4/scale manualscale \; $1/sensor/4/min 0 \; $1/sensor/4/max 1024 \; $1/sensor/4/visu/sw 1 \; $1/sensor/5/sw 0 \; $1/sensor/5/scale manualscale \; $1/sensor/5/min 0 \; $1/sensor/5/max 1024 \; $1/sensor/5/visu/sw 1 \; $1/sensor/6/sw 0 \; $1/sensor/6/scale manualscale \; $1/sensor/6/min 0 \; $1/sensor/6/max 1024 \; $1/sensor/6/visu/sw 1 \; $1/sensor/7/sw 0 \; $1/sensor/7/scale manualscale \; $1/sensor/7/min 0 \; $1/sensor/7/max 1024 \; $1/sensor/7/visu/sw 1 \; $1/sensor/8/sw 0 \; $1/sensor/8/scale manualscale \; $1/sensor/8/min 0 \; $1/sensor/8/max 1024 \; $1/sensor/8/visu/sw 1 \; $1/toclient/init bang \; $1/toclient/init bang \; $1/toclient/port 44016;#P window linecount 1;#P newex 401 30 96 196617 r $1/toothers/init;#P newex 16 197 292 196617 s_analyz $1/sensor/8 $1 /common;#P newex 16 176 292 196617 s_analyz $1/sensor/7 $1 /common;#P newex 16 224 292 196617 udpsender $1/toclient /common;#P newex 16 35 292 196617 kroonde $1 common;#P newex 16 156 292 196617 s_analyz $1/sensor/6 $1 /common;#P newex 16 136 292 196617 s_analyz $1/sensor/5 $1 /common;#P newex 16 116 292 196617 s_analyz $1/sensor/4 $1 /common;#P newex 16 95 292 196617 s_analyz $1/sensor/3 $1 /common;#P newex 16 75 292 196617 s_analyz $1/sensor/2 $1 /common;#P newex 16 55 292 196617 s_analyz $1/sensor/1 $1 /common;#P connect 9 0 7 0;#P connect 8 0 7 0;#P connect 5 0 7 0;#P connect 4 0 7 0;#P connect 3 0 7 0;#P connect 2 0 7 0;#P connect 1 0 7 0;#P connect 0 0 7 0;#P connect 10 0 11 0;#P pop;