max v2;#N vpatcher 117 82 1144 823;#P origin -64 444;#P window setfont "Sans Serif" 9.;#P window linecount 1;#P hidden newex 1619 552 99 196617 s $1/8/sendto/init;#B color 11;#P hidden newex 1619 531 163 196617 route bang;#P hidden newex 1619 509 56 196617 route text;#P hidden newex 1619 486 94 196617 pvar $1/8/sendto;#B color 13;#P hidden newex 1619 463 92 196617 vari $1/8/sendto;#B color 5;#P hidden newex 1618 422 59 196617 pvar $1/8;#P hidden newex 1618 393 57 196617 vari $1/8;#P hidden newex 1426 552 99 196617 s $1/7/sendto/init;#B color 11;#P hidden newex 1426 531 163 196617 route bang;#P hidden newex 1426 509 56 196617 route text;#P hidden newex 1426 486 94 196617 pvar $1/7/sendto;#B color 13;#P hidden newex 1426 463 92 196617 vari $1/7/sendto;#B color 5;#P hidden newex 1425 422 59 196617 pvar $1/7;#P hidden newex 1425 393 57 196617 vari $1/7;#P window setfont Times 9.;#P user textedit 171 147 243 162 32896 20 9;#P objectname $1/8/sendto;#P window setfont "Sans Serif" 9.;#P number 134 147 35 9 0 0 160 3 0 0 0 221 221 221 222 222 222 0 0 0;#P objectname $1/8;#P comment 134 133 52 196617 $1/8;#P window setfont Times 9.;#P user textedit 55 147 127 162 32896 20 9;#P objectname $1/7/sendto;#P window setfont "Sans Serif" 9.;#P number 18 147 35 9 0 0 160 3 0 0 0 221 221 221 222 222 222 0 0 0;#P objectname $1/7;#P comment 18 133 52 196617 $1/7;#P hidden newex 1247 551 99 196617 s $1/6/sendto/init;#B color 11;#P hidden newex 1247 530 163 196617 route bang;#P hidden newex 1247 508 56 196617 route text;#P hidden newex 1247 485 94 196617 pvar $1/6/sendto;#B color 13;#P hidden newex 1247 462 92 196617 vari $1/6/sendto;#B color 5;#P hidden newex 1246 421 59 196617 pvar $1/6;#P hidden newex 1246 392 57 196617 vari $1/6;#P hidden newex 1054 551 99 196617 s $1/5/sendto/init;#B color 11;#P hidden newex 1054 530 163 196617 route bang;#P hidden newex 1054 508 56 196617 route text;#P hidden newex 1054 485 94 196617 pvar $1/5/sendto;#B color 13;#P hidden newex 1054 462 92 196617 vari $1/5/sendto;#B color 5;#P hidden newex 1053 421 59 196617 pvar $1/5;#P hidden newex 1053 392 57 196617 vari $1/5;#P hidden newex 861 551 99 196617 s $1/4/sendto/init;#B color 11;#P hidden newex 861 530 163 196617 route bang;#P hidden newex 861 508 56 196617 route text;#P hidden newex 861 485 94 196617 pvar $1/4/sendto;#B color 13;#P hidden newex 861 462 92 196617 vari $1/4/sendto;#B color 5;#P hidden newex 860 421 59 196617 pvar $1/4;#P hidden newex 860 392 57 196617 vari $1/4;#P hidden newex 668 551 99 196617 s $1/3/sendto/init;#B color 11;#P hidden newex 668 530 163 196617 route bang;#P hidden newex 668 508 56 196617 route text;#P hidden newex 668 485 94 196617 pvar $1/3/sendto;#B color 13;#P hidden newex 668 462 92 196617 vari $1/3/sendto;#B color 5;#P hidden newex 667 421 59 196617 pvar $1/3;#P hidden newex 667 392 57 196617 vari $1/3;#P hidden newex 475 551 99 196617 s $1/2/sendto/init;#B color 11;#P hidden newex 475 530 163 196617 route bang;#P hidden newex 475 508 56 196617 route text;#P hidden newex 475 485 94 196617 pvar $1/2/sendto;#B color 13;#P hidden newex 475 462 92 196617 vari $1/2/sendto;#B color 5;#P hidden newex 474 421 59 196617 pvar $1/2;#P hidden newex 474 392 57 196617 vari $1/2;#P window setfont Times 9.;#P user textedit 171 114 243 129 32896 20 9;#P objectname $1/6/sendto;#P window setfont "Sans Serif" 9.;#P number 134 114 35 9 0 0 160 3 0 0 0 221 221 221 222 222 222 0 0 0;#P objectname $1/6;#P comment 134 100 52 196617 $1/6;#P window setfont Times 9.;#P user textedit 55 114 127 129 32896 20 9;#P objectname $1/5/sendto;#P window setfont "Sans Serif" 9.;#P number 18 114 35 9 0 0 160 3 0 0 0 221 221 221 222 222 222 0 0 0;#P objectname $1/5;#P comment 18 100 52 196617 $1/5;#P window setfont Times 9.;#P user textedit 171 80 243 95 32896 20 9;#P objectname $1/4/sendto;#P window setfont "Sans Serif" 9.;#P number 134 80 35 9 0 0 160 3 0 0 0 221 221 221 222 222 222 0 0 0;#P objectname $1/4;#P comment 134 66 52 196617 $1/4;#P window setfont Times 9.;#P user textedit 55 80 127 95 32896 20 9;#P objectname $1/3/sendto;#P window setfont "Sans Serif" 9.;#P number 18 80 35 9 0 0 160 3 0 0 0 221 221 221 222 222 222 0 0 0;#P objectname $1/3;#P comment 18 66 52 196617 $1/3;#P window setfont Times 9.;#P user textedit 171 47 243 62 32896 20 9;#P objectname $1/2/sendto;#P window setfont "Sans Serif" 9.;#P number 134 47 35 9 0 0 160 3 0 0 0 221 221 221 222 222 222 0 0 0;#P objectname $1/2;#P comment 134 33 52 196617 $1/2;#P window setfont Times 9.;#P user textedit 55 47 127 62 32896 20 9;#P objectname $1/1/sendto;#P window setfont "Sans Serif" 9.;#P hidden newex 282 551 99 196617 s $1/1/sendto/init;#B color 11;#P hidden newex 282 530 163 196617 route bang;#P hidden newex 282 508 56 196617 route text;#P hidden newex 282 485 94 196617 pvar $1/1/sendto;#B color 13;#P hidden newex 282 462 149 196617 vari $1/1/sendto;#B color 5;#P hidden newex 275 0 98 196617 r $1/typeinterface;#B color 12;#P window linecount 2;#P hidden comment 286 245 107 196617 patch by Tom Mays contact@tommays.net;#P window linecount 4;#P hidden comment 276 40 141 196617 arg 1 : module name \; arg 2: color scheme choice (0=movie \, 1=tape \, 2=camtrk \, 3=conduite);#P window linecount 1;#P hidden comment 276 23 100 196617 panel = 256 X 62;#N thispatcher;#Q end;#P hidden newobj 0 709 61 196617 thispatcher;#P hidden comment 276 6 118 196617 <- name = "background";#P hidden newex 281 421 106 196617 pvar $1/1;#P hidden newex 281 392 57 196617 vari $1/1;#P number 18 47 35 9 0 0 160 3 0 0 0 221 221 221 222 222 222 0 0 0;#P objectname $1/1;#P comment 18 33 52 196617 $1/1;#P bpatcher 0 1 256 186 0 0 bkgnd3.mxt 0 $1 0 1;#P objectname background;#P hidden connect 0 0 6 0;#P hidden fasten 4 0 3 0 286 446 269 446 269 384 286 384;#P hidden connect 3 0 4 0;#P hidden fasten 14 1 11 0 440 577 270 577 270 457 287 457;#P hidden connect 11 0 12 0;#P hidden connect 12 0 13 0;#P hidden connect 13 0 14 0;#P hidden connect 14 0 15 0;#P hidden fasten 33 0 32 0 479 446 462 446 462 384 479 384;#P hidden connect 32 0 33 0;#P hidden fasten 37 1 34 0 633 577 463 577 463 457 480 457;#P hidden connect 34 0 35 0;#P hidden connect 35 0 36 0;#P hidden connect 36 0 37 0;#P hidden connect 37 0 38 0;#P hidden fasten 40 0 39 0 672 446 655 446 655 384 672 384;#P hidden connect 39 0 40 0;#P hidden fasten 44 1 41 0 826 577 656 577 656 457 673 457;#P hidden connect 41 0 42 0;#P hidden connect 42 0 43 0;#P hidden connect 43 0 44 0;#P hidden connect 44 0 45 0;#P hidden fasten 47 0 46 0 865 446 848 446 848 384 865 384;#P hidden connect 46 0 47 0;#P hidden fasten 51 1 48 0 1019 577 849 577 849 457 866 457;#P hidden connect 48 0 49 0;#P hidden connect 49 0 50 0;#P hidden connect 50 0 51 0;#P hidden connect 51 0 52 0;#P hidden fasten 54 0 53 0 1058 446 1041 446 1041 384 1058 384;#P hidden connect 53 0 54 0;#P hidden fasten 58 1 55 0 1212 577 1042 577 1042 457 1059 457;#P hidden connect 55 0 56 0;#P hidden connect 56 0 57 0;#P hidden connect 57 0 58 0;#P hidden connect 58 0 59 0;#P hidden fasten 61 0 60 0 1251 446 1234 446 1234 384 1251 384;#P hidden connect 60 0 61 0;#P hidden fasten 65 1 62 0 1405 577 1235 577 1235 457 1252 457;#P hidden connect 62 0 63 0;#P hidden connect 63 0 64 0;#P hidden connect 64 0 65 0;#P hidden connect 65 0 66 0;#P hidden fasten 74 0 73 0 1430 447 1413 447 1413 385 1430 385;#P hidden connect 73 0 74 0;#P hidden fasten 78 1 75 0 1584 578 1414 578 1414 458 1431 458;#P hidden connect 75 0 76 0;#P hidden connect 76 0 77 0;#P hidden connect 77 0 78 0;#P hidden connect 78 0 79 0;#P hidden fasten 81 0 80 0 1623 447 1606 447 1606 385 1623 385;#P hidden connect 80 0 81 0;#P hidden fasten 85 1 82 0 1777 578 1607 578 1607 458 1624 458;#P hidden connect 82 0 83 0;#P hidden connect 83 0 84 0;#P hidden connect 84 0 85 0;#P hidden connect 85 0 86 0;#P pop;