max v2;#N vpatcher 21 70 1451 803;#P origin -176 31;#P window setfont "Sans Serif" 9.;#P window linecount 1;#P newex 847 100 151 196617 moduleinit $1;#B color 13;#P newex 391 215 90 196617 OpenSoundControl;#P toggle 368 236 15 0;#P newex 368 259 34 196617 gate;#P newex 391 191 116 196617 udpreceive 5678 cnmat;#P newex 368 281 121 196617 unpack 0 0 0 0 0 0 0 0 0;#P newex 1857 565 43 196617 s $1/8;#P newex 1616 565 43 196617 s $1/7;#P newex 1882 531 68 196617 prepend send;#P newex 1833 628 47 196617 forward;#B color 12;#P newex 1882 496 171 196617 makeparam $1/8/sendto $1 s none;#P newex 1833 496 29 196617 gate;#P newex 1643 531 68 196617 prepend send;#P newex 1594 628 47 196617 forward;#B color 12;#P newex 1643 496 171 196617 makeparam $1/7/sendto $1 s none;#P newex 1594 496 29 196617 gate;#P newex 1361 565 43 196617 s $1/6;#P newex 1120 564 43 196617 s $1/5;#P newex 879 563 43 196617 s $1/4;#P newex 638 562 43 196617 s $1/3;#P newex 397 561 43 196617 s $1/2;#P newex 156 560 43 196617 s $1/1;#P newex 1386 531 68 196617 prepend send;#P newex 1337 628 47 196617 forward;#B color 12;#P newex 1386 496 171 196617 makeparam $1/6/sendto $1 s none;#P newex 1337 494 29 196617 gate;#P newex 1147 529 68 196617 prepend send;#P newex 1098 626 47 196617 forward;#B color 12;#P newex 1147 494 171 196617 makeparam $1/5/sendto $1 s none;#P newex 1098 492 29 196617 gate;#P newex 908 527 68 196617 prepend send;#P newex 859 624 47 196617 forward;#B color 12;#P newex 908 492 171 196617 makeparam $1/4/sendto $1 s none;#P newex 859 490 29 196617 gate;#P newex 669 525 68 196617 prepend send;#P newex 620 622 47 196617 forward;#B color 12;#P newex 669 490 171 196617 makeparam $1/3/sendto $1 s none;#P newex 620 488 29 196617 gate;#P newex 430 523 68 196617 prepend send;#P newex 381 620 47 196617 forward;#B color 12;#P newex 430 488 171 196617 makeparam $1/2/sendto $1 s none;#P newex 381 486 29 196617 gate;#P newex 191 521 68 196617 prepend send;#P newex 142 618 47 196617 forward;#B color 12;#P newex 191 486 171 196617 makeparam $1/1/sendto $1 s none;#P newex 142 484 29 196617 gate;#P comment 185 63 122 196617 arg3 = midi channel;#P comment 186 40 122 196617 arg2 = switchstate name;#P window setfont Times 9.;#P newex 1032 111 85 1310729 s $1/init;#B color 11;#P newex 1032 88 212 1310729 r $2/init;#B color 11;#P window setfont "Sans Serif" 9.;#P window linecount 12;#P message 847 124 118 196617 \; $1/sw/init bang \; $1/type/init bang \; $1/1/sendto/init bang \; $1/2/sendto/init bang \; $1/3/sendto/init bang \; $1/4/sendto/init bang \; $1/5/sendto/init bang \; $1/6/sendto/init bang \; $1/7/sendto/init bang \; $1/8/sendto/init bang \; $1/update bang \;;#P window linecount 1;#P newex 1 306 198 196617 makeswitch $1/sw $1 $2_switchstate 0;#B color 13;#P comment 185 21 100 196617 arg1 = module name;#P connect 1 0 7 0;#P connect 10 0 9 0;#P connect 7 0 9 0;#P connect 7 0 31 0;#P connect 47 1 7 1;#P connect 8 0 10 0;#P connect 1 0 50 0;#P connect 50 0 49 0;#P connect 49 0 47 0;#P connect 1 0 11 0;#P connect 11 0 13 0;#P connect 14 0 13 0;#P connect 48 0 51 0;#P fasten 51 1 49 1 436 245 397 245;#P connect 11 0 32 0;#P connect 47 2 11 1;#P connect 12 0 14 0;#P connect 1 0 15 0;#P connect 18 0 17 0;#P connect 15 0 17 0;#P connect 15 0 33 0;#P connect 47 3 15 1;#P connect 16 0 18 0;#P connect 52 0 2 0;#P connect 1 0 19 0;#P connect 19 0 21 0;#P connect 22 0 21 0;#P connect 47 4 19 1;#P connect 19 0 34 0;#P connect 20 0 22 0;#P connect 3 0 4 0;#P connect 1 0 23 0;#P connect 23 0 25 0;#P connect 26 0 25 0;#P connect 47 5 23 1;#P connect 23 0 35 0;#P connect 24 0 26 0;#P connect 1 0 27 0;#P connect 27 0 29 0;#P connect 30 0 29 0;#P connect 47 6 27 1;#P connect 27 0 36 0;#P connect 28 0 30 0;#P connect 1 0 37 0;#P connect 37 0 39 0;#P connect 40 0 39 0;#P connect 47 7 37 1;#P connect 37 0 45 0;#P connect 38 0 40 0;#P connect 1 0 41 0;#P connect 41 0 43 0;#P connect 44 0 43 0;#P connect 47 8 41 1;#P connect 41 0 46 0;#P connect 42 0 44 0;#P pop;