max v2;#N vpatcher 60 58 1332 357;#P origin 12 425;#P button 70 291 15 0;#P window setfont "Sans Serif" 9.;#P window linecount 1;#P comment 88 291 39 196617 delete;#P button 4 291 15 0;#P comment 21 291 31 196617 build;#P hidden newex 165 309 158 196617 editorwindow /dl /tapemovie tm;#B color 6;#N thispatcher;#Q end;#P hidden newobj 165 338 61 196617 thispatcher;#P hidden newex 4 309 129 196617 tm_edit-builder5col dl 2 1;#B color 6;#P window linecount 0;#P comment 1182 257 100 196617;#P comment 1 -8 100 196617;#P hidden connect 6 0 2 0;#P hidden connect 8 0 2 1;#P hidden fasten 3 0 4 0 170 359 359 359 359 304 170 304;#P hidden connect 4 0 3 0;#P hidden fasten 2 0 3 0 9 334 170 334;#P pop;