max v2;#N vpatcher 796 110 2259 1096;#P origin 74 -148;#P window setfont "Sans Serif" 9.;#P window linecount 1;#P newex 336 186 96 196617 variedit $1/ctl $1;#B color 11;#P newex 288 187 46 196617 pvar ctl;#B color 14;#P window setfont Times 9.;#P comment 201 24 21 1310729 /ctl;#P flonum 222 24 32 9 0 0 8228 20 0 0 0 221 221 221 222 222 222 0 0 0;#P objectname ctl;#P window setfont "Sans Serif" 9.;#P newex 962 180 77 196617 colorchooser 3;#B color 5;#P newex 962 201 84 196617 pvar background;#P window setfont Times 9.;#P newex 530 65 18 1310729 t b;#P window setfont "Sans Serif" 9.;#P comment 585 37 176 196617 init and module param register write;#P comment 1041 215 40 196617 switch;#P comment 1017 59 88 196617 temp-preset;#P user jsui 237 2 19 15 1 0 0 m_toggle.js off on;#P objectname sw;#P newex 816 159 50 196617 deferlow;#P window setfont Times 9.;#P newex 530 45 43 1310729 pvar init;#P message 2 2 19 1310729 init;#B color 12;#P objectname init;#P newex 851 27 48 1310729 pvar open;#P newex 951 27 50 1310729 pvar recall;#P newex 901 27 48 1310729 pvar store;#P message 2 33 13 1310729 R;#B color 7;#P objectname recall;#P message 2 19 13 1310729 S;#B color 2;#P objectname store;#P message 2 47 13 1310729 O;#B color 9;#P objectname open;#P window setfont "Sans Serif" 9.;#P window linecount 2;#P message 530 85 114 196617 \; $1/init bang \;;#P window linecount 1;#P message 816 180 142 196617 script sendtoback background;#P newex 895 136 77 196617 t b i;#N comlet bang for "send to back";#P outlet 816 199 15 0;#P window setfont "Sans Serif" 10.;#P comment 120 2 114 196618 $1;#B frgb 255 255 255;#P user panel 123 2 112 16;#X brgb 116 116 116;#X frgb 0 0 0;#X border 0;#X rounded 8;#X shadow 0;#X done;#P window setfont Times 9.;#N vpatcher 20 74 975 706;#P window setfont Times 9.;#P window linecount 0;#P newex 379 324 54 1310729 projectpath;#B color 6;#P newex 379 378 47 1310729 tosymbol;#P newex 167 378 47 1310729 tosymbol;#P newex 167 324 54 1310729 projectpath;#B color 6;#P newex 379 406 57 1310729 prepend read;#P newex 167 406 61 1310729 prepend write;#P button 17 81 15 0;#P newex 54 127 122 1310729 s $1/storetemp;#B color 11;#P newex 17 127 33 1310729 del 10;#P newex 17 102 47 1310729 t b b;#P button 100 545 15 0;#P newex 100 567 122 1310729 s $1/storetemp;#B color 11;#P newex 100 492 32 1310729 t stop;#P newex 100 521 38 1310729 del 100;#P newex 333 88 501 1310729 t b b clear;#P newex 236 41 122 1310729 r $1/storetemp;#B color 11;#P window setfont "Sans Serif" 9.;#P newex 190 229 50 196617 deferlow;#P newex 371 236 51 196617 zl slice 1;#P newex 371 260 40 196617 itoa;#P newex 371 216 85 196617 substitute 47 45;#P newex 371 196 40 196617 atoi;#P window setfont Times 9.;#P newex 167 352 146 1310729 sprintf %sconfig/temp/%s-temp.txt;#P newex 333 157 48 1310729 t b b;#P newex 379 352 146 1310729 sprintf %sconfig/temp/%s-temp.txt;#P newex 180 149 18 1310729 t b;#P newex 180 41 53 1310729 r storetemp;#B color 11;#P newex 17 152 34 1310729 t open;#N comlet bang to open;#P inlet 17 62 15 0;#N comlet pvar recall;#P inlet 535 109 15 0;#N comlet pvar store;#P inlet 139 151 15 0;#P newex 139 174 67 1310729 t b b b;#P newex 535 128 18 1310729 t b;#P newex 73 459 41 1310729 onebang;#P message 371 178 56 1310729 $1;#P newex 333 67 45 1310729 loadbang;#P button 43 408 15 0;#N qlist;#X append $1/sw 0 \; $1/del 0. \; $1/fb 0. \; $1/vol 1. \;;#P newobj 43 437 40 1310729 qlist;#N vpatcher 1 44 648 684;#P button 433 99 15 0;#P window setfont "Sans Serif" 9.;#P window linecount 0;#P newex 414 326 36 196617 t l $1;#P window linecount 1;#P newex 415 203 51 196617 tosymbol;#P newex 415 243 75 196617 t b s;#P newex 415 266 36 196617 zl reg;#P newex 415 142 74 196617 t dump zlclear;#P newex 415 296 75 196617 sprintf %s %s;#P newex 501 244 69 196617 route symbol;#N coll $1/data 1;#P newobj 415 171 76 196617 coll $1/data 1;#B color 5;#P comment 171 266 109 196617 contact@tommays.net;#P comment 171 253 100 196617 patch by Tom Mays;#P newex 40 187 65 196617 route symbol;#P message 40 233 18 196617 \\\;;#P newex 77 410 75 196617 prepend append;#P newex 40 212 35 196617 t b l;#P newex 78 212 65 196617 route symbol;#P outlet 40 454 15 0;#P newex 40 72 289 196617 b;#P message 319 117 22 196617 set;#P button 40 54 15 0;#N comlet bang to make qlist;#P inlet 40 35 15 0;#P message 40 113 31 196617 dump;#N coll $1/state 1;#P newobj 40 141 125 196617 coll $1/state 1;#B color 5;#P window linecount 2;#P comment 170 136 134 196617 arg 1 : coll name for variable values;#P connect 3 0 4 0;#P connect 4 0 6 0;#P connect 6 0 2 0;#P connect 2 0 1 0;#P connect 1 0 12 0;#P connect 22 0 9 0;#P connect 12 1 9 0;#P connect 12 0 9 0;#P connect 9 0 11 0;#P connect 10 0 7 0;#P fasten 5 0 7 0 324 294 45 294;#P connect 22 1 10 0;#P connect 8 0 10 0;#P connect 9 1 10 0;#P connect 11 0 10 0;#P connect 1 1 8 0;#P connect 6 1 5 0;#P connect 17 0 22 0;#P connect 1 3 18 0;#P connect 23 0 18 0;#P connect 18 0 15 0;#P connect 15 0 21 0;#P connect 21 0 20 0;#P connect 20 0 19 0;#P connect 18 1 19 0;#P connect 19 0 17 0;#P connect 16 0 19 1;#P connect 20 1 17 1;#P connect 15 1 16 0;#P pop;#P newobj 57 333 53 1310729 p tempqlist;#B color 6;#P button 195 200 15 0;#P window setfont "Sans Serif" 9.;#P window linecount 3;#P comment 190 252 116 196617 read again without qlist trigger to remove path from qlist name;#P window linecount 1;#P comment 296 538 120 196617 "open" now stores first!;#P connect 13 0 34 0;#P connect 34 0 31 0;#P connect 31 0 32 0;#P connect 32 0 14 0;#P fasten 8 0 5 0 78 480 37 480 37 404 48 404;#P connect 26 2 4 0;#P connect 3 0 4 0;#P connect 5 0 4 0;#P fasten 14 0 4 0 22 427 48 427;#P lcolor 6;#P fasten 35 0 4 0 172 431 48 431;#P fasten 36 0 4 0 384 431 48 431;#P connect 31 1 33 0;#P connect 2 0 3 0;#P connect 4 2 8 0;#P connect 4 2 28 0;#P fasten 26 1 27 0 583 515 105 515;#P connect 28 0 27 0;#P connect 27 0 30 0;#P connect 30 0 29 0;#P fasten 9 0 8 1 540 456 109 456;#P connect 11 0 10 0;#P fasten 16 0 10 0 185 170 144 170;#P connect 10 1 37 0;#P connect 37 0 19 0;#P connect 19 0 38 0;#P connect 38 0 35 0;#P connect 25 0 16 0;#P connect 15 0 16 0;#P connect 10 0 24 0;#P connect 10 2 2 0;#P connect 22 0 19 1;#P connect 6 0 26 0;#P connect 26 0 18 0;#P connect 24 0 18 0;#P fasten 9 0 18 0 540 150 338 150;#P connect 18 1 7 0;#P connect 7 0 20 0;#P connect 20 0 21 0;#P connect 21 0 23 0;#P fasten 23 1 22 0 417 256 376 256;#P fasten 21 1 22 0 451 256 376 256;#P fasten 18 0 40 0 338 315 384 315;#P connect 40 0 17 0;#P connect 17 0 39 0;#P connect 39 0 36 0;#P connect 22 0 17 1;#P connect 12 0 9 0;#P pop;#P newobj 851 56 72 1310729 p storetemppath;#B color 6;#P window setfont "Sans Serif" 9.;#P newex 841 93 52 196617 pvar sw;#P newex 841 113 64 196617 vari $1/sw;#B color 5;#P user hint 3 47 16 61 "open temp preset text (qlist)" 750 100 0 65535 65535 52428 9 3 0 1 0 0 0;#P user hint 3 33 16 48 "recall temp preset" 750 100 0 65535 65535 52428 9 3 0 1 0 0 0;#P user hint 3 19 16 33 "store temp preset" 750 100 0 65535 65535 52428 9 3 0 1 0 0 0;#P user hint 21 2 40 16 "initialize this module" 750 100 0 65535 65535 52428 9 3 0 1 0 0 0;#P user panel 482 34 305 100;#X brgb 255 255 255;#X frgb 0 0 0;#X border 1;#X rounded 0;#X shadow 0;#X done;#P user panel 807 19 305 62;#X brgb 255 255 255;#X frgb 0 0 0;#X border 1;#X rounded 0;#X shadow 0;#X done;#P user panel 807 82 305 153;#X brgb 255 255 255;#X frgb 0 0 0;#X border 1;#X rounded 0;#X shadow 0;#X done;#P window linecount 7;#P message 743 238 373 196617 /ch/1 \, /ch/2 \, /ch/3 \, /ch/4 \, /ch/5 \, /ch/6 \, /ch/7 \, /ch/8 \, /ch/9 \, /ch/10 \, /ch/11 \, /ch/12 \, /ch/13 \, /ch/14 \, /ch/15 \, /ch/16 \, /ch/17 \, /ch/18 \, /ch/19 \, /ch/20 \, /ch/21 \, /ch/22 \, /ch/23 \, /ch/24 \, /ch/25 \, /ch/26 \, /ch/27 \, /ch/28 \, /ch/29 \, /ch/30 \, /ch/31 \, /ch/32 \, /ch/33 \, /ch/34 \, /ch/35 \, /ch/36 \, /ch/37 \, /ch/38 \, /ch/39 \, /ch/40 \, /ch/41 \, /ch/42 \, /ch/43 \, /ch/44 \, /ch/45 \, /ch/46 \, /ch/47 \, /ch/48 \, /ch/49 \, /ch/50 \, /ch/51 \, /ch/52 \, /ch/53 \, /ch/54 \, /ch/55 \, /ch/56 \, /ch/57 \, /ch/58 \, /ch/59 \, /ch/60 \,;#P window linecount 3;#P comment 23 707 231 196617 ideally \, one should be able to map a midi keyboard to different samples \, synthesis \, triggers \, whatnot...;#P window linecount 2;#P comment 23 680 231 196617 what about pitch/val as input? (stripnote? \, list in mode?);#P window linecount 1;#P comment 23 665 231 196617 prefix to prepend messages in front of the value \;;#P comment 23 650 202 196617 mode "trig" to send bang or other message;#P button 54 425 15 0;#P button 20 425 15 0;#P newex 41 516 38 196617 gate 2;#P newex 54 446 31 196617 t b 2;#P newex 20 446 31 196617 t b 1;#P newex 41 559 114 196617 sprintf script show %s;#P newex 69 538 109 196617 sprintf script hide %s;#P window setfont Times 9.;#P window linecount 2;#P message 69 478 219 1310729 curve \, curvdisp \, curvetext \, fliph \, fliphtext \, flipv \, flipvtext \, offseth \, offsethtext \, offsetv \, offsetvtext;#P window setfont "Sans Serif" 9.;#P window linecount 1;#N thispatcher;#Q end;#P newobj 41 581 61 196617 thispatcher;#P newex 485 226 64 196617 t b b clear b;#P button 485 205 15 0;#P newex 485 182 52 196617 r $1/init;#B color 11;#P message 557 248 141 196617 0 100. 0 100 norm 0 0 0 0 0;#P newex 532 592 54 196617 route trig;#P newex 532 572 40 196617 t b s s;#P newex 489 684 40 196617 t clear;#P newex 489 660 54 196617 route trig;#P newex 396 333 97 196617 pvar destinations 2;#B color 14;#P newex 516 405 48 196617 t b clear;#P message 516 436 72 196617 trig 0 0 0 0 0;#P newex 516 381 54 196617 route trig;#P newex 591 727 73 196617 pvar curvdisp;#P newex 847 510 67 196617 pvar offsetv;#B color 14;#P newex 776 510 66 196617 pvar offseth;#B color 14;#P newex 711 510 55 196617 pvar flipv;#B color 14;#P newex 646 510 54 196617 pvar fliph;#B color 14;#P newex 581 510 60 196617 pvar curve;#B color 14;#P window setfont Times 9.;#P hidden comment 29 214 33 1310729 prefix;#P window setfont "Sans Serif" 9.;#P newex 954 556 85 196617 pvar prefixmess;#B color 14;#P newex 516 510 63 196617 pvar type 2;#B color 14;#P newex 479 531 54 196617 pvar out2;#B color 14;#P window setfont Times 9.;#P flonum 102 58 32 9 0 0 0 20 0 0 0 221 221 221 222 222 222 0 0 0;#P objectname out2;#P window setfont "Sans Serif" 9.;#P newex 444 510 54 196617 pvar out1;#B color 14;#P window setfont Times 9.;#P comment 24 58 21 1310729 in2;#P flonum 45 58 32 9 0 0 0 20 0 0 0 221 221 221 222 222 222 0 0 0;#P objectname in2;#P window setfont "Sans Serif" 9.;#P newex 408 531 48 196617 pvar in2;#B color 14;#P newex 372 510 48 196617 pvar in1;#B color 14;#P newex 954 577 56 196617 route text;#P window setfont Times 9.;#P hidden user textedit 90 221 267 239 32896 20 9;#P objectname prefixmess;#P window setfont "Sans Serif" 9.;#P newex 948 476 31 196617 t set;#P newex 941 533 62 196617 prepend set;#P newex 931 626 55 196617 t 2 l;#P newex 337 721 38 196617 zl join;#P newex 309 700 38 196617 gate 2;#P newex 931 406 45 196617 t b l 1;#P newex 948 452 43 196617 route 0;#P newex 948 432 47 196617 zl iter 1;#P newex 373 368 30 196617 t s s;#P newex 931 504 46 196617 zl group;#P newex 435 659 51 196617 zl slice 5;#P comment 664 729 115 196617 lcd \, dimmenions 27X27;#B frgb 255 0 0;#P user lcd 222 44 29 29 0 1 0 0 0;#P objectname curvdisp;#P newex 591 705 87 196617 multicurvdisp 27;#B color 5;#P message 480 491 39 196617 set \$1;#P message 444 491 39 196617 set \$1;#P message 408 491 39 196617 set \$1;#P message 372 491 39 196617 set \$1;#P message 847 491 39 196617 set \$1;#P message 776 491 39 196617 set \$1;#P message 711 491 39 196617 set \$1;#P message 646 491 39 196617 set \$1;#P message 581 491 39 196617 set \$1;#P newex 322 599 20 196617 t b;#P newex 307 429 62 196617 prepend set;#P newex 309 744 31 196617 s $1;#B color 11;#P newex 372 429 51 196617 zl slice 4;#P newex 516 463 335 196617 unpack s 0. 0 0 0. 0.;#P newex 516 355 51 196617 zl slice 6;#P newex 516 296 38 196617 t l b;#P message 544 314 61 196617 0 0 0 0 0 0;#P newex 516 334 38 196617 zl join;#P newex 516 491 62 196617 prepend set;#P window setfont Times 9.;#P comment 77 58 25 1310729 out2;#P comment 77 43 25 1310729 out1;#P comment 24 43 21 1310729 in1;#P flonum 102 43 32 9 0 0 0 20 0 0 0 221 221 221 222 222 222 0 0 0;#P objectname out1;#P flonum 45 43 32 9 0 0 0 20 0 0 0 221 221 221 222 222 222 0 0 0;#P objectname in1;#P window setfont "Sans Serif" 9.;#P newex 372 463 119 196617 unpack 0. 0. 0. 0.;#P newex 307 634 447 196617 pack s 0. 0. 0. 0. s 0. 0. 0. 0. 0.;#P window setfont Times 9.;#P comment 173 78 37 1310729 offsetv;#P objectname offsetvtext;#P comment 103 78 37 1310729 offseth;#P objectname offsethtext;#P comment 58 78 29 1310729 flipv;#P objectname flipvtext;#P comment 15 78 29 1310729 fliph;#P objectname fliphtext;#P toggle 87 78 15 0;#P objectname flipv;#P toggle 44 78 15 0;#P objectname fliph;#P comment 139 59 30 1310729 curve;#P objectname curvetext;#P comment 144 44 25 1310729 type;#P flonum 169 59 32 9 -1. 1. 3 20 0 0 0 221 221 221 222 222 222 0 0 0;#P objectname curve;#P flonum 210 78 32 9 -1. 1. 3 20 0 0 0 221 221 221 222 222 222 0 0 0;#P objectname offsetv;#P flonum 140 78 32 9 -1. 1. 3 20 0 0 0 221 221 221 222 222 222 0 0 0;#P objectname offseth;#P user ubumenu 169 44 48 1310729 0 1 1 0;#X add norm;#X add sym;#X add updwn;#X add trig;#X prefix_set 0 0 <none> 0;#P objectname type;#P window setfont "Sans Serif" 9.;#N coll $1/data 1;#P newobj 372 405 76 196617 coll $1/data 1;#B color 5;#P newex 373 310 78 196617 prepend append;#P user ubumenu 25 22 126 196617 0 1 1 0;#X add /ch/1;#X add /ch/2;#X add /ch/3;#X add /ch/4;#X add /ch/5;#X add /ch/6;#X add /ch/7;#X add /ch/8;#X add /ch/9;#X add /ch/10;#X add /ch/11;#X add /ch/12;#X add /ch/13;#X add /ch/14;#X add /ch/15;#X add /ch/16;#X add /ch/17;#X add /ch/18;#X add /ch/19;#X add /ch/20;#X add /ch/21;#X add /ch/22;#X add /ch/23;#X add /ch/24;#X add /ch/25;#X add /ch/26;#X add /ch/27;#X add /ch/28;#X add /ch/29;#X add /ch/30;#X add /ch/31;#X add /ch/32;#X add /ch/33;#X add /ch/34;#X add /ch/35;#X add /ch/36;#X add /ch/37;#X add /ch/38;#X add /ch/39;#X add /ch/40;#X add /ch/41;#X add /ch/42;#X add /ch/43;#X add /ch/44;#X add /ch/45;#X add /ch/46;#X add /ch/47;#X add /ch/48;#X add /ch/49;#X add /ch/50;#X add /ch/51;#X add /ch/52;#X add /ch/53;#X add /ch/54;#X add /ch/55;#X add /ch/56;#X add /ch/57;#X add /ch/58;#X add /ch/59;#X add /ch/60;#X prefix_set 0 0 <none> 0;#P objectname destinations;#N coll $1/data 1;#P newobj 292 260 76 196617 coll $1/data 1;#B color 5;#P comment 43 9 64 196617 destinations;#P comment 5 635 138 196617 mapper: cahier des charges \;;#P user panel 1 1 256 124;#X brgb 240 255 240;#X frgb 184 244 168;#X border 1;#X rounded 4;#X shadow 0;#X done;#P background;#P objectname background;#P connect 84 1 96 0;#P connect 96 0 93 0;#P connect 94 1 95 0;#P connect 93 1 95 0;#P connect 95 0 92 0;#P connect 117 0 89 0;#P connect 92 0 89 0;#P connect 91 0 89 0;#P connect 84 0 97 0;#P connect 97 0 94 0;#P connect 93 0 90 0;#P connect 94 0 90 0;#P connect 90 0 95 1;#P connect 95 1 91 0;#P connect 138 0 137 0;#P connect 88 2 3 0;#P connect 50 0 34 0;#P connect 35 0 19 0;#P connect 34 0 19 0;#P connect 56 0 54 0;#P connect 53 2 54 0;#P lcolor 1;#P connect 54 0 33 0;#P connect 55 0 33 0;#P connect 60 0 35 0;#P connect 75 0 35 0;#P connect 74 0 35 0;#P connect 73 0 35 0;#P connect 72 0 35 0;#P connect 71 0 35 0;#P connect 67 0 35 0;#P connect 65 0 35 0;#P connect 62 0 35 0;#P connect 61 0 35 0;#P connect 83 0 35 0;#P connect 137 0 138 0;#P fasten 19 0 54 1 312 668 342 668;#P connect 54 1 55 0;#P connect 20 0 19 1;#P lcolor 1;#P connect 61 0 19 1;#P connect 56 1 55 1;#P connect 50 1 6 0;#P connect 6 0 32 0;#P connect 85 0 32 0;#P connect 32 0 20 0;#P connect 20 0 41 0;#P lcolor 1;#P connect 41 0 61 0;#P connect 102 0 5 0;#P fasten 80 1 50 0 488 361 378 361;#P connect 20 1 19 2;#P lcolor 1;#P connect 62 0 19 2;#P connect 5 0 80 0;#P connect 88 2 80 0;#P connect 20 1 42 0;#P lcolor 1;#P connect 42 0 62 0;#P fasten 19 0 48 0 312 655 440 655;#P connect 20 2 19 3;#P lcolor 1;#P connect 65 0 19 3;#P connect 20 2 43 0;#P lcolor 1;#P connect 43 0 65 0;#P connect 44 0 67 0;#P connect 20 3 19 4;#P lcolor 1;#P connect 67 0 19 4;#P connect 20 3 44 0;#P lcolor 1;#P connect 86 0 87 0;#P connect 87 0 88 0;#P connect 48 1 81 0;#P connect 81 0 82 0;#P fasten 32 1 29 0 418 451 502 451 502 291 521 291;#P connect 29 0 27 0;#P connect 27 0 30 0;#P connect 30 0 77 0;#P connect 77 0 79 0;#P connect 84 0 78 0;#P connect 79 0 78 0;#P connect 77 1 31 0;#P connect 78 0 31 0;#P connect 31 0 26 0;#P lcolor 1;#P connect 26 0 68 0;#P connect 31 0 19 5;#P lcolor 1;#P connect 83 1 19 5;#P connect 126 0 132 0;#P connect 132 0 118 0;#P connect 68 1 83 0;#P connect 83 2 84 0;#P connect 29 1 28 0;#P connect 28 0 27 1;#P connect 88 3 85 0;#P connect 31 1 19 6;#P lcolor 1;#P connect 71 0 19 6;#P connect 31 1 36 0;#P lcolor 1;#P connect 36 0 71 0;#P connect 77 1 45 0;#P connect 81 1 45 0;#P connect 82 0 45 0;#P connect 79 1 45 0;#P connect 45 0 76 0;#P connect 31 2 19 7;#P lcolor 1;#P connect 72 0 19 7;#P connect 31 2 37 0;#P lcolor 1;#P connect 37 0 72 0;#P connect 31 3 19 8;#P lcolor 1;#P connect 73 0 19 8;#P connect 31 4 19 9;#P lcolor 1;#P connect 74 0 19 9;#P connect 31 3 38 0;#P lcolor 1;#P connect 38 0 73 0;#P connect 31 5 19 10;#P lcolor 1;#P connect 75 0 19 10;#P connect 88 0 102 0;#P connect 31 4 39 0;#P lcolor 1;#P connect 39 0 74 0;#P fasten 116 0 127 0 900 156 821 156;#P connect 127 0 117 0;#P connect 117 0 115 0;#P fasten 110 0 111 0 846 135 837 135 837 89 846 89;#P connect 111 0 110 0;#P connect 31 5 40 0;#P lcolor 1;#P connect 40 0 75 0;#P connect 124 0 112 0;#P connect 122 0 112 1;#P connect 110 1 116 0;#P connect 123 0 112 2;#P connect 30 1 53 0;#P connect 53 0 49 0;#P connect 52 1 49 0;#P connect 49 0 56 0;#P connect 60 0 56 0;#P connect 49 0 57 0;#P connect 53 1 51 0;#P connect 51 0 52 0;#P connect 52 0 58 0;#P connect 57 0 69 0;#P connect 58 0 69 0;#P connect 69 0 60 0;#P connect 116 1 134 0;#P connect 134 0 133 0;#P pop;