max v2;#N vpatcher 1 44 301 529;#P origin 1 0;#P window setfont "Sans Serif" 9.;#N thispatcher;#Q end;#P hidden newobj 154 421 61 196617 thispatcher;#P hidden newex 154 402 87 196617 r ct-mainwindow;#P hidden newex 188 448 88 196617 bgcolor 32 32 32;#P window linecount 2;#P comment 180 93 93 196617 write init sequence to disk;#P button 165 98 15 7;#P window linecount 3;#P hidden message 175 82 105 196617 \; ct-initsequence-write bang;#P bpatcher 29 184 61 22 0 0 openbutton.mxt 0 network "network editors" 61;#P bpatcher 135 180 123 22 0 0 openbutton.mxt 0 analyses-presence "presence branch editors" 123;#P bpatcher 135 156 110 22 0 0 openbutton.mxt 0 analyses-motion "motion branch editors" 110;#P bpatcher 135 132 63 22 0 0 openbutton.mxt 0 cameras "camera editors" 63;#P window linecount 1;#P comment 178 292 47 196617 stop rec;#P button 164 291 15 4;#P comment 112 292 51 196617 start rec;#P button 98 291 15 6;#P comment 27 292 70 196617 setup rec file;#P button 13 291 15 1;#P window linecount 2;#P hidden message 164 308 76 196617 \; ct-record stop;#P hidden message 13 308 118 196617 \; ct-record record_pause;#P hidden message 98 308 90 196617 \; ct-record resume;#P bpatcher 13 217 257 63 0 0 ct_vstreamab.edit.mxt 0 ct-windowxfade;#P hidden button 130 78 15 0;#P window linecount 1;#P hidden newex 130 58 38 196617 sel 48;#P hidden number 130 40 35 9 0 0 0 3 0 0 0 221 221 221 222 222 222 0 0 0;#P hidden newex 115 20 40 196617 key;#P comment 163 22 35 196617 <tab>;#P comment 180 75 88 196617 edit init sequence;#P button 165 74 15 12;#P window linecount 3;#P hidden message 176 69 102 196617 \; ct-initsequence-open bang;#P window linecount 1;#P hidden newex 205 392 75 196617 r camtrk-open;#P hidden message 205 411 33 196617 front;#N thispatcher;#Q end;#P hidden newobj 205 428 61 196617 thispatcher;#P hidden newex 145 321 75 196617 r cam-window;#B color 11;#P message 109 321 33 196617 front;#P window setfont "Sans Serif" 12.;#P newex 109 343 159 196620 v.window 0 200 320 440;#P comment 4 33 137 196620 paramètres actifs;#B frgb 8 58 255;#P window setfont "Sans Serif" 9.;#P hidden message 187 375 93 196617 brgb 164 161 220;#P window setfont "Sans Serif" 18.;#N vpatcher 280 44 1121 489;#P origin 0 8;#P window setfont "Sans Serif" 9.;#P window linecount 0;#P message 125 369 33 196617 front;#P window linecount 1;#P newex 125 348 90 196617 r ct-videowindow;#P window setfont "Sans Serif" 14.;#P window linecount 0;#P newex 380 205 167 196622 ct_udpsend udpsend5;#B color 6;#P newex 362 236 167 196622 ct_udpsend udpsend6;#B color 6;#P window setfont "Sans Serif" 10.;#N vpatcher 303 44 1292 631;#P origin 0 3;#P window setfont "Sans Serif" 9.;#P window linecount 0;#P newex 803 457 149 196617 prepend /ct/pc4-regions_listn;#P newex 803 477 36 196617 s OSC;#B color 5;#P window linecount 2;#P message 803 404 131 196617 \; OSC /ct/pc4-sum_valn \$1;#P flonum 803 386 35 9 0 0 0 3 0 0 0 221 221 221 222 222 222 0 0 0;#P window linecount 1;#P newex 803 366 96 196617 r ct-pc4-sum_valn;#B color 11;#P flonum 803 317 35 9 0 0 0 3 0 0 0 221 221 221 222 222 222 0 0 0;#P window linecount 2;#P message 803 335 158 196617 \; OSC /ct/pc4-bounds_surface \$1;#P message 803 266 152 196617 \; OSC /ct/pc4-bounds_deltay \$1;#P message 803 197 152 196617 \; OSC /ct/pc4-bounds_deltax \$1;#P message 803 128 137 196617 \; OSC /ct/pc4-centroid_y \$1;#P flonum 803 110 35 9 0 0 0 3 0 0 0 221 221 221 222 222 222 0 0 0;#P window linecount 1;#P newex 803 90 102 196617 r ct-pc4-centroid_y;#B color 11;#P window linecount 2;#P message 803 59 137 196617 \; OSC /ct/pc4-centroid_x \$1;#P window linecount 1;#P newex 803 297 123 196617 r ct-pc4-bounds_surface;#B color 11;#P flonum 803 248 35 9 0 0 0 3 0 0 0 221 221 221 222 222 222 0 0 0;#P flonum 803 179 35 9 0 0 0 3 0 0 0 221 221 221 222 222 222 0 0 0;#P newex 803 228 117 196617 r ct-pc4-bounds_deltay;#B color 11;#P newex 803 159 117 196617 r ct-pc4-bounds_deltax;#B color 11;#P newex 803 437 112 196617 r ct-pc4-regions_listn;#B color 11;#P flonum 803 41 35 9 0 0 0 3 0 0 0 221 221 221 222 222 222 0 0 0;#P newex 803 21 102 196617 r ct-pc4-centroid_x;#B color 11;#P newex 643 457 149 196617 prepend /ct/pc3-regions_listn;#P newex 643 477 36 196617 s OSC;#B color 5;#P window linecount 2;#P message 643 404 131 196617 \; OSC /ct/pc3-sum_valn \$1;#P flonum 643 386 35 9 0 0 0 3 0 0 0 221 221 221 222 222 222 0 0 0;#P window linecount 1;#P newex 643 366 96 196617 r ct-pc3-sum_valn;#B color 11;#P flonum 643 317 35 9 0 0 0 3 0 0 0 221 221 221 222 222 222 0 0 0;#P window linecount 2;#P message 643 335 158 196617 \; OSC /ct/pc3-bounds_surface \$1;#P message 643 266 152 196617 \; OSC /ct/pc3-bounds_deltay \$1;#P message 643 197 152 196617 \; OSC /ct/pc3-bounds_deltax \$1;#P message 643 128 137 196617 \; OSC /ct/pc3-centroid_y \$1;#P flonum 643 110 35 9 0 0 0 3 0 0 0 221 221 221 222 222 222 0 0 0;#P window linecount 1;#P newex 643 90 102 196617 r ct-pc3-centroid_y;#B color 11;#P window linecount 2;#P message 643 59 137 196617 \; OSC /ct/pc3-centroid_x \$1;#P window linecount 1;#P newex 643 297 123 196617 r ct-pc3-bounds_surface;#B color 11;#P flonum 643 248 35 9 0 0 0 3 0 0 0 221 221 221 222 222 222 0 0 0;#P flonum 643 179 35 9 0 0 0 3 0 0 0 221 221 221 222 222 222 0 0 0;#P newex 643 228 117 196617 r ct-pc3-bounds_deltay;#B color 11;#P newex 643 159 117 196617 r ct-pc3-bounds_deltax;#B color 11;#P newex 643 437 112 196617 r ct-pc3-regions_listn;#B color 11;#P flonum 643 41 35 9 0 0 0 3 0 0 0 221 221 221 222 222 222 0 0 0;#P newex 643 19 102 196617 r ct-pc3-centroid_x;#B color 11;#P newex 483 457 149 196617 prepend /ct/pc2-regions_listn;#P newex 483 477 36 196617 s OSC;#B color 5;#P window linecount 2;#P message 483 404 131 196617 \; OSC /ct/pc2-sum_valn \$1;#P flonum 483 386 35 9 0 0 0 3 0 0 0 221 221 221 222 222 222 0 0 0;#P window linecount 1;#P newex 483 366 96 196617 r ct-pc2-sum_valn;#B color 11;#P flonum 483 317 35 9 0 0 0 3 0 0 0 221 221 221 222 222 222 0 0 0;#P window linecount 2;#P message 483 335 158 196617 \; OSC /ct/pc2-bounds_surface \$1;#P message 483 266 152 196617 \; OSC /ct/pc2-bounds_deltay \$1;#P message 483 197 152 196617 \; OSC /ct/pc2-bounds_deltax \$1;#P message 483 128 137 196617 \; OSC /ct/pc2-centroid_y \$1;#P flonum 483 110 35 9 0 0 0 3 0 0 0 221 221 221 222 222 222 0 0 0;#P window linecount 1;#P newex 483 90 102 196617 r ct-pc2-centroid_y;#B color 11;#P window linecount 2;#P message 483 59 137 196617 \; OSC /ct/pc2-centroid_x \$1;#P window linecount 1;#P newex 483 297 123 196617 r ct-pc2-bounds_surface;#B color 11;#P flonum 483 248 35 9 0 0 0 3 0 0 0 221 221 221 222 222 222 0 0 0;#P flonum 483 179 35 9 0 0 0 3 0 0 0 221 221 221 222 222 222 0 0 0;#P newex 483 228 117 196617 r ct-pc2-bounds_deltay;#B color 11;#P newex 483 159 117 196617 r ct-pc2-bounds_deltax;#B color 11;#P newex 483 437 112 196617 r ct-pc2-regions_listn;#B color 11;#P flonum 483 41 35 9 0 0 0 3 0 0 0 221 221 221 222 222 222 0 0 0;#P newex 483 21 102 196617 r ct-pc2-centroid_x;#B color 11;#P newex 323 457 149 196617 prepend /ct/pc1-regions_listn;#P newex 323 477 36 196617 s OSC;#B color 5;#P window linecount 2;#P message 323 404 131 196617 \; OSC /ct/pc1-sum_valn \$1;#P flonum 323 386 35 9 0 0 0 3 0 0 0 221 221 221 222 222 222 0 0 0;#P window linecount 1;#P newex 323 366 96 196617 r ct-pc1-sum_valn;#B color 11;#P flonum 323 317 35 9 0 0 0 3 0 0 0 221 221 221 222 222 222 0 0 0;#P window linecount 2;#P message 323 335 158 196617 \; OSC /ct/pc1-bounds_surface \$1;#P message 323 266 152 196617 \; OSC /ct/pc1-bounds_deltay \$1;#P message 323 197 152 196617 \; OSC /ct/pc1-bounds_deltax \$1;#P message 323 128 137 196617 \; OSC /ct/pc1-centroid_y \$1;#P flonum 323 110 35 9 0 0 0 3 0 0 0 221 221 221 222 222 222 0 0 0;#P window linecount 1;#P newex 323 90 102 196617 r ct-pc1-centroid_y;#B color 11;#P window linecount 2;#P message 323 59 137 196617 \; OSC /ct/pc1-centroid_x \$1;#P window linecount 1;#P newex 323 297 123 196617 r ct-pc1-bounds_surface;#B color 11;#P flonum 323 248 35 9 0 0 0 3 0 0 0 221 221 221 222 222 222 0 0 0;#P flonum 323 179 35 9 0 0 0 3 0 0 0 221 221 221 222 222 222 0 0 0;#P newex 323 228 117 196617 r ct-pc1-bounds_deltay;#B color 11;#P newex 323 159 117 196617 r ct-pc1-bounds_deltax;#B color 11;#P newex 323 437 112 196617 r ct-pc1-regions_listn;#B color 11;#P flonum 323 41 35 9 0 0 0 3 0 0 0 221 221 221 222 222 222 0 0 0;#P newex 323 21 102 196617 r ct-pc1-centroid_x;#B color 11;#P newex 161 518 144 196617 prepend /ct/p-regions2_listn;#P newex 161 538 36 196617 s OSC;#B color 5;#P newex 161 498 107 196617 r ct-p-regions2_listn;#B color 11;#P newex 161 457 138 196617 prepend /ct/p-regions_listn;#P newex 161 477 36 196617 s OSC;#B color 5;#P window linecount 2;#P message 161 404 120 196617 \; OSC /ct/p-sum_valn \$1;#P flonum 161 386 35 9 0 0 0 3 0 0 0 221 221 221 222 222 222 0 0 0;#P window linecount 1;#P newex 161 366 85 196617 r ct-p-sum_valn;#B color 11;#P flonum 161 317 35 9 0 0 0 3 0 0 0 221 221 221 222 222 222 0 0 0;#P window linecount 2;#P message 161 335 147 196617 \; OSC /ct/p-bounds_surface \$1;#P message 161 266 141 196617 \; OSC /ct/p-bounds_deltay \$1;#P message 161 197 141 196617 \; OSC /ct/p-bounds_deltax \$1;#P message 161 128 126 196617 \; OSC /ct/p-centroid_y \$1;#P flonum 161 110 35 9 0 0 0 3 0 0 0 221 221 221 222 222 222 0 0 0;#P window linecount 1;#P newex 161 90 91 196617 r ct-p-centroid_y;#B color 11;#P window linecount 2;#P message 161 59 126 196617 \; OSC /ct/p-centroid_x \$1;#P window linecount 1;#P newex 161 297 112 196617 r ct-p-bounds_surface;#B color 11;#P flonum 161 248 35 9 0 0 0 3 0 0 0 221 221 221 222 222 222 0 0 0;#P flonum 161 179 35 9 0 0 0 3 0 0 0 221 221 221 222 222 222 0 0 0;#P newex 161 228 106 196617 r ct-p-bounds_deltay;#B color 11;#P newex 161 159 106 196617 r ct-p-bounds_deltax;#B color 11;#P newex 161 437 101 196617 r ct-p-regions_listn;#B color 11;#P flonum 161 41 35 9 0 0 0 3 0 0 0 221 221 221 222 222 222 0 0 0;#P newex 161 21 91 196617 r ct-p-centroid_x;#B color 11;#P newex 11 518 134 196617 prepend /ct/regions2_listn;#P newex 11 538 36 196617 s OSC;#B color 5;#P newex 11 498 97 196617 r ct-regions2_listn;#B color 11;#P newex 11 457 128 196617 prepend /ct/regions_listn;#P newex 11 477 36 196617 s OSC;#B color 5;#P window linecount 2;#P message 11 404 110 196617 \; OSC /ct/sum_valn \$1;#P flonum 11 386 35 9 0 0 0 3 0 0 0 221 221 221 222 222 222 0 0 0;#P window linecount 1;#P newex 11 366 75 196617 r ct-sum_valn;#B color 11;#P flonum 11 317 35 9 0 0 0 3 0 0 0 221 221 221 222 222 222 0 0 0;#P window linecount 2;#P message 11 335 137 196617 \; OSC /ct/bounds_surface \$1;#P message 11 266 131 196617 \; OSC /ct/bounds_deltay \$1;#P message 11 197 131 196617 \; OSC /ct/bounds_deltax \$1;#P message 11 128 116 196617 \; OSC /ct/centroid_y \$1;#P flonum 11 110 35 9 0 0 0 3 0 0 0 221 221 221 222 222 222 0 0 0;#P window linecount 1;#P newex 11 90 81 196617 r ct-centroid_y;#B color 11;#P window linecount 2;#P message 11 59 116 196617 \; OSC /ct/centroid_x \$1;#P window linecount 0;#P newex 11 297 102 196617 r ct-bounds_surface;#B color 11;#P flonum 11 248 35 9 0 0 0 3 0 0 0 221 221 221 222 222 222 0 0 0;#P flonum 11 179 35 9 0 0 0 3 0 0 0 221 221 221 222 222 222 0 0 0;#P newex 11 228 96 196617 r ct-bounds_deltay;#B color 11;#P newex 11 159 96 196617 r ct-bounds_deltax;#B color 11;#P window linecount 1;#P newex 11 437 91 196617 r ct-regions_listn;#B color 11;#P flonum 11 41 35 9 0 0 0 3 0 0 0 221 221 221 222 222 222 0 0 0;#P newex 11 21 81 196617 r ct-centroid_x;#B color 11;#P connect 0 0 1 0;#P connect 1 0 8 0;#P connect 9 0 10 0;#P connect 10 0 11 0;#P connect 3 0 5 0;#P connect 5 0 12 0;#P connect 4 0 6 0;#P connect 6 0 13 0;#P connect 7 0 15 0;#P connect 15 0 14 0;#P connect 16 0 17 0;#P connect 17 0 18 0;#P connect 2 0 20 0;#P connect 20 0 19 0;#P connect 21 0 23 0;#P connect 23 0 22 0;#P connect 24 0 25 0;#P connect 25 0 32 0;#P connect 33 0 34 0;#P connect 34 0 35 0;#P connect 27 0 29 0;#P connect 29 0 36 0;#P connect 28 0 30 0;#P connect 30 0 37 0;#P connect 31 0 39 0;#P connect 39 0 38 0;#P connect 40 0 41 0;#P connect 41 0 42 0;#P connect 26 0 44 0;#P connect 44 0 43 0;#P connect 45 0 47 0;#P connect 47 0 46 0;#P connect 48 0 49 0;#P connect 49 0 56 0;#P connect 57 0 58 0;#P connect 58 0 59 0;#P connect 51 0 53 0;#P connect 53 0 60 0;#P connect 52 0 54 0;#P connect 54 0 61 0;#P connect 55 0 63 0;#P connect 63 0 62 0;#P connect 64 0 65 0;#P connect 65 0 66 0;#P connect 50 0 68 0;#P connect 68 0 67 0;#P connect 69 0 70 0;#P connect 70 0 77 0;#P connect 78 0 79 0;#P connect 79 0 80 0;#P connect 72 0 74 0;#P connect 74 0 81 0;#P connect 73 0 75 0;#P connect 75 0 82 0;#P connect 76 0 84 0;#P connect 84 0 83 0;#P connect 85 0 86 0;#P connect 86 0 87 0;#P connect 71 0 89 0;#P connect 89 0 88 0;#P connect 90 0 91 0;#P connect 91 0 98 0;#P connect 99 0 100 0;#P connect 100 0 101 0;#P connect 93 0 95 0;#P connect 95 0 102 0;#P connect 94 0 96 0;#P connect 96 0 103 0;#P connect 97 0 105 0;#P connect 105 0 104 0;#P connect 106 0 107 0;#P connect 107 0 108 0;#P connect 92 0 110 0;#P connect 110 0 109 0;#P connect 111 0 112 0;#P connect 112 0 119 0;#P connect 120 0 121 0;#P connect 121 0 122 0;#P connect 114 0 116 0;#P connect 116 0 123 0;#P connect 115 0 117 0;#P connect 117 0 124 0;#P connect 118 0 126 0;#P connect 126 0 125 0;#P connect 127 0 128 0;#P connect 128 0 129 0;#P connect 113 0 131 0;#P connect 131 0 130 0;#P pop;#P newobj 500 35 80 196618 p resends-udp;#B color 5;#P window setfont "Sans Serif" 9.;#N vpatcher 963 44 1255 713;#P bpatcher 11 381 257 63 0 0 ct_udpsend.edit.mxt 0 udpsend6;#P bpatcher 11 316 257 63 0 0 ct_udpsend.edit.mxt 0 udpsend5;#P window setfont "Sans Serif" 18.;#P comment 11 554 254 196626 jit.net.send (image par udp);#B frgb 8 58 255;#P comment 11 454 113 196626 udp receive;#B frgb 8 58 255;#P comment 11 30 100 196626 udp sends;#B frgb 8 58 255;#P bpatcher 11 251 257 63 0 0 ct_udpsend.edit.mxt 0 udpsend4;#P bpatcher 11 186 257 63 0 0 ct_udpsend.edit.mxt 0 udpsend3;#P bpatcher 10 580 257 63 0 0 ct_jnetsend.edit.mxt 0 netsend;#P comment 100 1 81 196626 network;#B frgb 8 58 255;#P bpatcher 11 480 257 63 0 0 ct_udpreceive.edit.mxt 0 udpreceive;#P bpatcher 11 121 257 63 0 0 ct_udpsend.edit.mxt 0 udpsend2;#P bpatcher 11 56 257 63 0 0 ct_udpsend.edit.mxt 0 udpsend1;#P window setfont "Sans Serif" 9.;#P hidden message 100 674 33 196617 front;#N thispatcher;#Q end;#P hidden newobj 100 692 61 196617 thispatcher;#P hidden newex 100 654 80 196617 r network-open;#P user panel 6 546 270 4;#X brgb 164 161 220;#X frgb 0 0 0;#X border 1;#X rounded 0;#X shadow 0;#X done;#P background;#P user panel 5 447 270 4;#X brgb 164 161 220;#X frgb 0 0 0;#X border 1;#X rounded 0;#X shadow 0;#X done;#P background;#P user panel 5 645 270 4;#X brgb 164 161 220;#X frgb 0 0 0;#X border 1;#X rounded 0;#X shadow 0;#X done;#P background;#P user panel 271 29 4 620;#X brgb 164 161 220;#X frgb 0 0 0;#X border 1;#X rounded 0;#X shadow 0;#X done;#P background;#P user panel 5 29 270 4;#X brgb 164 161 220;#X frgb 0 0 0;#X border 1;#X rounded 0;#X shadow 0;#X done;#P background;#P user panel 5 29 4 620;#X brgb 164 161 220;#X frgb 0 0 0;#X border 1;#X rounded 0;#X shadow 0;#X done;#P background;#P hidden connect 6 0 8 0;#P hidden connect 8 0 7 0;#P pop;#P newobj 676 155 77 196617 p network-edit;#B color 5;#N vpatcher 217 46 1087 842;#P window setfont Times 9.;#P window linecount 1;#N vpatcher 254 68 476 301;#N comlet to thispatcher;#P outlet 31 190 15 0;#N comlet from toggle;#P inlet 16 106 15 0;#N comlet to toggle;#P outlet 16 72 15 0;#P window setfont Times 9.;#P newex 16 52 18 1310729 t 1;#P newex 16 31 43 1310729 loadbang;#P newex 16 124 40 1310729 sel 1 0;#P window setfont "Sans Serif" 9.;#P message 31 146 158 196617 window flags close \, window exec;#P message 16 164 168 196617 window flags noclose \, window exec;#P connect 3 0 4 0;#P connect 4 0 5 0;#P connect 6 0 2 0;#P connect 2 0 0 0;#P connect 2 1 1 0;#P connect 1 0 7 0;#P connect 0 0 7 0;#P pop;#P hidden newobj 331 29 50 1310729 p closebox;#B color 6;#P toggle 313 29 15 0;#N thispatcher;#Q end;#P hidden newobj 382 29 51 1310729 thispatcher;#P comment 329 29 74 1310729 inhibit close box;#P window setfont "Sans Serif" 18.;#P window linecount 0;#P comment 525 1 77 196626 4 crops;#B frgb 8 58 255;#P bpatcher 581 578 257 63 0 0 ct_jslide.edit.mxt 0 ct-pc4-slide;#P bpatcher 581 706 257 63 0 0 ct_vregions.edit.mxt 0 ct-pc4-regions;#P bpatcher 581 514 257 63 0 0 ct_vbounds.edit.mxt 0 ct-pc4-bounds;#P bpatcher 581 642 257 63 0 0 ct_vsum.edit.mxt 0 ct-pc4-sum;#P bpatcher 581 450 257 63 0 0 ct_vcentroid.edit.mxt 0 ct-pc4-centroid;#P bpatcher 310 578 257 63 0 0 ct_jslide.edit.mxt 0 ct-pc3-slide;#P bpatcher 310 706 257 63 0 0 ct_vregions.edit.mxt 0 ct-pc3-regions;#P bpatcher 310 514 257 63 0 0 ct_vbounds.edit.mxt 0 ct-pc3-bounds;#P bpatcher 310 642 257 63 0 0 ct_vsum.edit.mxt 0 ct-pc3-sum;#P bpatcher 310 450 257 63 0 0 ct_vcentroid.edit.mxt 0 ct-pc3-centroid;#P bpatcher 581 247 257 63 0 0 ct_jslide.edit.mxt 0 ct-pc2-slide;#P bpatcher 581 375 257 63 0 0 ct_vregions.edit.mxt 0 ct-pc2-regions;#P bpatcher 581 183 257 63 0 0 ct_vbounds.edit.mxt 0 ct-pc2-bounds;#P bpatcher 581 311 257 63 0 0 ct_vsum.edit.mxt 0 ct-pc2-sum;#P bpatcher 581 119 257 63 0 0 ct_vcentroid.edit.mxt 0 ct-pc2-centroid;#P user fpic 273 61 168 16 arrowR2.png 0 0 0 0. 0 0 3;#X interp 1;#P bpatcher 310 247 257 63 0 0 ct_jslide.edit.mxt 0 ct-pc1-slide;#P bpatcher 310 375 257 63 0 0 ct_vregions.edit.mxt 0 ct-pc1-regions;#P bpatcher 310 183 257 63 0 0 ct_vbounds.edit.mxt 0 ct-pc1-bounds;#P bpatcher 310 311 257 63 0 0 ct_vsum.edit.mxt 0 ct-pc1-sum;#P bpatcher 310 119 257 63 0 0 ct_vcentroid.edit.mxt 0 ct-pc1-centroid;#P bpatcher 444 37 257 63 0 0 ct_v4crops.edit.mxt 0 ct-p-4crops;#P user fpic 13 327 15 19 arrowD1.png 0 0 0 0. 0 0 3;#X interp 1;#P user fpic 13 110 15 155 arrowD2.png 0 0 0 0. 0 0 3;#X interp 1;#P user fpic 22 99 17 22 arrowD1R1.png 0 0 0 0. 0 0 3;#X interp 1;#P bpatcher 39 183 257 63 0 0 ct_vbounds.edit.mxt 0 ct-p-bounds;#P bpatcher 14 474 257 63 0 0 ct_vregions.edit.mxt 0 ct-p-regions2;#P bpatcher 14 410 257 63 0 0 ct_vregions.edit.mxt 0 ct-p-regions;#P bpatcher 14 264 257 63 0 0 ct_jslide.edit.mxt 0 ct-p-slide;#P bpatcher 14 346 257 63 0 0 ct_vsum.edit.mxt 0 ct-p-sum;#P bpatcher 39 119 257 63 0 0 ct_vcentroid.edit.mxt 0 ct-p-centroid;#P bpatcher 14 37 257 63 0 0 ct_vpresence.edit.mxt 0 ct-presence;#P comment 69 1 185 196626 analyses - presence;#B frgb 8 58 255;#P window setfont "Sans Serif" 9.;#P hidden message 104 615 33 196617 front;#N thispatcher;#Q end;#P hidden newobj 104 633 61 196617 thispatcher;#P hidden newex 104 595 127 196617 r analyses-presence-open;#P user panel 843 110 4 667;#X brgb 164 161 220;#X frgb 0 0 0;#X border 1;#X rounded 0;#X shadow 0;#X done;#P background;#P user panel 305 441 538 4;#X brgb 164 161 220;#X frgb 0 0 0;#X border 1;#X rounded 0;#X shadow 0;#X done;#P background;#P user panel 301 541 4 236;#X brgb 164 161 220;#X frgb 0 0 0;#X border 1;#X rounded 0;#X shadow 0;#X done;#P background;#P user panel 305 773 538 4;#X brgb 164 161 220;#X frgb 0 0 0;#X border 1;#X rounded 0;#X shadow 0;#X done;#P background;#P user panel 305 110 538 4;#X brgb 164 161 220;#X frgb 0 0 0;#X border 1;#X rounded 0;#X shadow 0;#X done;#P background;#P user panel 572 110 4 667;#X brgb 164 161 220;#X frgb 0 0 0;#X border 1;#X rounded 0;#X shadow 0;#X done;#P background;#P user panel 301 28 4 514;#X brgb 164 161 220;#X frgb 0 0 0;#X border 1;#X rounded 0;#X shadow 0;#X done;#P background;#P user panel 5 542 296 4;#X brgb 164 161 220;#X frgb 0 0 0;#X border 1;#X rounded 0;#X shadow 0;#X done;#P background;#P user panel 5 28 296 4;#X brgb 164 161 220;#X frgb 0 0 0;#X border 1;#X rounded 0;#X shadow 0;#X done;#P background;#P user panel 5 32 4 510;#X brgb 164 161 220;#X frgb 0 0 0;#X border 1;#X rounded 0;#X shadow 0;#X done;#P background;#P hidden connect 10 0 12 0;#P hidden connect 12 0 11 0;#P hidden connect 50 0 49 0;#P hidden connect 49 0 50 0;#P hidden connect 50 1 48 0;#P pop;#P newobj 676 224 124 196617 p analyses-presence-edit;#B color 5;#N vpatcher 299 44 632 601;#P origin 0 -37;#P window setfont Times 9.;#N vpatcher 254 68 476 301;#N comlet to thispatcher;#P outlet 31 190 15 0;#N comlet from toggle;#P inlet 16 106 15 0;#N comlet to toggle;#P outlet 16 72 15 0;#P window setfont Times 9.;#P newex 16 52 18 1310729 t 1;#P newex 16 31 43 1310729 loadbang;#P newex 16 124 40 1310729 sel 1 0;#P window setfont "Sans Serif" 9.;#P message 31 146 158 196617 window flags close \, window exec;#P message 16 164 168 196617 window flags noclose \, window exec;#P connect 3 0 4 0;#P connect 4 0 5 0;#P connect 6 0 2 0;#P connect 2 0 0 0;#P connect 2 1 1 0;#P connect 1 0 7 0;#P connect 0 0 7 0;#P pop;#P hidden newobj 19 1 50 1310729 p closebox;#B color 6;#P toggle 1 1 15 0;#N thispatcher;#Q end;#P hidden newobj 70 1 51 1310729 thispatcher;#P comment 17 1 74 1310729 inhibit close box;#P user fpic 9 323 15 19 arrowD1.png 0 0 0 0. 0 0 3;#X interp 1;#P user fpic 9 106 15 155 arrowD2.png 0 0 0 0. 0 0 3;#X interp 1;#P user fpic 18 95 32 22 arrowD1R1.png 0 0 0 0. 0 0 3;#X interp 1;#P bpatcher 51 179 257 63 0 0 ct_vbounds.edit.mxt 0 ct-bounds;#P bpatcher 10 470 257 63 0 0 ct_vregions.edit.mxt 0 ct-regions2;#P bpatcher 10 406 257 63 0 0 ct_vregions.edit.mxt 0 ct-regions;#P bpatcher 10 260 257 63 0 0 ct_jslide.edit.mxt 0 ct-slide;#P bpatcher 10 342 257 63 0 0 ct_vsum.edit.mxt 0 ct-sum;#P bpatcher 51 115 257 63 0 0 ct_vcentroid.edit.mxt 0 ct-centroid;#P bpatcher 10 33 257 63 0 0 ct_vmotion.edit.mxt 0 ct-motion;#P window setfont "Sans Serif" 18.;#P comment 84 3 164 196626 analyses - motion;#B frgb 8 58 255;#P window setfont "Sans Serif" 9.;#P hidden message 275 320 33 196617 front;#N thispatcher;#Q end;#P hidden newobj 275 338 61 196617 thispatcher;#P hidden newex 275 300 117 196617 r analyses-motion-open;#P user panel 9 534 300 4;#X brgb 164 161 220;#X frgb 0 0 0;#X border 1;#X rounded 0;#X shadow 0;#X done;#P background;#P user panel 9 28 300 4;#X brgb 164 161 220;#X frgb 0 0 0;#X border 1;#X rounded 0;#X shadow 0;#X done;#P background;#P user panel 309 28 4 510;#X brgb 164 161 220;#X frgb 0 0 0;#X border 1;#X rounded 0;#X shadow 0;#X done;#P background;#P user panel 5 28 4 510;#X brgb 164 161 220;#X frgb 0 0 0;#X border 1;#X rounded 0;#X shadow 0;#X done;#P background;#P hidden connect 21 0 20 0;#P hidden connect 20 0 21 0;#P hidden connect 21 1 19 0;#P hidden connect 4 0 6 0;#P hidden connect 6 0 5 0;#P pop;#P newobj 676 201 114 196617 p analyses-motion-edit;#B color 5;#N vpatcher 630 75 1193 655;#P origin 0 -16;#P bpatcher 281 164 256 62 0 0 ct_vresize.edit.mxt 0 ct-resize2;#P bpatcher 10 164 256 62 0 0 ct_vresize.edit.mxt 0 ct-resize;#P window setfont Times 9.;#N vpatcher 254 68 476 301;#N comlet to thispatcher;#P outlet 31 190 15 0;#N comlet from toggle;#P inlet 16 106 15 0;#N comlet to toggle;#P outlet 16 72 15 0;#P window setfont Times 9.;#P newex 16 52 18 1310729 t 1;#P newex 16 31 43 1310729 loadbang;#P newex 16 124 40 1310729 sel 1 0;#P window setfont "Sans Serif" 9.;#P message 31 146 158 196617 window flags close \, window exec;#P message 16 164 168 196617 window flags noclose \, window exec;#P connect 3 0 4 0;#P connect 4 0 5 0;#P connect 6 0 2 0;#P connect 2 0 0 0;#P connect 2 1 1 0;#P connect 0 0 7 0;#P connect 1 0 7 0;#P pop;#P hidden newobj 23 2 50 1310729 p closebox;#B color 6;#P toggle 5 2 15 0;#N thispatcher;#Q end;#P hidden newobj 74 2 51 1310729 thispatcher;#P comment 21 2 74 1310729 inhibit close box;#P user fpic 201 300 147 74 combine2.png 0 0 0 0. 0 0 0;#P window setfont "Sans Serif" 9.;#P hidden message 73 328 33 196617 front;#N thispatcher;#Q end;#P hidden newobj 73 346 61 196617 thispatcher;#P hidden newex 73 307 81 196617 r cameras-open;#P toggle 376 337 27 0;#P hidden newex 403 348 83 196617 vari ct-permute;#P comment 403 345 88 196617 permute cameras;#B frgb 255 0 0;#P window setfont "Sans Serif" 18.;#P number 376 305 35 18 0 2 3 3 0 0 0 221 221 221 222 222 222 0 0 0;#P window setfont "Sans Serif" 9.;#P hidden newex 411 315 111 196617 vari ct-howmanycams;#P comment 411 312 90 196617 how many cams ?;#B frgb 255 0 0;#P bpatcher 278 471 256 62 0 0 ct_vzoom.edit.mxt 0 ct-zoom;#P bpatcher 278 404 256 62 0 0 ct_vflip.edit.mxt 0 ct-flip;#P bpatcher 13 471 256 62 0 0 ct_vcontrast.edit.mxt 0 ct-contrast;#P bpatcher 13 404 256 62 0 0 ct_vgain.edit.mxt 0 ct-gain;#P bpatcher 281 231 256 62 0 0 ct_vrotate.edit.mxt 0 ct-rotate2;#P bpatcher 281 35 256 124 0 0 ct_vcapture.edit.mxt 0 ct-capture2;#P bpatcher 10 231 256 62 0 0 ct_vrotate.edit.mxt 0 ct-rotate;#P bpatcher 10 35 256 124 0 0 ct_vcapture.edit.mxt 0 ct-capture;#P window setfont "Sans Serif" 18.;#P comment 12 378 108 196626 prep image;#B frgb 8 58 255;#P user panel 4 535 540 4;#X brgb 164 161 220;#X frgb 0 0 0;#X border 1;#X rounded 0;#X shadow 0;#X done;#P background;#P user panel 4 295 540 4;#X brgb 164 161 220;#X frgb 0 0 0;#X border 1;#X rounded 0;#X shadow 0;#X done;#P background;#P user panel 272 29 4 270;#X brgb 164 161 220;#X frgb 0 0 0;#X border 1;#X rounded 0;#X shadow 0;#X done;#P background;#P user panel 540 29 4 510;#X brgb 164 161 220;#X frgb 0 0 0;#X border 1;#X rounded 0;#X shadow 0;#X done;#P background;#P user panel 4 376 540 4;#X brgb 164 161 220;#X frgb 0 0 0;#X border 1;#X rounded 0;#X shadow 0;#X done;#P background;#P user panel 4 29 540 4;#X brgb 164 161 220;#X frgb 0 0 0;#X border 1;#X rounded 0;#X shadow 0;#X done;#P background;#P user panel 4 29 4 510;#X brgb 164 161 220;#X frgb 0 0 0;#X border 1;#X rounded 0;#X shadow 0;#X done;#P background;#P hidden connect 29 0 28 0;#P hidden connect 28 0 29 0;#P hidden connect 22 0 24 0;#P hidden connect 24 0 23 0;#P hidden connect 29 1 27 0;#P hidden connect 17 0 18 0;#P hidden connect 20 0 21 0;#P hidden connect 21 0 20 0;#P hidden connect 18 0 17 0;#P pop;#P newobj 676 178 78 196617 p cameras-edit;#B color 5;#P window setfont "Sans Serif" 14.;#P newex 463 82 167 196622 ct_udpsend udpsend1;#B color 6;#P newex 445 113 167 196622 ct_udpsend udpsend2;#B color 6;#P newex 427 144 167 196622 ct_udpsend udpsend3;#B color 6;#P newex 362 280 194 196622 ct_udpreceive udpreceive;#B color 6;#P newex 409 175 167 196622 ct_udpsend udpsend4;#B color 6;#P window setfont "Sans Serif" 9.;#P newex 362 35 36 196617 r OSC;#B color 5;#P window linecount 2;#P message 660 94 82 196617 \; OSC testOSC \$1;#P number 660 74 35 9 0 0 0 3 0 0 0 221 221 221 222 222 222 0 0 0;#P window linecount 1;#P newex 660 53 36 196617 r test;#P window setfont "Sans Serif" 14.;#N vpatcher 60 211 913 745;#P origin 0 -4;#P window setfont "Sans Serif" 9.;#P window linecount 1;#P message 592 205 64 196617 n;#P newex 592 185 62 196617 prepend set;#P button 563 294 15 0;#P window linecount 2;#P message 563 314 95 196617 \; network-open bang;#P window linecount 1;#P newex 563 273 27 196617 sel;#P number 580 252 35 9 0 0 0 3 0 0 0 221 221 221 222 222 222 0 0 0;#P newex 580 227 40 196617 atoi;#P window linecount 3;#P comment 192 58 191 196617 mainwindow videowindow camerawindow motionwindow presencewindow presence-setreference cropwindow;#P window linecount 9;#P comment 412 34 127 196617 w = videowindow \; c = camerawindow \; p = presencewindow \; m = motionwindow \; v = mainwindow \; C = cropwindow \; P = presence-setreference \; n = networkwindow \;;#P window linecount 0;#P message 519 205 64 196617 C;#P window linecount 1;#P newex 519 185 62 196617 prepend set;#P window linecount 0;#P message 446 205 64 196617 P;#P window linecount 1;#P newex 446 185 62 196617 prepend set;#P window linecount 0;#P message 373 205 64 196617 p;#P window linecount 1;#P newex 373 185 62 196617 prepend set;#P window linecount 0;#P message 300 205 64 196617 m;#P window linecount 1;#P newex 300 185 62 196617 prepend set;#P window linecount 0;#P message 227 205 64 196617 c;#P window linecount 1;#P newex 227 185 62 196617 prepend set;#P window linecount 0;#P message 154 205 64 196617 w;#P window linecount 1;#P newex 154 185 62 196617 prepend set;#P window linecount 0;#P message 81 205 64 196617 v;#P newex 81 185 62 196617 prepend set;#P button 490 327 15 0;#P window linecount 2;#P message 490 347 136 196617 \; ct-p-4crops-moreopen bang;#P window linecount 1;#P newex 490 306 27 196617 sel;#P number 507 252 35 9 0 0 0 3 0 0 0 221 221 221 222 222 222 0 0 0;#P newex 507 227 40 196617 atoi;#P button 417 362 15 0;#P window linecount 2;#P message 417 381 150 196617 \; ct-presence-setreference bang;#P window linecount 1;#P newex 417 342 27 196617 sel;#P number 434 252 35 9 0 0 0 3 0 0 0 221 221 221 222 222 222 0 0 0;#P newex 434 227 40 196617 atoi;#P button 344 428 15 0;#P window linecount 2;#P message 344 448 142 196617 \; analyses-presence-open bang;#P window linecount 1;#P newex 344 407 27 196617 sel;#P number 361 252 35 9 0 0 0 3 0 0 0 221 221 221 222 222 222 0 0 0;#P newex 361 227 40 196617 atoi;#P button 271 326 15 0;#P window linecount 2;#P message 271 344 132 196617 \; analyses-motion-open bang;#P window linecount 1;#P newex 271 306 27 196617 sel;#P number 288 252 35 9 0 0 0 3 0 0 0 221 221 221 222 222 222 0 0 0;#P newex 288 227 40 196617 atoi;#P button 198 432 15 0;#P window linecount 0;#P newex 198 412 27 196617 sel;#P number 215 252 35 9 0 0 0 3 0 0 0 221 221 221 222 222 222 0 0 0;#P newex 215 227 40 196617 atoi;#P window linecount 2;#P message 198 450 96 196617 \; cameras-open bang;#P number 142 252 35 9 0 0 0 3 0 0 0 221 221 221 222 222 222 0 0 0;#P window linecount 1;#P newex 142 227 40 196617 atoi;#P button 141 360 15 0;#P window linecount 2;#P message 141 380 105 196617 \; ct-videowindow bang;#P window linecount 1;#P newex 141 339 27 196617 sel;#P button 52 399 15 0;#P window linecount 2;#P message 52 418 105 196617 \; ct-mainwindow front;#P window linecount 0;#P newex 52 378 27 196617 sel;#P number 69 252 35 9 0 0 0 3 0 0 0 221 221 221 222 222 222 0 0 0;#P newex 12 270 40 196617 key;#P window linecount 1;#P newex 69 227 40 196617 atoi;#P window linecount 0;#P newex 69 160 599 196617 route mainwindow videowindow camerawindow motionwindow presencewindow presence-setreference cropwindow networkwindow;#P window linecount 1;#P newex 69 140 70 196617 r ct-shortcut;#B color 11;#P button 16 55 15 0;#P bpatcher 16 74 128 62 0 0 qlistinitshell.edit.mxt 0 ct-initsequence;#P window linecount 0;#P newex 107 34 30 196617 r //;#P window linecount 1;#P newex 16 34 70 196617 r camtrk-init;#B color 11;#P window linecount 7;#P comment 563 34 112 196617 w = fenêtre vidéo \; c= fenêtre caméra \; p = fenêtre présence \; m = fenêtre motion \; v = fenêtre principale \; C = fenêtre crop \; P = persistence \;;#P connect 1 0 4 0;#P connect 4 0 3 0;#P connect 8 0 10 0;#P lcolor 6;#P connect 10 0 12 0;#P connect 12 0 11 0;#P connect 5 0 6 0;#P connect 6 0 7 0;#P connect 7 0 9 0;#P connect 9 0 10 1;#P connect 6 0 43 0;#P connect 43 0 44 0;#P connect 8 0 13 0;#P lcolor 6;#P connect 13 0 15 0;#P connect 15 0 14 0;#P connect 6 1 16 0;#P connect 16 0 17 0;#P connect 6 1 45 0;#P connect 45 0 46 0;#P connect 17 0 13 1;#P connect 8 0 21 0;#P lcolor 6;#P connect 21 0 22 0;#P connect 22 0 18 0;#P connect 6 2 19 0;#P connect 19 0 20 0;#P connect 20 0 21 1;#P connect 6 2 47 0;#P connect 47 0 48 0;#P connect 8 0 25 0;#P lcolor 6;#P connect 25 0 27 0;#P connect 27 0 26 0;#P connect 6 3 23 0;#P connect 23 0 24 0;#P connect 24 0 25 1;#P connect 6 3 49 0;#P connect 49 0 50 0;#P connect 8 0 30 0;#P lcolor 6;#P connect 30 0 32 0;#P connect 32 0 31 0;#P connect 6 4 28 0;#P connect 28 0 29 0;#P connect 29 0 30 1;#P connect 6 4 51 0;#P connect 51 0 52 0;#P connect 8 0 35 0;#P lcolor 6;#P connect 35 0 37 0;#P connect 37 0 36 0;#P connect 6 5 33 0;#P connect 33 0 34 0;#P connect 34 0 35 1;#P connect 6 5 53 0;#P connect 53 0 54 0;#P connect 8 0 40 0;#P lcolor 6;#P connect 40 0 42 0;#P connect 42 0 41 0;#P connect 6 6 38 0;#P connect 38 0 39 0;#P connect 39 0 40 1;#P connect 6 6 55 0;#P connect 55 0 56 0;#P connect 8 0 61 0;#P lcolor 6;#P connect 61 0 63 0;#P connect 63 0 62 0;#P connect 6 7 59 0;#P connect 59 0 60 0;#P connect 60 0 61 1;#P connect 6 7 64 0;#P connect 64 0 65 0;#P pop;#P newobj 230 46 44 196622 p init;#B color 5;#N vpatcher 184 394 932 722;#P window setfont "Sans Serif" 9.;#P window linecount 2;#P newex 612 259 81 196617 ct_vregions ct-pc4-regions;#B color 13;#P newex 612 190 68 196617 ct_jslide ct-pc4-slide;#B color 13;#P newex 621 224 65 196617 ct_vsum ct-pc4-sum;#B color 13;#P newex 621 156 78 196617 ct_vbounds ct-pc4-bounds;#B color 13;#P newex 629 122 84 196617 ct_vcentroid ct-pc4-centroid;#B color 13;#P newex 485 259 81 196617 ct_vregions ct-pc3-regions;#B color 13;#P newex 485 190 68 196617 ct_jslide ct-pc3-slide;#B color 13;#P newex 494 224 65 196617 ct_vsum ct-pc3-sum;#B color 13;#P newex 494 156 78 196617 ct_vbounds ct-pc3-bounds;#B color 13;#P newex 502 122 84 196617 ct_vcentroid ct-pc3-centroid;#B color 13;#P newex 358 259 81 196617 ct_vregions ct-pc2-regions;#B color 13;#P newex 358 190 68 196617 ct_jslide ct-pc2-slide;#B color 13;#P newex 367 224 65 196617 ct_vsum ct-pc2-sum;#B color 13;#P newex 367 156 78 196617 ct_vbounds ct-pc2-bounds;#B color 13;#P newex 375 122 84 196617 ct_vcentroid ct-pc2-centroid;#B color 13;#P newex 231 259 81 196617 ct_vregions ct-pc1-regions;#B color 13;#P newex 231 190 68 196617 ct_jslide ct-pc1-slide;#B color 13;#P newex 240 224 65 196617 ct_vsum ct-pc1-sum;#B color 13;#P newex 240 156 78 196617 ct_vbounds ct-pc1-bounds;#B color 13;#P newex 248 122 84 196617 ct_vcentroid ct-pc1-centroid;#B color 13;#P window linecount 1;#P newex 231 96 392 196617 ct_v4crops ct-p-4crops;#B color 6;#P newex 36 224 130 196617 ct_vregions ct-p-regions2;#B color 13;#P newex 53 122 118 196617 ct_vbounds ct-p-bounds;#B color 13;#P newex 56 199 124 196617 ct_vregions ct-p-regions;#B color 13;#P newex 36 151 98 196617 ct_jslide ct-p-slide;#B color 13;#P newex 69 175 94 196617 ct_vsum ct-p-sum;#B color 13;#P newex 65 97 132 196617 ct_vcentroid ct-p-centroid;#B color 13;#P newex 36 68 128 196617 ct_vpresence ct-presence;#B color 13;#P inlet 36 41 15 0;#P connect 0 0 1 0;#P fasten 1 1 4 0 159 91 41 91;#P connect 4 0 7 0;#P fasten 1 1 6 0 159 91 58 91;#P connect 4 0 5 0;#P fasten 1 1 2 0 159 91 70 91;#P connect 4 0 3 0;#P fasten 1 1 8 0 159 88 236 88;#P connect 8 0 12 0;#P connect 12 0 13 0;#P connect 8 0 10 0;#P connect 12 0 11 0;#P connect 8 0 9 0;#P connect 8 1 17 0;#P connect 17 0 18 0;#P connect 8 1 15 0;#P connect 17 0 16 0;#P connect 8 1 14 0;#P connect 8 2 22 0;#P connect 22 0 23 0;#P connect 8 2 20 0;#P connect 22 0 21 0;#P connect 8 2 19 0;#P connect 8 3 27 0;#P connect 27 0 28 0;#P connect 8 3 25 0;#P connect 27 0 26 0;#P connect 8 3 24 0;#P pop;#P newobj 176 121 159 196622 p analyses_presence;#B color 6;#N vpatcher 773 44 1015 317;#P window setfont "Sans Serif" 9.;#P newex 62 115 108 196617 ct_vbounds ct-bounds;#B color 13;#P newex 36 216 120 196617 ct_vregions ct-regions2;#B color 13;#P newex 53 191 114 196617 ct_vregions ct-regions;#B color 13;#P newex 36 144 88 196617 ct_jslide ct-slide;#B color 13;#P newex 66 168 84 196617 ct_vsum ct-sum;#B color 13;#P newex 71 90 122 196617 ct_vcentroid ct-centroid;#B color 13;#P newex 36 61 108 196617 ct_vmotion ct-motion;#B color 13;#P inlet 36 41 15 0;#P connect 0 0 1 0;#P connect 1 0 4 0;#P connect 4 0 6 0;#P connect 4 0 5 0;#P connect 1 0 7 0;#P connect 4 0 3 0;#P connect 1 0 2 0;#P pop;#P newobj 32 121 139 196622 p analyses_motion;#B color 6;#P window setfont "Sans Serif" 9.;#P newex 32 81 45 196617 v.grays;#B color 14;#P window setfont "Sans Serif" 14.;#N vpatcher 60 65 669 672;#P window setfont "Sans Serif" 9.;#P window linecount 1;#P newex 326 118 104 196617 ct_vresize ct-resize;#B color 13;#P newex 57 118 110 196617 ct_vresize ct-resize2;#B color 13;#P flonum 304 511 85 9 0 0 0 3 0 0 0 221 221 221 222 222 222 0 0 0;#P number 258 500 42 9 0 0 0 3 0 0 0 221 221 221 222 222 222 0 0 0;#P number 213 500 42 9 0 0 0 3 0 0 0 221 221 221 222 222 222 0 0 0;#P window linecount 0;#P newex 213 475 170 196617 v.info;#P newex 164 339 47 196617 v.gate 2;#P message 357 52 91 196617 use_movie_size 1;#P newex 27 477 78 196617 ct_vflip ct-flip;#B color 13;#P newex 27 446 124 196617 ct_vcontrast ct-contrast;#B color 13;#P number 300 387 42 9 0 0 0 3 0 0 0 221 221 221 222 222 222 0 0 0;#P newex 300 367 27 196617 * 2;#P newex 345 346 40 196617 change;#P newex 300 346 40 196617 change;#P newex 300 406 55 196617 pak;#P message 300 427 58 196617 size \$1 \$2;#P number 345 326 42 9 0 0 0 3 0 0 0 221 221 221 222 222 222 0 0 0;#P number 300 326 42 9 0 0 0 3 0 0 0 221 221 221 222 222 222 0 0 0;#P newex 300 301 170 196617 v.info;#P message 240 309 31 196617 \$1 0;#P newex 64 192 69 196617 r ct-permute;#B color 13;#P newex 64 231 27 196617 + 1;#P toggle 64 212 15 0;#P newex 201 255 47 196617 v.gate 2;#P newex 64 257 47 196617 v.gate 2;#P number 27 309 35 9 0 2 3 3 0 0 0 221 221 221 222 222 222 0 0 0;#P newex 27 287 97 196617 r ct-howmanycams;#B color 13;#P newex 27 339 47 196617 v.gate 2;#P newex 115 386 135 196617 v.composite 2 yuv 160 240;#B color 5;#P newex 500 32 70 196617 r camtrk-init;#B color 11;#P message 538 53 43 196617 resume;#P message 500 53 29 196617 stop;#P message 461 53 30 196617 read;#P newex 461 78 79 196617 v.movie;#P newex 326 142 104 196617 ct_vrotate ct-rotate;#B color 13;#P newex 326 72 116 196617 ct_vcapture ct-capture;#B color 13;#P newex 326 165 58 196617 v.idleblack;#P newex 231 32 70 196617 r camtrk-init;#B color 11;#P message 269 53 43 196617 resume;#P message 231 53 29 196617 stop;#P message 192 53 30 196617 read;#P newex 192 78 79 196617 v.movie;#P newex 57 140 110 196617 ct_vrotate ct-rotate2;#B color 13;#P newex 57 72 122 196617 ct_vcapture ct-capture2;#B color 13;#P newex 57 163 58 196617 v.idleblack;#P newex 27 509 94 196617 ct_vzoom ct-zoom;#B color 13;#P newex 27 415 84 196617 ct_vgain ct-gain;#B color 13;#P outlet 27 554 15 0;#P connect 21 0 22 0;#P connect 22 0 20 0;#P connect 20 0 1 0;#P connect 19 0 1 0;#P connect 1 0 38 0;#P connect 38 0 39 0;#P connect 39 0 2 0;#P connect 2 0 0 0;#P connect 6 0 46 0;#P connect 4 0 46 0;#P connect 46 0 5 0;#P connect 5 0 3 0;#P connect 27 0 25 0;#P connect 25 0 26 0;#P connect 26 0 23 0;#P connect 24 1 20 1;#P connect 23 0 20 1;#P connect 11 0 23 1;#P connect 32 0 19 0;#P connect 20 1 19 0;#P connect 22 0 41 0;#P connect 40 0 6 0;#P connect 7 0 6 0;#P connect 9 0 6 0;#P connect 8 0 6 0;#P connect 26 0 24 0;#P connect 23 1 41 1;#P connect 24 0 41 1;#P connect 42 1 43 0;#P connect 10 0 8 0;#P connect 3 0 24 1;#P connect 30 0 28 0;#P connect 28 0 19 1;#P connect 41 1 19 1;#P connect 42 2 44 0;#P connect 23 0 29 0;#P connect 24 1 29 0;#P connect 29 1 30 0;#P connect 30 0 34 0;#P connect 34 0 36 0;#P connect 36 0 37 0;#P connect 37 0 33 0;#P connect 33 0 32 0;#P connect 42 7 45 0;#P connect 14 0 47 0;#P connect 12 0 47 0;#P connect 47 0 13 0;#P connect 13 0 11 0;#P connect 29 2 31 0;#P connect 31 0 35 0;#P connect 35 0 33 1;#P connect 16 0 14 0;#P connect 17 0 14 0;#P connect 15 0 14 0;#P connect 40 0 14 0;#P connect 18 0 16 0;#P pop;#P newobj 32 46 100 196622 p camerasX2;#B color 6;#P window setfont "Sans Serif" 9.;#P newex 76 243 62 196617 r ct-record;#B color 11;#P newex 32 173 149 196617 ct_vstreamab ct-windowxfade;#B color 13;#P number 311 387 42 9 0 0 0 3 0 0 0 221 221 221 222 222 222 0 0 0;#P number 266 387 42 9 0 0 0 3 0 0 0 221 221 221 222 222 222 0 0 0;#P newex 266 363 170 196617 v.info;#P message 161 239 71 196617 record_pause;#P message 206 283 29 196617 stop;#P message 238 239 43 196617 resume;#P message 202 261 35 196617 pause;#P message 161 261 40 196617 record;#P newex 76 301 120 196617 v.record jpeg normal 32;#P outlet 32 385 15 0;#P window linecount 2;#P message 273 331 79 196617 \; storetemp bang;#P window linecount 1;#P newex 65 204 100 196617 ct_jnetsend netsend;#B color 13;#P connect 14 0 15 0;#P connect 15 0 16 0;#P connect 12 0 2 0;#P connect 36 0 2 0;#P connect 12 0 0 0;#P connect 12 0 3 0;#P connect 4 0 3 0;#P connect 5 0 3 0;#P connect 6 0 3 0;#P connect 7 0 3 0;#P connect 8 0 3 0;#P connect 13 0 3 0;#P connect 35 0 36 0;#P fasten 15 0 17 0 37 106 181 106;#P connect 12 0 9 0;#P connect 9 1 10 0;#P connect 9 2 11 0;#P connect 22 0 33 0;#P connect 22 0 34 0;#P connect 22 0 23 0;#P connect 22 0 25 0;#P connect 22 0 26 0;#P connect 22 0 27 0;#P connect 19 0 20 0;#P connect 20 0 21 0;#P pop;#P newobj 14 330 90 196626 p motors;#B color 6;#P bpatcher 7 48 108 128 0 0 activeparamsosc.edit.mxt 0 activeparamsosc ct_switchstate camtrk;#P window setfont "Sans Serif" 14.;#P window linecount 2;#P comment 28 377 68 196622 conduite (qlists);#B frgb 8 58 255;#P window setfont "Sans Serif" 12.;#P window linecount 1;#P comment 23 415 80 196620 double-click;#B frgb 0 0 180;#P comment 4 19 106 196620 stockage des;#B frgb 8 58 255;#P button 163 34 33 6;#P window setfont "Sans Serif" 9.;#P window linecount 2;#P hidden message 200 33 85 196617 \; camtrk-init bang;#B color 7;#P window linecount 1;#P hidden newex 132 396 50 196617 del 5000;#P hidden newex 132 377 48 196617 loadbang;#P window setfont "Sans Serif" 18.;#N vpatcher 512 237 720 853;#P bpatcher 22 531 121 51 0 0 qlistshell.edit.mxt 0 ct-preset10;#P bpatcher 22 476 121 51 0 0 qlistshell.edit.mxt 0 ct-preset9;#P bpatcher 22 421 121 51 0 0 qlistshell.edit.mxt 0 ct-preset8;#P bpatcher 22 366 121 51 0 0 qlistshell.edit.mxt 0 ct-preset7;#P bpatcher 22 311 121 51 0 0 qlistshell.edit.mxt 0 ct-preset6;#P bpatcher 22 256 121 51 0 0 qlistshell.edit.mxt 0 ct-preset5;#P bpatcher 22 201 121 51 0 0 qlistshell.edit.mxt 0 ct-preset4;#P bpatcher 22 146 121 51 0 0 qlistshell.edit.mxt 0 ct-preset3;#P bpatcher 22 91 121 51 0 0 qlistshell.edit.mxt 0 ct-preset2;#P bpatcher 22 36 121 51 0 0 qlistshell.edit.mxt 0 ct-preset1;#P pop;#P newobj 19 432 88 196626 p events;#B color 6;#P comment 197 36 43 196626 INIT;#P window setfont "Sans Serif" 9.;#P window linecount 2;#P comment 129 442 55 196617 © 2006-7 tom mays;#B frgb 128 128 128;#P window linecount 1;#N standalone;#S creator CMTK;#S statusvisible 1;#S noloadbangdefeating 0;#S useownplist 0;#S preffilename "CAMTRK Preferences";#S overdrive 0;#S allwindowsactive 0;#S searchformissingfiles 1;#S usesearchpath 0;#S cantclosetoplevelpatchers 1;#S audiosupport 1;#S midisupport 1;#P hidden newobj 129 427 57 196617 standalone;#P window setfont Times 9.;#N vpatcher 254 68 476 301;#N comlet to thispatcher;#P outlet 31 190 15 0;#N comlet from toggle;#P inlet 16 106 15 0;#N comlet to toggle;#P outlet 16 72 15 0;#P window setfont Times 9.;#P newex 16 52 18 1310729 t 1;#P newex 16 31 43 1310729 loadbang;#P newex 16 124 40 1310729 sel 1 0;#P window setfont "Sans Serif" 9.;#P message 31 146 158 196617 window flags close \, window exec;#P message 16 164 168 196617 window flags noclose \, window exec;#P connect 3 0 4 0;#P connect 4 0 5 0;#P connect 6 0 2 0;#P connect 2 0 0 0;#P connect 2 1 1 0;#P connect 0 0 7 0;#P connect 1 0 7 0;#P pop;#P hidden newobj 30 2 50 1310729 p closebox;#B color 6;#P toggle 1 2 15 0;#N thispatcher;#Q end;#P hidden newobj 81 2 51 1310729 thispatcher;#P comment 17 3 74 1310729 inhibit close box;#B frgb 128 128 128;#P user panel 1 376 125 90;#X brgb 164 161 220;#X frgb 0 0 0;#X border 1;#X rounded 0;#X shadow 0;#X done;#P background;#P user panel 1 19 280 354;#X brgb 164 161 220;#X frgb 0 0 0;#X border 1;#X rounded 0;#X shadow 0;#X done;#P background;#P hidden connect 5 0 4 0;#P hidden connect 39 0 37 0;#P hidden connect 4 0 5 0;#P hidden connect 5 1 3 0;#P hidden connect 41 0 36 0;#P fasten 18 0 21 0 19 362 106 362 106 339 114 339;#P hidden fasten 23 0 21 0 150 340 114 340;#P connect 22 0 21 0;#P hidden connect 31 1 32 0;#P hidden connect 32 0 33 0;#P hidden connect 33 0 34 0;#P hidden connect 10 0 11 0;#P hidden connect 53 0 54 0;#P hidden connect 11 0 13 0;#P hidden connect 34 0 13 0;#P hidden connect 43 0 38 0;#P hidden connect 50 0 49 0;#P hidden connect 28 0 27 0;#P hidden connect 13 0 12 0;#P hidden connect 26 0 25 0;#P hidden connect 25 0 24 0;#P pop;