max v2;#N vpatcher 0 44 955 610;#P toggle 582 33 15 0;#P inlet 388 777 15 0;#P window setfont "Sans Serif" 9.;#P newex 541 1142 167 196617 varieditu /crop/edge/bottom $1;#P newex 541 1272 158 196617 varieditu /crop/edge/right $1;#P newex 541 1207 150 196617 varieditu /crop/edge/top $1;#P newex 540 1085 152 196617 varieditu /crop/edge/left $1;#P newex 541 1187 68 196617 pvar edgetop;#P newex 541 1254 76 196617 pvar edgeright;#P newex 541 1124 85 196617 pvar edgebottom;#P newex 540 1064 70 196617 pvar edgeleft;#P window setfont "Sans Serif" 12.;#P comment 78 103 44 196620 /edge;#P comment 78 84 44 196620 /crop;#P window setfont "Sans Serif" 9.;#P comment 297 106 47 196617 /bottom;#B color 1;#P comment 178 106 30 196617 /top;#B color 1;#P comment 236 106 38 196617 /right;#B color 1;#P flonum 340 104 33 9 0. 1. 3 3 0 0 0 221 221 221 222 222 222 0 0 0;#P objectname edgebottom;#P flonum 145 104 33 9 0. 1. 3 3 0 0 0 221 221 221 222 222 222 0 0 0;#P objectname edgeleft;#P comment 118 106 58 196617 /left;#B color 1;#P newex 174 780 27 196617 t b l;#P newex 204 844 27 196617 t b l;#P newex 219 906 27 196617 t b l;#P newex 294 973 27 196617 t b l;#P window setfont "Sans Serif" 12.;#N vpatcher 26 351 447 703;#P window setfont "Sans Serif" 9.;#P window linecount 1;#P newex 259 187 87 196617 scale 0 120 1. 0.;#P newex 86 186 87 196617 scale 0 160 0. 1.;#P newex 193 279 103 196617 s $1/crop/crop/top;#P newex 86 259 111 196617 s $1/crop/crop/right;#P newex 193 243 50 196617 t f 2;#P newex 193 223 76 196617 gate 2;#P newex 46 234 32 196617 t f 2;#P newex 46 214 50 196617 gate 2;#P newex 244 120 50 196617 t 1;#P newex 244 98 50 196617 sel 1;#P window linecount 0;#P newex 244 78 50 196617 change;#P window linecount 1;#P newex 259 259 120 196617 s $1/crop/crop/bottom;#P newex 46 279 105 196617 s $1/crop/crop/left;#P window linecount 0;#P newex 79 50 231 196617 unpack mouse 0 0 0 0;#P inlet 79 30 15 0;#P connect 6 0 7 0;#P connect 8 1 7 0;#P connect 7 0 8 0;#P connect 8 0 2 0;#P connect 0 0 1 0;#P connect 1 1 13 0;#P connect 13 0 7 1;#P connect 7 1 11 0;#P connect 6 0 9 0;#P connect 10 1 9 0;#P connect 9 0 10 0;#P connect 10 0 12 0;#P connect 1 3 4 0;#P connect 4 0 5 0;#P connect 5 0 6 0;#P connect 1 2 14 0;#P connect 14 0 9 1;#P connect 9 1 3 0;#P pop;#P newobj 237 1110 58 196620 p souris;#B color 6;#P user jsui 357 118 38 19 1 0 0 m_toggle.js active visible;#P objectname visible;#P window setfont "Sans Serif" 9.;#P newex 246 1057 126 196617 m_colormode $1/crop;#B color 14;#P newex 425 853 50 196617 t b;#P newex 425 832 50 196617 pvar full;#P message 372 86 23 196617 full;#P objectname full;#P flonum 339 86 33 9 0. 1. 3 3 0 0 0 221 221 221 222 222 222 0 0 0;#P objectname ys2;#P window linecount 5;#P message 425 875 125 196617 \; $1/crop/crop/left 0 \; $1/crop/crop/top 1 \; $1/crop/crop/bottom 0 \; $1/crop/crop/right 1 \;;#P window linecount 1;#P comment 296 88 47 196617 /bottom;#B color 1;#P comment 177 88 30 196617 /top;#B color 1;#P comment 235 88 38 196617 /right;#B color 1;#P flonum 267 86 33 9 0. 1. 3 3 0 0 0 221 221 221 222 222 222 0 0 0;#P objectname xs2;#P flonum 203 86 33 9 0. 1. 3 3 0 0 0 221 221 221 222 222 222 0 0 0;#P objectname ys1;#P flonum 144 86 33 9 0. 1. 3 3 0 0 0 221 221 221 222 222 222 0 0 0;#P objectname xs1;#P comment 117 88 58 196617 /left;#B color 1;#P newex 204 821 167 196617 varieditu /crop/crop/bottom $1;#P newex 294 951 158 196617 varieditu /crop/crop/right $1;#P newex 219 886 150 196617 varieditu /crop/crop/top $1;#P newex 173 761 152 196617 varieditu /crop/crop/left $1;#P newex 219 866 50 196617 pvar ys1;#P newex 294 933 50 196617 pvar xs2;#P newex 204 798 50 196617 pvar ys2;#P newex 173 743 50 196617 pvar xs1;#P newex 179 1088 68 196617 pvar ekran 2;#P user jit.pwindow 601 30 162 122 0 1 0 0 1 0;#P objectname ekran;#P window setfont "Sans Serif" 12.;#N vpatcher 469 295 1135 559;#P origin 0 -34;#P window setfont "Sans Serif" 9.;#P newex 106 174 82 196617 t b l;#P inlet 106 69 15 0;#P newex 16 110 48 196617 loadbang;#P message 15 132 61 196617 pensize 2 2;#P message 22 151 68 196617 frgb 255 0 0;#P newex 378 93 63 196617 !- 1.;#P newex 242 94 63 196617 !- 1.;#P newex 106 149 282 196617 pak framerect 0 0 0 0;#P newex 378 117 63 196617 * 120.;#P newex 242 118 63 196617 * 120.;#P newex 310 119 63 196617 * 160.;#P newex 174 119 63 196617 * 160.;#P newex 378 70 218 196617 r $1/crop/crop/bottom;#B color 12;#P newex 242 30 201 196617 r $1/crop/crop/top;#B color 12;#P newex 310 50 209 196617 r $1/crop/crop/right;#B color 12;#P newex 174 10 203 196617 r $1/crop/crop/left;#B color 12;#P newex 106 109 27 196617 t b l;#P newex 106 201 111 196617 jit.lcd 4 char 160 120;#P outlet 106 228 15 0;#P connect 16 0 15 0;#P connect 16 0 14 0;#P connect 17 0 2 0;#P connect 2 0 11 0;#P connect 11 0 18 0;#P connect 2 1 1 0;#P connect 18 1 1 0;#P connect 18 0 1 0;#P fasten 14 0 1 0 27 195 111 195;#P fasten 15 0 1 0 20 198 111 198;#P connect 1 0 0 0;#P connect 3 0 7 0;#P connect 7 0 11 1;#P connect 5 0 12 0;#P connect 12 0 9 0;#P connect 9 0 11 2;#P connect 4 0 8 0;#P connect 8 0 11 3;#P connect 6 0 13 0;#P connect 13 0 10 0;#P connect 10 0 11 4;#P pop;#P newobj 179 1057 62 196620 p display;#B color 6;#P comment 82 123 129 196620 $1/crop;#P user panel 1 299 512 4;#X brgb 107 107 107;#X frgb 191 191 191;#X border 1;#X rounded 0;#X shadow 0;#X done;#P user panel 1 334 512 4;#X brgb 107 107 107;#X frgb 191 191 191;#X border 1;#X rounded 0;#X shadow 0;#X done;#P user panel 1 196 512 4;#X brgb 107 107 107;#X frgb 191 191 191;#X border 1;#X rounded 0;#X shadow 0;#X done;#P user panel 1 138 512 4;#X brgb 107 107 107;#X frgb 191 191 191;#X border 1;#X rounded 0;#X shadow 0;#X done;#P window setfont "Sans Serif" 9.;#P comment 19 51 46 196617 /record;#B frgb 0 0 222;#P newex 1438 186 155 196617 sprintf send %s/buf/loop/reset;#P comment 178 38 39 196617 /mode;#B frgb 0 0 222;#P user ubumenu 213 36 43 196617 0 1 1 0;#X add loop;#X add delay;#X prefix_set 0 0 <none> 0;#P objectname mode;#P window setfont "Sans Serif" 14.;#P comment 648 566 233 196622 look at the [sprintf %s_] object;#P comment 590 537 128 196622 VERY IMPORTANT;#P window setfont "Sans Serif" 9.;#P newex 538 537 50 196617 deferlow;#P window setfont "Sans Serif" 12.;#N vpatcher 30 89 270 442;#P origin 0 -15;#P window setfont "Sans Serif" 9.;#P window linecount 0;#P newex 91 218 64 196617 sprintf %s_;#P window linecount 2;#P newex 50 178 39 196617 route symbol;#P window linecount 1;#P newex 50 87 46 196617 t dump l;#P newex 50 65 114 196617 sprintf refer %s/state;#P newex 50 294 47 196617 forward;#P window linecount 2;#P newex 91 250 42 196617 prepend send;#P newex 91 178 39 196617 route symbol;#P window linecount 1;#N coll /tllslo.1/state;#P newobj 50 154 133 196617 coll;#B color 5;#P inlet 50 21 15 0;#P connect 0 0 5 0;#P connect 5 0 6 0;#P connect 6 0 1 0;#P connect 6 1 1 0;#P connect 1 0 7 0;#P fasten 7 1 4 0 84 231 55 231;#P connect 7 0 4 0;#P fasten 3 0 4 0 96 286 55 286;#P connect 1 1 2 0;#P connect 2 0 8 0;#P connect 8 0 3 0;#P pop;#P newobj 538 566 109 196620 p re-send values;#B color 7;#P window setfont "Sans Serif" 9.;#P newex 774 6 195 196617 r $1/editor/view;#P window setfont "Sans Serif" 12.;#N vpatcher 22 64 1144 471;#P window setfont "Sans Serif" 9.;#P window linecount 1;#P newex 758 140 36 196617 zl reg;#P newex 821 156 36 196617 zl reg;#P inlet 847 37 15 0;#P newex 866 262 150 196617 varieditu /thresh/bypass $1;#P newex 898 303 155 196617 varieditu /thresh/reverse $1;#B color 12;#P inlet 898 283 15 0;#P inlet 866 242 15 0;#P inlet 659 254 15 0;#P inlet 433 261 15 0;#P inlet 239 258 15 0;#P inlet 44 245 15 0;#P inlet 758 37 15 0;#P outlet 866 284 15 0;#P outlet 898 325 15 0;#P outlet 659 336 15 0;#P outlet 432 336 15 0;#P outlet 238 336 15 0;#P outlet 44 336 15 0;#P outlet 827 336 15 0;#P outlet 600 336 15 0;#P outlet 412 336 15 0;#P outlet 222 336 15 0;#P newex 793 82 30 196617 t fill;#P newex 758 82 31 196617 t out;#P newex 758 60 80 196617 sel 0 1;#P newex 659 275 178 196617 varieditu /color/alpha $1/thresh/out;#P newex 758 107 265 196617 t b b s;#P newex 758 188 50 196617 deferlow;#P window setfont "Sans Serif" 12.;#N vpatcher 30 89 293 402;#P origin 0 -15;#P window setfont "Sans Serif" 9.;#P window linecount 0;#P newex 91 178 64 196617 sprintf %s_;#P window linecount 2;#P newex 50 138 39 196617 route symbol;#P window linecount 1;#P newex 50 87 46 196617 t dump l;#P newex 50 65 114 196617 sprintf refer %s/state;#P newex 50 254 47 196617 forward;#P window linecount 2;#P newex 91 210 42 196617 prepend send;#P newex 91 138 39 196617 route symbol;#P window linecount 1;#N coll $1/state;#P newobj 50 114 134 196617 coll;#B color 5;#P inlet 50 21 15 0;#P connect 0 0 5 0;#P connect 5 0 6 0;#P connect 6 0 1 0;#P connect 6 1 1 0;#P connect 1 0 7 0;#P fasten 7 1 4 0 84 191 55 191;#P connect 7 0 4 0;#P fasten 3 0 4 0 96 246 55 246;#P connect 1 1 2 0;#P connect 2 0 8 0;#P connect 8 0 3 0;#P pop;#P newobj 758 217 109 196620 p re-send values;#B color 7;#P window setfont "Sans Serif" 9.;#P window linecount 0;#P newex 821 185 201 196617 sprintf %s/thresh/%s;#P newex 432 283 178 196617 varieditu /color/blue $1/thresh/out;#P newex 238 283 185 196617 varieditu /color/green $1/thresh/out;#P newex 44 283 188 196617 varieditu /color/red $1/thresh/out;#P connect 22 0 0 0;#P connect 0 0 15 0;#P connect 3 0 0 2;#P connect 0 2 11 0;#P connect 23 0 1 0;#P connect 1 0 16 0;#P connect 3 0 1 2;#P connect 1 2 12 0;#P connect 24 0 2 0;#P connect 2 0 17 0;#P connect 3 0 2 2;#P connect 2 2 13 0;#P connect 25 0 7 0;#P connect 7 0 18 0;#P connect 21 0 8 0;#P connect 8 0 9 0;#P connect 10 0 6 0;#P connect 9 0 6 0;#P connect 6 0 32 0;#P connect 32 0 5 0;#P connect 5 0 4 0;#P connect 3 0 7 2;#P connect 30 0 32 1;#P connect 8 1 10 0;#P connect 30 0 31 0;#P connect 6 1 31 0;#P connect 31 0 3 0;#P connect 7 2 14 0;#P connect 26 0 29 0;#P connect 29 0 20 0;#P connect 27 0 28 0;#P connect 28 0 19 0;#P connect 30 0 29 2;#P connect 30 0 28 2;#P connect 6 2 3 1;#P pop;#P hidden newobj 56 467 192 196620 p THRESHOLD;#B color 6;#P window setfont "Sans Serif" 9.;#P newex 871 485 167 196617 varieditu /crop/crop/bottom $1;#P newex 961 609 158 196617 varieditu /crop/crop/right $1;#P newex 886 550 150 196617 varieditu /crop/crop/top $1;#P newex 840 425 152 196617 varieditu /crop/crop/left $1;#P newex 886 530 50 196617 pvar ys1;#P newex 961 591 50 196617 pvar xs2;#P newex 871 462 50 196617 pvar ys2;#P newex 840 407 50 196617 pvar xs1;#P user multiSlider 75 219 146 18 0. 1. 1 2936 47 0 0 2 0 0 0;#M frgb 222 0 0;#M brgb 255 255 255;#M rgb2 127 127 127;#M rgb3 0 0 0;#M rgb4 37 52 91;#M rgb5 74 105 182;#M rgb6 112 158 18;#M rgb7 149 211 110;#M rgb8 187 9 201;#M rgb9 224 62 37;#M rgb10 7 114 128;#P objectname threshalpha[3];#P user multiSlider 75 238 146 19 0. 1. 1 2936 47 0 0 2 0 0 0;#M frgb 0 222 0;#M brgb 255 255 255;#M rgb2 127 127 127;#M rgb3 0 0 0;#M rgb4 37 52 91;#M rgb5 74 105 182;#M rgb6 112 158 18;#M rgb7 149 211 110;#M rgb8 187 9 201;#M rgb9 224 62 37;#M rgb10 7 114 128;#P objectname threshalpha[2];#P user multiSlider 75 258 146 19 0. 1. 1 2936 47 0 0 2 0 0 0;#M frgb 0 0 222;#M brgb 255 255 255;#M rgb2 127 127 127;#M rgb3 0 0 0;#M rgb4 37 52 91;#M rgb5 74 105 182;#M rgb6 112 158 18;#M rgb7 149 211 110;#M rgb8 187 9 201;#M rgb9 224 62 37;#M rgb10 7 114 128;#P objectname threshalpha[1];#P user radiogroup 46 243 18 40;#X size 2;#X offset 24;#X inactive 0;#X itemtype 0;#X flagmode 0;#X set 0;#X done;#P user multiSlider 75 278 146 19 0. 1. 1 2936 47 0 0 2 0 0 0;#M frgb 0 0 0;#M brgb 255 255 255;#M rgb2 127 127 127;#M rgb3 0 0 0;#M rgb4 37 52 91;#M rgb5 74 105 182;#M rgb6 112 158 18;#M rgb7 149 211 110;#M rgb8 187 9 201;#M rgb9 224 62 37;#M rgb10 7 114 128;#P objectname threshalpha;#P newex 1362 129 95 196617 sprintf set %s/out;#P newex 1360 163 44 196617 receive;#P newex 1218 249 67 196617 prepend max;#P newex 1218 209 145 196617 r $1/buf/size;#B color 12;#P newex 1047 372 192 196617 varieditu /brcosa/sa $1;#B color 12;#P newex 1047 328 192 196617 varieditu /brcosa/co $1;#B color 12;#P newex 1047 284 192 196617 varieditu /brcosa/br $1;#B color 12;#P newex 1047 350 44 196617 pvar sa;#P newex 1047 306 44 196617 pvar co;#P newex 1047 262 44 196617 pvar br;#P flonum 465 54 33 9 -20. 20. 35 3 0 0 0 221 221 221 222 222 222 0 0 0;#P objectname sa;#P flonum 411 54 33 9 -20. 20. 35 3 0 0 0 221 221 221 222 222 222 0 0 0;#P objectname co;#P flonum 356 54 33 9 -20. 20. 35 3 0 0 0 221 221 221 222 222 222 0 0 0;#P objectname br;#P comment 442 54 24 196617 /sa;#B frgb 0 0 200;#P comment 388 54 24 196617 /co;#B frgb 0 0 200;#P comment 335 54 24 196617 /br;#B frgb 0 0 200;#N vpatcher 632 312 1289 606;#P origin 48 0;#P inlet 502 38 15 0;#P window setfont "Sans Serif" 9.;#P newex 7 52 399 196617 unpack i i i;#P newex 7 78 40 196617 / 255.;#P newex 201 78 40 196617 / 255.;#P newex 395 78 40 196617 / 255.;#P newex 175 213 62 196617 prepend set;#P newex 175 127 41 196617 * 255.;#P newex 379 127 41 196617 * 255.;#P newex 566 127 41 196617 * 255.;#P newex 175 154 404 196617 pak i i i;#P newex 395 102 181 196617 varieditu /plane/color/blue $1;#P newex 201 102 188 196617 varieditu /plane/color/green $1;#P newex 7 102 178 196617 varieditu /plane/color/red $1;#P newex 280 221 62 196617 prepend set;#P message 253 205 20 196617 42;#P message 101 215 69 196617 saturation \$1;#P newex 253 183 45 196617 loadbang;#P inlet 280 201 15 0;#P inlet 7 32 15 0;#P inlet 101 195 15 0;#P outlet 175 251 15 0;#P outlet 280 251 15 0;#P connect 3 0 20 0;#P connect 20 0 19 0;#P connect 19 0 9 0;#P connect 2 0 6 0;#P connect 21 0 9 2;#P connect 9 1 15 0;#P connect 15 0 12 0;#P connect 12 0 16 0;#P connect 16 0 1 0;#P connect 6 0 1 0;#P connect 20 1 18 0;#P connect 18 0 10 0;#P fasten 5 0 7 0 258 202 258 202;#P connect 4 0 8 0;#P connect 7 0 0 0;#P connect 8 0 0 0;#P connect 21 0 10 2;#P connect 14 0 12 1;#P connect 10 1 14 0;#P connect 20 2 17 0;#P connect 17 0 11 0;#P connect 21 0 11 2;#P connect 11 1 13 0;#P connect 13 0 12 2;#P pop;#P hidden newobj 33 688 45 196617 p;#P user hslider 591 160 10 157 256 1 0 0;#P newex 935 26 93 196617 pvar delaylistbang;#N vpatcher 20 74 565 371;#P outlet 340 200 15 0;#P inlet 284 158 15 0;#P window setfont "Sans Serif" 9.;#P newex 214 178 267 196617 varieditu /buf/source $1;#B color 12;#P newex 147 99 98 196617 route $1;#P newex 147 128 78 196617 prepend append;#P newex 50 101 40 196617 t clear;#P newex 50 79 106 196617 route clear;#P newex 50 50 128 196617 r /movie/totexturemenus;#B color 12;#P newex 128 238 288 196617 varieditu /thresh/source2 $1;#B color 12;#P inlet 214 158 15 0;#P inlet 128 218 15 0;#P outlet 147 150 15 0;#P outlet 50 123 15 0;#P outlet 214 200 15 0;#P outlet 128 260 15 0;#P connect 7 0 8 0;#P connect 8 0 9 0;#P connect 9 0 2 0;#P connect 4 0 6 0;#P connect 6 0 0 0;#P connect 8 1 11 0;#P fasten 11 1 10 0 240 122 152 122;#P connect 10 0 3 0;#P connect 5 0 12 0;#P connect 12 0 1 0;#P connect 13 0 6 2;#P connect 12 1 14 0;#P connect 13 0 12 2;#P pop;#P newobj 1232 13 107 196617 p menu-fillin;#P newex 470 591 170 196617 varieditu /plane/flip/y $1;#P newex 470 567 55 196617 pvar flipy;#P newex 288 601 140 196617 varieditu /plane/flip/x $1;#P newex 288 578 55 196617 pvar flipx;#P toggle 546 258 15 0;#P objectname flipy;#P toggle 546 242 15 0;#P objectname flipx;#P comment 507 260 43 196617 /flip/y;#B frgb 0 0 222;#P comment 507 244 43 196617 /flip/x;#B frgb 0 0 222;#P newex 763 397 29 196617 thru;#P comment 3 221 47 196617 /bypass;#B frgb 222 0 0;#P toggle 49 220 15 0;#P objectname threshbypass;#P comment 146 204 52 196617 /source2;#B frgb 0 0 222;#P window setfont "Sans Serif" 18.;#P comment 4 138 55 196626 /rota;#B frgb 111 111 111;#P window setfont "Sans Serif" 9.;#P comment 191 147 39 196617 /zoom;#B frgb 0 0 222;#P comment 231 167 20 196617 /y;#B frgb 0 0 222;#P hidden comment 152 167 20 196617 /y;#B frgb 0 0 222;#P comment 67 166 20 196617 /y;#B frgb 0 0 222;#P hidden flonum 138 179 33 9 -1024. 1024. 35 3 0 0 0 221 221 221 222 222 222 0 0 0;#P objectname anchory;#P hidden flonum 99 179 33 9 -1024. 1024. 35 3 0 0 0 221 221 221 222 222 222 0 0 0;#P objectname anchorx;#P hidden comment 94 167 58 196617 /anchor/x;#B frgb 0 0 222;#P flonum 54 178 33 9 -1024. 1024. 35 3 0 0 0 221 221 221 222 222 222 0 0 0;#P objectname offsety;#P flonum 16 179 33 9 -1024. 1024. 35 3 0 0 0 221 221 221 222 222 222 0 0 0;#P objectname offsetx;#P flonum 223 146 33 9 -10. 10. 35 3 0 0 0 221 221 221 222 222 222 0 0 0;#P objectname zoom;#P flonum 220 179 33 9 -10. 10. 35 3 0 0 0 221 221 221 222 222 222 0 0 0;#P objectname zoomy;#P window setfont Times 9.;#P window linecount 2;#P comment 126 141 49 1310729 /bound mode;#B frgb 0 0 222;#P window setfont "Sans Serif" 9.;#P flonum 184 179 33 9 -10. 10. 35 3 0 0 0 221 221 221 222 222 222 0 0 0;#P objectname zoomx;#P flonum 88 146 33 9 -6.28 6.28 35 3 0 0 0 221 221 221 222 222 222 0 0 0;#P objectname rota;#P window linecount 1;#P comment 179 167 51 196617 /zoom/x;#B frgb 0 0 222;#P comment 53 147 39 196617 /theta;#B frgb 0 0 222;#P window setfont Times 10.;#P user ubumenu 196 202 59 1310730 0 0 1 0;#X add <none>;#X add /mov.1;#X add /mov.2;#X add /cam.1;#X add /pict.1;#X add /pict.2;#X add /noiz.1;#X add /render.1;#X prefix_set 0 0 <none> 0;#P objectname texture-2;#P toggle 129 202 15 0;#P objectname reverse;#P window setfont "Sans Serif" 9.;#P comment 79 203 51 196617 /reverse;#B frgb 0 0 222;#P flonum 222 281 35 9 0. 1. 8195 3 0 0 0 221 221 221 222 222 222 0 0 0;#P objectname outa;#P flonum 222 260 35 9 0. 1. 8195 3 0 0 0 221 221 221 222 222 222 0 0 0;#P objectname outb;#P flonum 222 241 35 9 0. 1. 8195 3 0 0 0 221 221 221 222 222 222 0 0 0;#P objectname outg;#P flonum 222 221 35 9 0. 1. 8195 3 0 0 0 221 221 221 222 222 222 0 0 0;#P objectname outr;#P user panel 1 80 512 4;#X brgb 107 107 107;#X frgb 191 191 191;#X border 1;#X rounded 0;#X shadow 0;#X done;#P number 159 145 35 9 0 5 35 3 0 0 0 221 221 221 222 222 222 0 0 0;#P objectname boundmode;#P comment 11 166 55 196617 /offset/x;#B frgb 0 0 222;#P window setfont "Sans Serif" 18.;#P comment 4 199 75 196626 /thresh;#B frgb 111 111 111;#P comment 4 80 78 196626 /brcosa;#B frgb 111 111 111;#P window setfont "Sans Serif" 9.;#P newex 1059 193 62 196617 prepend set;#P newex 1004 193 62 196617 prepend set;#P newex 1004 166 65 196617 unpack f f;#P toggle 62 49 16 0;#P objectname beginend;#P hidden newex 52 589 94 196617 pvar threshbypass;#P newex 1516 134 58 196617 pvar reset;#P button 56 34 16 0;#P objectname reset;#P comment 19 36 39 196617 /reset;#B frgb 0 0 222;#P newex 1083 35 58 196617 pvar freez;#P comment 58 20 39 196617 /freez;#B frgb 0 0 222;#P toggle 93 19 15 0;#P objectname freez;#P newex 1083 66 128 196617 varieditu /buf/freez $1;#P newex 1113 172 170 196617 varieditu /buf/loop/autostart $1;#P newex 1113 148 78 196617 pvar switch[1];#P newex 1516 159 47 196617 forward;#P comment 130 63 39 196617 /mode;#B frgb 0 0 222;#P toggle 103 62 15 0;#P objectname switch[1];#P comment 48 64 58 196617 /autostart;#B frgb 0 0 222;#P newex 1108 132 141 196617 varieditu /buf/loop/sw $1;#P newex 1108 108 64 196617 pvar switch;#P toggle 34 62 15 0;#P objectname switch;#P window setfont "Sans Serif" 10.;#P user ubumenu 166 62 89 196618 0 1 1 1;#X add oneshot;#X add normal;#X add reverse;#X add palindrome;#X prefix_set 0 0 <none> 0;#P objectname bufloopmenu;#P button 240 18 16 0;#P objectname delaylistbang;#P window setfont "Sans Serif" 9.;#P newex 990 67 87 196617 pvar frame_time;#P newex 961 48 82 196617 pvar frame_end;#P newex 935 143 149 196617 varieditu /buf/delay/list $1;#P newex 935 114 36 196617 zl reg;#P newex 961 89 39 196617 pak f f;#P message 1249 563 33 196617 set 1;#P newex 1375 444 57 196617 pvar zoom;#P newex 1249 539 52 196617 r $1/init;#P newex 1309 728 151 196617 varieditu /rota/anchor/y $1;#B color 12;#P newex 1309 706 70 196617 pvar anchory;#P newex 1308 676 151 196617 varieditu /rota/anchor/x $1;#B color 12;#P newex 1308 654 70 196617 pvar anchorx;#P newex 1309 622 148 196617 varieditu /rota/offset/y $1;#B color 12;#P newex 1309 600 67 196617 pvar offsety;#P newex 1308 570 148 196617 varieditu /rota/offset/x $1;#B color 12;#P newex 1308 548 67 196617 pvar offsetx;#P newex 1309 518 144 196617 varieditu /rota/zoom/y $1;#B color 12;#P newex 1309 496 63 196617 pvar zoomy;#P newex 1308 466 144 196617 varieditu /rota/zoom/x $1;#B color 12;#P newex 1308 444 63 196617 pvar zoomx;#P newex 1310 417 157 196617 varieditu /rota/boundmode $1;#B color 12;#P newex 1310 368 132 196617 varieditu /rota/theta $1;#B color 12;#P newex 1310 395 82 196617 pvar boundmode;#P newex 1310 346 53 196617 pvar rota;#P newex 1232 60 88 196617 pvar texture-2 2;#P flonum 203 18 35 9 0 0 0 3 0 0 0 221 221 221 222 222 222 0 0 0;#P objectname frame_time;#P flonum 166 18 35 9 0 0 0 3 0 0 0 221 221 221 222 222 222 0 0 0;#P objectname frame_end;#P comment 108 20 61 196617 /delay/list;#B frgb 0 0 222;#P user panel 152 298 4 36;#X brgb 191 191 191;#X frgb 191 191 191;#X border 1;#X rounded 0;#X shadow 0;#X done;#P comment 212 301 41 196617 /width;#B frgb 0 0 222;#P flonum 214 314 35 9 0. 100. 8195 3 0 0 0 221 221 221 222 222 222 0 0 0;#P objectname blur[1];#P window setfont "Sans Serif" 18.;#P comment 159 303 51 196626 /blur;#B frgb 111 111 111;#P comment 19 13 47 196626 /buf;#B frgb 111 111 111;#P window setfont "Sans Serif" 9.;#P newex 1328 60 77 196617 pvar texture 2;#P hidden newex 84 569 70 196617 pvar reverse;#P window setfont "Sans Serif" 18.;#P comment 3 304 59 196626 /slide;#B frgb 111 111 111;#P window setfont "Sans Serif" 9.;#P newex 92 692 155 196617 varieditu /slide/slidedown $1;#P newex 92 641 142 196617 varieditu /slide/slideup $1;#P newex 92 670 78 196617 pvar slidedown;#P newex 92 621 65 196617 pvar slideup;#P flonum 108 314 33 9 0. 200. 8227 3 0 0 0 221 221 221 222 222 222 0 0 0;#P objectname slidedown;#P flonum 60 314 33 9 0. 200. 8227 3 0 0 0 221 221 221 222 222 222 0 0 0;#P objectname slideup;#P comment 95 301 60 196617 /slidedown;#B frgb 0 0 222;#P comment 53 301 47 196617 /slideup;#B frgb 0 0 222;#P newex 852 341 133 196617 varieditu /blur/width $1;#P newex 852 365 66 196617 pvar blur[1];#P user panel 12 81 246 4;#X brgb 191 191 191;#X frgb 191 191 191;#X border 1;#X rounded 0;#X shadow 0;#X done;#P newex 1103 678 137 196617 varieditu /plane/layer $1;#B color 12;#P newex 1040 678 58 196617 pvar layer;#P flonum 634 312 62 9 -360. 360. 8227 3 0 0 0 221 221 221 50 50 50 0 0 0;#P objectname roty;#P flonum 698 312 62 9 -360. 360. 8227 3 0 0 0 221 221 221 0 0 0 0 0 0;#P objectname rotz;#P flonum 570 312 62 9 -360. 360. 8227 3 33 33 33 221 221 221 9 9 9 0 0 0;#P objectname rotx;#P flonum 698 330 61 9 -100. 100. 8227 3 0 0 0 221 221 221 0 0 0 0 0 0;#P objectname scalez;#P flonum 634 330 61 9 -100. 100. 8227 3 9 9 9 221 221 221 33 33 33 0 0 0;#P objectname scaley;#P flonum 570 330 61 9 -100. 100. 8227 3 33 33 33 221 221 221 25 25 25 0 0 0;#P objectname scalex;#P flonum 698 294 62 9 -100. 100. 8227 3 0 0 0 221 221 221 0 0 0 0 0 0;#P objectname posz;#P flonum 634 294 62 9 -100. 100. 8227 3 0 0 0 221 221 221 0 0 0 0 0 0;#P objectname posy;#P flonum 570 294 62 9 -100. 100. 8227 3 0 0 0 221 221 221 33 33 33 0 0 0;#P objectname posx;#P comment 702 281 19 196617 /z;#B frgb 0 0 222;#P comment 636 281 20 196617 /y;#B frgb 0 0 222;#P comment 570 281 20 196617 /x;#B frgb 0 0 222;#P comment 517 315 47 196617 /rotxyz;#B frgb 0 0 222;#P comment 517 334 39 196617 /scale;#B frgb 0 0 222;#P comment 517 297 31 196617 /pos;#B frgb 0 0 222;#P window setfont Times 9.;#P number 541 227 30 9 0 1999 35 20 0 0 0 221 221 221 222 222 222 0 0 0;#P objectname layer;#P window setfont "Sans Serif" 9.;#P comment 507 227 40 196617 /layer;#B frgb 0 0 222;#P newex 860 693 155 196617 varieditu /plane/rotxyz/z $1;#B color 12;#P newex 797 693 53 196617 pvar rotz;#P newex 611 693 156 196617 varieditu /plane/rotxyz/y $1;#B color 12;#P newex 543 693 54 196617 pvar roty;#P newex 369 695 156 196617 varieditu /plane/rotxyz/x $1;#B color 12;#P newex 303 695 54 196617 pvar rotx;#P newex 860 712 147 196617 varieditu /plane/scale/z $1;#B color 12;#P newex 797 712 62 196617 pvar scalez;#P newex 611 712 148 196617 varieditu /plane/scale/y $1;#B color 12;#P newex 543 712 63 196617 pvar scaley;#P newex 369 714 148 196617 varieditu /plane/scale/x $1;#B color 12;#P newex 303 714 63 196617 pvar scalex;#P newex 860 671 139 196617 varieditu /plane/pos/z $1;#B color 12;#P newex 797 671 54 196617 pvar posz;#P newex 611 671 140 196617 varieditu /plane/pos/y $1;#B color 12;#P newex 543 671 55 196617 pvar posy;#P newex 369 673 140 196617 varieditu /plane/pos/x $1;#B color 12;#P newex 303 673 55 196617 pvar posx;#P window setfont Times 9.;#P user ubumenu 57 1 65 1310729 0 1 1 0;#X add <none>;#X add /mov.1;#X add /mov.2;#X add /cam.1;#X add /pict.1;#X add /pict.2;#X add /noiz.1;#X add /render.1;#X prefix_set 0 0 <none> 0;#P objectname texture;#P window setfont "Sans Serif" 9.;#P newex 611 650 167 196617 varieditu /plane/color/green $1;#B color 12;#P newex 543 650 62 196617 pvar colorg;#P newex 860 650 160 196617 varieditu /plane/color/blue $1;#B color 12;#P newex 1039 650 62 196617 pvar colora;#P newex 797 650 62 196617 pvar colorb;#P newex 369 650 157 196617 varieditu /plane/color/red $1;#B color 12;#P newex 303 650 62 196617 pvar colorr;#P comment 583 223 60 196617 /color/red;#B frgb 0 0 222;#P flonum 601 236 40 9 0. 1. 8227 3 0 0 0 221 221 221 25 25 25 0 0 0;#P objectname colorr;#P flonum 726 236 40 9 0. 1. 8227 3 0 0 0 221 221 221 0 0 0 0 0 0;#P objectname colora;#P flonum 686 236 40 9 0. 1. 8227 3 9 9 9 221 221 221 0 0 0 0 0 0;#P objectname colorb;#P comment 726 223 39 196617 /alpha;#B frgb 0 0 222;#P comment 685 223 34 196617 /blue;#B frgb 0 0 222;#P comment 641 223 41 196617 /green;#B frgb 0 0 222;#P window setfont "Sans Serif" 18.;#P comment 506 200 65 196626 /plane;#B frgb 111 111 111;#P window setfont "Sans Serif" 9.;#P flonum 644 236 40 9 0. 1. 8227 3 0 0 0 221 221 221 0 0 0 0 0 0;#P objectname colorg;#P message 1194 14 33 196617 clear;#P comment 5 64 35 196617 /play;#B frgb 0 0 222;#P user swatch 591 171 174 52;#P window linecount 2;#P comment 14 266 39 196617 /fill /color;#B frgb 0 0 222;#P comment 14 235 39 196617 /out /color;#B frgb 0 0 222;#P window linecount 1;#P newex 1102 650 165 196617 varieditu /plane/color/alpha $1;#B color 12;#P newex 239 1033 29 196617 gate;#P flonum 267 104 33 9 0. 1. 3 3 0 0 0 221 221 221 222 222 222 0 0 0;#P objectname edgeright;#P flonum 204 104 33 9 0. 1. 3 3 0 0 0 221 221 221 222 222 222 0 0 0;#P objectname edgetop;#P bpatcher 1 1 768 372 0 0 bkgndu.mxt 0 tllslo 1 /movie 6 3;#P objectname background;#P hidden connect 7 0 178 0;#P hidden connect 177 0 178 1;#P hidden connect 208 8 129 0;#P hidden connect 7 1 178 2;#P hidden connect 139 0 208 0;#P hidden connect 199 0 208 0;#P connect 166 0 178 3;#P hidden connect 208 1 199 0;#P hidden connect 208 3 198 0;#P hidden connect 208 5 197 0;#P hidden connect 208 7 195 0;#P hidden connect 140 0 208 1;#P hidden connect 198 0 208 1;#P hidden connect 208 9 76 0;#P fasten 73 0 71 0 97 661 97 665 88 665 88 618 97 618;#P connect 71 0 73 0;#P fasten 74 0 72 0 97 708 97 713 86 713 86 669 97 669;#P fasten 72 0 74 0 97 689 97 689;#P hidden connect 141 0 208 2;#P hidden connect 197 0 208 2;#P hidden connect 142 0 208 3;#P hidden connect 195 0 208 3;#P hidden connect 196 0 208 4;#P connect 252 1 226 0;#P connect 226 0 230 0;#P connect 230 0 252 0;#P connect 252 0 223 0;#P connect 251 0 223 0;#P connect 250 0 223 0;#P connect 249 0 223 0;#P connect 3 0 223 0;#P connect 223 0 225 0;#P fasten 246 0 225 0 251 1083 184 1083;#P connect 166 0 73 2;#P hidden connect 152 0 149 0;#P connect 166 0 208 5;#P connect 166 0 74 2;#P connect 251 1 227 0;#P connect 227 0 233 0;#P connect 233 0 251 0;#P hidden connect 129 0 208 6;#P connect 250 1 229 0;#P connect 229 0 231 0;#P connect 231 0 250 0;#P hidden connect 152 0 151 0;#P hidden connect 208 0 139 0;#P hidden connect 208 2 140 0;#P hidden connect 208 4 141 0;#P hidden connect 208 6 142 0;#P connect 225 1 248 0;#P hidden connect 76 0 208 7;#P hidden connect 270 0 3 0;#P connect 193 0 3 1;#P connect 269 0 230 2;#P connect 172 0 171 0;#P connect 171 0 172 0;#P connect 249 1 228 0;#P connect 228 0 232 0;#P connect 232 0 249 0;#P connect 20 0 19 0;#P connect 28 0 27 0;#P connect 40 0 39 0;#P connect 34 0 33 0;#P connect 269 0 233 2;#P connect 269 0 231 2;#P connect 19 0 20 0;#P connect 27 0 28 0;#P connect 39 0 40 0;#P connect 33 0 34 0;#P connect 166 0 172 2;#P connect 269 0 232 2;#P connect 244 0 245 0;#P connect 245 0 241 0;#P connect 166 0 28 2;#P connect 166 0 34 2;#P connect 166 0 40 2;#P connect 166 0 20 2;#P connect 174 0 173 0;#P connect 173 0 174 0;#P connect 166 0 211 0;#P connect 211 0 210 0;#P connect 265 0 261 0;#P connect 261 0 265 0;#P connect 268 0 262 0;#P connect 262 0 268 0;#P connect 266 0 264 0;#P connect 264 0 266 0;#P connect 267 0 263 0;#P connect 263 0 267 0;#P connect 25 0 24 0;#P connect 30 0 29 0;#P connect 42 0 41 0;#P connect 36 0 35 0;#P connect 166 0 174 2;#P hidden connect 178 1 177 0;#P hidden connect 178 0 7 0;#P connect 24 0 25 0;#P connect 29 0 30 0;#P connect 41 0 42 0;#P connect 35 0 36 0;#P connect 166 0 266 2;#P connect 269 0 266 2;#P connect 166 0 265 2;#P connect 269 0 265 2;#P connect 166 0 267 2;#P connect 269 0 267 2;#P connect 166 0 268 2;#P connect 269 0 268 2;#P connect 166 0 30 2;#P connect 166 0 36 2;#P connect 166 0 42 2;#P connect 166 0 25 2;#P hidden connect 209 0 0 1;#P hidden connect 0 1 166 0;#P connect 23 0 21 0;#P connect 32 0 31 0;#P connect 44 0 43 0;#P connect 38 0 37 0;#P connect 204 0 200 0;#P connect 200 0 204 0;#P connect 65 0 66 0;#P connect 66 0 65 0;#P connect 21 0 23 0;#P connect 31 0 32 0;#P connect 43 0 44 0;#P connect 37 0 38 0;#P connect 207 0 201 0;#P connect 201 0 207 0;#P connect 205 0 203 0;#P connect 203 0 205 0;#P connect 166 0 66 2;#P connect 166 0 204 2;#P connect 176 0 107 0;#P connect 107 0 108 0;#P connect 166 0 32 2;#P connect 166 0 38 2;#P connect 166 0 44 2;#P connect 166 0 23 2;#P connect 192 0 109 0;#P connect 132 0 109 0;#P connect 109 0 106 0;#P connect 106 0 107 1;#P connect 206 0 202 0;#P connect 202 0 206 0;#P connect 166 0 207 2;#P connect 166 0 205 2;#P connect 133 0 110 0;#P connect 110 0 106 1;#P connect 108 1 131 0;#P connect 131 0 132 0;#P connect 166 0 108 2;#P connect 4 0 22 0;#P connect 63 0 62 0;#P connect 188 0 185 0;#P connect 185 0 188 0;#P connect 189 0 186 0;#P fasten 186 0 189 0 1052 333 1052 333;#P connect 190 0 187 0;#P connect 187 0 190 0;#P connect 131 1 133 0;#P connect 166 0 206 2;#P fasten 122 0 125 0 1088 90 1079 90 1079 31 1088 31;#P connect 125 0 122 0;#P connect 22 0 4 0;#P connect 62 0 63 0;#P connect 115 0 114 0;#P connect 114 0 115 0;#P connect 121 0 120 0;#P connect 120 0 121 0;#P connect 166 0 122 2;#P connect 166 0 188 2;#P connect 166 0 189 2;#P connect 166 0 190 2;#P connect 166 0 63 2;#P connect 166 0 115 2;#P connect 166 0 4 2;#P connect 191 0 192 0;#P connect 166 0 121 2;#P connect 86 1 175 0;#P connect 175 2 86 0;#P connect 175 0 86 0;#P connect 9 0 86 0;#P lcolor 1;#P connect 175 1 86 0;#P connect 103 0 105 0;#P connect 77 1 175 1;#P fasten 92 0 91 0 1313 484 1313 488 1304 488 1304 441 1313 441;#P connect 91 0 92 0;#P fasten 96 0 95 0 1313 588 1313 592 1304 592 1304 545 1313 545;#P connect 95 0 96 0;#P fasten 100 0 99 0 1313 694 1313 698 1304 698 1304 651 1313 651;#P connect 99 0 100 0;#P fasten 94 0 93 0 1314 536 1314 540 1305 540 1305 493 1314 493;#P connect 93 0 94 0;#P fasten 98 0 97 0 1314 640 1314 644 1305 644 1305 597 1314 597;#P connect 97 0 98 0;#P fasten 102 0 101 0 1314 746 1314 750 1305 750 1305 703 1314 703;#P connect 101 0 102 0;#P fasten 89 0 87 0 1315 386 1315 390 1306 390 1306 343 1315 343;#P connect 87 0 89 0;#P fasten 90 0 88 0 1315 433 1315 438 1304 438 1304 394 1315 394;#P fasten 88 0 90 0 1315 414 1315 414;#P connect 166 0 175 2;#P connect 175 2 77 0;#P connect 175 0 77 0;#P connect 9 0 77 0;#P lcolor 1;#P connect 175 3 77 0;#P connect 194 0 193 0;#P connect 175 4 194 0;#P connect 105 0 104 0;#P connect 166 0 89 2;#P connect 166 0 92 2;#P connect 166 0 94 2;#P connect 166 0 96 2;#P connect 166 0 98 2;#P connect 166 0 100 2;#P connect 166 0 102 2;#P connect 166 0 90 2;#P connect 166 0 216 0;#P connect 216 0 119 0;#P connect 128 0 119 0;#P pop;